<?xml version="1.0" encoding="utf-8" standalone="no"?>
<!DOCTYPE svg PUBLIC "-//W3C//DTD SVG 1.1//EN"
  "http://www.w3.org/Graphics/SVG/1.1/DTD/svg11.dtd">
<svg xmlns:xlink="http://www.w3.org/1999/xlink" width="850.016104pt" height="344.6905pt" viewBox="0 0 850.016104 344.6905" xmlns="http://www.w3.org/2000/svg" version="1.1">
 <metadata>
  <rdf:RDF xmlns:dc="http://purl.org/dc/elements/1.1/" xmlns:cc="http://creativecommons.org/ns#" xmlns:rdf="http://www.w3.org/1999/02/22-rdf-syntax-ns#">
   <cc:Work>
    <dc:type rdf:resource="http://purl.org/dc/dcmitype/StillImage"/>
    <dc:date>2025-04-23T16:19:36.311038</dc:date>
    <dc:format>image/svg+xml</dc:format>
    <dc:creator>
     <cc:Agent>
      <dc:title>Matplotlib v3.10.1, https://matplotlib.org/</dc:title>
     </cc:Agent>
    </dc:creator>
   </cc:Work>
  </rdf:RDF>
 </metadata>
 <defs>
  <style type="text/css">*{stroke-linejoin: round; stroke-linecap: butt}</style>
 </defs>
 <g id="figure_1">
  <g id="patch_1">
   <path d="M -0 344.6905 
L 850.016104 344.6905 
L 850.016104 0 
L -0 0 
z
" style="fill: #ffffff"/>
  </g>
  <g id="axes_1">
   <g id="patch_2">
    <path d="M 44.086875 305.06 
L 420.190234 305.06 
L 420.190234 23.84 
L 44.086875 23.84 
z
" style="fill: #e5e5e5"/>
   </g>
   <g id="matplotlib.axis_1">
    <g id="xtick_1">
     <g id="line2d_1">
      <path d="M 61.182482 305.06 
L 61.182482 23.84 
" clip-path="url(#p76f31d5fab)" style="fill: none; stroke: #ffffff; stroke-width: 0.8; stroke-linecap: square"/>
     </g>
     <g id="line2d_2">
      <defs>
       <path id="md3d4153a97" d="M 0 0 
L 0 4.8 
" style="stroke: #555555"/>
      </defs>
      <g>
       <use xlink:href="#md3d4153a97" x="61.182482" y="305.06" style="fill: #555555; stroke: #555555"/>
      </g>
     </g>
     <g id="text_1">
      <!-- 0.0 -->
      <g style="fill: #555555" transform="translate(54.185107 320.046625) scale(0.088 -0.088)">
       <defs>
        <path id="DejaVuSans-30" d="M 2034 4250 
Q 1547 4250 1301 3770 
Q 1056 3291 1056 2328 
Q 1056 1369 1301 889 
Q 1547 409 2034 409 
Q 2525 409 2770 889 
Q 3016 1369 3016 2328 
Q 3016 3291 2770 3770 
Q 2525 4250 2034 4250 
z
M 2034 4750 
Q 2819 4750 3233 4129 
Q 3647 3509 3647 2328 
Q 3647 1150 3233 529 
Q 2819 -91 2034 -91 
Q 1250 -91 836 529 
Q 422 1150 422 2328 
Q 422 3509 836 4129 
Q 1250 4750 2034 4750 
z
" transform="scale(0.015625)"/>
        <path id="DejaVuSans-2e" d="M 684 794 
L 1344 794 
L 1344 0 
L 684 0 
L 684 794 
z
" transform="scale(0.015625)"/>
       </defs>
       <use xlink:href="#DejaVuSans-30"/>
       <use xlink:href="#DejaVuSans-2e" transform="translate(63.623047 0)"/>
       <use xlink:href="#DejaVuSans-30" transform="translate(95.410156 0)"/>
      </g>
     </g>
    </g>
    <g id="xtick_2">
     <g id="line2d_3">
      <path d="M 105.369738 305.06 
L 105.369738 23.84 
" clip-path="url(#p76f31d5fab)" style="fill: none; stroke: #ffffff; stroke-width: 0.8; stroke-linecap: square"/>
     </g>
     <g id="line2d_4">
      <g>
       <use xlink:href="#md3d4153a97" x="105.369738" y="305.06" style="fill: #555555; stroke: #555555"/>
      </g>
     </g>
     <g id="text_2">
      <!-- 10.0 -->
      <g style="fill: #555555" transform="translate(95.572863 320.046625) scale(0.088 -0.088)">
       <defs>
        <path id="DejaVuSans-31" d="M 794 531 
L 1825 531 
L 1825 4091 
L 703 3866 
L 703 4441 
L 1819 4666 
L 2450 4666 
L 2450 531 
L 3481 531 
L 3481 0 
L 794 0 
L 794 531 
z
" transform="scale(0.015625)"/>
       </defs>
       <use xlink:href="#DejaVuSans-31"/>
       <use xlink:href="#DejaVuSans-30" transform="translate(63.623047 0)"/>
       <use xlink:href="#DejaVuSans-2e" transform="translate(127.246094 0)"/>
       <use xlink:href="#DejaVuSans-30" transform="translate(159.033203 0)"/>
      </g>
     </g>
    </g>
    <g id="xtick_3">
     <g id="line2d_5">
      <path d="M 149.556993 305.06 
L 149.556993 23.84 
" clip-path="url(#p76f31d5fab)" style="fill: none; stroke: #ffffff; stroke-width: 0.8; stroke-linecap: square"/>
     </g>
     <g id="line2d_6">
      <g>
       <use xlink:href="#md3d4153a97" x="149.556993" y="305.06" style="fill: #555555; stroke: #555555"/>
      </g>
     </g>
     <g id="text_3">
      <!-- 20.0 -->
      <g style="fill: #555555" transform="translate(139.760118 320.046625) scale(0.088 -0.088)">
       <defs>
        <path id="DejaVuSans-32" d="M 1228 531 
L 3431 531 
L 3431 0 
L 469 0 
L 469 531 
Q 828 903 1448 1529 
Q 2069 2156 2228 2338 
Q 2531 2678 2651 2914 
Q 2772 3150 2772 3378 
Q 2772 3750 2511 3984 
Q 2250 4219 1831 4219 
Q 1534 4219 1204 4116 
Q 875 4013 500 3803 
L 500 4441 
Q 881 4594 1212 4672 
Q 1544 4750 1819 4750 
Q 2544 4750 2975 4387 
Q 3406 4025 3406 3419 
Q 3406 3131 3298 2873 
Q 3191 2616 2906 2266 
Q 2828 2175 2409 1742 
Q 1991 1309 1228 531 
z
" transform="scale(0.015625)"/>
       </defs>
       <use xlink:href="#DejaVuSans-32"/>
       <use xlink:href="#DejaVuSans-30" transform="translate(63.623047 0)"/>
       <use xlink:href="#DejaVuSans-2e" transform="translate(127.246094 0)"/>
       <use xlink:href="#DejaVuSans-30" transform="translate(159.033203 0)"/>
      </g>
     </g>
    </g>
    <g id="xtick_4">
     <g id="line2d_7">
      <path d="M 193.744248 305.06 
L 193.744248 23.84 
" clip-path="url(#p76f31d5fab)" style="fill: none; stroke: #ffffff; stroke-width: 0.8; stroke-linecap: square"/>
     </g>
     <g id="line2d_8">
      <g>
       <use xlink:href="#md3d4153a97" x="193.744248" y="305.06" style="fill: #555555; stroke: #555555"/>
      </g>
     </g>
     <g id="text_4">
      <!-- 30.0 -->
      <g style="fill: #555555" transform="translate(183.947373 320.046625) scale(0.088 -0.088)">
       <defs>
        <path id="DejaVuSans-33" d="M 2597 2516 
Q 3050 2419 3304 2112 
Q 3559 1806 3559 1356 
Q 3559 666 3084 287 
Q 2609 -91 1734 -91 
Q 1441 -91 1130 -33 
Q 819 25 488 141 
L 488 750 
Q 750 597 1062 519 
Q 1375 441 1716 441 
Q 2309 441 2620 675 
Q 2931 909 2931 1356 
Q 2931 1769 2642 2001 
Q 2353 2234 1838 2234 
L 1294 2234 
L 1294 2753 
L 1863 2753 
Q 2328 2753 2575 2939 
Q 2822 3125 2822 3475 
Q 2822 3834 2567 4026 
Q 2313 4219 1838 4219 
Q 1578 4219 1281 4162 
Q 984 4106 628 3988 
L 628 4550 
Q 988 4650 1302 4700 
Q 1616 4750 1894 4750 
Q 2613 4750 3031 4423 
Q 3450 4097 3450 3541 
Q 3450 3153 3228 2886 
Q 3006 2619 2597 2516 
z
" transform="scale(0.015625)"/>
       </defs>
       <use xlink:href="#DejaVuSans-33"/>
       <use xlink:href="#DejaVuSans-30" transform="translate(63.623047 0)"/>
       <use xlink:href="#DejaVuSans-2e" transform="translate(127.246094 0)"/>
       <use xlink:href="#DejaVuSans-30" transform="translate(159.033203 0)"/>
      </g>
     </g>
    </g>
    <g id="xtick_5">
     <g id="line2d_9">
      <path d="M 237.931504 305.06 
L 237.931504 23.84 
" clip-path="url(#p76f31d5fab)" style="fill: none; stroke: #ffffff; stroke-width: 0.8; stroke-linecap: square"/>
     </g>
     <g id="line2d_10">
      <g>
       <use xlink:href="#md3d4153a97" x="237.931504" y="305.06" style="fill: #555555; stroke: #555555"/>
      </g>
     </g>
     <g id="text_5">
      <!-- 40.0 -->
      <g style="fill: #555555" transform="translate(228.134629 320.046625) scale(0.088 -0.088)">
       <defs>
        <path id="DejaVuSans-34" d="M 2419 4116 
L 825 1625 
L 2419 1625 
L 2419 4116 
z
M 2253 4666 
L 3047 4666 
L 3047 1625 
L 3713 1625 
L 3713 1100 
L 3047 1100 
L 3047 0 
L 2419 0 
L 2419 1100 
L 313 1100 
L 313 1709 
L 2253 4666 
z
" transform="scale(0.015625)"/>
       </defs>
       <use xlink:href="#DejaVuSans-34"/>
       <use xlink:href="#DejaVuSans-30" transform="translate(63.623047 0)"/>
       <use xlink:href="#DejaVuSans-2e" transform="translate(127.246094 0)"/>
       <use xlink:href="#DejaVuSans-30" transform="translate(159.033203 0)"/>
      </g>
     </g>
    </g>
    <g id="xtick_6">
     <g id="line2d_11">
      <path d="M 282.118759 305.06 
L 282.118759 23.84 
" clip-path="url(#p76f31d5fab)" style="fill: none; stroke: #ffffff; stroke-width: 0.8; stroke-linecap: square"/>
     </g>
     <g id="line2d_12">
      <g>
       <use xlink:href="#md3d4153a97" x="282.118759" y="305.06" style="fill: #555555; stroke: #555555"/>
      </g>
     </g>
     <g id="text_6">
      <!-- 50.0 -->
      <g style="fill: #555555" transform="translate(272.321884 320.046625) scale(0.088 -0.088)">
       <defs>
        <path id="DejaVuSans-35" d="M 691 4666 
L 3169 4666 
L 3169 4134 
L 1269 4134 
L 1269 2991 
Q 1406 3038 1543 3061 
Q 1681 3084 1819 3084 
Q 2600 3084 3056 2656 
Q 3513 2228 3513 1497 
Q 3513 744 3044 326 
Q 2575 -91 1722 -91 
Q 1428 -91 1123 -41 
Q 819 9 494 109 
L 494 744 
Q 775 591 1075 516 
Q 1375 441 1709 441 
Q 2250 441 2565 725 
Q 2881 1009 2881 1497 
Q 2881 1984 2565 2268 
Q 2250 2553 1709 2553 
Q 1456 2553 1204 2497 
Q 953 2441 691 2322 
L 691 4666 
z
" transform="scale(0.015625)"/>
       </defs>
       <use xlink:href="#DejaVuSans-35"/>
       <use xlink:href="#DejaVuSans-30" transform="translate(63.623047 0)"/>
       <use xlink:href="#DejaVuSans-2e" transform="translate(127.246094 0)"/>
       <use xlink:href="#DejaVuSans-30" transform="translate(159.033203 0)"/>
      </g>
     </g>
    </g>
    <g id="xtick_7">
     <g id="line2d_13">
      <path d="M 326.306015 305.06 
L 326.306015 23.84 
" clip-path="url(#p76f31d5fab)" style="fill: none; stroke: #ffffff; stroke-width: 0.8; stroke-linecap: square"/>
     </g>
     <g id="line2d_14">
      <g>
       <use xlink:href="#md3d4153a97" x="326.306015" y="305.06" style="fill: #555555; stroke: #555555"/>
      </g>
     </g>
     <g id="text_7">
      <!-- 60.0 -->
      <g style="fill: #555555" transform="translate(316.50914 320.046625) scale(0.088 -0.088)">
       <defs>
        <path id="DejaVuSans-36" d="M 2113 2584 
Q 1688 2584 1439 2293 
Q 1191 2003 1191 1497 
Q 1191 994 1439 701 
Q 1688 409 2113 409 
Q 2538 409 2786 701 
Q 3034 994 3034 1497 
Q 3034 2003 2786 2293 
Q 2538 2584 2113 2584 
z
M 3366 4563 
L 3366 3988 
Q 3128 4100 2886 4159 
Q 2644 4219 2406 4219 
Q 1781 4219 1451 3797 
Q 1122 3375 1075 2522 
Q 1259 2794 1537 2939 
Q 1816 3084 2150 3084 
Q 2853 3084 3261 2657 
Q 3669 2231 3669 1497 
Q 3669 778 3244 343 
Q 2819 -91 2113 -91 
Q 1303 -91 875 529 
Q 447 1150 447 2328 
Q 447 3434 972 4092 
Q 1497 4750 2381 4750 
Q 2619 4750 2861 4703 
Q 3103 4656 3366 4563 
z
" transform="scale(0.015625)"/>
       </defs>
       <use xlink:href="#DejaVuSans-36"/>
       <use xlink:href="#DejaVuSans-30" transform="translate(63.623047 0)"/>
       <use xlink:href="#DejaVuSans-2e" transform="translate(127.246094 0)"/>
       <use xlink:href="#DejaVuSans-30" transform="translate(159.033203 0)"/>
      </g>
     </g>
    </g>
    <g id="xtick_8">
     <g id="line2d_15">
      <path d="M 370.49327 305.06 
L 370.49327 23.84 
" clip-path="url(#p76f31d5fab)" style="fill: none; stroke: #ffffff; stroke-width: 0.8; stroke-linecap: square"/>
     </g>
     <g id="line2d_16">
      <g>
       <use xlink:href="#md3d4153a97" x="370.49327" y="305.06" style="fill: #555555; stroke: #555555"/>
      </g>
     </g>
     <g id="text_8">
      <!-- 70.0 -->
      <g style="fill: #555555" transform="translate(360.696395 320.046625) scale(0.088 -0.088)">
       <defs>
        <path id="DejaVuSans-37" d="M 525 4666 
L 3525 4666 
L 3525 4397 
L 1831 0 
L 1172 0 
L 2766 4134 
L 525 4134 
L 525 4666 
z
" transform="scale(0.015625)"/>
       </defs>
       <use xlink:href="#DejaVuSans-37"/>
       <use xlink:href="#DejaVuSans-30" transform="translate(63.623047 0)"/>
       <use xlink:href="#DejaVuSans-2e" transform="translate(127.246094 0)"/>
       <use xlink:href="#DejaVuSans-30" transform="translate(159.033203 0)"/>
      </g>
     </g>
    </g>
    <g id="xtick_9">
     <g id="line2d_17">
      <path d="M 414.680525 305.06 
L 414.680525 23.84 
" clip-path="url(#p76f31d5fab)" style="fill: none; stroke: #ffffff; stroke-width: 0.8; stroke-linecap: square"/>
     </g>
     <g id="line2d_18">
      <g>
       <use xlink:href="#md3d4153a97" x="414.680525" y="305.06" style="fill: #555555; stroke: #555555"/>
      </g>
     </g>
     <g id="text_9">
      <!-- 80.0 -->
      <g style="fill: #555555" transform="translate(404.88365 320.046625) scale(0.088 -0.088)">
       <defs>
        <path id="DejaVuSans-38" d="M 2034 2216 
Q 1584 2216 1326 1975 
Q 1069 1734 1069 1313 
Q 1069 891 1326 650 
Q 1584 409 2034 409 
Q 2484 409 2743 651 
Q 3003 894 3003 1313 
Q 3003 1734 2745 1975 
Q 2488 2216 2034 2216 
z
M 1403 2484 
Q 997 2584 770 2862 
Q 544 3141 544 3541 
Q 544 4100 942 4425 
Q 1341 4750 2034 4750 
Q 2731 4750 3128 4425 
Q 3525 4100 3525 3541 
Q 3525 3141 3298 2862 
Q 3072 2584 2669 2484 
Q 3125 2378 3379 2068 
Q 3634 1759 3634 1313 
Q 3634 634 3220 271 
Q 2806 -91 2034 -91 
Q 1263 -91 848 271 
Q 434 634 434 1313 
Q 434 1759 690 2068 
Q 947 2378 1403 2484 
z
M 1172 3481 
Q 1172 3119 1398 2916 
Q 1625 2713 2034 2713 
Q 2441 2713 2670 2916 
Q 2900 3119 2900 3481 
Q 2900 3844 2670 4047 
Q 2441 4250 2034 4250 
Q 1625 4250 1398 4047 
Q 1172 3844 1172 3481 
z
" transform="scale(0.015625)"/>
       </defs>
       <use xlink:href="#DejaVuSans-38"/>
       <use xlink:href="#DejaVuSans-30" transform="translate(63.623047 0)"/>
       <use xlink:href="#DejaVuSans-2e" transform="translate(127.246094 0)"/>
       <use xlink:href="#DejaVuSans-30" transform="translate(159.033203 0)"/>
      </g>
     </g>
    </g>
    <g id="text_10">
     <!-- Distance (km) -->
     <g style="fill: #555555" transform="translate(189.996055 334.994875) scale(0.12 -0.12)">
      <defs>
       <path id="DejaVuSans-44" d="M 1259 4147 
L 1259 519 
L 2022 519 
Q 2988 519 3436 956 
Q 3884 1394 3884 2338 
Q 3884 3275 3436 3711 
Q 2988 4147 2022 4147 
L 1259 4147 
z
M 628 4666 
L 1925 4666 
Q 3281 4666 3915 4102 
Q 4550 3538 4550 2338 
Q 4550 1131 3912 565 
Q 3275 0 1925 0 
L 628 0 
L 628 4666 
z
" transform="scale(0.015625)"/>
       <path id="DejaVuSans-69" d="M 603 3500 
L 1178 3500 
L 1178 0 
L 603 0 
L 603 3500 
z
M 603 4863 
L 1178 4863 
L 1178 4134 
L 603 4134 
L 603 4863 
z
" transform="scale(0.015625)"/>
       <path id="DejaVuSans-73" d="M 2834 3397 
L 2834 2853 
Q 2591 2978 2328 3040 
Q 2066 3103 1784 3103 
Q 1356 3103 1142 2972 
Q 928 2841 928 2578 
Q 928 2378 1081 2264 
Q 1234 2150 1697 2047 
L 1894 2003 
Q 2506 1872 2764 1633 
Q 3022 1394 3022 966 
Q 3022 478 2636 193 
Q 2250 -91 1575 -91 
Q 1294 -91 989 -36 
Q 684 19 347 128 
L 347 722 
Q 666 556 975 473 
Q 1284 391 1588 391 
Q 1994 391 2212 530 
Q 2431 669 2431 922 
Q 2431 1156 2273 1281 
Q 2116 1406 1581 1522 
L 1381 1569 
Q 847 1681 609 1914 
Q 372 2147 372 2553 
Q 372 3047 722 3315 
Q 1072 3584 1716 3584 
Q 2034 3584 2315 3537 
Q 2597 3491 2834 3397 
z
" transform="scale(0.015625)"/>
       <path id="DejaVuSans-74" d="M 1172 4494 
L 1172 3500 
L 2356 3500 
L 2356 3053 
L 1172 3053 
L 1172 1153 
Q 1172 725 1289 603 
Q 1406 481 1766 481 
L 2356 481 
L 2356 0 
L 1766 0 
Q 1100 0 847 248 
Q 594 497 594 1153 
L 594 3053 
L 172 3053 
L 172 3500 
L 594 3500 
L 594 4494 
L 1172 4494 
z
" transform="scale(0.015625)"/>
       <path id="DejaVuSans-61" d="M 2194 1759 
Q 1497 1759 1228 1600 
Q 959 1441 959 1056 
Q 959 750 1161 570 
Q 1363 391 1709 391 
Q 2188 391 2477 730 
Q 2766 1069 2766 1631 
L 2766 1759 
L 2194 1759 
z
M 3341 1997 
L 3341 0 
L 2766 0 
L 2766 531 
Q 2569 213 2275 61 
Q 1981 -91 1556 -91 
Q 1019 -91 701 211 
Q 384 513 384 1019 
Q 384 1609 779 1909 
Q 1175 2209 1959 2209 
L 2766 2209 
L 2766 2266 
Q 2766 2663 2505 2880 
Q 2244 3097 1772 3097 
Q 1472 3097 1187 3025 
Q 903 2953 641 2809 
L 641 3341 
Q 956 3463 1253 3523 
Q 1550 3584 1831 3584 
Q 2591 3584 2966 3190 
Q 3341 2797 3341 1997 
z
" transform="scale(0.015625)"/>
       <path id="DejaVuSans-6e" d="M 3513 2113 
L 3513 0 
L 2938 0 
L 2938 2094 
Q 2938 2591 2744 2837 
Q 2550 3084 2163 3084 
Q 1697 3084 1428 2787 
Q 1159 2491 1159 1978 
L 1159 0 
L 581 0 
L 581 3500 
L 1159 3500 
L 1159 2956 
Q 1366 3272 1645 3428 
Q 1925 3584 2291 3584 
Q 2894 3584 3203 3211 
Q 3513 2838 3513 2113 
z
" transform="scale(0.015625)"/>
       <path id="DejaVuSans-63" d="M 3122 3366 
L 3122 2828 
Q 2878 2963 2633 3030 
Q 2388 3097 2138 3097 
Q 1578 3097 1268 2742 
Q 959 2388 959 1747 
Q 959 1106 1268 751 
Q 1578 397 2138 397 
Q 2388 397 2633 464 
Q 2878 531 3122 666 
L 3122 134 
Q 2881 22 2623 -34 
Q 2366 -91 2075 -91 
Q 1284 -91 818 406 
Q 353 903 353 1747 
Q 353 2603 823 3093 
Q 1294 3584 2113 3584 
Q 2378 3584 2631 3529 
Q 2884 3475 3122 3366 
z
" transform="scale(0.015625)"/>
       <path id="DejaVuSans-65" d="M 3597 1894 
L 3597 1613 
L 953 1613 
Q 991 1019 1311 708 
Q 1631 397 2203 397 
Q 2534 397 2845 478 
Q 3156 559 3463 722 
L 3463 178 
Q 3153 47 2828 -22 
Q 2503 -91 2169 -91 
Q 1331 -91 842 396 
Q 353 884 353 1716 
Q 353 2575 817 3079 
Q 1281 3584 2069 3584 
Q 2775 3584 3186 3129 
Q 3597 2675 3597 1894 
z
M 3022 2063 
Q 3016 2534 2758 2815 
Q 2500 3097 2075 3097 
Q 1594 3097 1305 2825 
Q 1016 2553 972 2059 
L 3022 2063 
z
" transform="scale(0.015625)"/>
       <path id="DejaVuSans-20" transform="scale(0.015625)"/>
       <path id="DejaVuSans-28" d="M 1984 4856 
Q 1566 4138 1362 3434 
Q 1159 2731 1159 2009 
Q 1159 1288 1364 580 
Q 1569 -128 1984 -844 
L 1484 -844 
Q 1016 -109 783 600 
Q 550 1309 550 2009 
Q 550 2706 781 3412 
Q 1013 4119 1484 4856 
L 1984 4856 
z
" transform="scale(0.015625)"/>
       <path id="DejaVuSans-6b" d="M 581 4863 
L 1159 4863 
L 1159 1991 
L 2875 3500 
L 3609 3500 
L 1753 1863 
L 3688 0 
L 2938 0 
L 1159 1709 
L 1159 0 
L 581 0 
L 581 4863 
z
" transform="scale(0.015625)"/>
       <path id="DejaVuSans-6d" d="M 3328 2828 
Q 3544 3216 3844 3400 
Q 4144 3584 4550 3584 
Q 5097 3584 5394 3201 
Q 5691 2819 5691 2113 
L 5691 0 
L 5113 0 
L 5113 2094 
Q 5113 2597 4934 2840 
Q 4756 3084 4391 3084 
Q 3944 3084 3684 2787 
Q 3425 2491 3425 1978 
L 3425 0 
L 2847 0 
L 2847 2094 
Q 2847 2600 2669 2842 
Q 2491 3084 2119 3084 
Q 1678 3084 1418 2786 
Q 1159 2488 1159 1978 
L 1159 0 
L 581 0 
L 581 3500 
L 1159 3500 
L 1159 2956 
Q 1356 3278 1631 3431 
Q 1906 3584 2284 3584 
Q 2666 3584 2933 3390 
Q 3200 3197 3328 2828 
z
" transform="scale(0.015625)"/>
       <path id="DejaVuSans-29" d="M 513 4856 
L 1013 4856 
Q 1481 4119 1714 3412 
Q 1947 2706 1947 2009 
Q 1947 1309 1714 600 
Q 1481 -109 1013 -844 
L 513 -844 
Q 928 -128 1133 580 
Q 1338 1288 1338 2009 
Q 1338 2731 1133 3434 
Q 928 4138 513 4856 
z
" transform="scale(0.015625)"/>
      </defs>
      <use xlink:href="#DejaVuSans-44"/>
      <use xlink:href="#DejaVuSans-69" transform="translate(77.001953 0)"/>
      <use xlink:href="#DejaVuSans-73" transform="translate(104.785156 0)"/>
      <use xlink:href="#DejaVuSans-74" transform="translate(156.884766 0)"/>
      <use xlink:href="#DejaVuSans-61" transform="translate(196.09375 0)"/>
      <use xlink:href="#DejaVuSans-6e" transform="translate(257.373047 0)"/>
      <use xlink:href="#DejaVuSans-63" transform="translate(320.751953 0)"/>
      <use xlink:href="#DejaVuSans-65" transform="translate(375.732422 0)"/>
      <use xlink:href="#DejaVuSans-20" transform="translate(437.255859 0)"/>
      <use xlink:href="#DejaVuSans-28" transform="translate(469.042969 0)"/>
      <use xlink:href="#DejaVuSans-6b" transform="translate(508.056641 0)"/>
      <use xlink:href="#DejaVuSans-6d" transform="translate(565.966797 0)"/>
      <use xlink:href="#DejaVuSans-29" transform="translate(663.378906 0)"/>
     </g>
    </g>
   </g>
   <g id="matplotlib.axis_2">
    <g id="ytick_1">
     <g id="line2d_19">
      <path d="M 44.086875 260.806891 
L 420.190234 260.806891 
" clip-path="url(#p76f31d5fab)" style="fill: none; stroke: #ffffff; stroke-width: 0.8; stroke-linecap: square"/>
     </g>
     <g id="line2d_20">
      <defs>
       <path id="m3b4d40c21f" d="M 0 0 
L -4.8 0 
" style="stroke: #555555"/>
      </defs>
      <g>
       <use xlink:href="#m3b4d40c21f" x="44.086875" y="260.806891" style="fill: #555555; stroke: #555555"/>
      </g>
     </g>
     <g id="text_11">
      <!-- −4 -->
      <g style="fill: #555555" transform="translate(22.81375 264.150204) scale(0.088 -0.088)">
       <defs>
        <path id="DejaVuSans-2212" d="M 678 2272 
L 4684 2272 
L 4684 1741 
L 678 1741 
L 678 2272 
z
" transform="scale(0.015625)"/>
       </defs>
       <use xlink:href="#DejaVuSans-2212"/>
       <use xlink:href="#DejaVuSans-34" transform="translate(83.789062 0)"/>
      </g>
     </g>
    </g>
    <g id="ytick_2">
     <g id="line2d_21">
      <path d="M 44.086875 207.452787 
L 420.190234 207.452787 
" clip-path="url(#p76f31d5fab)" style="fill: none; stroke: #ffffff; stroke-width: 0.8; stroke-linecap: square"/>
     </g>
     <g id="line2d_22">
      <g>
       <use xlink:href="#m3b4d40c21f" x="44.086875" y="207.452787" style="fill: #555555; stroke: #555555"/>
      </g>
     </g>
     <g id="text_12">
      <!-- −2 -->
      <g style="fill: #555555" transform="translate(22.81375 210.796099) scale(0.088 -0.088)">
       <use xlink:href="#DejaVuSans-2212"/>
       <use xlink:href="#DejaVuSans-32" transform="translate(83.789062 0)"/>
      </g>
     </g>
    </g>
    <g id="ytick_3">
     <g id="line2d_23">
      <path d="M 44.086875 154.098683 
L 420.190234 154.098683 
" clip-path="url(#p76f31d5fab)" style="fill: none; stroke: #ffffff; stroke-width: 0.8; stroke-linecap: square"/>
     </g>
     <g id="line2d_24">
      <g>
       <use xlink:href="#m3b4d40c21f" x="44.086875" y="154.098683" style="fill: #555555; stroke: #555555"/>
      </g>
     </g>
     <g id="text_13">
      <!-- 0 -->
      <g style="fill: #555555" transform="translate(30.187875 157.441995) scale(0.088 -0.088)">
       <use xlink:href="#DejaVuSans-30"/>
      </g>
     </g>
    </g>
    <g id="ytick_4">
     <g id="line2d_25">
      <path d="M 44.086875 100.744578 
L 420.190234 100.744578 
" clip-path="url(#p76f31d5fab)" style="fill: none; stroke: #ffffff; stroke-width: 0.8; stroke-linecap: square"/>
     </g>
     <g id="line2d_26">
      <g>
       <use xlink:href="#m3b4d40c21f" x="44.086875" y="100.744578" style="fill: #555555; stroke: #555555"/>
      </g>
     </g>
     <g id="text_14">
      <!-- 2 -->
      <g style="fill: #555555" transform="translate(30.187875 104.087891) scale(0.088 -0.088)">
       <use xlink:href="#DejaVuSans-32"/>
      </g>
     </g>
    </g>
    <g id="ytick_5">
     <g id="line2d_27">
      <path d="M 44.086875 47.390474 
L 420.190234 47.390474 
" clip-path="url(#p76f31d5fab)" style="fill: none; stroke: #ffffff; stroke-width: 0.8; stroke-linecap: square"/>
     </g>
     <g id="line2d_28">
      <g>
       <use xlink:href="#m3b4d40c21f" x="44.086875" y="47.390474" style="fill: #555555; stroke: #555555"/>
      </g>
     </g>
     <g id="text_15">
      <!-- 4 -->
      <g style="fill: #555555" transform="translate(30.187875 50.733787) scale(0.088 -0.088)">
       <use xlink:href="#DejaVuSans-34"/>
      </g>
     </g>
    </g>
    <g id="text_16">
     <!-- Density -->
     <g style="fill: #555555" transform="translate(16.318125 187.260312) rotate(-90) scale(0.12 -0.12)">
      <defs>
       <path id="DejaVuSans-79" d="M 2059 -325 
Q 1816 -950 1584 -1140 
Q 1353 -1331 966 -1331 
L 506 -1331 
L 506 -850 
L 844 -850 
Q 1081 -850 1212 -737 
Q 1344 -625 1503 -206 
L 1606 56 
L 191 3500 
L 800 3500 
L 1894 763 
L 2988 3500 
L 3597 3500 
L 2059 -325 
z
" transform="scale(0.015625)"/>
      </defs>
      <use xlink:href="#DejaVuSans-44"/>
      <use xlink:href="#DejaVuSans-65" transform="translate(77.001953 0)"/>
      <use xlink:href="#DejaVuSans-6e" transform="translate(138.525391 0)"/>
      <use xlink:href="#DejaVuSans-73" transform="translate(201.904297 0)"/>
      <use xlink:href="#DejaVuSans-69" transform="translate(254.003906 0)"/>
      <use xlink:href="#DejaVuSans-74" transform="translate(281.787109 0)"/>
      <use xlink:href="#DejaVuSans-79" transform="translate(320.996094 0)"/>
     </g>
    </g>
    <g id="text_17">
     <!-- 1e−6 -->
     <g style="fill: #555555" transform="translate(44.086875 20.84) scale(0.088 -0.088)">
      <use xlink:href="#DejaVuSans-31"/>
      <use xlink:href="#DejaVuSans-65" transform="translate(63.623047 0)"/>
      <use xlink:href="#DejaVuSans-2212" transform="translate(125.146484 0)"/>
      <use xlink:href="#DejaVuSans-36" transform="translate(208.935547 0)"/>
     </g>
    </g>
   </g>
   <g id="FillBetweenPolyCollection_1">
    <defs>
     <path id="m48fd66a3ad" d="M 61.182482 -237.756603 
L 61.182482 -216.244378 
L 68.160281 -223.621378 
L 75.13808 -186.705572 
L 82.115879 -146.271351 
L 89.093678 -94.232608 
L 96.071477 -60.026111 
L 103.049275 -78.877954 
L 110.027074 -83.540726 
L 117.004873 -60.056761 
L 123.982672 -66.241294 
L 130.960471 -67.611035 
L 137.93827 -62.067282 
L 144.916069 -52.413227 
L 151.893868 -63.257031 
L 158.871666 -109.478793 
L 165.849465 -177.717213 
L 172.827264 -215.660561 
L 179.805063 -211.530675 
L 186.782862 -201.801615 
L 193.760661 -199.452895 
L 200.73846 -189.104235 
L 207.716259 -174.714226 
L 214.694057 -176.290265 
L 221.671856 -176.342412 
L 228.649655 -175.81521 
L 235.627454 -176.466339 
L 242.605253 -176.5754 
L 249.583052 -169.994609 
L 256.560851 -164.527783 
L 263.538649 -169.657006 
L 270.516448 -178.628103 
L 277.494247 -183.4657 
L 284.472046 -185.035643 
L 291.449845 -184.909954 
L 298.427644 -179.983457 
L 305.405443 -171.786643 
L 312.383242 -166.044404 
L 319.36104 -164.637019 
L 326.338839 -164.894567 
L 333.316638 -167.275036 
L 340.294437 -170.959478 
L 347.272236 -174.103046 
L 354.250035 -177.220685 
L 361.227834 -179.722378 
L 368.205633 -181.788185 
L 375.183431 -183.460179 
L 382.16123 -184.64296 
L 389.139029 -185.525198 
L 396.116828 -186.820689 
L 403.094627 -187.518521 
L 403.094627 -190.460979 
L 403.094627 -190.460979 
L 396.116828 -190.373344 
L 389.139029 -190.200824 
L 382.16123 -189.898564 
L 375.183431 -189.459314 
L 368.205633 -189.019305 
L 361.227834 -188.375678 
L 354.250035 -187.482708 
L 347.272236 -186.342163 
L 340.294437 -184.69538 
L 333.316638 -183.10422 
L 326.338839 -183.235348 
L 319.36104 -186.760709 
L 312.383242 -193.924707 
L 305.405443 -204.059085 
L 298.427644 -217.925048 
L 291.449845 -228.336954 
L 284.472046 -233.857477 
L 277.494247 -235.217404 
L 270.516448 -236.225733 
L 263.538649 -232.795218 
L 256.560851 -231.031396 
L 249.583052 -240.645938 
L 242.605253 -250.776582 
L 235.627454 -257.982449 
L 228.649655 -258.250447 
L 221.671856 -260.149069 
L 214.694057 -265.405258 
L 207.716259 -263.177989 
L 200.73846 -278.391493 
L 193.760661 -289.274107 
L 186.782862 -290.718906 
L 179.805063 -296.936425 
L 172.827264 -302.154476 
L 165.849465 -258.735552 
L 158.871666 -189.752363 
L 151.893868 -147.203771 
L 144.916069 -148.716337 
L 137.93827 -169.02037 
L 130.960471 -196.724223 
L 123.982672 -202.849871 
L 117.004873 -206.39206 
L 110.027074 -233.519498 
L 103.049275 -229.663473 
L 96.071477 -214.544032 
L 89.093678 -233.846229 
L 82.115879 -254.77097 
L 75.13808 -273.128985 
L 68.160281 -277.298568 
L 61.182482 -237.756603 
z
" style="stroke: #0000ff; stroke-opacity: 0.2; stroke-width: 0.8"/>
    </defs>
    <g clip-path="url(#p76f31d5fab)">
     <use xlink:href="#m48fd66a3ad" x="0" y="344.6905" style="fill: #0000ff; fill-opacity: 0.2; stroke: #0000ff; stroke-opacity: 0.2; stroke-width: 0.8"/>
    </g>
   </g>
   <g id="line2d_29">
    <path d="M 61.182482 118.25079 
L 68.160281 93.983747 
L 75.13808 115.342346 
L 82.115879 147.927003 
L 89.093678 182.653674 
L 96.071477 208.404377 
L 103.049275 192.201546 
L 110.027074 187.055157 
L 117.004873 210.618172 
L 123.982672 210.663318 
L 130.960471 214.1474 
L 137.93827 231.668185 
L 144.916069 246.413595 
L 151.893868 239.497945 
L 158.871666 194.714048 
L 165.849465 127.628805 
L 172.827264 87.575417 
L 179.805063 90.010808 
L 186.782862 95.074039 
L 193.760661 97.868741 
L 200.73846 111.297874 
L 207.716259 125.253514 
L 214.694057 124.777286 
L 221.671856 125.146369 
L 228.649655 126.609617 
L 235.627454 127.018763 
L 242.605253 131.022564 
L 249.583052 141.382893 
L 256.560851 147.836548 
L 263.538649 144.228184 
L 270.516448 137.993317 
L 277.494247 135.082781 
L 284.472046 134.484276 
L 291.449845 136.772961 
L 298.427644 145.086717 
L 305.405443 155.417572 
L 312.383242 164.169152 
L 319.36104 168.742644 
L 326.338839 170.120872 
L 333.316638 169.096734 
L 340.294437 166.520716 
L 347.272236 163.941827 
L 354.250035 161.841431 
L 361.227834 160.169111 
L 368.205633 158.829791 
L 375.183431 157.753709 
L 382.16123 156.909681 
L 389.139029 156.241737 
L 396.116828 155.721252 
L 403.094627 155.323468 
" clip-path="url(#p76f31d5fab)" style="fill: none; stroke: #0000ff; stroke-width: 1.2; stroke-linecap: square"/>
   </g>
   <g id="line2d_30">
    <path d="M 44.086875 154.098683 
L 420.190234 154.098683 
" clip-path="url(#p76f31d5fab)" style="fill: none; stroke-dasharray: 5.55,2.4; stroke-dashoffset: 0; stroke: #ff0000; stroke-width: 1.5"/>
   </g>
   <g id="patch_3">
    <path d="M 44.086875 305.06 
L 44.086875 23.84 
" style="fill: none; stroke: #ffffff; stroke-linejoin: miter; stroke-linecap: square"/>
   </g>
   <g id="patch_4">
    <path d="M 420.190234 305.06 
L 420.190234 23.84 
" style="fill: none; stroke: #ffffff; stroke-linejoin: miter; stroke-linecap: square"/>
   </g>
   <g id="patch_5">
    <path d="M 44.086875 305.06 
L 420.190234 305.06 
" style="fill: none; stroke: #ffffff; stroke-linejoin: miter; stroke-linecap: square"/>
   </g>
   <g id="patch_6">
    <path d="M 44.086875 23.84 
L 420.190234 23.84 
" style="fill: none; stroke: #ffffff; stroke-linejoin: miter; stroke-linecap: square"/>
   </g>
   <g id="text_18">
    <!-- $\Delta$PDD Angkor -->
    <g transform="translate(185.238555 17.84) scale(0.14 -0.14)">
     <defs>
      <path id="DejaVuSans-394" d="M 2188 4044 
L 906 525 
L 3472 525 
L 2188 4044 
z
M 50 0 
L 1831 4666 
L 2547 4666 
L 4325 0 
L 50 0 
z
" transform="scale(0.015625)"/>
      <path id="DejaVuSans-50" d="M 1259 4147 
L 1259 2394 
L 2053 2394 
Q 2494 2394 2734 2622 
Q 2975 2850 2975 3272 
Q 2975 3691 2734 3919 
Q 2494 4147 2053 4147 
L 1259 4147 
z
M 628 4666 
L 2053 4666 
Q 2838 4666 3239 4311 
Q 3641 3956 3641 3272 
Q 3641 2581 3239 2228 
Q 2838 1875 2053 1875 
L 1259 1875 
L 1259 0 
L 628 0 
L 628 4666 
z
" transform="scale(0.015625)"/>
      <path id="DejaVuSans-41" d="M 2188 4044 
L 1331 1722 
L 3047 1722 
L 2188 4044 
z
M 1831 4666 
L 2547 4666 
L 4325 0 
L 3669 0 
L 3244 1197 
L 1141 1197 
L 716 0 
L 50 0 
L 1831 4666 
z
" transform="scale(0.015625)"/>
      <path id="DejaVuSans-67" d="M 2906 1791 
Q 2906 2416 2648 2759 
Q 2391 3103 1925 3103 
Q 1463 3103 1205 2759 
Q 947 2416 947 1791 
Q 947 1169 1205 825 
Q 1463 481 1925 481 
Q 2391 481 2648 825 
Q 2906 1169 2906 1791 
z
M 3481 434 
Q 3481 -459 3084 -895 
Q 2688 -1331 1869 -1331 
Q 1566 -1331 1297 -1286 
Q 1028 -1241 775 -1147 
L 775 -588 
Q 1028 -725 1275 -790 
Q 1522 -856 1778 -856 
Q 2344 -856 2625 -561 
Q 2906 -266 2906 331 
L 2906 616 
Q 2728 306 2450 153 
Q 2172 0 1784 0 
Q 1141 0 747 490 
Q 353 981 353 1791 
Q 353 2603 747 3093 
Q 1141 3584 1784 3584 
Q 2172 3584 2450 3431 
Q 2728 3278 2906 2969 
L 2906 3500 
L 3481 3500 
L 3481 434 
z
" transform="scale(0.015625)"/>
      <path id="DejaVuSans-6f" d="M 1959 3097 
Q 1497 3097 1228 2736 
Q 959 2375 959 1747 
Q 959 1119 1226 758 
Q 1494 397 1959 397 
Q 2419 397 2687 759 
Q 2956 1122 2956 1747 
Q 2956 2369 2687 2733 
Q 2419 3097 1959 3097 
z
M 1959 3584 
Q 2709 3584 3137 3096 
Q 3566 2609 3566 1747 
Q 3566 888 3137 398 
Q 2709 -91 1959 -91 
Q 1206 -91 779 398 
Q 353 888 353 1747 
Q 353 2609 779 3096 
Q 1206 3584 1959 3584 
z
" transform="scale(0.015625)"/>
      <path id="DejaVuSans-72" d="M 2631 2963 
Q 2534 3019 2420 3045 
Q 2306 3072 2169 3072 
Q 1681 3072 1420 2755 
Q 1159 2438 1159 1844 
L 1159 0 
L 581 0 
L 581 3500 
L 1159 3500 
L 1159 2956 
Q 1341 3275 1631 3429 
Q 1922 3584 2338 3584 
Q 2397 3584 2469 3576 
Q 2541 3569 2628 3553 
L 2631 2963 
z
" transform="scale(0.015625)"/>
     </defs>
     <use xlink:href="#DejaVuSans-394" transform="translate(0 0.015625)"/>
     <use xlink:href="#DejaVuSans-50" transform="translate(68.408203 0.015625)"/>
     <use xlink:href="#DejaVuSans-44" transform="translate(128.710938 0.015625)"/>
     <use xlink:href="#DejaVuSans-44" transform="translate(205.712891 0.015625)"/>
     <use xlink:href="#DejaVuSans-20" transform="translate(282.714844 0.015625)"/>
     <use xlink:href="#DejaVuSans-41" transform="translate(314.501953 0.015625)"/>
     <use xlink:href="#DejaVuSans-6e" transform="translate(382.910156 0.015625)"/>
     <use xlink:href="#DejaVuSans-67" transform="translate(446.289062 0.015625)"/>
     <use xlink:href="#DejaVuSans-6b" transform="translate(509.765625 0.015625)"/>
     <use xlink:href="#DejaVuSans-6f" transform="translate(567.675781 0.015625)"/>
     <use xlink:href="#DejaVuSans-72" transform="translate(628.857422 0.015625)"/>
    </g>
   </g>
   <g id="legend_1">
    <g id="line2d_31">
     <path d="M 316.190234 36.94 
L 326.190234 36.94 
L 336.190234 36.94 
" style="fill: none; stroke: #0000ff; stroke-width: 1.2; stroke-linecap: square"/>
    </g>
    <g id="text_19">
     <!-- $\Delta$PDD Angkor -->
     <g transform="translate(344.190234 40.44) scale(0.1 -0.1)">
      <use xlink:href="#DejaVuSans-394" transform="translate(0 0.015625)"/>
      <use xlink:href="#DejaVuSans-50" transform="translate(68.408203 0.015625)"/>
      <use xlink:href="#DejaVuSans-44" transform="translate(128.710938 0.015625)"/>
      <use xlink:href="#DejaVuSans-44" transform="translate(205.712891 0.015625)"/>
      <use xlink:href="#DejaVuSans-20" transform="translate(282.714844 0.015625)"/>
      <use xlink:href="#DejaVuSans-41" transform="translate(314.501953 0.015625)"/>
      <use xlink:href="#DejaVuSans-6e" transform="translate(382.910156 0.015625)"/>
      <use xlink:href="#DejaVuSans-67" transform="translate(446.289062 0.015625)"/>
      <use xlink:href="#DejaVuSans-6b" transform="translate(509.765625 0.015625)"/>
      <use xlink:href="#DejaVuSans-6f" transform="translate(567.675781 0.015625)"/>
      <use xlink:href="#DejaVuSans-72" transform="translate(628.857422 0.015625)"/>
     </g>
    </g>
   </g>
  </g>
  <g id="axes_2">
   <g id="patch_7">
    <path d="M 460.261473 305.06 
L 836.364832 305.06 
L 836.364832 23.84 
L 460.261473 23.84 
z
" style="fill: #e5e5e5"/>
   </g>
   <g id="matplotlib.axis_3">
    <g id="xtick_10">
     <g id="line2d_32">
      <path d="M 477.35708 305.06 
L 477.35708 23.84 
" clip-path="url(#pd8fd73205b)" style="fill: none; stroke: #ffffff; stroke-width: 0.8; stroke-linecap: square"/>
     </g>
     <g id="line2d_33">
      <g>
       <use xlink:href="#md3d4153a97" x="477.35708" y="305.06" style="fill: #555555; stroke: #555555"/>
      </g>
     </g>
     <g id="text_20">
      <!-- 0.0 -->
      <g style="fill: #555555" transform="translate(470.359705 320.046625) scale(0.088 -0.088)">
       <use xlink:href="#DejaVuSans-30"/>
       <use xlink:href="#DejaVuSans-2e" transform="translate(63.623047 0)"/>
       <use xlink:href="#DejaVuSans-30" transform="translate(95.410156 0)"/>
      </g>
     </g>
    </g>
    <g id="xtick_11">
     <g id="line2d_34">
      <path d="M 536.167522 305.06 
L 536.167522 23.84 
" clip-path="url(#pd8fd73205b)" style="fill: none; stroke: #ffffff; stroke-width: 0.8; stroke-linecap: square"/>
     </g>
     <g id="line2d_35">
      <g>
       <use xlink:href="#md3d4153a97" x="536.167522" y="305.06" style="fill: #555555; stroke: #555555"/>
      </g>
     </g>
     <g id="text_21">
      <!-- 20.0 -->
      <g style="fill: #555555" transform="translate(526.370647 320.046625) scale(0.088 -0.088)">
       <use xlink:href="#DejaVuSans-32"/>
       <use xlink:href="#DejaVuSans-30" transform="translate(63.623047 0)"/>
       <use xlink:href="#DejaVuSans-2e" transform="translate(127.246094 0)"/>
       <use xlink:href="#DejaVuSans-30" transform="translate(159.033203 0)"/>
      </g>
     </g>
    </g>
    <g id="xtick_12">
     <g id="line2d_36">
      <path d="M 594.977963 305.06 
L 594.977963 23.84 
" clip-path="url(#pd8fd73205b)" style="fill: none; stroke: #ffffff; stroke-width: 0.8; stroke-linecap: square"/>
     </g>
     <g id="line2d_37">
      <g>
       <use xlink:href="#md3d4153a97" x="594.977963" y="305.06" style="fill: #555555; stroke: #555555"/>
      </g>
     </g>
     <g id="text_22">
      <!-- 40.0 -->
      <g style="fill: #555555" transform="translate(585.181088 320.046625) scale(0.088 -0.088)">
       <use xlink:href="#DejaVuSans-34"/>
       <use xlink:href="#DejaVuSans-30" transform="translate(63.623047 0)"/>
       <use xlink:href="#DejaVuSans-2e" transform="translate(127.246094 0)"/>
       <use xlink:href="#DejaVuSans-30" transform="translate(159.033203 0)"/>
      </g>
     </g>
    </g>
    <g id="xtick_13">
     <g id="line2d_38">
      <path d="M 653.788405 305.06 
L 653.788405 23.84 
" clip-path="url(#pd8fd73205b)" style="fill: none; stroke: #ffffff; stroke-width: 0.8; stroke-linecap: square"/>
     </g>
     <g id="line2d_39">
      <g>
       <use xlink:href="#md3d4153a97" x="653.788405" y="305.06" style="fill: #555555; stroke: #555555"/>
      </g>
     </g>
     <g id="text_23">
      <!-- 60.0 -->
      <g style="fill: #555555" transform="translate(643.99153 320.046625) scale(0.088 -0.088)">
       <use xlink:href="#DejaVuSans-36"/>
       <use xlink:href="#DejaVuSans-30" transform="translate(63.623047 0)"/>
       <use xlink:href="#DejaVuSans-2e" transform="translate(127.246094 0)"/>
       <use xlink:href="#DejaVuSans-30" transform="translate(159.033203 0)"/>
      </g>
     </g>
    </g>
    <g id="xtick_14">
     <g id="line2d_40">
      <path d="M 712.598846 305.06 
L 712.598846 23.84 
" clip-path="url(#pd8fd73205b)" style="fill: none; stroke: #ffffff; stroke-width: 0.8; stroke-linecap: square"/>
     </g>
     <g id="line2d_41">
      <g>
       <use xlink:href="#md3d4153a97" x="712.598846" y="305.06" style="fill: #555555; stroke: #555555"/>
      </g>
     </g>
     <g id="text_24">
      <!-- 80.0 -->
      <g style="fill: #555555" transform="translate(702.801971 320.046625) scale(0.088 -0.088)">
       <use xlink:href="#DejaVuSans-38"/>
       <use xlink:href="#DejaVuSans-30" transform="translate(63.623047 0)"/>
       <use xlink:href="#DejaVuSans-2e" transform="translate(127.246094 0)"/>
       <use xlink:href="#DejaVuSans-30" transform="translate(159.033203 0)"/>
      </g>
     </g>
    </g>
    <g id="xtick_15">
     <g id="line2d_42">
      <path d="M 771.409288 305.06 
L 771.409288 23.84 
" clip-path="url(#pd8fd73205b)" style="fill: none; stroke: #ffffff; stroke-width: 0.8; stroke-linecap: square"/>
     </g>
     <g id="line2d_43">
      <g>
       <use xlink:href="#md3d4153a97" x="771.409288" y="305.06" style="fill: #555555; stroke: #555555"/>
      </g>
     </g>
     <g id="text_25">
      <!-- 100.0 -->
      <g style="fill: #555555" transform="translate(758.812913 320.046625) scale(0.088 -0.088)">
       <use xlink:href="#DejaVuSans-31"/>
       <use xlink:href="#DejaVuSans-30" transform="translate(63.623047 0)"/>
       <use xlink:href="#DejaVuSans-30" transform="translate(127.246094 0)"/>
       <use xlink:href="#DejaVuSans-2e" transform="translate(190.869141 0)"/>
       <use xlink:href="#DejaVuSans-30" transform="translate(222.65625 0)"/>
      </g>
     </g>
    </g>
    <g id="xtick_16">
     <g id="line2d_44">
      <path d="M 830.219729 305.06 
L 830.219729 23.84 
" clip-path="url(#pd8fd73205b)" style="fill: none; stroke: #ffffff; stroke-width: 0.8; stroke-linecap: square"/>
     </g>
     <g id="line2d_45">
      <g>
       <use xlink:href="#md3d4153a97" x="830.219729" y="305.06" style="fill: #555555; stroke: #555555"/>
      </g>
     </g>
     <g id="text_26">
      <!-- 120.0 -->
      <g style="fill: #555555" transform="translate(817.623354 320.046625) scale(0.088 -0.088)">
       <use xlink:href="#DejaVuSans-31"/>
       <use xlink:href="#DejaVuSans-32" transform="translate(63.623047 0)"/>
       <use xlink:href="#DejaVuSans-30" transform="translate(127.246094 0)"/>
       <use xlink:href="#DejaVuSans-2e" transform="translate(190.869141 0)"/>
       <use xlink:href="#DejaVuSans-30" transform="translate(222.65625 0)"/>
      </g>
     </g>
    </g>
    <g id="text_27">
     <!-- Distance (km) -->
     <g style="fill: #555555" transform="translate(606.170653 334.994875) scale(0.12 -0.12)">
      <use xlink:href="#DejaVuSans-44"/>
      <use xlink:href="#DejaVuSans-69" transform="translate(77.001953 0)"/>
      <use xlink:href="#DejaVuSans-73" transform="translate(104.785156 0)"/>
      <use xlink:href="#DejaVuSans-74" transform="translate(156.884766 0)"/>
      <use xlink:href="#DejaVuSans-61" transform="translate(196.09375 0)"/>
      <use xlink:href="#DejaVuSans-6e" transform="translate(257.373047 0)"/>
      <use xlink:href="#DejaVuSans-63" transform="translate(320.751953 0)"/>
      <use xlink:href="#DejaVuSans-65" transform="translate(375.732422 0)"/>
      <use xlink:href="#DejaVuSans-20" transform="translate(437.255859 0)"/>
      <use xlink:href="#DejaVuSans-28" transform="translate(469.042969 0)"/>
      <use xlink:href="#DejaVuSans-6b" transform="translate(508.056641 0)"/>
      <use xlink:href="#DejaVuSans-6d" transform="translate(565.966797 0)"/>
      <use xlink:href="#DejaVuSans-29" transform="translate(663.378906 0)"/>
     </g>
    </g>
   </g>
   <g id="matplotlib.axis_4">
    <g id="ytick_6">
     <g id="line2d_46">
      <path d="M 460.261473 260.806891 
L 836.364832 260.806891 
" clip-path="url(#pd8fd73205b)" style="fill: none; stroke: #ffffff; stroke-width: 0.8; stroke-linecap: square"/>
     </g>
     <g id="line2d_47">
      <g>
       <use xlink:href="#m3b4d40c21f" x="460.261473" y="260.806891" style="fill: #555555; stroke: #555555"/>
      </g>
     </g>
    </g>
    <g id="ytick_7">
     <g id="line2d_48">
      <path d="M 460.261473 207.452787 
L 836.364832 207.452787 
" clip-path="url(#pd8fd73205b)" style="fill: none; stroke: #ffffff; stroke-width: 0.8; stroke-linecap: square"/>
     </g>
     <g id="line2d_49">
      <g>
       <use xlink:href="#m3b4d40c21f" x="460.261473" y="207.452787" style="fill: #555555; stroke: #555555"/>
      </g>
     </g>
    </g>
    <g id="ytick_8">
     <g id="line2d_50">
      <path d="M 460.261473 154.098683 
L 836.364832 154.098683 
" clip-path="url(#pd8fd73205b)" style="fill: none; stroke: #ffffff; stroke-width: 0.8; stroke-linecap: square"/>
     </g>
     <g id="line2d_51">
      <g>
       <use xlink:href="#m3b4d40c21f" x="460.261473" y="154.098683" style="fill: #555555; stroke: #555555"/>
      </g>
     </g>
    </g>
    <g id="ytick_9">
     <g id="line2d_52">
      <path d="M 460.261473 100.744578 
L 836.364832 100.744578 
" clip-path="url(#pd8fd73205b)" style="fill: none; stroke: #ffffff; stroke-width: 0.8; stroke-linecap: square"/>
     </g>
     <g id="line2d_53">
      <g>
       <use xlink:href="#m3b4d40c21f" x="460.261473" y="100.744578" style="fill: #555555; stroke: #555555"/>
      </g>
     </g>
    </g>
    <g id="ytick_10">
     <g id="line2d_54">
      <path d="M 460.261473 47.390474 
L 836.364832 47.390474 
" clip-path="url(#pd8fd73205b)" style="fill: none; stroke: #ffffff; stroke-width: 0.8; stroke-linecap: square"/>
     </g>
     <g id="line2d_55">
      <g>
       <use xlink:href="#m3b4d40c21f" x="460.261473" y="47.390474" style="fill: #555555; stroke: #555555"/>
      </g>
     </g>
    </g>
    <g id="text_28">
     <!-- Density -->
     <g style="fill: #555555" transform="translate(448.965848 187.260312) rotate(-90) scale(0.12 -0.12)">
      <use xlink:href="#DejaVuSans-44"/>
      <use xlink:href="#DejaVuSans-65" transform="translate(77.001953 0)"/>
      <use xlink:href="#DejaVuSans-6e" transform="translate(138.525391 0)"/>
      <use xlink:href="#DejaVuSans-73" transform="translate(201.904297 0)"/>
      <use xlink:href="#DejaVuSans-69" transform="translate(254.003906 0)"/>
      <use xlink:href="#DejaVuSans-74" transform="translate(281.787109 0)"/>
      <use xlink:href="#DejaVuSans-79" transform="translate(320.996094 0)"/>
     </g>
    </g>
   </g>
   <g id="FillBetweenPolyCollection_2">
    <defs>
     <path id="mca6390c322" d="M 477.35708 -201.71441 
L 477.35708 -195.864855 
L 484.334879 -207.106103 
L 491.312678 -202.632458 
L 498.290477 -178.766898 
L 505.268276 -149.480023 
L 512.246075 -121.939178 
L 519.223874 -111.59369 
L 526.201672 -109.543283 
L 533.179471 -101.143788 
L 540.15727 -89.174286 
L 547.135069 -84.523805 
L 554.112868 -89.79535 
L 561.090667 -99.864468 
L 568.068466 -116.956633 
L 575.046264 -127.318581 
L 582.024063 -130.800706 
L 589.001862 -137.445434 
L 595.979661 -151.160116 
L 602.95746 -174.787304 
L 609.935259 -207.017412 
L 616.913058 -230.748368 
L 623.890857 -234.193302 
L 630.868655 -228.251605 
L 637.846454 -225.92001 
L 644.824253 -227.69794 
L 651.802052 -231.958782 
L 658.779851 -248.001499 
L 665.75765 -263.851052 
L 672.735449 -264.177575 
L 679.713248 -251.439798 
L 686.691046 -236.246903 
L 693.668845 -216.645693 
L 700.646644 -194.117822 
L 707.624443 -173.942108 
L 714.602242 -159.170189 
L 721.580041 -152.696046 
L 728.55784 -149.931965 
L 735.535639 -146.643149 
L 742.513437 -147.104199 
L 749.491236 -151.05891 
L 756.469035 -155.621442 
L 763.446834 -160.230007 
L 770.424633 -164.339809 
L 777.402432 -168.184355 
L 784.380231 -171.70257 
L 791.358029 -174.065907 
L 798.335828 -176.569856 
L 805.313627 -179.105494 
L 812.291426 -180.815712 
L 819.269225 -182.321083 
L 819.269225 -188.715777 
L 819.269225 -188.715777 
L 812.291426 -188.027937 
L 805.313627 -187.292796 
L 798.335828 -186.207714 
L 791.358029 -184.711469 
L 784.380231 -183.054484 
L 777.402432 -181.090798 
L 770.424633 -178.576392 
L 763.446834 -176.157718 
L 756.469035 -173.823368 
L 749.491236 -171.082298 
L 742.513437 -168.55119 
L 735.535639 -170.874902 
L 728.55784 -175.956595 
L 721.580041 -181.883972 
L 714.602242 -190.227434 
L 707.624443 -207.513628 
L 700.646644 -230.707235 
L 693.668845 -254.947351 
L 686.691046 -277.083469 
L 679.713248 -294.718705 
L 672.735449 -307.601789 
L 665.75765 -308.067773 
L 658.779851 -293.99878 
L 651.802052 -278.055175 
L 644.824253 -273.273889 
L 637.846454 -270.767192 
L 630.868655 -271.345597 
L 623.890857 -275.52333 
L 616.913058 -269.836172 
L 609.935259 -242.863396 
L 602.95746 -209.134207 
L 595.979661 -185.762422 
L 589.001862 -174.430751 
L 582.024063 -171.74179 
L 575.046264 -169.899809 
L 568.068466 -164.808981 
L 561.090667 -156.045243 
L 554.112868 -150.562238 
L 547.135069 -151.880148 
L 540.15727 -159.993923 
L 533.179471 -175.972948 
L 526.201672 -183.693361 
L 519.223874 -180.584104 
L 512.246075 -186.886934 
L 505.268276 -204.935202 
L 498.290477 -223.226253 
L 491.312678 -232.648484 
L 484.334879 -223.671102 
L 477.35708 -201.71441 
z
" style="stroke: #008000; stroke-opacity: 0.2; stroke-width: 0.8"/>
    </defs>
    <g clip-path="url(#pd8fd73205b)">
     <use xlink:href="#mca6390c322" x="0" y="344.6905" style="fill: #008000; fill-opacity: 0.2; stroke: #008000; stroke-opacity: 0.2; stroke-width: 0.8"/>
    </g>
   </g>
   <g id="line2d_56">
    <path d="M 477.35708 145.74914 
L 484.334879 128.883397 
L 491.312678 126.658373 
L 498.290477 143.10277 
L 505.268276 167.05889 
L 512.246075 189.465222 
L 519.223874 197.775117 
L 526.201672 197.426509 
L 533.179471 207.218239 
L 540.15727 221.34504 
L 547.135069 226.154506 
L 554.112868 224.292768 
L 561.090667 216.805475 
L 568.068466 205.78897 
L 575.046264 196.750879 
L 582.024063 192.771382 
L 589.001862 189.748637 
L 595.979661 176.455081 
L 602.95746 152.858223 
L 609.935259 120.868109 
L 616.913058 96.05042 
L 623.890857 91.270289 
L 630.868655 95.237641 
L 637.846454 96.695751 
L 644.824253 93.887505 
L 651.802052 88.755506 
L 658.779851 73.574114 
L 665.75765 58.639099 
L 672.735449 58.075859 
L 679.713248 71.050861 
L 686.691046 87.855036 
L 693.668845 108.667212 
L 700.646644 131.182643 
L 707.624443 153.268643 
L 714.602242 169.207722 
L 721.580041 176.765108 
L 728.55784 181.448268 
L 735.535639 185.770952 
L 742.513437 186.516043 
L 749.491236 183.369743 
L 756.469035 179.579999 
L 763.446834 176.15771 
L 770.424633 172.767969 
L 777.402432 169.636711 
L 784.380231 166.982602 
L 791.358029 164.720053 
L 798.335828 162.792275 
L 805.313627 161.204361 
L 812.291426 159.90214 
L 819.269225 158.8051 
" clip-path="url(#pd8fd73205b)" style="fill: none; stroke: #008000; stroke-width: 1.2; stroke-linecap: square"/>
   </g>
   <g id="line2d_57">
    <path d="M 460.261473 154.098683 
L 836.364832 154.098683 
" clip-path="url(#pd8fd73205b)" style="fill: none; stroke-dasharray: 5.55,2.4; stroke-dashoffset: 0; stroke: #ff0000; stroke-width: 1.5"/>
   </g>
   <g id="patch_8">
    <path d="M 460.261473 305.06 
L 460.261473 23.84 
" style="fill: none; stroke: #ffffff; stroke-linejoin: miter; stroke-linecap: square"/>
   </g>
   <g id="patch_9">
    <path d="M 836.364832 305.06 
L 836.364832 23.84 
" style="fill: none; stroke: #ffffff; stroke-linejoin: miter; stroke-linecap: square"/>
   </g>
   <g id="patch_10">
    <path d="M 460.261473 305.06 
L 836.364832 305.06 
" style="fill: none; stroke: #ffffff; stroke-linejoin: miter; stroke-linecap: square"/>
   </g>
   <g id="patch_11">
    <path d="M 460.261473 23.84 
L 836.364832 23.84 
" style="fill: none; stroke: #ffffff; stroke-linejoin: miter; stroke-linecap: square"/>
   </g>
   <g id="text_29">
    <!-- $\Delta$PDD Hampshire -->
    <g transform="translate(588.253153 17.84) scale(0.14 -0.14)">
     <defs>
      <path id="DejaVuSans-48" d="M 628 4666 
L 1259 4666 
L 1259 2753 
L 3553 2753 
L 3553 4666 
L 4184 4666 
L 4184 0 
L 3553 0 
L 3553 2222 
L 1259 2222 
L 1259 0 
L 628 0 
L 628 4666 
z
" transform="scale(0.015625)"/>
      <path id="DejaVuSans-70" d="M 1159 525 
L 1159 -1331 
L 581 -1331 
L 581 3500 
L 1159 3500 
L 1159 2969 
Q 1341 3281 1617 3432 
Q 1894 3584 2278 3584 
Q 2916 3584 3314 3078 
Q 3713 2572 3713 1747 
Q 3713 922 3314 415 
Q 2916 -91 2278 -91 
Q 1894 -91 1617 61 
Q 1341 213 1159 525 
z
M 3116 1747 
Q 3116 2381 2855 2742 
Q 2594 3103 2138 3103 
Q 1681 3103 1420 2742 
Q 1159 2381 1159 1747 
Q 1159 1113 1420 752 
Q 1681 391 2138 391 
Q 2594 391 2855 752 
Q 3116 1113 3116 1747 
z
" transform="scale(0.015625)"/>
      <path id="DejaVuSans-68" d="M 3513 2113 
L 3513 0 
L 2938 0 
L 2938 2094 
Q 2938 2591 2744 2837 
Q 2550 3084 2163 3084 
Q 1697 3084 1428 2787 
Q 1159 2491 1159 1978 
L 1159 0 
L 581 0 
L 581 4863 
L 1159 4863 
L 1159 2956 
Q 1366 3272 1645 3428 
Q 1925 3584 2291 3584 
Q 2894 3584 3203 3211 
Q 3513 2838 3513 2113 
z
" transform="scale(0.015625)"/>
     </defs>
     <use xlink:href="#DejaVuSans-394" transform="translate(0 0.015625)"/>
     <use xlink:href="#DejaVuSans-50" transform="translate(68.408203 0.015625)"/>
     <use xlink:href="#DejaVuSans-44" transform="translate(128.710938 0.015625)"/>
     <use xlink:href="#DejaVuSans-44" transform="translate(205.712891 0.015625)"/>
     <use xlink:href="#DejaVuSans-20" transform="translate(282.714844 0.015625)"/>
     <use xlink:href="#DejaVuSans-48" transform="translate(314.501953 0.015625)"/>
     <use xlink:href="#DejaVuSans-61" transform="translate(389.697266 0.015625)"/>
     <use xlink:href="#DejaVuSans-6d" transform="translate(450.976562 0.015625)"/>
     <use xlink:href="#DejaVuSans-70" transform="translate(548.388672 0.015625)"/>
     <use xlink:href="#DejaVuSans-73" transform="translate(611.865234 0.015625)"/>
     <use xlink:href="#DejaVuSans-68" transform="translate(663.964844 0.015625)"/>
     <use xlink:href="#DejaVuSans-69" transform="translate(727.34375 0.015625)"/>
     <use xlink:href="#DejaVuSans-72" transform="translate(755.126953 0.015625)"/>
     <use xlink:href="#DejaVuSans-65" transform="translate(796.240234 0.015625)"/>
    </g>
   </g>
   <g id="legend_2">
    <g id="line2d_58">
     <path d="M 713.564832 36.94 
L 723.564832 36.94 
L 733.564832 36.94 
" style="fill: none; stroke: #008000; stroke-width: 1.2; stroke-linecap: square"/>
    </g>
    <g id="text_30">
     <!-- $\Delta$PDD Hampshire -->
     <g transform="translate(741.564832 40.44) scale(0.1 -0.1)">
      <use xlink:href="#DejaVuSans-394" transform="translate(0 0.015625)"/>
      <use xlink:href="#DejaVuSans-50" transform="translate(68.408203 0.015625)"/>
      <use xlink:href="#DejaVuSans-44" transform="translate(128.710938 0.015625)"/>
      <use xlink:href="#DejaVuSans-44" transform="translate(205.712891 0.015625)"/>
      <use xlink:href="#DejaVuSans-20" transform="translate(282.714844 0.015625)"/>
      <use xlink:href="#DejaVuSans-48" transform="translate(314.501953 0.015625)"/>
      <use xlink:href="#DejaVuSans-61" transform="translate(389.697266 0.015625)"/>
      <use xlink:href="#DejaVuSans-6d" transform="translate(450.976562 0.015625)"/>
      <use xlink:href="#DejaVuSans-70" transform="translate(548.388672 0.015625)"/>
      <use xlink:href="#DejaVuSans-73" transform="translate(611.865234 0.015625)"/>
      <use xlink:href="#DejaVuSans-68" transform="translate(663.964844 0.015625)"/>
      <use xlink:href="#DejaVuSans-69" transform="translate(727.34375 0.015625)"/>
      <use xlink:href="#DejaVuSans-72" transform="translate(755.126953 0.015625)"/>
      <use xlink:href="#DejaVuSans-65" transform="translate(796.240234 0.015625)"/>
     </g>
    </g>
   </g>
  </g>
 </g>
 <defs>
  <clipPath id="p76f31d5fab">
   <rect x="44.086875" y="23.84" width="376.103359" height="281.22"/>
  </clipPath>
  <clipPath id="pd8fd73205b">
   <rect x="460.261473" y="23.84" width="376.103359" height="281.22"/>
  </clipPath>
 </defs>
</svg>
