<?xml version="1.0" encoding="utf-8" standalone="no"?>
<!DOCTYPE svg PUBLIC "-//W3C//DTD SVG 1.1//EN"
  "http://www.w3.org/Graphics/SVG/1.1/DTD/svg11.dtd">
<svg xmlns:xlink="http://www.w3.org/1999/xlink" width="850.100107pt" height="346.128312pt" viewBox="0 0 850.100107 346.128312" xmlns="http://www.w3.org/2000/svg" version="1.1">
 <metadata>
  <rdf:RDF xmlns:dc="http://purl.org/dc/elements/1.1/" xmlns:cc="http://creativecommons.org/ns#" xmlns:rdf="http://www.w3.org/1999/02/22-rdf-syntax-ns#">
   <cc:Work>
    <dc:type rdf:resource="http://purl.org/dc/dcmitype/StillImage"/>
    <dc:date>2025-04-02T15:35:26.397803</dc:date>
    <dc:format>image/svg+xml</dc:format>
    <dc:creator>
     <cc:Agent>
      <dc:title>Matplotlib v3.10.1, https://matplotlib.org/</dc:title>
     </cc:Agent>
    </dc:creator>
   </cc:Work>
  </rdf:RDF>
 </metadata>
 <defs>
  <style type="text/css">*{stroke-linejoin: round; stroke-linecap: butt}</style>
 </defs>
 <g id="figure_1">
  <g id="patch_1">
   <path d="M -0 346.128312 
L 850.100107 346.128312 
L 850.100107 0 
L -0 0 
z
" style="fill: #ffffff"/>
  </g>
  <g id="axes_1">
   <g id="patch_2">
    <path d="M 44.086875 306.497812 
L 416.005234 306.497812 
L 416.005234 23.837812 
L 44.086875 23.837812 
z
" style="fill: #e5e5e5"/>
   </g>
   <g id="matplotlib.axis_1">
    <g id="xtick_1">
     <g id="line2d_1">
      <path d="M 60.992255 306.497812 
L 60.992255 23.837812 
" clip-path="url(#pa610dd4d94)" style="fill: none; stroke: #ffffff; stroke-width: 0.8; stroke-linecap: square"/>
     </g>
     <g id="line2d_2">
      <defs>
       <path id="mbc9ad22b18" d="M 0 0 
L 0 4.8 
" style="stroke: #555555"/>
      </defs>
      <g>
       <use xlink:href="#mbc9ad22b18" x="60.992255" y="306.497812" style="fill: #555555; stroke: #555555"/>
      </g>
     </g>
     <g id="text_1">
      <!-- 0 -->
      <g style="fill: #555555" transform="translate(58.192755 321.484437) scale(0.088 -0.088)">
       <defs>
        <path id="DejaVuSans-30" d="M 2034 4250 
Q 1547 4250 1301 3770 
Q 1056 3291 1056 2328 
Q 1056 1369 1301 889 
Q 1547 409 2034 409 
Q 2525 409 2770 889 
Q 3016 1369 3016 2328 
Q 3016 3291 2770 3770 
Q 2525 4250 2034 4250 
z
M 2034 4750 
Q 2819 4750 3233 4129 
Q 3647 3509 3647 2328 
Q 3647 1150 3233 529 
Q 2819 -91 2034 -91 
Q 1250 -91 836 529 
Q 422 1150 422 2328 
Q 422 3509 836 4129 
Q 1250 4750 2034 4750 
z
" transform="scale(0.015625)"/>
       </defs>
       <use xlink:href="#DejaVuSans-30"/>
      </g>
     </g>
    </g>
    <g id="xtick_2">
     <g id="line2d_3">
      <path d="M 104.687827 306.497812 
L 104.687827 23.837812 
" clip-path="url(#pa610dd4d94)" style="fill: none; stroke: #ffffff; stroke-width: 0.8; stroke-linecap: square"/>
     </g>
     <g id="line2d_4">
      <g>
       <use xlink:href="#mbc9ad22b18" x="104.687827" y="306.497812" style="fill: #555555; stroke: #555555"/>
      </g>
     </g>
     <g id="text_2">
      <!-- 10000 -->
      <g style="fill: #555555" transform="translate(90.690327 321.484437) scale(0.088 -0.088)">
       <defs>
        <path id="DejaVuSans-31" d="M 794 531 
L 1825 531 
L 1825 4091 
L 703 3866 
L 703 4441 
L 1819 4666 
L 2450 4666 
L 2450 531 
L 3481 531 
L 3481 0 
L 794 0 
L 794 531 
z
" transform="scale(0.015625)"/>
       </defs>
       <use xlink:href="#DejaVuSans-31"/>
       <use xlink:href="#DejaVuSans-30" transform="translate(63.623047 0)"/>
       <use xlink:href="#DejaVuSans-30" transform="translate(127.246094 0)"/>
       <use xlink:href="#DejaVuSans-30" transform="translate(190.869141 0)"/>
       <use xlink:href="#DejaVuSans-30" transform="translate(254.492188 0)"/>
      </g>
     </g>
    </g>
    <g id="xtick_3">
     <g id="line2d_5">
      <path d="M 148.3834 306.497812 
L 148.3834 23.837812 
" clip-path="url(#pa610dd4d94)" style="fill: none; stroke: #ffffff; stroke-width: 0.8; stroke-linecap: square"/>
     </g>
     <g id="line2d_6">
      <g>
       <use xlink:href="#mbc9ad22b18" x="148.3834" y="306.497812" style="fill: #555555; stroke: #555555"/>
      </g>
     </g>
     <g id="text_3">
      <!-- 20000 -->
      <g style="fill: #555555" transform="translate(134.3859 321.484437) scale(0.088 -0.088)">
       <defs>
        <path id="DejaVuSans-32" d="M 1228 531 
L 3431 531 
L 3431 0 
L 469 0 
L 469 531 
Q 828 903 1448 1529 
Q 2069 2156 2228 2338 
Q 2531 2678 2651 2914 
Q 2772 3150 2772 3378 
Q 2772 3750 2511 3984 
Q 2250 4219 1831 4219 
Q 1534 4219 1204 4116 
Q 875 4013 500 3803 
L 500 4441 
Q 881 4594 1212 4672 
Q 1544 4750 1819 4750 
Q 2544 4750 2975 4387 
Q 3406 4025 3406 3419 
Q 3406 3131 3298 2873 
Q 3191 2616 2906 2266 
Q 2828 2175 2409 1742 
Q 1991 1309 1228 531 
z
" transform="scale(0.015625)"/>
       </defs>
       <use xlink:href="#DejaVuSans-32"/>
       <use xlink:href="#DejaVuSans-30" transform="translate(63.623047 0)"/>
       <use xlink:href="#DejaVuSans-30" transform="translate(127.246094 0)"/>
       <use xlink:href="#DejaVuSans-30" transform="translate(190.869141 0)"/>
       <use xlink:href="#DejaVuSans-30" transform="translate(254.492188 0)"/>
      </g>
     </g>
    </g>
    <g id="xtick_4">
     <g id="line2d_7">
      <path d="M 192.078972 306.497812 
L 192.078972 23.837812 
" clip-path="url(#pa610dd4d94)" style="fill: none; stroke: #ffffff; stroke-width: 0.8; stroke-linecap: square"/>
     </g>
     <g id="line2d_8">
      <g>
       <use xlink:href="#mbc9ad22b18" x="192.078972" y="306.497812" style="fill: #555555; stroke: #555555"/>
      </g>
     </g>
     <g id="text_4">
      <!-- 30000 -->
      <g style="fill: #555555" transform="translate(178.081472 321.484437) scale(0.088 -0.088)">
       <defs>
        <path id="DejaVuSans-33" d="M 2597 2516 
Q 3050 2419 3304 2112 
Q 3559 1806 3559 1356 
Q 3559 666 3084 287 
Q 2609 -91 1734 -91 
Q 1441 -91 1130 -33 
Q 819 25 488 141 
L 488 750 
Q 750 597 1062 519 
Q 1375 441 1716 441 
Q 2309 441 2620 675 
Q 2931 909 2931 1356 
Q 2931 1769 2642 2001 
Q 2353 2234 1838 2234 
L 1294 2234 
L 1294 2753 
L 1863 2753 
Q 2328 2753 2575 2939 
Q 2822 3125 2822 3475 
Q 2822 3834 2567 4026 
Q 2313 4219 1838 4219 
Q 1578 4219 1281 4162 
Q 984 4106 628 3988 
L 628 4550 
Q 988 4650 1302 4700 
Q 1616 4750 1894 4750 
Q 2613 4750 3031 4423 
Q 3450 4097 3450 3541 
Q 3450 3153 3228 2886 
Q 3006 2619 2597 2516 
z
" transform="scale(0.015625)"/>
       </defs>
       <use xlink:href="#DejaVuSans-33"/>
       <use xlink:href="#DejaVuSans-30" transform="translate(63.623047 0)"/>
       <use xlink:href="#DejaVuSans-30" transform="translate(127.246094 0)"/>
       <use xlink:href="#DejaVuSans-30" transform="translate(190.869141 0)"/>
       <use xlink:href="#DejaVuSans-30" transform="translate(254.492188 0)"/>
      </g>
     </g>
    </g>
    <g id="xtick_5">
     <g id="line2d_9">
      <path d="M 235.774544 306.497812 
L 235.774544 23.837812 
" clip-path="url(#pa610dd4d94)" style="fill: none; stroke: #ffffff; stroke-width: 0.8; stroke-linecap: square"/>
     </g>
     <g id="line2d_10">
      <g>
       <use xlink:href="#mbc9ad22b18" x="235.774544" y="306.497812" style="fill: #555555; stroke: #555555"/>
      </g>
     </g>
     <g id="text_5">
      <!-- 40000 -->
      <g style="fill: #555555" transform="translate(221.777044 321.484437) scale(0.088 -0.088)">
       <defs>
        <path id="DejaVuSans-34" d="M 2419 4116 
L 825 1625 
L 2419 1625 
L 2419 4116 
z
M 2253 4666 
L 3047 4666 
L 3047 1625 
L 3713 1625 
L 3713 1100 
L 3047 1100 
L 3047 0 
L 2419 0 
L 2419 1100 
L 313 1100 
L 313 1709 
L 2253 4666 
z
" transform="scale(0.015625)"/>
       </defs>
       <use xlink:href="#DejaVuSans-34"/>
       <use xlink:href="#DejaVuSans-30" transform="translate(63.623047 0)"/>
       <use xlink:href="#DejaVuSans-30" transform="translate(127.246094 0)"/>
       <use xlink:href="#DejaVuSans-30" transform="translate(190.869141 0)"/>
       <use xlink:href="#DejaVuSans-30" transform="translate(254.492188 0)"/>
      </g>
     </g>
    </g>
    <g id="xtick_6">
     <g id="line2d_11">
      <path d="M 279.470116 306.497812 
L 279.470116 23.837812 
" clip-path="url(#pa610dd4d94)" style="fill: none; stroke: #ffffff; stroke-width: 0.8; stroke-linecap: square"/>
     </g>
     <g id="line2d_12">
      <g>
       <use xlink:href="#mbc9ad22b18" x="279.470116" y="306.497812" style="fill: #555555; stroke: #555555"/>
      </g>
     </g>
     <g id="text_6">
      <!-- 50000 -->
      <g style="fill: #555555" transform="translate(265.472616 321.484437) scale(0.088 -0.088)">
       <defs>
        <path id="DejaVuSans-35" d="M 691 4666 
L 3169 4666 
L 3169 4134 
L 1269 4134 
L 1269 2991 
Q 1406 3038 1543 3061 
Q 1681 3084 1819 3084 
Q 2600 3084 3056 2656 
Q 3513 2228 3513 1497 
Q 3513 744 3044 326 
Q 2575 -91 1722 -91 
Q 1428 -91 1123 -41 
Q 819 9 494 109 
L 494 744 
Q 775 591 1075 516 
Q 1375 441 1709 441 
Q 2250 441 2565 725 
Q 2881 1009 2881 1497 
Q 2881 1984 2565 2268 
Q 2250 2553 1709 2553 
Q 1456 2553 1204 2497 
Q 953 2441 691 2322 
L 691 4666 
z
" transform="scale(0.015625)"/>
       </defs>
       <use xlink:href="#DejaVuSans-35"/>
       <use xlink:href="#DejaVuSans-30" transform="translate(63.623047 0)"/>
       <use xlink:href="#DejaVuSans-30" transform="translate(127.246094 0)"/>
       <use xlink:href="#DejaVuSans-30" transform="translate(190.869141 0)"/>
       <use xlink:href="#DejaVuSans-30" transform="translate(254.492188 0)"/>
      </g>
     </g>
    </g>
    <g id="xtick_7">
     <g id="line2d_13">
      <path d="M 323.165689 306.497812 
L 323.165689 23.837812 
" clip-path="url(#pa610dd4d94)" style="fill: none; stroke: #ffffff; stroke-width: 0.8; stroke-linecap: square"/>
     </g>
     <g id="line2d_14">
      <g>
       <use xlink:href="#mbc9ad22b18" x="323.165689" y="306.497812" style="fill: #555555; stroke: #555555"/>
      </g>
     </g>
     <g id="text_7">
      <!-- 60000 -->
      <g style="fill: #555555" transform="translate(309.168189 321.484437) scale(0.088 -0.088)">
       <defs>
        <path id="DejaVuSans-36" d="M 2113 2584 
Q 1688 2584 1439 2293 
Q 1191 2003 1191 1497 
Q 1191 994 1439 701 
Q 1688 409 2113 409 
Q 2538 409 2786 701 
Q 3034 994 3034 1497 
Q 3034 2003 2786 2293 
Q 2538 2584 2113 2584 
z
M 3366 4563 
L 3366 3988 
Q 3128 4100 2886 4159 
Q 2644 4219 2406 4219 
Q 1781 4219 1451 3797 
Q 1122 3375 1075 2522 
Q 1259 2794 1537 2939 
Q 1816 3084 2150 3084 
Q 2853 3084 3261 2657 
Q 3669 2231 3669 1497 
Q 3669 778 3244 343 
Q 2819 -91 2113 -91 
Q 1303 -91 875 529 
Q 447 1150 447 2328 
Q 447 3434 972 4092 
Q 1497 4750 2381 4750 
Q 2619 4750 2861 4703 
Q 3103 4656 3366 4563 
z
" transform="scale(0.015625)"/>
       </defs>
       <use xlink:href="#DejaVuSans-36"/>
       <use xlink:href="#DejaVuSans-30" transform="translate(63.623047 0)"/>
       <use xlink:href="#DejaVuSans-30" transform="translate(127.246094 0)"/>
       <use xlink:href="#DejaVuSans-30" transform="translate(190.869141 0)"/>
       <use xlink:href="#DejaVuSans-30" transform="translate(254.492188 0)"/>
      </g>
     </g>
    </g>
    <g id="xtick_8">
     <g id="line2d_15">
      <path d="M 366.861261 306.497812 
L 366.861261 23.837812 
" clip-path="url(#pa610dd4d94)" style="fill: none; stroke: #ffffff; stroke-width: 0.8; stroke-linecap: square"/>
     </g>
     <g id="line2d_16">
      <g>
       <use xlink:href="#mbc9ad22b18" x="366.861261" y="306.497812" style="fill: #555555; stroke: #555555"/>
      </g>
     </g>
     <g id="text_8">
      <!-- 70000 -->
      <g style="fill: #555555" transform="translate(352.863761 321.484437) scale(0.088 -0.088)">
       <defs>
        <path id="DejaVuSans-37" d="M 525 4666 
L 3525 4666 
L 3525 4397 
L 1831 0 
L 1172 0 
L 2766 4134 
L 525 4134 
L 525 4666 
z
" transform="scale(0.015625)"/>
       </defs>
       <use xlink:href="#DejaVuSans-37"/>
       <use xlink:href="#DejaVuSans-30" transform="translate(63.623047 0)"/>
       <use xlink:href="#DejaVuSans-30" transform="translate(127.246094 0)"/>
       <use xlink:href="#DejaVuSans-30" transform="translate(190.869141 0)"/>
       <use xlink:href="#DejaVuSans-30" transform="translate(254.492188 0)"/>
      </g>
     </g>
    </g>
    <g id="xtick_9">
     <g id="line2d_17">
      <path d="M 410.556833 306.497812 
L 410.556833 23.837812 
" clip-path="url(#pa610dd4d94)" style="fill: none; stroke: #ffffff; stroke-width: 0.8; stroke-linecap: square"/>
     </g>
     <g id="line2d_18">
      <g>
       <use xlink:href="#mbc9ad22b18" x="410.556833" y="306.497812" style="fill: #555555; stroke: #555555"/>
      </g>
     </g>
     <g id="text_9">
      <!-- 80000 -->
      <g style="fill: #555555" transform="translate(396.559333 321.484437) scale(0.088 -0.088)">
       <defs>
        <path id="DejaVuSans-38" d="M 2034 2216 
Q 1584 2216 1326 1975 
Q 1069 1734 1069 1313 
Q 1069 891 1326 650 
Q 1584 409 2034 409 
Q 2484 409 2743 651 
Q 3003 894 3003 1313 
Q 3003 1734 2745 1975 
Q 2488 2216 2034 2216 
z
M 1403 2484 
Q 997 2584 770 2862 
Q 544 3141 544 3541 
Q 544 4100 942 4425 
Q 1341 4750 2034 4750 
Q 2731 4750 3128 4425 
Q 3525 4100 3525 3541 
Q 3525 3141 3298 2862 
Q 3072 2584 2669 2484 
Q 3125 2378 3379 2068 
Q 3634 1759 3634 1313 
Q 3634 634 3220 271 
Q 2806 -91 2034 -91 
Q 1263 -91 848 271 
Q 434 634 434 1313 
Q 434 1759 690 2068 
Q 947 2378 1403 2484 
z
M 1172 3481 
Q 1172 3119 1398 2916 
Q 1625 2713 2034 2713 
Q 2441 2713 2670 2916 
Q 2900 3119 2900 3481 
Q 2900 3844 2670 4047 
Q 2441 4250 2034 4250 
Q 1625 4250 1398 4047 
Q 1172 3844 1172 3481 
z
" transform="scale(0.015625)"/>
       </defs>
       <use xlink:href="#DejaVuSans-38"/>
       <use xlink:href="#DejaVuSans-30" transform="translate(63.623047 0)"/>
       <use xlink:href="#DejaVuSans-30" transform="translate(127.246094 0)"/>
       <use xlink:href="#DejaVuSans-30" transform="translate(190.869141 0)"/>
       <use xlink:href="#DejaVuSans-30" transform="translate(254.492188 0)"/>
      </g>
     </g>
    </g>
    <g id="text_10">
     <!-- Distance -->
     <g style="fill: #555555" transform="translate(203.811055 336.432687) scale(0.12 -0.12)">
      <defs>
       <path id="DejaVuSans-44" d="M 1259 4147 
L 1259 519 
L 2022 519 
Q 2988 519 3436 956 
Q 3884 1394 3884 2338 
Q 3884 3275 3436 3711 
Q 2988 4147 2022 4147 
L 1259 4147 
z
M 628 4666 
L 1925 4666 
Q 3281 4666 3915 4102 
Q 4550 3538 4550 2338 
Q 4550 1131 3912 565 
Q 3275 0 1925 0 
L 628 0 
L 628 4666 
z
" transform="scale(0.015625)"/>
       <path id="DejaVuSans-69" d="M 603 3500 
L 1178 3500 
L 1178 0 
L 603 0 
L 603 3500 
z
M 603 4863 
L 1178 4863 
L 1178 4134 
L 603 4134 
L 603 4863 
z
" transform="scale(0.015625)"/>
       <path id="DejaVuSans-73" d="M 2834 3397 
L 2834 2853 
Q 2591 2978 2328 3040 
Q 2066 3103 1784 3103 
Q 1356 3103 1142 2972 
Q 928 2841 928 2578 
Q 928 2378 1081 2264 
Q 1234 2150 1697 2047 
L 1894 2003 
Q 2506 1872 2764 1633 
Q 3022 1394 3022 966 
Q 3022 478 2636 193 
Q 2250 -91 1575 -91 
Q 1294 -91 989 -36 
Q 684 19 347 128 
L 347 722 
Q 666 556 975 473 
Q 1284 391 1588 391 
Q 1994 391 2212 530 
Q 2431 669 2431 922 
Q 2431 1156 2273 1281 
Q 2116 1406 1581 1522 
L 1381 1569 
Q 847 1681 609 1914 
Q 372 2147 372 2553 
Q 372 3047 722 3315 
Q 1072 3584 1716 3584 
Q 2034 3584 2315 3537 
Q 2597 3491 2834 3397 
z
" transform="scale(0.015625)"/>
       <path id="DejaVuSans-74" d="M 1172 4494 
L 1172 3500 
L 2356 3500 
L 2356 3053 
L 1172 3053 
L 1172 1153 
Q 1172 725 1289 603 
Q 1406 481 1766 481 
L 2356 481 
L 2356 0 
L 1766 0 
Q 1100 0 847 248 
Q 594 497 594 1153 
L 594 3053 
L 172 3053 
L 172 3500 
L 594 3500 
L 594 4494 
L 1172 4494 
z
" transform="scale(0.015625)"/>
       <path id="DejaVuSans-61" d="M 2194 1759 
Q 1497 1759 1228 1600 
Q 959 1441 959 1056 
Q 959 750 1161 570 
Q 1363 391 1709 391 
Q 2188 391 2477 730 
Q 2766 1069 2766 1631 
L 2766 1759 
L 2194 1759 
z
M 3341 1997 
L 3341 0 
L 2766 0 
L 2766 531 
Q 2569 213 2275 61 
Q 1981 -91 1556 -91 
Q 1019 -91 701 211 
Q 384 513 384 1019 
Q 384 1609 779 1909 
Q 1175 2209 1959 2209 
L 2766 2209 
L 2766 2266 
Q 2766 2663 2505 2880 
Q 2244 3097 1772 3097 
Q 1472 3097 1187 3025 
Q 903 2953 641 2809 
L 641 3341 
Q 956 3463 1253 3523 
Q 1550 3584 1831 3584 
Q 2591 3584 2966 3190 
Q 3341 2797 3341 1997 
z
" transform="scale(0.015625)"/>
       <path id="DejaVuSans-6e" d="M 3513 2113 
L 3513 0 
L 2938 0 
L 2938 2094 
Q 2938 2591 2744 2837 
Q 2550 3084 2163 3084 
Q 1697 3084 1428 2787 
Q 1159 2491 1159 1978 
L 1159 0 
L 581 0 
L 581 3500 
L 1159 3500 
L 1159 2956 
Q 1366 3272 1645 3428 
Q 1925 3584 2291 3584 
Q 2894 3584 3203 3211 
Q 3513 2838 3513 2113 
z
" transform="scale(0.015625)"/>
       <path id="DejaVuSans-63" d="M 3122 3366 
L 3122 2828 
Q 2878 2963 2633 3030 
Q 2388 3097 2138 3097 
Q 1578 3097 1268 2742 
Q 959 2388 959 1747 
Q 959 1106 1268 751 
Q 1578 397 2138 397 
Q 2388 397 2633 464 
Q 2878 531 3122 666 
L 3122 134 
Q 2881 22 2623 -34 
Q 2366 -91 2075 -91 
Q 1284 -91 818 406 
Q 353 903 353 1747 
Q 353 2603 823 3093 
Q 1294 3584 2113 3584 
Q 2378 3584 2631 3529 
Q 2884 3475 3122 3366 
z
" transform="scale(0.015625)"/>
       <path id="DejaVuSans-65" d="M 3597 1894 
L 3597 1613 
L 953 1613 
Q 991 1019 1311 708 
Q 1631 397 2203 397 
Q 2534 397 2845 478 
Q 3156 559 3463 722 
L 3463 178 
Q 3153 47 2828 -22 
Q 2503 -91 2169 -91 
Q 1331 -91 842 396 
Q 353 884 353 1716 
Q 353 2575 817 3079 
Q 1281 3584 2069 3584 
Q 2775 3584 3186 3129 
Q 3597 2675 3597 1894 
z
M 3022 2063 
Q 3016 2534 2758 2815 
Q 2500 3097 2075 3097 
Q 1594 3097 1305 2825 
Q 1016 2553 972 2059 
L 3022 2063 
z
" transform="scale(0.015625)"/>
      </defs>
      <use xlink:href="#DejaVuSans-44"/>
      <use xlink:href="#DejaVuSans-69" transform="translate(77.001953 0)"/>
      <use xlink:href="#DejaVuSans-73" transform="translate(104.785156 0)"/>
      <use xlink:href="#DejaVuSans-74" transform="translate(156.884766 0)"/>
      <use xlink:href="#DejaVuSans-61" transform="translate(196.09375 0)"/>
      <use xlink:href="#DejaVuSans-6e" transform="translate(257.373047 0)"/>
      <use xlink:href="#DejaVuSans-63" transform="translate(320.751953 0)"/>
      <use xlink:href="#DejaVuSans-65" transform="translate(375.732422 0)"/>
     </g>
    </g>
   </g>
   <g id="matplotlib.axis_2">
    <g id="ytick_1">
     <g id="line2d_19">
      <path d="M 44.086875 260.462458 
L 416.005234 260.462458 
" clip-path="url(#pa610dd4d94)" style="fill: none; stroke: #ffffff; stroke-width: 0.8; stroke-linecap: square"/>
     </g>
     <g id="line2d_20">
      <defs>
       <path id="m0828aafed2" d="M 0 0 
L -4.8 0 
" style="stroke: #555555"/>
      </defs>
      <g>
       <use xlink:href="#m0828aafed2" x="44.086875" y="260.462458" style="fill: #555555; stroke: #555555"/>
      </g>
     </g>
     <g id="text_11">
      <!-- −4 -->
      <g style="fill: #555555" transform="translate(22.81375 263.80577) scale(0.088 -0.088)">
       <defs>
        <path id="DejaVuSans-2212" d="M 678 2272 
L 4684 2272 
L 4684 1741 
L 678 1741 
L 678 2272 
z
" transform="scale(0.015625)"/>
       </defs>
       <use xlink:href="#DejaVuSans-2212"/>
       <use xlink:href="#DejaVuSans-34" transform="translate(83.789062 0)"/>
      </g>
     </g>
    </g>
    <g id="ytick_2">
     <g id="line2d_21">
      <path d="M 44.086875 207.544223 
L 416.005234 207.544223 
" clip-path="url(#pa610dd4d94)" style="fill: none; stroke: #ffffff; stroke-width: 0.8; stroke-linecap: square"/>
     </g>
     <g id="line2d_22">
      <g>
       <use xlink:href="#m0828aafed2" x="44.086875" y="207.544223" style="fill: #555555; stroke: #555555"/>
      </g>
     </g>
     <g id="text_12">
      <!-- −2 -->
      <g style="fill: #555555" transform="translate(22.81375 210.887536) scale(0.088 -0.088)">
       <use xlink:href="#DejaVuSans-2212"/>
       <use xlink:href="#DejaVuSans-32" transform="translate(83.789062 0)"/>
      </g>
     </g>
    </g>
    <g id="ytick_3">
     <g id="line2d_23">
      <path d="M 44.086875 154.625989 
L 416.005234 154.625989 
" clip-path="url(#pa610dd4d94)" style="fill: none; stroke: #ffffff; stroke-width: 0.8; stroke-linecap: square"/>
     </g>
     <g id="line2d_24">
      <g>
       <use xlink:href="#m0828aafed2" x="44.086875" y="154.625989" style="fill: #555555; stroke: #555555"/>
      </g>
     </g>
     <g id="text_13">
      <!-- 0 -->
      <g style="fill: #555555" transform="translate(30.187875 157.969301) scale(0.088 -0.088)">
       <use xlink:href="#DejaVuSans-30"/>
      </g>
     </g>
    </g>
    <g id="ytick_4">
     <g id="line2d_25">
      <path d="M 44.086875 101.707754 
L 416.005234 101.707754 
" clip-path="url(#pa610dd4d94)" style="fill: none; stroke: #ffffff; stroke-width: 0.8; stroke-linecap: square"/>
     </g>
     <g id="line2d_26">
      <g>
       <use xlink:href="#m0828aafed2" x="44.086875" y="101.707754" style="fill: #555555; stroke: #555555"/>
      </g>
     </g>
     <g id="text_14">
      <!-- 2 -->
      <g style="fill: #555555" transform="translate(30.187875 105.051067) scale(0.088 -0.088)">
       <use xlink:href="#DejaVuSans-32"/>
      </g>
     </g>
    </g>
    <g id="ytick_5">
     <g id="line2d_27">
      <path d="M 44.086875 48.78952 
L 416.005234 48.78952 
" clip-path="url(#pa610dd4d94)" style="fill: none; stroke: #ffffff; stroke-width: 0.8; stroke-linecap: square"/>
     </g>
     <g id="line2d_28">
      <g>
       <use xlink:href="#m0828aafed2" x="44.086875" y="48.78952" style="fill: #555555; stroke: #555555"/>
      </g>
     </g>
     <g id="text_15">
      <!-- 4 -->
      <g style="fill: #555555" transform="translate(30.187875 52.132832) scale(0.088 -0.088)">
       <use xlink:href="#DejaVuSans-34"/>
      </g>
     </g>
    </g>
    <g id="text_16">
     <!-- Density -->
     <g style="fill: #555555" transform="translate(16.318125 187.978125) rotate(-90) scale(0.12 -0.12)">
      <defs>
       <path id="DejaVuSans-79" d="M 2059 -325 
Q 1816 -950 1584 -1140 
Q 1353 -1331 966 -1331 
L 506 -1331 
L 506 -850 
L 844 -850 
Q 1081 -850 1212 -737 
Q 1344 -625 1503 -206 
L 1606 56 
L 191 3500 
L 800 3500 
L 1894 763 
L 2988 3500 
L 3597 3500 
L 2059 -325 
z
" transform="scale(0.015625)"/>
      </defs>
      <use xlink:href="#DejaVuSans-44"/>
      <use xlink:href="#DejaVuSans-65" transform="translate(77.001953 0)"/>
      <use xlink:href="#DejaVuSans-6e" transform="translate(138.525391 0)"/>
      <use xlink:href="#DejaVuSans-73" transform="translate(201.904297 0)"/>
      <use xlink:href="#DejaVuSans-69" transform="translate(254.003906 0)"/>
      <use xlink:href="#DejaVuSans-74" transform="translate(281.787109 0)"/>
      <use xlink:href="#DejaVuSans-79" transform="translate(320.996094 0)"/>
     </g>
    </g>
    <g id="text_17">
     <!-- 1e−6 -->
     <g style="fill: #555555" transform="translate(44.086875 20.837812) scale(0.088 -0.088)">
      <use xlink:href="#DejaVuSans-31"/>
      <use xlink:href="#DejaVuSans-65" transform="translate(63.623047 0)"/>
      <use xlink:href="#DejaVuSans-2212" transform="translate(125.146484 0)"/>
      <use xlink:href="#DejaVuSans-36" transform="translate(208.935547 0)"/>
     </g>
    </g>
   </g>
   <g id="FillBetweenPolyCollection_1">
    <defs>
     <path id="mc2eb804a02" d="M 60.992255 -238.126141 
L 60.992255 -216.779869 
L 67.89241 -224.470447 
L 74.792565 -185.10031 
L 81.69272 -137.64492 
L 88.592875 -94.422214 
L 95.49303 -59.358277 
L 102.393185 -78.513134 
L 109.293341 -80.6718 
L 116.193496 -64.298001 
L 123.093651 -66.324335 
L 129.993806 -75.454777 
L 136.893961 -65.343634 
L 143.794116 -52.478682 
L 150.694271 -66.102286 
L 157.594426 -112.213047 
L 164.494581 -181.780729 
L 171.394736 -215.96687 
L 178.294891 -215.605176 
L 185.195047 -210.67874 
L 192.095202 -202.709863 
L 198.995357 -190.094634 
L 205.895512 -176.413 
L 212.795667 -177.33727 
L 219.695822 -179.977876 
L 226.595977 -178.323837 
L 233.496132 -180.800191 
L 240.396287 -177.035047 
L 247.296442 -167.721359 
L 254.196597 -164.288741 
L 261.096752 -170.399892 
L 267.996908 -178.035828 
L 274.897063 -185.139959 
L 281.797218 -187.062513 
L 288.697373 -186.614433 
L 295.597528 -181.531343 
L 302.497683 -175.584163 
L 309.397838 -168.176346 
L 316.297993 -166.039559 
L 323.198148 -165.681059 
L 330.098303 -167.777637 
L 336.998458 -171.173584 
L 343.898613 -174.828418 
L 350.798769 -177.55675 
L 357.698924 -180.020014 
L 364.599079 -181.734499 
L 371.499234 -183.406666 
L 378.399389 -185.036183 
L 385.299544 -186.057477 
L 392.199699 -187.279269 
L 399.099854 -188.041454 
L 399.099854 -191.29124 
L 399.099854 -191.29124 
L 392.199699 -191.217917 
L 385.299544 -191.087501 
L 378.399389 -190.6959 
L 371.499234 -190.304779 
L 364.599079 -189.769214 
L 357.698924 -189.003898 
L 350.798769 -188.06713 
L 343.898613 -186.701144 
L 336.998458 -185.015682 
L 330.098303 -183.199338 
L 323.198148 -183.69242 
L 316.297993 -186.788967 
L 309.397838 -194.686288 
L 302.497683 -205.877724 
L 295.597528 -219.718483 
L 288.697373 -231.306932 
L 281.797218 -235.264495 
L 274.897063 -235.857609 
L 267.996908 -234.779758 
L 261.096752 -231.019891 
L 254.196597 -229.485054 
L 247.296442 -239.548227 
L 240.396287 -249.506084 
L 233.496132 -253.905334 
L 226.595977 -258.607621 
L 219.695822 -261.551294 
L 212.795667 -262.836126 
L 205.895512 -262.6878 
L 198.995357 -272.903525 
L 192.095202 -289.110908 
L 185.195047 -290.906101 
L 178.294891 -294.505686 
L 171.394736 -299.509297 
L 164.494581 -259.785728 
L 157.594426 -192.125909 
L 150.694271 -149.562271 
L 143.794116 -142.402988 
L 136.893961 -165.499107 
L 129.993806 -191.499072 
L 123.093651 -204.884331 
L 116.193496 -212.103145 
L 109.293341 -241.448908 
L 102.393185 -228.97289 
L 95.49303 -212.178746 
L 88.592875 -230.24399 
L 81.69272 -254.961473 
L 74.792565 -271.211171 
L 67.89241 -275.919793 
L 60.992255 -238.126141 
z
" style="stroke: #0000ff; stroke-opacity: 0.2; stroke-width: 0.8"/>
    </defs>
    <g clip-path="url(#pa610dd4d94)">
     <use xlink:href="#mc2eb804a02" x="0" y="346.128312" style="fill: #0000ff; fill-opacity: 0.2; stroke: #0000ff; stroke-opacity: 0.2; stroke-width: 0.8"/>
    </g>
   </g>
   <g id="line2d_29">
    <path d="M 60.992255 119.192886 
L 67.89241 95.863257 
L 74.792565 117.865233 
L 81.69272 149.863818 
L 88.592875 184.722437 
L 95.49303 210.871774 
L 102.393185 194.393747 
L 109.293341 188.636124 
L 116.193496 211.158213 
L 123.093651 211.410163 
L 129.993806 214.139345 
L 136.893961 230.94851 
L 143.794116 245.707748 
L 150.694271 238.493387 
L 157.594426 193.890814 
L 164.494581 127.117498 
L 171.394736 87.244847 
L 178.294891 89.902774 
L 185.195047 95.652012 
L 192.095202 98.663766 
L 198.995357 111.994635 
L 205.895512 125.718587 
L 212.795667 124.409429 
L 219.695822 124.440721 
L 226.595977 126.394322 
L 233.496132 127.704313 
L 240.396287 131.827958 
L 247.296442 142.0967 
L 254.196597 148.56447 
L 261.096752 144.889962 
L 267.996908 138.587329 
L 274.897063 135.654958 
L 281.797218 135.110079 
L 288.697373 137.088365 
L 295.597528 145.192721 
L 302.497683 155.607798 
L 309.397838 164.462209 
L 316.297993 169.131647 
L 323.198148 170.599684 
L 330.098303 169.511528 
L 336.998458 166.938109 
L 343.898613 164.383242 
L 350.798769 162.283069 
L 357.698924 160.632968 
L 364.599079 159.298984 
L 371.499234 158.23764 
L 378.399389 157.427072 
L 385.299544 156.774794 
L 392.199699 156.260773 
L 399.099854 155.852119 
" clip-path="url(#pa610dd4d94)" style="fill: none; stroke: #0000ff; stroke-width: 1.2; stroke-linecap: square"/>
   </g>
   <g id="line2d_30">
    <path d="M 44.086875 154.625989 
L 416.005234 154.625989 
" clip-path="url(#pa610dd4d94)" style="fill: none; stroke-dasharray: 5.55,2.4; stroke-dashoffset: 0; stroke: #ff0000; stroke-width: 1.5"/>
   </g>
   <g id="patch_3">
    <path d="M 44.086875 306.497812 
L 44.086875 23.837812 
" style="fill: none; stroke: #ffffff; stroke-linejoin: miter; stroke-linecap: square"/>
   </g>
   <g id="patch_4">
    <path d="M 416.005234 306.497812 
L 416.005234 23.837812 
" style="fill: none; stroke: #ffffff; stroke-linejoin: miter; stroke-linecap: square"/>
   </g>
   <g id="patch_5">
    <path d="M 44.086875 306.497812 
L 416.005234 306.497812 
" style="fill: none; stroke: #ffffff; stroke-linejoin: miter; stroke-linecap: square"/>
   </g>
   <g id="patch_6">
    <path d="M 44.086875 23.837812 
L 416.005234 23.837812 
" style="fill: none; stroke: #ffffff; stroke-linejoin: miter; stroke-linecap: square"/>
   </g>
   <g id="text_18">
    <!-- Pairwise Distance Density Angkor -->
    <g transform="translate(112.882461 17.837812) scale(0.14 -0.14)">
     <defs>
      <path id="DejaVuSans-50" d="M 1259 4147 
L 1259 2394 
L 2053 2394 
Q 2494 2394 2734 2622 
Q 2975 2850 2975 3272 
Q 2975 3691 2734 3919 
Q 2494 4147 2053 4147 
L 1259 4147 
z
M 628 4666 
L 2053 4666 
Q 2838 4666 3239 4311 
Q 3641 3956 3641 3272 
Q 3641 2581 3239 2228 
Q 2838 1875 2053 1875 
L 1259 1875 
L 1259 0 
L 628 0 
L 628 4666 
z
" transform="scale(0.015625)"/>
      <path id="DejaVuSans-72" d="M 2631 2963 
Q 2534 3019 2420 3045 
Q 2306 3072 2169 3072 
Q 1681 3072 1420 2755 
Q 1159 2438 1159 1844 
L 1159 0 
L 581 0 
L 581 3500 
L 1159 3500 
L 1159 2956 
Q 1341 3275 1631 3429 
Q 1922 3584 2338 3584 
Q 2397 3584 2469 3576 
Q 2541 3569 2628 3553 
L 2631 2963 
z
" transform="scale(0.015625)"/>
      <path id="DejaVuSans-77" d="M 269 3500 
L 844 3500 
L 1563 769 
L 2278 3500 
L 2956 3500 
L 3675 769 
L 4391 3500 
L 4966 3500 
L 4050 0 
L 3372 0 
L 2619 2869 
L 1863 0 
L 1184 0 
L 269 3500 
z
" transform="scale(0.015625)"/>
      <path id="DejaVuSans-20" transform="scale(0.015625)"/>
      <path id="DejaVuSans-41" d="M 2188 4044 
L 1331 1722 
L 3047 1722 
L 2188 4044 
z
M 1831 4666 
L 2547 4666 
L 4325 0 
L 3669 0 
L 3244 1197 
L 1141 1197 
L 716 0 
L 50 0 
L 1831 4666 
z
" transform="scale(0.015625)"/>
      <path id="DejaVuSans-67" d="M 2906 1791 
Q 2906 2416 2648 2759 
Q 2391 3103 1925 3103 
Q 1463 3103 1205 2759 
Q 947 2416 947 1791 
Q 947 1169 1205 825 
Q 1463 481 1925 481 
Q 2391 481 2648 825 
Q 2906 1169 2906 1791 
z
M 3481 434 
Q 3481 -459 3084 -895 
Q 2688 -1331 1869 -1331 
Q 1566 -1331 1297 -1286 
Q 1028 -1241 775 -1147 
L 775 -588 
Q 1028 -725 1275 -790 
Q 1522 -856 1778 -856 
Q 2344 -856 2625 -561 
Q 2906 -266 2906 331 
L 2906 616 
Q 2728 306 2450 153 
Q 2172 0 1784 0 
Q 1141 0 747 490 
Q 353 981 353 1791 
Q 353 2603 747 3093 
Q 1141 3584 1784 3584 
Q 2172 3584 2450 3431 
Q 2728 3278 2906 2969 
L 2906 3500 
L 3481 3500 
L 3481 434 
z
" transform="scale(0.015625)"/>
      <path id="DejaVuSans-6b" d="M 581 4863 
L 1159 4863 
L 1159 1991 
L 2875 3500 
L 3609 3500 
L 1753 1863 
L 3688 0 
L 2938 0 
L 1159 1709 
L 1159 0 
L 581 0 
L 581 4863 
z
" transform="scale(0.015625)"/>
      <path id="DejaVuSans-6f" d="M 1959 3097 
Q 1497 3097 1228 2736 
Q 959 2375 959 1747 
Q 959 1119 1226 758 
Q 1494 397 1959 397 
Q 2419 397 2687 759 
Q 2956 1122 2956 1747 
Q 2956 2369 2687 2733 
Q 2419 3097 1959 3097 
z
M 1959 3584 
Q 2709 3584 3137 3096 
Q 3566 2609 3566 1747 
Q 3566 888 3137 398 
Q 2709 -91 1959 -91 
Q 1206 -91 779 398 
Q 353 888 353 1747 
Q 353 2609 779 3096 
Q 1206 3584 1959 3584 
z
" transform="scale(0.015625)"/>
     </defs>
     <use xlink:href="#DejaVuSans-50"/>
     <use xlink:href="#DejaVuSans-61" transform="translate(55.802734 0)"/>
     <use xlink:href="#DejaVuSans-69" transform="translate(117.082031 0)"/>
     <use xlink:href="#DejaVuSans-72" transform="translate(144.865234 0)"/>
     <use xlink:href="#DejaVuSans-77" transform="translate(185.978516 0)"/>
     <use xlink:href="#DejaVuSans-69" transform="translate(267.765625 0)"/>
     <use xlink:href="#DejaVuSans-73" transform="translate(295.548828 0)"/>
     <use xlink:href="#DejaVuSans-65" transform="translate(347.648438 0)"/>
     <use xlink:href="#DejaVuSans-20" transform="translate(409.171875 0)"/>
     <use xlink:href="#DejaVuSans-44" transform="translate(440.958984 0)"/>
     <use xlink:href="#DejaVuSans-69" transform="translate(517.960938 0)"/>
     <use xlink:href="#DejaVuSans-73" transform="translate(545.744141 0)"/>
     <use xlink:href="#DejaVuSans-74" transform="translate(597.84375 0)"/>
     <use xlink:href="#DejaVuSans-61" transform="translate(637.052734 0)"/>
     <use xlink:href="#DejaVuSans-6e" transform="translate(698.332031 0)"/>
     <use xlink:href="#DejaVuSans-63" transform="translate(761.710938 0)"/>
     <use xlink:href="#DejaVuSans-65" transform="translate(816.691406 0)"/>
     <use xlink:href="#DejaVuSans-20" transform="translate(878.214844 0)"/>
     <use xlink:href="#DejaVuSans-44" transform="translate(910.001953 0)"/>
     <use xlink:href="#DejaVuSans-65" transform="translate(987.003906 0)"/>
     <use xlink:href="#DejaVuSans-6e" transform="translate(1048.527344 0)"/>
     <use xlink:href="#DejaVuSans-73" transform="translate(1111.90625 0)"/>
     <use xlink:href="#DejaVuSans-69" transform="translate(1164.005859 0)"/>
     <use xlink:href="#DejaVuSans-74" transform="translate(1191.789062 0)"/>
     <use xlink:href="#DejaVuSans-79" transform="translate(1230.998047 0)"/>
     <use xlink:href="#DejaVuSans-20" transform="translate(1290.177734 0)"/>
     <use xlink:href="#DejaVuSans-41" transform="translate(1321.964844 0)"/>
     <use xlink:href="#DejaVuSans-6e" transform="translate(1390.373047 0)"/>
     <use xlink:href="#DejaVuSans-67" transform="translate(1453.751953 0)"/>
     <use xlink:href="#DejaVuSans-6b" transform="translate(1517.228516 0)"/>
     <use xlink:href="#DejaVuSans-6f" transform="translate(1571.513672 0)"/>
     <use xlink:href="#DejaVuSans-72" transform="translate(1632.695312 0)"/>
    </g>
   </g>
   <g id="legend_1">
    <g id="line2d_31">
     <path d="M 293.011484 36.93625 
L 303.011484 36.93625 
L 313.011484 36.93625 
" style="fill: none; stroke: #0000ff; stroke-width: 1.2; stroke-linecap: square"/>
    </g>
    <g id="text_19">
     <!-- Diff Array Angkor -->
     <g transform="translate(321.011484 40.43625) scale(0.1 -0.1)">
      <defs>
       <path id="DejaVuSans-66" d="M 2375 4863 
L 2375 4384 
L 1825 4384 
Q 1516 4384 1395 4259 
Q 1275 4134 1275 3809 
L 1275 3500 
L 2222 3500 
L 2222 3053 
L 1275 3053 
L 1275 0 
L 697 0 
L 697 3053 
L 147 3053 
L 147 3500 
L 697 3500 
L 697 3744 
Q 697 4328 969 4595 
Q 1241 4863 1831 4863 
L 2375 4863 
z
" transform="scale(0.015625)"/>
      </defs>
      <use xlink:href="#DejaVuSans-44"/>
      <use xlink:href="#DejaVuSans-69" transform="translate(77.001953 0)"/>
      <use xlink:href="#DejaVuSans-66" transform="translate(104.785156 0)"/>
      <use xlink:href="#DejaVuSans-66" transform="translate(139.990234 0)"/>
      <use xlink:href="#DejaVuSans-20" transform="translate(175.195312 0)"/>
      <use xlink:href="#DejaVuSans-41" transform="translate(206.982422 0)"/>
      <use xlink:href="#DejaVuSans-72" transform="translate(275.390625 0)"/>
      <use xlink:href="#DejaVuSans-72" transform="translate(314.753906 0)"/>
      <use xlink:href="#DejaVuSans-61" transform="translate(355.867188 0)"/>
      <use xlink:href="#DejaVuSans-79" transform="translate(417.146484 0)"/>
      <use xlink:href="#DejaVuSans-20" transform="translate(476.326172 0)"/>
      <use xlink:href="#DejaVuSans-41" transform="translate(508.113281 0)"/>
      <use xlink:href="#DejaVuSans-6e" transform="translate(576.521484 0)"/>
      <use xlink:href="#DejaVuSans-67" transform="translate(639.900391 0)"/>
      <use xlink:href="#DejaVuSans-6b" transform="translate(703.376953 0)"/>
      <use xlink:href="#DejaVuSans-6f" transform="translate(757.662109 0)"/>
      <use xlink:href="#DejaVuSans-72" transform="translate(818.84375 0)"/>
     </g>
    </g>
   </g>
  </g>
  <g id="axes_2">
   <g id="patch_7">
    <path d="M 460.261473 306.497812 
L 832.179832 306.497812 
L 832.179832 23.837812 
L 460.261473 23.837812 
z
" style="fill: #e5e5e5"/>
   </g>
   <g id="matplotlib.axis_3">
    <g id="xtick_10">
     <g id="line2d_32">
      <path d="M 477.166853 306.497812 
L 477.166853 23.837812 
" clip-path="url(#pcadca5e02e)" style="fill: none; stroke: #ffffff; stroke-width: 0.8; stroke-linecap: square"/>
     </g>
     <g id="line2d_33">
      <g>
       <use xlink:href="#mbc9ad22b18" x="477.166853" y="306.497812" style="fill: #555555; stroke: #555555"/>
      </g>
     </g>
     <g id="text_20">
      <!-- 0 -->
      <g style="fill: #555555" transform="translate(474.367353 321.484437) scale(0.088 -0.088)">
       <use xlink:href="#DejaVuSans-30"/>
      </g>
     </g>
    </g>
    <g id="xtick_11">
     <g id="line2d_34">
      <path d="M 535.322895 306.497812 
L 535.322895 23.837812 
" clip-path="url(#pcadca5e02e)" style="fill: none; stroke: #ffffff; stroke-width: 0.8; stroke-linecap: square"/>
     </g>
     <g id="line2d_35">
      <g>
       <use xlink:href="#mbc9ad22b18" x="535.322895" y="306.497812" style="fill: #555555; stroke: #555555"/>
      </g>
     </g>
     <g id="text_21">
      <!-- 20000 -->
      <g style="fill: #555555" transform="translate(521.325395 321.484437) scale(0.088 -0.088)">
       <use xlink:href="#DejaVuSans-32"/>
       <use xlink:href="#DejaVuSans-30" transform="translate(63.623047 0)"/>
       <use xlink:href="#DejaVuSans-30" transform="translate(127.246094 0)"/>
       <use xlink:href="#DejaVuSans-30" transform="translate(190.869141 0)"/>
       <use xlink:href="#DejaVuSans-30" transform="translate(254.492188 0)"/>
      </g>
     </g>
    </g>
    <g id="xtick_12">
     <g id="line2d_36">
      <path d="M 593.478938 306.497812 
L 593.478938 23.837812 
" clip-path="url(#pcadca5e02e)" style="fill: none; stroke: #ffffff; stroke-width: 0.8; stroke-linecap: square"/>
     </g>
     <g id="line2d_37">
      <g>
       <use xlink:href="#mbc9ad22b18" x="593.478938" y="306.497812" style="fill: #555555; stroke: #555555"/>
      </g>
     </g>
     <g id="text_22">
      <!-- 40000 -->
      <g style="fill: #555555" transform="translate(579.481438 321.484437) scale(0.088 -0.088)">
       <use xlink:href="#DejaVuSans-34"/>
       <use xlink:href="#DejaVuSans-30" transform="translate(63.623047 0)"/>
       <use xlink:href="#DejaVuSans-30" transform="translate(127.246094 0)"/>
       <use xlink:href="#DejaVuSans-30" transform="translate(190.869141 0)"/>
       <use xlink:href="#DejaVuSans-30" transform="translate(254.492188 0)"/>
      </g>
     </g>
    </g>
    <g id="xtick_13">
     <g id="line2d_38">
      <path d="M 651.63498 306.497812 
L 651.63498 23.837812 
" clip-path="url(#pcadca5e02e)" style="fill: none; stroke: #ffffff; stroke-width: 0.8; stroke-linecap: square"/>
     </g>
     <g id="line2d_39">
      <g>
       <use xlink:href="#mbc9ad22b18" x="651.63498" y="306.497812" style="fill: #555555; stroke: #555555"/>
      </g>
     </g>
     <g id="text_23">
      <!-- 60000 -->
      <g style="fill: #555555" transform="translate(637.63748 321.484437) scale(0.088 -0.088)">
       <use xlink:href="#DejaVuSans-36"/>
       <use xlink:href="#DejaVuSans-30" transform="translate(63.623047 0)"/>
       <use xlink:href="#DejaVuSans-30" transform="translate(127.246094 0)"/>
       <use xlink:href="#DejaVuSans-30" transform="translate(190.869141 0)"/>
       <use xlink:href="#DejaVuSans-30" transform="translate(254.492188 0)"/>
      </g>
     </g>
    </g>
    <g id="xtick_14">
     <g id="line2d_40">
      <path d="M 709.791023 306.497812 
L 709.791023 23.837812 
" clip-path="url(#pcadca5e02e)" style="fill: none; stroke: #ffffff; stroke-width: 0.8; stroke-linecap: square"/>
     </g>
     <g id="line2d_41">
      <g>
       <use xlink:href="#mbc9ad22b18" x="709.791023" y="306.497812" style="fill: #555555; stroke: #555555"/>
      </g>
     </g>
     <g id="text_24">
      <!-- 80000 -->
      <g style="fill: #555555" transform="translate(695.793523 321.484437) scale(0.088 -0.088)">
       <use xlink:href="#DejaVuSans-38"/>
       <use xlink:href="#DejaVuSans-30" transform="translate(63.623047 0)"/>
       <use xlink:href="#DejaVuSans-30" transform="translate(127.246094 0)"/>
       <use xlink:href="#DejaVuSans-30" transform="translate(190.869141 0)"/>
       <use xlink:href="#DejaVuSans-30" transform="translate(254.492188 0)"/>
      </g>
     </g>
    </g>
    <g id="xtick_15">
     <g id="line2d_42">
      <path d="M 767.947065 306.497812 
L 767.947065 23.837812 
" clip-path="url(#pcadca5e02e)" style="fill: none; stroke: #ffffff; stroke-width: 0.8; stroke-linecap: square"/>
     </g>
     <g id="line2d_43">
      <g>
       <use xlink:href="#mbc9ad22b18" x="767.947065" y="306.497812" style="fill: #555555; stroke: #555555"/>
      </g>
     </g>
     <g id="text_25">
      <!-- 100000 -->
      <g style="fill: #555555" transform="translate(751.150065 321.484437) scale(0.088 -0.088)">
       <use xlink:href="#DejaVuSans-31"/>
       <use xlink:href="#DejaVuSans-30" transform="translate(63.623047 0)"/>
       <use xlink:href="#DejaVuSans-30" transform="translate(127.246094 0)"/>
       <use xlink:href="#DejaVuSans-30" transform="translate(190.869141 0)"/>
       <use xlink:href="#DejaVuSans-30" transform="translate(254.492188 0)"/>
       <use xlink:href="#DejaVuSans-30" transform="translate(318.115234 0)"/>
      </g>
     </g>
    </g>
    <g id="xtick_16">
     <g id="line2d_44">
      <path d="M 826.103107 306.497812 
L 826.103107 23.837812 
" clip-path="url(#pcadca5e02e)" style="fill: none; stroke: #ffffff; stroke-width: 0.8; stroke-linecap: square"/>
     </g>
     <g id="line2d_45">
      <g>
       <use xlink:href="#mbc9ad22b18" x="826.103107" y="306.497812" style="fill: #555555; stroke: #555555"/>
      </g>
     </g>
     <g id="text_26">
      <!-- 120000 -->
      <g style="fill: #555555" transform="translate(809.306107 321.484437) scale(0.088 -0.088)">
       <use xlink:href="#DejaVuSans-31"/>
       <use xlink:href="#DejaVuSans-32" transform="translate(63.623047 0)"/>
       <use xlink:href="#DejaVuSans-30" transform="translate(127.246094 0)"/>
       <use xlink:href="#DejaVuSans-30" transform="translate(190.869141 0)"/>
       <use xlink:href="#DejaVuSans-30" transform="translate(254.492188 0)"/>
       <use xlink:href="#DejaVuSans-30" transform="translate(318.115234 0)"/>
      </g>
     </g>
    </g>
    <g id="text_27">
     <!-- Distance -->
     <g style="fill: #555555" transform="translate(619.985653 336.432687) scale(0.12 -0.12)">
      <use xlink:href="#DejaVuSans-44"/>
      <use xlink:href="#DejaVuSans-69" transform="translate(77.001953 0)"/>
      <use xlink:href="#DejaVuSans-73" transform="translate(104.785156 0)"/>
      <use xlink:href="#DejaVuSans-74" transform="translate(156.884766 0)"/>
      <use xlink:href="#DejaVuSans-61" transform="translate(196.09375 0)"/>
      <use xlink:href="#DejaVuSans-6e" transform="translate(257.373047 0)"/>
      <use xlink:href="#DejaVuSans-63" transform="translate(320.751953 0)"/>
      <use xlink:href="#DejaVuSans-65" transform="translate(375.732422 0)"/>
     </g>
    </g>
   </g>
   <g id="matplotlib.axis_4">
    <g id="ytick_6">
     <g id="line2d_46">
      <path d="M 460.261473 260.462458 
L 832.179832 260.462458 
" clip-path="url(#pcadca5e02e)" style="fill: none; stroke: #ffffff; stroke-width: 0.8; stroke-linecap: square"/>
     </g>
     <g id="line2d_47">
      <g>
       <use xlink:href="#m0828aafed2" x="460.261473" y="260.462458" style="fill: #555555; stroke: #555555"/>
      </g>
     </g>
    </g>
    <g id="ytick_7">
     <g id="line2d_48">
      <path d="M 460.261473 207.544223 
L 832.179832 207.544223 
" clip-path="url(#pcadca5e02e)" style="fill: none; stroke: #ffffff; stroke-width: 0.8; stroke-linecap: square"/>
     </g>
     <g id="line2d_49">
      <g>
       <use xlink:href="#m0828aafed2" x="460.261473" y="207.544223" style="fill: #555555; stroke: #555555"/>
      </g>
     </g>
    </g>
    <g id="ytick_8">
     <g id="line2d_50">
      <path d="M 460.261473 154.625989 
L 832.179832 154.625989 
" clip-path="url(#pcadca5e02e)" style="fill: none; stroke: #ffffff; stroke-width: 0.8; stroke-linecap: square"/>
     </g>
     <g id="line2d_51">
      <g>
       <use xlink:href="#m0828aafed2" x="460.261473" y="154.625989" style="fill: #555555; stroke: #555555"/>
      </g>
     </g>
    </g>
    <g id="ytick_9">
     <g id="line2d_52">
      <path d="M 460.261473 101.707754 
L 832.179832 101.707754 
" clip-path="url(#pcadca5e02e)" style="fill: none; stroke: #ffffff; stroke-width: 0.8; stroke-linecap: square"/>
     </g>
     <g id="line2d_53">
      <g>
       <use xlink:href="#m0828aafed2" x="460.261473" y="101.707754" style="fill: #555555; stroke: #555555"/>
      </g>
     </g>
    </g>
    <g id="ytick_10">
     <g id="line2d_54">
      <path d="M 460.261473 48.78952 
L 832.179832 48.78952 
" clip-path="url(#pcadca5e02e)" style="fill: none; stroke: #ffffff; stroke-width: 0.8; stroke-linecap: square"/>
     </g>
     <g id="line2d_55">
      <g>
       <use xlink:href="#m0828aafed2" x="460.261473" y="48.78952" style="fill: #555555; stroke: #555555"/>
      </g>
     </g>
    </g>
    <g id="text_28">
     <!-- Density -->
     <g style="fill: #555555" transform="translate(448.965848 187.978125) rotate(-90) scale(0.12 -0.12)">
      <use xlink:href="#DejaVuSans-44"/>
      <use xlink:href="#DejaVuSans-65" transform="translate(77.001953 0)"/>
      <use xlink:href="#DejaVuSans-6e" transform="translate(138.525391 0)"/>
      <use xlink:href="#DejaVuSans-73" transform="translate(201.904297 0)"/>
      <use xlink:href="#DejaVuSans-69" transform="translate(254.003906 0)"/>
      <use xlink:href="#DejaVuSans-74" transform="translate(281.787109 0)"/>
      <use xlink:href="#DejaVuSans-79" transform="translate(320.996094 0)"/>
     </g>
    </g>
   </g>
   <g id="FillBetweenPolyCollection_2">
    <defs>
     <path id="mec59c2f07b" d="M 477.166853 -202.762117 
L 477.166853 -196.765574 
L 484.067008 -208.2446 
L 490.967163 -203.341664 
L 497.867318 -180.078942 
L 504.767473 -150.588583 
L 511.667628 -123.119078 
L 518.567784 -110.75029 
L 525.467939 -109.868073 
L 532.368094 -99.931734 
L 539.268249 -88.440766 
L 546.168404 -83.319234 
L 553.068559 -89.307491 
L 559.968714 -98.505456 
L 566.868869 -115.670022 
L 573.769024 -127.912637 
L 580.669179 -135.175009 
L 587.569334 -140.24421 
L 594.469489 -152.392865 
L 601.369645 -176.293508 
L 608.2698 -207.548446 
L 615.169955 -229.653589 
L 622.07011 -233.253369 
L 628.970265 -230.147143 
L 635.87042 -227.463472 
L 642.770575 -228.258336 
L 649.67073 -233.715957 
L 656.570885 -249.545427 
L 663.47104 -264.498225 
L 670.371195 -265.705917 
L 677.271351 -251.839373 
L 684.171506 -236.887705 
L 691.071661 -217.653929 
L 697.971816 -195.180136 
L 704.871971 -174.121536 
L 711.772126 -159.397802 
L 718.672281 -153.362475 
L 725.572436 -149.306372 
L 732.472591 -146.379529 
L 739.372746 -147.015074 
L 746.272901 -151.618854 
L 753.173056 -156.85187 
L 760.073212 -160.497166 
L 766.973367 -164.344118 
L 773.873522 -168.395692 
L 780.773677 -172.098546 
L 787.673832 -175.414863 
L 794.573987 -177.600764 
L 801.474142 -179.744091 
L 808.374297 -181.691356 
L 815.274452 -183.384247 
L 815.274452 -189.52302 
L 815.274452 -189.52302 
L 808.374297 -188.997617 
L 801.474142 -188.153125 
L 794.573987 -187.095404 
L 787.673832 -185.697397 
L 780.773677 -184.039503 
L 773.873522 -182.112937 
L 766.973367 -179.952431 
L 760.073212 -177.642867 
L 753.173056 -175.08994 
L 746.272901 -172.870457 
L 739.372746 -170.704147 
L 732.472591 -172.622467 
L 725.572436 -178.02112 
L 718.672281 -183.787556 
L 711.772126 -192.717807 
L 704.871971 -209.335437 
L 697.971816 -232.285043 
L 691.071661 -255.576554 
L 684.171506 -277.013239 
L 677.271351 -295.258211 
L 670.371195 -309.3549 
L 663.47104 -309.442318 
L 656.570885 -295.192014 
L 649.67073 -280.315298 
L 642.770575 -275.194673 
L 635.87042 -272.163242 
L 628.970265 -271.637472 
L 622.07011 -274.190277 
L 615.169955 -267.847309 
L 608.2698 -242.063818 
L 601.369645 -210.239771 
L 594.469489 -187.1189 
L 587.569334 -173.345018 
L 580.669179 -172.254648 
L 573.769024 -171.094288 
L 566.868869 -164.73211 
L 559.968714 -156.343036 
L 553.068559 -153.482073 
L 546.168404 -153.950131 
L 539.268249 -159.63139 
L 532.368094 -174.995255 
L 525.467939 -183.746206 
L 518.567784 -182.827967 
L 511.667628 -189.622985 
L 504.767473 -207.210837 
L 497.867318 -225.814609 
L 490.967163 -235.463735 
L 484.067008 -225.615478 
L 477.166853 -202.762117 
z
" style="stroke: #008000; stroke-opacity: 0.2; stroke-width: 0.8"/>
    </defs>
    <g clip-path="url(#pcadca5e02e)">
     <use xlink:href="#mec59c2f07b" x="0" y="346.128312" style="fill: #008000; fill-opacity: 0.2; stroke: #008000; stroke-opacity: 0.2; stroke-width: 0.8"/>
    </g>
   </g>
   <g id="line2d_56">
    <path d="M 477.166853 146.237645 
L 484.067008 129.290323 
L 490.967163 126.731752 
L 497.867318 142.839254 
L 504.767473 166.489394 
L 511.667628 188.770083 
L 518.567784 197.130901 
L 525.467939 196.820471 
L 532.368094 206.713749 
L 539.268249 221.010724 
L 546.168404 225.923789 
L 553.068559 224.224445 
L 559.968714 216.91406 
L 566.868869 206.120603 
L 573.769024 197.187955 
L 580.669179 193.2547 
L 587.569334 190.291266 
L 594.469489 177.196329 
L 601.369645 153.864385 
L 608.2698 122.292146 
L 615.169955 97.861861 
L 622.07011 93.103629 
L 628.970265 96.666217 
L 635.87042 98.073231 
L 642.770575 95.548986 
L 649.67073 90.402187 
L 656.570885 75.187433 
L 663.47104 60.07729 
L 670.371195 59.457904 
L 677.271351 72.429608 
L 684.171506 89.079342 
L 691.071661 109.654307 
L 697.971816 131.926037 
L 704.871971 153.730957 
L 711.772126 169.485643 
L 718.672281 177.00716 
L 725.572436 181.717059 
L 732.472591 186.038412 
L 739.372746 186.737924 
L 746.272901 183.618065 
L 753.173056 179.889018 
L 760.073212 176.499675 
L 766.973367 173.140031 
L 773.873522 170.032979 
L 780.773677 167.353128 
L 787.673832 165.111362 
L 794.573987 163.225063 
L 801.474142 161.666965 
L 808.374297 160.38833 
L 815.274452 159.296359 
" clip-path="url(#pcadca5e02e)" style="fill: none; stroke: #008000; stroke-width: 1.2; stroke-linecap: square"/>
   </g>
   <g id="line2d_57">
    <path d="M 460.261473 154.625989 
L 832.179832 154.625989 
" clip-path="url(#pcadca5e02e)" style="fill: none; stroke-dasharray: 5.55,2.4; stroke-dashoffset: 0; stroke: #ff0000; stroke-width: 1.5"/>
   </g>
   <g id="patch_8">
    <path d="M 460.261473 306.497812 
L 460.261473 23.837812 
" style="fill: none; stroke: #ffffff; stroke-linejoin: miter; stroke-linecap: square"/>
   </g>
   <g id="patch_9">
    <path d="M 832.179832 306.497812 
L 832.179832 23.837812 
" style="fill: none; stroke: #ffffff; stroke-linejoin: miter; stroke-linecap: square"/>
   </g>
   <g id="patch_10">
    <path d="M 460.261473 306.497812 
L 832.179832 306.497812 
" style="fill: none; stroke: #ffffff; stroke-linejoin: miter; stroke-linecap: square"/>
   </g>
   <g id="patch_11">
    <path d="M 460.261473 23.837812 
L 832.179832 23.837812 
" style="fill: none; stroke: #ffffff; stroke-linejoin: miter; stroke-linecap: square"/>
   </g>
   <g id="text_29">
    <!-- Pairwise Distance Density Hampshire -->
    <g transform="translate(515.815028 17.837812) scale(0.14 -0.14)">
     <defs>
      <path id="DejaVuSans-48" d="M 628 4666 
L 1259 4666 
L 1259 2753 
L 3553 2753 
L 3553 4666 
L 4184 4666 
L 4184 0 
L 3553 0 
L 3553 2222 
L 1259 2222 
L 1259 0 
L 628 0 
L 628 4666 
z
" transform="scale(0.015625)"/>
      <path id="DejaVuSans-6d" d="M 3328 2828 
Q 3544 3216 3844 3400 
Q 4144 3584 4550 3584 
Q 5097 3584 5394 3201 
Q 5691 2819 5691 2113 
L 5691 0 
L 5113 0 
L 5113 2094 
Q 5113 2597 4934 2840 
Q 4756 3084 4391 3084 
Q 3944 3084 3684 2787 
Q 3425 2491 3425 1978 
L 3425 0 
L 2847 0 
L 2847 2094 
Q 2847 2600 2669 2842 
Q 2491 3084 2119 3084 
Q 1678 3084 1418 2786 
Q 1159 2488 1159 1978 
L 1159 0 
L 581 0 
L 581 3500 
L 1159 3500 
L 1159 2956 
Q 1356 3278 1631 3431 
Q 1906 3584 2284 3584 
Q 2666 3584 2933 3390 
Q 3200 3197 3328 2828 
z
" transform="scale(0.015625)"/>
      <path id="DejaVuSans-70" d="M 1159 525 
L 1159 -1331 
L 581 -1331 
L 581 3500 
L 1159 3500 
L 1159 2969 
Q 1341 3281 1617 3432 
Q 1894 3584 2278 3584 
Q 2916 3584 3314 3078 
Q 3713 2572 3713 1747 
Q 3713 922 3314 415 
Q 2916 -91 2278 -91 
Q 1894 -91 1617 61 
Q 1341 213 1159 525 
z
M 3116 1747 
Q 3116 2381 2855 2742 
Q 2594 3103 2138 3103 
Q 1681 3103 1420 2742 
Q 1159 2381 1159 1747 
Q 1159 1113 1420 752 
Q 1681 391 2138 391 
Q 2594 391 2855 752 
Q 3116 1113 3116 1747 
z
" transform="scale(0.015625)"/>
      <path id="DejaVuSans-68" d="M 3513 2113 
L 3513 0 
L 2938 0 
L 2938 2094 
Q 2938 2591 2744 2837 
Q 2550 3084 2163 3084 
Q 1697 3084 1428 2787 
Q 1159 2491 1159 1978 
L 1159 0 
L 581 0 
L 581 4863 
L 1159 4863 
L 1159 2956 
Q 1366 3272 1645 3428 
Q 1925 3584 2291 3584 
Q 2894 3584 3203 3211 
Q 3513 2838 3513 2113 
z
" transform="scale(0.015625)"/>
     </defs>
     <use xlink:href="#DejaVuSans-50"/>
     <use xlink:href="#DejaVuSans-61" transform="translate(55.802734 0)"/>
     <use xlink:href="#DejaVuSans-69" transform="translate(117.082031 0)"/>
     <use xlink:href="#DejaVuSans-72" transform="translate(144.865234 0)"/>
     <use xlink:href="#DejaVuSans-77" transform="translate(185.978516 0)"/>
     <use xlink:href="#DejaVuSans-69" transform="translate(267.765625 0)"/>
     <use xlink:href="#DejaVuSans-73" transform="translate(295.548828 0)"/>
     <use xlink:href="#DejaVuSans-65" transform="translate(347.648438 0)"/>
     <use xlink:href="#DejaVuSans-20" transform="translate(409.171875 0)"/>
     <use xlink:href="#DejaVuSans-44" transform="translate(440.958984 0)"/>
     <use xlink:href="#DejaVuSans-69" transform="translate(517.960938 0)"/>
     <use xlink:href="#DejaVuSans-73" transform="translate(545.744141 0)"/>
     <use xlink:href="#DejaVuSans-74" transform="translate(597.84375 0)"/>
     <use xlink:href="#DejaVuSans-61" transform="translate(637.052734 0)"/>
     <use xlink:href="#DejaVuSans-6e" transform="translate(698.332031 0)"/>
     <use xlink:href="#DejaVuSans-63" transform="translate(761.710938 0)"/>
     <use xlink:href="#DejaVuSans-65" transform="translate(816.691406 0)"/>
     <use xlink:href="#DejaVuSans-20" transform="translate(878.214844 0)"/>
     <use xlink:href="#DejaVuSans-44" transform="translate(910.001953 0)"/>
     <use xlink:href="#DejaVuSans-65" transform="translate(987.003906 0)"/>
     <use xlink:href="#DejaVuSans-6e" transform="translate(1048.527344 0)"/>
     <use xlink:href="#DejaVuSans-73" transform="translate(1111.90625 0)"/>
     <use xlink:href="#DejaVuSans-69" transform="translate(1164.005859 0)"/>
     <use xlink:href="#DejaVuSans-74" transform="translate(1191.789062 0)"/>
     <use xlink:href="#DejaVuSans-79" transform="translate(1230.998047 0)"/>
     <use xlink:href="#DejaVuSans-20" transform="translate(1290.177734 0)"/>
     <use xlink:href="#DejaVuSans-48" transform="translate(1321.964844 0)"/>
     <use xlink:href="#DejaVuSans-61" transform="translate(1397.160156 0)"/>
     <use xlink:href="#DejaVuSans-6d" transform="translate(1458.439453 0)"/>
     <use xlink:href="#DejaVuSans-70" transform="translate(1555.851562 0)"/>
     <use xlink:href="#DejaVuSans-73" transform="translate(1619.328125 0)"/>
     <use xlink:href="#DejaVuSans-68" transform="translate(1671.427734 0)"/>
     <use xlink:href="#DejaVuSans-69" transform="translate(1734.806641 0)"/>
     <use xlink:href="#DejaVuSans-72" transform="translate(1762.589844 0)"/>
     <use xlink:href="#DejaVuSans-65" transform="translate(1801.453125 0)"/>
    </g>
   </g>
   <g id="legend_2">
    <g id="line2d_58">
     <path d="M 690.268895 36.93625 
L 700.268895 36.93625 
L 710.268895 36.93625 
" style="fill: none; stroke: #008000; stroke-width: 1.2; stroke-linecap: square"/>
    </g>
    <g id="text_30">
     <!-- Diff Array Hampshire -->
     <g transform="translate(718.268895 40.43625) scale(0.1 -0.1)">
      <use xlink:href="#DejaVuSans-44"/>
      <use xlink:href="#DejaVuSans-69" transform="translate(77.001953 0)"/>
      <use xlink:href="#DejaVuSans-66" transform="translate(104.785156 0)"/>
      <use xlink:href="#DejaVuSans-66" transform="translate(139.990234 0)"/>
      <use xlink:href="#DejaVuSans-20" transform="translate(175.195312 0)"/>
      <use xlink:href="#DejaVuSans-41" transform="translate(206.982422 0)"/>
      <use xlink:href="#DejaVuSans-72" transform="translate(275.390625 0)"/>
      <use xlink:href="#DejaVuSans-72" transform="translate(314.753906 0)"/>
      <use xlink:href="#DejaVuSans-61" transform="translate(355.867188 0)"/>
      <use xlink:href="#DejaVuSans-79" transform="translate(417.146484 0)"/>
      <use xlink:href="#DejaVuSans-20" transform="translate(476.326172 0)"/>
      <use xlink:href="#DejaVuSans-48" transform="translate(508.113281 0)"/>
      <use xlink:href="#DejaVuSans-61" transform="translate(583.308594 0)"/>
      <use xlink:href="#DejaVuSans-6d" transform="translate(644.587891 0)"/>
      <use xlink:href="#DejaVuSans-70" transform="translate(742 0)"/>
      <use xlink:href="#DejaVuSans-73" transform="translate(805.476562 0)"/>
      <use xlink:href="#DejaVuSans-68" transform="translate(857.576172 0)"/>
      <use xlink:href="#DejaVuSans-69" transform="translate(920.955078 0)"/>
      <use xlink:href="#DejaVuSans-72" transform="translate(948.738281 0)"/>
      <use xlink:href="#DejaVuSans-65" transform="translate(987.601562 0)"/>
     </g>
    </g>
   </g>
  </g>
 </g>
 <defs>
  <clipPath id="pa610dd4d94">
   <rect x="44.086875" y="23.837812" width="371.918359" height="282.66"/>
  </clipPath>
  <clipPath id="pcadca5e02e">
   <rect x="460.261473" y="23.837812" width="371.918359" height="282.66"/>
  </clipPath>
 </defs>
</svg>
