<?xml version="1.0" encoding="utf-8" standalone="no"?>
<!DOCTYPE svg PUBLIC "-//W3C//DTD SVG 1.1//EN"
  "http://www.w3.org/Graphics/SVG/1.1/DTD/svg11.dtd">
<svg xmlns:xlink="http://www.w3.org/1999/xlink" width="705.6455pt" height="560.6905pt" viewBox="0 0 705.6455 560.6905" xmlns="http://www.w3.org/2000/svg" version="1.1">
 <metadata>
  <rdf:RDF xmlns:dc="http://purl.org/dc/elements/1.1/" xmlns:cc="http://creativecommons.org/ns#" xmlns:rdf="http://www.w3.org/1999/02/22-rdf-syntax-ns#">
   <cc:Work>
    <dc:type rdf:resource="http://purl.org/dc/dcmitype/StillImage"/>
    <dc:date>2025-04-23T16:20:18.750836</dc:date>
    <dc:format>image/svg+xml</dc:format>
    <dc:creator>
     <cc:Agent>
      <dc:title>Matplotlib v3.10.1, https://matplotlib.org/</dc:title>
     </cc:Agent>
    </dc:creator>
   </cc:Work>
  </rdf:RDF>
 </metadata>
 <defs>
  <style type="text/css">*{stroke-linejoin: round; stroke-linecap: butt}</style>
 </defs>
 <g id="figure_1">
  <g id="patch_1">
   <path d="M -0 560.6905 
L 705.6455 560.6905 
L 705.6455 0 
L -0 0 
z
" style="fill: #ffffff"/>
  </g>
  <g id="axes_1">
   <g id="patch_2">
    <path d="M 44.086875 245.97 
L 696.508963 245.97 
L 696.508963 23.84 
L 44.086875 23.84 
z
" style="fill: #e5e5e5"/>
   </g>
   <g id="matplotlib.axis_1">
    <g id="xtick_1">
     <g id="line2d_1">
      <path d="M 73.742424 245.97 
L 73.742424 23.84 
" clip-path="url(#pe2cb02df4a)" style="fill: none; stroke: #ffffff; stroke-width: 0.8; stroke-linecap: square"/>
     </g>
     <g id="line2d_2">
      <defs>
       <path id="m67e3066e9f" d="M 0 0 
L 0 4.8 
" style="stroke: #555555"/>
      </defs>
      <g>
       <use xlink:href="#m67e3066e9f" x="73.742424" y="245.97" style="fill: #555555; stroke: #555555"/>
      </g>
     </g>
    </g>
    <g id="xtick_2">
     <g id="line2d_3">
      <path d="M 175.760208 245.97 
L 175.760208 23.84 
" clip-path="url(#pe2cb02df4a)" style="fill: none; stroke: #ffffff; stroke-width: 0.8; stroke-linecap: square"/>
     </g>
     <g id="line2d_4">
      <g>
       <use xlink:href="#m67e3066e9f" x="175.760208" y="245.97" style="fill: #555555; stroke: #555555"/>
      </g>
     </g>
    </g>
    <g id="xtick_3">
     <g id="line2d_5">
      <path d="M 277.777991 245.97 
L 277.777991 23.84 
" clip-path="url(#pe2cb02df4a)" style="fill: none; stroke: #ffffff; stroke-width: 0.8; stroke-linecap: square"/>
     </g>
     <g id="line2d_6">
      <g>
       <use xlink:href="#m67e3066e9f" x="277.777991" y="245.97" style="fill: #555555; stroke: #555555"/>
      </g>
     </g>
    </g>
    <g id="xtick_4">
     <g id="line2d_7">
      <path d="M 379.795775 245.97 
L 379.795775 23.84 
" clip-path="url(#pe2cb02df4a)" style="fill: none; stroke: #ffffff; stroke-width: 0.8; stroke-linecap: square"/>
     </g>
     <g id="line2d_8">
      <g>
       <use xlink:href="#m67e3066e9f" x="379.795775" y="245.97" style="fill: #555555; stroke: #555555"/>
      </g>
     </g>
    </g>
    <g id="xtick_5">
     <g id="line2d_9">
      <path d="M 481.813558 245.97 
L 481.813558 23.84 
" clip-path="url(#pe2cb02df4a)" style="fill: none; stroke: #ffffff; stroke-width: 0.8; stroke-linecap: square"/>
     </g>
     <g id="line2d_10">
      <g>
       <use xlink:href="#m67e3066e9f" x="481.813558" y="245.97" style="fill: #555555; stroke: #555555"/>
      </g>
     </g>
    </g>
    <g id="xtick_6">
     <g id="line2d_11">
      <path d="M 583.831342 245.97 
L 583.831342 23.84 
" clip-path="url(#pe2cb02df4a)" style="fill: none; stroke: #ffffff; stroke-width: 0.8; stroke-linecap: square"/>
     </g>
     <g id="line2d_12">
      <g>
       <use xlink:href="#m67e3066e9f" x="583.831342" y="245.97" style="fill: #555555; stroke: #555555"/>
      </g>
     </g>
    </g>
    <g id="xtick_7">
     <g id="line2d_13">
      <path d="M 685.849125 245.97 
L 685.849125 23.84 
" clip-path="url(#pe2cb02df4a)" style="fill: none; stroke: #ffffff; stroke-width: 0.8; stroke-linecap: square"/>
     </g>
     <g id="line2d_14">
      <g>
       <use xlink:href="#m67e3066e9f" x="685.849125" y="245.97" style="fill: #555555; stroke: #555555"/>
      </g>
     </g>
    </g>
    <g id="text_1">
     <!-- Distance (km) -->
     <g style="fill: #555555" transform="translate(328.155419 263.888125) scale(0.12 -0.12)">
      <defs>
       <path id="DejaVuSans-44" d="M 1259 4147 
L 1259 519 
L 2022 519 
Q 2988 519 3436 956 
Q 3884 1394 3884 2338 
Q 3884 3275 3436 3711 
Q 2988 4147 2022 4147 
L 1259 4147 
z
M 628 4666 
L 1925 4666 
Q 3281 4666 3915 4102 
Q 4550 3538 4550 2338 
Q 4550 1131 3912 565 
Q 3275 0 1925 0 
L 628 0 
L 628 4666 
z
" transform="scale(0.015625)"/>
       <path id="DejaVuSans-69" d="M 603 3500 
L 1178 3500 
L 1178 0 
L 603 0 
L 603 3500 
z
M 603 4863 
L 1178 4863 
L 1178 4134 
L 603 4134 
L 603 4863 
z
" transform="scale(0.015625)"/>
       <path id="DejaVuSans-73" d="M 2834 3397 
L 2834 2853 
Q 2591 2978 2328 3040 
Q 2066 3103 1784 3103 
Q 1356 3103 1142 2972 
Q 928 2841 928 2578 
Q 928 2378 1081 2264 
Q 1234 2150 1697 2047 
L 1894 2003 
Q 2506 1872 2764 1633 
Q 3022 1394 3022 966 
Q 3022 478 2636 193 
Q 2250 -91 1575 -91 
Q 1294 -91 989 -36 
Q 684 19 347 128 
L 347 722 
Q 666 556 975 473 
Q 1284 391 1588 391 
Q 1994 391 2212 530 
Q 2431 669 2431 922 
Q 2431 1156 2273 1281 
Q 2116 1406 1581 1522 
L 1381 1569 
Q 847 1681 609 1914 
Q 372 2147 372 2553 
Q 372 3047 722 3315 
Q 1072 3584 1716 3584 
Q 2034 3584 2315 3537 
Q 2597 3491 2834 3397 
z
" transform="scale(0.015625)"/>
       <path id="DejaVuSans-74" d="M 1172 4494 
L 1172 3500 
L 2356 3500 
L 2356 3053 
L 1172 3053 
L 1172 1153 
Q 1172 725 1289 603 
Q 1406 481 1766 481 
L 2356 481 
L 2356 0 
L 1766 0 
Q 1100 0 847 248 
Q 594 497 594 1153 
L 594 3053 
L 172 3053 
L 172 3500 
L 594 3500 
L 594 4494 
L 1172 4494 
z
" transform="scale(0.015625)"/>
       <path id="DejaVuSans-61" d="M 2194 1759 
Q 1497 1759 1228 1600 
Q 959 1441 959 1056 
Q 959 750 1161 570 
Q 1363 391 1709 391 
Q 2188 391 2477 730 
Q 2766 1069 2766 1631 
L 2766 1759 
L 2194 1759 
z
M 3341 1997 
L 3341 0 
L 2766 0 
L 2766 531 
Q 2569 213 2275 61 
Q 1981 -91 1556 -91 
Q 1019 -91 701 211 
Q 384 513 384 1019 
Q 384 1609 779 1909 
Q 1175 2209 1959 2209 
L 2766 2209 
L 2766 2266 
Q 2766 2663 2505 2880 
Q 2244 3097 1772 3097 
Q 1472 3097 1187 3025 
Q 903 2953 641 2809 
L 641 3341 
Q 956 3463 1253 3523 
Q 1550 3584 1831 3584 
Q 2591 3584 2966 3190 
Q 3341 2797 3341 1997 
z
" transform="scale(0.015625)"/>
       <path id="DejaVuSans-6e" d="M 3513 2113 
L 3513 0 
L 2938 0 
L 2938 2094 
Q 2938 2591 2744 2837 
Q 2550 3084 2163 3084 
Q 1697 3084 1428 2787 
Q 1159 2491 1159 1978 
L 1159 0 
L 581 0 
L 581 3500 
L 1159 3500 
L 1159 2956 
Q 1366 3272 1645 3428 
Q 1925 3584 2291 3584 
Q 2894 3584 3203 3211 
Q 3513 2838 3513 2113 
z
" transform="scale(0.015625)"/>
       <path id="DejaVuSans-63" d="M 3122 3366 
L 3122 2828 
Q 2878 2963 2633 3030 
Q 2388 3097 2138 3097 
Q 1578 3097 1268 2742 
Q 959 2388 959 1747 
Q 959 1106 1268 751 
Q 1578 397 2138 397 
Q 2388 397 2633 464 
Q 2878 531 3122 666 
L 3122 134 
Q 2881 22 2623 -34 
Q 2366 -91 2075 -91 
Q 1284 -91 818 406 
Q 353 903 353 1747 
Q 353 2603 823 3093 
Q 1294 3584 2113 3584 
Q 2378 3584 2631 3529 
Q 2884 3475 3122 3366 
z
" transform="scale(0.015625)"/>
       <path id="DejaVuSans-65" d="M 3597 1894 
L 3597 1613 
L 953 1613 
Q 991 1019 1311 708 
Q 1631 397 2203 397 
Q 2534 397 2845 478 
Q 3156 559 3463 722 
L 3463 178 
Q 3153 47 2828 -22 
Q 2503 -91 2169 -91 
Q 1331 -91 842 396 
Q 353 884 353 1716 
Q 353 2575 817 3079 
Q 1281 3584 2069 3584 
Q 2775 3584 3186 3129 
Q 3597 2675 3597 1894 
z
M 3022 2063 
Q 3016 2534 2758 2815 
Q 2500 3097 2075 3097 
Q 1594 3097 1305 2825 
Q 1016 2553 972 2059 
L 3022 2063 
z
" transform="scale(0.015625)"/>
       <path id="DejaVuSans-20" transform="scale(0.015625)"/>
       <path id="DejaVuSans-28" d="M 1984 4856 
Q 1566 4138 1362 3434 
Q 1159 2731 1159 2009 
Q 1159 1288 1364 580 
Q 1569 -128 1984 -844 
L 1484 -844 
Q 1016 -109 783 600 
Q 550 1309 550 2009 
Q 550 2706 781 3412 
Q 1013 4119 1484 4856 
L 1984 4856 
z
" transform="scale(0.015625)"/>
       <path id="DejaVuSans-6b" d="M 581 4863 
L 1159 4863 
L 1159 1991 
L 2875 3500 
L 3609 3500 
L 1753 1863 
L 3688 0 
L 2938 0 
L 1159 1709 
L 1159 0 
L 581 0 
L 581 4863 
z
" transform="scale(0.015625)"/>
       <path id="DejaVuSans-6d" d="M 3328 2828 
Q 3544 3216 3844 3400 
Q 4144 3584 4550 3584 
Q 5097 3584 5394 3201 
Q 5691 2819 5691 2113 
L 5691 0 
L 5113 0 
L 5113 2094 
Q 5113 2597 4934 2840 
Q 4756 3084 4391 3084 
Q 3944 3084 3684 2787 
Q 3425 2491 3425 1978 
L 3425 0 
L 2847 0 
L 2847 2094 
Q 2847 2600 2669 2842 
Q 2491 3084 2119 3084 
Q 1678 3084 1418 2786 
Q 1159 2488 1159 1978 
L 1159 0 
L 581 0 
L 581 3500 
L 1159 3500 
L 1159 2956 
Q 1356 3278 1631 3431 
Q 1906 3584 2284 3584 
Q 2666 3584 2933 3390 
Q 3200 3197 3328 2828 
z
" transform="scale(0.015625)"/>
       <path id="DejaVuSans-29" d="M 513 4856 
L 1013 4856 
Q 1481 4119 1714 3412 
Q 1947 2706 1947 2009 
Q 1947 1309 1714 600 
Q 1481 -109 1013 -844 
L 513 -844 
Q 928 -128 1133 580 
Q 1338 1288 1338 2009 
Q 1338 2731 1133 3434 
Q 928 4138 513 4856 
z
" transform="scale(0.015625)"/>
      </defs>
      <use xlink:href="#DejaVuSans-44"/>
      <use xlink:href="#DejaVuSans-69" transform="translate(77.001953 0)"/>
      <use xlink:href="#DejaVuSans-73" transform="translate(104.785156 0)"/>
      <use xlink:href="#DejaVuSans-74" transform="translate(156.884766 0)"/>
      <use xlink:href="#DejaVuSans-61" transform="translate(196.09375 0)"/>
      <use xlink:href="#DejaVuSans-6e" transform="translate(257.373047 0)"/>
      <use xlink:href="#DejaVuSans-63" transform="translate(320.751953 0)"/>
      <use xlink:href="#DejaVuSans-65" transform="translate(375.732422 0)"/>
      <use xlink:href="#DejaVuSans-20" transform="translate(437.255859 0)"/>
      <use xlink:href="#DejaVuSans-28" transform="translate(469.042969 0)"/>
      <use xlink:href="#DejaVuSans-6b" transform="translate(508.056641 0)"/>
      <use xlink:href="#DejaVuSans-6d" transform="translate(565.966797 0)"/>
      <use xlink:href="#DejaVuSans-29" transform="translate(663.378906 0)"/>
     </g>
    </g>
   </g>
   <g id="matplotlib.axis_2">
    <g id="ytick_1">
     <g id="line2d_15">
      <path d="M 44.086875 210.426787 
L 696.508963 210.426787 
" clip-path="url(#pe2cb02df4a)" style="fill: none; stroke: #ffffff; stroke-width: 0.8; stroke-linecap: square"/>
     </g>
     <g id="line2d_16">
      <defs>
       <path id="m6bea72bfe9" d="M 0 0 
L -4.8 0 
" style="stroke: #555555"/>
      </defs>
      <g>
       <use xlink:href="#m6bea72bfe9" x="44.086875" y="210.426787" style="fill: #555555; stroke: #555555"/>
      </g>
     </g>
     <g id="text_2">
      <!-- −4 -->
      <g style="fill: #555555" transform="translate(22.81375 213.770099) scale(0.088 -0.088)">
       <defs>
        <path id="DejaVuSans-2212" d="M 678 2272 
L 4684 2272 
L 4684 1741 
L 678 1741 
L 678 2272 
z
" transform="scale(0.015625)"/>
        <path id="DejaVuSans-34" d="M 2419 4116 
L 825 1625 
L 2419 1625 
L 2419 4116 
z
M 2253 4666 
L 3047 4666 
L 3047 1625 
L 3713 1625 
L 3713 1100 
L 3047 1100 
L 3047 0 
L 2419 0 
L 2419 1100 
L 313 1100 
L 313 1709 
L 2253 4666 
z
" transform="scale(0.015625)"/>
       </defs>
       <use xlink:href="#DejaVuSans-2212"/>
       <use xlink:href="#DejaVuSans-34" transform="translate(83.789062 0)"/>
      </g>
     </g>
    </g>
    <g id="ytick_2">
     <g id="line2d_17">
      <path d="M 44.086875 167.2856 
L 696.508963 167.2856 
" clip-path="url(#pe2cb02df4a)" style="fill: none; stroke: #ffffff; stroke-width: 0.8; stroke-linecap: square"/>
     </g>
     <g id="line2d_18">
      <g>
       <use xlink:href="#m6bea72bfe9" x="44.086875" y="167.2856" style="fill: #555555; stroke: #555555"/>
      </g>
     </g>
     <g id="text_3">
      <!-- −2 -->
      <g style="fill: #555555" transform="translate(22.81375 170.628913) scale(0.088 -0.088)">
       <defs>
        <path id="DejaVuSans-32" d="M 1228 531 
L 3431 531 
L 3431 0 
L 469 0 
L 469 531 
Q 828 903 1448 1529 
Q 2069 2156 2228 2338 
Q 2531 2678 2651 2914 
Q 2772 3150 2772 3378 
Q 2772 3750 2511 3984 
Q 2250 4219 1831 4219 
Q 1534 4219 1204 4116 
Q 875 4013 500 3803 
L 500 4441 
Q 881 4594 1212 4672 
Q 1544 4750 1819 4750 
Q 2544 4750 2975 4387 
Q 3406 4025 3406 3419 
Q 3406 3131 3298 2873 
Q 3191 2616 2906 2266 
Q 2828 2175 2409 1742 
Q 1991 1309 1228 531 
z
" transform="scale(0.015625)"/>
       </defs>
       <use xlink:href="#DejaVuSans-2212"/>
       <use xlink:href="#DejaVuSans-32" transform="translate(83.789062 0)"/>
      </g>
     </g>
    </g>
    <g id="ytick_3">
     <g id="line2d_19">
      <path d="M 44.086875 124.144414 
L 696.508963 124.144414 
" clip-path="url(#pe2cb02df4a)" style="fill: none; stroke: #ffffff; stroke-width: 0.8; stroke-linecap: square"/>
     </g>
     <g id="line2d_20">
      <g>
       <use xlink:href="#m6bea72bfe9" x="44.086875" y="124.144414" style="fill: #555555; stroke: #555555"/>
      </g>
     </g>
     <g id="text_4">
      <!-- 0 -->
      <g style="fill: #555555" transform="translate(30.187875 127.487726) scale(0.088 -0.088)">
       <defs>
        <path id="DejaVuSans-30" d="M 2034 4250 
Q 1547 4250 1301 3770 
Q 1056 3291 1056 2328 
Q 1056 1369 1301 889 
Q 1547 409 2034 409 
Q 2525 409 2770 889 
Q 3016 1369 3016 2328 
Q 3016 3291 2770 3770 
Q 2525 4250 2034 4250 
z
M 2034 4750 
Q 2819 4750 3233 4129 
Q 3647 3509 3647 2328 
Q 3647 1150 3233 529 
Q 2819 -91 2034 -91 
Q 1250 -91 836 529 
Q 422 1150 422 2328 
Q 422 3509 836 4129 
Q 1250 4750 2034 4750 
z
" transform="scale(0.015625)"/>
       </defs>
       <use xlink:href="#DejaVuSans-30"/>
      </g>
     </g>
    </g>
    <g id="ytick_4">
     <g id="line2d_21">
      <path d="M 44.086875 81.003227 
L 696.508963 81.003227 
" clip-path="url(#pe2cb02df4a)" style="fill: none; stroke: #ffffff; stroke-width: 0.8; stroke-linecap: square"/>
     </g>
     <g id="line2d_22">
      <g>
       <use xlink:href="#m6bea72bfe9" x="44.086875" y="81.003227" style="fill: #555555; stroke: #555555"/>
      </g>
     </g>
     <g id="text_5">
      <!-- 2 -->
      <g style="fill: #555555" transform="translate(30.187875 84.34654) scale(0.088 -0.088)">
       <use xlink:href="#DejaVuSans-32"/>
      </g>
     </g>
    </g>
    <g id="ytick_5">
     <g id="line2d_23">
      <path d="M 44.086875 37.86204 
L 696.508963 37.86204 
" clip-path="url(#pe2cb02df4a)" style="fill: none; stroke: #ffffff; stroke-width: 0.8; stroke-linecap: square"/>
     </g>
     <g id="line2d_24">
      <g>
       <use xlink:href="#m6bea72bfe9" x="44.086875" y="37.86204" style="fill: #555555; stroke: #555555"/>
      </g>
     </g>
     <g id="text_6">
      <!-- 4 -->
      <g style="fill: #555555" transform="translate(30.187875 41.205353) scale(0.088 -0.088)">
       <use xlink:href="#DejaVuSans-34"/>
      </g>
     </g>
    </g>
    <g id="text_7">
     <!-- Density -->
     <g style="fill: #555555" transform="translate(16.318125 157.715313) rotate(-90) scale(0.12 -0.12)">
      <defs>
       <path id="DejaVuSans-79" d="M 2059 -325 
Q 1816 -950 1584 -1140 
Q 1353 -1331 966 -1331 
L 506 -1331 
L 506 -850 
L 844 -850 
Q 1081 -850 1212 -737 
Q 1344 -625 1503 -206 
L 1606 56 
L 191 3500 
L 800 3500 
L 1894 763 
L 2988 3500 
L 3597 3500 
L 2059 -325 
z
" transform="scale(0.015625)"/>
      </defs>
      <use xlink:href="#DejaVuSans-44"/>
      <use xlink:href="#DejaVuSans-65" transform="translate(77.001953 0)"/>
      <use xlink:href="#DejaVuSans-6e" transform="translate(138.525391 0)"/>
      <use xlink:href="#DejaVuSans-73" transform="translate(201.904297 0)"/>
      <use xlink:href="#DejaVuSans-69" transform="translate(254.003906 0)"/>
      <use xlink:href="#DejaVuSans-74" transform="translate(281.787109 0)"/>
      <use xlink:href="#DejaVuSans-79" transform="translate(320.996094 0)"/>
     </g>
    </g>
    <g id="text_8">
     <!-- 1e−6 -->
     <g style="fill: #555555" transform="translate(44.086875 20.84) scale(0.088 -0.088)">
      <defs>
       <path id="DejaVuSans-31" d="M 794 531 
L 1825 531 
L 1825 4091 
L 703 3866 
L 703 4441 
L 1819 4666 
L 2450 4666 
L 2450 531 
L 3481 531 
L 3481 0 
L 794 0 
L 794 531 
z
" transform="scale(0.015625)"/>
       <path id="DejaVuSans-36" d="M 2113 2584 
Q 1688 2584 1439 2293 
Q 1191 2003 1191 1497 
Q 1191 994 1439 701 
Q 1688 409 2113 409 
Q 2538 409 2786 701 
Q 3034 994 3034 1497 
Q 3034 2003 2786 2293 
Q 2538 2584 2113 2584 
z
M 3366 4563 
L 3366 3988 
Q 3128 4100 2886 4159 
Q 2644 4219 2406 4219 
Q 1781 4219 1451 3797 
Q 1122 3375 1075 2522 
Q 1259 2794 1537 2939 
Q 1816 3084 2150 3084 
Q 2853 3084 3261 2657 
Q 3669 2231 3669 1497 
Q 3669 778 3244 343 
Q 2819 -91 2113 -91 
Q 1303 -91 875 529 
Q 447 1150 447 2328 
Q 447 3434 972 4092 
Q 1497 4750 2381 4750 
Q 2619 4750 2861 4703 
Q 3103 4656 3366 4563 
z
" transform="scale(0.015625)"/>
      </defs>
      <use xlink:href="#DejaVuSans-31"/>
      <use xlink:href="#DejaVuSans-65" transform="translate(63.623047 0)"/>
      <use xlink:href="#DejaVuSans-2212" transform="translate(125.146484 0)"/>
      <use xlink:href="#DejaVuSans-36" transform="translate(208.935547 0)"/>
     </g>
    </g>
   </g>
   <g id="FillBetweenPolyCollection_1">
    <defs>
     <path id="m6c7e131745" d="M 73.742424 -474.6827 
L 73.742424 -457.288294 
L 85.824974 -463.253206 
L 97.907523 -433.403737 
L 109.990072 -400.70934 
L 122.072621 -358.631731 
L 134.15517 -330.972961 
L 146.237719 -346.216229 
L 158.320268 -349.986464 
L 170.402817 -330.997744 
L 182.485366 -335.998448 
L 194.567915 -337.105997 
L 206.650464 -332.623416 
L 218.733013 -324.817318 
L 230.815562 -333.585427 
L 242.898111 -370.959527 
L 254.98066 -426.135908 
L 267.063209 -456.81623 
L 279.145758 -453.476877 
L 291.228307 -445.610131 
L 303.310856 -443.710997 
L 315.393405 -435.343253 
L 327.475954 -423.707746 
L 339.558504 -424.982104 
L 351.641053 -425.024269 
L 363.723602 -424.597982 
L 375.806151 -425.124474 
L 387.8887 -425.212659 
L 399.971249 -419.891547 
L 412.053798 -415.471168 
L 424.136347 -419.618567 
L 436.218896 -426.872438 
L 448.301445 -430.784033 
L 460.383994 -432.053462 
L 472.466543 -431.951832 
L 484.549092 -427.968354 
L 496.631641 -421.340554 
L 508.71419 -416.697481 
L 520.796739 -415.559494 
L 532.879288 -415.767744 
L 544.961837 -417.692548 
L 557.044386 -420.671723 
L 569.126935 -423.213557 
L 581.209485 -425.734425 
L 593.292034 -427.757249 
L 605.374583 -429.427625 
L 617.457132 -430.77957 
L 629.539681 -431.735946 
L 641.62223 -432.449307 
L 653.704779 -433.496818 
L 665.787328 -434.061073 
L 665.787328 -436.440293 
L 665.787328 -436.440293 
L 653.704779 -436.369432 
L 641.62223 -436.229936 
L 629.539681 -435.985534 
L 617.457132 -435.630364 
L 605.374583 -435.274581 
L 593.292034 -434.754155 
L 581.209485 -434.032115 
L 569.126935 -433.109891 
L 557.044386 -431.778331 
L 544.961837 -430.491747 
L 532.879288 -430.597775 
L 520.796739 -433.44832 
L 508.71419 -439.241002 
L 496.631641 -447.435481 
L 484.549092 -458.647254 
L 472.466543 -467.066137 
L 460.383994 -471.529935 
L 448.301445 -472.629548 
L 436.218896 -473.444865 
L 424.136347 -470.67101 
L 412.053798 -469.244816 
L 399.971249 -477.018964 
L 387.8887 -485.210425 
L 375.806151 -491.036961 
L 363.723602 -491.25366 
L 351.641053 -492.788851 
L 339.558504 -497.038914 
L 327.475954 -495.237983 
L 315.393405 -507.539353 
L 303.310856 -516.338843 
L 291.228307 -517.507082 
L 279.145758 -522.534459 
L 267.063209 -526.753682 
L 254.98066 -491.645907 
L 242.898111 -435.867318 
L 230.815562 -401.463278 
L 218.733013 -402.686312 
L 206.650464 -419.103795 
L 194.567915 -441.504641 
L 182.485366 -446.457732 
L 170.402817 -449.321883 
L 158.320268 -471.256651 
L 146.237719 -468.138737 
L 134.15517 -455.913424 
L 122.072621 -471.52084 
L 109.990072 -488.440216 
L 97.907523 -503.284183 
L 85.824974 -506.655634 
L 73.742424 -474.6827 
z
" style="stroke: #0000ff; stroke-opacity: 0.2; stroke-width: 0.8"/>
    </defs>
    <g clip-path="url(#pe2cb02df4a)">
     <use xlink:href="#m6c7e131745" x="0" y="560.6905" style="fill: #0000ff; fill-opacity: 0.2; stroke: #0000ff; stroke-opacity: 0.2; stroke-width: 0.8"/>
    </g>
   </g>
   <g id="line2d_25">
    <path d="M 73.742424 95.158441 
L 85.824974 75.536538 
L 97.907523 92.806724 
L 109.990072 119.154102 
L 122.072621 147.233476 
L 134.15517 168.05504 
L 146.237719 154.953716 
L 158.320268 150.792437 
L 170.402817 169.845075 
L 182.485366 169.881579 
L 194.567915 172.698746 
L 206.650464 186.865744 
L 218.733013 198.788622 
L 230.815562 193.19675 
L 242.898111 156.985281 
L 254.98066 102.741338 
L 267.063209 70.354875 
L 279.145758 72.32409 
L 291.228307 76.418129 
L 303.310856 78.677876 
L 315.393405 89.536436 
L 327.475954 100.82072 
L 339.558504 100.43565 
L 351.641053 100.734084 
L 363.723602 101.917241 
L 375.806151 102.248069 
L 387.8887 105.485471 
L 399.971249 113.862651 
L 412.053798 119.080963 
L 424.136347 116.163303 
L 436.218896 111.1219 
L 448.301445 108.768492 
L 460.383994 108.284551 
L 472.466543 110.135142 
L 484.549092 116.857498 
L 496.631641 125.210845 
L 508.71419 132.287217 
L 520.796739 135.985263 
L 532.879288 137.099673 
L 544.961837 136.271574 
L 557.044386 134.18865 
L 569.126935 132.103406 
L 581.209485 130.405064 
L 593.292034 129.052855 
L 605.374583 127.969905 
L 617.457132 127.099803 
L 629.539681 126.417337 
L 641.62223 125.87725 
L 653.704779 125.456395 
L 665.787328 125.134753 
" clip-path="url(#pe2cb02df4a)" style="fill: none; stroke: #0000ff; stroke-width: 1.2; stroke-linecap: square"/>
   </g>
   <g id="patch_3">
    <path d="M 44.086875 245.97 
L 44.086875 23.84 
" style="fill: none; stroke: #ffffff; stroke-linejoin: miter; stroke-linecap: square"/>
   </g>
   <g id="patch_4">
    <path d="M 696.508963 245.97 
L 696.508963 23.84 
" style="fill: none; stroke: #ffffff; stroke-linejoin: miter; stroke-linecap: square"/>
   </g>
   <g id="patch_5">
    <path d="M 44.086875 245.97 
L 696.508963 245.97 
" style="fill: none; stroke: #ffffff; stroke-linejoin: miter; stroke-linecap: square"/>
   </g>
   <g id="patch_6">
    <path d="M 44.086875 23.84 
L 696.508963 23.84 
" style="fill: none; stroke: #ffffff; stroke-linejoin: miter; stroke-linecap: square"/>
   </g>
   <g id="text_9">
    <!-- $\Delta$PDD Angkor (Scaled) -->
    <g transform="translate(292.387919 17.84) scale(0.14 -0.14)">
     <defs>
      <path id="DejaVuSans-394" d="M 2188 4044 
L 906 525 
L 3472 525 
L 2188 4044 
z
M 50 0 
L 1831 4666 
L 2547 4666 
L 4325 0 
L 50 0 
z
" transform="scale(0.015625)"/>
      <path id="DejaVuSans-50" d="M 1259 4147 
L 1259 2394 
L 2053 2394 
Q 2494 2394 2734 2622 
Q 2975 2850 2975 3272 
Q 2975 3691 2734 3919 
Q 2494 4147 2053 4147 
L 1259 4147 
z
M 628 4666 
L 2053 4666 
Q 2838 4666 3239 4311 
Q 3641 3956 3641 3272 
Q 3641 2581 3239 2228 
Q 2838 1875 2053 1875 
L 1259 1875 
L 1259 0 
L 628 0 
L 628 4666 
z
" transform="scale(0.015625)"/>
      <path id="DejaVuSans-41" d="M 2188 4044 
L 1331 1722 
L 3047 1722 
L 2188 4044 
z
M 1831 4666 
L 2547 4666 
L 4325 0 
L 3669 0 
L 3244 1197 
L 1141 1197 
L 716 0 
L 50 0 
L 1831 4666 
z
" transform="scale(0.015625)"/>
      <path id="DejaVuSans-67" d="M 2906 1791 
Q 2906 2416 2648 2759 
Q 2391 3103 1925 3103 
Q 1463 3103 1205 2759 
Q 947 2416 947 1791 
Q 947 1169 1205 825 
Q 1463 481 1925 481 
Q 2391 481 2648 825 
Q 2906 1169 2906 1791 
z
M 3481 434 
Q 3481 -459 3084 -895 
Q 2688 -1331 1869 -1331 
Q 1566 -1331 1297 -1286 
Q 1028 -1241 775 -1147 
L 775 -588 
Q 1028 -725 1275 -790 
Q 1522 -856 1778 -856 
Q 2344 -856 2625 -561 
Q 2906 -266 2906 331 
L 2906 616 
Q 2728 306 2450 153 
Q 2172 0 1784 0 
Q 1141 0 747 490 
Q 353 981 353 1791 
Q 353 2603 747 3093 
Q 1141 3584 1784 3584 
Q 2172 3584 2450 3431 
Q 2728 3278 2906 2969 
L 2906 3500 
L 3481 3500 
L 3481 434 
z
" transform="scale(0.015625)"/>
      <path id="DejaVuSans-6f" d="M 1959 3097 
Q 1497 3097 1228 2736 
Q 959 2375 959 1747 
Q 959 1119 1226 758 
Q 1494 397 1959 397 
Q 2419 397 2687 759 
Q 2956 1122 2956 1747 
Q 2956 2369 2687 2733 
Q 2419 3097 1959 3097 
z
M 1959 3584 
Q 2709 3584 3137 3096 
Q 3566 2609 3566 1747 
Q 3566 888 3137 398 
Q 2709 -91 1959 -91 
Q 1206 -91 779 398 
Q 353 888 353 1747 
Q 353 2609 779 3096 
Q 1206 3584 1959 3584 
z
" transform="scale(0.015625)"/>
      <path id="DejaVuSans-72" d="M 2631 2963 
Q 2534 3019 2420 3045 
Q 2306 3072 2169 3072 
Q 1681 3072 1420 2755 
Q 1159 2438 1159 1844 
L 1159 0 
L 581 0 
L 581 3500 
L 1159 3500 
L 1159 2956 
Q 1341 3275 1631 3429 
Q 1922 3584 2338 3584 
Q 2397 3584 2469 3576 
Q 2541 3569 2628 3553 
L 2631 2963 
z
" transform="scale(0.015625)"/>
      <path id="DejaVuSans-53" d="M 3425 4513 
L 3425 3897 
Q 3066 4069 2747 4153 
Q 2428 4238 2131 4238 
Q 1616 4238 1336 4038 
Q 1056 3838 1056 3469 
Q 1056 3159 1242 3001 
Q 1428 2844 1947 2747 
L 2328 2669 
Q 3034 2534 3370 2195 
Q 3706 1856 3706 1288 
Q 3706 609 3251 259 
Q 2797 -91 1919 -91 
Q 1588 -91 1214 -16 
Q 841 59 441 206 
L 441 856 
Q 825 641 1194 531 
Q 1563 422 1919 422 
Q 2459 422 2753 634 
Q 3047 847 3047 1241 
Q 3047 1584 2836 1778 
Q 2625 1972 2144 2069 
L 1759 2144 
Q 1053 2284 737 2584 
Q 422 2884 422 3419 
Q 422 4038 858 4394 
Q 1294 4750 2059 4750 
Q 2388 4750 2728 4690 
Q 3069 4631 3425 4513 
z
" transform="scale(0.015625)"/>
      <path id="DejaVuSans-6c" d="M 603 4863 
L 1178 4863 
L 1178 0 
L 603 0 
L 603 4863 
z
" transform="scale(0.015625)"/>
      <path id="DejaVuSans-64" d="M 2906 2969 
L 2906 4863 
L 3481 4863 
L 3481 0 
L 2906 0 
L 2906 525 
Q 2725 213 2448 61 
Q 2172 -91 1784 -91 
Q 1150 -91 751 415 
Q 353 922 353 1747 
Q 353 2572 751 3078 
Q 1150 3584 1784 3584 
Q 2172 3584 2448 3432 
Q 2725 3281 2906 2969 
z
M 947 1747 
Q 947 1113 1208 752 
Q 1469 391 1925 391 
Q 2381 391 2643 752 
Q 2906 1113 2906 1747 
Q 2906 2381 2643 2742 
Q 2381 3103 1925 3103 
Q 1469 3103 1208 2742 
Q 947 2381 947 1747 
z
" transform="scale(0.015625)"/>
     </defs>
     <use xlink:href="#DejaVuSans-394" transform="translate(0 0.015625)"/>
     <use xlink:href="#DejaVuSans-50" transform="translate(68.408203 0.015625)"/>
     <use xlink:href="#DejaVuSans-44" transform="translate(128.710938 0.015625)"/>
     <use xlink:href="#DejaVuSans-44" transform="translate(205.712891 0.015625)"/>
     <use xlink:href="#DejaVuSans-20" transform="translate(282.714844 0.015625)"/>
     <use xlink:href="#DejaVuSans-41" transform="translate(314.501953 0.015625)"/>
     <use xlink:href="#DejaVuSans-6e" transform="translate(382.910156 0.015625)"/>
     <use xlink:href="#DejaVuSans-67" transform="translate(446.289062 0.015625)"/>
     <use xlink:href="#DejaVuSans-6b" transform="translate(509.765625 0.015625)"/>
     <use xlink:href="#DejaVuSans-6f" transform="translate(567.675781 0.015625)"/>
     <use xlink:href="#DejaVuSans-72" transform="translate(628.857422 0.015625)"/>
     <use xlink:href="#DejaVuSans-20" transform="translate(669.970703 0.015625)"/>
     <use xlink:href="#DejaVuSans-28" transform="translate(701.757812 0.015625)"/>
     <use xlink:href="#DejaVuSans-53" transform="translate(740.771484 0.015625)"/>
     <use xlink:href="#DejaVuSans-63" transform="translate(804.248047 0.015625)"/>
     <use xlink:href="#DejaVuSans-61" transform="translate(859.228516 0.015625)"/>
     <use xlink:href="#DejaVuSans-6c" transform="translate(920.507812 0.015625)"/>
     <use xlink:href="#DejaVuSans-65" transform="translate(948.291016 0.015625)"/>
     <use xlink:href="#DejaVuSans-64" transform="translate(1009.814453 0.015625)"/>
     <use xlink:href="#DejaVuSans-29" transform="translate(1073.291016 0.015625)"/>
    </g>
   </g>
   <g id="legend_1">
    <g id="line2d_26">
     <path d="M 592.508963 36.94 
L 602.508963 36.94 
L 612.508963 36.94 
" style="fill: none; stroke: #0000ff; stroke-width: 1.2; stroke-linecap: square"/>
    </g>
    <g id="text_10">
     <!-- $\Delta$PDD Angkor -->
     <g transform="translate(620.508963 40.44) scale(0.1 -0.1)">
      <use xlink:href="#DejaVuSans-394" transform="translate(0 0.015625)"/>
      <use xlink:href="#DejaVuSans-50" transform="translate(68.408203 0.015625)"/>
      <use xlink:href="#DejaVuSans-44" transform="translate(128.710938 0.015625)"/>
      <use xlink:href="#DejaVuSans-44" transform="translate(205.712891 0.015625)"/>
      <use xlink:href="#DejaVuSans-20" transform="translate(282.714844 0.015625)"/>
      <use xlink:href="#DejaVuSans-41" transform="translate(314.501953 0.015625)"/>
      <use xlink:href="#DejaVuSans-6e" transform="translate(382.910156 0.015625)"/>
      <use xlink:href="#DejaVuSans-67" transform="translate(446.289062 0.015625)"/>
      <use xlink:href="#DejaVuSans-6b" transform="translate(509.765625 0.015625)"/>
      <use xlink:href="#DejaVuSans-6f" transform="translate(567.675781 0.015625)"/>
      <use xlink:href="#DejaVuSans-72" transform="translate(628.857422 0.015625)"/>
     </g>
    </g>
   </g>
  </g>
  <g id="axes_2">
   <g id="patch_7">
    <path d="M 44.086875 521.06 
L 696.508963 521.06 
L 696.508963 298.93 
L 44.086875 298.93 
z
" style="fill: #e5e5e5"/>
   </g>
   <g id="matplotlib.axis_3">
    <g id="xtick_8">
     <g id="line2d_27">
      <path d="M 73.742424 521.06 
L 73.742424 298.93 
" clip-path="url(#p569d2d1d5f)" style="fill: none; stroke: #ffffff; stroke-width: 0.8; stroke-linecap: square"/>
     </g>
     <g id="line2d_28">
      <g>
       <use xlink:href="#m67e3066e9f" x="73.742424" y="521.06" style="fill: #555555; stroke: #555555"/>
      </g>
     </g>
     <g id="text_11">
      <!-- 0.0 -->
      <g style="fill: #555555" transform="translate(66.745049 536.046625) scale(0.088 -0.088)">
       <defs>
        <path id="DejaVuSans-2e" d="M 684 794 
L 1344 794 
L 1344 0 
L 684 0 
L 684 794 
z
" transform="scale(0.015625)"/>
       </defs>
       <use xlink:href="#DejaVuSans-30"/>
       <use xlink:href="#DejaVuSans-2e" transform="translate(63.623047 0)"/>
       <use xlink:href="#DejaVuSans-30" transform="translate(95.410156 0)"/>
      </g>
     </g>
    </g>
    <g id="xtick_9">
     <g id="line2d_29">
      <path d="M 175.760208 521.06 
L 175.760208 298.93 
" clip-path="url(#p569d2d1d5f)" style="fill: none; stroke: #ffffff; stroke-width: 0.8; stroke-linecap: square"/>
     </g>
     <g id="line2d_30">
      <g>
       <use xlink:href="#m67e3066e9f" x="175.760208" y="521.06" style="fill: #555555; stroke: #555555"/>
      </g>
     </g>
     <g id="text_12">
      <!-- 20.0 -->
      <g style="fill: #555555" transform="translate(165.963333 536.046625) scale(0.088 -0.088)">
       <use xlink:href="#DejaVuSans-32"/>
       <use xlink:href="#DejaVuSans-30" transform="translate(63.623047 0)"/>
       <use xlink:href="#DejaVuSans-2e" transform="translate(127.246094 0)"/>
       <use xlink:href="#DejaVuSans-30" transform="translate(159.033203 0)"/>
      </g>
     </g>
    </g>
    <g id="xtick_10">
     <g id="line2d_31">
      <path d="M 277.777991 521.06 
L 277.777991 298.93 
" clip-path="url(#p569d2d1d5f)" style="fill: none; stroke: #ffffff; stroke-width: 0.8; stroke-linecap: square"/>
     </g>
     <g id="line2d_32">
      <g>
       <use xlink:href="#m67e3066e9f" x="277.777991" y="521.06" style="fill: #555555; stroke: #555555"/>
      </g>
     </g>
     <g id="text_13">
      <!-- 40.0 -->
      <g style="fill: #555555" transform="translate(267.981116 536.046625) scale(0.088 -0.088)">
       <use xlink:href="#DejaVuSans-34"/>
       <use xlink:href="#DejaVuSans-30" transform="translate(63.623047 0)"/>
       <use xlink:href="#DejaVuSans-2e" transform="translate(127.246094 0)"/>
       <use xlink:href="#DejaVuSans-30" transform="translate(159.033203 0)"/>
      </g>
     </g>
    </g>
    <g id="xtick_11">
     <g id="line2d_33">
      <path d="M 379.795775 521.06 
L 379.795775 298.93 
" clip-path="url(#p569d2d1d5f)" style="fill: none; stroke: #ffffff; stroke-width: 0.8; stroke-linecap: square"/>
     </g>
     <g id="line2d_34">
      <g>
       <use xlink:href="#m67e3066e9f" x="379.795775" y="521.06" style="fill: #555555; stroke: #555555"/>
      </g>
     </g>
     <g id="text_14">
      <!-- 60.0 -->
      <g style="fill: #555555" transform="translate(369.9989 536.046625) scale(0.088 -0.088)">
       <use xlink:href="#DejaVuSans-36"/>
       <use xlink:href="#DejaVuSans-30" transform="translate(63.623047 0)"/>
       <use xlink:href="#DejaVuSans-2e" transform="translate(127.246094 0)"/>
       <use xlink:href="#DejaVuSans-30" transform="translate(159.033203 0)"/>
      </g>
     </g>
    </g>
    <g id="xtick_12">
     <g id="line2d_35">
      <path d="M 481.813558 521.06 
L 481.813558 298.93 
" clip-path="url(#p569d2d1d5f)" style="fill: none; stroke: #ffffff; stroke-width: 0.8; stroke-linecap: square"/>
     </g>
     <g id="line2d_36">
      <g>
       <use xlink:href="#m67e3066e9f" x="481.813558" y="521.06" style="fill: #555555; stroke: #555555"/>
      </g>
     </g>
     <g id="text_15">
      <!-- 80.0 -->
      <g style="fill: #555555" transform="translate(472.016683 536.046625) scale(0.088 -0.088)">
       <defs>
        <path id="DejaVuSans-38" d="M 2034 2216 
Q 1584 2216 1326 1975 
Q 1069 1734 1069 1313 
Q 1069 891 1326 650 
Q 1584 409 2034 409 
Q 2484 409 2743 651 
Q 3003 894 3003 1313 
Q 3003 1734 2745 1975 
Q 2488 2216 2034 2216 
z
M 1403 2484 
Q 997 2584 770 2862 
Q 544 3141 544 3541 
Q 544 4100 942 4425 
Q 1341 4750 2034 4750 
Q 2731 4750 3128 4425 
Q 3525 4100 3525 3541 
Q 3525 3141 3298 2862 
Q 3072 2584 2669 2484 
Q 3125 2378 3379 2068 
Q 3634 1759 3634 1313 
Q 3634 634 3220 271 
Q 2806 -91 2034 -91 
Q 1263 -91 848 271 
Q 434 634 434 1313 
Q 434 1759 690 2068 
Q 947 2378 1403 2484 
z
M 1172 3481 
Q 1172 3119 1398 2916 
Q 1625 2713 2034 2713 
Q 2441 2713 2670 2916 
Q 2900 3119 2900 3481 
Q 2900 3844 2670 4047 
Q 2441 4250 2034 4250 
Q 1625 4250 1398 4047 
Q 1172 3844 1172 3481 
z
" transform="scale(0.015625)"/>
       </defs>
       <use xlink:href="#DejaVuSans-38"/>
       <use xlink:href="#DejaVuSans-30" transform="translate(63.623047 0)"/>
       <use xlink:href="#DejaVuSans-2e" transform="translate(127.246094 0)"/>
       <use xlink:href="#DejaVuSans-30" transform="translate(159.033203 0)"/>
      </g>
     </g>
    </g>
    <g id="xtick_13">
     <g id="line2d_37">
      <path d="M 583.831342 521.06 
L 583.831342 298.93 
" clip-path="url(#p569d2d1d5f)" style="fill: none; stroke: #ffffff; stroke-width: 0.8; stroke-linecap: square"/>
     </g>
     <g id="line2d_38">
      <g>
       <use xlink:href="#m67e3066e9f" x="583.831342" y="521.06" style="fill: #555555; stroke: #555555"/>
      </g>
     </g>
     <g id="text_16">
      <!-- 100.0 -->
      <g style="fill: #555555" transform="translate(571.234967 536.046625) scale(0.088 -0.088)">
       <use xlink:href="#DejaVuSans-31"/>
       <use xlink:href="#DejaVuSans-30" transform="translate(63.623047 0)"/>
       <use xlink:href="#DejaVuSans-30" transform="translate(127.246094 0)"/>
       <use xlink:href="#DejaVuSans-2e" transform="translate(190.869141 0)"/>
       <use xlink:href="#DejaVuSans-30" transform="translate(222.65625 0)"/>
      </g>
     </g>
    </g>
    <g id="xtick_14">
     <g id="line2d_39">
      <path d="M 685.849125 521.06 
L 685.849125 298.93 
" clip-path="url(#p569d2d1d5f)" style="fill: none; stroke: #ffffff; stroke-width: 0.8; stroke-linecap: square"/>
     </g>
     <g id="line2d_40">
      <g>
       <use xlink:href="#m67e3066e9f" x="685.849125" y="521.06" style="fill: #555555; stroke: #555555"/>
      </g>
     </g>
     <g id="text_17">
      <!-- 120.0 -->
      <g style="fill: #555555" transform="translate(673.25275 536.046625) scale(0.088 -0.088)">
       <use xlink:href="#DejaVuSans-31"/>
       <use xlink:href="#DejaVuSans-32" transform="translate(63.623047 0)"/>
       <use xlink:href="#DejaVuSans-30" transform="translate(127.246094 0)"/>
       <use xlink:href="#DejaVuSans-2e" transform="translate(190.869141 0)"/>
       <use xlink:href="#DejaVuSans-30" transform="translate(222.65625 0)"/>
      </g>
     </g>
    </g>
    <g id="text_18">
     <!-- Distance (km) -->
     <g style="fill: #555555" transform="translate(328.155419 550.994875) scale(0.12 -0.12)">
      <use xlink:href="#DejaVuSans-44"/>
      <use xlink:href="#DejaVuSans-69" transform="translate(77.001953 0)"/>
      <use xlink:href="#DejaVuSans-73" transform="translate(104.785156 0)"/>
      <use xlink:href="#DejaVuSans-74" transform="translate(156.884766 0)"/>
      <use xlink:href="#DejaVuSans-61" transform="translate(196.09375 0)"/>
      <use xlink:href="#DejaVuSans-6e" transform="translate(257.373047 0)"/>
      <use xlink:href="#DejaVuSans-63" transform="translate(320.751953 0)"/>
      <use xlink:href="#DejaVuSans-65" transform="translate(375.732422 0)"/>
      <use xlink:href="#DejaVuSans-20" transform="translate(437.255859 0)"/>
      <use xlink:href="#DejaVuSans-28" transform="translate(469.042969 0)"/>
      <use xlink:href="#DejaVuSans-6b" transform="translate(508.056641 0)"/>
      <use xlink:href="#DejaVuSans-6d" transform="translate(565.966797 0)"/>
      <use xlink:href="#DejaVuSans-29" transform="translate(663.378906 0)"/>
     </g>
    </g>
   </g>
   <g id="matplotlib.axis_4">
    <g id="ytick_6">
     <g id="line2d_41">
      <path d="M 44.086875 511.541497 
L 696.508963 511.541497 
" clip-path="url(#p569d2d1d5f)" style="fill: none; stroke: #ffffff; stroke-width: 0.8; stroke-linecap: square"/>
     </g>
     <g id="line2d_42">
      <g>
       <use xlink:href="#m6bea72bfe9" x="44.086875" y="511.541497" style="fill: #555555; stroke: #555555"/>
      </g>
     </g>
     <g id="text_19">
      <!-- −4 -->
      <g style="fill: #555555" transform="translate(22.81375 514.884809) scale(0.088 -0.088)">
       <use xlink:href="#DejaVuSans-2212"/>
       <use xlink:href="#DejaVuSans-34" transform="translate(83.789062 0)"/>
      </g>
     </g>
    </g>
    <g id="ytick_7">
     <g id="line2d_43">
      <path d="M 44.086875 463.344563 
L 696.508963 463.344563 
" clip-path="url(#p569d2d1d5f)" style="fill: none; stroke: #ffffff; stroke-width: 0.8; stroke-linecap: square"/>
     </g>
     <g id="line2d_44">
      <g>
       <use xlink:href="#m6bea72bfe9" x="44.086875" y="463.344563" style="fill: #555555; stroke: #555555"/>
      </g>
     </g>
     <g id="text_20">
      <!-- −2 -->
      <g style="fill: #555555" transform="translate(22.81375 466.687876) scale(0.088 -0.088)">
       <use xlink:href="#DejaVuSans-2212"/>
       <use xlink:href="#DejaVuSans-32" transform="translate(83.789062 0)"/>
      </g>
     </g>
    </g>
    <g id="ytick_8">
     <g id="line2d_45">
      <path d="M 44.086875 415.147629 
L 696.508963 415.147629 
" clip-path="url(#p569d2d1d5f)" style="fill: none; stroke: #ffffff; stroke-width: 0.8; stroke-linecap: square"/>
     </g>
     <g id="line2d_46">
      <g>
       <use xlink:href="#m6bea72bfe9" x="44.086875" y="415.147629" style="fill: #555555; stroke: #555555"/>
      </g>
     </g>
     <g id="text_21">
      <!-- 0 -->
      <g style="fill: #555555" transform="translate(30.187875 418.490942) scale(0.088 -0.088)">
       <use xlink:href="#DejaVuSans-30"/>
      </g>
     </g>
    </g>
    <g id="ytick_9">
     <g id="line2d_47">
      <path d="M 44.086875 366.950696 
L 696.508963 366.950696 
" clip-path="url(#p569d2d1d5f)" style="fill: none; stroke: #ffffff; stroke-width: 0.8; stroke-linecap: square"/>
     </g>
     <g id="line2d_48">
      <g>
       <use xlink:href="#m6bea72bfe9" x="44.086875" y="366.950696" style="fill: #555555; stroke: #555555"/>
      </g>
     </g>
     <g id="text_22">
      <!-- 2 -->
      <g style="fill: #555555" transform="translate(30.187875 370.294008) scale(0.088 -0.088)">
       <use xlink:href="#DejaVuSans-32"/>
      </g>
     </g>
    </g>
    <g id="ytick_10">
     <g id="line2d_49">
      <path d="M 44.086875 318.753762 
L 696.508963 318.753762 
" clip-path="url(#p569d2d1d5f)" style="fill: none; stroke: #ffffff; stroke-width: 0.8; stroke-linecap: square"/>
     </g>
     <g id="line2d_50">
      <g>
       <use xlink:href="#m6bea72bfe9" x="44.086875" y="318.753762" style="fill: #555555; stroke: #555555"/>
      </g>
     </g>
     <g id="text_23">
      <!-- 4 -->
      <g style="fill: #555555" transform="translate(30.187875 322.097075) scale(0.088 -0.088)">
       <use xlink:href="#DejaVuSans-34"/>
      </g>
     </g>
    </g>
    <g id="text_24">
     <!-- Density -->
     <g style="fill: #555555" transform="translate(16.318125 432.805313) rotate(-90) scale(0.12 -0.12)">
      <use xlink:href="#DejaVuSans-44"/>
      <use xlink:href="#DejaVuSans-65" transform="translate(77.001953 0)"/>
      <use xlink:href="#DejaVuSans-6e" transform="translate(138.525391 0)"/>
      <use xlink:href="#DejaVuSans-73" transform="translate(201.904297 0)"/>
      <use xlink:href="#DejaVuSans-69" transform="translate(254.003906 0)"/>
      <use xlink:href="#DejaVuSans-74" transform="translate(281.787109 0)"/>
      <use xlink:href="#DejaVuSans-79" transform="translate(320.996094 0)"/>
     </g>
    </g>
    <g id="text_25">
     <!-- 1e−6 -->
     <g style="fill: #555555" transform="translate(44.086875 295.93) scale(0.088 -0.088)">
      <use xlink:href="#DejaVuSans-31"/>
      <use xlink:href="#DejaVuSans-65" transform="translate(63.623047 0)"/>
      <use xlink:href="#DejaVuSans-2212" transform="translate(125.146484 0)"/>
      <use xlink:href="#DejaVuSans-36" transform="translate(208.935547 0)"/>
     </g>
    </g>
   </g>
   <g id="FillBetweenPolyCollection_2">
    <defs>
     <path id="m6ff91db1b6" d="M 73.742424 -155.590361 
L 73.742424 -150.30622 
L 85.84673 -160.460897 
L 97.951036 -156.419672 
L 110.055342 -134.86094 
L 122.159648 -108.404914 
L 134.263954 -83.526147 
L 146.36826 -74.180648 
L 158.472566 -72.328431 
L 170.576872 -64.740825 
L 182.681178 -53.928287 
L 194.785483 -49.727318 
L 206.889789 -54.48932 
L 218.994095 -63.585163 
L 231.098401 -79.025212 
L 243.202707 -88.385582 
L 255.307013 -91.531127 
L 267.411319 -97.533579 
L 279.515625 -109.92261 
L 291.619931 -131.26601 
L 303.724237 -160.380778 
L 315.828543 -181.817917 
L 327.932848 -184.929866 
L 340.037154 -179.56249 
L 352.14146 -177.456265 
L 364.245766 -179.062341 
L 376.350072 -182.911334 
L 388.454378 -197.403372 
L 400.558684 -211.720918 
L 412.66299 -212.01588 
L 424.767296 -200.509328 
L 436.871602 -186.784967 
L 448.975907 -169.078397 
L 461.080213 -148.728054 
L 473.184519 -130.50251 
L 485.288825 -117.158435 
L 497.393131 -111.310078 
L 509.497437 -108.813172 
L 521.601743 -105.84225 
L 533.706049 -106.258735 
L 545.810355 -109.831186 
L 557.914661 -113.952707 
L 570.018966 -118.115812 
L 582.123272 -121.828363 
L 594.227578 -125.301298 
L 606.331884 -128.479445 
L 618.43619 -130.614343 
L 630.540496 -132.876262 
L 642.644802 -135.166807 
L 654.749108 -136.711717 
L 666.853414 -138.07158 
L 666.853414 -143.848167 
L 666.853414 -143.848167 
L 654.749108 -143.226814 
L 642.644802 -142.56273 
L 630.540496 -141.582531 
L 618.43619 -140.230912 
L 606.331884 -138.734091 
L 594.227578 -136.960213 
L 582.123272 -134.688848 
L 570.018966 -132.503961 
L 557.914661 -130.395247 
L 545.810355 -127.919128 
L 533.706049 -125.632675 
L 521.601743 -127.731778 
L 509.497437 -132.322279 
L 497.393131 -137.676719 
L 485.288825 -145.213709 
L 473.184519 -160.829031 
L 461.080213 -181.780759 
L 448.975907 -203.677843 
L 436.871602 -223.674299 
L 424.767296 -239.604926 
L 412.66299 -251.242739 
L 400.558684 -251.663682 
L 388.454378 -238.954588 
L 376.350072 -224.552081 
L 364.245766 -220.23295 
L 352.14146 -217.968549 
L 340.037154 -218.491046 
L 327.932848 -222.264963 
L 315.828543 -217.127521 
L 303.724237 -192.761915 
L 291.619931 -162.292966 
L 279.515625 -141.180281 
L 267.411319 -130.943921 
L 255.307013 -128.514874 
L 243.202707 -126.850938 
L 231.098401 -122.252185 
L 218.994095 -114.335544 
L 206.889789 -109.382522 
L 194.785483 -110.573044 
L 182.681178 -117.902547 
L 170.576872 -132.337051 
L 158.472566 -139.311214 
L 146.36826 -136.502496 
L 134.263954 -142.196098 
L 122.159648 -158.499834 
L 110.055342 -175.022884 
L 97.951036 -183.534369 
L 85.84673 -175.424735 
L 73.742424 -155.590361 
z
" style="stroke: #008000; stroke-opacity: 0.2; stroke-width: 0.8"/>
    </defs>
    <g clip-path="url(#p569d2d1d5f)">
     <use xlink:href="#m6ff91db1b6" x="0" y="560.6905" style="fill: #008000; fill-opacity: 0.2; stroke: #008000; stroke-opacity: 0.2; stroke-width: 0.8"/>
    </g>
   </g>
   <g id="line2d_51">
    <path d="M 73.742424 407.605148 
L 85.84673 392.369636 
L 97.951036 390.359681 
L 110.055342 405.214574 
L 122.159648 426.855112 
L 134.263954 447.095664 
L 146.36826 454.60233 
L 158.472566 454.287418 
L 170.576872 463.132686 
L 182.681178 475.894001 
L 194.785483 480.238587 
L 206.889789 478.556804 
L 218.994095 471.793227 
L 231.098401 461.84157 
L 243.202707 453.677094 
L 255.307013 450.082253 
L 267.411319 447.351684 
L 279.515625 435.343074 
L 291.619931 414.027072 
L 303.724237 385.129099 
L 315.828543 362.710271 
L 327.932848 358.392185 
L 340.037154 361.976055 
L 352.14146 363.293225 
L 364.245766 360.756422 
L 376.350072 356.120479 
L 388.454378 342.40651 
L 400.558684 328.915103 
L 412.66299 328.406305 
L 424.767296 340.127153 
L 436.871602 355.307048 
L 448.975907 374.107533 
L 461.080213 394.446638 
L 473.184519 414.397821 
L 485.288825 428.796239 
L 497.393131 435.623134 
L 509.497437 439.853622 
L 521.601743 443.758479 
L 533.706049 444.43155 
L 545.810355 441.58937 
L 557.914661 438.165939 
L 570.018966 435.074447 
L 582.123272 432.012355 
L 594.227578 429.183762 
L 606.331884 426.786198 
L 618.43619 424.742345 
L 630.540496 423.000906 
L 642.644802 421.566478 
L 654.749108 420.390128 
L 666.853414 419.399128 
" clip-path="url(#p569d2d1d5f)" style="fill: none; stroke: #008000; stroke-width: 1.2; stroke-linecap: square"/>
   </g>
   <g id="patch_8">
    <path d="M 44.086875 521.06 
L 44.086875 298.93 
" style="fill: none; stroke: #ffffff; stroke-linejoin: miter; stroke-linecap: square"/>
   </g>
   <g id="patch_9">
    <path d="M 696.508963 521.06 
L 696.508963 298.93 
" style="fill: none; stroke: #ffffff; stroke-linejoin: miter; stroke-linecap: square"/>
   </g>
   <g id="patch_10">
    <path d="M 44.086875 521.06 
L 696.508963 521.06 
" style="fill: none; stroke: #ffffff; stroke-linejoin: miter; stroke-linecap: square"/>
   </g>
   <g id="patch_11">
    <path d="M 44.086875 298.93 
L 696.508963 298.93 
" style="fill: none; stroke: #ffffff; stroke-linejoin: miter; stroke-linecap: square"/>
   </g>
   <g id="text_26">
    <!-- $\Delta$PDD Hampshire -->
    <g transform="translate(310.237919 292.93) scale(0.14 -0.14)">
     <defs>
      <path id="DejaVuSans-48" d="M 628 4666 
L 1259 4666 
L 1259 2753 
L 3553 2753 
L 3553 4666 
L 4184 4666 
L 4184 0 
L 3553 0 
L 3553 2222 
L 1259 2222 
L 1259 0 
L 628 0 
L 628 4666 
z
" transform="scale(0.015625)"/>
      <path id="DejaVuSans-70" d="M 1159 525 
L 1159 -1331 
L 581 -1331 
L 581 3500 
L 1159 3500 
L 1159 2969 
Q 1341 3281 1617 3432 
Q 1894 3584 2278 3584 
Q 2916 3584 3314 3078 
Q 3713 2572 3713 1747 
Q 3713 922 3314 415 
Q 2916 -91 2278 -91 
Q 1894 -91 1617 61 
Q 1341 213 1159 525 
z
M 3116 1747 
Q 3116 2381 2855 2742 
Q 2594 3103 2138 3103 
Q 1681 3103 1420 2742 
Q 1159 2381 1159 1747 
Q 1159 1113 1420 752 
Q 1681 391 2138 391 
Q 2594 391 2855 752 
Q 3116 1113 3116 1747 
z
" transform="scale(0.015625)"/>
      <path id="DejaVuSans-68" d="M 3513 2113 
L 3513 0 
L 2938 0 
L 2938 2094 
Q 2938 2591 2744 2837 
Q 2550 3084 2163 3084 
Q 1697 3084 1428 2787 
Q 1159 2491 1159 1978 
L 1159 0 
L 581 0 
L 581 4863 
L 1159 4863 
L 1159 2956 
Q 1366 3272 1645 3428 
Q 1925 3584 2291 3584 
Q 2894 3584 3203 3211 
Q 3513 2838 3513 2113 
z
" transform="scale(0.015625)"/>
     </defs>
     <use xlink:href="#DejaVuSans-394" transform="translate(0 0.015625)"/>
     <use xlink:href="#DejaVuSans-50" transform="translate(68.408203 0.015625)"/>
     <use xlink:href="#DejaVuSans-44" transform="translate(128.710938 0.015625)"/>
     <use xlink:href="#DejaVuSans-44" transform="translate(205.712891 0.015625)"/>
     <use xlink:href="#DejaVuSans-20" transform="translate(282.714844 0.015625)"/>
     <use xlink:href="#DejaVuSans-48" transform="translate(314.501953 0.015625)"/>
     <use xlink:href="#DejaVuSans-61" transform="translate(389.697266 0.015625)"/>
     <use xlink:href="#DejaVuSans-6d" transform="translate(450.976562 0.015625)"/>
     <use xlink:href="#DejaVuSans-70" transform="translate(548.388672 0.015625)"/>
     <use xlink:href="#DejaVuSans-73" transform="translate(611.865234 0.015625)"/>
     <use xlink:href="#DejaVuSans-68" transform="translate(663.964844 0.015625)"/>
     <use xlink:href="#DejaVuSans-69" transform="translate(727.34375 0.015625)"/>
     <use xlink:href="#DejaVuSans-72" transform="translate(755.126953 0.015625)"/>
     <use xlink:href="#DejaVuSans-65" transform="translate(796.240234 0.015625)"/>
    </g>
   </g>
   <g id="legend_2">
    <g id="line2d_52">
     <path d="M 573.708963 312.03 
L 583.708963 312.03 
L 593.708963 312.03 
" style="fill: none; stroke: #008000; stroke-width: 1.2; stroke-linecap: square"/>
    </g>
    <g id="text_27">
     <!-- $\Delta$PDD Hampshire -->
     <g transform="translate(601.708963 315.53) scale(0.1 -0.1)">
      <use xlink:href="#DejaVuSans-394" transform="translate(0 0.015625)"/>
      <use xlink:href="#DejaVuSans-50" transform="translate(68.408203 0.015625)"/>
      <use xlink:href="#DejaVuSans-44" transform="translate(128.710938 0.015625)"/>
      <use xlink:href="#DejaVuSans-44" transform="translate(205.712891 0.015625)"/>
      <use xlink:href="#DejaVuSans-20" transform="translate(282.714844 0.015625)"/>
      <use xlink:href="#DejaVuSans-48" transform="translate(314.501953 0.015625)"/>
      <use xlink:href="#DejaVuSans-61" transform="translate(389.697266 0.015625)"/>
      <use xlink:href="#DejaVuSans-6d" transform="translate(450.976562 0.015625)"/>
      <use xlink:href="#DejaVuSans-70" transform="translate(548.388672 0.015625)"/>
      <use xlink:href="#DejaVuSans-73" transform="translate(611.865234 0.015625)"/>
      <use xlink:href="#DejaVuSans-68" transform="translate(663.964844 0.015625)"/>
      <use xlink:href="#DejaVuSans-69" transform="translate(727.34375 0.015625)"/>
      <use xlink:href="#DejaVuSans-72" transform="translate(755.126953 0.015625)"/>
      <use xlink:href="#DejaVuSans-65" transform="translate(796.240234 0.015625)"/>
     </g>
    </g>
   </g>
  </g>
 </g>
 <defs>
  <clipPath id="pe2cb02df4a">
   <rect x="44.086875" y="23.84" width="652.422088" height="222.13"/>
  </clipPath>
  <clipPath id="p569d2d1d5f">
   <rect x="44.086875" y="298.93" width="652.422088" height="222.13"/>
  </clipPath>
 </defs>
</svg>
