<?xml version="1.0" encoding="utf-8" standalone="no"?>
<!DOCTYPE svg PUBLIC "-//W3C//DTD SVG 1.1//EN"
  "http://www.w3.org/Graphics/SVG/1.1/DTD/svg11.dtd">
<svg xmlns:xlink="http://www.w3.org/1999/xlink" width="705.729503pt" height="562.128312pt" viewBox="0 0 705.729503 562.128312" xmlns="http://www.w3.org/2000/svg" version="1.1">
 <metadata>
  <rdf:RDF xmlns:dc="http://purl.org/dc/elements/1.1/" xmlns:cc="http://creativecommons.org/ns#" xmlns:rdf="http://www.w3.org/1999/02/22-rdf-syntax-ns#">
   <cc:Work>
    <dc:type rdf:resource="http://purl.org/dc/dcmitype/StillImage"/>
    <dc:date>2025-04-02T15:34:23.665395</dc:date>
    <dc:format>image/svg+xml</dc:format>
    <dc:creator>
     <cc:Agent>
      <dc:title>Matplotlib v3.10.1, https://matplotlib.org/</dc:title>
     </cc:Agent>
    </dc:creator>
   </cc:Work>
  </rdf:RDF>
 </metadata>
 <defs>
  <style type="text/css">*{stroke-linejoin: round; stroke-linecap: butt}</style>
 </defs>
 <g id="figure_1">
  <g id="patch_1">
   <path d="M -0 562.128312 
L 705.729503 562.128312 
L 705.729503 0 
L -0 0 
z
" style="fill: #ffffff"/>
  </g>
  <g id="axes_1">
   <g id="patch_2">
    <path d="M 44.086875 247.407813 
L 692.323963 247.407813 
L 692.323963 23.837812 
L 44.086875 23.837812 
z
" style="fill: #e5e5e5"/>
   </g>
   <g id="matplotlib.axis_1">
    <g id="xtick_1">
     <g id="line2d_1">
      <path d="M 73.552197 247.407813 
L 73.552197 23.837812 
" clip-path="url(#p78e0a5cc3a)" style="fill: none; stroke: #ffffff; stroke-width: 0.8; stroke-linecap: square"/>
     </g>
     <g id="line2d_2">
      <defs>
       <path id="me9c6523073" d="M 0 0 
L 0 4.8 
" style="stroke: #555555"/>
      </defs>
      <g>
       <use xlink:href="#me9c6523073" x="73.552197" y="247.407813" style="fill: #555555; stroke: #555555"/>
      </g>
     </g>
    </g>
    <g id="xtick_2">
     <g id="line2d_3">
      <path d="M 174.915582 247.407813 
L 174.915582 23.837812 
" clip-path="url(#p78e0a5cc3a)" style="fill: none; stroke: #ffffff; stroke-width: 0.8; stroke-linecap: square"/>
     </g>
     <g id="line2d_4">
      <g>
       <use xlink:href="#me9c6523073" x="174.915582" y="247.407813" style="fill: #555555; stroke: #555555"/>
      </g>
     </g>
    </g>
    <g id="xtick_3">
     <g id="line2d_5">
      <path d="M 276.278966 247.407813 
L 276.278966 23.837812 
" clip-path="url(#p78e0a5cc3a)" style="fill: none; stroke: #ffffff; stroke-width: 0.8; stroke-linecap: square"/>
     </g>
     <g id="line2d_6">
      <g>
       <use xlink:href="#me9c6523073" x="276.278966" y="247.407813" style="fill: #555555; stroke: #555555"/>
      </g>
     </g>
    </g>
    <g id="xtick_4">
     <g id="line2d_7">
      <path d="M 377.64235 247.407813 
L 377.64235 23.837812 
" clip-path="url(#p78e0a5cc3a)" style="fill: none; stroke: #ffffff; stroke-width: 0.8; stroke-linecap: square"/>
     </g>
     <g id="line2d_8">
      <g>
       <use xlink:href="#me9c6523073" x="377.64235" y="247.407813" style="fill: #555555; stroke: #555555"/>
      </g>
     </g>
    </g>
    <g id="xtick_5">
     <g id="line2d_9">
      <path d="M 479.005734 247.407813 
L 479.005734 23.837812 
" clip-path="url(#p78e0a5cc3a)" style="fill: none; stroke: #ffffff; stroke-width: 0.8; stroke-linecap: square"/>
     </g>
     <g id="line2d_10">
      <g>
       <use xlink:href="#me9c6523073" x="479.005734" y="247.407813" style="fill: #555555; stroke: #555555"/>
      </g>
     </g>
    </g>
    <g id="xtick_6">
     <g id="line2d_11">
      <path d="M 580.369119 247.407813 
L 580.369119 23.837812 
" clip-path="url(#p78e0a5cc3a)" style="fill: none; stroke: #ffffff; stroke-width: 0.8; stroke-linecap: square"/>
     </g>
     <g id="line2d_12">
      <g>
       <use xlink:href="#me9c6523073" x="580.369119" y="247.407813" style="fill: #555555; stroke: #555555"/>
      </g>
     </g>
    </g>
    <g id="xtick_7">
     <g id="line2d_13">
      <path d="M 681.732503 247.407813 
L 681.732503 23.837812 
" clip-path="url(#p78e0a5cc3a)" style="fill: none; stroke: #ffffff; stroke-width: 0.8; stroke-linecap: square"/>
     </g>
     <g id="line2d_14">
      <g>
       <use xlink:href="#me9c6523073" x="681.732503" y="247.407813" style="fill: #555555; stroke: #555555"/>
      </g>
     </g>
    </g>
    <g id="text_1">
     <!-- Distance -->
     <g style="fill: #555555" transform="translate(341.970419 265.325938) scale(0.12 -0.12)">
      <defs>
       <path id="DejaVuSans-44" d="M 1259 4147 
L 1259 519 
L 2022 519 
Q 2988 519 3436 956 
Q 3884 1394 3884 2338 
Q 3884 3275 3436 3711 
Q 2988 4147 2022 4147 
L 1259 4147 
z
M 628 4666 
L 1925 4666 
Q 3281 4666 3915 4102 
Q 4550 3538 4550 2338 
Q 4550 1131 3912 565 
Q 3275 0 1925 0 
L 628 0 
L 628 4666 
z
" transform="scale(0.015625)"/>
       <path id="DejaVuSans-69" d="M 603 3500 
L 1178 3500 
L 1178 0 
L 603 0 
L 603 3500 
z
M 603 4863 
L 1178 4863 
L 1178 4134 
L 603 4134 
L 603 4863 
z
" transform="scale(0.015625)"/>
       <path id="DejaVuSans-73" d="M 2834 3397 
L 2834 2853 
Q 2591 2978 2328 3040 
Q 2066 3103 1784 3103 
Q 1356 3103 1142 2972 
Q 928 2841 928 2578 
Q 928 2378 1081 2264 
Q 1234 2150 1697 2047 
L 1894 2003 
Q 2506 1872 2764 1633 
Q 3022 1394 3022 966 
Q 3022 478 2636 193 
Q 2250 -91 1575 -91 
Q 1294 -91 989 -36 
Q 684 19 347 128 
L 347 722 
Q 666 556 975 473 
Q 1284 391 1588 391 
Q 1994 391 2212 530 
Q 2431 669 2431 922 
Q 2431 1156 2273 1281 
Q 2116 1406 1581 1522 
L 1381 1569 
Q 847 1681 609 1914 
Q 372 2147 372 2553 
Q 372 3047 722 3315 
Q 1072 3584 1716 3584 
Q 2034 3584 2315 3537 
Q 2597 3491 2834 3397 
z
" transform="scale(0.015625)"/>
       <path id="DejaVuSans-74" d="M 1172 4494 
L 1172 3500 
L 2356 3500 
L 2356 3053 
L 1172 3053 
L 1172 1153 
Q 1172 725 1289 603 
Q 1406 481 1766 481 
L 2356 481 
L 2356 0 
L 1766 0 
Q 1100 0 847 248 
Q 594 497 594 1153 
L 594 3053 
L 172 3053 
L 172 3500 
L 594 3500 
L 594 4494 
L 1172 4494 
z
" transform="scale(0.015625)"/>
       <path id="DejaVuSans-61" d="M 2194 1759 
Q 1497 1759 1228 1600 
Q 959 1441 959 1056 
Q 959 750 1161 570 
Q 1363 391 1709 391 
Q 2188 391 2477 730 
Q 2766 1069 2766 1631 
L 2766 1759 
L 2194 1759 
z
M 3341 1997 
L 3341 0 
L 2766 0 
L 2766 531 
Q 2569 213 2275 61 
Q 1981 -91 1556 -91 
Q 1019 -91 701 211 
Q 384 513 384 1019 
Q 384 1609 779 1909 
Q 1175 2209 1959 2209 
L 2766 2209 
L 2766 2266 
Q 2766 2663 2505 2880 
Q 2244 3097 1772 3097 
Q 1472 3097 1187 3025 
Q 903 2953 641 2809 
L 641 3341 
Q 956 3463 1253 3523 
Q 1550 3584 1831 3584 
Q 2591 3584 2966 3190 
Q 3341 2797 3341 1997 
z
" transform="scale(0.015625)"/>
       <path id="DejaVuSans-6e" d="M 3513 2113 
L 3513 0 
L 2938 0 
L 2938 2094 
Q 2938 2591 2744 2837 
Q 2550 3084 2163 3084 
Q 1697 3084 1428 2787 
Q 1159 2491 1159 1978 
L 1159 0 
L 581 0 
L 581 3500 
L 1159 3500 
L 1159 2956 
Q 1366 3272 1645 3428 
Q 1925 3584 2291 3584 
Q 2894 3584 3203 3211 
Q 3513 2838 3513 2113 
z
" transform="scale(0.015625)"/>
       <path id="DejaVuSans-63" d="M 3122 3366 
L 3122 2828 
Q 2878 2963 2633 3030 
Q 2388 3097 2138 3097 
Q 1578 3097 1268 2742 
Q 959 2388 959 1747 
Q 959 1106 1268 751 
Q 1578 397 2138 397 
Q 2388 397 2633 464 
Q 2878 531 3122 666 
L 3122 134 
Q 2881 22 2623 -34 
Q 2366 -91 2075 -91 
Q 1284 -91 818 406 
Q 353 903 353 1747 
Q 353 2603 823 3093 
Q 1294 3584 2113 3584 
Q 2378 3584 2631 3529 
Q 2884 3475 3122 3366 
z
" transform="scale(0.015625)"/>
       <path id="DejaVuSans-65" d="M 3597 1894 
L 3597 1613 
L 953 1613 
Q 991 1019 1311 708 
Q 1631 397 2203 397 
Q 2534 397 2845 478 
Q 3156 559 3463 722 
L 3463 178 
Q 3153 47 2828 -22 
Q 2503 -91 2169 -91 
Q 1331 -91 842 396 
Q 353 884 353 1716 
Q 353 2575 817 3079 
Q 1281 3584 2069 3584 
Q 2775 3584 3186 3129 
Q 3597 2675 3597 1894 
z
M 3022 2063 
Q 3016 2534 2758 2815 
Q 2500 3097 2075 3097 
Q 1594 3097 1305 2825 
Q 1016 2553 972 2059 
L 3022 2063 
z
" transform="scale(0.015625)"/>
      </defs>
      <use xlink:href="#DejaVuSans-44"/>
      <use xlink:href="#DejaVuSans-69" transform="translate(77.001953 0)"/>
      <use xlink:href="#DejaVuSans-73" transform="translate(104.785156 0)"/>
      <use xlink:href="#DejaVuSans-74" transform="translate(156.884766 0)"/>
      <use xlink:href="#DejaVuSans-61" transform="translate(196.09375 0)"/>
      <use xlink:href="#DejaVuSans-6e" transform="translate(257.373047 0)"/>
      <use xlink:href="#DejaVuSans-63" transform="translate(320.751953 0)"/>
      <use xlink:href="#DejaVuSans-65" transform="translate(375.732422 0)"/>
     </g>
    </g>
   </g>
   <g id="matplotlib.axis_2">
    <g id="ytick_1">
     <g id="line2d_15">
      <path d="M 44.086875 209.940657 
L 692.323963 209.940657 
" clip-path="url(#p78e0a5cc3a)" style="fill: none; stroke: #ffffff; stroke-width: 0.8; stroke-linecap: square"/>
     </g>
     <g id="line2d_16">
      <defs>
       <path id="m6ba2257701" d="M 0 0 
L -4.8 0 
" style="stroke: #555555"/>
      </defs>
      <g>
       <use xlink:href="#m6ba2257701" x="44.086875" y="209.940657" style="fill: #555555; stroke: #555555"/>
      </g>
     </g>
     <g id="text_2">
      <!-- −4 -->
      <g style="fill: #555555" transform="translate(22.81375 213.283969) scale(0.088 -0.088)">
       <defs>
        <path id="DejaVuSans-2212" d="M 678 2272 
L 4684 2272 
L 4684 1741 
L 678 1741 
L 678 2272 
z
" transform="scale(0.015625)"/>
        <path id="DejaVuSans-34" d="M 2419 4116 
L 825 1625 
L 2419 1625 
L 2419 4116 
z
M 2253 4666 
L 3047 4666 
L 3047 1625 
L 3713 1625 
L 3713 1100 
L 3047 1100 
L 3047 0 
L 2419 0 
L 2419 1100 
L 313 1100 
L 313 1709 
L 2253 4666 
z
" transform="scale(0.015625)"/>
       </defs>
       <use xlink:href="#DejaVuSans-2212"/>
       <use xlink:href="#DejaVuSans-34" transform="translate(83.789062 0)"/>
      </g>
     </g>
    </g>
    <g id="ytick_2">
     <g id="line2d_17">
      <path d="M 44.086875 166.401962 
L 692.323963 166.401962 
" clip-path="url(#p78e0a5cc3a)" style="fill: none; stroke: #ffffff; stroke-width: 0.8; stroke-linecap: square"/>
     </g>
     <g id="line2d_18">
      <g>
       <use xlink:href="#m6ba2257701" x="44.086875" y="166.401962" style="fill: #555555; stroke: #555555"/>
      </g>
     </g>
     <g id="text_3">
      <!-- −2 -->
      <g style="fill: #555555" transform="translate(22.81375 169.745274) scale(0.088 -0.088)">
       <defs>
        <path id="DejaVuSans-32" d="M 1228 531 
L 3431 531 
L 3431 0 
L 469 0 
L 469 531 
Q 828 903 1448 1529 
Q 2069 2156 2228 2338 
Q 2531 2678 2651 2914 
Q 2772 3150 2772 3378 
Q 2772 3750 2511 3984 
Q 2250 4219 1831 4219 
Q 1534 4219 1204 4116 
Q 875 4013 500 3803 
L 500 4441 
Q 881 4594 1212 4672 
Q 1544 4750 1819 4750 
Q 2544 4750 2975 4387 
Q 3406 4025 3406 3419 
Q 3406 3131 3298 2873 
Q 3191 2616 2906 2266 
Q 2828 2175 2409 1742 
Q 1991 1309 1228 531 
z
" transform="scale(0.015625)"/>
       </defs>
       <use xlink:href="#DejaVuSans-2212"/>
       <use xlink:href="#DejaVuSans-32" transform="translate(83.789062 0)"/>
      </g>
     </g>
    </g>
    <g id="ytick_3">
     <g id="line2d_19">
      <path d="M 44.086875 122.863267 
L 692.323963 122.863267 
" clip-path="url(#p78e0a5cc3a)" style="fill: none; stroke: #ffffff; stroke-width: 0.8; stroke-linecap: square"/>
     </g>
     <g id="line2d_20">
      <g>
       <use xlink:href="#m6ba2257701" x="44.086875" y="122.863267" style="fill: #555555; stroke: #555555"/>
      </g>
     </g>
     <g id="text_4">
      <!-- 0 -->
      <g style="fill: #555555" transform="translate(30.187875 126.206579) scale(0.088 -0.088)">
       <defs>
        <path id="DejaVuSans-30" d="M 2034 4250 
Q 1547 4250 1301 3770 
Q 1056 3291 1056 2328 
Q 1056 1369 1301 889 
Q 1547 409 2034 409 
Q 2525 409 2770 889 
Q 3016 1369 3016 2328 
Q 3016 3291 2770 3770 
Q 2525 4250 2034 4250 
z
M 2034 4750 
Q 2819 4750 3233 4129 
Q 3647 3509 3647 2328 
Q 3647 1150 3233 529 
Q 2819 -91 2034 -91 
Q 1250 -91 836 529 
Q 422 1150 422 2328 
Q 422 3509 836 4129 
Q 1250 4750 2034 4750 
z
" transform="scale(0.015625)"/>
       </defs>
       <use xlink:href="#DejaVuSans-30"/>
      </g>
     </g>
    </g>
    <g id="ytick_4">
     <g id="line2d_21">
      <path d="M 44.086875 79.324571 
L 692.323963 79.324571 
" clip-path="url(#p78e0a5cc3a)" style="fill: none; stroke: #ffffff; stroke-width: 0.8; stroke-linecap: square"/>
     </g>
     <g id="line2d_22">
      <g>
       <use xlink:href="#m6ba2257701" x="44.086875" y="79.324571" style="fill: #555555; stroke: #555555"/>
      </g>
     </g>
     <g id="text_5">
      <!-- 2 -->
      <g style="fill: #555555" transform="translate(30.187875 82.667884) scale(0.088 -0.088)">
       <use xlink:href="#DejaVuSans-32"/>
      </g>
     </g>
    </g>
    <g id="ytick_5">
     <g id="line2d_23">
      <path d="M 44.086875 35.785876 
L 692.323963 35.785876 
" clip-path="url(#p78e0a5cc3a)" style="fill: none; stroke: #ffffff; stroke-width: 0.8; stroke-linecap: square"/>
     </g>
     <g id="line2d_24">
      <g>
       <use xlink:href="#m6ba2257701" x="44.086875" y="35.785876" style="fill: #555555; stroke: #555555"/>
      </g>
     </g>
     <g id="text_6">
      <!-- 4 -->
      <g style="fill: #555555" transform="translate(30.187875 39.129189) scale(0.088 -0.088)">
       <use xlink:href="#DejaVuSans-34"/>
      </g>
     </g>
    </g>
    <g id="text_7">
     <!-- Density -->
     <g style="fill: #555555" transform="translate(16.318125 158.433125) rotate(-90) scale(0.12 -0.12)">
      <defs>
       <path id="DejaVuSans-79" d="M 2059 -325 
Q 1816 -950 1584 -1140 
Q 1353 -1331 966 -1331 
L 506 -1331 
L 506 -850 
L 844 -850 
Q 1081 -850 1212 -737 
Q 1344 -625 1503 -206 
L 1606 56 
L 191 3500 
L 800 3500 
L 1894 763 
L 2988 3500 
L 3597 3500 
L 2059 -325 
z
" transform="scale(0.015625)"/>
      </defs>
      <use xlink:href="#DejaVuSans-44"/>
      <use xlink:href="#DejaVuSans-65" transform="translate(77.001953 0)"/>
      <use xlink:href="#DejaVuSans-6e" transform="translate(138.525391 0)"/>
      <use xlink:href="#DejaVuSans-73" transform="translate(201.904297 0)"/>
      <use xlink:href="#DejaVuSans-69" transform="translate(254.003906 0)"/>
      <use xlink:href="#DejaVuSans-74" transform="translate(281.787109 0)"/>
      <use xlink:href="#DejaVuSans-79" transform="translate(320.996094 0)"/>
     </g>
    </g>
    <g id="text_8">
     <!-- 1e−6 -->
     <g style="fill: #555555" transform="translate(44.086875 20.837812) scale(0.088 -0.088)">
      <defs>
       <path id="DejaVuSans-31" d="M 794 531 
L 1825 531 
L 1825 4091 
L 703 3866 
L 703 4441 
L 1819 4666 
L 2450 4666 
L 2450 531 
L 3481 531 
L 3481 0 
L 794 0 
L 794 531 
z
" transform="scale(0.015625)"/>
       <path id="DejaVuSans-36" d="M 2113 2584 
Q 1688 2584 1439 2293 
Q 1191 2003 1191 1497 
Q 1191 994 1439 701 
Q 1688 409 2113 409 
Q 2538 409 2786 701 
Q 3034 994 3034 1497 
Q 3034 2003 2786 2293 
Q 2538 2584 2113 2584 
z
M 3366 4563 
L 3366 3988 
Q 3128 4100 2886 4159 
Q 2644 4219 2406 4219 
Q 1781 4219 1451 3797 
Q 1122 3375 1075 2522 
Q 1259 2794 1537 2939 
Q 1816 3084 2150 3084 
Q 2853 3084 3261 2657 
Q 3669 2231 3669 1497 
Q 3669 778 3244 343 
Q 2819 -91 2113 -91 
Q 1303 -91 875 529 
Q 447 1150 447 2328 
Q 447 3434 972 4092 
Q 1497 4750 2381 4750 
Q 2619 4750 2861 4703 
Q 3103 4656 3366 4563 
z
" transform="scale(0.015625)"/>
      </defs>
      <use xlink:href="#DejaVuSans-31"/>
      <use xlink:href="#DejaVuSans-65" transform="translate(63.623047 0)"/>
      <use xlink:href="#DejaVuSans-2212" transform="translate(125.146484 0)"/>
      <use xlink:href="#DejaVuSans-36" transform="translate(208.935547 0)"/>
     </g>
    </g>
   </g>
   <g id="FillBetweenPolyCollection_1">
    <defs>
     <path id="m608414b981" d="M 73.552197 -477.624984 
L 73.552197 -460.06225 
L 85.557242 -466.389705 
L 97.562287 -433.997763 
L 109.567332 -394.953646 
L 121.572376 -359.391987 
L 133.577421 -330.542988 
L 145.582466 -346.302726 
L 157.587511 -348.078777 
L 169.592556 -334.607166 
L 181.597601 -336.274341 
L 193.602645 -343.786449 
L 205.60769 -335.467465 
L 217.612735 -324.882773 
L 229.61778 -336.091649 
L 241.622825 -374.029467 
L 253.62787 -431.266564 
L 265.632914 -459.393352 
L 277.637959 -459.095767 
L 289.643004 -455.042521 
L 301.648049 -448.486095 
L 313.653094 -438.106863 
L 325.658139 -426.850243 
L 337.663183 -427.61069 
L 349.668228 -429.783259 
L 361.673273 -428.422392 
L 373.678318 -430.459822 
L 385.683363 -427.362035 
L 397.688407 -419.69916 
L 409.693452 -416.874959 
L 421.698497 -421.902933 
L 433.703542 -428.185431 
L 445.708587 -434.030384 
L 457.713632 -435.612174 
L 469.718676 -435.243513 
L 481.723721 -431.06138 
L 493.728766 -426.168314 
L 505.733811 -420.073502 
L 517.738856 -418.315451 
L 529.743901 -418.020494 
L 541.748945 -419.745462 
L 553.75399 -422.539492 
L 565.759035 -425.546522 
L 577.76408 -427.791268 
L 589.769125 -429.817928 
L 601.774169 -431.228528 
L 613.779214 -432.60431 
L 625.784259 -433.945002 
L 637.789304 -434.785276 
L 649.794349 -435.79051 
L 661.799394 -436.417601 
L 661.799394 -439.091376 
L 661.799394 -439.091376 
L 649.794349 -439.031049 
L 637.789304 -438.923749 
L 625.784259 -438.601558 
L 613.779214 -438.279761 
L 601.774169 -437.839123 
L 589.769125 -437.209456 
L 577.76408 -436.438726 
L 565.759035 -435.314855 
L 553.75399 -433.928135 
L 541.748945 -432.43373 
L 529.743901 -432.839416 
L 517.738856 -435.387112 
L 505.733811 -441.884666 
L 493.728766 -451.092466 
L 481.723721 -462.480007 
L 469.718676 -472.014451 
L 457.713632 -475.270552 
L 445.708587 -475.758539 
L 433.703542 -474.871733 
L 421.698497 -471.778287 
L 409.693452 -470.515494 
L 397.688407 -478.79501 
L 385.683363 -486.987878 
L 373.678318 -490.607379 
L 361.673273 -494.476205 
L 349.668228 -496.898124 
L 337.663183 -497.955225 
L 325.658139 -497.833189 
L 313.653094 -506.238219 
L 301.648049 -519.57291 
L 289.643004 -521.049913 
L 277.637959 -524.011486 
L 265.632914 -528.128227 
L 253.62787 -495.445497 
L 241.622825 -439.778103 
L 229.61778 -404.758695 
L 217.612735 -398.868365 
L 205.60769 -417.870793 
L 193.602645 -439.262371 
L 181.597601 -450.275148 
L 169.592556 -456.214456 
L 157.587511 -480.358803 
L 145.582466 -470.094108 
L 133.577421 -456.276657 
L 121.572376 -471.139911 
L 109.567332 -491.476322 
L 97.562287 -504.845828 
L 85.557242 -508.719866 
L 73.552197 -477.624984 
z
" style="stroke: #0000ff; stroke-opacity: 0.2; stroke-width: 0.8"/>
    </defs>
    <g clip-path="url(#p78e0a5cc3a)">
     <use xlink:href="#m608414b981" x="0" y="562.128312" style="fill: #0000ff; fill-opacity: 0.2; stroke: #0000ff; stroke-opacity: 0.2; stroke-width: 0.8"/>
    </g>
   </g>
   <g id="line2d_25">
    <path d="M 73.552197 93.710535 
L 85.557242 74.515987 
L 97.562287 92.618204 
L 109.567332 118.945171 
L 121.572376 147.625244 
L 133.577421 169.139718 
L 145.582466 155.582353 
L 157.587511 150.845246 
L 169.592556 169.375387 
L 181.597601 169.582679 
L 193.602645 171.828125 
L 205.60769 185.657935 
L 217.612735 197.801159 
L 229.61778 191.865514 
L 241.622825 155.168563 
L 253.62787 100.230542 
L 265.632914 67.425155 
L 277.637959 69.611975 
L 289.643004 74.342185 
L 301.648049 76.820117 
L 313.653094 87.788145 
L 325.658139 99.079583 
L 337.663183 98.002467 
L 349.668228 98.028213 
L 361.673273 99.635546 
L 373.678318 100.713347 
L 385.683363 104.106093 
L 397.688407 112.554742 
L 409.693452 117.876127 
L 421.698497 114.852911 
L 433.703542 109.667393 
L 445.708587 107.254773 
L 457.713632 106.806471 
L 469.718676 108.434114 
L 481.723721 115.102007 
L 493.728766 123.671054 
L 505.733811 130.956057 
L 517.738856 134.797857 
L 529.743901 136.00569 
L 541.748945 135.110405 
L 553.75399 132.993114 
L 565.759035 130.891087 
L 577.76408 129.163161 
L 589.769125 127.805533 
L 601.774169 126.707992 
L 613.779214 125.834767 
L 625.784259 125.16787 
L 637.789304 124.631205 
L 649.794349 124.208292 
L 661.799394 123.87207 
" clip-path="url(#p78e0a5cc3a)" style="fill: none; stroke: #0000ff; stroke-width: 1.2; stroke-linecap: square"/>
   </g>
   <g id="patch_3">
    <path d="M 44.086875 247.407813 
L 44.086875 23.837812 
" style="fill: none; stroke: #ffffff; stroke-linejoin: miter; stroke-linecap: square"/>
   </g>
   <g id="patch_4">
    <path d="M 692.323963 247.407813 
L 692.323963 23.837812 
" style="fill: none; stroke: #ffffff; stroke-linejoin: miter; stroke-linecap: square"/>
   </g>
   <g id="patch_5">
    <path d="M 44.086875 247.407813 
L 692.323963 247.407813 
" style="fill: none; stroke: #ffffff; stroke-linejoin: miter; stroke-linecap: square"/>
   </g>
   <g id="patch_6">
    <path d="M 44.086875 23.837812 
L 692.323963 23.837812 
" style="fill: none; stroke: #ffffff; stroke-linejoin: miter; stroke-linecap: square"/>
   </g>
   <g id="text_9">
    <!-- Diff Array Angkor (Scaled) -->
    <g transform="translate(277.044638 17.837812) scale(0.14 -0.14)">
     <defs>
      <path id="DejaVuSans-66" d="M 2375 4863 
L 2375 4384 
L 1825 4384 
Q 1516 4384 1395 4259 
Q 1275 4134 1275 3809 
L 1275 3500 
L 2222 3500 
L 2222 3053 
L 1275 3053 
L 1275 0 
L 697 0 
L 697 3053 
L 147 3053 
L 147 3500 
L 697 3500 
L 697 3744 
Q 697 4328 969 4595 
Q 1241 4863 1831 4863 
L 2375 4863 
z
" transform="scale(0.015625)"/>
      <path id="DejaVuSans-20" transform="scale(0.015625)"/>
      <path id="DejaVuSans-41" d="M 2188 4044 
L 1331 1722 
L 3047 1722 
L 2188 4044 
z
M 1831 4666 
L 2547 4666 
L 4325 0 
L 3669 0 
L 3244 1197 
L 1141 1197 
L 716 0 
L 50 0 
L 1831 4666 
z
" transform="scale(0.015625)"/>
      <path id="DejaVuSans-72" d="M 2631 2963 
Q 2534 3019 2420 3045 
Q 2306 3072 2169 3072 
Q 1681 3072 1420 2755 
Q 1159 2438 1159 1844 
L 1159 0 
L 581 0 
L 581 3500 
L 1159 3500 
L 1159 2956 
Q 1341 3275 1631 3429 
Q 1922 3584 2338 3584 
Q 2397 3584 2469 3576 
Q 2541 3569 2628 3553 
L 2631 2963 
z
" transform="scale(0.015625)"/>
      <path id="DejaVuSans-67" d="M 2906 1791 
Q 2906 2416 2648 2759 
Q 2391 3103 1925 3103 
Q 1463 3103 1205 2759 
Q 947 2416 947 1791 
Q 947 1169 1205 825 
Q 1463 481 1925 481 
Q 2391 481 2648 825 
Q 2906 1169 2906 1791 
z
M 3481 434 
Q 3481 -459 3084 -895 
Q 2688 -1331 1869 -1331 
Q 1566 -1331 1297 -1286 
Q 1028 -1241 775 -1147 
L 775 -588 
Q 1028 -725 1275 -790 
Q 1522 -856 1778 -856 
Q 2344 -856 2625 -561 
Q 2906 -266 2906 331 
L 2906 616 
Q 2728 306 2450 153 
Q 2172 0 1784 0 
Q 1141 0 747 490 
Q 353 981 353 1791 
Q 353 2603 747 3093 
Q 1141 3584 1784 3584 
Q 2172 3584 2450 3431 
Q 2728 3278 2906 2969 
L 2906 3500 
L 3481 3500 
L 3481 434 
z
" transform="scale(0.015625)"/>
      <path id="DejaVuSans-6b" d="M 581 4863 
L 1159 4863 
L 1159 1991 
L 2875 3500 
L 3609 3500 
L 1753 1863 
L 3688 0 
L 2938 0 
L 1159 1709 
L 1159 0 
L 581 0 
L 581 4863 
z
" transform="scale(0.015625)"/>
      <path id="DejaVuSans-6f" d="M 1959 3097 
Q 1497 3097 1228 2736 
Q 959 2375 959 1747 
Q 959 1119 1226 758 
Q 1494 397 1959 397 
Q 2419 397 2687 759 
Q 2956 1122 2956 1747 
Q 2956 2369 2687 2733 
Q 2419 3097 1959 3097 
z
M 1959 3584 
Q 2709 3584 3137 3096 
Q 3566 2609 3566 1747 
Q 3566 888 3137 398 
Q 2709 -91 1959 -91 
Q 1206 -91 779 398 
Q 353 888 353 1747 
Q 353 2609 779 3096 
Q 1206 3584 1959 3584 
z
" transform="scale(0.015625)"/>
      <path id="DejaVuSans-28" d="M 1984 4856 
Q 1566 4138 1362 3434 
Q 1159 2731 1159 2009 
Q 1159 1288 1364 580 
Q 1569 -128 1984 -844 
L 1484 -844 
Q 1016 -109 783 600 
Q 550 1309 550 2009 
Q 550 2706 781 3412 
Q 1013 4119 1484 4856 
L 1984 4856 
z
" transform="scale(0.015625)"/>
      <path id="DejaVuSans-53" d="M 3425 4513 
L 3425 3897 
Q 3066 4069 2747 4153 
Q 2428 4238 2131 4238 
Q 1616 4238 1336 4038 
Q 1056 3838 1056 3469 
Q 1056 3159 1242 3001 
Q 1428 2844 1947 2747 
L 2328 2669 
Q 3034 2534 3370 2195 
Q 3706 1856 3706 1288 
Q 3706 609 3251 259 
Q 2797 -91 1919 -91 
Q 1588 -91 1214 -16 
Q 841 59 441 206 
L 441 856 
Q 825 641 1194 531 
Q 1563 422 1919 422 
Q 2459 422 2753 634 
Q 3047 847 3047 1241 
Q 3047 1584 2836 1778 
Q 2625 1972 2144 2069 
L 1759 2144 
Q 1053 2284 737 2584 
Q 422 2884 422 3419 
Q 422 4038 858 4394 
Q 1294 4750 2059 4750 
Q 2388 4750 2728 4690 
Q 3069 4631 3425 4513 
z
" transform="scale(0.015625)"/>
      <path id="DejaVuSans-6c" d="M 603 4863 
L 1178 4863 
L 1178 0 
L 603 0 
L 603 4863 
z
" transform="scale(0.015625)"/>
      <path id="DejaVuSans-64" d="M 2906 2969 
L 2906 4863 
L 3481 4863 
L 3481 0 
L 2906 0 
L 2906 525 
Q 2725 213 2448 61 
Q 2172 -91 1784 -91 
Q 1150 -91 751 415 
Q 353 922 353 1747 
Q 353 2572 751 3078 
Q 1150 3584 1784 3584 
Q 2172 3584 2448 3432 
Q 2725 3281 2906 2969 
z
M 947 1747 
Q 947 1113 1208 752 
Q 1469 391 1925 391 
Q 2381 391 2643 752 
Q 2906 1113 2906 1747 
Q 2906 2381 2643 2742 
Q 2381 3103 1925 3103 
Q 1469 3103 1208 2742 
Q 947 2381 947 1747 
z
" transform="scale(0.015625)"/>
      <path id="DejaVuSans-29" d="M 513 4856 
L 1013 4856 
Q 1481 4119 1714 3412 
Q 1947 2706 1947 2009 
Q 1947 1309 1714 600 
Q 1481 -109 1013 -844 
L 513 -844 
Q 928 -128 1133 580 
Q 1338 1288 1338 2009 
Q 1338 2731 1133 3434 
Q 928 4138 513 4856 
z
" transform="scale(0.015625)"/>
     </defs>
     <use xlink:href="#DejaVuSans-44"/>
     <use xlink:href="#DejaVuSans-69" transform="translate(77.001953 0)"/>
     <use xlink:href="#DejaVuSans-66" transform="translate(104.785156 0)"/>
     <use xlink:href="#DejaVuSans-66" transform="translate(139.990234 0)"/>
     <use xlink:href="#DejaVuSans-20" transform="translate(175.195312 0)"/>
     <use xlink:href="#DejaVuSans-41" transform="translate(206.982422 0)"/>
     <use xlink:href="#DejaVuSans-72" transform="translate(275.390625 0)"/>
     <use xlink:href="#DejaVuSans-72" transform="translate(314.753906 0)"/>
     <use xlink:href="#DejaVuSans-61" transform="translate(355.867188 0)"/>
     <use xlink:href="#DejaVuSans-79" transform="translate(417.146484 0)"/>
     <use xlink:href="#DejaVuSans-20" transform="translate(476.326172 0)"/>
     <use xlink:href="#DejaVuSans-41" transform="translate(508.113281 0)"/>
     <use xlink:href="#DejaVuSans-6e" transform="translate(576.521484 0)"/>
     <use xlink:href="#DejaVuSans-67" transform="translate(639.900391 0)"/>
     <use xlink:href="#DejaVuSans-6b" transform="translate(703.376953 0)"/>
     <use xlink:href="#DejaVuSans-6f" transform="translate(757.662109 0)"/>
     <use xlink:href="#DejaVuSans-72" transform="translate(818.84375 0)"/>
     <use xlink:href="#DejaVuSans-20" transform="translate(859.957031 0)"/>
     <use xlink:href="#DejaVuSans-28" transform="translate(891.744141 0)"/>
     <use xlink:href="#DejaVuSans-53" transform="translate(930.757812 0)"/>
     <use xlink:href="#DejaVuSans-63" transform="translate(994.234375 0)"/>
     <use xlink:href="#DejaVuSans-61" transform="translate(1049.214844 0)"/>
     <use xlink:href="#DejaVuSans-6c" transform="translate(1110.494141 0)"/>
     <use xlink:href="#DejaVuSans-65" transform="translate(1138.277344 0)"/>
     <use xlink:href="#DejaVuSans-64" transform="translate(1199.800781 0)"/>
     <use xlink:href="#DejaVuSans-29" transform="translate(1263.277344 0)"/>
    </g>
   </g>
   <g id="legend_1">
    <g id="line2d_26">
     <path d="M 569.330213 36.93625 
L 579.330213 36.93625 
L 589.330213 36.93625 
" style="fill: none; stroke: #0000ff; stroke-width: 1.2; stroke-linecap: square"/>
    </g>
    <g id="text_10">
     <!-- Diff Array Angkor -->
     <g transform="translate(597.330213 40.43625) scale(0.1 -0.1)">
      <use xlink:href="#DejaVuSans-44"/>
      <use xlink:href="#DejaVuSans-69" transform="translate(77.001953 0)"/>
      <use xlink:href="#DejaVuSans-66" transform="translate(104.785156 0)"/>
      <use xlink:href="#DejaVuSans-66" transform="translate(139.990234 0)"/>
      <use xlink:href="#DejaVuSans-20" transform="translate(175.195312 0)"/>
      <use xlink:href="#DejaVuSans-41" transform="translate(206.982422 0)"/>
      <use xlink:href="#DejaVuSans-72" transform="translate(275.390625 0)"/>
      <use xlink:href="#DejaVuSans-72" transform="translate(314.753906 0)"/>
      <use xlink:href="#DejaVuSans-61" transform="translate(355.867188 0)"/>
      <use xlink:href="#DejaVuSans-79" transform="translate(417.146484 0)"/>
      <use xlink:href="#DejaVuSans-20" transform="translate(476.326172 0)"/>
      <use xlink:href="#DejaVuSans-41" transform="translate(508.113281 0)"/>
      <use xlink:href="#DejaVuSans-6e" transform="translate(576.521484 0)"/>
      <use xlink:href="#DejaVuSans-67" transform="translate(639.900391 0)"/>
      <use xlink:href="#DejaVuSans-6b" transform="translate(703.376953 0)"/>
      <use xlink:href="#DejaVuSans-6f" transform="translate(757.662109 0)"/>
      <use xlink:href="#DejaVuSans-72" transform="translate(818.84375 0)"/>
     </g>
    </g>
   </g>
  </g>
  <g id="axes_2">
   <g id="patch_7">
    <path d="M 44.086875 522.497813 
L 692.323963 522.497813 
L 692.323963 298.927812 
L 44.086875 298.927812 
z
" style="fill: #e5e5e5"/>
   </g>
   <g id="matplotlib.axis_3">
    <g id="xtick_8">
     <g id="line2d_27">
      <path d="M 73.552197 522.497813 
L 73.552197 298.927812 
" clip-path="url(#pef3f141097)" style="fill: none; stroke: #ffffff; stroke-width: 0.8; stroke-linecap: square"/>
     </g>
     <g id="line2d_28">
      <g>
       <use xlink:href="#me9c6523073" x="73.552197" y="522.497813" style="fill: #555555; stroke: #555555"/>
      </g>
     </g>
     <g id="text_11">
      <!-- 0 -->
      <g style="fill: #555555" transform="translate(70.752697 537.484438) scale(0.088 -0.088)">
       <use xlink:href="#DejaVuSans-30"/>
      </g>
     </g>
    </g>
    <g id="xtick_9">
     <g id="line2d_29">
      <path d="M 174.915582 522.497813 
L 174.915582 298.927812 
" clip-path="url(#pef3f141097)" style="fill: none; stroke: #ffffff; stroke-width: 0.8; stroke-linecap: square"/>
     </g>
     <g id="line2d_30">
      <g>
       <use xlink:href="#me9c6523073" x="174.915582" y="522.497813" style="fill: #555555; stroke: #555555"/>
      </g>
     </g>
     <g id="text_12">
      <!-- 20000 -->
      <g style="fill: #555555" transform="translate(160.918082 537.484438) scale(0.088 -0.088)">
       <use xlink:href="#DejaVuSans-32"/>
       <use xlink:href="#DejaVuSans-30" transform="translate(63.623047 0)"/>
       <use xlink:href="#DejaVuSans-30" transform="translate(127.246094 0)"/>
       <use xlink:href="#DejaVuSans-30" transform="translate(190.869141 0)"/>
       <use xlink:href="#DejaVuSans-30" transform="translate(254.492188 0)"/>
      </g>
     </g>
    </g>
    <g id="xtick_10">
     <g id="line2d_31">
      <path d="M 276.278966 522.497813 
L 276.278966 298.927812 
" clip-path="url(#pef3f141097)" style="fill: none; stroke: #ffffff; stroke-width: 0.8; stroke-linecap: square"/>
     </g>
     <g id="line2d_32">
      <g>
       <use xlink:href="#me9c6523073" x="276.278966" y="522.497813" style="fill: #555555; stroke: #555555"/>
      </g>
     </g>
     <g id="text_13">
      <!-- 40000 -->
      <g style="fill: #555555" transform="translate(262.281466 537.484438) scale(0.088 -0.088)">
       <use xlink:href="#DejaVuSans-34"/>
       <use xlink:href="#DejaVuSans-30" transform="translate(63.623047 0)"/>
       <use xlink:href="#DejaVuSans-30" transform="translate(127.246094 0)"/>
       <use xlink:href="#DejaVuSans-30" transform="translate(190.869141 0)"/>
       <use xlink:href="#DejaVuSans-30" transform="translate(254.492188 0)"/>
      </g>
     </g>
    </g>
    <g id="xtick_11">
     <g id="line2d_33">
      <path d="M 377.64235 522.497813 
L 377.64235 298.927812 
" clip-path="url(#pef3f141097)" style="fill: none; stroke: #ffffff; stroke-width: 0.8; stroke-linecap: square"/>
     </g>
     <g id="line2d_34">
      <g>
       <use xlink:href="#me9c6523073" x="377.64235" y="522.497813" style="fill: #555555; stroke: #555555"/>
      </g>
     </g>
     <g id="text_14">
      <!-- 60000 -->
      <g style="fill: #555555" transform="translate(363.64485 537.484438) scale(0.088 -0.088)">
       <use xlink:href="#DejaVuSans-36"/>
       <use xlink:href="#DejaVuSans-30" transform="translate(63.623047 0)"/>
       <use xlink:href="#DejaVuSans-30" transform="translate(127.246094 0)"/>
       <use xlink:href="#DejaVuSans-30" transform="translate(190.869141 0)"/>
       <use xlink:href="#DejaVuSans-30" transform="translate(254.492188 0)"/>
      </g>
     </g>
    </g>
    <g id="xtick_12">
     <g id="line2d_35">
      <path d="M 479.005734 522.497813 
L 479.005734 298.927812 
" clip-path="url(#pef3f141097)" style="fill: none; stroke: #ffffff; stroke-width: 0.8; stroke-linecap: square"/>
     </g>
     <g id="line2d_36">
      <g>
       <use xlink:href="#me9c6523073" x="479.005734" y="522.497813" style="fill: #555555; stroke: #555555"/>
      </g>
     </g>
     <g id="text_15">
      <!-- 80000 -->
      <g style="fill: #555555" transform="translate(465.008234 537.484438) scale(0.088 -0.088)">
       <defs>
        <path id="DejaVuSans-38" d="M 2034 2216 
Q 1584 2216 1326 1975 
Q 1069 1734 1069 1313 
Q 1069 891 1326 650 
Q 1584 409 2034 409 
Q 2484 409 2743 651 
Q 3003 894 3003 1313 
Q 3003 1734 2745 1975 
Q 2488 2216 2034 2216 
z
M 1403 2484 
Q 997 2584 770 2862 
Q 544 3141 544 3541 
Q 544 4100 942 4425 
Q 1341 4750 2034 4750 
Q 2731 4750 3128 4425 
Q 3525 4100 3525 3541 
Q 3525 3141 3298 2862 
Q 3072 2584 2669 2484 
Q 3125 2378 3379 2068 
Q 3634 1759 3634 1313 
Q 3634 634 3220 271 
Q 2806 -91 2034 -91 
Q 1263 -91 848 271 
Q 434 634 434 1313 
Q 434 1759 690 2068 
Q 947 2378 1403 2484 
z
M 1172 3481 
Q 1172 3119 1398 2916 
Q 1625 2713 2034 2713 
Q 2441 2713 2670 2916 
Q 2900 3119 2900 3481 
Q 2900 3844 2670 4047 
Q 2441 4250 2034 4250 
Q 1625 4250 1398 4047 
Q 1172 3844 1172 3481 
z
" transform="scale(0.015625)"/>
       </defs>
       <use xlink:href="#DejaVuSans-38"/>
       <use xlink:href="#DejaVuSans-30" transform="translate(63.623047 0)"/>
       <use xlink:href="#DejaVuSans-30" transform="translate(127.246094 0)"/>
       <use xlink:href="#DejaVuSans-30" transform="translate(190.869141 0)"/>
       <use xlink:href="#DejaVuSans-30" transform="translate(254.492188 0)"/>
      </g>
     </g>
    </g>
    <g id="xtick_13">
     <g id="line2d_37">
      <path d="M 580.369119 522.497813 
L 580.369119 298.927812 
" clip-path="url(#pef3f141097)" style="fill: none; stroke: #ffffff; stroke-width: 0.8; stroke-linecap: square"/>
     </g>
     <g id="line2d_38">
      <g>
       <use xlink:href="#me9c6523073" x="580.369119" y="522.497813" style="fill: #555555; stroke: #555555"/>
      </g>
     </g>
     <g id="text_16">
      <!-- 100000 -->
      <g style="fill: #555555" transform="translate(563.572119 537.484438) scale(0.088 -0.088)">
       <use xlink:href="#DejaVuSans-31"/>
       <use xlink:href="#DejaVuSans-30" transform="translate(63.623047 0)"/>
       <use xlink:href="#DejaVuSans-30" transform="translate(127.246094 0)"/>
       <use xlink:href="#DejaVuSans-30" transform="translate(190.869141 0)"/>
       <use xlink:href="#DejaVuSans-30" transform="translate(254.492188 0)"/>
       <use xlink:href="#DejaVuSans-30" transform="translate(318.115234 0)"/>
      </g>
     </g>
    </g>
    <g id="xtick_14">
     <g id="line2d_39">
      <path d="M 681.732503 522.497813 
L 681.732503 298.927812 
" clip-path="url(#pef3f141097)" style="fill: none; stroke: #ffffff; stroke-width: 0.8; stroke-linecap: square"/>
     </g>
     <g id="line2d_40">
      <g>
       <use xlink:href="#me9c6523073" x="681.732503" y="522.497813" style="fill: #555555; stroke: #555555"/>
      </g>
     </g>
     <g id="text_17">
      <!-- 120000 -->
      <g style="fill: #555555" transform="translate(664.935503 537.484438) scale(0.088 -0.088)">
       <use xlink:href="#DejaVuSans-31"/>
       <use xlink:href="#DejaVuSans-32" transform="translate(63.623047 0)"/>
       <use xlink:href="#DejaVuSans-30" transform="translate(127.246094 0)"/>
       <use xlink:href="#DejaVuSans-30" transform="translate(190.869141 0)"/>
       <use xlink:href="#DejaVuSans-30" transform="translate(254.492188 0)"/>
       <use xlink:href="#DejaVuSans-30" transform="translate(318.115234 0)"/>
      </g>
     </g>
    </g>
    <g id="text_18">
     <!-- Distance -->
     <g style="fill: #555555" transform="translate(341.970419 552.432688) scale(0.12 -0.12)">
      <use xlink:href="#DejaVuSans-44"/>
      <use xlink:href="#DejaVuSans-69" transform="translate(77.001953 0)"/>
      <use xlink:href="#DejaVuSans-73" transform="translate(104.785156 0)"/>
      <use xlink:href="#DejaVuSans-74" transform="translate(156.884766 0)"/>
      <use xlink:href="#DejaVuSans-61" transform="translate(196.09375 0)"/>
      <use xlink:href="#DejaVuSans-6e" transform="translate(257.373047 0)"/>
      <use xlink:href="#DejaVuSans-63" transform="translate(320.751953 0)"/>
      <use xlink:href="#DejaVuSans-65" transform="translate(375.732422 0)"/>
     </g>
    </g>
   </g>
   <g id="matplotlib.axis_4">
    <g id="ytick_6">
     <g id="line2d_41">
      <path d="M 44.086875 510.226334 
L 692.323963 510.226334 
" clip-path="url(#pef3f141097)" style="fill: none; stroke: #ffffff; stroke-width: 0.8; stroke-linecap: square"/>
     </g>
     <g id="line2d_42">
      <g>
       <use xlink:href="#m6ba2257701" x="44.086875" y="510.226334" style="fill: #555555; stroke: #555555"/>
      </g>
     </g>
     <g id="text_19">
      <!-- −4 -->
      <g style="fill: #555555" transform="translate(22.81375 513.569647) scale(0.088 -0.088)">
       <use xlink:href="#DejaVuSans-2212"/>
       <use xlink:href="#DejaVuSans-34" transform="translate(83.789062 0)"/>
      </g>
     </g>
    </g>
    <g id="ytick_7">
     <g id="line2d_43">
      <path d="M 44.086875 462.662015 
L 692.323963 462.662015 
" clip-path="url(#pef3f141097)" style="fill: none; stroke: #ffffff; stroke-width: 0.8; stroke-linecap: square"/>
     </g>
     <g id="line2d_44">
      <g>
       <use xlink:href="#m6ba2257701" x="44.086875" y="462.662015" style="fill: #555555; stroke: #555555"/>
      </g>
     </g>
     <g id="text_20">
      <!-- −2 -->
      <g style="fill: #555555" transform="translate(22.81375 466.005327) scale(0.088 -0.088)">
       <use xlink:href="#DejaVuSans-2212"/>
       <use xlink:href="#DejaVuSans-32" transform="translate(83.789062 0)"/>
      </g>
     </g>
    </g>
    <g id="ytick_8">
     <g id="line2d_45">
      <path d="M 44.086875 415.097695 
L 692.323963 415.097695 
" clip-path="url(#pef3f141097)" style="fill: none; stroke: #ffffff; stroke-width: 0.8; stroke-linecap: square"/>
     </g>
     <g id="line2d_46">
      <g>
       <use xlink:href="#m6ba2257701" x="44.086875" y="415.097695" style="fill: #555555; stroke: #555555"/>
      </g>
     </g>
     <g id="text_21">
      <!-- 0 -->
      <g style="fill: #555555" transform="translate(30.187875 418.441008) scale(0.088 -0.088)">
       <use xlink:href="#DejaVuSans-30"/>
      </g>
     </g>
    </g>
    <g id="ytick_9">
     <g id="line2d_47">
      <path d="M 44.086875 367.533376 
L 692.323963 367.533376 
" clip-path="url(#pef3f141097)" style="fill: none; stroke: #ffffff; stroke-width: 0.8; stroke-linecap: square"/>
     </g>
     <g id="line2d_48">
      <g>
       <use xlink:href="#m6ba2257701" x="44.086875" y="367.533376" style="fill: #555555; stroke: #555555"/>
      </g>
     </g>
     <g id="text_22">
      <!-- 2 -->
      <g style="fill: #555555" transform="translate(30.187875 370.876688) scale(0.088 -0.088)">
       <use xlink:href="#DejaVuSans-32"/>
      </g>
     </g>
    </g>
    <g id="ytick_10">
     <g id="line2d_49">
      <path d="M 44.086875 319.969057 
L 692.323963 319.969057 
" clip-path="url(#pef3f141097)" style="fill: none; stroke: #ffffff; stroke-width: 0.8; stroke-linecap: square"/>
     </g>
     <g id="line2d_50">
      <g>
       <use xlink:href="#m6ba2257701" x="44.086875" y="319.969057" style="fill: #555555; stroke: #555555"/>
      </g>
     </g>
     <g id="text_23">
      <!-- 4 -->
      <g style="fill: #555555" transform="translate(30.187875 323.312369) scale(0.088 -0.088)">
       <use xlink:href="#DejaVuSans-34"/>
      </g>
     </g>
    </g>
    <g id="text_24">
     <!-- Density -->
     <g style="fill: #555555" transform="translate(16.318125 433.523125) rotate(-90) scale(0.12 -0.12)">
      <use xlink:href="#DejaVuSans-44"/>
      <use xlink:href="#DejaVuSans-65" transform="translate(77.001953 0)"/>
      <use xlink:href="#DejaVuSans-6e" transform="translate(138.525391 0)"/>
      <use xlink:href="#DejaVuSans-73" transform="translate(201.904297 0)"/>
      <use xlink:href="#DejaVuSans-69" transform="translate(254.003906 0)"/>
      <use xlink:href="#DejaVuSans-74" transform="translate(281.787109 0)"/>
      <use xlink:href="#DejaVuSans-79" transform="translate(320.996094 0)"/>
     </g>
    </g>
    <g id="text_25">
     <!-- 1e−6 -->
     <g style="fill: #555555" transform="translate(44.086875 295.927812) scale(0.088 -0.088)">
      <use xlink:href="#DejaVuSans-31"/>
      <use xlink:href="#DejaVuSans-65" transform="translate(63.623047 0)"/>
      <use xlink:href="#DejaVuSans-2212" transform="translate(125.146484 0)"/>
      <use xlink:href="#DejaVuSans-36" transform="translate(208.935547 0)"/>
     </g>
    </g>
   </g>
   <g id="FillBetweenPolyCollection_2">
    <defs>
     <path id="mda7608aacb" d="M 73.552197 -157.15122 
L 73.552197 -151.761367 
L 85.578859 -162.079022 
L 97.605521 -157.672132 
L 109.632184 -136.762978 
L 121.658846 -110.256257 
L 133.685508 -85.565934 
L 145.71217 -74.448537 
L 157.738832 -73.655577 
L 169.765494 -64.724531 
L 181.792156 -54.396142 
L 193.818818 -49.792773 
L 205.84548 -55.175178 
L 217.872143 -63.442554 
L 229.898805 -78.870524 
L 241.925467 -89.874512 
L 253.952129 -96.402125 
L 265.978791 -100.958459 
L 278.005453 -111.877993 
L 290.032115 -133.360529 
L 302.058777 -161.4533 
L 314.08544 -181.321991 
L 326.112102 -184.557569 
L 338.138764 -181.765611 
L 350.165426 -179.353455 
L 362.192088 -180.067901 
L 374.21875 -184.973356 
L 386.245412 -199.201306 
L 398.272074 -212.641278 
L 410.298737 -213.726785 
L 422.325399 -201.263165 
L 434.352061 -187.824207 
L 446.378723 -170.536377 
L 458.405385 -150.336333 
L 470.432047 -131.408302 
L 482.458709 -118.174217 
L 494.485371 -112.749505 
L 506.512033 -109.103771 
L 518.538696 -106.473047 
L 530.565358 -107.044291 
L 542.59202 -111.182292 
L 554.618682 -115.885866 
L 566.645344 -119.162355 
L 578.672006 -122.620098 
L 590.698668 -126.261761 
L 602.72533 -129.589985 
L 614.751993 -132.570779 
L 626.778655 -134.535524 
L 638.805317 -136.462004 
L 650.831979 -138.212258 
L 662.858641 -139.733874 
L 662.858641 -145.251566 
L 662.858641 -145.251566 
L 650.831979 -144.77932 
L 638.805317 -144.020268 
L 626.778655 -143.069561 
L 614.751993 -141.812995 
L 602.72533 -140.322835 
L 590.698668 -138.591186 
L 578.672006 -136.649266 
L 566.645344 -134.573368 
L 554.618682 -132.278729 
L 542.59202 -130.283799 
L 530.565358 -128.336661 
L 518.538696 -130.060899 
L 506.512033 -134.913352 
L 494.485371 -140.096379 
L 482.458709 -148.123126 
L 470.432047 -163.059494 
L 458.405385 -183.687212 
L 446.378723 -204.622243 
L 434.352061 -223.890107 
L 422.325399 -240.289174 
L 410.298737 -252.959653 
L 398.272074 -253.038227 
L 386.245412 -240.229674 
L 374.21875 -226.858085 
L 362.192088 -222.255532 
L 350.165426 -219.5308 
L 338.138764 -219.058224 
L 326.112102 -221.352753 
L 314.08544 -215.651525 
L 302.058777 -192.476636 
L 290.032115 -163.872334 
L 278.005453 -143.090679 
L 265.978791 -130.710347 
L 253.952129 -129.730293 
L 241.925467 -128.687331 
L 229.898805 -122.968836 
L 217.872143 -115.428512 
L 205.84548 -112.857002 
L 193.818818 -113.277705 
L 181.792156 -118.384173 
L 169.765494 -132.193624 
L 157.738832 -140.059212 
L 145.71217 -139.233874 
L 133.685508 -145.341417 
L 121.658846 -161.149847 
L 109.632184 -177.871414 
L 97.605521 -186.544305 
L 85.578859 -177.69243 
L 73.552197 -157.15122 
z
" style="stroke: #008000; stroke-opacity: 0.2; stroke-width: 0.8"/>
    </defs>
    <g clip-path="url(#pef3f141097)">
     <use xlink:href="#mda7608aacb" x="0" y="562.128312" style="fill: #008000; fill-opacity: 0.2; stroke: #008000; stroke-opacity: 0.2; stroke-width: 0.8"/>
    </g>
   </g>
   <g id="line2d_51">
    <path d="M 73.552197 407.558028 
L 85.578859 392.325324 
L 97.605521 390.025612 
L 109.632184 404.503464 
L 121.658846 425.76084 
L 133.685508 445.787317 
L 145.71217 453.302243 
L 157.738832 453.02322 
L 169.765494 461.915562 
L 181.792156 474.766064 
L 193.818818 479.182059 
L 205.84548 477.654643 
L 217.872143 471.083874 
L 229.898805 461.382427 
L 241.925467 453.353525 
L 253.952129 449.81821 
L 265.978791 447.154597 
L 278.005453 435.384518 
L 290.032115 414.413146 
L 302.058777 386.035176 
L 314.08544 364.076585 
L 326.112102 359.799759 
L 338.138764 363.001908 
L 350.165426 364.266569 
L 362.192088 361.997711 
L 374.21875 357.371631 
L 386.245412 343.696204 
L 398.272074 330.114806 
L 410.298737 329.558084 
L 422.325399 341.217397 
L 434.352061 356.182622 
L 446.378723 374.67595 
L 458.405385 394.694374 
L 470.432047 414.293217 
L 482.458709 428.453949 
L 494.485371 435.214489 
L 506.512033 439.447871 
L 518.538696 443.332018 
L 530.565358 443.960758 
L 542.59202 441.156546 
L 554.618682 437.80478 
L 566.645344 434.758347 
L 578.672006 431.73861 
L 590.698668 428.945909 
L 602.72533 426.537187 
L 614.751993 424.522228 
L 626.778655 422.826772 
L 638.805317 421.426312 
L 650.831979 420.277041 
L 662.858641 419.295549 
" clip-path="url(#pef3f141097)" style="fill: none; stroke: #008000; stroke-width: 1.2; stroke-linecap: square"/>
   </g>
   <g id="patch_8">
    <path d="M 44.086875 522.497813 
L 44.086875 298.927812 
" style="fill: none; stroke: #ffffff; stroke-linejoin: miter; stroke-linecap: square"/>
   </g>
   <g id="patch_9">
    <path d="M 692.323963 522.497813 
L 692.323963 298.927812 
" style="fill: none; stroke: #ffffff; stroke-linejoin: miter; stroke-linecap: square"/>
   </g>
   <g id="patch_10">
    <path d="M 44.086875 522.497813 
L 692.323963 522.497813 
" style="fill: none; stroke: #ffffff; stroke-linejoin: miter; stroke-linecap: square"/>
   </g>
   <g id="patch_11">
    <path d="M 44.086875 298.927812 
L 692.323963 298.927812 
" style="fill: none; stroke: #ffffff; stroke-linejoin: miter; stroke-linecap: square"/>
   </g>
   <g id="text_26">
    <!-- Diff Array Hampshire -->
    <g transform="translate(294.767763 292.927812) scale(0.14 -0.14)">
     <defs>
      <path id="DejaVuSans-48" d="M 628 4666 
L 1259 4666 
L 1259 2753 
L 3553 2753 
L 3553 4666 
L 4184 4666 
L 4184 0 
L 3553 0 
L 3553 2222 
L 1259 2222 
L 1259 0 
L 628 0 
L 628 4666 
z
" transform="scale(0.015625)"/>
      <path id="DejaVuSans-6d" d="M 3328 2828 
Q 3544 3216 3844 3400 
Q 4144 3584 4550 3584 
Q 5097 3584 5394 3201 
Q 5691 2819 5691 2113 
L 5691 0 
L 5113 0 
L 5113 2094 
Q 5113 2597 4934 2840 
Q 4756 3084 4391 3084 
Q 3944 3084 3684 2787 
Q 3425 2491 3425 1978 
L 3425 0 
L 2847 0 
L 2847 2094 
Q 2847 2600 2669 2842 
Q 2491 3084 2119 3084 
Q 1678 3084 1418 2786 
Q 1159 2488 1159 1978 
L 1159 0 
L 581 0 
L 581 3500 
L 1159 3500 
L 1159 2956 
Q 1356 3278 1631 3431 
Q 1906 3584 2284 3584 
Q 2666 3584 2933 3390 
Q 3200 3197 3328 2828 
z
" transform="scale(0.015625)"/>
      <path id="DejaVuSans-70" d="M 1159 525 
L 1159 -1331 
L 581 -1331 
L 581 3500 
L 1159 3500 
L 1159 2969 
Q 1341 3281 1617 3432 
Q 1894 3584 2278 3584 
Q 2916 3584 3314 3078 
Q 3713 2572 3713 1747 
Q 3713 922 3314 415 
Q 2916 -91 2278 -91 
Q 1894 -91 1617 61 
Q 1341 213 1159 525 
z
M 3116 1747 
Q 3116 2381 2855 2742 
Q 2594 3103 2138 3103 
Q 1681 3103 1420 2742 
Q 1159 2381 1159 1747 
Q 1159 1113 1420 752 
Q 1681 391 2138 391 
Q 2594 391 2855 752 
Q 3116 1113 3116 1747 
z
" transform="scale(0.015625)"/>
      <path id="DejaVuSans-68" d="M 3513 2113 
L 3513 0 
L 2938 0 
L 2938 2094 
Q 2938 2591 2744 2837 
Q 2550 3084 2163 3084 
Q 1697 3084 1428 2787 
Q 1159 2491 1159 1978 
L 1159 0 
L 581 0 
L 581 4863 
L 1159 4863 
L 1159 2956 
Q 1366 3272 1645 3428 
Q 1925 3584 2291 3584 
Q 2894 3584 3203 3211 
Q 3513 2838 3513 2113 
z
" transform="scale(0.015625)"/>
     </defs>
     <use xlink:href="#DejaVuSans-44"/>
     <use xlink:href="#DejaVuSans-69" transform="translate(77.001953 0)"/>
     <use xlink:href="#DejaVuSans-66" transform="translate(104.785156 0)"/>
     <use xlink:href="#DejaVuSans-66" transform="translate(139.990234 0)"/>
     <use xlink:href="#DejaVuSans-20" transform="translate(175.195312 0)"/>
     <use xlink:href="#DejaVuSans-41" transform="translate(206.982422 0)"/>
     <use xlink:href="#DejaVuSans-72" transform="translate(275.390625 0)"/>
     <use xlink:href="#DejaVuSans-72" transform="translate(314.753906 0)"/>
     <use xlink:href="#DejaVuSans-61" transform="translate(355.867188 0)"/>
     <use xlink:href="#DejaVuSans-79" transform="translate(417.146484 0)"/>
     <use xlink:href="#DejaVuSans-20" transform="translate(476.326172 0)"/>
     <use xlink:href="#DejaVuSans-48" transform="translate(508.113281 0)"/>
     <use xlink:href="#DejaVuSans-61" transform="translate(583.308594 0)"/>
     <use xlink:href="#DejaVuSans-6d" transform="translate(644.587891 0)"/>
     <use xlink:href="#DejaVuSans-70" transform="translate(742 0)"/>
     <use xlink:href="#DejaVuSans-73" transform="translate(805.476562 0)"/>
     <use xlink:href="#DejaVuSans-68" transform="translate(857.576172 0)"/>
     <use xlink:href="#DejaVuSans-69" transform="translate(920.955078 0)"/>
     <use xlink:href="#DejaVuSans-72" transform="translate(948.738281 0)"/>
     <use xlink:href="#DejaVuSans-65" transform="translate(987.601562 0)"/>
    </g>
   </g>
   <g id="legend_2">
    <g id="line2d_52">
     <path d="M 550.413026 312.02625 
L 560.413026 312.02625 
L 570.413026 312.02625 
" style="fill: none; stroke: #008000; stroke-width: 1.2; stroke-linecap: square"/>
    </g>
    <g id="text_27">
     <!-- Diff Array Hampshire -->
     <g transform="translate(578.413026 315.52625) scale(0.1 -0.1)">
      <use xlink:href="#DejaVuSans-44"/>
      <use xlink:href="#DejaVuSans-69" transform="translate(77.001953 0)"/>
      <use xlink:href="#DejaVuSans-66" transform="translate(104.785156 0)"/>
      <use xlink:href="#DejaVuSans-66" transform="translate(139.990234 0)"/>
      <use xlink:href="#DejaVuSans-20" transform="translate(175.195312 0)"/>
      <use xlink:href="#DejaVuSans-41" transform="translate(206.982422 0)"/>
      <use xlink:href="#DejaVuSans-72" transform="translate(275.390625 0)"/>
      <use xlink:href="#DejaVuSans-72" transform="translate(314.753906 0)"/>
      <use xlink:href="#DejaVuSans-61" transform="translate(355.867188 0)"/>
      <use xlink:href="#DejaVuSans-79" transform="translate(417.146484 0)"/>
      <use xlink:href="#DejaVuSans-20" transform="translate(476.326172 0)"/>
      <use xlink:href="#DejaVuSans-48" transform="translate(508.113281 0)"/>
      <use xlink:href="#DejaVuSans-61" transform="translate(583.308594 0)"/>
      <use xlink:href="#DejaVuSans-6d" transform="translate(644.587891 0)"/>
      <use xlink:href="#DejaVuSans-70" transform="translate(742 0)"/>
      <use xlink:href="#DejaVuSans-73" transform="translate(805.476562 0)"/>
      <use xlink:href="#DejaVuSans-68" transform="translate(857.576172 0)"/>
      <use xlink:href="#DejaVuSans-69" transform="translate(920.955078 0)"/>
      <use xlink:href="#DejaVuSans-72" transform="translate(948.738281 0)"/>
      <use xlink:href="#DejaVuSans-65" transform="translate(987.601562 0)"/>
     </g>
    </g>
   </g>
  </g>
 </g>
 <defs>
  <clipPath id="p78e0a5cc3a">
   <rect x="44.086875" y="23.837812" width="648.237088" height="223.57"/>
  </clipPath>
  <clipPath id="pef3f141097">
   <rect x="44.086875" y="298.927812" width="648.237088" height="223.57"/>
  </clipPath>
 </defs>
</svg>
