<?xml version="1.0" encoding="utf-8" standalone="no"?>
<!DOCTYPE svg PUBLIC "-//W3C//DTD SVG 1.1//EN"
  "http://www.w3.org/Graphics/SVG/1.1/DTD/svg11.dtd">
<svg xmlns:xlink="http://www.w3.org/1999/xlink" width="705.729503pt" height="562.128312pt" viewBox="0 0 705.729503 562.128312" xmlns="http://www.w3.org/2000/svg" version="1.1">
 <metadata>
  <rdf:RDF xmlns:dc="http://purl.org/dc/elements/1.1/" xmlns:cc="http://creativecommons.org/ns#" xmlns:rdf="http://www.w3.org/1999/02/22-rdf-syntax-ns#">
   <cc:Work>
    <dc:type rdf:resource="http://purl.org/dc/dcmitype/StillImage"/>
    <dc:date>2025-04-02T17:58:23.060156</dc:date>
    <dc:format>image/svg+xml</dc:format>
    <dc:creator>
     <cc:Agent>
      <dc:title>Matplotlib v3.10.1, https://matplotlib.org/</dc:title>
     </cc:Agent>
    </dc:creator>
   </cc:Work>
  </rdf:RDF>
 </metadata>
 <defs>
  <style type="text/css">*{stroke-linejoin: round; stroke-linecap: butt}</style>
 </defs>
 <g id="figure_1">
  <g id="patch_1">
   <path d="M -0 562.128312 
L 705.729503 562.128312 
L 705.729503 0 
L -0 0 
z
" style="fill: #ffffff"/>
  </g>
  <g id="axes_1">
   <g id="patch_2">
    <path d="M 44.086875 247.407813 
L 692.323963 247.407813 
L 692.323963 23.837812 
L 44.086875 23.837812 
z
" style="fill: #e5e5e5"/>
   </g>
   <g id="matplotlib.axis_1">
    <g id="xtick_1">
     <g id="line2d_1">
      <path d="M 73.552197 247.407813 
L 73.552197 23.837812 
" clip-path="url(#pbe2ef62f85)" style="fill: none; stroke: #ffffff; stroke-width: 0.8; stroke-linecap: square"/>
     </g>
     <g id="line2d_2">
      <defs>
       <path id="m8982fab2c6" d="M 0 0 
L 0 4.8 
" style="stroke: #555555"/>
      </defs>
      <g>
       <use xlink:href="#m8982fab2c6" x="73.552197" y="247.407813" style="fill: #555555; stroke: #555555"/>
      </g>
     </g>
    </g>
    <g id="xtick_2">
     <g id="line2d_3">
      <path d="M 174.915582 247.407813 
L 174.915582 23.837812 
" clip-path="url(#pbe2ef62f85)" style="fill: none; stroke: #ffffff; stroke-width: 0.8; stroke-linecap: square"/>
     </g>
     <g id="line2d_4">
      <g>
       <use xlink:href="#m8982fab2c6" x="174.915582" y="247.407813" style="fill: #555555; stroke: #555555"/>
      </g>
     </g>
    </g>
    <g id="xtick_3">
     <g id="line2d_5">
      <path d="M 276.278966 247.407813 
L 276.278966 23.837812 
" clip-path="url(#pbe2ef62f85)" style="fill: none; stroke: #ffffff; stroke-width: 0.8; stroke-linecap: square"/>
     </g>
     <g id="line2d_6">
      <g>
       <use xlink:href="#m8982fab2c6" x="276.278966" y="247.407813" style="fill: #555555; stroke: #555555"/>
      </g>
     </g>
    </g>
    <g id="xtick_4">
     <g id="line2d_7">
      <path d="M 377.64235 247.407813 
L 377.64235 23.837812 
" clip-path="url(#pbe2ef62f85)" style="fill: none; stroke: #ffffff; stroke-width: 0.8; stroke-linecap: square"/>
     </g>
     <g id="line2d_8">
      <g>
       <use xlink:href="#m8982fab2c6" x="377.64235" y="247.407813" style="fill: #555555; stroke: #555555"/>
      </g>
     </g>
    </g>
    <g id="xtick_5">
     <g id="line2d_9">
      <path d="M 479.005734 247.407813 
L 479.005734 23.837812 
" clip-path="url(#pbe2ef62f85)" style="fill: none; stroke: #ffffff; stroke-width: 0.8; stroke-linecap: square"/>
     </g>
     <g id="line2d_10">
      <g>
       <use xlink:href="#m8982fab2c6" x="479.005734" y="247.407813" style="fill: #555555; stroke: #555555"/>
      </g>
     </g>
    </g>
    <g id="xtick_6">
     <g id="line2d_11">
      <path d="M 580.369119 247.407813 
L 580.369119 23.837812 
" clip-path="url(#pbe2ef62f85)" style="fill: none; stroke: #ffffff; stroke-width: 0.8; stroke-linecap: square"/>
     </g>
     <g id="line2d_12">
      <g>
       <use xlink:href="#m8982fab2c6" x="580.369119" y="247.407813" style="fill: #555555; stroke: #555555"/>
      </g>
     </g>
    </g>
    <g id="xtick_7">
     <g id="line2d_13">
      <path d="M 681.732503 247.407813 
L 681.732503 23.837812 
" clip-path="url(#pbe2ef62f85)" style="fill: none; stroke: #ffffff; stroke-width: 0.8; stroke-linecap: square"/>
     </g>
     <g id="line2d_14">
      <g>
       <use xlink:href="#m8982fab2c6" x="681.732503" y="247.407813" style="fill: #555555; stroke: #555555"/>
      </g>
     </g>
    </g>
    <g id="text_1">
     <!-- Distance -->
     <g style="fill: #555555" transform="translate(341.970419 265.325938) scale(0.12 -0.12)">
      <defs>
       <path id="DejaVuSans-44" d="M 1259 4147 
L 1259 519 
L 2022 519 
Q 2988 519 3436 956 
Q 3884 1394 3884 2338 
Q 3884 3275 3436 3711 
Q 2988 4147 2022 4147 
L 1259 4147 
z
M 628 4666 
L 1925 4666 
Q 3281 4666 3915 4102 
Q 4550 3538 4550 2338 
Q 4550 1131 3912 565 
Q 3275 0 1925 0 
L 628 0 
L 628 4666 
z
" transform="scale(0.015625)"/>
       <path id="DejaVuSans-69" d="M 603 3500 
L 1178 3500 
L 1178 0 
L 603 0 
L 603 3500 
z
M 603 4863 
L 1178 4863 
L 1178 4134 
L 603 4134 
L 603 4863 
z
" transform="scale(0.015625)"/>
       <path id="DejaVuSans-73" d="M 2834 3397 
L 2834 2853 
Q 2591 2978 2328 3040 
Q 2066 3103 1784 3103 
Q 1356 3103 1142 2972 
Q 928 2841 928 2578 
Q 928 2378 1081 2264 
Q 1234 2150 1697 2047 
L 1894 2003 
Q 2506 1872 2764 1633 
Q 3022 1394 3022 966 
Q 3022 478 2636 193 
Q 2250 -91 1575 -91 
Q 1294 -91 989 -36 
Q 684 19 347 128 
L 347 722 
Q 666 556 975 473 
Q 1284 391 1588 391 
Q 1994 391 2212 530 
Q 2431 669 2431 922 
Q 2431 1156 2273 1281 
Q 2116 1406 1581 1522 
L 1381 1569 
Q 847 1681 609 1914 
Q 372 2147 372 2553 
Q 372 3047 722 3315 
Q 1072 3584 1716 3584 
Q 2034 3584 2315 3537 
Q 2597 3491 2834 3397 
z
" transform="scale(0.015625)"/>
       <path id="DejaVuSans-74" d="M 1172 4494 
L 1172 3500 
L 2356 3500 
L 2356 3053 
L 1172 3053 
L 1172 1153 
Q 1172 725 1289 603 
Q 1406 481 1766 481 
L 2356 481 
L 2356 0 
L 1766 0 
Q 1100 0 847 248 
Q 594 497 594 1153 
L 594 3053 
L 172 3053 
L 172 3500 
L 594 3500 
L 594 4494 
L 1172 4494 
z
" transform="scale(0.015625)"/>
       <path id="DejaVuSans-61" d="M 2194 1759 
Q 1497 1759 1228 1600 
Q 959 1441 959 1056 
Q 959 750 1161 570 
Q 1363 391 1709 391 
Q 2188 391 2477 730 
Q 2766 1069 2766 1631 
L 2766 1759 
L 2194 1759 
z
M 3341 1997 
L 3341 0 
L 2766 0 
L 2766 531 
Q 2569 213 2275 61 
Q 1981 -91 1556 -91 
Q 1019 -91 701 211 
Q 384 513 384 1019 
Q 384 1609 779 1909 
Q 1175 2209 1959 2209 
L 2766 2209 
L 2766 2266 
Q 2766 2663 2505 2880 
Q 2244 3097 1772 3097 
Q 1472 3097 1187 3025 
Q 903 2953 641 2809 
L 641 3341 
Q 956 3463 1253 3523 
Q 1550 3584 1831 3584 
Q 2591 3584 2966 3190 
Q 3341 2797 3341 1997 
z
" transform="scale(0.015625)"/>
       <path id="DejaVuSans-6e" d="M 3513 2113 
L 3513 0 
L 2938 0 
L 2938 2094 
Q 2938 2591 2744 2837 
Q 2550 3084 2163 3084 
Q 1697 3084 1428 2787 
Q 1159 2491 1159 1978 
L 1159 0 
L 581 0 
L 581 3500 
L 1159 3500 
L 1159 2956 
Q 1366 3272 1645 3428 
Q 1925 3584 2291 3584 
Q 2894 3584 3203 3211 
Q 3513 2838 3513 2113 
z
" transform="scale(0.015625)"/>
       <path id="DejaVuSans-63" d="M 3122 3366 
L 3122 2828 
Q 2878 2963 2633 3030 
Q 2388 3097 2138 3097 
Q 1578 3097 1268 2742 
Q 959 2388 959 1747 
Q 959 1106 1268 751 
Q 1578 397 2138 397 
Q 2388 397 2633 464 
Q 2878 531 3122 666 
L 3122 134 
Q 2881 22 2623 -34 
Q 2366 -91 2075 -91 
Q 1284 -91 818 406 
Q 353 903 353 1747 
Q 353 2603 823 3093 
Q 1294 3584 2113 3584 
Q 2378 3584 2631 3529 
Q 2884 3475 3122 3366 
z
" transform="scale(0.015625)"/>
       <path id="DejaVuSans-65" d="M 3597 1894 
L 3597 1613 
L 953 1613 
Q 991 1019 1311 708 
Q 1631 397 2203 397 
Q 2534 397 2845 478 
Q 3156 559 3463 722 
L 3463 178 
Q 3153 47 2828 -22 
Q 2503 -91 2169 -91 
Q 1331 -91 842 396 
Q 353 884 353 1716 
Q 353 2575 817 3079 
Q 1281 3584 2069 3584 
Q 2775 3584 3186 3129 
Q 3597 2675 3597 1894 
z
M 3022 2063 
Q 3016 2534 2758 2815 
Q 2500 3097 2075 3097 
Q 1594 3097 1305 2825 
Q 1016 2553 972 2059 
L 3022 2063 
z
" transform="scale(0.015625)"/>
      </defs>
      <use xlink:href="#DejaVuSans-44"/>
      <use xlink:href="#DejaVuSans-69" transform="translate(77.001953 0)"/>
      <use xlink:href="#DejaVuSans-73" transform="translate(104.785156 0)"/>
      <use xlink:href="#DejaVuSans-74" transform="translate(156.884766 0)"/>
      <use xlink:href="#DejaVuSans-61" transform="translate(196.09375 0)"/>
      <use xlink:href="#DejaVuSans-6e" transform="translate(257.373047 0)"/>
      <use xlink:href="#DejaVuSans-63" transform="translate(320.751953 0)"/>
      <use xlink:href="#DejaVuSans-65" transform="translate(375.732422 0)"/>
     </g>
    </g>
   </g>
   <g id="matplotlib.axis_2">
    <g id="ytick_1">
     <g id="line2d_15">
      <path d="M 44.086875 208.9625 
L 692.323963 208.9625 
" clip-path="url(#pbe2ef62f85)" style="fill: none; stroke: #ffffff; stroke-width: 0.8; stroke-linecap: square"/>
     </g>
     <g id="line2d_16">
      <defs>
       <path id="m79a4f74642" d="M 0 0 
L -4.8 0 
" style="stroke: #555555"/>
      </defs>
      <g>
       <use xlink:href="#m79a4f74642" x="44.086875" y="208.9625" style="fill: #555555; stroke: #555555"/>
      </g>
     </g>
     <g id="text_2">
      <!-- −4 -->
      <g style="fill: #555555" transform="translate(22.81375 212.305812) scale(0.088 -0.088)">
       <defs>
        <path id="DejaVuSans-2212" d="M 678 2272 
L 4684 2272 
L 4684 1741 
L 678 1741 
L 678 2272 
z
" transform="scale(0.015625)"/>
        <path id="DejaVuSans-34" d="M 2419 4116 
L 825 1625 
L 2419 1625 
L 2419 4116 
z
M 2253 4666 
L 3047 4666 
L 3047 1625 
L 3713 1625 
L 3713 1100 
L 3047 1100 
L 3047 0 
L 2419 0 
L 2419 1100 
L 313 1100 
L 313 1709 
L 2253 4666 
z
" transform="scale(0.015625)"/>
       </defs>
       <use xlink:href="#DejaVuSans-2212"/>
       <use xlink:href="#DejaVuSans-34" transform="translate(83.789062 0)"/>
      </g>
     </g>
    </g>
    <g id="ytick_2">
     <g id="line2d_17">
      <path d="M 44.086875 166.270921 
L 692.323963 166.270921 
" clip-path="url(#pbe2ef62f85)" style="fill: none; stroke: #ffffff; stroke-width: 0.8; stroke-linecap: square"/>
     </g>
     <g id="line2d_18">
      <g>
       <use xlink:href="#m79a4f74642" x="44.086875" y="166.270921" style="fill: #555555; stroke: #555555"/>
      </g>
     </g>
     <g id="text_3">
      <!-- −2 -->
      <g style="fill: #555555" transform="translate(22.81375 169.614233) scale(0.088 -0.088)">
       <defs>
        <path id="DejaVuSans-32" d="M 1228 531 
L 3431 531 
L 3431 0 
L 469 0 
L 469 531 
Q 828 903 1448 1529 
Q 2069 2156 2228 2338 
Q 2531 2678 2651 2914 
Q 2772 3150 2772 3378 
Q 2772 3750 2511 3984 
Q 2250 4219 1831 4219 
Q 1534 4219 1204 4116 
Q 875 4013 500 3803 
L 500 4441 
Q 881 4594 1212 4672 
Q 1544 4750 1819 4750 
Q 2544 4750 2975 4387 
Q 3406 4025 3406 3419 
Q 3406 3131 3298 2873 
Q 3191 2616 2906 2266 
Q 2828 2175 2409 1742 
Q 1991 1309 1228 531 
z
" transform="scale(0.015625)"/>
       </defs>
       <use xlink:href="#DejaVuSans-2212"/>
       <use xlink:href="#DejaVuSans-32" transform="translate(83.789062 0)"/>
      </g>
     </g>
    </g>
    <g id="ytick_3">
     <g id="line2d_19">
      <path d="M 44.086875 123.579342 
L 692.323963 123.579342 
" clip-path="url(#pbe2ef62f85)" style="fill: none; stroke: #ffffff; stroke-width: 0.8; stroke-linecap: square"/>
     </g>
     <g id="line2d_20">
      <g>
       <use xlink:href="#m79a4f74642" x="44.086875" y="123.579342" style="fill: #555555; stroke: #555555"/>
      </g>
     </g>
     <g id="text_4">
      <!-- 0 -->
      <g style="fill: #555555" transform="translate(30.187875 126.922654) scale(0.088 -0.088)">
       <defs>
        <path id="DejaVuSans-30" d="M 2034 4250 
Q 1547 4250 1301 3770 
Q 1056 3291 1056 2328 
Q 1056 1369 1301 889 
Q 1547 409 2034 409 
Q 2525 409 2770 889 
Q 3016 1369 3016 2328 
Q 3016 3291 2770 3770 
Q 2525 4250 2034 4250 
z
M 2034 4750 
Q 2819 4750 3233 4129 
Q 3647 3509 3647 2328 
Q 3647 1150 3233 529 
Q 2819 -91 2034 -91 
Q 1250 -91 836 529 
Q 422 1150 422 2328 
Q 422 3509 836 4129 
Q 1250 4750 2034 4750 
z
" transform="scale(0.015625)"/>
       </defs>
       <use xlink:href="#DejaVuSans-30"/>
      </g>
     </g>
    </g>
    <g id="ytick_4">
     <g id="line2d_21">
      <path d="M 44.086875 80.887763 
L 692.323963 80.887763 
" clip-path="url(#pbe2ef62f85)" style="fill: none; stroke: #ffffff; stroke-width: 0.8; stroke-linecap: square"/>
     </g>
     <g id="line2d_22">
      <g>
       <use xlink:href="#m79a4f74642" x="44.086875" y="80.887763" style="fill: #555555; stroke: #555555"/>
      </g>
     </g>
     <g id="text_5">
      <!-- 2 -->
      <g style="fill: #555555" transform="translate(30.187875 84.231076) scale(0.088 -0.088)">
       <use xlink:href="#DejaVuSans-32"/>
      </g>
     </g>
    </g>
    <g id="ytick_5">
     <g id="line2d_23">
      <path d="M 44.086875 38.196184 
L 692.323963 38.196184 
" clip-path="url(#pbe2ef62f85)" style="fill: none; stroke: #ffffff; stroke-width: 0.8; stroke-linecap: square"/>
     </g>
     <g id="line2d_24">
      <g>
       <use xlink:href="#m79a4f74642" x="44.086875" y="38.196184" style="fill: #555555; stroke: #555555"/>
      </g>
     </g>
     <g id="text_6">
      <!-- 4 -->
      <g style="fill: #555555" transform="translate(30.187875 41.539497) scale(0.088 -0.088)">
       <use xlink:href="#DejaVuSans-34"/>
      </g>
     </g>
    </g>
    <g id="text_7">
     <!-- Density -->
     <g style="fill: #555555" transform="translate(16.318125 158.433125) rotate(-90) scale(0.12 -0.12)">
      <defs>
       <path id="DejaVuSans-79" d="M 2059 -325 
Q 1816 -950 1584 -1140 
Q 1353 -1331 966 -1331 
L 506 -1331 
L 506 -850 
L 844 -850 
Q 1081 -850 1212 -737 
Q 1344 -625 1503 -206 
L 1606 56 
L 191 3500 
L 800 3500 
L 1894 763 
L 2988 3500 
L 3597 3500 
L 2059 -325 
z
" transform="scale(0.015625)"/>
      </defs>
      <use xlink:href="#DejaVuSans-44"/>
      <use xlink:href="#DejaVuSans-65" transform="translate(77.001953 0)"/>
      <use xlink:href="#DejaVuSans-6e" transform="translate(138.525391 0)"/>
      <use xlink:href="#DejaVuSans-73" transform="translate(201.904297 0)"/>
      <use xlink:href="#DejaVuSans-69" transform="translate(254.003906 0)"/>
      <use xlink:href="#DejaVuSans-74" transform="translate(281.787109 0)"/>
      <use xlink:href="#DejaVuSans-79" transform="translate(320.996094 0)"/>
     </g>
    </g>
    <g id="text_8">
     <!-- 1e−6 -->
     <g style="fill: #555555" transform="translate(44.086875 20.837812) scale(0.088 -0.088)">
      <defs>
       <path id="DejaVuSans-31" d="M 794 531 
L 1825 531 
L 1825 4091 
L 703 3866 
L 703 4441 
L 1819 4666 
L 2450 4666 
L 2450 531 
L 3481 531 
L 3481 0 
L 794 0 
L 794 531 
z
" transform="scale(0.015625)"/>
       <path id="DejaVuSans-36" d="M 2113 2584 
Q 1688 2584 1439 2293 
Q 1191 2003 1191 1497 
Q 1191 994 1439 701 
Q 1688 409 2113 409 
Q 2538 409 2786 701 
Q 3034 994 3034 1497 
Q 3034 2003 2786 2293 
Q 2538 2584 2113 2584 
z
M 3366 4563 
L 3366 3988 
Q 3128 4100 2886 4159 
Q 2644 4219 2406 4219 
Q 1781 4219 1451 3797 
Q 1122 3375 1075 2522 
Q 1259 2794 1537 2939 
Q 1816 3084 2150 3084 
Q 2853 3084 3261 2657 
Q 3669 2231 3669 1497 
Q 3669 778 3244 343 
Q 2819 -91 2113 -91 
Q 1303 -91 875 529 
Q 447 1150 447 2328 
Q 447 3434 972 4092 
Q 1497 4750 2381 4750 
Q 2619 4750 2861 4703 
Q 3103 4656 3366 4563 
z
" transform="scale(0.015625)"/>
      </defs>
      <use xlink:href="#DejaVuSans-31"/>
      <use xlink:href="#DejaVuSans-65" transform="translate(63.623047 0)"/>
      <use xlink:href="#DejaVuSans-2212" transform="translate(125.146484 0)"/>
      <use xlink:href="#DejaVuSans-36" transform="translate(208.935547 0)"/>
     </g>
    </g>
   </g>
   <g id="FillBetweenPolyCollection_1">
    <defs>
     <path id="me5ea9ca670" d="M 73.552197 -476.021132 
L 73.552197 -458.966086 
L 85.557242 -464.456905 
L 97.562287 -430.5361 
L 109.567332 -389.573421 
L 121.572376 -350.014106 
L 133.577421 -324.882773 
L 145.582466 -337.497464 
L 157.587511 -347.433314 
L 169.592556 -329.778621 
L 181.597601 -337.473475 
L 193.602645 -340.082909 
L 205.60769 -332.736317 
L 217.612735 -325.334492 
L 229.61778 -338.357285 
L 241.622825 -377.720146 
L 253.62787 -431.269483 
L 265.632914 -460.406352 
L 277.637959 -454.573158 
L 289.643004 -450.530801 
L 301.648049 -451.284554 
L 313.653094 -441.395907 
L 325.658139 -426.611866 
L 337.663183 -428.059512 
L 349.668228 -428.868669 
L 361.673273 -429.763362 
L 373.678318 -429.147261 
L 385.683363 -425.687792 
L 397.688407 -419.142322 
L 409.693452 -415.191736 
L 421.698497 -421.691379 
L 433.703542 -429.246249 
L 445.708587 -431.868354 
L 457.713632 -433.531947 
L 469.718676 -432.816003 
L 481.723721 -429.246552 
L 493.728766 -424.586994 
L 505.733811 -419.030175 
L 517.738856 -417.005958 
L 529.743901 -417.451112 
L 541.748945 -419.526414 
L 553.75399 -422.499992 
L 565.759035 -425.274714 
L 577.76408 -427.574139 
L 589.769125 -429.086224 
L 601.774169 -431.123298 
L 613.779214 -432.527696 
L 625.784259 -433.63736 
L 637.789304 -434.450192 
L 649.794349 -435.14715 
L 661.799394 -435.715425 
L 661.799394 -438.439946 
L 661.799394 -438.439946 
L 649.794349 -438.341488 
L 637.789304 -438.212873 
L 625.784259 -437.949936 
L 613.779214 -437.631994 
L 601.774169 -437.22916 
L 589.769125 -436.706678 
L 577.76408 -435.947962 
L 565.759035 -434.878502 
L 553.75399 -433.596703 
L 541.748945 -432.324445 
L 529.743901 -432.742471 
L 517.738856 -435.837858 
L 505.733811 -441.010453 
L 493.728766 -451.107169 
L 481.723721 -462.657083 
L 469.718676 -470.915043 
L 457.713632 -474.914982 
L 445.708587 -475.466021 
L 433.703542 -473.784015 
L 421.698497 -469.501269 
L 409.693452 -469.521758 
L 397.688407 -478.360995 
L 385.683363 -488.364339 
L 373.678318 -494.240358 
L 361.673273 -497.699304 
L 349.668228 -500.097169 
L 337.663183 -502.74454 
L 325.658139 -500.36103 
L 313.653094 -511.114394 
L 301.648049 -519.634467 
L 289.643004 -521.912392 
L 277.637959 -525.553714 
L 265.632914 -528.128227 
L 253.62787 -495.410494 
L 241.622825 -435.619032 
L 229.61778 -404.442153 
L 217.612735 -400.589492 
L 205.60769 -417.871505 
L 193.602645 -439.508061 
L 181.597601 -448.199066 
L 169.592556 -450.01838 
L 157.587511 -475.882734 
L 145.582466 -471.886714 
L 133.577421 -457.848259 
L 121.572376 -476.956969 
L 109.567332 -494.392673 
L 97.562287 -506.201484 
L 85.557242 -510.737498 
L 73.552197 -476.021132 
z
" style="stroke: #0000ff; stroke-opacity: 0.2; stroke-width: 0.8"/>
    </defs>
    <g clip-path="url(#pbe2ef62f85)">
     <use xlink:href="#me5ea9ca670" x="0" y="562.128312" style="fill: #0000ff; fill-opacity: 0.2; stroke: #0000ff; stroke-opacity: 0.2; stroke-width: 0.8"/>
    </g>
   </g>
   <g id="line2d_25">
    <path d="M 73.552197 94.87478 
L 85.557242 75.975062 
L 97.562287 93.389269 
L 109.567332 119.27316 
L 121.572376 147.422012 
L 133.577421 168.309562 
L 145.582466 154.970057 
L 157.587511 150.353997 
L 169.592556 168.831385 
L 181.597601 169.563112 
L 193.602645 172.928253 
L 205.60769 187.534342 
L 217.612735 199.16212 
L 229.61778 192.637175 
L 241.622825 156.389893 
L 253.62787 101.81107 
L 265.632914 69.317134 
L 277.637959 71.759483 
L 289.643004 75.891048 
L 301.648049 77.77131 
L 313.653094 88.391763 
L 325.658139 99.251928 
L 337.663183 98.556401 
L 349.668228 98.419134 
L 361.673273 100.001929 
L 373.678318 101.301009 
L 385.683363 105.197017 
L 397.688407 113.55488 
L 409.693452 118.533205 
L 421.698497 115.475316 
L 433.703542 110.4021 
L 445.708587 108.207983 
L 457.713632 107.769363 
L 469.718676 109.439451 
L 481.723721 115.929558 
L 493.728766 124.259533 
L 505.733811 131.50467 
L 517.738856 135.294708 
L 529.743901 136.489836 
L 541.748945 135.61935 
L 553.75399 133.527483 
L 565.759035 131.546529 
L 577.76408 129.889564 
L 589.769125 128.549128 
L 601.774169 127.444897 
L 613.779214 126.554604 
L 625.784259 125.868372 
L 637.789304 125.348998 
L 649.794349 124.93182 
L 661.799394 124.610036 
" clip-path="url(#pbe2ef62f85)" style="fill: none; stroke: #0000ff; stroke-width: 1.2; stroke-linecap: square"/>
   </g>
   <g id="patch_3">
    <path d="M 44.086875 247.407813 
L 44.086875 23.837812 
" style="fill: none; stroke: #ffffff; stroke-linejoin: miter; stroke-linecap: square"/>
   </g>
   <g id="patch_4">
    <path d="M 692.323963 247.407813 
L 692.323963 23.837812 
" style="fill: none; stroke: #ffffff; stroke-linejoin: miter; stroke-linecap: square"/>
   </g>
   <g id="patch_5">
    <path d="M 44.086875 247.407813 
L 692.323963 247.407813 
" style="fill: none; stroke: #ffffff; stroke-linejoin: miter; stroke-linecap: square"/>
   </g>
   <g id="patch_6">
    <path d="M 44.086875 23.837812 
L 692.323963 23.837812 
" style="fill: none; stroke: #ffffff; stroke-linejoin: miter; stroke-linecap: square"/>
   </g>
   <g id="text_9">
    <!-- Diff Array Angkor (Scaled) -->
    <g transform="translate(277.044638 17.837812) scale(0.14 -0.14)">
     <defs>
      <path id="DejaVuSans-66" d="M 2375 4863 
L 2375 4384 
L 1825 4384 
Q 1516 4384 1395 4259 
Q 1275 4134 1275 3809 
L 1275 3500 
L 2222 3500 
L 2222 3053 
L 1275 3053 
L 1275 0 
L 697 0 
L 697 3053 
L 147 3053 
L 147 3500 
L 697 3500 
L 697 3744 
Q 697 4328 969 4595 
Q 1241 4863 1831 4863 
L 2375 4863 
z
" transform="scale(0.015625)"/>
      <path id="DejaVuSans-20" transform="scale(0.015625)"/>
      <path id="DejaVuSans-41" d="M 2188 4044 
L 1331 1722 
L 3047 1722 
L 2188 4044 
z
M 1831 4666 
L 2547 4666 
L 4325 0 
L 3669 0 
L 3244 1197 
L 1141 1197 
L 716 0 
L 50 0 
L 1831 4666 
z
" transform="scale(0.015625)"/>
      <path id="DejaVuSans-72" d="M 2631 2963 
Q 2534 3019 2420 3045 
Q 2306 3072 2169 3072 
Q 1681 3072 1420 2755 
Q 1159 2438 1159 1844 
L 1159 0 
L 581 0 
L 581 3500 
L 1159 3500 
L 1159 2956 
Q 1341 3275 1631 3429 
Q 1922 3584 2338 3584 
Q 2397 3584 2469 3576 
Q 2541 3569 2628 3553 
L 2631 2963 
z
" transform="scale(0.015625)"/>
      <path id="DejaVuSans-67" d="M 2906 1791 
Q 2906 2416 2648 2759 
Q 2391 3103 1925 3103 
Q 1463 3103 1205 2759 
Q 947 2416 947 1791 
Q 947 1169 1205 825 
Q 1463 481 1925 481 
Q 2391 481 2648 825 
Q 2906 1169 2906 1791 
z
M 3481 434 
Q 3481 -459 3084 -895 
Q 2688 -1331 1869 -1331 
Q 1566 -1331 1297 -1286 
Q 1028 -1241 775 -1147 
L 775 -588 
Q 1028 -725 1275 -790 
Q 1522 -856 1778 -856 
Q 2344 -856 2625 -561 
Q 2906 -266 2906 331 
L 2906 616 
Q 2728 306 2450 153 
Q 2172 0 1784 0 
Q 1141 0 747 490 
Q 353 981 353 1791 
Q 353 2603 747 3093 
Q 1141 3584 1784 3584 
Q 2172 3584 2450 3431 
Q 2728 3278 2906 2969 
L 2906 3500 
L 3481 3500 
L 3481 434 
z
" transform="scale(0.015625)"/>
      <path id="DejaVuSans-6b" d="M 581 4863 
L 1159 4863 
L 1159 1991 
L 2875 3500 
L 3609 3500 
L 1753 1863 
L 3688 0 
L 2938 0 
L 1159 1709 
L 1159 0 
L 581 0 
L 581 4863 
z
" transform="scale(0.015625)"/>
      <path id="DejaVuSans-6f" d="M 1959 3097 
Q 1497 3097 1228 2736 
Q 959 2375 959 1747 
Q 959 1119 1226 758 
Q 1494 397 1959 397 
Q 2419 397 2687 759 
Q 2956 1122 2956 1747 
Q 2956 2369 2687 2733 
Q 2419 3097 1959 3097 
z
M 1959 3584 
Q 2709 3584 3137 3096 
Q 3566 2609 3566 1747 
Q 3566 888 3137 398 
Q 2709 -91 1959 -91 
Q 1206 -91 779 398 
Q 353 888 353 1747 
Q 353 2609 779 3096 
Q 1206 3584 1959 3584 
z
" transform="scale(0.015625)"/>
      <path id="DejaVuSans-28" d="M 1984 4856 
Q 1566 4138 1362 3434 
Q 1159 2731 1159 2009 
Q 1159 1288 1364 580 
Q 1569 -128 1984 -844 
L 1484 -844 
Q 1016 -109 783 600 
Q 550 1309 550 2009 
Q 550 2706 781 3412 
Q 1013 4119 1484 4856 
L 1984 4856 
z
" transform="scale(0.015625)"/>
      <path id="DejaVuSans-53" d="M 3425 4513 
L 3425 3897 
Q 3066 4069 2747 4153 
Q 2428 4238 2131 4238 
Q 1616 4238 1336 4038 
Q 1056 3838 1056 3469 
Q 1056 3159 1242 3001 
Q 1428 2844 1947 2747 
L 2328 2669 
Q 3034 2534 3370 2195 
Q 3706 1856 3706 1288 
Q 3706 609 3251 259 
Q 2797 -91 1919 -91 
Q 1588 -91 1214 -16 
Q 841 59 441 206 
L 441 856 
Q 825 641 1194 531 
Q 1563 422 1919 422 
Q 2459 422 2753 634 
Q 3047 847 3047 1241 
Q 3047 1584 2836 1778 
Q 2625 1972 2144 2069 
L 1759 2144 
Q 1053 2284 737 2584 
Q 422 2884 422 3419 
Q 422 4038 858 4394 
Q 1294 4750 2059 4750 
Q 2388 4750 2728 4690 
Q 3069 4631 3425 4513 
z
" transform="scale(0.015625)"/>
      <path id="DejaVuSans-6c" d="M 603 4863 
L 1178 4863 
L 1178 0 
L 603 0 
L 603 4863 
z
" transform="scale(0.015625)"/>
      <path id="DejaVuSans-64" d="M 2906 2969 
L 2906 4863 
L 3481 4863 
L 3481 0 
L 2906 0 
L 2906 525 
Q 2725 213 2448 61 
Q 2172 -91 1784 -91 
Q 1150 -91 751 415 
Q 353 922 353 1747 
Q 353 2572 751 3078 
Q 1150 3584 1784 3584 
Q 2172 3584 2448 3432 
Q 2725 3281 2906 2969 
z
M 947 1747 
Q 947 1113 1208 752 
Q 1469 391 1925 391 
Q 2381 391 2643 752 
Q 2906 1113 2906 1747 
Q 2906 2381 2643 2742 
Q 2381 3103 1925 3103 
Q 1469 3103 1208 2742 
Q 947 2381 947 1747 
z
" transform="scale(0.015625)"/>
      <path id="DejaVuSans-29" d="M 513 4856 
L 1013 4856 
Q 1481 4119 1714 3412 
Q 1947 2706 1947 2009 
Q 1947 1309 1714 600 
Q 1481 -109 1013 -844 
L 513 -844 
Q 928 -128 1133 580 
Q 1338 1288 1338 2009 
Q 1338 2731 1133 3434 
Q 928 4138 513 4856 
z
" transform="scale(0.015625)"/>
     </defs>
     <use xlink:href="#DejaVuSans-44"/>
     <use xlink:href="#DejaVuSans-69" transform="translate(77.001953 0)"/>
     <use xlink:href="#DejaVuSans-66" transform="translate(104.785156 0)"/>
     <use xlink:href="#DejaVuSans-66" transform="translate(139.990234 0)"/>
     <use xlink:href="#DejaVuSans-20" transform="translate(175.195312 0)"/>
     <use xlink:href="#DejaVuSans-41" transform="translate(206.982422 0)"/>
     <use xlink:href="#DejaVuSans-72" transform="translate(275.390625 0)"/>
     <use xlink:href="#DejaVuSans-72" transform="translate(314.753906 0)"/>
     <use xlink:href="#DejaVuSans-61" transform="translate(355.867188 0)"/>
     <use xlink:href="#DejaVuSans-79" transform="translate(417.146484 0)"/>
     <use xlink:href="#DejaVuSans-20" transform="translate(476.326172 0)"/>
     <use xlink:href="#DejaVuSans-41" transform="translate(508.113281 0)"/>
     <use xlink:href="#DejaVuSans-6e" transform="translate(576.521484 0)"/>
     <use xlink:href="#DejaVuSans-67" transform="translate(639.900391 0)"/>
     <use xlink:href="#DejaVuSans-6b" transform="translate(703.376953 0)"/>
     <use xlink:href="#DejaVuSans-6f" transform="translate(757.662109 0)"/>
     <use xlink:href="#DejaVuSans-72" transform="translate(818.84375 0)"/>
     <use xlink:href="#DejaVuSans-20" transform="translate(859.957031 0)"/>
     <use xlink:href="#DejaVuSans-28" transform="translate(891.744141 0)"/>
     <use xlink:href="#DejaVuSans-53" transform="translate(930.757812 0)"/>
     <use xlink:href="#DejaVuSans-63" transform="translate(994.234375 0)"/>
     <use xlink:href="#DejaVuSans-61" transform="translate(1049.214844 0)"/>
     <use xlink:href="#DejaVuSans-6c" transform="translate(1110.494141 0)"/>
     <use xlink:href="#DejaVuSans-65" transform="translate(1138.277344 0)"/>
     <use xlink:href="#DejaVuSans-64" transform="translate(1199.800781 0)"/>
     <use xlink:href="#DejaVuSans-29" transform="translate(1263.277344 0)"/>
    </g>
   </g>
   <g id="legend_1">
    <g id="line2d_26">
     <path d="M 569.330213 36.93625 
L 579.330213 36.93625 
L 589.330213 36.93625 
" style="fill: none; stroke: #0000ff; stroke-width: 1.2; stroke-linecap: square"/>
    </g>
    <g id="text_10">
     <!-- Diff Array Angkor -->
     <g transform="translate(597.330213 40.43625) scale(0.1 -0.1)">
      <use xlink:href="#DejaVuSans-44"/>
      <use xlink:href="#DejaVuSans-69" transform="translate(77.001953 0)"/>
      <use xlink:href="#DejaVuSans-66" transform="translate(104.785156 0)"/>
      <use xlink:href="#DejaVuSans-66" transform="translate(139.990234 0)"/>
      <use xlink:href="#DejaVuSans-20" transform="translate(175.195312 0)"/>
      <use xlink:href="#DejaVuSans-41" transform="translate(206.982422 0)"/>
      <use xlink:href="#DejaVuSans-72" transform="translate(275.390625 0)"/>
      <use xlink:href="#DejaVuSans-72" transform="translate(314.753906 0)"/>
      <use xlink:href="#DejaVuSans-61" transform="translate(355.867188 0)"/>
      <use xlink:href="#DejaVuSans-79" transform="translate(417.146484 0)"/>
      <use xlink:href="#DejaVuSans-20" transform="translate(476.326172 0)"/>
      <use xlink:href="#DejaVuSans-41" transform="translate(508.113281 0)"/>
      <use xlink:href="#DejaVuSans-6e" transform="translate(576.521484 0)"/>
      <use xlink:href="#DejaVuSans-67" transform="translate(639.900391 0)"/>
      <use xlink:href="#DejaVuSans-6b" transform="translate(703.376953 0)"/>
      <use xlink:href="#DejaVuSans-6f" transform="translate(757.662109 0)"/>
      <use xlink:href="#DejaVuSans-72" transform="translate(818.84375 0)"/>
     </g>
    </g>
   </g>
  </g>
  <g id="axes_2">
   <g id="patch_7">
    <path d="M 44.086875 522.497813 
L 692.323963 522.497813 
L 692.323963 298.927812 
L 44.086875 298.927812 
z
" style="fill: #e5e5e5"/>
   </g>
   <g id="matplotlib.axis_3">
    <g id="xtick_8">
     <g id="line2d_27">
      <path d="M 73.552197 522.497813 
L 73.552197 298.927812 
" clip-path="url(#p4d37e0873d)" style="fill: none; stroke: #ffffff; stroke-width: 0.8; stroke-linecap: square"/>
     </g>
     <g id="line2d_28">
      <g>
       <use xlink:href="#m8982fab2c6" x="73.552197" y="522.497813" style="fill: #555555; stroke: #555555"/>
      </g>
     </g>
     <g id="text_11">
      <!-- 0 -->
      <g style="fill: #555555" transform="translate(70.752697 537.484438) scale(0.088 -0.088)">
       <use xlink:href="#DejaVuSans-30"/>
      </g>
     </g>
    </g>
    <g id="xtick_9">
     <g id="line2d_29">
      <path d="M 174.915582 522.497813 
L 174.915582 298.927812 
" clip-path="url(#p4d37e0873d)" style="fill: none; stroke: #ffffff; stroke-width: 0.8; stroke-linecap: square"/>
     </g>
     <g id="line2d_30">
      <g>
       <use xlink:href="#m8982fab2c6" x="174.915582" y="522.497813" style="fill: #555555; stroke: #555555"/>
      </g>
     </g>
     <g id="text_12">
      <!-- 20000 -->
      <g style="fill: #555555" transform="translate(160.918082 537.484438) scale(0.088 -0.088)">
       <use xlink:href="#DejaVuSans-32"/>
       <use xlink:href="#DejaVuSans-30" transform="translate(63.623047 0)"/>
       <use xlink:href="#DejaVuSans-30" transform="translate(127.246094 0)"/>
       <use xlink:href="#DejaVuSans-30" transform="translate(190.869141 0)"/>
       <use xlink:href="#DejaVuSans-30" transform="translate(254.492188 0)"/>
      </g>
     </g>
    </g>
    <g id="xtick_10">
     <g id="line2d_31">
      <path d="M 276.278966 522.497813 
L 276.278966 298.927812 
" clip-path="url(#p4d37e0873d)" style="fill: none; stroke: #ffffff; stroke-width: 0.8; stroke-linecap: square"/>
     </g>
     <g id="line2d_32">
      <g>
       <use xlink:href="#m8982fab2c6" x="276.278966" y="522.497813" style="fill: #555555; stroke: #555555"/>
      </g>
     </g>
     <g id="text_13">
      <!-- 40000 -->
      <g style="fill: #555555" transform="translate(262.281466 537.484438) scale(0.088 -0.088)">
       <use xlink:href="#DejaVuSans-34"/>
       <use xlink:href="#DejaVuSans-30" transform="translate(63.623047 0)"/>
       <use xlink:href="#DejaVuSans-30" transform="translate(127.246094 0)"/>
       <use xlink:href="#DejaVuSans-30" transform="translate(190.869141 0)"/>
       <use xlink:href="#DejaVuSans-30" transform="translate(254.492188 0)"/>
      </g>
     </g>
    </g>
    <g id="xtick_11">
     <g id="line2d_33">
      <path d="M 377.64235 522.497813 
L 377.64235 298.927812 
" clip-path="url(#p4d37e0873d)" style="fill: none; stroke: #ffffff; stroke-width: 0.8; stroke-linecap: square"/>
     </g>
     <g id="line2d_34">
      <g>
       <use xlink:href="#m8982fab2c6" x="377.64235" y="522.497813" style="fill: #555555; stroke: #555555"/>
      </g>
     </g>
     <g id="text_14">
      <!-- 60000 -->
      <g style="fill: #555555" transform="translate(363.64485 537.484438) scale(0.088 -0.088)">
       <use xlink:href="#DejaVuSans-36"/>
       <use xlink:href="#DejaVuSans-30" transform="translate(63.623047 0)"/>
       <use xlink:href="#DejaVuSans-30" transform="translate(127.246094 0)"/>
       <use xlink:href="#DejaVuSans-30" transform="translate(190.869141 0)"/>
       <use xlink:href="#DejaVuSans-30" transform="translate(254.492188 0)"/>
      </g>
     </g>
    </g>
    <g id="xtick_12">
     <g id="line2d_35">
      <path d="M 479.005734 522.497813 
L 479.005734 298.927812 
" clip-path="url(#p4d37e0873d)" style="fill: none; stroke: #ffffff; stroke-width: 0.8; stroke-linecap: square"/>
     </g>
     <g id="line2d_36">
      <g>
       <use xlink:href="#m8982fab2c6" x="479.005734" y="522.497813" style="fill: #555555; stroke: #555555"/>
      </g>
     </g>
     <g id="text_15">
      <!-- 80000 -->
      <g style="fill: #555555" transform="translate(465.008234 537.484438) scale(0.088 -0.088)">
       <defs>
        <path id="DejaVuSans-38" d="M 2034 2216 
Q 1584 2216 1326 1975 
Q 1069 1734 1069 1313 
Q 1069 891 1326 650 
Q 1584 409 2034 409 
Q 2484 409 2743 651 
Q 3003 894 3003 1313 
Q 3003 1734 2745 1975 
Q 2488 2216 2034 2216 
z
M 1403 2484 
Q 997 2584 770 2862 
Q 544 3141 544 3541 
Q 544 4100 942 4425 
Q 1341 4750 2034 4750 
Q 2731 4750 3128 4425 
Q 3525 4100 3525 3541 
Q 3525 3141 3298 2862 
Q 3072 2584 2669 2484 
Q 3125 2378 3379 2068 
Q 3634 1759 3634 1313 
Q 3634 634 3220 271 
Q 2806 -91 2034 -91 
Q 1263 -91 848 271 
Q 434 634 434 1313 
Q 434 1759 690 2068 
Q 947 2378 1403 2484 
z
M 1172 3481 
Q 1172 3119 1398 2916 
Q 1625 2713 2034 2713 
Q 2441 2713 2670 2916 
Q 2900 3119 2900 3481 
Q 2900 3844 2670 4047 
Q 2441 4250 2034 4250 
Q 1625 4250 1398 4047 
Q 1172 3844 1172 3481 
z
" transform="scale(0.015625)"/>
       </defs>
       <use xlink:href="#DejaVuSans-38"/>
       <use xlink:href="#DejaVuSans-30" transform="translate(63.623047 0)"/>
       <use xlink:href="#DejaVuSans-30" transform="translate(127.246094 0)"/>
       <use xlink:href="#DejaVuSans-30" transform="translate(190.869141 0)"/>
       <use xlink:href="#DejaVuSans-30" transform="translate(254.492188 0)"/>
      </g>
     </g>
    </g>
    <g id="xtick_13">
     <g id="line2d_37">
      <path d="M 580.369119 522.497813 
L 580.369119 298.927812 
" clip-path="url(#p4d37e0873d)" style="fill: none; stroke: #ffffff; stroke-width: 0.8; stroke-linecap: square"/>
     </g>
     <g id="line2d_38">
      <g>
       <use xlink:href="#m8982fab2c6" x="580.369119" y="522.497813" style="fill: #555555; stroke: #555555"/>
      </g>
     </g>
     <g id="text_16">
      <!-- 100000 -->
      <g style="fill: #555555" transform="translate(563.572119 537.484438) scale(0.088 -0.088)">
       <use xlink:href="#DejaVuSans-31"/>
       <use xlink:href="#DejaVuSans-30" transform="translate(63.623047 0)"/>
       <use xlink:href="#DejaVuSans-30" transform="translate(127.246094 0)"/>
       <use xlink:href="#DejaVuSans-30" transform="translate(190.869141 0)"/>
       <use xlink:href="#DejaVuSans-30" transform="translate(254.492188 0)"/>
       <use xlink:href="#DejaVuSans-30" transform="translate(318.115234 0)"/>
      </g>
     </g>
    </g>
    <g id="xtick_14">
     <g id="line2d_39">
      <path d="M 681.732503 522.497813 
L 681.732503 298.927812 
" clip-path="url(#p4d37e0873d)" style="fill: none; stroke: #ffffff; stroke-width: 0.8; stroke-linecap: square"/>
     </g>
     <g id="line2d_40">
      <g>
       <use xlink:href="#m8982fab2c6" x="681.732503" y="522.497813" style="fill: #555555; stroke: #555555"/>
      </g>
     </g>
     <g id="text_17">
      <!-- 120000 -->
      <g style="fill: #555555" transform="translate(664.935503 537.484438) scale(0.088 -0.088)">
       <use xlink:href="#DejaVuSans-31"/>
       <use xlink:href="#DejaVuSans-32" transform="translate(63.623047 0)"/>
       <use xlink:href="#DejaVuSans-30" transform="translate(127.246094 0)"/>
       <use xlink:href="#DejaVuSans-30" transform="translate(190.869141 0)"/>
       <use xlink:href="#DejaVuSans-30" transform="translate(254.492188 0)"/>
       <use xlink:href="#DejaVuSans-30" transform="translate(318.115234 0)"/>
      </g>
     </g>
    </g>
    <g id="text_18">
     <!-- Distance -->
     <g style="fill: #555555" transform="translate(341.970419 552.432688) scale(0.12 -0.12)">
      <use xlink:href="#DejaVuSans-44"/>
      <use xlink:href="#DejaVuSans-69" transform="translate(77.001953 0)"/>
      <use xlink:href="#DejaVuSans-73" transform="translate(104.785156 0)"/>
      <use xlink:href="#DejaVuSans-74" transform="translate(156.884766 0)"/>
      <use xlink:href="#DejaVuSans-61" transform="translate(196.09375 0)"/>
      <use xlink:href="#DejaVuSans-6e" transform="translate(257.373047 0)"/>
      <use xlink:href="#DejaVuSans-63" transform="translate(320.751953 0)"/>
      <use xlink:href="#DejaVuSans-65" transform="translate(375.732422 0)"/>
     </g>
    </g>
   </g>
   <g id="matplotlib.axis_4">
    <g id="ytick_6">
     <g id="line2d_41">
      <path d="M 44.086875 513.017673 
L 692.323963 513.017673 
" clip-path="url(#p4d37e0873d)" style="fill: none; stroke: #ffffff; stroke-width: 0.8; stroke-linecap: square"/>
     </g>
     <g id="line2d_42">
      <g>
       <use xlink:href="#m79a4f74642" x="44.086875" y="513.017673" style="fill: #555555; stroke: #555555"/>
      </g>
     </g>
     <g id="text_19">
      <!-- −4 -->
      <g style="fill: #555555" transform="translate(22.81375 516.360986) scale(0.088 -0.088)">
       <use xlink:href="#DejaVuSans-2212"/>
       <use xlink:href="#DejaVuSans-34" transform="translate(83.789062 0)"/>
      </g>
     </g>
    </g>
    <g id="ytick_7">
     <g id="line2d_43">
      <path d="M 44.086875 464.392957 
L 692.323963 464.392957 
" clip-path="url(#p4d37e0873d)" style="fill: none; stroke: #ffffff; stroke-width: 0.8; stroke-linecap: square"/>
     </g>
     <g id="line2d_44">
      <g>
       <use xlink:href="#m79a4f74642" x="44.086875" y="464.392957" style="fill: #555555; stroke: #555555"/>
      </g>
     </g>
     <g id="text_20">
      <!-- −2 -->
      <g style="fill: #555555" transform="translate(22.81375 467.736269) scale(0.088 -0.088)">
       <use xlink:href="#DejaVuSans-2212"/>
       <use xlink:href="#DejaVuSans-32" transform="translate(83.789062 0)"/>
      </g>
     </g>
    </g>
    <g id="ytick_8">
     <g id="line2d_45">
      <path d="M 44.086875 415.76824 
L 692.323963 415.76824 
" clip-path="url(#p4d37e0873d)" style="fill: none; stroke: #ffffff; stroke-width: 0.8; stroke-linecap: square"/>
     </g>
     <g id="line2d_46">
      <g>
       <use xlink:href="#m79a4f74642" x="44.086875" y="415.76824" style="fill: #555555; stroke: #555555"/>
      </g>
     </g>
     <g id="text_21">
      <!-- 0 -->
      <g style="fill: #555555" transform="translate(30.187875 419.111552) scale(0.088 -0.088)">
       <use xlink:href="#DejaVuSans-30"/>
      </g>
     </g>
    </g>
    <g id="ytick_9">
     <g id="line2d_47">
      <path d="M 44.086875 367.143523 
L 692.323963 367.143523 
" clip-path="url(#p4d37e0873d)" style="fill: none; stroke: #ffffff; stroke-width: 0.8; stroke-linecap: square"/>
     </g>
     <g id="line2d_48">
      <g>
       <use xlink:href="#m79a4f74642" x="44.086875" y="367.143523" style="fill: #555555; stroke: #555555"/>
      </g>
     </g>
     <g id="text_22">
      <!-- 2 -->
      <g style="fill: #555555" transform="translate(30.187875 370.486836) scale(0.088 -0.088)">
       <use xlink:href="#DejaVuSans-32"/>
      </g>
     </g>
    </g>
    <g id="ytick_10">
     <g id="line2d_49">
      <path d="M 44.086875 318.518807 
L 692.323963 318.518807 
" clip-path="url(#p4d37e0873d)" style="fill: none; stroke: #ffffff; stroke-width: 0.8; stroke-linecap: square"/>
     </g>
     <g id="line2d_50">
      <g>
       <use xlink:href="#m79a4f74642" x="44.086875" y="318.518807" style="fill: #555555; stroke: #555555"/>
      </g>
     </g>
     <g id="text_23">
      <!-- 4 -->
      <g style="fill: #555555" transform="translate(30.187875 321.862119) scale(0.088 -0.088)">
       <use xlink:href="#DejaVuSans-34"/>
      </g>
     </g>
    </g>
    <g id="text_24">
     <!-- Density -->
     <g style="fill: #555555" transform="translate(16.318125 433.523125) rotate(-90) scale(0.12 -0.12)">
      <use xlink:href="#DejaVuSans-44"/>
      <use xlink:href="#DejaVuSans-65" transform="translate(77.001953 0)"/>
      <use xlink:href="#DejaVuSans-6e" transform="translate(138.525391 0)"/>
      <use xlink:href="#DejaVuSans-73" transform="translate(201.904297 0)"/>
      <use xlink:href="#DejaVuSans-69" transform="translate(254.003906 0)"/>
      <use xlink:href="#DejaVuSans-74" transform="translate(281.787109 0)"/>
      <use xlink:href="#DejaVuSans-79" transform="translate(320.996094 0)"/>
     </g>
    </g>
    <g id="text_25">
     <!-- 1e−6 -->
     <g style="fill: #555555" transform="translate(44.086875 295.927812) scale(0.088 -0.088)">
      <use xlink:href="#DejaVuSans-31"/>
      <use xlink:href="#DejaVuSans-65" transform="translate(63.623047 0)"/>
      <use xlink:href="#DejaVuSans-2212" transform="translate(125.146484 0)"/>
      <use xlink:href="#DejaVuSans-36" transform="translate(208.935547 0)"/>
     </g>
    </g>
   </g>
   <g id="FillBetweenPolyCollection_2">
    <defs>
     <path id="m65c228b6e8" d="M 73.552197 -156.425297 
L 73.552197 -150.889381 
L 85.578859 -161.572986 
L 97.605521 -157.859423 
L 109.632184 -136.868831 
L 121.658846 -109.772008 
L 133.685508 -85.153933 
L 145.71217 -74.80805 
L 157.738832 -72.818363 
L 169.765494 -63.193382 
L 181.792156 -52.14722 
L 193.818818 -49.792773 
L 205.84548 -55.319031 
L 217.872143 -65.722341 
L 229.898805 -80.115379 
L 241.925467 -89.833662 
L 253.952129 -94.510547 
L 265.978791 -99.132692 
L 278.005453 -111.162476 
L 290.032115 -131.89555 
L 302.058777 -160.789056 
L 314.08544 -182.279984 
L 326.112102 -185.67636 
L 338.138764 -181.133138 
L 350.165426 -179.491153 
L 362.192088 -181.673203 
L 374.21875 -185.526374 
L 386.245412 -199.58962 
L 398.272074 -211.575342 
L 410.298737 -212.661027 
L 422.325399 -201.28835 
L 434.352061 -187.558134 
L 446.378723 -169.386764 
L 458.405385 -149.717221 
L 470.432047 -130.755141 
L 482.458709 -117.036784 
L 494.485371 -111.296374 
L 506.512033 -107.734549 
L 518.538696 -105.323499 
L 530.565358 -105.895514 
L 542.59202 -109.554411 
L 554.618682 -113.277811 
L 566.645344 -117.599741 
L 578.672006 -121.195424 
L 590.698668 -124.950677 
L 602.72533 -128.010458 
L 614.751993 -130.894207 
L 626.778655 -133.333883 
L 638.805317 -135.179844 
L 650.831979 -136.943832 
L 662.858641 -138.502317 
L 662.858641 -144.525647 
L 662.858641 -144.525647 
L 650.831979 -143.924542 
L 638.805317 -143.164134 
L 626.778655 -142.020087 
L 614.751993 -140.785806 
L 602.72533 -139.377564 
L 590.698668 -137.706962 
L 578.672006 -135.592694 
L 566.645344 -133.083007 
L 554.618682 -130.892107 
L 542.59202 -128.161889 
L 530.565358 -126.043056 
L 518.538696 -127.997189 
L 506.512033 -133.014009 
L 494.485371 -138.253823 
L 482.458709 -145.566778 
L 470.432047 -161.149894 
L 458.405385 -182.363185 
L 446.378723 -203.274105 
L 434.352061 -223.482748 
L 422.325399 -240.577895 
L 410.298737 -253.038227 
L 398.272074 -251.878729 
L 386.245412 -239.360042 
L 374.21875 -225.513139 
L 362.192088 -221.07631 
L 350.165426 -219.263594 
L 338.138764 -221.08212 
L 326.112102 -222.833041 
L 314.08544 -217.591956 
L 302.058777 -194.878605 
L 290.032115 -166.229533 
L 278.005453 -143.817817 
L 265.978791 -131.27956 
L 253.952129 -130.443559 
L 241.925467 -128.190017 
L 229.898805 -121.325099 
L 217.872143 -116.39881 
L 205.84548 -113.131192 
L 193.818818 -114.090028 
L 181.792156 -119.712194 
L 169.765494 -131.953938 
L 157.738832 -140.842129 
L 145.71217 -140.072565 
L 133.685508 -144.228174 
L 121.658846 -159.712529 
L 109.632184 -175.813437 
L 97.605521 -185.652131 
L 85.578859 -176.670422 
L 73.552197 -156.425297 
z
" style="stroke: #008000; stroke-opacity: 0.2; stroke-width: 0.8"/>
    </defs>
    <g clip-path="url(#p4d37e0873d)">
     <use xlink:href="#m65c228b6e8" x="0" y="562.128312" style="fill: #008000; fill-opacity: 0.2; stroke: #008000; stroke-opacity: 0.2; stroke-width: 0.8"/>
    </g>
   </g>
   <g id="line2d_51">
    <path d="M 73.552197 408.319674 
L 85.578859 392.910578 
L 97.605521 390.606875 
L 109.632184 405.557391 
L 121.658846 427.601205 
L 133.685508 447.977464 
L 145.71217 455.249467 
L 157.738832 454.958149 
L 169.765494 464.084988 
L 181.792156 476.866127 
L 193.818818 481.024676 
L 205.84548 479.361538 
L 217.872143 472.635228 
L 229.898805 462.491718 
L 241.925467 454.31227 
L 253.952129 450.652989 
L 265.978791 447.700845 
L 278.005453 435.501075 
L 290.032115 414.107498 
L 302.058777 385.256477 
L 314.08544 362.713981 
L 326.112102 358.053255 
L 338.138764 361.520958 
L 350.165426 363.221546 
L 362.192088 361.072162 
L 374.21875 356.476742 
L 386.245412 342.612164 
L 398.272074 328.882164 
L 410.298737 328.288959 
L 422.325399 340.098474 
L 434.352061 355.54831 
L 446.378723 374.661278 
L 458.405385 395.159608 
L 470.432047 415.2617 
L 482.458709 429.815729 
L 494.485371 436.697275 
L 506.512033 441.000799 
L 518.538696 445.033392 
L 530.565358 445.765683 
L 542.59202 442.847036 
L 554.618682 439.308472 
L 566.645344 436.176774 
L 578.672006 433.084867 
L 590.698668 430.173938 
L 602.72533 427.686473 
L 614.751993 425.628903 
L 626.778655 423.914151 
L 638.805317 422.454571 
L 650.831979 421.20499 
L 662.858641 420.162144 
" clip-path="url(#p4d37e0873d)" style="fill: none; stroke: #008000; stroke-width: 1.2; stroke-linecap: square"/>
   </g>
   <g id="patch_8">
    <path d="M 44.086875 522.497813 
L 44.086875 298.927812 
" style="fill: none; stroke: #ffffff; stroke-linejoin: miter; stroke-linecap: square"/>
   </g>
   <g id="patch_9">
    <path d="M 692.323963 522.497813 
L 692.323963 298.927812 
" style="fill: none; stroke: #ffffff; stroke-linejoin: miter; stroke-linecap: square"/>
   </g>
   <g id="patch_10">
    <path d="M 44.086875 522.497813 
L 692.323963 522.497813 
" style="fill: none; stroke: #ffffff; stroke-linejoin: miter; stroke-linecap: square"/>
   </g>
   <g id="patch_11">
    <path d="M 44.086875 298.927812 
L 692.323963 298.927812 
" style="fill: none; stroke: #ffffff; stroke-linejoin: miter; stroke-linecap: square"/>
   </g>
   <g id="text_26">
    <!-- Diff Array Hampshire -->
    <g transform="translate(294.767763 292.927812) scale(0.14 -0.14)">
     <defs>
      <path id="DejaVuSans-48" d="M 628 4666 
L 1259 4666 
L 1259 2753 
L 3553 2753 
L 3553 4666 
L 4184 4666 
L 4184 0 
L 3553 0 
L 3553 2222 
L 1259 2222 
L 1259 0 
L 628 0 
L 628 4666 
z
" transform="scale(0.015625)"/>
      <path id="DejaVuSans-6d" d="M 3328 2828 
Q 3544 3216 3844 3400 
Q 4144 3584 4550 3584 
Q 5097 3584 5394 3201 
Q 5691 2819 5691 2113 
L 5691 0 
L 5113 0 
L 5113 2094 
Q 5113 2597 4934 2840 
Q 4756 3084 4391 3084 
Q 3944 3084 3684 2787 
Q 3425 2491 3425 1978 
L 3425 0 
L 2847 0 
L 2847 2094 
Q 2847 2600 2669 2842 
Q 2491 3084 2119 3084 
Q 1678 3084 1418 2786 
Q 1159 2488 1159 1978 
L 1159 0 
L 581 0 
L 581 3500 
L 1159 3500 
L 1159 2956 
Q 1356 3278 1631 3431 
Q 1906 3584 2284 3584 
Q 2666 3584 2933 3390 
Q 3200 3197 3328 2828 
z
" transform="scale(0.015625)"/>
      <path id="DejaVuSans-70" d="M 1159 525 
L 1159 -1331 
L 581 -1331 
L 581 3500 
L 1159 3500 
L 1159 2969 
Q 1341 3281 1617 3432 
Q 1894 3584 2278 3584 
Q 2916 3584 3314 3078 
Q 3713 2572 3713 1747 
Q 3713 922 3314 415 
Q 2916 -91 2278 -91 
Q 1894 -91 1617 61 
Q 1341 213 1159 525 
z
M 3116 1747 
Q 3116 2381 2855 2742 
Q 2594 3103 2138 3103 
Q 1681 3103 1420 2742 
Q 1159 2381 1159 1747 
Q 1159 1113 1420 752 
Q 1681 391 2138 391 
Q 2594 391 2855 752 
Q 3116 1113 3116 1747 
z
" transform="scale(0.015625)"/>
      <path id="DejaVuSans-68" d="M 3513 2113 
L 3513 0 
L 2938 0 
L 2938 2094 
Q 2938 2591 2744 2837 
Q 2550 3084 2163 3084 
Q 1697 3084 1428 2787 
Q 1159 2491 1159 1978 
L 1159 0 
L 581 0 
L 581 4863 
L 1159 4863 
L 1159 2956 
Q 1366 3272 1645 3428 
Q 1925 3584 2291 3584 
Q 2894 3584 3203 3211 
Q 3513 2838 3513 2113 
z
" transform="scale(0.015625)"/>
     </defs>
     <use xlink:href="#DejaVuSans-44"/>
     <use xlink:href="#DejaVuSans-69" transform="translate(77.001953 0)"/>
     <use xlink:href="#DejaVuSans-66" transform="translate(104.785156 0)"/>
     <use xlink:href="#DejaVuSans-66" transform="translate(139.990234 0)"/>
     <use xlink:href="#DejaVuSans-20" transform="translate(175.195312 0)"/>
     <use xlink:href="#DejaVuSans-41" transform="translate(206.982422 0)"/>
     <use xlink:href="#DejaVuSans-72" transform="translate(275.390625 0)"/>
     <use xlink:href="#DejaVuSans-72" transform="translate(314.753906 0)"/>
     <use xlink:href="#DejaVuSans-61" transform="translate(355.867188 0)"/>
     <use xlink:href="#DejaVuSans-79" transform="translate(417.146484 0)"/>
     <use xlink:href="#DejaVuSans-20" transform="translate(476.326172 0)"/>
     <use xlink:href="#DejaVuSans-48" transform="translate(508.113281 0)"/>
     <use xlink:href="#DejaVuSans-61" transform="translate(583.308594 0)"/>
     <use xlink:href="#DejaVuSans-6d" transform="translate(644.587891 0)"/>
     <use xlink:href="#DejaVuSans-70" transform="translate(742 0)"/>
     <use xlink:href="#DejaVuSans-73" transform="translate(805.476562 0)"/>
     <use xlink:href="#DejaVuSans-68" transform="translate(857.576172 0)"/>
     <use xlink:href="#DejaVuSans-69" transform="translate(920.955078 0)"/>
     <use xlink:href="#DejaVuSans-72" transform="translate(948.738281 0)"/>
     <use xlink:href="#DejaVuSans-65" transform="translate(987.601562 0)"/>
    </g>
   </g>
   <g id="legend_2">
    <g id="line2d_52">
     <path d="M 550.413026 312.02625 
L 560.413026 312.02625 
L 570.413026 312.02625 
" style="fill: none; stroke: #008000; stroke-width: 1.2; stroke-linecap: square"/>
    </g>
    <g id="text_27">
     <!-- Diff Array Hampshire -->
     <g transform="translate(578.413026 315.52625) scale(0.1 -0.1)">
      <use xlink:href="#DejaVuSans-44"/>
      <use xlink:href="#DejaVuSans-69" transform="translate(77.001953 0)"/>
      <use xlink:href="#DejaVuSans-66" transform="translate(104.785156 0)"/>
      <use xlink:href="#DejaVuSans-66" transform="translate(139.990234 0)"/>
      <use xlink:href="#DejaVuSans-20" transform="translate(175.195312 0)"/>
      <use xlink:href="#DejaVuSans-41" transform="translate(206.982422 0)"/>
      <use xlink:href="#DejaVuSans-72" transform="translate(275.390625 0)"/>
      <use xlink:href="#DejaVuSans-72" transform="translate(314.753906 0)"/>
      <use xlink:href="#DejaVuSans-61" transform="translate(355.867188 0)"/>
      <use xlink:href="#DejaVuSans-79" transform="translate(417.146484 0)"/>
      <use xlink:href="#DejaVuSans-20" transform="translate(476.326172 0)"/>
      <use xlink:href="#DejaVuSans-48" transform="translate(508.113281 0)"/>
      <use xlink:href="#DejaVuSans-61" transform="translate(583.308594 0)"/>
      <use xlink:href="#DejaVuSans-6d" transform="translate(644.587891 0)"/>
      <use xlink:href="#DejaVuSans-70" transform="translate(742 0)"/>
      <use xlink:href="#DejaVuSans-73" transform="translate(805.476562 0)"/>
      <use xlink:href="#DejaVuSans-68" transform="translate(857.576172 0)"/>
      <use xlink:href="#DejaVuSans-69" transform="translate(920.955078 0)"/>
      <use xlink:href="#DejaVuSans-72" transform="translate(948.738281 0)"/>
      <use xlink:href="#DejaVuSans-65" transform="translate(987.601562 0)"/>
     </g>
    </g>
   </g>
  </g>
 </g>
 <defs>
  <clipPath id="pbe2ef62f85">
   <rect x="44.086875" y="23.837812" width="648.237088" height="223.57"/>
  </clipPath>
  <clipPath id="p4d37e0873d">
   <rect x="44.086875" y="298.927812" width="648.237088" height="223.57"/>
  </clipPath>
 </defs>
</svg>
