<?xml version="1.0" encoding="utf-8" standalone="no"?>
<!DOCTYPE svg PUBLIC "-//W3C//DTD SVG 1.1//EN"
  "http://www.w3.org/Graphics/SVG/1.1/DTD/svg11.dtd">
<svg xmlns:xlink="http://www.w3.org/1999/xlink" width="707.770208pt" height="562.8505pt" viewBox="0 0 707.770208 562.8505" xmlns="http://www.w3.org/2000/svg" version="1.1">
 <metadata>
  <rdf:RDF xmlns:dc="http://purl.org/dc/elements/1.1/" xmlns:cc="http://creativecommons.org/ns#" xmlns:rdf="http://www.w3.org/1999/02/22-rdf-syntax-ns#">
   <cc:Work>
    <dc:type rdf:resource="http://purl.org/dc/dcmitype/StillImage"/>
    <dc:date>2025-04-28T18:24:07.722044</dc:date>
    <dc:format>image/svg+xml</dc:format>
    <dc:creator>
     <cc:Agent>
      <dc:title>Matplotlib v3.10.1, https://matplotlib.org/</dc:title>
     </cc:Agent>
    </dc:creator>
   </cc:Work>
  </rdf:RDF>
 </metadata>
 <defs>
  <style type="text/css">*{stroke-linejoin: round; stroke-linecap: butt}</style>
 </defs>
 <g id="figure_1">
  <g id="patch_1">
   <path d="M 0 562.8505 
L 707.770208 562.8505 
L 707.770208 0 
L 0 0 
z
" style="fill: #ffffff"/>
  </g>
  <g id="axes_1">
   <g id="patch_2">
    <path d="M 44.086875 248.13 
L 698.668963 248.13 
L 698.668963 23.84 
L 44.086875 23.84 
z
" style="fill: #e5e5e5"/>
   </g>
   <g id="matplotlib.axis_1">
    <g id="xtick_1">
     <g id="line2d_1">
      <path d="M 73.840606 248.13 
L 73.840606 23.84 
" clip-path="url(#p9611a69c5c)" style="fill: none; stroke: #ffffff; stroke-width: 0.8; stroke-linecap: square"/>
     </g>
     <g id="line2d_2">
      <defs>
       <path id="m722d1f9ad2" d="M 0 0 
L 0 4.8 
" style="stroke: #555555"/>
      </defs>
      <g>
       <use xlink:href="#m722d1f9ad2" x="73.840606" y="248.13" style="fill: #555555; stroke: #555555"/>
      </g>
     </g>
    </g>
    <g id="xtick_2">
     <g id="line2d_3">
      <path d="M 176.196144 248.13 
L 176.196144 23.84 
" clip-path="url(#p9611a69c5c)" style="fill: none; stroke: #ffffff; stroke-width: 0.8; stroke-linecap: square"/>
     </g>
     <g id="line2d_4">
      <g>
       <use xlink:href="#m722d1f9ad2" x="176.196144" y="248.13" style="fill: #555555; stroke: #555555"/>
      </g>
     </g>
    </g>
    <g id="xtick_3">
     <g id="line2d_5">
      <path d="M 278.551682 248.13 
L 278.551682 23.84 
" clip-path="url(#p9611a69c5c)" style="fill: none; stroke: #ffffff; stroke-width: 0.8; stroke-linecap: square"/>
     </g>
     <g id="line2d_6">
      <g>
       <use xlink:href="#m722d1f9ad2" x="278.551682" y="248.13" style="fill: #555555; stroke: #555555"/>
      </g>
     </g>
    </g>
    <g id="xtick_4">
     <g id="line2d_7">
      <path d="M 380.90722 248.13 
L 380.90722 23.84 
" clip-path="url(#p9611a69c5c)" style="fill: none; stroke: #ffffff; stroke-width: 0.8; stroke-linecap: square"/>
     </g>
     <g id="line2d_8">
      <g>
       <use xlink:href="#m722d1f9ad2" x="380.90722" y="248.13" style="fill: #555555; stroke: #555555"/>
      </g>
     </g>
    </g>
    <g id="xtick_5">
     <g id="line2d_9">
      <path d="M 483.262757 248.13 
L 483.262757 23.84 
" clip-path="url(#p9611a69c5c)" style="fill: none; stroke: #ffffff; stroke-width: 0.8; stroke-linecap: square"/>
     </g>
     <g id="line2d_10">
      <g>
       <use xlink:href="#m722d1f9ad2" x="483.262757" y="248.13" style="fill: #555555; stroke: #555555"/>
      </g>
     </g>
    </g>
    <g id="xtick_6">
     <g id="line2d_11">
      <path d="M 585.618295 248.13 
L 585.618295 23.84 
" clip-path="url(#p9611a69c5c)" style="fill: none; stroke: #ffffff; stroke-width: 0.8; stroke-linecap: square"/>
     </g>
     <g id="line2d_12">
      <g>
       <use xlink:href="#m722d1f9ad2" x="585.618295" y="248.13" style="fill: #555555; stroke: #555555"/>
      </g>
     </g>
    </g>
    <g id="xtick_7">
     <g id="line2d_13">
      <path d="M 687.973833 248.13 
L 687.973833 23.84 
" clip-path="url(#p9611a69c5c)" style="fill: none; stroke: #ffffff; stroke-width: 0.8; stroke-linecap: square"/>
     </g>
     <g id="line2d_14">
      <g>
       <use xlink:href="#m722d1f9ad2" x="687.973833" y="248.13" style="fill: #555555; stroke: #555555"/>
      </g>
     </g>
    </g>
    <g id="text_1">
     <!-- Distance (km) -->
     <g style="fill: #555555" transform="translate(329.235419 266.048125) scale(0.12 -0.12)">
      <defs>
       <path id="DejaVuSans-44" d="M 1259 4147 
L 1259 519 
L 2022 519 
Q 2988 519 3436 956 
Q 3884 1394 3884 2338 
Q 3884 3275 3436 3711 
Q 2988 4147 2022 4147 
L 1259 4147 
z
M 628 4666 
L 1925 4666 
Q 3281 4666 3915 4102 
Q 4550 3538 4550 2338 
Q 4550 1131 3912 565 
Q 3275 0 1925 0 
L 628 0 
L 628 4666 
z
" transform="scale(0.015625)"/>
       <path id="DejaVuSans-69" d="M 603 3500 
L 1178 3500 
L 1178 0 
L 603 0 
L 603 3500 
z
M 603 4863 
L 1178 4863 
L 1178 4134 
L 603 4134 
L 603 4863 
z
" transform="scale(0.015625)"/>
       <path id="DejaVuSans-73" d="M 2834 3397 
L 2834 2853 
Q 2591 2978 2328 3040 
Q 2066 3103 1784 3103 
Q 1356 3103 1142 2972 
Q 928 2841 928 2578 
Q 928 2378 1081 2264 
Q 1234 2150 1697 2047 
L 1894 2003 
Q 2506 1872 2764 1633 
Q 3022 1394 3022 966 
Q 3022 478 2636 193 
Q 2250 -91 1575 -91 
Q 1294 -91 989 -36 
Q 684 19 347 128 
L 347 722 
Q 666 556 975 473 
Q 1284 391 1588 391 
Q 1994 391 2212 530 
Q 2431 669 2431 922 
Q 2431 1156 2273 1281 
Q 2116 1406 1581 1522 
L 1381 1569 
Q 847 1681 609 1914 
Q 372 2147 372 2553 
Q 372 3047 722 3315 
Q 1072 3584 1716 3584 
Q 2034 3584 2315 3537 
Q 2597 3491 2834 3397 
z
" transform="scale(0.015625)"/>
       <path id="DejaVuSans-74" d="M 1172 4494 
L 1172 3500 
L 2356 3500 
L 2356 3053 
L 1172 3053 
L 1172 1153 
Q 1172 725 1289 603 
Q 1406 481 1766 481 
L 2356 481 
L 2356 0 
L 1766 0 
Q 1100 0 847 248 
Q 594 497 594 1153 
L 594 3053 
L 172 3053 
L 172 3500 
L 594 3500 
L 594 4494 
L 1172 4494 
z
" transform="scale(0.015625)"/>
       <path id="DejaVuSans-61" d="M 2194 1759 
Q 1497 1759 1228 1600 
Q 959 1441 959 1056 
Q 959 750 1161 570 
Q 1363 391 1709 391 
Q 2188 391 2477 730 
Q 2766 1069 2766 1631 
L 2766 1759 
L 2194 1759 
z
M 3341 1997 
L 3341 0 
L 2766 0 
L 2766 531 
Q 2569 213 2275 61 
Q 1981 -91 1556 -91 
Q 1019 -91 701 211 
Q 384 513 384 1019 
Q 384 1609 779 1909 
Q 1175 2209 1959 2209 
L 2766 2209 
L 2766 2266 
Q 2766 2663 2505 2880 
Q 2244 3097 1772 3097 
Q 1472 3097 1187 3025 
Q 903 2953 641 2809 
L 641 3341 
Q 956 3463 1253 3523 
Q 1550 3584 1831 3584 
Q 2591 3584 2966 3190 
Q 3341 2797 3341 1997 
z
" transform="scale(0.015625)"/>
       <path id="DejaVuSans-6e" d="M 3513 2113 
L 3513 0 
L 2938 0 
L 2938 2094 
Q 2938 2591 2744 2837 
Q 2550 3084 2163 3084 
Q 1697 3084 1428 2787 
Q 1159 2491 1159 1978 
L 1159 0 
L 581 0 
L 581 3500 
L 1159 3500 
L 1159 2956 
Q 1366 3272 1645 3428 
Q 1925 3584 2291 3584 
Q 2894 3584 3203 3211 
Q 3513 2838 3513 2113 
z
" transform="scale(0.015625)"/>
       <path id="DejaVuSans-63" d="M 3122 3366 
L 3122 2828 
Q 2878 2963 2633 3030 
Q 2388 3097 2138 3097 
Q 1578 3097 1268 2742 
Q 959 2388 959 1747 
Q 959 1106 1268 751 
Q 1578 397 2138 397 
Q 2388 397 2633 464 
Q 2878 531 3122 666 
L 3122 134 
Q 2881 22 2623 -34 
Q 2366 -91 2075 -91 
Q 1284 -91 818 406 
Q 353 903 353 1747 
Q 353 2603 823 3093 
Q 1294 3584 2113 3584 
Q 2378 3584 2631 3529 
Q 2884 3475 3122 3366 
z
" transform="scale(0.015625)"/>
       <path id="DejaVuSans-65" d="M 3597 1894 
L 3597 1613 
L 953 1613 
Q 991 1019 1311 708 
Q 1631 397 2203 397 
Q 2534 397 2845 478 
Q 3156 559 3463 722 
L 3463 178 
Q 3153 47 2828 -22 
Q 2503 -91 2169 -91 
Q 1331 -91 842 396 
Q 353 884 353 1716 
Q 353 2575 817 3079 
Q 1281 3584 2069 3584 
Q 2775 3584 3186 3129 
Q 3597 2675 3597 1894 
z
M 3022 2063 
Q 3016 2534 2758 2815 
Q 2500 3097 2075 3097 
Q 1594 3097 1305 2825 
Q 1016 2553 972 2059 
L 3022 2063 
z
" transform="scale(0.015625)"/>
       <path id="DejaVuSans-20" transform="scale(0.015625)"/>
       <path id="DejaVuSans-28" d="M 1984 4856 
Q 1566 4138 1362 3434 
Q 1159 2731 1159 2009 
Q 1159 1288 1364 580 
Q 1569 -128 1984 -844 
L 1484 -844 
Q 1016 -109 783 600 
Q 550 1309 550 2009 
Q 550 2706 781 3412 
Q 1013 4119 1484 4856 
L 1984 4856 
z
" transform="scale(0.015625)"/>
       <path id="DejaVuSans-6b" d="M 581 4863 
L 1159 4863 
L 1159 1991 
L 2875 3500 
L 3609 3500 
L 1753 1863 
L 3688 0 
L 2938 0 
L 1159 1709 
L 1159 0 
L 581 0 
L 581 4863 
z
" transform="scale(0.015625)"/>
       <path id="DejaVuSans-6d" d="M 3328 2828 
Q 3544 3216 3844 3400 
Q 4144 3584 4550 3584 
Q 5097 3584 5394 3201 
Q 5691 2819 5691 2113 
L 5691 0 
L 5113 0 
L 5113 2094 
Q 5113 2597 4934 2840 
Q 4756 3084 4391 3084 
Q 3944 3084 3684 2787 
Q 3425 2491 3425 1978 
L 3425 0 
L 2847 0 
L 2847 2094 
Q 2847 2600 2669 2842 
Q 2491 3084 2119 3084 
Q 1678 3084 1418 2786 
Q 1159 2488 1159 1978 
L 1159 0 
L 581 0 
L 581 3500 
L 1159 3500 
L 1159 2956 
Q 1356 3278 1631 3431 
Q 1906 3584 2284 3584 
Q 2666 3584 2933 3390 
Q 3200 3197 3328 2828 
z
" transform="scale(0.015625)"/>
       <path id="DejaVuSans-29" d="M 513 4856 
L 1013 4856 
Q 1481 4119 1714 3412 
Q 1947 2706 1947 2009 
Q 1947 1309 1714 600 
Q 1481 -109 1013 -844 
L 513 -844 
Q 928 -128 1133 580 
Q 1338 1288 1338 2009 
Q 1338 2731 1133 3434 
Q 928 4138 513 4856 
z
" transform="scale(0.015625)"/>
      </defs>
      <use xlink:href="#DejaVuSans-44"/>
      <use xlink:href="#DejaVuSans-69" transform="translate(77.001953 0)"/>
      <use xlink:href="#DejaVuSans-73" transform="translate(104.785156 0)"/>
      <use xlink:href="#DejaVuSans-74" transform="translate(156.884766 0)"/>
      <use xlink:href="#DejaVuSans-61" transform="translate(196.09375 0)"/>
      <use xlink:href="#DejaVuSans-6e" transform="translate(257.373047 0)"/>
      <use xlink:href="#DejaVuSans-63" transform="translate(320.751953 0)"/>
      <use xlink:href="#DejaVuSans-65" transform="translate(375.732422 0)"/>
      <use xlink:href="#DejaVuSans-20" transform="translate(437.255859 0)"/>
      <use xlink:href="#DejaVuSans-28" transform="translate(469.042969 0)"/>
      <use xlink:href="#DejaVuSans-6b" transform="translate(508.056641 0)"/>
      <use xlink:href="#DejaVuSans-6d" transform="translate(565.966797 0)"/>
      <use xlink:href="#DejaVuSans-29" transform="translate(663.378906 0)"/>
     </g>
    </g>
   </g>
   <g id="matplotlib.axis_2">
    <g id="ytick_1">
     <g id="line2d_15">
      <path d="M 44.086875 208.849046 
L 698.668963 208.849046 
" clip-path="url(#p9611a69c5c)" style="fill: none; stroke: #ffffff; stroke-width: 0.8; stroke-linecap: square"/>
     </g>
     <g id="line2d_16">
      <defs>
       <path id="m0ff53a6c13" d="M 0 0 
L -4.8 0 
" style="stroke: #555555"/>
      </defs>
      <g>
       <use xlink:href="#m0ff53a6c13" x="44.086875" y="208.849046" style="fill: #555555; stroke: #555555"/>
      </g>
     </g>
     <g id="text_2">
      <!-- −4 -->
      <g style="fill: #555555" transform="translate(22.81375 212.192358) scale(0.088 -0.088)">
       <defs>
        <path id="DejaVuSans-2212" d="M 678 2272 
L 4684 2272 
L 4684 1741 
L 678 1741 
L 678 2272 
z
" transform="scale(0.015625)"/>
        <path id="DejaVuSans-34" d="M 2419 4116 
L 825 1625 
L 2419 1625 
L 2419 4116 
z
M 2253 4666 
L 3047 4666 
L 3047 1625 
L 3713 1625 
L 3713 1100 
L 3047 1100 
L 3047 0 
L 2419 0 
L 2419 1100 
L 313 1100 
L 313 1709 
L 2253 4666 
z
" transform="scale(0.015625)"/>
       </defs>
       <use xlink:href="#DejaVuSans-2212"/>
       <use xlink:href="#DejaVuSans-34" transform="translate(83.789062 0)"/>
      </g>
     </g>
    </g>
    <g id="ytick_2">
     <g id="line2d_17">
      <path d="M 44.086875 165.979958 
L 698.668963 165.979958 
" clip-path="url(#p9611a69c5c)" style="fill: none; stroke: #ffffff; stroke-width: 0.8; stroke-linecap: square"/>
     </g>
     <g id="line2d_18">
      <g>
       <use xlink:href="#m0ff53a6c13" x="44.086875" y="165.979958" style="fill: #555555; stroke: #555555"/>
      </g>
     </g>
     <g id="text_3">
      <!-- −2 -->
      <g style="fill: #555555" transform="translate(22.81375 169.323271) scale(0.088 -0.088)">
       <defs>
        <path id="DejaVuSans-32" d="M 1228 531 
L 3431 531 
L 3431 0 
L 469 0 
L 469 531 
Q 828 903 1448 1529 
Q 2069 2156 2228 2338 
Q 2531 2678 2651 2914 
Q 2772 3150 2772 3378 
Q 2772 3750 2511 3984 
Q 2250 4219 1831 4219 
Q 1534 4219 1204 4116 
Q 875 4013 500 3803 
L 500 4441 
Q 881 4594 1212 4672 
Q 1544 4750 1819 4750 
Q 2544 4750 2975 4387 
Q 3406 4025 3406 3419 
Q 3406 3131 3298 2873 
Q 3191 2616 2906 2266 
Q 2828 2175 2409 1742 
Q 1991 1309 1228 531 
z
" transform="scale(0.015625)"/>
       </defs>
       <use xlink:href="#DejaVuSans-2212"/>
       <use xlink:href="#DejaVuSans-32" transform="translate(83.789062 0)"/>
      </g>
     </g>
    </g>
    <g id="ytick_3">
     <g id="line2d_19">
      <path d="M 44.086875 123.110871 
L 698.668963 123.110871 
" clip-path="url(#p9611a69c5c)" style="fill: none; stroke: #ffffff; stroke-width: 0.8; stroke-linecap: square"/>
     </g>
     <g id="line2d_20">
      <g>
       <use xlink:href="#m0ff53a6c13" x="44.086875" y="123.110871" style="fill: #555555; stroke: #555555"/>
      </g>
     </g>
     <g id="text_4">
      <!-- 0 -->
      <g style="fill: #555555" transform="translate(30.187875 126.454183) scale(0.088 -0.088)">
       <defs>
        <path id="DejaVuSans-30" d="M 2034 4250 
Q 1547 4250 1301 3770 
Q 1056 3291 1056 2328 
Q 1056 1369 1301 889 
Q 1547 409 2034 409 
Q 2525 409 2770 889 
Q 3016 1369 3016 2328 
Q 3016 3291 2770 3770 
Q 2525 4250 2034 4250 
z
M 2034 4750 
Q 2819 4750 3233 4129 
Q 3647 3509 3647 2328 
Q 3647 1150 3233 529 
Q 2819 -91 2034 -91 
Q 1250 -91 836 529 
Q 422 1150 422 2328 
Q 422 3509 836 4129 
Q 1250 4750 2034 4750 
z
" transform="scale(0.015625)"/>
       </defs>
       <use xlink:href="#DejaVuSans-30"/>
      </g>
     </g>
    </g>
    <g id="ytick_4">
     <g id="line2d_21">
      <path d="M 44.086875 80.241783 
L 698.668963 80.241783 
" clip-path="url(#p9611a69c5c)" style="fill: none; stroke: #ffffff; stroke-width: 0.8; stroke-linecap: square"/>
     </g>
     <g id="line2d_22">
      <g>
       <use xlink:href="#m0ff53a6c13" x="44.086875" y="80.241783" style="fill: #555555; stroke: #555555"/>
      </g>
     </g>
     <g id="text_5">
      <!-- 2 -->
      <g style="fill: #555555" transform="translate(30.187875 83.585096) scale(0.088 -0.088)">
       <use xlink:href="#DejaVuSans-32"/>
      </g>
     </g>
    </g>
    <g id="ytick_5">
     <g id="line2d_23">
      <path d="M 44.086875 37.372696 
L 698.668963 37.372696 
" clip-path="url(#p9611a69c5c)" style="fill: none; stroke: #ffffff; stroke-width: 0.8; stroke-linecap: square"/>
     </g>
     <g id="line2d_24">
      <g>
       <use xlink:href="#m0ff53a6c13" x="44.086875" y="37.372696" style="fill: #555555; stroke: #555555"/>
      </g>
     </g>
     <g id="text_6">
      <!-- 4 -->
      <g style="fill: #555555" transform="translate(30.187875 40.716008) scale(0.088 -0.088)">
       <use xlink:href="#DejaVuSans-34"/>
      </g>
     </g>
    </g>
    <g id="text_7">
     <!-- Density -->
     <g style="fill: #555555" transform="translate(16.318125 158.795313) rotate(-90) scale(0.12 -0.12)">
      <defs>
       <path id="DejaVuSans-79" d="M 2059 -325 
Q 1816 -950 1584 -1140 
Q 1353 -1331 966 -1331 
L 506 -1331 
L 506 -850 
L 844 -850 
Q 1081 -850 1212 -737 
Q 1344 -625 1503 -206 
L 1606 56 
L 191 3500 
L 800 3500 
L 1894 763 
L 2988 3500 
L 3597 3500 
L 2059 -325 
z
" transform="scale(0.015625)"/>
      </defs>
      <use xlink:href="#DejaVuSans-44"/>
      <use xlink:href="#DejaVuSans-65" transform="translate(77.001953 0)"/>
      <use xlink:href="#DejaVuSans-6e" transform="translate(138.525391 0)"/>
      <use xlink:href="#DejaVuSans-73" transform="translate(201.904297 0)"/>
      <use xlink:href="#DejaVuSans-69" transform="translate(254.003906 0)"/>
      <use xlink:href="#DejaVuSans-74" transform="translate(281.787109 0)"/>
      <use xlink:href="#DejaVuSans-79" transform="translate(320.996094 0)"/>
     </g>
    </g>
    <g id="text_8">
     <!-- 1e−6 -->
     <g style="fill: #555555" transform="translate(44.086875 20.84) scale(0.088 -0.088)">
      <defs>
       <path id="DejaVuSans-31" d="M 794 531 
L 1825 531 
L 1825 4091 
L 703 3866 
L 703 4441 
L 1819 4666 
L 2450 4666 
L 2450 531 
L 3481 531 
L 3481 0 
L 794 0 
L 794 531 
z
" transform="scale(0.015625)"/>
       <path id="DejaVuSans-36" d="M 2113 2584 
Q 1688 2584 1439 2293 
Q 1191 2003 1191 1497 
Q 1191 994 1439 701 
Q 1688 409 2113 409 
Q 2538 409 2786 701 
Q 3034 994 3034 1497 
Q 3034 2003 2786 2293 
Q 2538 2584 2113 2584 
z
M 3366 4563 
L 3366 3988 
Q 3128 4100 2886 4159 
Q 2644 4219 2406 4219 
Q 1781 4219 1451 3797 
Q 1122 3375 1075 2522 
Q 1259 2794 1537 2939 
Q 1816 3084 2150 3084 
Q 2853 3084 3261 2657 
Q 3669 2231 3669 1497 
Q 3669 778 3244 343 
Q 2819 -91 2113 -91 
Q 1303 -91 875 529 
Q 447 1150 447 2328 
Q 447 3434 972 4092 
Q 1497 4750 2381 4750 
Q 2619 4750 2861 4703 
Q 3103 4656 3366 4563 
z
" transform="scale(0.015625)"/>
      </defs>
      <use xlink:href="#DejaVuSans-31"/>
      <use xlink:href="#DejaVuSans-65" transform="translate(63.623047 0)"/>
      <use xlink:href="#DejaVuSans-2212" transform="translate(125.146484 0)"/>
      <use xlink:href="#DejaVuSans-36" transform="translate(208.935547 0)"/>
     </g>
    </g>
   </g>
   <g id="FillBetweenPolyCollection_1">
    <defs>
     <path id="me07137d1a9" d="M 73.840606 -477.344026 
L 73.840606 -461.264895 
L 85.963158 -466.042493 
L 98.085709 -433.45472 
L 110.20826 -389.994394 
L 122.330811 -348.975345 
L 134.453362 -324.9155 
L 146.575914 -342.300263 
L 158.698465 -347.748408 
L 170.821016 -331.250455 
L 182.943567 -338.526326 
L 195.066119 -344.636459 
L 207.18867 -333.24775 
L 219.311221 -327.667345 
L 231.433772 -334.016026 
L 243.556323 -373.524286 
L 255.678875 -427.761581 
L 267.801426 -462.004306 
L 279.923977 -461.553385 
L 292.046528 -452.851579 
L 304.16908 -449.863165 
L 316.291631 -438.267495 
L 328.414182 -426.953499 
L 340.536733 -427.204366 
L 352.659285 -425.682632 
L 364.781836 -426.044818 
L 376.904387 -426.567946 
L 389.026938 -426.179402 
L 401.149489 -420.289354 
L 413.272041 -416.932878 
L 425.394592 -420.468595 
L 437.517143 -427.544198 
L 449.639694 -431.085995 
L 461.762246 -434.597392 
L 473.884797 -434.347753 
L 486.007348 -429.849836 
L 498.129899 -424.491693 
L 510.252451 -420.324002 
L 522.375002 -418.855405 
L 534.497553 -418.260542 
L 546.620104 -419.724771 
L 558.742655 -422.627148 
L 570.865207 -426.038323 
L 582.987758 -428.740877 
L 595.110309 -430.74494 
L 607.23286 -432.323895 
L 619.355412 -433.477692 
L 631.477963 -434.732453 
L 643.600514 -435.76232 
L 655.723065 -436.450118 
L 667.845617 -437.047483 
L 667.845617 -439.611819 
L 667.845617 -439.611819 
L 655.723065 -439.531752 
L 643.600514 -439.423963 
L 631.477963 -439.210155 
L 619.355412 -438.789177 
L 607.23286 -438.419229 
L 595.110309 -437.878113 
L 582.987758 -437.009311 
L 570.865207 -435.98436 
L 558.742655 -434.969928 
L 546.620104 -433.667494 
L 534.497553 -433.530597 
L 522.375002 -436.713219 
L 510.252451 -442.426619 
L 498.129899 -452.723097 
L 486.007348 -464.459887 
L 473.884797 -471.654718 
L 461.762246 -475.300539 
L 449.639694 -476.936399 
L 437.517143 -476.899227 
L 425.394592 -473.47716 
L 413.272041 -470.829691 
L 401.149489 -477.42388 
L 389.026938 -488.566003 
L 376.904387 -493.058483 
L 364.781836 -496.865129 
L 352.659285 -499.683683 
L 340.536733 -501.085267 
L 328.414182 -501.199081 
L 316.291631 -514.872036 
L 304.16908 -528.569952 
L 292.046528 -528.394685 
L 279.923977 -528.8155 
L 267.801426 -527.664391 
L 255.678875 -491.45519 
L 243.556323 -436.161238 
L 231.433772 -404.657367 
L 219.311221 -407.294049 
L 207.18867 -423.828179 
L 195.066119 -443.102857 
L 182.943567 -448.428947 
L 170.821016 -455.760417 
L 158.698465 -483.644525 
L 146.575914 -477.8592 
L 134.453362 -457.479267 
L 122.330811 -471.482978 
L 110.20826 -492.792233 
L 98.085709 -507.434529 
L 85.963158 -510.040693 
L 73.840606 -477.344026 
z
" style="stroke: #0000ff; stroke-opacity: 0.2; stroke-width: 0.8"/>
    </defs>
    <g clip-path="url(#p9611a69c5c)">
     <use xlink:href="#me07137d1a9" x="0" y="562.8505" style="fill: #0000ff; fill-opacity: 0.2; stroke: #0000ff; stroke-opacity: 0.2; stroke-width: 0.8"/>
    </g>
   </g>
   <g id="line2d_25">
    <path d="M 73.840606 94.364212 
L 85.963158 75.275051 
L 98.085709 92.965134 
L 110.20826 119.496524 
L 122.330811 147.972801 
L 134.453362 168.686019 
L 146.575914 155.131801 
L 158.698465 149.692044 
L 170.821016 168.087443 
L 182.943567 169.882732 
L 195.066119 173.227283 
L 207.18867 186.971441 
L 219.311221 198.213167 
L 231.433772 192.292188 
L 243.556323 156.931522 
L 255.678875 102.875846 
L 267.801426 70.031734 
L 279.923977 71.664903 
L 292.046528 75.439616 
L 304.16908 77.343364 
L 316.291631 87.933015 
L 328.414182 98.977964 
L 340.536733 98.074121 
L 352.659285 98.297529 
L 364.781836 99.670284 
L 376.904387 100.401864 
L 389.026938 103.776306 
L 401.149489 112.033755 
L 413.272041 117.220473 
L 425.394592 114.432216 
L 437.517143 109.6885 
L 449.639694 107.51929 
L 461.762246 106.876167 
L 473.884797 108.459601 
L 486.007348 114.988033 
L 498.129899 123.415562 
L 510.252451 130.623566 
L 522.375002 134.449978 
L 534.497553 135.771863 
L 546.620104 134.966722 
L 558.742655 132.919564 
L 570.865207 130.904206 
L 582.987758 129.237828 
L 595.110309 127.929511 
L 607.23286 126.884585 
L 619.355412 126.02911 
L 631.477963 125.353219 
L 643.600514 124.845762 
L 655.723065 124.446182 
L 667.845617 124.120762 
" clip-path="url(#p9611a69c5c)" style="fill: none; stroke: #0000ff; stroke-width: 1.2; stroke-linecap: square"/>
   </g>
   <g id="patch_3">
    <path d="M 44.086875 248.13 
L 44.086875 23.84 
" style="fill: none; stroke: #ffffff; stroke-linejoin: miter; stroke-linecap: square"/>
   </g>
   <g id="patch_4">
    <path d="M 698.668963 248.13 
L 698.668963 23.84 
" style="fill: none; stroke: #ffffff; stroke-linejoin: miter; stroke-linecap: square"/>
   </g>
   <g id="patch_5">
    <path d="M 44.086875 248.13 
L 698.668963 248.13 
" style="fill: none; stroke: #ffffff; stroke-linejoin: miter; stroke-linecap: square"/>
   </g>
   <g id="patch_6">
    <path d="M 44.086875 23.84 
L 698.668963 23.84 
" style="fill: none; stroke: #ffffff; stroke-linejoin: miter; stroke-linecap: square"/>
   </g>
   <g id="text_9">
    <!-- $\Delta$PDD Angkor (Scaled) -->
    <g transform="translate(293.467919 17.84) scale(0.14 -0.14)">
     <defs>
      <path id="DejaVuSans-394" d="M 2188 4044 
L 906 525 
L 3472 525 
L 2188 4044 
z
M 50 0 
L 1831 4666 
L 2547 4666 
L 4325 0 
L 50 0 
z
" transform="scale(0.015625)"/>
      <path id="DejaVuSans-50" d="M 1259 4147 
L 1259 2394 
L 2053 2394 
Q 2494 2394 2734 2622 
Q 2975 2850 2975 3272 
Q 2975 3691 2734 3919 
Q 2494 4147 2053 4147 
L 1259 4147 
z
M 628 4666 
L 2053 4666 
Q 2838 4666 3239 4311 
Q 3641 3956 3641 3272 
Q 3641 2581 3239 2228 
Q 2838 1875 2053 1875 
L 1259 1875 
L 1259 0 
L 628 0 
L 628 4666 
z
" transform="scale(0.015625)"/>
      <path id="DejaVuSans-41" d="M 2188 4044 
L 1331 1722 
L 3047 1722 
L 2188 4044 
z
M 1831 4666 
L 2547 4666 
L 4325 0 
L 3669 0 
L 3244 1197 
L 1141 1197 
L 716 0 
L 50 0 
L 1831 4666 
z
" transform="scale(0.015625)"/>
      <path id="DejaVuSans-67" d="M 2906 1791 
Q 2906 2416 2648 2759 
Q 2391 3103 1925 3103 
Q 1463 3103 1205 2759 
Q 947 2416 947 1791 
Q 947 1169 1205 825 
Q 1463 481 1925 481 
Q 2391 481 2648 825 
Q 2906 1169 2906 1791 
z
M 3481 434 
Q 3481 -459 3084 -895 
Q 2688 -1331 1869 -1331 
Q 1566 -1331 1297 -1286 
Q 1028 -1241 775 -1147 
L 775 -588 
Q 1028 -725 1275 -790 
Q 1522 -856 1778 -856 
Q 2344 -856 2625 -561 
Q 2906 -266 2906 331 
L 2906 616 
Q 2728 306 2450 153 
Q 2172 0 1784 0 
Q 1141 0 747 490 
Q 353 981 353 1791 
Q 353 2603 747 3093 
Q 1141 3584 1784 3584 
Q 2172 3584 2450 3431 
Q 2728 3278 2906 2969 
L 2906 3500 
L 3481 3500 
L 3481 434 
z
" transform="scale(0.015625)"/>
      <path id="DejaVuSans-6f" d="M 1959 3097 
Q 1497 3097 1228 2736 
Q 959 2375 959 1747 
Q 959 1119 1226 758 
Q 1494 397 1959 397 
Q 2419 397 2687 759 
Q 2956 1122 2956 1747 
Q 2956 2369 2687 2733 
Q 2419 3097 1959 3097 
z
M 1959 3584 
Q 2709 3584 3137 3096 
Q 3566 2609 3566 1747 
Q 3566 888 3137 398 
Q 2709 -91 1959 -91 
Q 1206 -91 779 398 
Q 353 888 353 1747 
Q 353 2609 779 3096 
Q 1206 3584 1959 3584 
z
" transform="scale(0.015625)"/>
      <path id="DejaVuSans-72" d="M 2631 2963 
Q 2534 3019 2420 3045 
Q 2306 3072 2169 3072 
Q 1681 3072 1420 2755 
Q 1159 2438 1159 1844 
L 1159 0 
L 581 0 
L 581 3500 
L 1159 3500 
L 1159 2956 
Q 1341 3275 1631 3429 
Q 1922 3584 2338 3584 
Q 2397 3584 2469 3576 
Q 2541 3569 2628 3553 
L 2631 2963 
z
" transform="scale(0.015625)"/>
      <path id="DejaVuSans-53" d="M 3425 4513 
L 3425 3897 
Q 3066 4069 2747 4153 
Q 2428 4238 2131 4238 
Q 1616 4238 1336 4038 
Q 1056 3838 1056 3469 
Q 1056 3159 1242 3001 
Q 1428 2844 1947 2747 
L 2328 2669 
Q 3034 2534 3370 2195 
Q 3706 1856 3706 1288 
Q 3706 609 3251 259 
Q 2797 -91 1919 -91 
Q 1588 -91 1214 -16 
Q 841 59 441 206 
L 441 856 
Q 825 641 1194 531 
Q 1563 422 1919 422 
Q 2459 422 2753 634 
Q 3047 847 3047 1241 
Q 3047 1584 2836 1778 
Q 2625 1972 2144 2069 
L 1759 2144 
Q 1053 2284 737 2584 
Q 422 2884 422 3419 
Q 422 4038 858 4394 
Q 1294 4750 2059 4750 
Q 2388 4750 2728 4690 
Q 3069 4631 3425 4513 
z
" transform="scale(0.015625)"/>
      <path id="DejaVuSans-6c" d="M 603 4863 
L 1178 4863 
L 1178 0 
L 603 0 
L 603 4863 
z
" transform="scale(0.015625)"/>
      <path id="DejaVuSans-64" d="M 2906 2969 
L 2906 4863 
L 3481 4863 
L 3481 0 
L 2906 0 
L 2906 525 
Q 2725 213 2448 61 
Q 2172 -91 1784 -91 
Q 1150 -91 751 415 
Q 353 922 353 1747 
Q 353 2572 751 3078 
Q 1150 3584 1784 3584 
Q 2172 3584 2448 3432 
Q 2725 3281 2906 2969 
z
M 947 1747 
Q 947 1113 1208 752 
Q 1469 391 1925 391 
Q 2381 391 2643 752 
Q 2906 1113 2906 1747 
Q 2906 2381 2643 2742 
Q 2381 3103 1925 3103 
Q 1469 3103 1208 2742 
Q 947 2381 947 1747 
z
" transform="scale(0.015625)"/>
     </defs>
     <use xlink:href="#DejaVuSans-394" transform="translate(0 0.015625)"/>
     <use xlink:href="#DejaVuSans-50" transform="translate(68.408203 0.015625)"/>
     <use xlink:href="#DejaVuSans-44" transform="translate(128.710938 0.015625)"/>
     <use xlink:href="#DejaVuSans-44" transform="translate(205.712891 0.015625)"/>
     <use xlink:href="#DejaVuSans-20" transform="translate(282.714844 0.015625)"/>
     <use xlink:href="#DejaVuSans-41" transform="translate(314.501953 0.015625)"/>
     <use xlink:href="#DejaVuSans-6e" transform="translate(382.910156 0.015625)"/>
     <use xlink:href="#DejaVuSans-67" transform="translate(446.289062 0.015625)"/>
     <use xlink:href="#DejaVuSans-6b" transform="translate(509.765625 0.015625)"/>
     <use xlink:href="#DejaVuSans-6f" transform="translate(567.675781 0.015625)"/>
     <use xlink:href="#DejaVuSans-72" transform="translate(628.857422 0.015625)"/>
     <use xlink:href="#DejaVuSans-20" transform="translate(669.970703 0.015625)"/>
     <use xlink:href="#DejaVuSans-28" transform="translate(701.757812 0.015625)"/>
     <use xlink:href="#DejaVuSans-53" transform="translate(740.771484 0.015625)"/>
     <use xlink:href="#DejaVuSans-63" transform="translate(804.248047 0.015625)"/>
     <use xlink:href="#DejaVuSans-61" transform="translate(859.228516 0.015625)"/>
     <use xlink:href="#DejaVuSans-6c" transform="translate(920.507812 0.015625)"/>
     <use xlink:href="#DejaVuSans-65" transform="translate(948.291016 0.015625)"/>
     <use xlink:href="#DejaVuSans-64" transform="translate(1009.814453 0.015625)"/>
     <use xlink:href="#DejaVuSans-29" transform="translate(1073.291016 0.015625)"/>
    </g>
   </g>
   <g id="legend_1">
    <g id="line2d_26">
     <path d="M 594.668963 36.94 
L 604.668963 36.94 
L 614.668963 36.94 
" style="fill: none; stroke: #0000ff; stroke-width: 1.2; stroke-linecap: square"/>
    </g>
    <g id="text_10">
     <!-- $\Delta$PDD Angkor -->
     <g transform="translate(622.668963 40.44) scale(0.1 -0.1)">
      <use xlink:href="#DejaVuSans-394" transform="translate(0 0.015625)"/>
      <use xlink:href="#DejaVuSans-50" transform="translate(68.408203 0.015625)"/>
      <use xlink:href="#DejaVuSans-44" transform="translate(128.710938 0.015625)"/>
      <use xlink:href="#DejaVuSans-44" transform="translate(205.712891 0.015625)"/>
      <use xlink:href="#DejaVuSans-20" transform="translate(282.714844 0.015625)"/>
      <use xlink:href="#DejaVuSans-41" transform="translate(314.501953 0.015625)"/>
      <use xlink:href="#DejaVuSans-6e" transform="translate(382.910156 0.015625)"/>
      <use xlink:href="#DejaVuSans-67" transform="translate(446.289062 0.015625)"/>
      <use xlink:href="#DejaVuSans-6b" transform="translate(509.765625 0.015625)"/>
      <use xlink:href="#DejaVuSans-6f" transform="translate(567.675781 0.015625)"/>
      <use xlink:href="#DejaVuSans-72" transform="translate(628.857422 0.015625)"/>
     </g>
    </g>
   </g>
  </g>
  <g id="axes_2">
   <g id="patch_7">
    <path d="M 44.086875 523.22 
L 698.668963 523.22 
L 698.668963 298.93 
L 44.086875 298.93 
z
" style="fill: #e5e5e5"/>
   </g>
   <g id="matplotlib.axis_3">
    <g id="xtick_8">
     <g id="line2d_27">
      <path d="M 73.840606 523.22 
L 73.840606 298.93 
" clip-path="url(#p630cb97ca4)" style="fill: none; stroke: #ffffff; stroke-width: 0.8; stroke-linecap: square"/>
     </g>
     <g id="line2d_28">
      <g>
       <use xlink:href="#m722d1f9ad2" x="73.840606" y="523.22" style="fill: #555555; stroke: #555555"/>
      </g>
     </g>
     <g id="text_11">
      <!-- 0.0 -->
      <g style="fill: #555555" transform="translate(66.843231 538.206625) scale(0.088 -0.088)">
       <defs>
        <path id="DejaVuSans-2e" d="M 684 794 
L 1344 794 
L 1344 0 
L 684 0 
L 684 794 
z
" transform="scale(0.015625)"/>
       </defs>
       <use xlink:href="#DejaVuSans-30"/>
       <use xlink:href="#DejaVuSans-2e" transform="translate(63.623047 0)"/>
       <use xlink:href="#DejaVuSans-30" transform="translate(95.410156 0)"/>
      </g>
     </g>
    </g>
    <g id="xtick_9">
     <g id="line2d_29">
      <path d="M 176.196144 523.22 
L 176.196144 298.93 
" clip-path="url(#p630cb97ca4)" style="fill: none; stroke: #ffffff; stroke-width: 0.8; stroke-linecap: square"/>
     </g>
     <g id="line2d_30">
      <g>
       <use xlink:href="#m722d1f9ad2" x="176.196144" y="523.22" style="fill: #555555; stroke: #555555"/>
      </g>
     </g>
     <g id="text_12">
      <!-- 20.0 -->
      <g style="fill: #555555" transform="translate(166.399269 538.206625) scale(0.088 -0.088)">
       <use xlink:href="#DejaVuSans-32"/>
       <use xlink:href="#DejaVuSans-30" transform="translate(63.623047 0)"/>
       <use xlink:href="#DejaVuSans-2e" transform="translate(127.246094 0)"/>
       <use xlink:href="#DejaVuSans-30" transform="translate(159.033203 0)"/>
      </g>
     </g>
    </g>
    <g id="xtick_10">
     <g id="line2d_31">
      <path d="M 278.551682 523.22 
L 278.551682 298.93 
" clip-path="url(#p630cb97ca4)" style="fill: none; stroke: #ffffff; stroke-width: 0.8; stroke-linecap: square"/>
     </g>
     <g id="line2d_32">
      <g>
       <use xlink:href="#m722d1f9ad2" x="278.551682" y="523.22" style="fill: #555555; stroke: #555555"/>
      </g>
     </g>
     <g id="text_13">
      <!-- 40.0 -->
      <g style="fill: #555555" transform="translate(268.754807 538.206625) scale(0.088 -0.088)">
       <use xlink:href="#DejaVuSans-34"/>
       <use xlink:href="#DejaVuSans-30" transform="translate(63.623047 0)"/>
       <use xlink:href="#DejaVuSans-2e" transform="translate(127.246094 0)"/>
       <use xlink:href="#DejaVuSans-30" transform="translate(159.033203 0)"/>
      </g>
     </g>
    </g>
    <g id="xtick_11">
     <g id="line2d_33">
      <path d="M 380.90722 523.22 
L 380.90722 298.93 
" clip-path="url(#p630cb97ca4)" style="fill: none; stroke: #ffffff; stroke-width: 0.8; stroke-linecap: square"/>
     </g>
     <g id="line2d_34">
      <g>
       <use xlink:href="#m722d1f9ad2" x="380.90722" y="523.22" style="fill: #555555; stroke: #555555"/>
      </g>
     </g>
     <g id="text_14">
      <!-- 60.0 -->
      <g style="fill: #555555" transform="translate(371.110345 538.206625) scale(0.088 -0.088)">
       <use xlink:href="#DejaVuSans-36"/>
       <use xlink:href="#DejaVuSans-30" transform="translate(63.623047 0)"/>
       <use xlink:href="#DejaVuSans-2e" transform="translate(127.246094 0)"/>
       <use xlink:href="#DejaVuSans-30" transform="translate(159.033203 0)"/>
      </g>
     </g>
    </g>
    <g id="xtick_12">
     <g id="line2d_35">
      <path d="M 483.262757 523.22 
L 483.262757 298.93 
" clip-path="url(#p630cb97ca4)" style="fill: none; stroke: #ffffff; stroke-width: 0.8; stroke-linecap: square"/>
     </g>
     <g id="line2d_36">
      <g>
       <use xlink:href="#m722d1f9ad2" x="483.262757" y="523.22" style="fill: #555555; stroke: #555555"/>
      </g>
     </g>
     <g id="text_15">
      <!-- 80.0 -->
      <g style="fill: #555555" transform="translate(473.465882 538.206625) scale(0.088 -0.088)">
       <defs>
        <path id="DejaVuSans-38" d="M 2034 2216 
Q 1584 2216 1326 1975 
Q 1069 1734 1069 1313 
Q 1069 891 1326 650 
Q 1584 409 2034 409 
Q 2484 409 2743 651 
Q 3003 894 3003 1313 
Q 3003 1734 2745 1975 
Q 2488 2216 2034 2216 
z
M 1403 2484 
Q 997 2584 770 2862 
Q 544 3141 544 3541 
Q 544 4100 942 4425 
Q 1341 4750 2034 4750 
Q 2731 4750 3128 4425 
Q 3525 4100 3525 3541 
Q 3525 3141 3298 2862 
Q 3072 2584 2669 2484 
Q 3125 2378 3379 2068 
Q 3634 1759 3634 1313 
Q 3634 634 3220 271 
Q 2806 -91 2034 -91 
Q 1263 -91 848 271 
Q 434 634 434 1313 
Q 434 1759 690 2068 
Q 947 2378 1403 2484 
z
M 1172 3481 
Q 1172 3119 1398 2916 
Q 1625 2713 2034 2713 
Q 2441 2713 2670 2916 
Q 2900 3119 2900 3481 
Q 2900 3844 2670 4047 
Q 2441 4250 2034 4250 
Q 1625 4250 1398 4047 
Q 1172 3844 1172 3481 
z
" transform="scale(0.015625)"/>
       </defs>
       <use xlink:href="#DejaVuSans-38"/>
       <use xlink:href="#DejaVuSans-30" transform="translate(63.623047 0)"/>
       <use xlink:href="#DejaVuSans-2e" transform="translate(127.246094 0)"/>
       <use xlink:href="#DejaVuSans-30" transform="translate(159.033203 0)"/>
      </g>
     </g>
    </g>
    <g id="xtick_13">
     <g id="line2d_37">
      <path d="M 585.618295 523.22 
L 585.618295 298.93 
" clip-path="url(#p630cb97ca4)" style="fill: none; stroke: #ffffff; stroke-width: 0.8; stroke-linecap: square"/>
     </g>
     <g id="line2d_38">
      <g>
       <use xlink:href="#m722d1f9ad2" x="585.618295" y="523.22" style="fill: #555555; stroke: #555555"/>
      </g>
     </g>
     <g id="text_16">
      <!-- 100.0 -->
      <g style="fill: #555555" transform="translate(573.02192 538.206625) scale(0.088 -0.088)">
       <use xlink:href="#DejaVuSans-31"/>
       <use xlink:href="#DejaVuSans-30" transform="translate(63.623047 0)"/>
       <use xlink:href="#DejaVuSans-30" transform="translate(127.246094 0)"/>
       <use xlink:href="#DejaVuSans-2e" transform="translate(190.869141 0)"/>
       <use xlink:href="#DejaVuSans-30" transform="translate(222.65625 0)"/>
      </g>
     </g>
    </g>
    <g id="xtick_14">
     <g id="line2d_39">
      <path d="M 687.973833 523.22 
L 687.973833 298.93 
" clip-path="url(#p630cb97ca4)" style="fill: none; stroke: #ffffff; stroke-width: 0.8; stroke-linecap: square"/>
     </g>
     <g id="line2d_40">
      <g>
       <use xlink:href="#m722d1f9ad2" x="687.973833" y="523.22" style="fill: #555555; stroke: #555555"/>
      </g>
     </g>
     <g id="text_17">
      <!-- 120.0 -->
      <g style="fill: #555555" transform="translate(675.377458 538.206625) scale(0.088 -0.088)">
       <use xlink:href="#DejaVuSans-31"/>
       <use xlink:href="#DejaVuSans-32" transform="translate(63.623047 0)"/>
       <use xlink:href="#DejaVuSans-30" transform="translate(127.246094 0)"/>
       <use xlink:href="#DejaVuSans-2e" transform="translate(190.869141 0)"/>
       <use xlink:href="#DejaVuSans-30" transform="translate(222.65625 0)"/>
      </g>
     </g>
    </g>
    <g id="text_18">
     <!-- Distance (km) -->
     <g style="fill: #555555" transform="translate(329.235419 553.154875) scale(0.12 -0.12)">
      <use xlink:href="#DejaVuSans-44"/>
      <use xlink:href="#DejaVuSans-69" transform="translate(77.001953 0)"/>
      <use xlink:href="#DejaVuSans-73" transform="translate(104.785156 0)"/>
      <use xlink:href="#DejaVuSans-74" transform="translate(156.884766 0)"/>
      <use xlink:href="#DejaVuSans-61" transform="translate(196.09375 0)"/>
      <use xlink:href="#DejaVuSans-6e" transform="translate(257.373047 0)"/>
      <use xlink:href="#DejaVuSans-63" transform="translate(320.751953 0)"/>
      <use xlink:href="#DejaVuSans-65" transform="translate(375.732422 0)"/>
      <use xlink:href="#DejaVuSans-20" transform="translate(437.255859 0)"/>
      <use xlink:href="#DejaVuSans-28" transform="translate(469.042969 0)"/>
      <use xlink:href="#DejaVuSans-6b" transform="translate(508.056641 0)"/>
      <use xlink:href="#DejaVuSans-6d" transform="translate(565.966797 0)"/>
      <use xlink:href="#DejaVuSans-29" transform="translate(663.378906 0)"/>
     </g>
    </g>
   </g>
   <g id="matplotlib.axis_4">
    <g id="ytick_6">
     <g id="line2d_41">
      <path d="M 44.086875 514.115398 
L 698.668963 514.115398 
" clip-path="url(#p630cb97ca4)" style="fill: none; stroke: #ffffff; stroke-width: 0.8; stroke-linecap: square"/>
     </g>
     <g id="line2d_42">
      <g>
       <use xlink:href="#m0ff53a6c13" x="44.086875" y="514.115398" style="fill: #555555; stroke: #555555"/>
      </g>
     </g>
     <g id="text_19">
      <!-- −4 -->
      <g style="fill: #555555" transform="translate(22.81375 517.458711) scale(0.088 -0.088)">
       <use xlink:href="#DejaVuSans-2212"/>
       <use xlink:href="#DejaVuSans-34" transform="translate(83.789062 0)"/>
      </g>
     </g>
    </g>
    <g id="ytick_7">
     <g id="line2d_43">
      <path d="M 44.086875 465.407472 
L 698.668963 465.407472 
" clip-path="url(#p630cb97ca4)" style="fill: none; stroke: #ffffff; stroke-width: 0.8; stroke-linecap: square"/>
     </g>
     <g id="line2d_44">
      <g>
       <use xlink:href="#m0ff53a6c13" x="44.086875" y="465.407472" style="fill: #555555; stroke: #555555"/>
      </g>
     </g>
     <g id="text_20">
      <!-- −2 -->
      <g style="fill: #555555" transform="translate(22.81375 468.750785) scale(0.088 -0.088)">
       <use xlink:href="#DejaVuSans-2212"/>
       <use xlink:href="#DejaVuSans-32" transform="translate(83.789062 0)"/>
      </g>
     </g>
    </g>
    <g id="ytick_8">
     <g id="line2d_45">
      <path d="M 44.086875 416.699547 
L 698.668963 416.699547 
" clip-path="url(#p630cb97ca4)" style="fill: none; stroke: #ffffff; stroke-width: 0.8; stroke-linecap: square"/>
     </g>
     <g id="line2d_46">
      <g>
       <use xlink:href="#m0ff53a6c13" x="44.086875" y="416.699547" style="fill: #555555; stroke: #555555"/>
      </g>
     </g>
     <g id="text_21">
      <!-- 0 -->
      <g style="fill: #555555" transform="translate(30.187875 420.042859) scale(0.088 -0.088)">
       <use xlink:href="#DejaVuSans-30"/>
      </g>
     </g>
    </g>
    <g id="ytick_9">
     <g id="line2d_47">
      <path d="M 44.086875 367.991621 
L 698.668963 367.991621 
" clip-path="url(#p630cb97ca4)" style="fill: none; stroke: #ffffff; stroke-width: 0.8; stroke-linecap: square"/>
     </g>
     <g id="line2d_48">
      <g>
       <use xlink:href="#m0ff53a6c13" x="44.086875" y="367.991621" style="fill: #555555; stroke: #555555"/>
      </g>
     </g>
     <g id="text_22">
      <!-- 2 -->
      <g style="fill: #555555" transform="translate(30.187875 371.334934) scale(0.088 -0.088)">
       <use xlink:href="#DejaVuSans-32"/>
      </g>
     </g>
    </g>
    <g id="ytick_10">
     <g id="line2d_49">
      <path d="M 44.086875 319.283695 
L 698.668963 319.283695 
" clip-path="url(#p630cb97ca4)" style="fill: none; stroke: #ffffff; stroke-width: 0.8; stroke-linecap: square"/>
     </g>
     <g id="line2d_50">
      <g>
       <use xlink:href="#m0ff53a6c13" x="44.086875" y="319.283695" style="fill: #555555; stroke: #555555"/>
      </g>
     </g>
     <g id="text_23">
      <!-- 4 -->
      <g style="fill: #555555" transform="translate(30.187875 322.627008) scale(0.088 -0.088)">
       <use xlink:href="#DejaVuSans-34"/>
      </g>
     </g>
    </g>
    <g id="text_24">
     <!-- Density -->
     <g style="fill: #555555" transform="translate(16.318125 433.885313) rotate(-90) scale(0.12 -0.12)">
      <use xlink:href="#DejaVuSans-44"/>
      <use xlink:href="#DejaVuSans-65" transform="translate(77.001953 0)"/>
      <use xlink:href="#DejaVuSans-6e" transform="translate(138.525391 0)"/>
      <use xlink:href="#DejaVuSans-73" transform="translate(201.904297 0)"/>
      <use xlink:href="#DejaVuSans-69" transform="translate(254.003906 0)"/>
      <use xlink:href="#DejaVuSans-74" transform="translate(281.787109 0)"/>
      <use xlink:href="#DejaVuSans-79" transform="translate(320.996094 0)"/>
     </g>
    </g>
    <g id="text_25">
     <!-- 1e−6 -->
     <g style="fill: #555555" transform="translate(44.086875 295.93) scale(0.088 -0.088)">
      <use xlink:href="#DejaVuSans-31"/>
      <use xlink:href="#DejaVuSans-65" transform="translate(63.623047 0)"/>
      <use xlink:href="#DejaVuSans-2212" transform="translate(125.146484 0)"/>
      <use xlink:href="#DejaVuSans-36" transform="translate(208.935547 0)"/>
     </g>
    </g>
   </g>
   <g id="FillBetweenPolyCollection_2">
    <defs>
     <path id="medfcf905a2" d="M 73.840606 -156.353531 
L 73.840606 -151.031669 
L 85.984986 -161.332555 
L 98.129367 -156.153143 
L 110.273747 -135.146109 
L 122.418127 -106.821184 
L 134.562507 -83.426341 
L 146.706887 -71.787064 
L 158.851267 -72.411442 
L 170.995647 -64.545068 
L 183.140027 -51.932027 
L 195.284407 -49.8255 
L 207.428788 -53.401483 
L 219.573168 -63.318537 
L 231.717548 -76.66071 
L 243.861928 -87.894325 
L 256.006308 -93.931383 
L 268.150688 -96.893588 
L 280.295068 -108.880529 
L 292.439448 -130.724688 
L 304.583828 -159.3794 
L 316.728209 -181.535284 
L 328.872589 -184.589647 
L 341.016969 -180.726953 
L 353.161349 -178.722193 
L 365.305729 -180.343809 
L 377.450109 -184.785736 
L 389.594489 -199.059161 
L 401.738869 -213.092199 
L 413.883249 -214.155554 
L 426.02763 -202.252705 
L 438.17201 -188.21706 
L 450.31639 -170.651184 
L 462.46077 -150.164787 
L 474.60515 -130.569603 
L 486.74953 -117.017537 
L 498.89391 -110.711187 
L 511.03829 -107.94576 
L 523.182671 -104.82677 
L 535.327051 -105.142909 
L 547.471431 -109.142091 
L 559.615811 -113.449426 
L 571.760191 -117.410843 
L 583.904571 -121.316111 
L 596.048951 -124.957037 
L 608.193331 -128.095716 
L 620.337711 -131.022436 
L 632.482092 -133.286542 
L 644.626472 -135.303093 
L 656.770852 -136.856505 
L 668.915232 -138.262963 
L 668.915232 -144.554602 
L 668.915232 -144.554602 
L 656.770852 -143.87266 
L 644.626472 -143.202578 
L 632.482092 -142.221063 
L 620.337711 -141.086876 
L 608.193331 -139.639139 
L 596.048951 -137.713217 
L 583.904571 -135.793084 
L 571.760191 -133.339116 
L 559.615811 -130.885627 
L 547.471431 -128.205656 
L 535.327051 -126.69705 
L 523.182671 -128.500936 
L 511.03829 -133.343376 
L 498.89391 -138.836658 
L 486.74953 -147.070241 
L 474.60515 -162.50251 
L 462.46077 -183.775052 
L 450.31639 -205.285122 
L 438.17201 -225.790543 
L 426.02763 -241.366844 
L 413.883249 -253.7255 
L 401.738869 -253.403038 
L 389.594489 -240.437282 
L 377.450109 -226.814093 
L 365.305729 -222.29861 
L 353.161349 -219.789062 
L 341.016969 -221.162451 
L 328.872589 -222.608565 
L 316.728209 -217.608357 
L 304.583828 -193.386606 
L 292.439448 -164.2543 
L 280.295068 -143.912933 
L 268.150688 -129.453713 
L 256.006308 -127.769577 
L 243.861928 -126.176356 
L 231.717548 -122.416776 
L 219.573168 -115.276898 
L 207.428788 -109.892755 
L 195.284407 -111.084506 
L 183.140027 -116.502042 
L 170.995647 -130.945087 
L 158.851267 -139.412761 
L 146.706887 -137.468795 
L 134.562507 -142.389386 
L 122.418127 -158.659096 
L 110.273747 -176.105576 
L 98.129367 -184.677796 
L 85.984986 -176.627089 
L 73.840606 -156.353531 
z
" style="stroke: #008000; stroke-opacity: 0.2; stroke-width: 0.8"/>
    </defs>
    <g clip-path="url(#p630cb97ca4)">
     <use xlink:href="#medfcf905a2" x="0" y="562.8505" style="fill: #008000; fill-opacity: 0.2; stroke: #008000; stroke-opacity: 0.2; stroke-width: 0.8"/>
    </g>
   </g>
   <g id="line2d_51">
    <path d="M 73.840606 409.111431 
L 85.984986 393.646358 
L 98.129367 391.339602 
L 110.273747 406.065652 
L 122.418127 427.876794 
L 134.562507 448.429212 
L 146.706887 455.960225 
L 158.851267 455.560866 
L 170.995647 464.606142 
L 183.140027 477.561116 
L 195.284407 481.895858 
L 207.428788 480.263043 
L 219.573168 473.742705 
L 231.717548 463.748347 
L 243.861928 455.605816 
L 256.006308 452.18068 
L 268.150688 449.522683 
L 280.295068 437.452315 
L 292.439448 415.854965 
L 304.583828 386.833511 
L 316.728209 364.386307 
L 328.872589 359.64871 
L 341.016969 362.933633 
L 353.161349 364.442342 
L 365.305729 362.027079 
L 377.450109 357.220695 
L 389.594489 343.304772 
L 401.738869 329.676384 
L 413.883249 329.064272 
L 426.02763 340.88686 
L 438.17201 356.259526 
L 450.31639 375.306798 
L 462.46077 395.864714 
L 474.60515 415.993919 
L 486.74953 430.472163 
L 498.89391 437.350046 
L 511.03829 441.690317 
L 523.182671 445.736504 
L 535.327051 446.509541 
L 547.471431 443.683865 
L 559.615811 440.188634 
L 571.760191 437.036461 
L 583.904571 433.941293 
L 596.048951 431.059512 
L 608.193331 428.598051 
L 620.337711 426.517564 
L 632.482092 424.753718 
L 644.626472 423.284608 
L 656.770852 422.069464 
L 668.915232 421.038999 
" clip-path="url(#p630cb97ca4)" style="fill: none; stroke: #008000; stroke-width: 1.2; stroke-linecap: square"/>
   </g>
   <g id="patch_8">
    <path d="M 44.086875 523.22 
L 44.086875 298.93 
" style="fill: none; stroke: #ffffff; stroke-linejoin: miter; stroke-linecap: square"/>
   </g>
   <g id="patch_9">
    <path d="M 698.668963 523.22 
L 698.668963 298.93 
" style="fill: none; stroke: #ffffff; stroke-linejoin: miter; stroke-linecap: square"/>
   </g>
   <g id="patch_10">
    <path d="M 44.086875 523.22 
L 698.668963 523.22 
" style="fill: none; stroke: #ffffff; stroke-linejoin: miter; stroke-linecap: square"/>
   </g>
   <g id="patch_11">
    <path d="M 44.086875 298.93 
L 698.668963 298.93 
" style="fill: none; stroke: #ffffff; stroke-linejoin: miter; stroke-linecap: square"/>
   </g>
   <g id="text_26">
    <!-- $\Delta$PDD Hampshire -->
    <g transform="translate(311.317919 292.93) scale(0.14 -0.14)">
     <defs>
      <path id="DejaVuSans-48" d="M 628 4666 
L 1259 4666 
L 1259 2753 
L 3553 2753 
L 3553 4666 
L 4184 4666 
L 4184 0 
L 3553 0 
L 3553 2222 
L 1259 2222 
L 1259 0 
L 628 0 
L 628 4666 
z
" transform="scale(0.015625)"/>
      <path id="DejaVuSans-70" d="M 1159 525 
L 1159 -1331 
L 581 -1331 
L 581 3500 
L 1159 3500 
L 1159 2969 
Q 1341 3281 1617 3432 
Q 1894 3584 2278 3584 
Q 2916 3584 3314 3078 
Q 3713 2572 3713 1747 
Q 3713 922 3314 415 
Q 2916 -91 2278 -91 
Q 1894 -91 1617 61 
Q 1341 213 1159 525 
z
M 3116 1747 
Q 3116 2381 2855 2742 
Q 2594 3103 2138 3103 
Q 1681 3103 1420 2742 
Q 1159 2381 1159 1747 
Q 1159 1113 1420 752 
Q 1681 391 2138 391 
Q 2594 391 2855 752 
Q 3116 1113 3116 1747 
z
" transform="scale(0.015625)"/>
      <path id="DejaVuSans-68" d="M 3513 2113 
L 3513 0 
L 2938 0 
L 2938 2094 
Q 2938 2591 2744 2837 
Q 2550 3084 2163 3084 
Q 1697 3084 1428 2787 
Q 1159 2491 1159 1978 
L 1159 0 
L 581 0 
L 581 4863 
L 1159 4863 
L 1159 2956 
Q 1366 3272 1645 3428 
Q 1925 3584 2291 3584 
Q 2894 3584 3203 3211 
Q 3513 2838 3513 2113 
z
" transform="scale(0.015625)"/>
     </defs>
     <use xlink:href="#DejaVuSans-394" transform="translate(0 0.015625)"/>
     <use xlink:href="#DejaVuSans-50" transform="translate(68.408203 0.015625)"/>
     <use xlink:href="#DejaVuSans-44" transform="translate(128.710938 0.015625)"/>
     <use xlink:href="#DejaVuSans-44" transform="translate(205.712891 0.015625)"/>
     <use xlink:href="#DejaVuSans-20" transform="translate(282.714844 0.015625)"/>
     <use xlink:href="#DejaVuSans-48" transform="translate(314.501953 0.015625)"/>
     <use xlink:href="#DejaVuSans-61" transform="translate(389.697266 0.015625)"/>
     <use xlink:href="#DejaVuSans-6d" transform="translate(450.976562 0.015625)"/>
     <use xlink:href="#DejaVuSans-70" transform="translate(548.388672 0.015625)"/>
     <use xlink:href="#DejaVuSans-73" transform="translate(611.865234 0.015625)"/>
     <use xlink:href="#DejaVuSans-68" transform="translate(663.964844 0.015625)"/>
     <use xlink:href="#DejaVuSans-69" transform="translate(727.34375 0.015625)"/>
     <use xlink:href="#DejaVuSans-72" transform="translate(755.126953 0.015625)"/>
     <use xlink:href="#DejaVuSans-65" transform="translate(796.240234 0.015625)"/>
    </g>
   </g>
   <g id="legend_2">
    <g id="line2d_52">
     <path d="M 575.868963 312.03 
L 585.868963 312.03 
L 595.868963 312.03 
" style="fill: none; stroke: #008000; stroke-width: 1.2; stroke-linecap: square"/>
    </g>
    <g id="text_27">
     <!-- $\Delta$PDD Hampshire -->
     <g transform="translate(603.868963 315.53) scale(0.1 -0.1)">
      <use xlink:href="#DejaVuSans-394" transform="translate(0 0.015625)"/>
      <use xlink:href="#DejaVuSans-50" transform="translate(68.408203 0.015625)"/>
      <use xlink:href="#DejaVuSans-44" transform="translate(128.710938 0.015625)"/>
      <use xlink:href="#DejaVuSans-44" transform="translate(205.712891 0.015625)"/>
      <use xlink:href="#DejaVuSans-20" transform="translate(282.714844 0.015625)"/>
      <use xlink:href="#DejaVuSans-48" transform="translate(314.501953 0.015625)"/>
      <use xlink:href="#DejaVuSans-61" transform="translate(389.697266 0.015625)"/>
      <use xlink:href="#DejaVuSans-6d" transform="translate(450.976562 0.015625)"/>
      <use xlink:href="#DejaVuSans-70" transform="translate(548.388672 0.015625)"/>
      <use xlink:href="#DejaVuSans-73" transform="translate(611.865234 0.015625)"/>
      <use xlink:href="#DejaVuSans-68" transform="translate(663.964844 0.015625)"/>
      <use xlink:href="#DejaVuSans-69" transform="translate(727.34375 0.015625)"/>
      <use xlink:href="#DejaVuSans-72" transform="translate(755.126953 0.015625)"/>
      <use xlink:href="#DejaVuSans-65" transform="translate(796.240234 0.015625)"/>
     </g>
    </g>
   </g>
  </g>
 </g>
 <defs>
  <clipPath id="p9611a69c5c">
   <rect x="44.086875" y="23.84" width="654.582088" height="224.29"/>
  </clipPath>
  <clipPath id="p630cb97ca4">
   <rect x="44.086875" y="298.93" width="654.582088" height="224.29"/>
  </clipPath>
 </defs>
</svg>
