<?xml version="1.0" encoding="utf-8" standalone="no"?>
<!DOCTYPE svg PUBLIC "-//W3C//DTD SVG 1.1//EN"
  "http://www.w3.org/Graphics/SVG/1.1/DTD/svg11.dtd">
<svg xmlns:xlink="http://www.w3.org/1999/xlink" width="611.93098pt" height="340.668313pt" viewBox="0 0 611.93098 340.668313" xmlns="http://www.w3.org/2000/svg" version="1.1">
 <metadata>
  <rdf:RDF xmlns:dc="http://purl.org/dc/elements/1.1/" xmlns:cc="http://creativecommons.org/ns#" xmlns:rdf="http://www.w3.org/1999/02/22-rdf-syntax-ns#">
   <cc:Work>
    <dc:type rdf:resource="http://purl.org/dc/dcmitype/StillImage"/>
    <dc:date>2025-04-28T18:14:05.173915</dc:date>
    <dc:format>image/svg+xml</dc:format>
    <dc:creator>
     <cc:Agent>
      <dc:title>Matplotlib v3.10.1, https://matplotlib.org/</dc:title>
     </cc:Agent>
    </dc:creator>
   </cc:Work>
  </rdf:RDF>
 </metadata>
 <defs>
  <style type="text/css">*{stroke-linejoin: round; stroke-linecap: butt}</style>
 </defs>
 <g id="figure_1">
  <g id="patch_1">
   <path d="M 0 340.668313 
L 611.93098 340.668313 
L 611.93098 0 
L 0 0 
z
" style="fill: #ffffff"/>
  </g>
  <g id="axes_1">
   <g id="patch_2">
    <path d="M 45.1085 301.037813 
L 603.1085 301.037813 
L 603.1085 23.837813 
L 45.1085 23.837813 
z
" style="fill: #e5e5e5"/>
   </g>
   <g id="matplotlib.axis_1">
    <g id="xtick_1">
     <g id="line2d_1">
      <path d="M 70.472136 301.037813 
L 70.472136 23.837813 
" clip-path="url(#p24e834005d)" style="fill: none; stroke: #ffffff; stroke-width: 0.8; stroke-linecap: square"/>
     </g>
     <g id="line2d_2">
      <defs>
       <path id="m2379c85353" d="M 0 0 
L 0 4.8 
" style="stroke: #555555"/>
      </defs>
      <g>
       <use xlink:href="#m2379c85353" x="70.472136" y="301.037813" style="fill: #555555; stroke: #555555"/>
      </g>
     </g>
     <g id="text_1">
      <!-- 0.0 -->
      <g style="fill: #555555" transform="translate(63.474761 316.024438) scale(0.088 -0.088)">
       <defs>
        <path id="DejaVuSans-30" d="M 2034 4250 
Q 1547 4250 1301 3770 
Q 1056 3291 1056 2328 
Q 1056 1369 1301 889 
Q 1547 409 2034 409 
Q 2525 409 2770 889 
Q 3016 1369 3016 2328 
Q 3016 3291 2770 3770 
Q 2525 4250 2034 4250 
z
M 2034 4750 
Q 2819 4750 3233 4129 
Q 3647 3509 3647 2328 
Q 3647 1150 3233 529 
Q 2819 -91 2034 -91 
Q 1250 -91 836 529 
Q 422 1150 422 2328 
Q 422 3509 836 4129 
Q 1250 4750 2034 4750 
z
" transform="scale(0.015625)"/>
        <path id="DejaVuSans-2e" d="M 684 794 
L 1344 794 
L 1344 0 
L 684 0 
L 684 794 
z
" transform="scale(0.015625)"/>
       </defs>
       <use xlink:href="#DejaVuSans-30"/>
       <use xlink:href="#DejaVuSans-2e" transform="translate(63.623047 0)"/>
       <use xlink:href="#DejaVuSans-30" transform="translate(95.410156 0)"/>
      </g>
     </g>
    </g>
    <g id="xtick_2">
     <g id="line2d_3">
      <path d="M 136.029882 301.037813 
L 136.029882 23.837813 
" clip-path="url(#p24e834005d)" style="fill: none; stroke: #ffffff; stroke-width: 0.8; stroke-linecap: square"/>
     </g>
     <g id="line2d_4">
      <g>
       <use xlink:href="#m2379c85353" x="136.029882" y="301.037813" style="fill: #555555; stroke: #555555"/>
      </g>
     </g>
     <g id="text_2">
      <!-- 10.0 -->
      <g style="fill: #555555" transform="translate(126.233007 316.024438) scale(0.088 -0.088)">
       <defs>
        <path id="DejaVuSans-31" d="M 794 531 
L 1825 531 
L 1825 4091 
L 703 3866 
L 703 4441 
L 1819 4666 
L 2450 4666 
L 2450 531 
L 3481 531 
L 3481 0 
L 794 0 
L 794 531 
z
" transform="scale(0.015625)"/>
       </defs>
       <use xlink:href="#DejaVuSans-31"/>
       <use xlink:href="#DejaVuSans-30" transform="translate(63.623047 0)"/>
       <use xlink:href="#DejaVuSans-2e" transform="translate(127.246094 0)"/>
       <use xlink:href="#DejaVuSans-30" transform="translate(159.033203 0)"/>
      </g>
     </g>
    </g>
    <g id="xtick_3">
     <g id="line2d_5">
      <path d="M 201.587628 301.037813 
L 201.587628 23.837813 
" clip-path="url(#p24e834005d)" style="fill: none; stroke: #ffffff; stroke-width: 0.8; stroke-linecap: square"/>
     </g>
     <g id="line2d_6">
      <g>
       <use xlink:href="#m2379c85353" x="201.587628" y="301.037813" style="fill: #555555; stroke: #555555"/>
      </g>
     </g>
     <g id="text_3">
      <!-- 20.0 -->
      <g style="fill: #555555" transform="translate(191.790753 316.024438) scale(0.088 -0.088)">
       <defs>
        <path id="DejaVuSans-32" d="M 1228 531 
L 3431 531 
L 3431 0 
L 469 0 
L 469 531 
Q 828 903 1448 1529 
Q 2069 2156 2228 2338 
Q 2531 2678 2651 2914 
Q 2772 3150 2772 3378 
Q 2772 3750 2511 3984 
Q 2250 4219 1831 4219 
Q 1534 4219 1204 4116 
Q 875 4013 500 3803 
L 500 4441 
Q 881 4594 1212 4672 
Q 1544 4750 1819 4750 
Q 2544 4750 2975 4387 
Q 3406 4025 3406 3419 
Q 3406 3131 3298 2873 
Q 3191 2616 2906 2266 
Q 2828 2175 2409 1742 
Q 1991 1309 1228 531 
z
" transform="scale(0.015625)"/>
       </defs>
       <use xlink:href="#DejaVuSans-32"/>
       <use xlink:href="#DejaVuSans-30" transform="translate(63.623047 0)"/>
       <use xlink:href="#DejaVuSans-2e" transform="translate(127.246094 0)"/>
       <use xlink:href="#DejaVuSans-30" transform="translate(159.033203 0)"/>
      </g>
     </g>
    </g>
    <g id="xtick_4">
     <g id="line2d_7">
      <path d="M 267.145374 301.037813 
L 267.145374 23.837813 
" clip-path="url(#p24e834005d)" style="fill: none; stroke: #ffffff; stroke-width: 0.8; stroke-linecap: square"/>
     </g>
     <g id="line2d_8">
      <g>
       <use xlink:href="#m2379c85353" x="267.145374" y="301.037813" style="fill: #555555; stroke: #555555"/>
      </g>
     </g>
     <g id="text_4">
      <!-- 30.0 -->
      <g style="fill: #555555" transform="translate(257.348499 316.024438) scale(0.088 -0.088)">
       <defs>
        <path id="DejaVuSans-33" d="M 2597 2516 
Q 3050 2419 3304 2112 
Q 3559 1806 3559 1356 
Q 3559 666 3084 287 
Q 2609 -91 1734 -91 
Q 1441 -91 1130 -33 
Q 819 25 488 141 
L 488 750 
Q 750 597 1062 519 
Q 1375 441 1716 441 
Q 2309 441 2620 675 
Q 2931 909 2931 1356 
Q 2931 1769 2642 2001 
Q 2353 2234 1838 2234 
L 1294 2234 
L 1294 2753 
L 1863 2753 
Q 2328 2753 2575 2939 
Q 2822 3125 2822 3475 
Q 2822 3834 2567 4026 
Q 2313 4219 1838 4219 
Q 1578 4219 1281 4162 
Q 984 4106 628 3988 
L 628 4550 
Q 988 4650 1302 4700 
Q 1616 4750 1894 4750 
Q 2613 4750 3031 4423 
Q 3450 4097 3450 3541 
Q 3450 3153 3228 2886 
Q 3006 2619 2597 2516 
z
" transform="scale(0.015625)"/>
       </defs>
       <use xlink:href="#DejaVuSans-33"/>
       <use xlink:href="#DejaVuSans-30" transform="translate(63.623047 0)"/>
       <use xlink:href="#DejaVuSans-2e" transform="translate(127.246094 0)"/>
       <use xlink:href="#DejaVuSans-30" transform="translate(159.033203 0)"/>
      </g>
     </g>
    </g>
    <g id="xtick_5">
     <g id="line2d_9">
      <path d="M 332.703121 301.037813 
L 332.703121 23.837813 
" clip-path="url(#p24e834005d)" style="fill: none; stroke: #ffffff; stroke-width: 0.8; stroke-linecap: square"/>
     </g>
     <g id="line2d_10">
      <g>
       <use xlink:href="#m2379c85353" x="332.703121" y="301.037813" style="fill: #555555; stroke: #555555"/>
      </g>
     </g>
     <g id="text_5">
      <!-- 40.0 -->
      <g style="fill: #555555" transform="translate(322.906246 316.024438) scale(0.088 -0.088)">
       <defs>
        <path id="DejaVuSans-34" d="M 2419 4116 
L 825 1625 
L 2419 1625 
L 2419 4116 
z
M 2253 4666 
L 3047 4666 
L 3047 1625 
L 3713 1625 
L 3713 1100 
L 3047 1100 
L 3047 0 
L 2419 0 
L 2419 1100 
L 313 1100 
L 313 1709 
L 2253 4666 
z
" transform="scale(0.015625)"/>
       </defs>
       <use xlink:href="#DejaVuSans-34"/>
       <use xlink:href="#DejaVuSans-30" transform="translate(63.623047 0)"/>
       <use xlink:href="#DejaVuSans-2e" transform="translate(127.246094 0)"/>
       <use xlink:href="#DejaVuSans-30" transform="translate(159.033203 0)"/>
      </g>
     </g>
    </g>
    <g id="xtick_6">
     <g id="line2d_11">
      <path d="M 398.260867 301.037813 
L 398.260867 23.837813 
" clip-path="url(#p24e834005d)" style="fill: none; stroke: #ffffff; stroke-width: 0.8; stroke-linecap: square"/>
     </g>
     <g id="line2d_12">
      <g>
       <use xlink:href="#m2379c85353" x="398.260867" y="301.037813" style="fill: #555555; stroke: #555555"/>
      </g>
     </g>
     <g id="text_6">
      <!-- 50.0 -->
      <g style="fill: #555555" transform="translate(388.463992 316.024438) scale(0.088 -0.088)">
       <defs>
        <path id="DejaVuSans-35" d="M 691 4666 
L 3169 4666 
L 3169 4134 
L 1269 4134 
L 1269 2991 
Q 1406 3038 1543 3061 
Q 1681 3084 1819 3084 
Q 2600 3084 3056 2656 
Q 3513 2228 3513 1497 
Q 3513 744 3044 326 
Q 2575 -91 1722 -91 
Q 1428 -91 1123 -41 
Q 819 9 494 109 
L 494 744 
Q 775 591 1075 516 
Q 1375 441 1709 441 
Q 2250 441 2565 725 
Q 2881 1009 2881 1497 
Q 2881 1984 2565 2268 
Q 2250 2553 1709 2553 
Q 1456 2553 1204 2497 
Q 953 2441 691 2322 
L 691 4666 
z
" transform="scale(0.015625)"/>
       </defs>
       <use xlink:href="#DejaVuSans-35"/>
       <use xlink:href="#DejaVuSans-30" transform="translate(63.623047 0)"/>
       <use xlink:href="#DejaVuSans-2e" transform="translate(127.246094 0)"/>
       <use xlink:href="#DejaVuSans-30" transform="translate(159.033203 0)"/>
      </g>
     </g>
    </g>
    <g id="xtick_7">
     <g id="line2d_13">
      <path d="M 463.818613 301.037813 
L 463.818613 23.837813 
" clip-path="url(#p24e834005d)" style="fill: none; stroke: #ffffff; stroke-width: 0.8; stroke-linecap: square"/>
     </g>
     <g id="line2d_14">
      <g>
       <use xlink:href="#m2379c85353" x="463.818613" y="301.037813" style="fill: #555555; stroke: #555555"/>
      </g>
     </g>
     <g id="text_7">
      <!-- 60.0 -->
      <g style="fill: #555555" transform="translate(454.021738 316.024438) scale(0.088 -0.088)">
       <defs>
        <path id="DejaVuSans-36" d="M 2113 2584 
Q 1688 2584 1439 2293 
Q 1191 2003 1191 1497 
Q 1191 994 1439 701 
Q 1688 409 2113 409 
Q 2538 409 2786 701 
Q 3034 994 3034 1497 
Q 3034 2003 2786 2293 
Q 2538 2584 2113 2584 
z
M 3366 4563 
L 3366 3988 
Q 3128 4100 2886 4159 
Q 2644 4219 2406 4219 
Q 1781 4219 1451 3797 
Q 1122 3375 1075 2522 
Q 1259 2794 1537 2939 
Q 1816 3084 2150 3084 
Q 2853 3084 3261 2657 
Q 3669 2231 3669 1497 
Q 3669 778 3244 343 
Q 2819 -91 2113 -91 
Q 1303 -91 875 529 
Q 447 1150 447 2328 
Q 447 3434 972 4092 
Q 1497 4750 2381 4750 
Q 2619 4750 2861 4703 
Q 3103 4656 3366 4563 
z
" transform="scale(0.015625)"/>
       </defs>
       <use xlink:href="#DejaVuSans-36"/>
       <use xlink:href="#DejaVuSans-30" transform="translate(63.623047 0)"/>
       <use xlink:href="#DejaVuSans-2e" transform="translate(127.246094 0)"/>
       <use xlink:href="#DejaVuSans-30" transform="translate(159.033203 0)"/>
      </g>
     </g>
    </g>
    <g id="xtick_8">
     <g id="line2d_15">
      <path d="M 529.376359 301.037813 
L 529.376359 23.837813 
" clip-path="url(#p24e834005d)" style="fill: none; stroke: #ffffff; stroke-width: 0.8; stroke-linecap: square"/>
     </g>
     <g id="line2d_16">
      <g>
       <use xlink:href="#m2379c85353" x="529.376359" y="301.037813" style="fill: #555555; stroke: #555555"/>
      </g>
     </g>
     <g id="text_8">
      <!-- 70.0 -->
      <g style="fill: #555555" transform="translate(519.579484 316.024438) scale(0.088 -0.088)">
       <defs>
        <path id="DejaVuSans-37" d="M 525 4666 
L 3525 4666 
L 3525 4397 
L 1831 0 
L 1172 0 
L 2766 4134 
L 525 4134 
L 525 4666 
z
" transform="scale(0.015625)"/>
       </defs>
       <use xlink:href="#DejaVuSans-37"/>
       <use xlink:href="#DejaVuSans-30" transform="translate(63.623047 0)"/>
       <use xlink:href="#DejaVuSans-2e" transform="translate(127.246094 0)"/>
       <use xlink:href="#DejaVuSans-30" transform="translate(159.033203 0)"/>
      </g>
     </g>
    </g>
    <g id="xtick_9">
     <g id="line2d_17">
      <path d="M 594.934105 301.037813 
L 594.934105 23.837813 
" clip-path="url(#p24e834005d)" style="fill: none; stroke: #ffffff; stroke-width: 0.8; stroke-linecap: square"/>
     </g>
     <g id="line2d_18">
      <g>
       <use xlink:href="#m2379c85353" x="594.934105" y="301.037813" style="fill: #555555; stroke: #555555"/>
      </g>
     </g>
     <g id="text_9">
      <!-- 80.0 -->
      <g style="fill: #555555" transform="translate(585.13723 316.024438) scale(0.088 -0.088)">
       <defs>
        <path id="DejaVuSans-38" d="M 2034 2216 
Q 1584 2216 1326 1975 
Q 1069 1734 1069 1313 
Q 1069 891 1326 650 
Q 1584 409 2034 409 
Q 2484 409 2743 651 
Q 3003 894 3003 1313 
Q 3003 1734 2745 1975 
Q 2488 2216 2034 2216 
z
M 1403 2484 
Q 997 2584 770 2862 
Q 544 3141 544 3541 
Q 544 4100 942 4425 
Q 1341 4750 2034 4750 
Q 2731 4750 3128 4425 
Q 3525 4100 3525 3541 
Q 3525 3141 3298 2862 
Q 3072 2584 2669 2484 
Q 3125 2378 3379 2068 
Q 3634 1759 3634 1313 
Q 3634 634 3220 271 
Q 2806 -91 2034 -91 
Q 1263 -91 848 271 
Q 434 634 434 1313 
Q 434 1759 690 2068 
Q 947 2378 1403 2484 
z
M 1172 3481 
Q 1172 3119 1398 2916 
Q 1625 2713 2034 2713 
Q 2441 2713 2670 2916 
Q 2900 3119 2900 3481 
Q 2900 3844 2670 4047 
Q 2441 4250 2034 4250 
Q 1625 4250 1398 4047 
Q 1172 3844 1172 3481 
z
" transform="scale(0.015625)"/>
       </defs>
       <use xlink:href="#DejaVuSans-38"/>
       <use xlink:href="#DejaVuSans-30" transform="translate(63.623047 0)"/>
       <use xlink:href="#DejaVuSans-2e" transform="translate(127.246094 0)"/>
       <use xlink:href="#DejaVuSans-30" transform="translate(159.033203 0)"/>
      </g>
     </g>
    </g>
    <g id="text_10">
     <!-- Distance (km) -->
     <g style="fill: #555555" transform="translate(281.966 330.972688) scale(0.12 -0.12)">
      <defs>
       <path id="DejaVuSans-44" d="M 1259 4147 
L 1259 519 
L 2022 519 
Q 2988 519 3436 956 
Q 3884 1394 3884 2338 
Q 3884 3275 3436 3711 
Q 2988 4147 2022 4147 
L 1259 4147 
z
M 628 4666 
L 1925 4666 
Q 3281 4666 3915 4102 
Q 4550 3538 4550 2338 
Q 4550 1131 3912 565 
Q 3275 0 1925 0 
L 628 0 
L 628 4666 
z
" transform="scale(0.015625)"/>
       <path id="DejaVuSans-69" d="M 603 3500 
L 1178 3500 
L 1178 0 
L 603 0 
L 603 3500 
z
M 603 4863 
L 1178 4863 
L 1178 4134 
L 603 4134 
L 603 4863 
z
" transform="scale(0.015625)"/>
       <path id="DejaVuSans-73" d="M 2834 3397 
L 2834 2853 
Q 2591 2978 2328 3040 
Q 2066 3103 1784 3103 
Q 1356 3103 1142 2972 
Q 928 2841 928 2578 
Q 928 2378 1081 2264 
Q 1234 2150 1697 2047 
L 1894 2003 
Q 2506 1872 2764 1633 
Q 3022 1394 3022 966 
Q 3022 478 2636 193 
Q 2250 -91 1575 -91 
Q 1294 -91 989 -36 
Q 684 19 347 128 
L 347 722 
Q 666 556 975 473 
Q 1284 391 1588 391 
Q 1994 391 2212 530 
Q 2431 669 2431 922 
Q 2431 1156 2273 1281 
Q 2116 1406 1581 1522 
L 1381 1569 
Q 847 1681 609 1914 
Q 372 2147 372 2553 
Q 372 3047 722 3315 
Q 1072 3584 1716 3584 
Q 2034 3584 2315 3537 
Q 2597 3491 2834 3397 
z
" transform="scale(0.015625)"/>
       <path id="DejaVuSans-74" d="M 1172 4494 
L 1172 3500 
L 2356 3500 
L 2356 3053 
L 1172 3053 
L 1172 1153 
Q 1172 725 1289 603 
Q 1406 481 1766 481 
L 2356 481 
L 2356 0 
L 1766 0 
Q 1100 0 847 248 
Q 594 497 594 1153 
L 594 3053 
L 172 3053 
L 172 3500 
L 594 3500 
L 594 4494 
L 1172 4494 
z
" transform="scale(0.015625)"/>
       <path id="DejaVuSans-61" d="M 2194 1759 
Q 1497 1759 1228 1600 
Q 959 1441 959 1056 
Q 959 750 1161 570 
Q 1363 391 1709 391 
Q 2188 391 2477 730 
Q 2766 1069 2766 1631 
L 2766 1759 
L 2194 1759 
z
M 3341 1997 
L 3341 0 
L 2766 0 
L 2766 531 
Q 2569 213 2275 61 
Q 1981 -91 1556 -91 
Q 1019 -91 701 211 
Q 384 513 384 1019 
Q 384 1609 779 1909 
Q 1175 2209 1959 2209 
L 2766 2209 
L 2766 2266 
Q 2766 2663 2505 2880 
Q 2244 3097 1772 3097 
Q 1472 3097 1187 3025 
Q 903 2953 641 2809 
L 641 3341 
Q 956 3463 1253 3523 
Q 1550 3584 1831 3584 
Q 2591 3584 2966 3190 
Q 3341 2797 3341 1997 
z
" transform="scale(0.015625)"/>
       <path id="DejaVuSans-6e" d="M 3513 2113 
L 3513 0 
L 2938 0 
L 2938 2094 
Q 2938 2591 2744 2837 
Q 2550 3084 2163 3084 
Q 1697 3084 1428 2787 
Q 1159 2491 1159 1978 
L 1159 0 
L 581 0 
L 581 3500 
L 1159 3500 
L 1159 2956 
Q 1366 3272 1645 3428 
Q 1925 3584 2291 3584 
Q 2894 3584 3203 3211 
Q 3513 2838 3513 2113 
z
" transform="scale(0.015625)"/>
       <path id="DejaVuSans-63" d="M 3122 3366 
L 3122 2828 
Q 2878 2963 2633 3030 
Q 2388 3097 2138 3097 
Q 1578 3097 1268 2742 
Q 959 2388 959 1747 
Q 959 1106 1268 751 
Q 1578 397 2138 397 
Q 2388 397 2633 464 
Q 2878 531 3122 666 
L 3122 134 
Q 2881 22 2623 -34 
Q 2366 -91 2075 -91 
Q 1284 -91 818 406 
Q 353 903 353 1747 
Q 353 2603 823 3093 
Q 1294 3584 2113 3584 
Q 2378 3584 2631 3529 
Q 2884 3475 3122 3366 
z
" transform="scale(0.015625)"/>
       <path id="DejaVuSans-65" d="M 3597 1894 
L 3597 1613 
L 953 1613 
Q 991 1019 1311 708 
Q 1631 397 2203 397 
Q 2534 397 2845 478 
Q 3156 559 3463 722 
L 3463 178 
Q 3153 47 2828 -22 
Q 2503 -91 2169 -91 
Q 1331 -91 842 396 
Q 353 884 353 1716 
Q 353 2575 817 3079 
Q 1281 3584 2069 3584 
Q 2775 3584 3186 3129 
Q 3597 2675 3597 1894 
z
M 3022 2063 
Q 3016 2534 2758 2815 
Q 2500 3097 2075 3097 
Q 1594 3097 1305 2825 
Q 1016 2553 972 2059 
L 3022 2063 
z
" transform="scale(0.015625)"/>
       <path id="DejaVuSans-20" transform="scale(0.015625)"/>
       <path id="DejaVuSans-28" d="M 1984 4856 
Q 1566 4138 1362 3434 
Q 1159 2731 1159 2009 
Q 1159 1288 1364 580 
Q 1569 -128 1984 -844 
L 1484 -844 
Q 1016 -109 783 600 
Q 550 1309 550 2009 
Q 550 2706 781 3412 
Q 1013 4119 1484 4856 
L 1984 4856 
z
" transform="scale(0.015625)"/>
       <path id="DejaVuSans-6b" d="M 581 4863 
L 1159 4863 
L 1159 1991 
L 2875 3500 
L 3609 3500 
L 1753 1863 
L 3688 0 
L 2938 0 
L 1159 1709 
L 1159 0 
L 581 0 
L 581 4863 
z
" transform="scale(0.015625)"/>
       <path id="DejaVuSans-6d" d="M 3328 2828 
Q 3544 3216 3844 3400 
Q 4144 3584 4550 3584 
Q 5097 3584 5394 3201 
Q 5691 2819 5691 2113 
L 5691 0 
L 5113 0 
L 5113 2094 
Q 5113 2597 4934 2840 
Q 4756 3084 4391 3084 
Q 3944 3084 3684 2787 
Q 3425 2491 3425 1978 
L 3425 0 
L 2847 0 
L 2847 2094 
Q 2847 2600 2669 2842 
Q 2491 3084 2119 3084 
Q 1678 3084 1418 2786 
Q 1159 2488 1159 1978 
L 1159 0 
L 581 0 
L 581 3500 
L 1159 3500 
L 1159 2956 
Q 1356 3278 1631 3431 
Q 1906 3584 2284 3584 
Q 2666 3584 2933 3390 
Q 3200 3197 3328 2828 
z
" transform="scale(0.015625)"/>
       <path id="DejaVuSans-29" d="M 513 4856 
L 1013 4856 
Q 1481 4119 1714 3412 
Q 1947 2706 1947 2009 
Q 1947 1309 1714 600 
Q 1481 -109 1013 -844 
L 513 -844 
Q 928 -128 1133 580 
Q 1338 1288 1338 2009 
Q 1338 2731 1133 3434 
Q 928 4138 513 4856 
z
" transform="scale(0.015625)"/>
      </defs>
      <use xlink:href="#DejaVuSans-44"/>
      <use xlink:href="#DejaVuSans-69" transform="translate(77.001953 0)"/>
      <use xlink:href="#DejaVuSans-73" transform="translate(104.785156 0)"/>
      <use xlink:href="#DejaVuSans-74" transform="translate(156.884766 0)"/>
      <use xlink:href="#DejaVuSans-61" transform="translate(196.09375 0)"/>
      <use xlink:href="#DejaVuSans-6e" transform="translate(257.373047 0)"/>
      <use xlink:href="#DejaVuSans-63" transform="translate(320.751953 0)"/>
      <use xlink:href="#DejaVuSans-65" transform="translate(375.732422 0)"/>
      <use xlink:href="#DejaVuSans-20" transform="translate(437.255859 0)"/>
      <use xlink:href="#DejaVuSans-28" transform="translate(469.042969 0)"/>
      <use xlink:href="#DejaVuSans-6b" transform="translate(508.056641 0)"/>
      <use xlink:href="#DejaVuSans-6d" transform="translate(565.966797 0)"/>
      <use xlink:href="#DejaVuSans-29" transform="translate(663.378906 0)"/>
     </g>
    </g>
   </g>
   <g id="matplotlib.axis_2">
    <g id="ytick_1">
     <g id="line2d_19">
      <path d="M 45.1085 288.437813 
L 603.1085 288.437813 
" clip-path="url(#p24e834005d)" style="fill: none; stroke: #ffffff; stroke-width: 0.8; stroke-linecap: square"/>
     </g>
     <g id="line2d_20">
      <defs>
       <path id="m78182919c4" d="M 0 0 
L -4.8 0 
" style="stroke: #555555"/>
      </defs>
      <g>
       <use xlink:href="#m78182919c4" x="45.1085" y="288.437813" style="fill: #555555; stroke: #555555"/>
      </g>
     </g>
     <g id="text_11">
      <!-- 0.0 -->
      <g style="fill: #555555" transform="translate(22.81375 291.781125) scale(0.088 -0.088)">
       <use xlink:href="#DejaVuSans-30"/>
       <use xlink:href="#DejaVuSans-2e" transform="translate(63.623047 0)"/>
       <use xlink:href="#DejaVuSans-30" transform="translate(95.410156 0)"/>
      </g>
     </g>
    </g>
    <g id="ytick_2">
     <g id="line2d_21">
      <path d="M 45.1085 256.317121 
L 603.1085 256.317121 
" clip-path="url(#p24e834005d)" style="fill: none; stroke: #ffffff; stroke-width: 0.8; stroke-linecap: square"/>
     </g>
     <g id="line2d_22">
      <g>
       <use xlink:href="#m78182919c4" x="45.1085" y="256.317121" style="fill: #555555; stroke: #555555"/>
      </g>
     </g>
     <g id="text_12">
      <!-- 0.5 -->
      <g style="fill: #555555" transform="translate(22.81375 259.660434) scale(0.088 -0.088)">
       <use xlink:href="#DejaVuSans-30"/>
       <use xlink:href="#DejaVuSans-2e" transform="translate(63.623047 0)"/>
       <use xlink:href="#DejaVuSans-35" transform="translate(95.410156 0)"/>
      </g>
     </g>
    </g>
    <g id="ytick_3">
     <g id="line2d_23">
      <path d="M 45.1085 224.19643 
L 603.1085 224.19643 
" clip-path="url(#p24e834005d)" style="fill: none; stroke: #ffffff; stroke-width: 0.8; stroke-linecap: square"/>
     </g>
     <g id="line2d_24">
      <g>
       <use xlink:href="#m78182919c4" x="45.1085" y="224.19643" style="fill: #555555; stroke: #555555"/>
      </g>
     </g>
     <g id="text_13">
      <!-- 1.0 -->
      <g style="fill: #555555" transform="translate(22.81375 227.539742) scale(0.088 -0.088)">
       <use xlink:href="#DejaVuSans-31"/>
       <use xlink:href="#DejaVuSans-2e" transform="translate(63.623047 0)"/>
       <use xlink:href="#DejaVuSans-30" transform="translate(95.410156 0)"/>
      </g>
     </g>
    </g>
    <g id="ytick_4">
     <g id="line2d_25">
      <path d="M 45.1085 192.075738 
L 603.1085 192.075738 
" clip-path="url(#p24e834005d)" style="fill: none; stroke: #ffffff; stroke-width: 0.8; stroke-linecap: square"/>
     </g>
     <g id="line2d_26">
      <g>
       <use xlink:href="#m78182919c4" x="45.1085" y="192.075738" style="fill: #555555; stroke: #555555"/>
      </g>
     </g>
     <g id="text_14">
      <!-- 1.5 -->
      <g style="fill: #555555" transform="translate(22.81375 195.419051) scale(0.088 -0.088)">
       <use xlink:href="#DejaVuSans-31"/>
       <use xlink:href="#DejaVuSans-2e" transform="translate(63.623047 0)"/>
       <use xlink:href="#DejaVuSans-35" transform="translate(95.410156 0)"/>
      </g>
     </g>
    </g>
    <g id="ytick_5">
     <g id="line2d_27">
      <path d="M 45.1085 159.955047 
L 603.1085 159.955047 
" clip-path="url(#p24e834005d)" style="fill: none; stroke: #ffffff; stroke-width: 0.8; stroke-linecap: square"/>
     </g>
     <g id="line2d_28">
      <g>
       <use xlink:href="#m78182919c4" x="45.1085" y="159.955047" style="fill: #555555; stroke: #555555"/>
      </g>
     </g>
     <g id="text_15">
      <!-- 2.0 -->
      <g style="fill: #555555" transform="translate(22.81375 163.298359) scale(0.088 -0.088)">
       <use xlink:href="#DejaVuSans-32"/>
       <use xlink:href="#DejaVuSans-2e" transform="translate(63.623047 0)"/>
       <use xlink:href="#DejaVuSans-30" transform="translate(95.410156 0)"/>
      </g>
     </g>
    </g>
    <g id="ytick_6">
     <g id="line2d_29">
      <path d="M 45.1085 127.834355 
L 603.1085 127.834355 
" clip-path="url(#p24e834005d)" style="fill: none; stroke: #ffffff; stroke-width: 0.8; stroke-linecap: square"/>
     </g>
     <g id="line2d_30">
      <g>
       <use xlink:href="#m78182919c4" x="45.1085" y="127.834355" style="fill: #555555; stroke: #555555"/>
      </g>
     </g>
     <g id="text_16">
      <!-- 2.5 -->
      <g style="fill: #555555" transform="translate(22.81375 131.177668) scale(0.088 -0.088)">
       <use xlink:href="#DejaVuSans-32"/>
       <use xlink:href="#DejaVuSans-2e" transform="translate(63.623047 0)"/>
       <use xlink:href="#DejaVuSans-35" transform="translate(95.410156 0)"/>
      </g>
     </g>
    </g>
    <g id="ytick_7">
     <g id="line2d_31">
      <path d="M 45.1085 95.713664 
L 603.1085 95.713664 
" clip-path="url(#p24e834005d)" style="fill: none; stroke: #ffffff; stroke-width: 0.8; stroke-linecap: square"/>
     </g>
     <g id="line2d_32">
      <g>
       <use xlink:href="#m78182919c4" x="45.1085" y="95.713664" style="fill: #555555; stroke: #555555"/>
      </g>
     </g>
     <g id="text_17">
      <!-- 3.0 -->
      <g style="fill: #555555" transform="translate(22.81375 99.056977) scale(0.088 -0.088)">
       <use xlink:href="#DejaVuSans-33"/>
       <use xlink:href="#DejaVuSans-2e" transform="translate(63.623047 0)"/>
       <use xlink:href="#DejaVuSans-30" transform="translate(95.410156 0)"/>
      </g>
     </g>
    </g>
    <g id="ytick_8">
     <g id="line2d_33">
      <path d="M 45.1085 63.592973 
L 603.1085 63.592973 
" clip-path="url(#p24e834005d)" style="fill: none; stroke: #ffffff; stroke-width: 0.8; stroke-linecap: square"/>
     </g>
     <g id="line2d_34">
      <g>
       <use xlink:href="#m78182919c4" x="45.1085" y="63.592973" style="fill: #555555; stroke: #555555"/>
      </g>
     </g>
     <g id="text_18">
      <!-- 3.5 -->
      <g style="fill: #555555" transform="translate(22.81375 66.936285) scale(0.088 -0.088)">
       <use xlink:href="#DejaVuSans-33"/>
       <use xlink:href="#DejaVuSans-2e" transform="translate(63.623047 0)"/>
       <use xlink:href="#DejaVuSans-35" transform="translate(95.410156 0)"/>
      </g>
     </g>
    </g>
    <g id="ytick_9">
     <g id="line2d_35">
      <path d="M 45.1085 31.472281 
L 603.1085 31.472281 
" clip-path="url(#p24e834005d)" style="fill: none; stroke: #ffffff; stroke-width: 0.8; stroke-linecap: square"/>
     </g>
     <g id="line2d_36">
      <g>
       <use xlink:href="#m78182919c4" x="45.1085" y="31.472281" style="fill: #555555; stroke: #555555"/>
      </g>
     </g>
     <g id="text_19">
      <!-- 4.0 -->
      <g style="fill: #555555" transform="translate(22.81375 34.815594) scale(0.088 -0.088)">
       <use xlink:href="#DejaVuSans-34"/>
       <use xlink:href="#DejaVuSans-2e" transform="translate(63.623047 0)"/>
       <use xlink:href="#DejaVuSans-30" transform="translate(95.410156 0)"/>
      </g>
     </g>
    </g>
    <g id="text_20">
     <!-- Density -->
     <g style="fill: #555555" transform="translate(16.318125 185.248125) rotate(-90) scale(0.12 -0.12)">
      <defs>
       <path id="DejaVuSans-79" d="M 2059 -325 
Q 1816 -950 1584 -1140 
Q 1353 -1331 966 -1331 
L 506 -1331 
L 506 -850 
L 844 -850 
Q 1081 -850 1212 -737 
Q 1344 -625 1503 -206 
L 1606 56 
L 191 3500 
L 800 3500 
L 1894 763 
L 2988 3500 
L 3597 3500 
L 2059 -325 
z
" transform="scale(0.015625)"/>
      </defs>
      <use xlink:href="#DejaVuSans-44"/>
      <use xlink:href="#DejaVuSans-65" transform="translate(77.001953 0)"/>
      <use xlink:href="#DejaVuSans-6e" transform="translate(138.525391 0)"/>
      <use xlink:href="#DejaVuSans-73" transform="translate(201.904297 0)"/>
      <use xlink:href="#DejaVuSans-69" transform="translate(254.003906 0)"/>
      <use xlink:href="#DejaVuSans-74" transform="translate(281.787109 0)"/>
      <use xlink:href="#DejaVuSans-79" transform="translate(320.996094 0)"/>
     </g>
    </g>
    <g id="text_21">
     <!-- 1e−5 -->
     <g style="fill: #555555" transform="translate(45.1085 20.837813) scale(0.088 -0.088)">
      <defs>
       <path id="DejaVuSans-2212" d="M 678 2272 
L 4684 2272 
L 4684 1741 
L 678 1741 
L 678 2272 
z
" transform="scale(0.015625)"/>
      </defs>
      <use xlink:href="#DejaVuSans-31"/>
      <use xlink:href="#DejaVuSans-65" transform="translate(63.623047 0)"/>
      <use xlink:href="#DejaVuSans-2212" transform="translate(125.146484 0)"/>
      <use xlink:href="#DejaVuSans-35" transform="translate(208.935547 0)"/>
     </g>
    </g>
   </g>
   <g id="FillBetweenPolyCollection_1">
    <defs>
     <path id="m8b84491d8d" d="M 70.472136 -75.868012 
L 70.472136 -71.664357 
L 80.824641 -107.926406 
L 91.177146 -142.929008 
L 101.52965 -172.967302 
L 111.882155 -197.020675 
L 122.23466 -218.823531 
L 132.587164 -244.189421 
L 142.939669 -260.729443 
L 153.292173 -265.141047 
L 163.644678 -267.992359 
L 173.997183 -266.039311 
L 184.349687 -255.801918 
L 194.702192 -242.739594 
L 205.054697 -232.622918 
L 215.407201 -228.916862 
L 225.759706 -229.43174 
L 236.112211 -223.311008 
L 246.464715 -207.170425 
L 256.81722 -190.291689 
L 267.169724 -176.286325 
L 277.522229 -159.402106 
L 287.874734 -143.33977 
L 298.227238 -131.957431 
L 308.579743 -121.570063 
L 318.932248 -112.332406 
L 329.284752 -104.559303 
L 339.637257 -96.612564 
L 349.989762 -87.992375 
L 360.342266 -80.977428 
L 370.694771 -77.083552 
L 381.047276 -74.243383 
L 391.39978 -71.415229 
L 401.752285 -68.723746 
L 412.104789 -65.744095 
L 422.457294 -62.101944 
L 432.809799 -58.545212 
L 443.162303 -55.581499 
L 453.514808 -53.665822 
L 463.867313 -52.67748 
L 474.219817 -52.291872 
L 484.572322 -52.23253 
L 494.924827 -52.230512 
L 505.277331 -52.2305 
L 515.629836 -52.2305 
L 525.98234 -52.2305 
L 536.334845 -52.2305 
L 546.68735 -52.2305 
L 557.039854 -52.2305 
L 567.392359 -52.2305 
L 577.744864 -52.2305 
L 577.744864 -52.2305 
L 577.744864 -52.2305 
L 567.392359 -52.2305 
L 557.039854 -52.2305 
L 546.68735 -52.2305 
L 536.334845 -52.2305 
L 525.98234 -52.2305 
L 515.629836 -52.2305 
L 505.277331 -52.230511 
L 494.924827 -52.231546 
L 484.572322 -52.255259 
L 474.219817 -52.491965 
L 463.867313 -53.481703 
L 453.514808 -55.565234 
L 443.162303 -58.703832 
L 432.809799 -63.383142 
L 422.457294 -68.760119 
L 412.104789 -73.440799 
L 401.752285 -76.941203 
L 391.39978 -80.216506 
L 381.047276 -83.073101 
L 370.694771 -85.834213 
L 360.342266 -89.983982 
L 349.989762 -97.866301 
L 339.637257 -106.918571 
L 329.284752 -115.389422 
L 318.932248 -124.107375 
L 308.579743 -133.82539 
L 298.227238 -144.08385 
L 287.874734 -154.88137 
L 277.522229 -170.964661 
L 267.169724 -187.18699 
L 256.81722 -202.509149 
L 246.464715 -218.809366 
L 236.112211 -235.759649 
L 225.759706 -241.225959 
L 215.407201 -240.141737 
L 205.054697 -245.051654 
L 194.702192 -256.442473 
L 184.349687 -270.549711 
L 173.997183 -283.158849 
L 163.644678 -288.020048 
L 153.292173 -286.195882 
L 142.939669 -282.905187 
L 132.587164 -264.593361 
L 122.23466 -237.631523 
L 111.882155 -214.610944 
L 101.52965 -186.62972 
L 91.177146 -154.450776 
L 80.824641 -117.129694 
L 70.472136 -75.868012 
z
" style="stroke: #0000ff; stroke-opacity: 0.2; stroke-width: 0.8"/>
    </defs>
    <g clip-path="url(#p24e834005d)">
     <use xlink:href="#m8b84491d8d" x="0" y="340.668313" style="fill: #0000ff; fill-opacity: 0.2; stroke: #0000ff; stroke-opacity: 0.2; stroke-width: 0.8"/>
    </g>
   </g>
   <g id="FillBetweenPolyCollection_2">
    <defs>
     <path id="m5242a86f2b" d="M 70.472136 -59.748062 
L 70.472136 -58.711728 
L 80.824641 -72.626825 
L 91.177146 -90.258733 
L 101.52965 -107.363228 
L 111.882155 -122.578049 
L 122.23466 -136.543063 
L 132.587164 -148.913482 
L 142.939669 -159.917839 
L 153.292173 -169.973085 
L 163.644678 -178.814608 
L 173.997183 -185.839548 
L 184.349687 -191.859511 
L 194.702192 -196.623248 
L 205.054697 -200.582486 
L 215.407201 -203.631991 
L 225.759706 -205.718542 
L 236.112211 -207.763589 
L 246.464715 -208.032369 
L 256.81722 -208.267415 
L 267.169724 -206.530979 
L 277.522229 -204.297349 
L 287.874734 -200.246923 
L 298.227238 -195.531107 
L 308.579743 -189.730451 
L 318.932248 -181.836424 
L 329.284752 -173.186317 
L 339.637257 -164.085128 
L 349.989762 -154.590718 
L 360.342266 -144.427198 
L 370.694771 -134.383598 
L 381.047276 -123.471492 
L 391.39978 -113.077924 
L 401.752285 -103.230992 
L 412.104789 -95.260513 
L 422.457294 -87.910761 
L 432.809799 -81.16711 
L 443.162303 -74.916838 
L 453.514808 -68.886945 
L 463.867313 -63.805865 
L 474.219817 -60.090954 
L 484.572322 -57.26163 
L 494.924827 -55.33818 
L 505.277331 -54.075059 
L 515.629836 -53.23966 
L 525.98234 -52.695418 
L 536.334845 -52.411904 
L 546.68735 -52.271484 
L 557.039854 -52.23534 
L 567.392359 -52.230657 
L 577.744864 -52.230501 
L 577.744864 -52.251724 
L 577.744864 -52.251724 
L 567.392359 -52.318994 
L 557.039854 -52.510973 
L 546.68735 -52.857735 
L 536.334845 -53.433872 
L 525.98234 -54.322055 
L 515.629836 -55.531946 
L 505.277331 -57.329466 
L 494.924827 -59.328196 
L 484.572322 -62.267932 
L 474.219817 -66.380008 
L 463.867313 -71.905439 
L 453.514808 -79.386754 
L 443.162303 -87.464311 
L 432.809799 -95.586801 
L 422.457294 -103.616746 
L 412.104789 -112.269097 
L 401.752285 -121.436916 
L 391.39978 -131.872879 
L 381.047276 -142.753806 
L 370.694771 -153.148999 
L 360.342266 -163.180862 
L 349.989762 -172.462048 
L 339.637257 -180.13628 
L 329.284752 -188.311803 
L 318.932248 -194.340343 
L 308.579743 -199.828169 
L 298.227238 -205.735749 
L 287.874734 -210.135877 
L 277.522229 -213.895964 
L 267.169724 -217.979957 
L 256.81722 -221.337753 
L 246.464715 -223.867646 
L 236.112211 -224.733417 
L 225.759706 -224.871396 
L 215.407201 -223.586671 
L 205.054697 -220.118267 
L 194.702192 -215.574066 
L 184.349687 -209.820825 
L 173.997183 -203.134352 
L 163.644678 -194.41434 
L 153.292173 -184.831767 
L 142.939669 -173.105442 
L 132.587164 -159.995597 
L 122.23466 -145.675244 
L 111.882155 -129.72251 
L 101.52965 -112.342871 
L 91.177146 -93.817842 
L 80.824641 -74.710793 
L 70.472136 -59.748062 
z
" style="stroke: #ffa500; stroke-opacity: 0.2; stroke-width: 0.8"/>
    </defs>
    <g clip-path="url(#p24e834005d)">
     <use xlink:href="#m5242a86f2b" x="0" y="340.668313" style="fill: #ffa500; fill-opacity: 0.2; stroke: #ffa500; stroke-opacity: 0.2; stroke-width: 0.8"/>
    </g>
   </g>
   <g id="FillBetweenPolyCollection_3">
    <defs>
     <path id="m365e7c52e4" d="M 70.472136 -66.516544 
L 70.472136 -63.787174 
L 80.824641 -93.386142 
L 91.177146 -130.475804 
L 101.52965 -166.643759 
L 111.882155 -198.854984 
L 122.23466 -225.740723 
L 132.587164 -246.670308 
L 142.939669 -262.633589 
L 153.292173 -272.251838 
L 163.644678 -277.534459 
L 173.997183 -276.75663 
L 184.349687 -271.423648 
L 194.702192 -262.907623 
L 205.054697 -251.808694 
L 215.407201 -237.445803 
L 225.759706 -221.53324 
L 236.112211 -205.571274 
L 246.464715 -188.784905 
L 256.81722 -172.458163 
L 267.169724 -157.516139 
L 277.522229 -144.57486 
L 287.874734 -133.049292 
L 298.227238 -121.609893 
L 308.579743 -111.788083 
L 318.932248 -102.615675 
L 329.284752 -95.166924 
L 339.637257 -88.612814 
L 349.989762 -82.704271 
L 360.342266 -77.541845 
L 370.694771 -73.049734 
L 381.047276 -69.355748 
L 391.39978 -66.46005 
L 401.752285 -63.684362 
L 412.104789 -61.485281 
L 422.457294 -59.589659 
L 432.809799 -57.952764 
L 443.162303 -56.623556 
L 453.514808 -55.660241 
L 463.867313 -54.955465 
L 474.219817 -54.202087 
L 484.572322 -53.66655 
L 494.924827 -53.356433 
L 505.277331 -53.048803 
L 515.629836 -52.788414 
L 525.98234 -52.626237 
L 536.334845 -52.51536 
L 546.68735 -52.389188 
L 557.039854 -52.325108 
L 567.392359 -52.292803 
L 577.744864 -52.268806 
L 577.744864 -53.037362 
L 577.744864 -53.037362 
L 567.392359 -53.216398 
L 557.039854 -53.422538 
L 546.68735 -53.731199 
L 536.334845 -54.107263 
L 525.98234 -54.453067 
L 515.629836 -54.926295 
L 505.277331 -55.526935 
L 494.924827 -56.337477 
L 484.572322 -57.375446 
L 474.219817 -58.338779 
L 463.867313 -59.495226 
L 453.514808 -60.734634 
L 443.162303 -62.521927 
L 432.809799 -64.773108 
L 422.457294 -67.115373 
L 412.104789 -69.836983 
L 401.752285 -73.076259 
L 391.39978 -77.067587 
L 381.047276 -81.391477 
L 370.694771 -86.171661 
L 360.342266 -91.748202 
L 349.989762 -97.636272 
L 339.637257 -104.155668 
L 329.284752 -111.802189 
L 318.932248 -120.376869 
L 308.579743 -130.014328 
L 298.227238 -139.859533 
L 287.874734 -151.291878 
L 277.522229 -163.489092 
L 267.169724 -176.654062 
L 256.81722 -190.624128 
L 246.464715 -205.147 
L 236.112211 -220.508055 
L 225.759706 -236.64019 
L 215.407201 -253.213981 
L 205.054697 -267.419728 
L 194.702192 -280.626655 
L 184.349687 -292.283237 
L 173.997183 -300.791935 
L 163.644678 -304.2305 
L 153.292173 -303.270349 
L 142.939669 -296.637879 
L 132.587164 -282.939388 
L 122.23466 -259.538543 
L 111.882155 -228.867033 
L 101.52965 -192.372318 
L 91.177146 -149.292887 
L 80.824641 -102.887185 
L 70.472136 -66.516544 
z
" style="stroke: #008000; stroke-opacity: 0.2; stroke-width: 0.8"/>
    </defs>
    <g clip-path="url(#p24e834005d)">
     <use xlink:href="#m365e7c52e4" x="0" y="340.668313" style="fill: #008000; fill-opacity: 0.2; stroke: #008000; stroke-opacity: 0.2; stroke-width: 0.8"/>
    </g>
   </g>
   <g id="line2d_37">
    <path d="M 70.472136 267.025996 
L 80.824641 228.493031 
L 91.177146 192.204742 
L 101.52965 160.834155 
L 111.882155 134.880161 
L 122.23466 112.488435 
L 132.587164 86.277572 
L 142.939669 69.109038 
L 153.292173 65.517651 
L 163.644678 62.942794 
L 173.997183 66.276228 
L 184.349687 77.187536 
L 194.702192 90.867688 
L 205.054697 101.95534 
L 215.407201 105.959671 
L 225.759706 105.392704 
L 236.112211 111.521293 
L 246.464715 127.783945 
L 256.81722 144.065136 
L 267.169724 158.981356 
L 277.522229 175.532 
L 287.874734 191.245444 
L 298.227238 202.307514 
L 308.579743 212.557852 
L 318.932248 222.188796 
L 329.284752 230.631903 
L 339.637257 238.922896 
L 349.989762 247.837362 
L 360.342266 255.035189 
L 370.694771 259.131802 
L 381.047276 261.944688 
L 391.39978 264.952756 
L 401.752285 267.921858 
L 412.104789 271.099128 
L 422.457294 275.355914 
L 432.809799 279.811216 
L 443.162303 283.607468 
L 453.514808 286.11111 
L 463.867313 287.604628 
L 474.219817 288.285274 
L 484.572322 288.426485 
L 494.924827 288.437469 
L 505.277331 288.43781 
L 515.629836 288.437812 
L 525.98234 288.437812 
L 536.334845 288.437813 
L 546.68735 288.437813 
L 557.039854 288.437813 
L 567.392359 288.437813 
L 577.744864 288.437813 
" clip-path="url(#p24e834005d)" style="fill: none; stroke: #0000ff; stroke-width: 1.2; stroke-linecap: square"/>
   </g>
   <g id="line2d_38">
    <path d="M 70.472136 281.451016 
L 80.824641 266.997465 
L 91.177146 248.678856 
L 101.52965 230.94623 
L 111.882155 214.692035 
L 122.23466 199.925872 
L 132.587164 186.519743 
L 142.939669 174.53145 
L 153.292173 163.984338 
L 163.644678 154.787254 
L 173.997183 146.906884 
L 184.349687 140.241564 
L 194.702192 134.712953 
L 205.054697 130.412835 
L 215.407201 127.322055 
L 225.759706 125.360039 
L 236.112211 124.47756 
L 246.464715 124.690961 
L 256.81722 125.917869 
L 267.169724 128.154641 
L 277.522229 131.285111 
L 287.874734 135.247569 
L 298.227238 140.15538 
L 308.579743 145.930486 
L 318.932248 152.525265 
L 329.284752 159.950062 
L 339.637257 168.154025 
L 349.989762 176.98925 
L 360.342266 186.519923 
L 370.694771 196.705706 
L 381.047276 207.376868 
L 391.39978 218.168656 
L 401.752285 228.174559 
L 412.104789 237.021116 
L 422.457294 245.106792 
L 432.809799 252.737756 
L 443.162303 260.007895 
L 453.514808 266.915757 
L 463.867313 273.049619 
L 474.219817 277.734963 
L 484.572322 281.02185 
L 494.924827 283.393514 
L 505.277331 285.136228 
L 515.629836 286.393587 
L 525.98234 287.258184 
L 536.334845 287.820096 
L 546.68735 288.159123 
L 557.039854 288.338115 
L 567.392359 288.412814 
L 577.744864 288.434096 
" clip-path="url(#p24e834005d)" style="fill: none; stroke: #ffa500; stroke-width: 1.2; stroke-linecap: square"/>
   </g>
   <g id="line2d_39">
    <path d="M 70.472136 275.641645 
L 80.824641 242.829884 
L 91.177146 201.239708 
L 101.52965 161.917409 
L 111.882155 127.428802 
L 122.23466 98.829126 
L 132.587164 76.680592 
L 142.939669 61.142405 
L 153.292173 52.037742 
L 163.644678 48.924819 
L 173.997183 51.255858 
L 184.349687 58.04791 
L 194.702192 68.35881 
L 205.054697 81.221036 
L 215.407201 95.823298 
L 225.759706 111.457335 
L 236.112211 127.429619 
L 246.464715 143.202794 
L 256.81722 158.352668 
L 267.169724 172.698316 
L 277.522229 186.075141 
L 287.874734 198.478308 
L 298.227238 209.811267 
L 308.579743 219.994648 
L 318.932248 229.214165 
L 329.284752 237.438011 
L 339.637257 244.71765 
L 349.989762 251.15728 
L 360.342266 256.800598 
L 370.694771 261.732878 
L 381.047276 265.967501 
L 391.39978 269.625702 
L 401.752285 272.787555 
L 412.104789 275.490254 
L 422.457294 277.790406 
L 432.809799 279.719897 
L 443.162303 281.355841 
L 453.514808 282.712671 
L 463.867313 283.810007 
L 474.219817 284.731962 
L 484.572322 285.486725 
L 494.924827 286.101732 
L 505.277331 286.601502 
L 515.629836 286.99362 
L 525.98234 287.306794 
L 536.334845 287.563188 
L 546.68735 287.765759 
L 557.039854 287.917849 
L 567.392359 288.037607 
L 577.744864 288.135138 
" clip-path="url(#p24e834005d)" style="fill: none; stroke: #008000; stroke-width: 1.2; stroke-linecap: square"/>
   </g>
   <g id="patch_3">
    <path d="M 45.1085 301.037813 
L 45.1085 23.837813 
" style="fill: none; stroke: #ffffff; stroke-linejoin: miter; stroke-linecap: square"/>
   </g>
   <g id="patch_4">
    <path d="M 603.1085 301.037813 
L 603.1085 23.837813 
" style="fill: none; stroke: #ffffff; stroke-linejoin: miter; stroke-linecap: square"/>
   </g>
   <g id="patch_5">
    <path d="M 45.1085 301.037813 
L 603.1085 301.037813 
" style="fill: none; stroke: #ffffff; stroke-linejoin: miter; stroke-linecap: square"/>
   </g>
   <g id="patch_6">
    <path d="M 45.1085 23.837813 
L 603.1085 23.837813 
" style="fill: none; stroke: #ffffff; stroke-linejoin: miter; stroke-linecap: square"/>
   </g>
   <g id="text_22">
    <!-- PDD Angkor 1000 CE -->
    <g transform="translate(250.6785 17.837813) scale(0.14 -0.14)">
     <defs>
      <path id="DejaVuSans-50" d="M 1259 4147 
L 1259 2394 
L 2053 2394 
Q 2494 2394 2734 2622 
Q 2975 2850 2975 3272 
Q 2975 3691 2734 3919 
Q 2494 4147 2053 4147 
L 1259 4147 
z
M 628 4666 
L 2053 4666 
Q 2838 4666 3239 4311 
Q 3641 3956 3641 3272 
Q 3641 2581 3239 2228 
Q 2838 1875 2053 1875 
L 1259 1875 
L 1259 0 
L 628 0 
L 628 4666 
z
" transform="scale(0.015625)"/>
      <path id="DejaVuSans-41" d="M 2188 4044 
L 1331 1722 
L 3047 1722 
L 2188 4044 
z
M 1831 4666 
L 2547 4666 
L 4325 0 
L 3669 0 
L 3244 1197 
L 1141 1197 
L 716 0 
L 50 0 
L 1831 4666 
z
" transform="scale(0.015625)"/>
      <path id="DejaVuSans-67" d="M 2906 1791 
Q 2906 2416 2648 2759 
Q 2391 3103 1925 3103 
Q 1463 3103 1205 2759 
Q 947 2416 947 1791 
Q 947 1169 1205 825 
Q 1463 481 1925 481 
Q 2391 481 2648 825 
Q 2906 1169 2906 1791 
z
M 3481 434 
Q 3481 -459 3084 -895 
Q 2688 -1331 1869 -1331 
Q 1566 -1331 1297 -1286 
Q 1028 -1241 775 -1147 
L 775 -588 
Q 1028 -725 1275 -790 
Q 1522 -856 1778 -856 
Q 2344 -856 2625 -561 
Q 2906 -266 2906 331 
L 2906 616 
Q 2728 306 2450 153 
Q 2172 0 1784 0 
Q 1141 0 747 490 
Q 353 981 353 1791 
Q 353 2603 747 3093 
Q 1141 3584 1784 3584 
Q 2172 3584 2450 3431 
Q 2728 3278 2906 2969 
L 2906 3500 
L 3481 3500 
L 3481 434 
z
" transform="scale(0.015625)"/>
      <path id="DejaVuSans-6f" d="M 1959 3097 
Q 1497 3097 1228 2736 
Q 959 2375 959 1747 
Q 959 1119 1226 758 
Q 1494 397 1959 397 
Q 2419 397 2687 759 
Q 2956 1122 2956 1747 
Q 2956 2369 2687 2733 
Q 2419 3097 1959 3097 
z
M 1959 3584 
Q 2709 3584 3137 3096 
Q 3566 2609 3566 1747 
Q 3566 888 3137 398 
Q 2709 -91 1959 -91 
Q 1206 -91 779 398 
Q 353 888 353 1747 
Q 353 2609 779 3096 
Q 1206 3584 1959 3584 
z
" transform="scale(0.015625)"/>
      <path id="DejaVuSans-72" d="M 2631 2963 
Q 2534 3019 2420 3045 
Q 2306 3072 2169 3072 
Q 1681 3072 1420 2755 
Q 1159 2438 1159 1844 
L 1159 0 
L 581 0 
L 581 3500 
L 1159 3500 
L 1159 2956 
Q 1341 3275 1631 3429 
Q 1922 3584 2338 3584 
Q 2397 3584 2469 3576 
Q 2541 3569 2628 3553 
L 2631 2963 
z
" transform="scale(0.015625)"/>
      <path id="DejaVuSans-43" d="M 4122 4306 
L 4122 3641 
Q 3803 3938 3442 4084 
Q 3081 4231 2675 4231 
Q 1875 4231 1450 3742 
Q 1025 3253 1025 2328 
Q 1025 1406 1450 917 
Q 1875 428 2675 428 
Q 3081 428 3442 575 
Q 3803 722 4122 1019 
L 4122 359 
Q 3791 134 3420 21 
Q 3050 -91 2638 -91 
Q 1578 -91 968 557 
Q 359 1206 359 2328 
Q 359 3453 968 4101 
Q 1578 4750 2638 4750 
Q 3056 4750 3426 4639 
Q 3797 4528 4122 4306 
z
" transform="scale(0.015625)"/>
      <path id="DejaVuSans-45" d="M 628 4666 
L 3578 4666 
L 3578 4134 
L 1259 4134 
L 1259 2753 
L 3481 2753 
L 3481 2222 
L 1259 2222 
L 1259 531 
L 3634 531 
L 3634 0 
L 628 0 
L 628 4666 
z
" transform="scale(0.015625)"/>
     </defs>
     <use xlink:href="#DejaVuSans-50"/>
     <use xlink:href="#DejaVuSans-44" transform="translate(60.302734 0)"/>
     <use xlink:href="#DejaVuSans-44" transform="translate(137.304688 0)"/>
     <use xlink:href="#DejaVuSans-20" transform="translate(214.306641 0)"/>
     <use xlink:href="#DejaVuSans-41" transform="translate(246.09375 0)"/>
     <use xlink:href="#DejaVuSans-6e" transform="translate(314.501953 0)"/>
     <use xlink:href="#DejaVuSans-67" transform="translate(377.880859 0)"/>
     <use xlink:href="#DejaVuSans-6b" transform="translate(441.357422 0)"/>
     <use xlink:href="#DejaVuSans-6f" transform="translate(495.642578 0)"/>
     <use xlink:href="#DejaVuSans-72" transform="translate(556.824219 0)"/>
     <use xlink:href="#DejaVuSans-20" transform="translate(597.9375 0)"/>
     <use xlink:href="#DejaVuSans-31" transform="translate(629.724609 0)"/>
     <use xlink:href="#DejaVuSans-30" transform="translate(693.347656 0)"/>
     <use xlink:href="#DejaVuSans-30" transform="translate(756.970703 0)"/>
     <use xlink:href="#DejaVuSans-30" transform="translate(820.59375 0)"/>
     <use xlink:href="#DejaVuSans-20" transform="translate(884.216797 0)"/>
     <use xlink:href="#DejaVuSans-43" transform="translate(916.003906 0)"/>
     <use xlink:href="#DejaVuSans-45" transform="translate(985.828125 0)"/>
    </g>
   </g>
   <g id="legend_1">
    <g id="line2d_40">
     <path d="M 519.628812 36.93625 
L 529.628812 36.93625 
L 539.628812 36.93625 
" style="fill: none; stroke: #0000ff; stroke-width: 1.2; stroke-linecap: square"/>
    </g>
    <g id="text_23">
     <!-- Empirical -->
     <g transform="translate(547.628812 40.43625) scale(0.1 -0.1)">
      <defs>
       <path id="DejaVuSans-70" d="M 1159 525 
L 1159 -1331 
L 581 -1331 
L 581 3500 
L 1159 3500 
L 1159 2969 
Q 1341 3281 1617 3432 
Q 1894 3584 2278 3584 
Q 2916 3584 3314 3078 
Q 3713 2572 3713 1747 
Q 3713 922 3314 415 
Q 2916 -91 2278 -91 
Q 1894 -91 1617 61 
Q 1341 213 1159 525 
z
M 3116 1747 
Q 3116 2381 2855 2742 
Q 2594 3103 2138 3103 
Q 1681 3103 1420 2742 
Q 1159 2381 1159 1747 
Q 1159 1113 1420 752 
Q 1681 391 2138 391 
Q 2594 391 2855 752 
Q 3116 1113 3116 1747 
z
" transform="scale(0.015625)"/>
       <path id="DejaVuSans-6c" d="M 603 4863 
L 1178 4863 
L 1178 0 
L 603 0 
L 603 4863 
z
" transform="scale(0.015625)"/>
      </defs>
      <use xlink:href="#DejaVuSans-45"/>
      <use xlink:href="#DejaVuSans-6d" transform="translate(63.183594 0)"/>
      <use xlink:href="#DejaVuSans-70" transform="translate(160.595703 0)"/>
      <use xlink:href="#DejaVuSans-69" transform="translate(224.072266 0)"/>
      <use xlink:href="#DejaVuSans-72" transform="translate(251.855469 0)"/>
      <use xlink:href="#DejaVuSans-69" transform="translate(292.96875 0)"/>
      <use xlink:href="#DejaVuSans-63" transform="translate(320.751953 0)"/>
      <use xlink:href="#DejaVuSans-61" transform="translate(375.732422 0)"/>
      <use xlink:href="#DejaVuSans-6c" transform="translate(437.011719 0)"/>
     </g>
    </g>
    <g id="line2d_41">
     <path d="M 519.628812 51.614375 
L 529.628812 51.614375 
L 539.628812 51.614375 
" style="fill: none; stroke: #ffa500; stroke-width: 1.2; stroke-linecap: square"/>
    </g>
    <g id="text_24">
     <!-- CSR -->
     <g transform="translate(547.628812 55.114375) scale(0.1 -0.1)">
      <defs>
       <path id="DejaVuSans-53" d="M 3425 4513 
L 3425 3897 
Q 3066 4069 2747 4153 
Q 2428 4238 2131 4238 
Q 1616 4238 1336 4038 
Q 1056 3838 1056 3469 
Q 1056 3159 1242 3001 
Q 1428 2844 1947 2747 
L 2328 2669 
Q 3034 2534 3370 2195 
Q 3706 1856 3706 1288 
Q 3706 609 3251 259 
Q 2797 -91 1919 -91 
Q 1588 -91 1214 -16 
Q 841 59 441 206 
L 441 856 
Q 825 641 1194 531 
Q 1563 422 1919 422 
Q 2459 422 2753 634 
Q 3047 847 3047 1241 
Q 3047 1584 2836 1778 
Q 2625 1972 2144 2069 
L 1759 2144 
Q 1053 2284 737 2584 
Q 422 2884 422 3419 
Q 422 4038 858 4394 
Q 1294 4750 2059 4750 
Q 2388 4750 2728 4690 
Q 3069 4631 3425 4513 
z
" transform="scale(0.015625)"/>
       <path id="DejaVuSans-52" d="M 2841 2188 
Q 3044 2119 3236 1894 
Q 3428 1669 3622 1275 
L 4263 0 
L 3584 0 
L 2988 1197 
Q 2756 1666 2539 1819 
Q 2322 1972 1947 1972 
L 1259 1972 
L 1259 0 
L 628 0 
L 628 4666 
L 2053 4666 
Q 2853 4666 3247 4331 
Q 3641 3997 3641 3322 
Q 3641 2881 3436 2590 
Q 3231 2300 2841 2188 
z
M 1259 4147 
L 1259 2491 
L 2053 2491 
Q 2509 2491 2742 2702 
Q 2975 2913 2975 3322 
Q 2975 3731 2742 3939 
Q 2509 4147 2053 4147 
L 1259 4147 
z
" transform="scale(0.015625)"/>
      </defs>
      <use xlink:href="#DejaVuSans-43"/>
      <use xlink:href="#DejaVuSans-53" transform="translate(69.824219 0)"/>
      <use xlink:href="#DejaVuSans-52" transform="translate(133.300781 0)"/>
     </g>
    </g>
    <g id="line2d_42">
     <path d="M 519.628812 66.2925 
L 529.628812 66.2925 
L 539.628812 66.2925 
" style="fill: none; stroke: #008000; stroke-width: 1.2; stroke-linecap: square"/>
    </g>
    <g id="text_25">
     <!-- BISE -->
     <g transform="translate(547.628812 69.7925) scale(0.1 -0.1)">
      <defs>
       <path id="DejaVuSans-42" d="M 1259 2228 
L 1259 519 
L 2272 519 
Q 2781 519 3026 730 
Q 3272 941 3272 1375 
Q 3272 1813 3026 2020 
Q 2781 2228 2272 2228 
L 1259 2228 
z
M 1259 4147 
L 1259 2741 
L 2194 2741 
Q 2656 2741 2882 2914 
Q 3109 3088 3109 3444 
Q 3109 3797 2882 3972 
Q 2656 4147 2194 4147 
L 1259 4147 
z
M 628 4666 
L 2241 4666 
Q 2963 4666 3353 4366 
Q 3744 4066 3744 3513 
Q 3744 3084 3544 2831 
Q 3344 2578 2956 2516 
Q 3422 2416 3680 2098 
Q 3938 1781 3938 1306 
Q 3938 681 3513 340 
Q 3088 0 2303 0 
L 628 0 
L 628 4666 
z
" transform="scale(0.015625)"/>
       <path id="DejaVuSans-49" d="M 628 4666 
L 1259 4666 
L 1259 0 
L 628 0 
L 628 4666 
z
" transform="scale(0.015625)"/>
      </defs>
      <use xlink:href="#DejaVuSans-42"/>
      <use xlink:href="#DejaVuSans-49" transform="translate(68.603516 0)"/>
      <use xlink:href="#DejaVuSans-53" transform="translate(98.095703 0)"/>
      <use xlink:href="#DejaVuSans-45" transform="translate(161.572266 0)"/>
     </g>
    </g>
   </g>
  </g>
 </g>
 <defs>
  <clipPath id="p24e834005d">
   <rect x="45.1085" y="23.837813" width="558" height="277.2"/>
  </clipPath>
 </defs>
</svg>
