<?xml version="1.0" encoding="utf-8" standalone="no"?>
<!DOCTYPE svg PUBLIC "-//W3C//DTD SVG 1.1//EN"
  "http://www.w3.org/Graphics/SVG/1.1/DTD/svg11.dtd">
<svg xmlns:xlink="http://www.w3.org/1999/xlink" width="850.100107pt" height="346.128312pt" viewBox="0 0 850.100107 346.128312" xmlns="http://www.w3.org/2000/svg" version="1.1">
 <metadata>
  <rdf:RDF xmlns:dc="http://purl.org/dc/elements/1.1/" xmlns:cc="http://creativecommons.org/ns#" xmlns:rdf="http://www.w3.org/1999/02/22-rdf-syntax-ns#">
   <cc:Work>
    <dc:type rdf:resource="http://purl.org/dc/dcmitype/StillImage"/>
    <dc:date>2025-04-02T17:58:22.247892</dc:date>
    <dc:format>image/svg+xml</dc:format>
    <dc:creator>
     <cc:Agent>
      <dc:title>Matplotlib v3.10.1, https://matplotlib.org/</dc:title>
     </cc:Agent>
    </dc:creator>
   </cc:Work>
  </rdf:RDF>
 </metadata>
 <defs>
  <style type="text/css">*{stroke-linejoin: round; stroke-linecap: butt}</style>
 </defs>
 <g id="figure_1">
  <g id="patch_1">
   <path d="M -0 346.128312 
L 850.100107 346.128312 
L 850.100107 0 
L -0 0 
z
" style="fill: #ffffff"/>
  </g>
  <g id="axes_1">
   <g id="patch_2">
    <path d="M 44.086875 306.497812 
L 416.005234 306.497812 
L 416.005234 23.837812 
L 44.086875 23.837812 
z
" style="fill: #e5e5e5"/>
   </g>
   <g id="matplotlib.axis_1">
    <g id="xtick_1">
     <g id="line2d_1">
      <path d="M 60.992255 306.497812 
L 60.992255 23.837812 
" clip-path="url(#p8d3617015c)" style="fill: none; stroke: #ffffff; stroke-width: 0.8; stroke-linecap: square"/>
     </g>
     <g id="line2d_2">
      <defs>
       <path id="mb79bd37598" d="M 0 0 
L 0 4.8 
" style="stroke: #555555"/>
      </defs>
      <g>
       <use xlink:href="#mb79bd37598" x="60.992255" y="306.497812" style="fill: #555555; stroke: #555555"/>
      </g>
     </g>
     <g id="text_1">
      <!-- 0 -->
      <g style="fill: #555555" transform="translate(58.192755 321.484437) scale(0.088 -0.088)">
       <defs>
        <path id="DejaVuSans-30" d="M 2034 4250 
Q 1547 4250 1301 3770 
Q 1056 3291 1056 2328 
Q 1056 1369 1301 889 
Q 1547 409 2034 409 
Q 2525 409 2770 889 
Q 3016 1369 3016 2328 
Q 3016 3291 2770 3770 
Q 2525 4250 2034 4250 
z
M 2034 4750 
Q 2819 4750 3233 4129 
Q 3647 3509 3647 2328 
Q 3647 1150 3233 529 
Q 2819 -91 2034 -91 
Q 1250 -91 836 529 
Q 422 1150 422 2328 
Q 422 3509 836 4129 
Q 1250 4750 2034 4750 
z
" transform="scale(0.015625)"/>
       </defs>
       <use xlink:href="#DejaVuSans-30"/>
      </g>
     </g>
    </g>
    <g id="xtick_2">
     <g id="line2d_3">
      <path d="M 104.687827 306.497812 
L 104.687827 23.837812 
" clip-path="url(#p8d3617015c)" style="fill: none; stroke: #ffffff; stroke-width: 0.8; stroke-linecap: square"/>
     </g>
     <g id="line2d_4">
      <g>
       <use xlink:href="#mb79bd37598" x="104.687827" y="306.497812" style="fill: #555555; stroke: #555555"/>
      </g>
     </g>
     <g id="text_2">
      <!-- 10000 -->
      <g style="fill: #555555" transform="translate(90.690327 321.484437) scale(0.088 -0.088)">
       <defs>
        <path id="DejaVuSans-31" d="M 794 531 
L 1825 531 
L 1825 4091 
L 703 3866 
L 703 4441 
L 1819 4666 
L 2450 4666 
L 2450 531 
L 3481 531 
L 3481 0 
L 794 0 
L 794 531 
z
" transform="scale(0.015625)"/>
       </defs>
       <use xlink:href="#DejaVuSans-31"/>
       <use xlink:href="#DejaVuSans-30" transform="translate(63.623047 0)"/>
       <use xlink:href="#DejaVuSans-30" transform="translate(127.246094 0)"/>
       <use xlink:href="#DejaVuSans-30" transform="translate(190.869141 0)"/>
       <use xlink:href="#DejaVuSans-30" transform="translate(254.492188 0)"/>
      </g>
     </g>
    </g>
    <g id="xtick_3">
     <g id="line2d_5">
      <path d="M 148.3834 306.497812 
L 148.3834 23.837812 
" clip-path="url(#p8d3617015c)" style="fill: none; stroke: #ffffff; stroke-width: 0.8; stroke-linecap: square"/>
     </g>
     <g id="line2d_6">
      <g>
       <use xlink:href="#mb79bd37598" x="148.3834" y="306.497812" style="fill: #555555; stroke: #555555"/>
      </g>
     </g>
     <g id="text_3">
      <!-- 20000 -->
      <g style="fill: #555555" transform="translate(134.3859 321.484437) scale(0.088 -0.088)">
       <defs>
        <path id="DejaVuSans-32" d="M 1228 531 
L 3431 531 
L 3431 0 
L 469 0 
L 469 531 
Q 828 903 1448 1529 
Q 2069 2156 2228 2338 
Q 2531 2678 2651 2914 
Q 2772 3150 2772 3378 
Q 2772 3750 2511 3984 
Q 2250 4219 1831 4219 
Q 1534 4219 1204 4116 
Q 875 4013 500 3803 
L 500 4441 
Q 881 4594 1212 4672 
Q 1544 4750 1819 4750 
Q 2544 4750 2975 4387 
Q 3406 4025 3406 3419 
Q 3406 3131 3298 2873 
Q 3191 2616 2906 2266 
Q 2828 2175 2409 1742 
Q 1991 1309 1228 531 
z
" transform="scale(0.015625)"/>
       </defs>
       <use xlink:href="#DejaVuSans-32"/>
       <use xlink:href="#DejaVuSans-30" transform="translate(63.623047 0)"/>
       <use xlink:href="#DejaVuSans-30" transform="translate(127.246094 0)"/>
       <use xlink:href="#DejaVuSans-30" transform="translate(190.869141 0)"/>
       <use xlink:href="#DejaVuSans-30" transform="translate(254.492188 0)"/>
      </g>
     </g>
    </g>
    <g id="xtick_4">
     <g id="line2d_7">
      <path d="M 192.078972 306.497812 
L 192.078972 23.837812 
" clip-path="url(#p8d3617015c)" style="fill: none; stroke: #ffffff; stroke-width: 0.8; stroke-linecap: square"/>
     </g>
     <g id="line2d_8">
      <g>
       <use xlink:href="#mb79bd37598" x="192.078972" y="306.497812" style="fill: #555555; stroke: #555555"/>
      </g>
     </g>
     <g id="text_4">
      <!-- 30000 -->
      <g style="fill: #555555" transform="translate(178.081472 321.484437) scale(0.088 -0.088)">
       <defs>
        <path id="DejaVuSans-33" d="M 2597 2516 
Q 3050 2419 3304 2112 
Q 3559 1806 3559 1356 
Q 3559 666 3084 287 
Q 2609 -91 1734 -91 
Q 1441 -91 1130 -33 
Q 819 25 488 141 
L 488 750 
Q 750 597 1062 519 
Q 1375 441 1716 441 
Q 2309 441 2620 675 
Q 2931 909 2931 1356 
Q 2931 1769 2642 2001 
Q 2353 2234 1838 2234 
L 1294 2234 
L 1294 2753 
L 1863 2753 
Q 2328 2753 2575 2939 
Q 2822 3125 2822 3475 
Q 2822 3834 2567 4026 
Q 2313 4219 1838 4219 
Q 1578 4219 1281 4162 
Q 984 4106 628 3988 
L 628 4550 
Q 988 4650 1302 4700 
Q 1616 4750 1894 4750 
Q 2613 4750 3031 4423 
Q 3450 4097 3450 3541 
Q 3450 3153 3228 2886 
Q 3006 2619 2597 2516 
z
" transform="scale(0.015625)"/>
       </defs>
       <use xlink:href="#DejaVuSans-33"/>
       <use xlink:href="#DejaVuSans-30" transform="translate(63.623047 0)"/>
       <use xlink:href="#DejaVuSans-30" transform="translate(127.246094 0)"/>
       <use xlink:href="#DejaVuSans-30" transform="translate(190.869141 0)"/>
       <use xlink:href="#DejaVuSans-30" transform="translate(254.492188 0)"/>
      </g>
     </g>
    </g>
    <g id="xtick_5">
     <g id="line2d_9">
      <path d="M 235.774544 306.497812 
L 235.774544 23.837812 
" clip-path="url(#p8d3617015c)" style="fill: none; stroke: #ffffff; stroke-width: 0.8; stroke-linecap: square"/>
     </g>
     <g id="line2d_10">
      <g>
       <use xlink:href="#mb79bd37598" x="235.774544" y="306.497812" style="fill: #555555; stroke: #555555"/>
      </g>
     </g>
     <g id="text_5">
      <!-- 40000 -->
      <g style="fill: #555555" transform="translate(221.777044 321.484437) scale(0.088 -0.088)">
       <defs>
        <path id="DejaVuSans-34" d="M 2419 4116 
L 825 1625 
L 2419 1625 
L 2419 4116 
z
M 2253 4666 
L 3047 4666 
L 3047 1625 
L 3713 1625 
L 3713 1100 
L 3047 1100 
L 3047 0 
L 2419 0 
L 2419 1100 
L 313 1100 
L 313 1709 
L 2253 4666 
z
" transform="scale(0.015625)"/>
       </defs>
       <use xlink:href="#DejaVuSans-34"/>
       <use xlink:href="#DejaVuSans-30" transform="translate(63.623047 0)"/>
       <use xlink:href="#DejaVuSans-30" transform="translate(127.246094 0)"/>
       <use xlink:href="#DejaVuSans-30" transform="translate(190.869141 0)"/>
       <use xlink:href="#DejaVuSans-30" transform="translate(254.492188 0)"/>
      </g>
     </g>
    </g>
    <g id="xtick_6">
     <g id="line2d_11">
      <path d="M 279.470116 306.497812 
L 279.470116 23.837812 
" clip-path="url(#p8d3617015c)" style="fill: none; stroke: #ffffff; stroke-width: 0.8; stroke-linecap: square"/>
     </g>
     <g id="line2d_12">
      <g>
       <use xlink:href="#mb79bd37598" x="279.470116" y="306.497812" style="fill: #555555; stroke: #555555"/>
      </g>
     </g>
     <g id="text_6">
      <!-- 50000 -->
      <g style="fill: #555555" transform="translate(265.472616 321.484437) scale(0.088 -0.088)">
       <defs>
        <path id="DejaVuSans-35" d="M 691 4666 
L 3169 4666 
L 3169 4134 
L 1269 4134 
L 1269 2991 
Q 1406 3038 1543 3061 
Q 1681 3084 1819 3084 
Q 2600 3084 3056 2656 
Q 3513 2228 3513 1497 
Q 3513 744 3044 326 
Q 2575 -91 1722 -91 
Q 1428 -91 1123 -41 
Q 819 9 494 109 
L 494 744 
Q 775 591 1075 516 
Q 1375 441 1709 441 
Q 2250 441 2565 725 
Q 2881 1009 2881 1497 
Q 2881 1984 2565 2268 
Q 2250 2553 1709 2553 
Q 1456 2553 1204 2497 
Q 953 2441 691 2322 
L 691 4666 
z
" transform="scale(0.015625)"/>
       </defs>
       <use xlink:href="#DejaVuSans-35"/>
       <use xlink:href="#DejaVuSans-30" transform="translate(63.623047 0)"/>
       <use xlink:href="#DejaVuSans-30" transform="translate(127.246094 0)"/>
       <use xlink:href="#DejaVuSans-30" transform="translate(190.869141 0)"/>
       <use xlink:href="#DejaVuSans-30" transform="translate(254.492188 0)"/>
      </g>
     </g>
    </g>
    <g id="xtick_7">
     <g id="line2d_13">
      <path d="M 323.165689 306.497812 
L 323.165689 23.837812 
" clip-path="url(#p8d3617015c)" style="fill: none; stroke: #ffffff; stroke-width: 0.8; stroke-linecap: square"/>
     </g>
     <g id="line2d_14">
      <g>
       <use xlink:href="#mb79bd37598" x="323.165689" y="306.497812" style="fill: #555555; stroke: #555555"/>
      </g>
     </g>
     <g id="text_7">
      <!-- 60000 -->
      <g style="fill: #555555" transform="translate(309.168189 321.484437) scale(0.088 -0.088)">
       <defs>
        <path id="DejaVuSans-36" d="M 2113 2584 
Q 1688 2584 1439 2293 
Q 1191 2003 1191 1497 
Q 1191 994 1439 701 
Q 1688 409 2113 409 
Q 2538 409 2786 701 
Q 3034 994 3034 1497 
Q 3034 2003 2786 2293 
Q 2538 2584 2113 2584 
z
M 3366 4563 
L 3366 3988 
Q 3128 4100 2886 4159 
Q 2644 4219 2406 4219 
Q 1781 4219 1451 3797 
Q 1122 3375 1075 2522 
Q 1259 2794 1537 2939 
Q 1816 3084 2150 3084 
Q 2853 3084 3261 2657 
Q 3669 2231 3669 1497 
Q 3669 778 3244 343 
Q 2819 -91 2113 -91 
Q 1303 -91 875 529 
Q 447 1150 447 2328 
Q 447 3434 972 4092 
Q 1497 4750 2381 4750 
Q 2619 4750 2861 4703 
Q 3103 4656 3366 4563 
z
" transform="scale(0.015625)"/>
       </defs>
       <use xlink:href="#DejaVuSans-36"/>
       <use xlink:href="#DejaVuSans-30" transform="translate(63.623047 0)"/>
       <use xlink:href="#DejaVuSans-30" transform="translate(127.246094 0)"/>
       <use xlink:href="#DejaVuSans-30" transform="translate(190.869141 0)"/>
       <use xlink:href="#DejaVuSans-30" transform="translate(254.492188 0)"/>
      </g>
     </g>
    </g>
    <g id="xtick_8">
     <g id="line2d_15">
      <path d="M 366.861261 306.497812 
L 366.861261 23.837812 
" clip-path="url(#p8d3617015c)" style="fill: none; stroke: #ffffff; stroke-width: 0.8; stroke-linecap: square"/>
     </g>
     <g id="line2d_16">
      <g>
       <use xlink:href="#mb79bd37598" x="366.861261" y="306.497812" style="fill: #555555; stroke: #555555"/>
      </g>
     </g>
     <g id="text_8">
      <!-- 70000 -->
      <g style="fill: #555555" transform="translate(352.863761 321.484437) scale(0.088 -0.088)">
       <defs>
        <path id="DejaVuSans-37" d="M 525 4666 
L 3525 4666 
L 3525 4397 
L 1831 0 
L 1172 0 
L 2766 4134 
L 525 4134 
L 525 4666 
z
" transform="scale(0.015625)"/>
       </defs>
       <use xlink:href="#DejaVuSans-37"/>
       <use xlink:href="#DejaVuSans-30" transform="translate(63.623047 0)"/>
       <use xlink:href="#DejaVuSans-30" transform="translate(127.246094 0)"/>
       <use xlink:href="#DejaVuSans-30" transform="translate(190.869141 0)"/>
       <use xlink:href="#DejaVuSans-30" transform="translate(254.492188 0)"/>
      </g>
     </g>
    </g>
    <g id="xtick_9">
     <g id="line2d_17">
      <path d="M 410.556833 306.497812 
L 410.556833 23.837812 
" clip-path="url(#p8d3617015c)" style="fill: none; stroke: #ffffff; stroke-width: 0.8; stroke-linecap: square"/>
     </g>
     <g id="line2d_18">
      <g>
       <use xlink:href="#mb79bd37598" x="410.556833" y="306.497812" style="fill: #555555; stroke: #555555"/>
      </g>
     </g>
     <g id="text_9">
      <!-- 80000 -->
      <g style="fill: #555555" transform="translate(396.559333 321.484437) scale(0.088 -0.088)">
       <defs>
        <path id="DejaVuSans-38" d="M 2034 2216 
Q 1584 2216 1326 1975 
Q 1069 1734 1069 1313 
Q 1069 891 1326 650 
Q 1584 409 2034 409 
Q 2484 409 2743 651 
Q 3003 894 3003 1313 
Q 3003 1734 2745 1975 
Q 2488 2216 2034 2216 
z
M 1403 2484 
Q 997 2584 770 2862 
Q 544 3141 544 3541 
Q 544 4100 942 4425 
Q 1341 4750 2034 4750 
Q 2731 4750 3128 4425 
Q 3525 4100 3525 3541 
Q 3525 3141 3298 2862 
Q 3072 2584 2669 2484 
Q 3125 2378 3379 2068 
Q 3634 1759 3634 1313 
Q 3634 634 3220 271 
Q 2806 -91 2034 -91 
Q 1263 -91 848 271 
Q 434 634 434 1313 
Q 434 1759 690 2068 
Q 947 2378 1403 2484 
z
M 1172 3481 
Q 1172 3119 1398 2916 
Q 1625 2713 2034 2713 
Q 2441 2713 2670 2916 
Q 2900 3119 2900 3481 
Q 2900 3844 2670 4047 
Q 2441 4250 2034 4250 
Q 1625 4250 1398 4047 
Q 1172 3844 1172 3481 
z
" transform="scale(0.015625)"/>
       </defs>
       <use xlink:href="#DejaVuSans-38"/>
       <use xlink:href="#DejaVuSans-30" transform="translate(63.623047 0)"/>
       <use xlink:href="#DejaVuSans-30" transform="translate(127.246094 0)"/>
       <use xlink:href="#DejaVuSans-30" transform="translate(190.869141 0)"/>
       <use xlink:href="#DejaVuSans-30" transform="translate(254.492188 0)"/>
      </g>
     </g>
    </g>
    <g id="text_10">
     <!-- Distance -->
     <g style="fill: #555555" transform="translate(203.811055 336.432687) scale(0.12 -0.12)">
      <defs>
       <path id="DejaVuSans-44" d="M 1259 4147 
L 1259 519 
L 2022 519 
Q 2988 519 3436 956 
Q 3884 1394 3884 2338 
Q 3884 3275 3436 3711 
Q 2988 4147 2022 4147 
L 1259 4147 
z
M 628 4666 
L 1925 4666 
Q 3281 4666 3915 4102 
Q 4550 3538 4550 2338 
Q 4550 1131 3912 565 
Q 3275 0 1925 0 
L 628 0 
L 628 4666 
z
" transform="scale(0.015625)"/>
       <path id="DejaVuSans-69" d="M 603 3500 
L 1178 3500 
L 1178 0 
L 603 0 
L 603 3500 
z
M 603 4863 
L 1178 4863 
L 1178 4134 
L 603 4134 
L 603 4863 
z
" transform="scale(0.015625)"/>
       <path id="DejaVuSans-73" d="M 2834 3397 
L 2834 2853 
Q 2591 2978 2328 3040 
Q 2066 3103 1784 3103 
Q 1356 3103 1142 2972 
Q 928 2841 928 2578 
Q 928 2378 1081 2264 
Q 1234 2150 1697 2047 
L 1894 2003 
Q 2506 1872 2764 1633 
Q 3022 1394 3022 966 
Q 3022 478 2636 193 
Q 2250 -91 1575 -91 
Q 1294 -91 989 -36 
Q 684 19 347 128 
L 347 722 
Q 666 556 975 473 
Q 1284 391 1588 391 
Q 1994 391 2212 530 
Q 2431 669 2431 922 
Q 2431 1156 2273 1281 
Q 2116 1406 1581 1522 
L 1381 1569 
Q 847 1681 609 1914 
Q 372 2147 372 2553 
Q 372 3047 722 3315 
Q 1072 3584 1716 3584 
Q 2034 3584 2315 3537 
Q 2597 3491 2834 3397 
z
" transform="scale(0.015625)"/>
       <path id="DejaVuSans-74" d="M 1172 4494 
L 1172 3500 
L 2356 3500 
L 2356 3053 
L 1172 3053 
L 1172 1153 
Q 1172 725 1289 603 
Q 1406 481 1766 481 
L 2356 481 
L 2356 0 
L 1766 0 
Q 1100 0 847 248 
Q 594 497 594 1153 
L 594 3053 
L 172 3053 
L 172 3500 
L 594 3500 
L 594 4494 
L 1172 4494 
z
" transform="scale(0.015625)"/>
       <path id="DejaVuSans-61" d="M 2194 1759 
Q 1497 1759 1228 1600 
Q 959 1441 959 1056 
Q 959 750 1161 570 
Q 1363 391 1709 391 
Q 2188 391 2477 730 
Q 2766 1069 2766 1631 
L 2766 1759 
L 2194 1759 
z
M 3341 1997 
L 3341 0 
L 2766 0 
L 2766 531 
Q 2569 213 2275 61 
Q 1981 -91 1556 -91 
Q 1019 -91 701 211 
Q 384 513 384 1019 
Q 384 1609 779 1909 
Q 1175 2209 1959 2209 
L 2766 2209 
L 2766 2266 
Q 2766 2663 2505 2880 
Q 2244 3097 1772 3097 
Q 1472 3097 1187 3025 
Q 903 2953 641 2809 
L 641 3341 
Q 956 3463 1253 3523 
Q 1550 3584 1831 3584 
Q 2591 3584 2966 3190 
Q 3341 2797 3341 1997 
z
" transform="scale(0.015625)"/>
       <path id="DejaVuSans-6e" d="M 3513 2113 
L 3513 0 
L 2938 0 
L 2938 2094 
Q 2938 2591 2744 2837 
Q 2550 3084 2163 3084 
Q 1697 3084 1428 2787 
Q 1159 2491 1159 1978 
L 1159 0 
L 581 0 
L 581 3500 
L 1159 3500 
L 1159 2956 
Q 1366 3272 1645 3428 
Q 1925 3584 2291 3584 
Q 2894 3584 3203 3211 
Q 3513 2838 3513 2113 
z
" transform="scale(0.015625)"/>
       <path id="DejaVuSans-63" d="M 3122 3366 
L 3122 2828 
Q 2878 2963 2633 3030 
Q 2388 3097 2138 3097 
Q 1578 3097 1268 2742 
Q 959 2388 959 1747 
Q 959 1106 1268 751 
Q 1578 397 2138 397 
Q 2388 397 2633 464 
Q 2878 531 3122 666 
L 3122 134 
Q 2881 22 2623 -34 
Q 2366 -91 2075 -91 
Q 1284 -91 818 406 
Q 353 903 353 1747 
Q 353 2603 823 3093 
Q 1294 3584 2113 3584 
Q 2378 3584 2631 3529 
Q 2884 3475 3122 3366 
z
" transform="scale(0.015625)"/>
       <path id="DejaVuSans-65" d="M 3597 1894 
L 3597 1613 
L 953 1613 
Q 991 1019 1311 708 
Q 1631 397 2203 397 
Q 2534 397 2845 478 
Q 3156 559 3463 722 
L 3463 178 
Q 3153 47 2828 -22 
Q 2503 -91 2169 -91 
Q 1331 -91 842 396 
Q 353 884 353 1716 
Q 353 2575 817 3079 
Q 1281 3584 2069 3584 
Q 2775 3584 3186 3129 
Q 3597 2675 3597 1894 
z
M 3022 2063 
Q 3016 2534 2758 2815 
Q 2500 3097 2075 3097 
Q 1594 3097 1305 2825 
Q 1016 2553 972 2059 
L 3022 2063 
z
" transform="scale(0.015625)"/>
      </defs>
      <use xlink:href="#DejaVuSans-44"/>
      <use xlink:href="#DejaVuSans-69" transform="translate(77.001953 0)"/>
      <use xlink:href="#DejaVuSans-73" transform="translate(104.785156 0)"/>
      <use xlink:href="#DejaVuSans-74" transform="translate(156.884766 0)"/>
      <use xlink:href="#DejaVuSans-61" transform="translate(196.09375 0)"/>
      <use xlink:href="#DejaVuSans-6e" transform="translate(257.373047 0)"/>
      <use xlink:href="#DejaVuSans-63" transform="translate(320.751953 0)"/>
      <use xlink:href="#DejaVuSans-65" transform="translate(375.732422 0)"/>
     </g>
    </g>
   </g>
   <g id="matplotlib.axis_2">
    <g id="ytick_1">
     <g id="line2d_19">
      <path d="M 44.086875 258.595383 
L 416.005234 258.595383 
" clip-path="url(#p8d3617015c)" style="fill: none; stroke: #ffffff; stroke-width: 0.8; stroke-linecap: square"/>
     </g>
     <g id="line2d_20">
      <defs>
       <path id="mdddb5855d8" d="M 0 0 
L -4.8 0 
" style="stroke: #555555"/>
      </defs>
      <g>
       <use xlink:href="#mdddb5855d8" x="44.086875" y="258.595383" style="fill: #555555; stroke: #555555"/>
      </g>
     </g>
     <g id="text_11">
      <!-- −4 -->
      <g style="fill: #555555" transform="translate(22.81375 261.938695) scale(0.088 -0.088)">
       <defs>
        <path id="DejaVuSans-2212" d="M 678 2272 
L 4684 2272 
L 4684 1741 
L 678 1741 
L 678 2272 
z
" transform="scale(0.015625)"/>
       </defs>
       <use xlink:href="#DejaVuSans-2212"/>
       <use xlink:href="#DejaVuSans-34" transform="translate(83.789062 0)"/>
      </g>
     </g>
    </g>
    <g id="ytick_2">
     <g id="line2d_21">
      <path d="M 44.086875 205.683066 
L 416.005234 205.683066 
" clip-path="url(#p8d3617015c)" style="fill: none; stroke: #ffffff; stroke-width: 0.8; stroke-linecap: square"/>
     </g>
     <g id="line2d_22">
      <g>
       <use xlink:href="#mdddb5855d8" x="44.086875" y="205.683066" style="fill: #555555; stroke: #555555"/>
      </g>
     </g>
     <g id="text_12">
      <!-- −2 -->
      <g style="fill: #555555" transform="translate(22.81375 209.026379) scale(0.088 -0.088)">
       <use xlink:href="#DejaVuSans-2212"/>
       <use xlink:href="#DejaVuSans-32" transform="translate(83.789062 0)"/>
      </g>
     </g>
    </g>
    <g id="ytick_3">
     <g id="line2d_23">
      <path d="M 44.086875 152.770749 
L 416.005234 152.770749 
" clip-path="url(#p8d3617015c)" style="fill: none; stroke: #ffffff; stroke-width: 0.8; stroke-linecap: square"/>
     </g>
     <g id="line2d_24">
      <g>
       <use xlink:href="#mdddb5855d8" x="44.086875" y="152.770749" style="fill: #555555; stroke: #555555"/>
      </g>
     </g>
     <g id="text_13">
      <!-- 0 -->
      <g style="fill: #555555" transform="translate(30.187875 156.114062) scale(0.088 -0.088)">
       <use xlink:href="#DejaVuSans-30"/>
      </g>
     </g>
    </g>
    <g id="ytick_4">
     <g id="line2d_25">
      <path d="M 44.086875 99.858433 
L 416.005234 99.858433 
" clip-path="url(#p8d3617015c)" style="fill: none; stroke: #ffffff; stroke-width: 0.8; stroke-linecap: square"/>
     </g>
     <g id="line2d_26">
      <g>
       <use xlink:href="#mdddb5855d8" x="44.086875" y="99.858433" style="fill: #555555; stroke: #555555"/>
      </g>
     </g>
     <g id="text_14">
      <!-- 2 -->
      <g style="fill: #555555" transform="translate(30.187875 103.201745) scale(0.088 -0.088)">
       <use xlink:href="#DejaVuSans-32"/>
      </g>
     </g>
    </g>
    <g id="ytick_5">
     <g id="line2d_27">
      <path d="M 44.086875 46.946116 
L 416.005234 46.946116 
" clip-path="url(#p8d3617015c)" style="fill: none; stroke: #ffffff; stroke-width: 0.8; stroke-linecap: square"/>
     </g>
     <g id="line2d_28">
      <g>
       <use xlink:href="#mdddb5855d8" x="44.086875" y="46.946116" style="fill: #555555; stroke: #555555"/>
      </g>
     </g>
     <g id="text_15">
      <!-- 4 -->
      <g style="fill: #555555" transform="translate(30.187875 50.289428) scale(0.088 -0.088)">
       <use xlink:href="#DejaVuSans-34"/>
      </g>
     </g>
    </g>
    <g id="text_16">
     <!-- Density -->
     <g style="fill: #555555" transform="translate(16.318125 187.978125) rotate(-90) scale(0.12 -0.12)">
      <defs>
       <path id="DejaVuSans-79" d="M 2059 -325 
Q 1816 -950 1584 -1140 
Q 1353 -1331 966 -1331 
L 506 -1331 
L 506 -850 
L 844 -850 
Q 1081 -850 1212 -737 
Q 1344 -625 1503 -206 
L 1606 56 
L 191 3500 
L 800 3500 
L 1894 763 
L 2988 3500 
L 3597 3500 
L 2059 -325 
z
" transform="scale(0.015625)"/>
      </defs>
      <use xlink:href="#DejaVuSans-44"/>
      <use xlink:href="#DejaVuSans-65" transform="translate(77.001953 0)"/>
      <use xlink:href="#DejaVuSans-6e" transform="translate(138.525391 0)"/>
      <use xlink:href="#DejaVuSans-73" transform="translate(201.904297 0)"/>
      <use xlink:href="#DejaVuSans-69" transform="translate(254.003906 0)"/>
      <use xlink:href="#DejaVuSans-74" transform="translate(281.787109 0)"/>
      <use xlink:href="#DejaVuSans-79" transform="translate(320.996094 0)"/>
     </g>
    </g>
    <g id="text_17">
     <!-- 1e−6 -->
     <g style="fill: #555555" transform="translate(44.086875 20.837812) scale(0.088 -0.088)">
      <use xlink:href="#DejaVuSans-31"/>
      <use xlink:href="#DejaVuSans-65" transform="translate(63.623047 0)"/>
      <use xlink:href="#DejaVuSans-2212" transform="translate(125.146484 0)"/>
      <use xlink:href="#DejaVuSans-36" transform="translate(208.935547 0)"/>
     </g>
    </g>
   </g>
   <g id="FillBetweenPolyCollection_1">
    <defs>
     <path id="m6934f1455b" d="M 60.992255 -239.800889 
L 60.992255 -218.662715 
L 67.89241 -225.468084 
L 74.792565 -183.426341 
L 81.69272 -132.656837 
L 88.592875 -83.626677 
L 95.49303 -52.478682 
L 102.393185 -68.113441 
L 109.293341 -80.42802 
L 116.193496 -58.546639 
L 123.093651 -68.083709 
L 129.993806 -71.317864 
L 136.893961 -62.212433 
L 143.794116 -53.038547 
L 150.694271 -69.179111 
L 157.594426 -117.965785 
L 164.494581 -184.335303 
L 171.394736 -220.447793 
L 178.294891 -213.218082 
L 185.195047 -208.207949 
L 192.095202 -209.142157 
L 198.995357 -196.886081 
L 205.895512 -178.562611 
L 212.795667 -180.356836 
L 219.695822 -181.359713 
L 226.595977 -182.468604 
L 233.496132 -181.705002 
L 240.396287 -177.417306 
L 247.296442 -169.304793 
L 254.196597 -164.408402 
L 261.096752 -172.464117 
L 267.996908 -181.827689 
L 274.897063 -185.077548 
L 281.797218 -187.139421 
L 288.697373 -186.252073 
L 295.597528 -181.828064 
L 302.497683 -176.052968 
L 309.397838 -169.165797 
L 316.297993 -166.656965 
L 323.198148 -167.208692 
L 330.098303 -169.78084 
L 336.998458 -173.466318 
L 343.898613 -176.905333 
L 350.798769 -179.755261 
L 357.698924 -181.629353 
L 364.599079 -184.15412 
L 371.499234 -185.894743 
L 378.399389 -187.27007 
L 385.299544 -188.277502 
L 392.199699 -189.141317 
L 399.099854 -189.845642 
L 399.099854 -193.222437 
L 399.099854 -193.222437 
L 392.199699 -193.100407 
L 385.299544 -192.941001 
L 378.399389 -192.615114 
L 371.499234 -192.221054 
L 364.599079 -191.721778 
L 357.698924 -191.07421 
L 350.798769 -190.13385 
L 343.898613 -188.808352 
L 336.998458 -187.21968 
L 330.098303 -185.642832 
L 323.198148 -186.160936 
L 316.297993 -189.997386 
L 309.397838 -196.408346 
L 302.497683 -208.922304 
L 295.597528 -223.237369 
L 288.697373 -233.472357 
L 281.797218 -238.429917 
L 274.897063 -239.112878 
L 267.996908 -237.028186 
L 261.096752 -231.720113 
L 254.196597 -231.745507 
L 247.296442 -242.700935 
L 240.396287 -255.099167 
L 233.496132 -262.381957 
L 226.595977 -266.669004 
L 219.695822 -269.64094 
L 212.795667 -272.922114 
L 205.895512 -269.967971 
L 198.995357 -283.295785 
L 192.095202 -293.855638 
L 185.195047 -296.678918 
L 178.294891 -301.192004 
L 171.394736 -304.382879 
L 164.494581 -263.832233 
L 157.594426 -189.726172 
L 150.694271 -151.085275 
L 143.794116 -146.310253 
L 136.893961 -167.729732 
L 129.993806 -194.546268 
L 123.093651 -205.317976 
L 116.193496 -207.57285 
L 109.293341 -239.629357 
L 102.393185 -234.676655 
L 95.49303 -217.277271 
L 88.592875 -240.960773 
L 81.69272 -262.570738 
L 74.792565 -277.206681 
L 67.89241 -282.828656 
L 60.992255 -239.800889 
z
" style="stroke: #0000ff; stroke-opacity: 0.2; stroke-width: 0.8"/>
    </defs>
    <g clip-path="url(#p8d3617015c)">
     <use xlink:href="#m6934f1455b" x="0" y="346.128312" style="fill: #0000ff; fill-opacity: 0.2; stroke: #0000ff; stroke-opacity: 0.2; stroke-width: 0.8"/>
    </g>
   </g>
   <g id="line2d_29">
    <path d="M 60.992255 117.194063 
L 67.89241 93.769587 
L 74.792565 115.352908 
L 81.69272 147.433629 
L 88.592875 182.321563 
L 95.49303 208.209776 
L 102.393185 191.676676 
L 109.293341 185.955492 
L 116.193496 208.856528 
L 123.093651 209.763437 
L 129.993806 213.934222 
L 136.893961 232.037137 
L 143.794116 246.448706 
L 150.694271 238.361633 
L 157.594426 193.436433 
L 164.494581 125.790962 
L 171.394736 85.517693 
L 178.294891 88.544762 
L 185.195047 93.665461 
L 192.095202 95.995874 
L 198.995357 109.158955 
L 205.895512 122.619139 
L 212.795667 121.757097 
L 219.695822 121.586968 
L 226.595977 123.548698 
L 233.496132 125.158789 
L 240.396287 129.987535 
L 247.296442 140.346343 
L 254.196597 146.516523 
L 261.096752 142.726549 
L 267.996908 136.43876 
L 274.897063 133.719353 
L 281.797218 133.175723 
L 288.697373 135.245644 
L 295.597528 143.28954 
L 302.497683 153.613784 
L 309.397838 162.593471 
L 316.297993 167.290876 
L 323.198148 168.772129 
L 330.098303 167.69324 
L 336.998458 165.100563 
L 343.898613 162.645351 
L 350.798769 160.591693 
L 357.698924 158.930345 
L 364.599079 157.561753 
L 371.499234 156.458315 
L 378.399389 155.607793 
L 385.299544 154.964076 
L 392.199699 154.447023 
L 399.099854 154.048201 
" clip-path="url(#p8d3617015c)" style="fill: none; stroke: #0000ff; stroke-width: 1.2; stroke-linecap: square"/>
   </g>
   <g id="line2d_30">
    <path d="M 44.086875 152.770749 
L 416.005234 152.770749 
" clip-path="url(#p8d3617015c)" style="fill: none; stroke-dasharray: 5.55,2.4; stroke-dashoffset: 0; stroke: #ff0000; stroke-width: 1.5"/>
   </g>
   <g id="patch_3">
    <path d="M 44.086875 306.497812 
L 44.086875 23.837812 
" style="fill: none; stroke: #ffffff; stroke-linejoin: miter; stroke-linecap: square"/>
   </g>
   <g id="patch_4">
    <path d="M 416.005234 306.497812 
L 416.005234 23.837812 
" style="fill: none; stroke: #ffffff; stroke-linejoin: miter; stroke-linecap: square"/>
   </g>
   <g id="patch_5">
    <path d="M 44.086875 306.497812 
L 416.005234 306.497812 
" style="fill: none; stroke: #ffffff; stroke-linejoin: miter; stroke-linecap: square"/>
   </g>
   <g id="patch_6">
    <path d="M 44.086875 23.837812 
L 416.005234 23.837812 
" style="fill: none; stroke: #ffffff; stroke-linejoin: miter; stroke-linecap: square"/>
   </g>
   <g id="text_18">
    <!-- Pairwise Distance Density Angkor -->
    <g transform="translate(112.882461 17.837812) scale(0.14 -0.14)">
     <defs>
      <path id="DejaVuSans-50" d="M 1259 4147 
L 1259 2394 
L 2053 2394 
Q 2494 2394 2734 2622 
Q 2975 2850 2975 3272 
Q 2975 3691 2734 3919 
Q 2494 4147 2053 4147 
L 1259 4147 
z
M 628 4666 
L 2053 4666 
Q 2838 4666 3239 4311 
Q 3641 3956 3641 3272 
Q 3641 2581 3239 2228 
Q 2838 1875 2053 1875 
L 1259 1875 
L 1259 0 
L 628 0 
L 628 4666 
z
" transform="scale(0.015625)"/>
      <path id="DejaVuSans-72" d="M 2631 2963 
Q 2534 3019 2420 3045 
Q 2306 3072 2169 3072 
Q 1681 3072 1420 2755 
Q 1159 2438 1159 1844 
L 1159 0 
L 581 0 
L 581 3500 
L 1159 3500 
L 1159 2956 
Q 1341 3275 1631 3429 
Q 1922 3584 2338 3584 
Q 2397 3584 2469 3576 
Q 2541 3569 2628 3553 
L 2631 2963 
z
" transform="scale(0.015625)"/>
      <path id="DejaVuSans-77" d="M 269 3500 
L 844 3500 
L 1563 769 
L 2278 3500 
L 2956 3500 
L 3675 769 
L 4391 3500 
L 4966 3500 
L 4050 0 
L 3372 0 
L 2619 2869 
L 1863 0 
L 1184 0 
L 269 3500 
z
" transform="scale(0.015625)"/>
      <path id="DejaVuSans-20" transform="scale(0.015625)"/>
      <path id="DejaVuSans-41" d="M 2188 4044 
L 1331 1722 
L 3047 1722 
L 2188 4044 
z
M 1831 4666 
L 2547 4666 
L 4325 0 
L 3669 0 
L 3244 1197 
L 1141 1197 
L 716 0 
L 50 0 
L 1831 4666 
z
" transform="scale(0.015625)"/>
      <path id="DejaVuSans-67" d="M 2906 1791 
Q 2906 2416 2648 2759 
Q 2391 3103 1925 3103 
Q 1463 3103 1205 2759 
Q 947 2416 947 1791 
Q 947 1169 1205 825 
Q 1463 481 1925 481 
Q 2391 481 2648 825 
Q 2906 1169 2906 1791 
z
M 3481 434 
Q 3481 -459 3084 -895 
Q 2688 -1331 1869 -1331 
Q 1566 -1331 1297 -1286 
Q 1028 -1241 775 -1147 
L 775 -588 
Q 1028 -725 1275 -790 
Q 1522 -856 1778 -856 
Q 2344 -856 2625 -561 
Q 2906 -266 2906 331 
L 2906 616 
Q 2728 306 2450 153 
Q 2172 0 1784 0 
Q 1141 0 747 490 
Q 353 981 353 1791 
Q 353 2603 747 3093 
Q 1141 3584 1784 3584 
Q 2172 3584 2450 3431 
Q 2728 3278 2906 2969 
L 2906 3500 
L 3481 3500 
L 3481 434 
z
" transform="scale(0.015625)"/>
      <path id="DejaVuSans-6b" d="M 581 4863 
L 1159 4863 
L 1159 1991 
L 2875 3500 
L 3609 3500 
L 1753 1863 
L 3688 0 
L 2938 0 
L 1159 1709 
L 1159 0 
L 581 0 
L 581 4863 
z
" transform="scale(0.015625)"/>
      <path id="DejaVuSans-6f" d="M 1959 3097 
Q 1497 3097 1228 2736 
Q 959 2375 959 1747 
Q 959 1119 1226 758 
Q 1494 397 1959 397 
Q 2419 397 2687 759 
Q 2956 1122 2956 1747 
Q 2956 2369 2687 2733 
Q 2419 3097 1959 3097 
z
M 1959 3584 
Q 2709 3584 3137 3096 
Q 3566 2609 3566 1747 
Q 3566 888 3137 398 
Q 2709 -91 1959 -91 
Q 1206 -91 779 398 
Q 353 888 353 1747 
Q 353 2609 779 3096 
Q 1206 3584 1959 3584 
z
" transform="scale(0.015625)"/>
     </defs>
     <use xlink:href="#DejaVuSans-50"/>
     <use xlink:href="#DejaVuSans-61" transform="translate(55.802734 0)"/>
     <use xlink:href="#DejaVuSans-69" transform="translate(117.082031 0)"/>
     <use xlink:href="#DejaVuSans-72" transform="translate(144.865234 0)"/>
     <use xlink:href="#DejaVuSans-77" transform="translate(185.978516 0)"/>
     <use xlink:href="#DejaVuSans-69" transform="translate(267.765625 0)"/>
     <use xlink:href="#DejaVuSans-73" transform="translate(295.548828 0)"/>
     <use xlink:href="#DejaVuSans-65" transform="translate(347.648438 0)"/>
     <use xlink:href="#DejaVuSans-20" transform="translate(409.171875 0)"/>
     <use xlink:href="#DejaVuSans-44" transform="translate(440.958984 0)"/>
     <use xlink:href="#DejaVuSans-69" transform="translate(517.960938 0)"/>
     <use xlink:href="#DejaVuSans-73" transform="translate(545.744141 0)"/>
     <use xlink:href="#DejaVuSans-74" transform="translate(597.84375 0)"/>
     <use xlink:href="#DejaVuSans-61" transform="translate(637.052734 0)"/>
     <use xlink:href="#DejaVuSans-6e" transform="translate(698.332031 0)"/>
     <use xlink:href="#DejaVuSans-63" transform="translate(761.710938 0)"/>
     <use xlink:href="#DejaVuSans-65" transform="translate(816.691406 0)"/>
     <use xlink:href="#DejaVuSans-20" transform="translate(878.214844 0)"/>
     <use xlink:href="#DejaVuSans-44" transform="translate(910.001953 0)"/>
     <use xlink:href="#DejaVuSans-65" transform="translate(987.003906 0)"/>
     <use xlink:href="#DejaVuSans-6e" transform="translate(1048.527344 0)"/>
     <use xlink:href="#DejaVuSans-73" transform="translate(1111.90625 0)"/>
     <use xlink:href="#DejaVuSans-69" transform="translate(1164.005859 0)"/>
     <use xlink:href="#DejaVuSans-74" transform="translate(1191.789062 0)"/>
     <use xlink:href="#DejaVuSans-79" transform="translate(1230.998047 0)"/>
     <use xlink:href="#DejaVuSans-20" transform="translate(1290.177734 0)"/>
     <use xlink:href="#DejaVuSans-41" transform="translate(1321.964844 0)"/>
     <use xlink:href="#DejaVuSans-6e" transform="translate(1390.373047 0)"/>
     <use xlink:href="#DejaVuSans-67" transform="translate(1453.751953 0)"/>
     <use xlink:href="#DejaVuSans-6b" transform="translate(1517.228516 0)"/>
     <use xlink:href="#DejaVuSans-6f" transform="translate(1571.513672 0)"/>
     <use xlink:href="#DejaVuSans-72" transform="translate(1632.695312 0)"/>
    </g>
   </g>
   <g id="legend_1">
    <g id="line2d_31">
     <path d="M 293.011484 36.93625 
L 303.011484 36.93625 
L 313.011484 36.93625 
" style="fill: none; stroke: #0000ff; stroke-width: 1.2; stroke-linecap: square"/>
    </g>
    <g id="text_19">
     <!-- Diff Array Angkor -->
     <g transform="translate(321.011484 40.43625) scale(0.1 -0.1)">
      <defs>
       <path id="DejaVuSans-66" d="M 2375 4863 
L 2375 4384 
L 1825 4384 
Q 1516 4384 1395 4259 
Q 1275 4134 1275 3809 
L 1275 3500 
L 2222 3500 
L 2222 3053 
L 1275 3053 
L 1275 0 
L 697 0 
L 697 3053 
L 147 3053 
L 147 3500 
L 697 3500 
L 697 3744 
Q 697 4328 969 4595 
Q 1241 4863 1831 4863 
L 2375 4863 
z
" transform="scale(0.015625)"/>
      </defs>
      <use xlink:href="#DejaVuSans-44"/>
      <use xlink:href="#DejaVuSans-69" transform="translate(77.001953 0)"/>
      <use xlink:href="#DejaVuSans-66" transform="translate(104.785156 0)"/>
      <use xlink:href="#DejaVuSans-66" transform="translate(139.990234 0)"/>
      <use xlink:href="#DejaVuSans-20" transform="translate(175.195312 0)"/>
      <use xlink:href="#DejaVuSans-41" transform="translate(206.982422 0)"/>
      <use xlink:href="#DejaVuSans-72" transform="translate(275.390625 0)"/>
      <use xlink:href="#DejaVuSans-72" transform="translate(314.753906 0)"/>
      <use xlink:href="#DejaVuSans-61" transform="translate(355.867188 0)"/>
      <use xlink:href="#DejaVuSans-79" transform="translate(417.146484 0)"/>
      <use xlink:href="#DejaVuSans-20" transform="translate(476.326172 0)"/>
      <use xlink:href="#DejaVuSans-41" transform="translate(508.113281 0)"/>
      <use xlink:href="#DejaVuSans-6e" transform="translate(576.521484 0)"/>
      <use xlink:href="#DejaVuSans-67" transform="translate(639.900391 0)"/>
      <use xlink:href="#DejaVuSans-6b" transform="translate(703.376953 0)"/>
      <use xlink:href="#DejaVuSans-6f" transform="translate(757.662109 0)"/>
      <use xlink:href="#DejaVuSans-72" transform="translate(818.84375 0)"/>
     </g>
    </g>
   </g>
  </g>
  <g id="axes_2">
   <g id="patch_7">
    <path d="M 460.261473 306.497812 
L 832.179832 306.497812 
L 832.179832 23.837812 
L 460.261473 23.837812 
z
" style="fill: #e5e5e5"/>
   </g>
   <g id="matplotlib.axis_3">
    <g id="xtick_10">
     <g id="line2d_32">
      <path d="M 477.166853 306.497812 
L 477.166853 23.837812 
" clip-path="url(#pa60741d3c8)" style="fill: none; stroke: #ffffff; stroke-width: 0.8; stroke-linecap: square"/>
     </g>
     <g id="line2d_33">
      <g>
       <use xlink:href="#mb79bd37598" x="477.166853" y="306.497812" style="fill: #555555; stroke: #555555"/>
      </g>
     </g>
     <g id="text_20">
      <!-- 0 -->
      <g style="fill: #555555" transform="translate(474.367353 321.484437) scale(0.088 -0.088)">
       <use xlink:href="#DejaVuSans-30"/>
      </g>
     </g>
    </g>
    <g id="xtick_11">
     <g id="line2d_34">
      <path d="M 535.322895 306.497812 
L 535.322895 23.837812 
" clip-path="url(#pa60741d3c8)" style="fill: none; stroke: #ffffff; stroke-width: 0.8; stroke-linecap: square"/>
     </g>
     <g id="line2d_35">
      <g>
       <use xlink:href="#mb79bd37598" x="535.322895" y="306.497812" style="fill: #555555; stroke: #555555"/>
      </g>
     </g>
     <g id="text_21">
      <!-- 20000 -->
      <g style="fill: #555555" transform="translate(521.325395 321.484437) scale(0.088 -0.088)">
       <use xlink:href="#DejaVuSans-32"/>
       <use xlink:href="#DejaVuSans-30" transform="translate(63.623047 0)"/>
       <use xlink:href="#DejaVuSans-30" transform="translate(127.246094 0)"/>
       <use xlink:href="#DejaVuSans-30" transform="translate(190.869141 0)"/>
       <use xlink:href="#DejaVuSans-30" transform="translate(254.492188 0)"/>
      </g>
     </g>
    </g>
    <g id="xtick_12">
     <g id="line2d_36">
      <path d="M 593.478938 306.497812 
L 593.478938 23.837812 
" clip-path="url(#pa60741d3c8)" style="fill: none; stroke: #ffffff; stroke-width: 0.8; stroke-linecap: square"/>
     </g>
     <g id="line2d_37">
      <g>
       <use xlink:href="#mb79bd37598" x="593.478938" y="306.497812" style="fill: #555555; stroke: #555555"/>
      </g>
     </g>
     <g id="text_22">
      <!-- 40000 -->
      <g style="fill: #555555" transform="translate(579.481438 321.484437) scale(0.088 -0.088)">
       <use xlink:href="#DejaVuSans-34"/>
       <use xlink:href="#DejaVuSans-30" transform="translate(63.623047 0)"/>
       <use xlink:href="#DejaVuSans-30" transform="translate(127.246094 0)"/>
       <use xlink:href="#DejaVuSans-30" transform="translate(190.869141 0)"/>
       <use xlink:href="#DejaVuSans-30" transform="translate(254.492188 0)"/>
      </g>
     </g>
    </g>
    <g id="xtick_13">
     <g id="line2d_38">
      <path d="M 651.63498 306.497812 
L 651.63498 23.837812 
" clip-path="url(#pa60741d3c8)" style="fill: none; stroke: #ffffff; stroke-width: 0.8; stroke-linecap: square"/>
     </g>
     <g id="line2d_39">
      <g>
       <use xlink:href="#mb79bd37598" x="651.63498" y="306.497812" style="fill: #555555; stroke: #555555"/>
      </g>
     </g>
     <g id="text_23">
      <!-- 60000 -->
      <g style="fill: #555555" transform="translate(637.63748 321.484437) scale(0.088 -0.088)">
       <use xlink:href="#DejaVuSans-36"/>
       <use xlink:href="#DejaVuSans-30" transform="translate(63.623047 0)"/>
       <use xlink:href="#DejaVuSans-30" transform="translate(127.246094 0)"/>
       <use xlink:href="#DejaVuSans-30" transform="translate(190.869141 0)"/>
       <use xlink:href="#DejaVuSans-30" transform="translate(254.492188 0)"/>
      </g>
     </g>
    </g>
    <g id="xtick_14">
     <g id="line2d_40">
      <path d="M 709.791023 306.497812 
L 709.791023 23.837812 
" clip-path="url(#pa60741d3c8)" style="fill: none; stroke: #ffffff; stroke-width: 0.8; stroke-linecap: square"/>
     </g>
     <g id="line2d_41">
      <g>
       <use xlink:href="#mb79bd37598" x="709.791023" y="306.497812" style="fill: #555555; stroke: #555555"/>
      </g>
     </g>
     <g id="text_24">
      <!-- 80000 -->
      <g style="fill: #555555" transform="translate(695.793523 321.484437) scale(0.088 -0.088)">
       <use xlink:href="#DejaVuSans-38"/>
       <use xlink:href="#DejaVuSans-30" transform="translate(63.623047 0)"/>
       <use xlink:href="#DejaVuSans-30" transform="translate(127.246094 0)"/>
       <use xlink:href="#DejaVuSans-30" transform="translate(190.869141 0)"/>
       <use xlink:href="#DejaVuSans-30" transform="translate(254.492188 0)"/>
      </g>
     </g>
    </g>
    <g id="xtick_15">
     <g id="line2d_42">
      <path d="M 767.947065 306.497812 
L 767.947065 23.837812 
" clip-path="url(#pa60741d3c8)" style="fill: none; stroke: #ffffff; stroke-width: 0.8; stroke-linecap: square"/>
     </g>
     <g id="line2d_43">
      <g>
       <use xlink:href="#mb79bd37598" x="767.947065" y="306.497812" style="fill: #555555; stroke: #555555"/>
      </g>
     </g>
     <g id="text_25">
      <!-- 100000 -->
      <g style="fill: #555555" transform="translate(751.150065 321.484437) scale(0.088 -0.088)">
       <use xlink:href="#DejaVuSans-31"/>
       <use xlink:href="#DejaVuSans-30" transform="translate(63.623047 0)"/>
       <use xlink:href="#DejaVuSans-30" transform="translate(127.246094 0)"/>
       <use xlink:href="#DejaVuSans-30" transform="translate(190.869141 0)"/>
       <use xlink:href="#DejaVuSans-30" transform="translate(254.492188 0)"/>
       <use xlink:href="#DejaVuSans-30" transform="translate(318.115234 0)"/>
      </g>
     </g>
    </g>
    <g id="xtick_16">
     <g id="line2d_44">
      <path d="M 826.103107 306.497812 
L 826.103107 23.837812 
" clip-path="url(#pa60741d3c8)" style="fill: none; stroke: #ffffff; stroke-width: 0.8; stroke-linecap: square"/>
     </g>
     <g id="line2d_45">
      <g>
       <use xlink:href="#mb79bd37598" x="826.103107" y="306.497812" style="fill: #555555; stroke: #555555"/>
      </g>
     </g>
     <g id="text_26">
      <!-- 120000 -->
      <g style="fill: #555555" transform="translate(809.306107 321.484437) scale(0.088 -0.088)">
       <use xlink:href="#DejaVuSans-31"/>
       <use xlink:href="#DejaVuSans-32" transform="translate(63.623047 0)"/>
       <use xlink:href="#DejaVuSans-30" transform="translate(127.246094 0)"/>
       <use xlink:href="#DejaVuSans-30" transform="translate(190.869141 0)"/>
       <use xlink:href="#DejaVuSans-30" transform="translate(254.492188 0)"/>
       <use xlink:href="#DejaVuSans-30" transform="translate(318.115234 0)"/>
      </g>
     </g>
    </g>
    <g id="text_27">
     <!-- Distance -->
     <g style="fill: #555555" transform="translate(619.985653 336.432687) scale(0.12 -0.12)">
      <use xlink:href="#DejaVuSans-44"/>
      <use xlink:href="#DejaVuSans-69" transform="translate(77.001953 0)"/>
      <use xlink:href="#DejaVuSans-73" transform="translate(104.785156 0)"/>
      <use xlink:href="#DejaVuSans-74" transform="translate(156.884766 0)"/>
      <use xlink:href="#DejaVuSans-61" transform="translate(196.09375 0)"/>
      <use xlink:href="#DejaVuSans-6e" transform="translate(257.373047 0)"/>
      <use xlink:href="#DejaVuSans-63" transform="translate(320.751953 0)"/>
      <use xlink:href="#DejaVuSans-65" transform="translate(375.732422 0)"/>
     </g>
    </g>
   </g>
   <g id="matplotlib.axis_4">
    <g id="ytick_6">
     <g id="line2d_46">
      <path d="M 460.261473 258.595383 
L 832.179832 258.595383 
" clip-path="url(#pa60741d3c8)" style="fill: none; stroke: #ffffff; stroke-width: 0.8; stroke-linecap: square"/>
     </g>
     <g id="line2d_47">
      <g>
       <use xlink:href="#mdddb5855d8" x="460.261473" y="258.595383" style="fill: #555555; stroke: #555555"/>
      </g>
     </g>
    </g>
    <g id="ytick_7">
     <g id="line2d_48">
      <path d="M 460.261473 205.683066 
L 832.179832 205.683066 
" clip-path="url(#pa60741d3c8)" style="fill: none; stroke: #ffffff; stroke-width: 0.8; stroke-linecap: square"/>
     </g>
     <g id="line2d_49">
      <g>
       <use xlink:href="#mdddb5855d8" x="460.261473" y="205.683066" style="fill: #555555; stroke: #555555"/>
      </g>
     </g>
    </g>
    <g id="ytick_8">
     <g id="line2d_50">
      <path d="M 460.261473 152.770749 
L 832.179832 152.770749 
" clip-path="url(#pa60741d3c8)" style="fill: none; stroke: #ffffff; stroke-width: 0.8; stroke-linecap: square"/>
     </g>
     <g id="line2d_51">
      <g>
       <use xlink:href="#mdddb5855d8" x="460.261473" y="152.770749" style="fill: #555555; stroke: #555555"/>
      </g>
     </g>
    </g>
    <g id="ytick_9">
     <g id="line2d_52">
      <path d="M 460.261473 99.858433 
L 832.179832 99.858433 
" clip-path="url(#pa60741d3c8)" style="fill: none; stroke: #ffffff; stroke-width: 0.8; stroke-linecap: square"/>
     </g>
     <g id="line2d_53">
      <g>
       <use xlink:href="#mdddb5855d8" x="460.261473" y="99.858433" style="fill: #555555; stroke: #555555"/>
      </g>
     </g>
    </g>
    <g id="ytick_10">
     <g id="line2d_54">
      <path d="M 460.261473 46.946116 
L 832.179832 46.946116 
" clip-path="url(#pa60741d3c8)" style="fill: none; stroke: #ffffff; stroke-width: 0.8; stroke-linecap: square"/>
     </g>
     <g id="line2d_55">
      <g>
       <use xlink:href="#mdddb5855d8" x="460.261473" y="46.946116" style="fill: #555555; stroke: #555555"/>
      </g>
     </g>
    </g>
    <g id="text_28">
     <!-- Density -->
     <g style="fill: #555555" transform="translate(448.965848 187.978125) rotate(-90) scale(0.12 -0.12)">
      <use xlink:href="#DejaVuSans-44"/>
      <use xlink:href="#DejaVuSans-65" transform="translate(77.001953 0)"/>
      <use xlink:href="#DejaVuSans-6e" transform="translate(138.525391 0)"/>
      <use xlink:href="#DejaVuSans-73" transform="translate(201.904297 0)"/>
      <use xlink:href="#DejaVuSans-69" transform="translate(254.003906 0)"/>
      <use xlink:href="#DejaVuSans-74" transform="translate(281.787109 0)"/>
      <use xlink:href="#DejaVuSans-79" transform="translate(320.996094 0)"/>
     </g>
    </g>
   </g>
   <g id="FillBetweenPolyCollection_2">
    <defs>
     <path id="m903457fd65" d="M 477.166853 -204.310313 
L 477.166853 -198.286254 
L 484.067008 -209.911912 
L 490.967163 -205.870896 
L 497.867318 -183.029408 
L 504.767473 -153.543259 
L 511.667628 -126.754427 
L 518.567784 -115.49627 
L 525.467939 -113.331138 
L 532.368094 -102.857452 
L 539.268249 -90.837268 
L 546.168404 -88.275212 
L 553.068559 -94.288761 
L 559.968714 -105.609407 
L 566.868869 -121.271586 
L 573.769024 -131.846801 
L 580.669179 -136.936082 
L 587.569334 -141.965796 
L 594.469489 -155.056335 
L 601.369645 -177.617597 
L 608.2698 -209.058856 
L 615.169955 -232.444798 
L 622.07011 -236.140658 
L 628.970265 -231.196827 
L 635.87042 -229.410055 
L 642.770575 -231.784513 
L 649.67073 -235.977446 
L 656.570885 -251.280753 
L 663.47104 -264.323344 
L 670.371195 -265.504762 
L 677.271351 -253.129272 
L 684.171506 -238.188362 
L 691.071661 -218.414688 
L 697.971816 -197.010736 
L 704.871971 -176.37663 
L 711.772126 -161.448624 
L 718.672281 -155.202039 
L 725.572436 -151.326142 
L 732.472591 -148.702492 
L 739.372746 -149.324946 
L 746.272901 -153.306474 
L 753.173056 -157.358195 
L 760.073212 -162.061221 
L 766.973367 -165.973962 
L 773.873522 -170.060343 
L 780.773677 -173.389928 
L 787.673832 -176.527958 
L 794.573987 -179.182759 
L 801.474142 -181.191491 
L 808.374297 -183.111023 
L 815.274452 -184.806931 
L 815.274452 -191.361382 
L 815.274452 -191.361382 
L 808.374297 -190.707274 
L 801.474142 -189.879815 
L 794.573987 -188.634889 
L 787.673832 -187.291773 
L 780.773677 -185.759355 
L 773.873522 -183.941444 
L 766.973367 -181.640745 
L 760.073212 -178.909761 
L 753.173056 -176.525673 
L 746.272901 -173.554711 
L 739.372746 -171.249046 
L 732.472591 -173.375489 
L 725.572436 -178.834679 
L 718.672281 -184.536526 
L 711.772126 -192.494318 
L 704.871971 -209.451513 
L 697.971816 -232.535335 
L 691.071661 -255.290126 
L 684.171506 -277.280715 
L 677.271351 -295.883266 
L 670.371195 -309.442318 
L 663.47104 -308.180578 
L 656.570885 -294.558026 
L 649.67073 -279.49014 
L 642.770575 -274.662083 
L 635.87042 -272.689527 
L 628.970265 -274.668405 
L 622.07011 -276.573717 
L 615.169955 -270.870487 
L 608.2698 -246.154333 
L 601.369645 -214.979061 
L 594.469489 -190.591139 
L 587.569334 -176.947291 
L 580.669179 -176.037573 
L 573.769024 -173.58532 
L 566.868869 -166.115072 
L 559.968714 -160.754395 
L 553.068559 -157.198647 
L 546.168404 -158.242031 
L 539.268249 -164.359944 
L 532.368094 -177.681134 
L 525.467939 -187.353062 
L 518.567784 -186.51564 
L 511.667628 -191.037679 
L 504.767473 -207.887404 
L 497.867318 -225.408048 
L 490.967163 -236.114292 
L 484.067008 -226.3406 
L 477.166853 -204.310313 
z
" style="stroke: #008000; stroke-opacity: 0.2; stroke-width: 0.8"/>
    </defs>
    <g clip-path="url(#pa60741d3c8)">
     <use xlink:href="#m903457fd65" x="0" y="346.128312" style="fill: #008000; fill-opacity: 0.2; stroke: #008000; stroke-opacity: 0.2; stroke-width: 0.8"/>
    </g>
   </g>
   <g id="line2d_56">
    <path d="M 477.166853 144.665388 
L 484.067008 127.897558 
L 490.967163 125.390721 
L 497.867318 141.659534 
L 504.767473 165.647114 
L 511.667628 187.820098 
L 518.567784 195.733327 
L 525.467939 195.416322 
L 532.368094 205.347942 
L 539.268249 219.256088 
L 546.168404 223.781327 
L 553.068559 221.971538 
L 559.968714 214.652119 
L 566.868869 203.614181 
L 573.769024 194.71349 
L 580.669179 190.731544 
L 587.569334 187.519087 
L 594.469489 174.243574 
L 601.369645 150.963568 
L 608.2698 119.56854 
L 615.169955 95.038305 
L 622.07011 89.966608 
L 628.970265 93.740084 
L 635.87042 95.590626 
L 642.770575 93.251714 
L 649.67073 88.251082 
L 656.570885 73.163962 
L 663.47104 58.223287 
L 670.371195 57.577774 
L 677.271351 70.428622 
L 684.171506 87.240783 
L 691.071661 108.039084 
L 697.971816 130.344902 
L 704.871971 152.219544 
L 711.772126 168.056909 
L 718.672281 175.545252 
L 725.572436 180.22825 
L 732.472591 184.616426 
L 739.372746 185.413288 
L 746.272901 182.237283 
L 753.173056 178.386697 
L 760.073212 174.978854 
L 766.973367 171.614311 
L 773.873522 168.446704 
L 780.773677 165.739901 
L 787.673832 163.5009 
L 794.573987 161.634945 
L 801.474142 160.046663 
L 808.374297 158.686898 
L 815.274452 157.552096 
" clip-path="url(#pa60741d3c8)" style="fill: none; stroke: #008000; stroke-width: 1.2; stroke-linecap: square"/>
   </g>
   <g id="line2d_57">
    <path d="M 460.261473 152.770749 
L 832.179832 152.770749 
" clip-path="url(#pa60741d3c8)" style="fill: none; stroke-dasharray: 5.55,2.4; stroke-dashoffset: 0; stroke: #ff0000; stroke-width: 1.5"/>
   </g>
   <g id="patch_8">
    <path d="M 460.261473 306.497812 
L 460.261473 23.837812 
" style="fill: none; stroke: #ffffff; stroke-linejoin: miter; stroke-linecap: square"/>
   </g>
   <g id="patch_9">
    <path d="M 832.179832 306.497812 
L 832.179832 23.837812 
" style="fill: none; stroke: #ffffff; stroke-linejoin: miter; stroke-linecap: square"/>
   </g>
   <g id="patch_10">
    <path d="M 460.261473 306.497812 
L 832.179832 306.497812 
" style="fill: none; stroke: #ffffff; stroke-linejoin: miter; stroke-linecap: square"/>
   </g>
   <g id="patch_11">
    <path d="M 460.261473 23.837812 
L 832.179832 23.837812 
" style="fill: none; stroke: #ffffff; stroke-linejoin: miter; stroke-linecap: square"/>
   </g>
   <g id="text_29">
    <!-- Pairwise Distance Density Hampshire -->
    <g transform="translate(515.815028 17.837812) scale(0.14 -0.14)">
     <defs>
      <path id="DejaVuSans-48" d="M 628 4666 
L 1259 4666 
L 1259 2753 
L 3553 2753 
L 3553 4666 
L 4184 4666 
L 4184 0 
L 3553 0 
L 3553 2222 
L 1259 2222 
L 1259 0 
L 628 0 
L 628 4666 
z
" transform="scale(0.015625)"/>
      <path id="DejaVuSans-6d" d="M 3328 2828 
Q 3544 3216 3844 3400 
Q 4144 3584 4550 3584 
Q 5097 3584 5394 3201 
Q 5691 2819 5691 2113 
L 5691 0 
L 5113 0 
L 5113 2094 
Q 5113 2597 4934 2840 
Q 4756 3084 4391 3084 
Q 3944 3084 3684 2787 
Q 3425 2491 3425 1978 
L 3425 0 
L 2847 0 
L 2847 2094 
Q 2847 2600 2669 2842 
Q 2491 3084 2119 3084 
Q 1678 3084 1418 2786 
Q 1159 2488 1159 1978 
L 1159 0 
L 581 0 
L 581 3500 
L 1159 3500 
L 1159 2956 
Q 1356 3278 1631 3431 
Q 1906 3584 2284 3584 
Q 2666 3584 2933 3390 
Q 3200 3197 3328 2828 
z
" transform="scale(0.015625)"/>
      <path id="DejaVuSans-70" d="M 1159 525 
L 1159 -1331 
L 581 -1331 
L 581 3500 
L 1159 3500 
L 1159 2969 
Q 1341 3281 1617 3432 
Q 1894 3584 2278 3584 
Q 2916 3584 3314 3078 
Q 3713 2572 3713 1747 
Q 3713 922 3314 415 
Q 2916 -91 2278 -91 
Q 1894 -91 1617 61 
Q 1341 213 1159 525 
z
M 3116 1747 
Q 3116 2381 2855 2742 
Q 2594 3103 2138 3103 
Q 1681 3103 1420 2742 
Q 1159 2381 1159 1747 
Q 1159 1113 1420 752 
Q 1681 391 2138 391 
Q 2594 391 2855 752 
Q 3116 1113 3116 1747 
z
" transform="scale(0.015625)"/>
      <path id="DejaVuSans-68" d="M 3513 2113 
L 3513 0 
L 2938 0 
L 2938 2094 
Q 2938 2591 2744 2837 
Q 2550 3084 2163 3084 
Q 1697 3084 1428 2787 
Q 1159 2491 1159 1978 
L 1159 0 
L 581 0 
L 581 4863 
L 1159 4863 
L 1159 2956 
Q 1366 3272 1645 3428 
Q 1925 3584 2291 3584 
Q 2894 3584 3203 3211 
Q 3513 2838 3513 2113 
z
" transform="scale(0.015625)"/>
     </defs>
     <use xlink:href="#DejaVuSans-50"/>
     <use xlink:href="#DejaVuSans-61" transform="translate(55.802734 0)"/>
     <use xlink:href="#DejaVuSans-69" transform="translate(117.082031 0)"/>
     <use xlink:href="#DejaVuSans-72" transform="translate(144.865234 0)"/>
     <use xlink:href="#DejaVuSans-77" transform="translate(185.978516 0)"/>
     <use xlink:href="#DejaVuSans-69" transform="translate(267.765625 0)"/>
     <use xlink:href="#DejaVuSans-73" transform="translate(295.548828 0)"/>
     <use xlink:href="#DejaVuSans-65" transform="translate(347.648438 0)"/>
     <use xlink:href="#DejaVuSans-20" transform="translate(409.171875 0)"/>
     <use xlink:href="#DejaVuSans-44" transform="translate(440.958984 0)"/>
     <use xlink:href="#DejaVuSans-69" transform="translate(517.960938 0)"/>
     <use xlink:href="#DejaVuSans-73" transform="translate(545.744141 0)"/>
     <use xlink:href="#DejaVuSans-74" transform="translate(597.84375 0)"/>
     <use xlink:href="#DejaVuSans-61" transform="translate(637.052734 0)"/>
     <use xlink:href="#DejaVuSans-6e" transform="translate(698.332031 0)"/>
     <use xlink:href="#DejaVuSans-63" transform="translate(761.710938 0)"/>
     <use xlink:href="#DejaVuSans-65" transform="translate(816.691406 0)"/>
     <use xlink:href="#DejaVuSans-20" transform="translate(878.214844 0)"/>
     <use xlink:href="#DejaVuSans-44" transform="translate(910.001953 0)"/>
     <use xlink:href="#DejaVuSans-65" transform="translate(987.003906 0)"/>
     <use xlink:href="#DejaVuSans-6e" transform="translate(1048.527344 0)"/>
     <use xlink:href="#DejaVuSans-73" transform="translate(1111.90625 0)"/>
     <use xlink:href="#DejaVuSans-69" transform="translate(1164.005859 0)"/>
     <use xlink:href="#DejaVuSans-74" transform="translate(1191.789062 0)"/>
     <use xlink:href="#DejaVuSans-79" transform="translate(1230.998047 0)"/>
     <use xlink:href="#DejaVuSans-20" transform="translate(1290.177734 0)"/>
     <use xlink:href="#DejaVuSans-48" transform="translate(1321.964844 0)"/>
     <use xlink:href="#DejaVuSans-61" transform="translate(1397.160156 0)"/>
     <use xlink:href="#DejaVuSans-6d" transform="translate(1458.439453 0)"/>
     <use xlink:href="#DejaVuSans-70" transform="translate(1555.851562 0)"/>
     <use xlink:href="#DejaVuSans-73" transform="translate(1619.328125 0)"/>
     <use xlink:href="#DejaVuSans-68" transform="translate(1671.427734 0)"/>
     <use xlink:href="#DejaVuSans-69" transform="translate(1734.806641 0)"/>
     <use xlink:href="#DejaVuSans-72" transform="translate(1762.589844 0)"/>
     <use xlink:href="#DejaVuSans-65" transform="translate(1801.453125 0)"/>
    </g>
   </g>
   <g id="legend_2">
    <g id="line2d_58">
     <path d="M 690.268895 36.93625 
L 700.268895 36.93625 
L 710.268895 36.93625 
" style="fill: none; stroke: #008000; stroke-width: 1.2; stroke-linecap: square"/>
    </g>
    <g id="text_30">
     <!-- Diff Array Hampshire -->
     <g transform="translate(718.268895 40.43625) scale(0.1 -0.1)">
      <use xlink:href="#DejaVuSans-44"/>
      <use xlink:href="#DejaVuSans-69" transform="translate(77.001953 0)"/>
      <use xlink:href="#DejaVuSans-66" transform="translate(104.785156 0)"/>
      <use xlink:href="#DejaVuSans-66" transform="translate(139.990234 0)"/>
      <use xlink:href="#DejaVuSans-20" transform="translate(175.195312 0)"/>
      <use xlink:href="#DejaVuSans-41" transform="translate(206.982422 0)"/>
      <use xlink:href="#DejaVuSans-72" transform="translate(275.390625 0)"/>
      <use xlink:href="#DejaVuSans-72" transform="translate(314.753906 0)"/>
      <use xlink:href="#DejaVuSans-61" transform="translate(355.867188 0)"/>
      <use xlink:href="#DejaVuSans-79" transform="translate(417.146484 0)"/>
      <use xlink:href="#DejaVuSans-20" transform="translate(476.326172 0)"/>
      <use xlink:href="#DejaVuSans-48" transform="translate(508.113281 0)"/>
      <use xlink:href="#DejaVuSans-61" transform="translate(583.308594 0)"/>
      <use xlink:href="#DejaVuSans-6d" transform="translate(644.587891 0)"/>
      <use xlink:href="#DejaVuSans-70" transform="translate(742 0)"/>
      <use xlink:href="#DejaVuSans-73" transform="translate(805.476562 0)"/>
      <use xlink:href="#DejaVuSans-68" transform="translate(857.576172 0)"/>
      <use xlink:href="#DejaVuSans-69" transform="translate(920.955078 0)"/>
      <use xlink:href="#DejaVuSans-72" transform="translate(948.738281 0)"/>
      <use xlink:href="#DejaVuSans-65" transform="translate(987.601562 0)"/>
     </g>
    </g>
   </g>
  </g>
 </g>
 <defs>
  <clipPath id="p8d3617015c">
   <rect x="44.086875" y="23.837812" width="371.918359" height="282.66"/>
  </clipPath>
  <clipPath id="pa60741d3c8">
   <rect x="460.261473" y="23.837812" width="371.918359" height="282.66"/>
  </clipPath>
 </defs>
</svg>
