<?xml version="1.0" encoding="utf-8" standalone="no"?>
<!DOCTYPE svg PUBLIC "-//W3C//DTD SVG 1.1//EN"
  "http://www.w3.org/Graphics/SVG/1.1/DTD/svg11.dtd">
<svg xmlns:xlink="http://www.w3.org/1999/xlink" width="852.140445pt" height="346.8505pt" viewBox="0 0 852.140445 346.8505" xmlns="http://www.w3.org/2000/svg" version="1.1">
 <metadata>
  <rdf:RDF xmlns:dc="http://purl.org/dc/elements/1.1/" xmlns:cc="http://creativecommons.org/ns#" xmlns:rdf="http://www.w3.org/1999/02/22-rdf-syntax-ns#">
   <cc:Work>
    <dc:type rdf:resource="http://purl.org/dc/dcmitype/StillImage"/>
    <dc:date>2025-04-28T18:24:06.908758</dc:date>
    <dc:format>image/svg+xml</dc:format>
    <dc:creator>
     <cc:Agent>
      <dc:title>Matplotlib v3.10.1, https://matplotlib.org/</dc:title>
     </cc:Agent>
    </dc:creator>
   </cc:Work>
  </rdf:RDF>
 </metadata>
 <defs>
  <style type="text/css">*{stroke-linejoin: round; stroke-linecap: butt}</style>
 </defs>
 <g id="figure_1">
  <g id="patch_1">
   <path d="M 0 346.8505 
L 852.140445 346.8505 
L 852.140445 0 
L 0 0 
z
" style="fill: #ffffff"/>
  </g>
  <g id="axes_1">
   <g id="patch_2">
    <path d="M 44.086875 307.22 
L 422.372734 307.22 
L 422.372734 23.84 
L 44.086875 23.84 
z
" style="fill: #e5e5e5"/>
   </g>
   <g id="matplotlib.axis_1">
    <g id="xtick_1">
     <g id="line2d_1">
      <path d="M 61.281687 307.22 
L 61.281687 23.84 
" clip-path="url(#p621db8a46d)" style="fill: none; stroke: #ffffff; stroke-width: 0.8; stroke-linecap: square"/>
     </g>
     <g id="line2d_2">
      <defs>
       <path id="ma40ff1aeb1" d="M 0 0 
L 0 4.8 
" style="stroke: #555555"/>
      </defs>
      <g>
       <use xlink:href="#ma40ff1aeb1" x="61.281687" y="307.22" style="fill: #555555; stroke: #555555"/>
      </g>
     </g>
     <g id="text_1">
      <!-- 0.0 -->
      <g style="fill: #555555" transform="translate(54.284312 322.206625) scale(0.088 -0.088)">
       <defs>
        <path id="DejaVuSans-30" d="M 2034 4250 
Q 1547 4250 1301 3770 
Q 1056 3291 1056 2328 
Q 1056 1369 1301 889 
Q 1547 409 2034 409 
Q 2525 409 2770 889 
Q 3016 1369 3016 2328 
Q 3016 3291 2770 3770 
Q 2525 4250 2034 4250 
z
M 2034 4750 
Q 2819 4750 3233 4129 
Q 3647 3509 3647 2328 
Q 3647 1150 3233 529 
Q 2819 -91 2034 -91 
Q 1250 -91 836 529 
Q 422 1150 422 2328 
Q 422 3509 836 4129 
Q 1250 4750 2034 4750 
z
" transform="scale(0.015625)"/>
        <path id="DejaVuSans-2e" d="M 684 794 
L 1344 794 
L 1344 0 
L 684 0 
L 684 794 
z
" transform="scale(0.015625)"/>
       </defs>
       <use xlink:href="#DejaVuSans-30"/>
       <use xlink:href="#DejaVuSans-2e" transform="translate(63.623047 0)"/>
       <use xlink:href="#DejaVuSans-30" transform="translate(95.410156 0)"/>
      </g>
     </g>
    </g>
    <g id="xtick_2">
     <g id="line2d_3">
      <path d="M 105.725358 307.22 
L 105.725358 23.84 
" clip-path="url(#p621db8a46d)" style="fill: none; stroke: #ffffff; stroke-width: 0.8; stroke-linecap: square"/>
     </g>
     <g id="line2d_4">
      <g>
       <use xlink:href="#ma40ff1aeb1" x="105.725358" y="307.22" style="fill: #555555; stroke: #555555"/>
      </g>
     </g>
     <g id="text_2">
      <!-- 10.0 -->
      <g style="fill: #555555" transform="translate(95.928483 322.206625) scale(0.088 -0.088)">
       <defs>
        <path id="DejaVuSans-31" d="M 794 531 
L 1825 531 
L 1825 4091 
L 703 3866 
L 703 4441 
L 1819 4666 
L 2450 4666 
L 2450 531 
L 3481 531 
L 3481 0 
L 794 0 
L 794 531 
z
" transform="scale(0.015625)"/>
       </defs>
       <use xlink:href="#DejaVuSans-31"/>
       <use xlink:href="#DejaVuSans-30" transform="translate(63.623047 0)"/>
       <use xlink:href="#DejaVuSans-2e" transform="translate(127.246094 0)"/>
       <use xlink:href="#DejaVuSans-30" transform="translate(159.033203 0)"/>
      </g>
     </g>
    </g>
    <g id="xtick_3">
     <g id="line2d_5">
      <path d="M 150.169028 307.22 
L 150.169028 23.84 
" clip-path="url(#p621db8a46d)" style="fill: none; stroke: #ffffff; stroke-width: 0.8; stroke-linecap: square"/>
     </g>
     <g id="line2d_6">
      <g>
       <use xlink:href="#ma40ff1aeb1" x="150.169028" y="307.22" style="fill: #555555; stroke: #555555"/>
      </g>
     </g>
     <g id="text_3">
      <!-- 20.0 -->
      <g style="fill: #555555" transform="translate(140.372153 322.206625) scale(0.088 -0.088)">
       <defs>
        <path id="DejaVuSans-32" d="M 1228 531 
L 3431 531 
L 3431 0 
L 469 0 
L 469 531 
Q 828 903 1448 1529 
Q 2069 2156 2228 2338 
Q 2531 2678 2651 2914 
Q 2772 3150 2772 3378 
Q 2772 3750 2511 3984 
Q 2250 4219 1831 4219 
Q 1534 4219 1204 4116 
Q 875 4013 500 3803 
L 500 4441 
Q 881 4594 1212 4672 
Q 1544 4750 1819 4750 
Q 2544 4750 2975 4387 
Q 3406 4025 3406 3419 
Q 3406 3131 3298 2873 
Q 3191 2616 2906 2266 
Q 2828 2175 2409 1742 
Q 1991 1309 1228 531 
z
" transform="scale(0.015625)"/>
       </defs>
       <use xlink:href="#DejaVuSans-32"/>
       <use xlink:href="#DejaVuSans-30" transform="translate(63.623047 0)"/>
       <use xlink:href="#DejaVuSans-2e" transform="translate(127.246094 0)"/>
       <use xlink:href="#DejaVuSans-30" transform="translate(159.033203 0)"/>
      </g>
     </g>
    </g>
    <g id="xtick_4">
     <g id="line2d_7">
      <path d="M 194.612699 307.22 
L 194.612699 23.84 
" clip-path="url(#p621db8a46d)" style="fill: none; stroke: #ffffff; stroke-width: 0.8; stroke-linecap: square"/>
     </g>
     <g id="line2d_8">
      <g>
       <use xlink:href="#ma40ff1aeb1" x="194.612699" y="307.22" style="fill: #555555; stroke: #555555"/>
      </g>
     </g>
     <g id="text_4">
      <!-- 30.0 -->
      <g style="fill: #555555" transform="translate(184.815824 322.206625) scale(0.088 -0.088)">
       <defs>
        <path id="DejaVuSans-33" d="M 2597 2516 
Q 3050 2419 3304 2112 
Q 3559 1806 3559 1356 
Q 3559 666 3084 287 
Q 2609 -91 1734 -91 
Q 1441 -91 1130 -33 
Q 819 25 488 141 
L 488 750 
Q 750 597 1062 519 
Q 1375 441 1716 441 
Q 2309 441 2620 675 
Q 2931 909 2931 1356 
Q 2931 1769 2642 2001 
Q 2353 2234 1838 2234 
L 1294 2234 
L 1294 2753 
L 1863 2753 
Q 2328 2753 2575 2939 
Q 2822 3125 2822 3475 
Q 2822 3834 2567 4026 
Q 2313 4219 1838 4219 
Q 1578 4219 1281 4162 
Q 984 4106 628 3988 
L 628 4550 
Q 988 4650 1302 4700 
Q 1616 4750 1894 4750 
Q 2613 4750 3031 4423 
Q 3450 4097 3450 3541 
Q 3450 3153 3228 2886 
Q 3006 2619 2597 2516 
z
" transform="scale(0.015625)"/>
       </defs>
       <use xlink:href="#DejaVuSans-33"/>
       <use xlink:href="#DejaVuSans-30" transform="translate(63.623047 0)"/>
       <use xlink:href="#DejaVuSans-2e" transform="translate(127.246094 0)"/>
       <use xlink:href="#DejaVuSans-30" transform="translate(159.033203 0)"/>
      </g>
     </g>
    </g>
    <g id="xtick_5">
     <g id="line2d_9">
      <path d="M 239.05637 307.22 
L 239.05637 23.84 
" clip-path="url(#p621db8a46d)" style="fill: none; stroke: #ffffff; stroke-width: 0.8; stroke-linecap: square"/>
     </g>
     <g id="line2d_10">
      <g>
       <use xlink:href="#ma40ff1aeb1" x="239.05637" y="307.22" style="fill: #555555; stroke: #555555"/>
      </g>
     </g>
     <g id="text_5">
      <!-- 40.0 -->
      <g style="fill: #555555" transform="translate(229.259495 322.206625) scale(0.088 -0.088)">
       <defs>
        <path id="DejaVuSans-34" d="M 2419 4116 
L 825 1625 
L 2419 1625 
L 2419 4116 
z
M 2253 4666 
L 3047 4666 
L 3047 1625 
L 3713 1625 
L 3713 1100 
L 3047 1100 
L 3047 0 
L 2419 0 
L 2419 1100 
L 313 1100 
L 313 1709 
L 2253 4666 
z
" transform="scale(0.015625)"/>
       </defs>
       <use xlink:href="#DejaVuSans-34"/>
       <use xlink:href="#DejaVuSans-30" transform="translate(63.623047 0)"/>
       <use xlink:href="#DejaVuSans-2e" transform="translate(127.246094 0)"/>
       <use xlink:href="#DejaVuSans-30" transform="translate(159.033203 0)"/>
      </g>
     </g>
    </g>
    <g id="xtick_6">
     <g id="line2d_11">
      <path d="M 283.500041 307.22 
L 283.500041 23.84 
" clip-path="url(#p621db8a46d)" style="fill: none; stroke: #ffffff; stroke-width: 0.8; stroke-linecap: square"/>
     </g>
     <g id="line2d_12">
      <g>
       <use xlink:href="#ma40ff1aeb1" x="283.500041" y="307.22" style="fill: #555555; stroke: #555555"/>
      </g>
     </g>
     <g id="text_6">
      <!-- 50.0 -->
      <g style="fill: #555555" transform="translate(273.703166 322.206625) scale(0.088 -0.088)">
       <defs>
        <path id="DejaVuSans-35" d="M 691 4666 
L 3169 4666 
L 3169 4134 
L 1269 4134 
L 1269 2991 
Q 1406 3038 1543 3061 
Q 1681 3084 1819 3084 
Q 2600 3084 3056 2656 
Q 3513 2228 3513 1497 
Q 3513 744 3044 326 
Q 2575 -91 1722 -91 
Q 1428 -91 1123 -41 
Q 819 9 494 109 
L 494 744 
Q 775 591 1075 516 
Q 1375 441 1709 441 
Q 2250 441 2565 725 
Q 2881 1009 2881 1497 
Q 2881 1984 2565 2268 
Q 2250 2553 1709 2553 
Q 1456 2553 1204 2497 
Q 953 2441 691 2322 
L 691 4666 
z
" transform="scale(0.015625)"/>
       </defs>
       <use xlink:href="#DejaVuSans-35"/>
       <use xlink:href="#DejaVuSans-30" transform="translate(63.623047 0)"/>
       <use xlink:href="#DejaVuSans-2e" transform="translate(127.246094 0)"/>
       <use xlink:href="#DejaVuSans-30" transform="translate(159.033203 0)"/>
      </g>
     </g>
    </g>
    <g id="xtick_7">
     <g id="line2d_13">
      <path d="M 327.943711 307.22 
L 327.943711 23.84 
" clip-path="url(#p621db8a46d)" style="fill: none; stroke: #ffffff; stroke-width: 0.8; stroke-linecap: square"/>
     </g>
     <g id="line2d_14">
      <g>
       <use xlink:href="#ma40ff1aeb1" x="327.943711" y="307.22" style="fill: #555555; stroke: #555555"/>
      </g>
     </g>
     <g id="text_7">
      <!-- 60.0 -->
      <g style="fill: #555555" transform="translate(318.146836 322.206625) scale(0.088 -0.088)">
       <defs>
        <path id="DejaVuSans-36" d="M 2113 2584 
Q 1688 2584 1439 2293 
Q 1191 2003 1191 1497 
Q 1191 994 1439 701 
Q 1688 409 2113 409 
Q 2538 409 2786 701 
Q 3034 994 3034 1497 
Q 3034 2003 2786 2293 
Q 2538 2584 2113 2584 
z
M 3366 4563 
L 3366 3988 
Q 3128 4100 2886 4159 
Q 2644 4219 2406 4219 
Q 1781 4219 1451 3797 
Q 1122 3375 1075 2522 
Q 1259 2794 1537 2939 
Q 1816 3084 2150 3084 
Q 2853 3084 3261 2657 
Q 3669 2231 3669 1497 
Q 3669 778 3244 343 
Q 2819 -91 2113 -91 
Q 1303 -91 875 529 
Q 447 1150 447 2328 
Q 447 3434 972 4092 
Q 1497 4750 2381 4750 
Q 2619 4750 2861 4703 
Q 3103 4656 3366 4563 
z
" transform="scale(0.015625)"/>
       </defs>
       <use xlink:href="#DejaVuSans-36"/>
       <use xlink:href="#DejaVuSans-30" transform="translate(63.623047 0)"/>
       <use xlink:href="#DejaVuSans-2e" transform="translate(127.246094 0)"/>
       <use xlink:href="#DejaVuSans-30" transform="translate(159.033203 0)"/>
      </g>
     </g>
    </g>
    <g id="xtick_8">
     <g id="line2d_15">
      <path d="M 372.387382 307.22 
L 372.387382 23.84 
" clip-path="url(#p621db8a46d)" style="fill: none; stroke: #ffffff; stroke-width: 0.8; stroke-linecap: square"/>
     </g>
     <g id="line2d_16">
      <g>
       <use xlink:href="#ma40ff1aeb1" x="372.387382" y="307.22" style="fill: #555555; stroke: #555555"/>
      </g>
     </g>
     <g id="text_8">
      <!-- 70.0 -->
      <g style="fill: #555555" transform="translate(362.590507 322.206625) scale(0.088 -0.088)">
       <defs>
        <path id="DejaVuSans-37" d="M 525 4666 
L 3525 4666 
L 3525 4397 
L 1831 0 
L 1172 0 
L 2766 4134 
L 525 4134 
L 525 4666 
z
" transform="scale(0.015625)"/>
       </defs>
       <use xlink:href="#DejaVuSans-37"/>
       <use xlink:href="#DejaVuSans-30" transform="translate(63.623047 0)"/>
       <use xlink:href="#DejaVuSans-2e" transform="translate(127.246094 0)"/>
       <use xlink:href="#DejaVuSans-30" transform="translate(159.033203 0)"/>
      </g>
     </g>
    </g>
    <g id="xtick_9">
     <g id="line2d_17">
      <path d="M 416.831053 307.22 
L 416.831053 23.84 
" clip-path="url(#p621db8a46d)" style="fill: none; stroke: #ffffff; stroke-width: 0.8; stroke-linecap: square"/>
     </g>
     <g id="line2d_18">
      <g>
       <use xlink:href="#ma40ff1aeb1" x="416.831053" y="307.22" style="fill: #555555; stroke: #555555"/>
      </g>
     </g>
     <g id="text_9">
      <!-- 80.0 -->
      <g style="fill: #555555" transform="translate(407.034178 322.206625) scale(0.088 -0.088)">
       <defs>
        <path id="DejaVuSans-38" d="M 2034 2216 
Q 1584 2216 1326 1975 
Q 1069 1734 1069 1313 
Q 1069 891 1326 650 
Q 1584 409 2034 409 
Q 2484 409 2743 651 
Q 3003 894 3003 1313 
Q 3003 1734 2745 1975 
Q 2488 2216 2034 2216 
z
M 1403 2484 
Q 997 2584 770 2862 
Q 544 3141 544 3541 
Q 544 4100 942 4425 
Q 1341 4750 2034 4750 
Q 2731 4750 3128 4425 
Q 3525 4100 3525 3541 
Q 3525 3141 3298 2862 
Q 3072 2584 2669 2484 
Q 3125 2378 3379 2068 
Q 3634 1759 3634 1313 
Q 3634 634 3220 271 
Q 2806 -91 2034 -91 
Q 1263 -91 848 271 
Q 434 634 434 1313 
Q 434 1759 690 2068 
Q 947 2378 1403 2484 
z
M 1172 3481 
Q 1172 3119 1398 2916 
Q 1625 2713 2034 2713 
Q 2441 2713 2670 2916 
Q 2900 3119 2900 3481 
Q 2900 3844 2670 4047 
Q 2441 4250 2034 4250 
Q 1625 4250 1398 4047 
Q 1172 3844 1172 3481 
z
" transform="scale(0.015625)"/>
       </defs>
       <use xlink:href="#DejaVuSans-38"/>
       <use xlink:href="#DejaVuSans-30" transform="translate(63.623047 0)"/>
       <use xlink:href="#DejaVuSans-2e" transform="translate(127.246094 0)"/>
       <use xlink:href="#DejaVuSans-30" transform="translate(159.033203 0)"/>
      </g>
     </g>
    </g>
    <g id="text_10">
     <!-- Distance (km) -->
     <g style="fill: #555555" transform="translate(191.087305 337.154875) scale(0.12 -0.12)">
      <defs>
       <path id="DejaVuSans-44" d="M 1259 4147 
L 1259 519 
L 2022 519 
Q 2988 519 3436 956 
Q 3884 1394 3884 2338 
Q 3884 3275 3436 3711 
Q 2988 4147 2022 4147 
L 1259 4147 
z
M 628 4666 
L 1925 4666 
Q 3281 4666 3915 4102 
Q 4550 3538 4550 2338 
Q 4550 1131 3912 565 
Q 3275 0 1925 0 
L 628 0 
L 628 4666 
z
" transform="scale(0.015625)"/>
       <path id="DejaVuSans-69" d="M 603 3500 
L 1178 3500 
L 1178 0 
L 603 0 
L 603 3500 
z
M 603 4863 
L 1178 4863 
L 1178 4134 
L 603 4134 
L 603 4863 
z
" transform="scale(0.015625)"/>
       <path id="DejaVuSans-73" d="M 2834 3397 
L 2834 2853 
Q 2591 2978 2328 3040 
Q 2066 3103 1784 3103 
Q 1356 3103 1142 2972 
Q 928 2841 928 2578 
Q 928 2378 1081 2264 
Q 1234 2150 1697 2047 
L 1894 2003 
Q 2506 1872 2764 1633 
Q 3022 1394 3022 966 
Q 3022 478 2636 193 
Q 2250 -91 1575 -91 
Q 1294 -91 989 -36 
Q 684 19 347 128 
L 347 722 
Q 666 556 975 473 
Q 1284 391 1588 391 
Q 1994 391 2212 530 
Q 2431 669 2431 922 
Q 2431 1156 2273 1281 
Q 2116 1406 1581 1522 
L 1381 1569 
Q 847 1681 609 1914 
Q 372 2147 372 2553 
Q 372 3047 722 3315 
Q 1072 3584 1716 3584 
Q 2034 3584 2315 3537 
Q 2597 3491 2834 3397 
z
" transform="scale(0.015625)"/>
       <path id="DejaVuSans-74" d="M 1172 4494 
L 1172 3500 
L 2356 3500 
L 2356 3053 
L 1172 3053 
L 1172 1153 
Q 1172 725 1289 603 
Q 1406 481 1766 481 
L 2356 481 
L 2356 0 
L 1766 0 
Q 1100 0 847 248 
Q 594 497 594 1153 
L 594 3053 
L 172 3053 
L 172 3500 
L 594 3500 
L 594 4494 
L 1172 4494 
z
" transform="scale(0.015625)"/>
       <path id="DejaVuSans-61" d="M 2194 1759 
Q 1497 1759 1228 1600 
Q 959 1441 959 1056 
Q 959 750 1161 570 
Q 1363 391 1709 391 
Q 2188 391 2477 730 
Q 2766 1069 2766 1631 
L 2766 1759 
L 2194 1759 
z
M 3341 1997 
L 3341 0 
L 2766 0 
L 2766 531 
Q 2569 213 2275 61 
Q 1981 -91 1556 -91 
Q 1019 -91 701 211 
Q 384 513 384 1019 
Q 384 1609 779 1909 
Q 1175 2209 1959 2209 
L 2766 2209 
L 2766 2266 
Q 2766 2663 2505 2880 
Q 2244 3097 1772 3097 
Q 1472 3097 1187 3025 
Q 903 2953 641 2809 
L 641 3341 
Q 956 3463 1253 3523 
Q 1550 3584 1831 3584 
Q 2591 3584 2966 3190 
Q 3341 2797 3341 1997 
z
" transform="scale(0.015625)"/>
       <path id="DejaVuSans-6e" d="M 3513 2113 
L 3513 0 
L 2938 0 
L 2938 2094 
Q 2938 2591 2744 2837 
Q 2550 3084 2163 3084 
Q 1697 3084 1428 2787 
Q 1159 2491 1159 1978 
L 1159 0 
L 581 0 
L 581 3500 
L 1159 3500 
L 1159 2956 
Q 1366 3272 1645 3428 
Q 1925 3584 2291 3584 
Q 2894 3584 3203 3211 
Q 3513 2838 3513 2113 
z
" transform="scale(0.015625)"/>
       <path id="DejaVuSans-63" d="M 3122 3366 
L 3122 2828 
Q 2878 2963 2633 3030 
Q 2388 3097 2138 3097 
Q 1578 3097 1268 2742 
Q 959 2388 959 1747 
Q 959 1106 1268 751 
Q 1578 397 2138 397 
Q 2388 397 2633 464 
Q 2878 531 3122 666 
L 3122 134 
Q 2881 22 2623 -34 
Q 2366 -91 2075 -91 
Q 1284 -91 818 406 
Q 353 903 353 1747 
Q 353 2603 823 3093 
Q 1294 3584 2113 3584 
Q 2378 3584 2631 3529 
Q 2884 3475 3122 3366 
z
" transform="scale(0.015625)"/>
       <path id="DejaVuSans-65" d="M 3597 1894 
L 3597 1613 
L 953 1613 
Q 991 1019 1311 708 
Q 1631 397 2203 397 
Q 2534 397 2845 478 
Q 3156 559 3463 722 
L 3463 178 
Q 3153 47 2828 -22 
Q 2503 -91 2169 -91 
Q 1331 -91 842 396 
Q 353 884 353 1716 
Q 353 2575 817 3079 
Q 1281 3584 2069 3584 
Q 2775 3584 3186 3129 
Q 3597 2675 3597 1894 
z
M 3022 2063 
Q 3016 2534 2758 2815 
Q 2500 3097 2075 3097 
Q 1594 3097 1305 2825 
Q 1016 2553 972 2059 
L 3022 2063 
z
" transform="scale(0.015625)"/>
       <path id="DejaVuSans-20" transform="scale(0.015625)"/>
       <path id="DejaVuSans-28" d="M 1984 4856 
Q 1566 4138 1362 3434 
Q 1159 2731 1159 2009 
Q 1159 1288 1364 580 
Q 1569 -128 1984 -844 
L 1484 -844 
Q 1016 -109 783 600 
Q 550 1309 550 2009 
Q 550 2706 781 3412 
Q 1013 4119 1484 4856 
L 1984 4856 
z
" transform="scale(0.015625)"/>
       <path id="DejaVuSans-6b" d="M 581 4863 
L 1159 4863 
L 1159 1991 
L 2875 3500 
L 3609 3500 
L 1753 1863 
L 3688 0 
L 2938 0 
L 1159 1709 
L 1159 0 
L 581 0 
L 581 4863 
z
" transform="scale(0.015625)"/>
       <path id="DejaVuSans-6d" d="M 3328 2828 
Q 3544 3216 3844 3400 
Q 4144 3584 4550 3584 
Q 5097 3584 5394 3201 
Q 5691 2819 5691 2113 
L 5691 0 
L 5113 0 
L 5113 2094 
Q 5113 2597 4934 2840 
Q 4756 3084 4391 3084 
Q 3944 3084 3684 2787 
Q 3425 2491 3425 1978 
L 3425 0 
L 2847 0 
L 2847 2094 
Q 2847 2600 2669 2842 
Q 2491 3084 2119 3084 
Q 1678 3084 1418 2786 
Q 1159 2488 1159 1978 
L 1159 0 
L 581 0 
L 581 3500 
L 1159 3500 
L 1159 2956 
Q 1356 3278 1631 3431 
Q 1906 3584 2284 3584 
Q 2666 3584 2933 3390 
Q 3200 3197 3328 2828 
z
" transform="scale(0.015625)"/>
       <path id="DejaVuSans-29" d="M 513 4856 
L 1013 4856 
Q 1481 4119 1714 3412 
Q 1947 2706 1947 2009 
Q 1947 1309 1714 600 
Q 1481 -109 1013 -844 
L 513 -844 
Q 928 -128 1133 580 
Q 1338 1288 1338 2009 
Q 1338 2731 1133 3434 
Q 928 4138 513 4856 
z
" transform="scale(0.015625)"/>
      </defs>
      <use xlink:href="#DejaVuSans-44"/>
      <use xlink:href="#DejaVuSans-69" transform="translate(77.001953 0)"/>
      <use xlink:href="#DejaVuSans-73" transform="translate(104.785156 0)"/>
      <use xlink:href="#DejaVuSans-74" transform="translate(156.884766 0)"/>
      <use xlink:href="#DejaVuSans-61" transform="translate(196.09375 0)"/>
      <use xlink:href="#DejaVuSans-6e" transform="translate(257.373047 0)"/>
      <use xlink:href="#DejaVuSans-63" transform="translate(320.751953 0)"/>
      <use xlink:href="#DejaVuSans-65" transform="translate(375.732422 0)"/>
      <use xlink:href="#DejaVuSans-20" transform="translate(437.255859 0)"/>
      <use xlink:href="#DejaVuSans-28" transform="translate(469.042969 0)"/>
      <use xlink:href="#DejaVuSans-6b" transform="translate(508.056641 0)"/>
      <use xlink:href="#DejaVuSans-6d" transform="translate(565.966797 0)"/>
      <use xlink:href="#DejaVuSans-29" transform="translate(663.378906 0)"/>
     </g>
    </g>
   </g>
   <g id="matplotlib.axis_2">
    <g id="ytick_1">
     <g id="line2d_19">
      <path d="M 44.086875 258.573196 
L 422.372734 258.573196 
" clip-path="url(#p621db8a46d)" style="fill: none; stroke: #ffffff; stroke-width: 0.8; stroke-linecap: square"/>
     </g>
     <g id="line2d_20">
      <defs>
       <path id="m4156fae732" d="M 0 0 
L -4.8 0 
" style="stroke: #555555"/>
      </defs>
      <g>
       <use xlink:href="#m4156fae732" x="44.086875" y="258.573196" style="fill: #555555; stroke: #555555"/>
      </g>
     </g>
     <g id="text_11">
      <!-- −4 -->
      <g style="fill: #555555" transform="translate(22.81375 261.916508) scale(0.088 -0.088)">
       <defs>
        <path id="DejaVuSans-2212" d="M 678 2272 
L 4684 2272 
L 4684 1741 
L 678 1741 
L 678 2272 
z
" transform="scale(0.015625)"/>
       </defs>
       <use xlink:href="#DejaVuSans-2212"/>
       <use xlink:href="#DejaVuSans-34" transform="translate(83.789062 0)"/>
      </g>
     </g>
    </g>
    <g id="ytick_2">
     <g id="line2d_21">
      <path d="M 44.086875 205.858704 
L 422.372734 205.858704 
" clip-path="url(#p621db8a46d)" style="fill: none; stroke: #ffffff; stroke-width: 0.8; stroke-linecap: square"/>
     </g>
     <g id="line2d_22">
      <g>
       <use xlink:href="#m4156fae732" x="44.086875" y="205.858704" style="fill: #555555; stroke: #555555"/>
      </g>
     </g>
     <g id="text_12">
      <!-- −2 -->
      <g style="fill: #555555" transform="translate(22.81375 209.202016) scale(0.088 -0.088)">
       <use xlink:href="#DejaVuSans-2212"/>
       <use xlink:href="#DejaVuSans-32" transform="translate(83.789062 0)"/>
      </g>
     </g>
    </g>
    <g id="ytick_3">
     <g id="line2d_23">
      <path d="M 44.086875 153.144212 
L 422.372734 153.144212 
" clip-path="url(#p621db8a46d)" style="fill: none; stroke: #ffffff; stroke-width: 0.8; stroke-linecap: square"/>
     </g>
     <g id="line2d_24">
      <g>
       <use xlink:href="#m4156fae732" x="44.086875" y="153.144212" style="fill: #555555; stroke: #555555"/>
      </g>
     </g>
     <g id="text_13">
      <!-- 0 -->
      <g style="fill: #555555" transform="translate(30.187875 156.487524) scale(0.088 -0.088)">
       <use xlink:href="#DejaVuSans-30"/>
      </g>
     </g>
    </g>
    <g id="ytick_4">
     <g id="line2d_25">
      <path d="M 44.086875 100.42972 
L 422.372734 100.42972 
" clip-path="url(#p621db8a46d)" style="fill: none; stroke: #ffffff; stroke-width: 0.8; stroke-linecap: square"/>
     </g>
     <g id="line2d_26">
      <g>
       <use xlink:href="#m4156fae732" x="44.086875" y="100.42972" style="fill: #555555; stroke: #555555"/>
      </g>
     </g>
     <g id="text_14">
      <!-- 2 -->
      <g style="fill: #555555" transform="translate(30.187875 103.773032) scale(0.088 -0.088)">
       <use xlink:href="#DejaVuSans-32"/>
      </g>
     </g>
    </g>
    <g id="ytick_5">
     <g id="line2d_27">
      <path d="M 44.086875 47.715228 
L 422.372734 47.715228 
" clip-path="url(#p621db8a46d)" style="fill: none; stroke: #ffffff; stroke-width: 0.8; stroke-linecap: square"/>
     </g>
     <g id="line2d_28">
      <g>
       <use xlink:href="#m4156fae732" x="44.086875" y="47.715228" style="fill: #555555; stroke: #555555"/>
      </g>
     </g>
     <g id="text_15">
      <!-- 4 -->
      <g style="fill: #555555" transform="translate(30.187875 51.05854) scale(0.088 -0.088)">
       <use xlink:href="#DejaVuSans-34"/>
      </g>
     </g>
    </g>
    <g id="text_16">
     <!-- Density -->
     <g style="fill: #555555" transform="translate(16.318125 188.340312) rotate(-90) scale(0.12 -0.12)">
      <defs>
       <path id="DejaVuSans-79" d="M 2059 -325 
Q 1816 -950 1584 -1140 
Q 1353 -1331 966 -1331 
L 506 -1331 
L 506 -850 
L 844 -850 
Q 1081 -850 1212 -737 
Q 1344 -625 1503 -206 
L 1606 56 
L 191 3500 
L 800 3500 
L 1894 763 
L 2988 3500 
L 3597 3500 
L 2059 -325 
z
" transform="scale(0.015625)"/>
      </defs>
      <use xlink:href="#DejaVuSans-44"/>
      <use xlink:href="#DejaVuSans-65" transform="translate(77.001953 0)"/>
      <use xlink:href="#DejaVuSans-6e" transform="translate(138.525391 0)"/>
      <use xlink:href="#DejaVuSans-73" transform="translate(201.904297 0)"/>
      <use xlink:href="#DejaVuSans-69" transform="translate(254.003906 0)"/>
      <use xlink:href="#DejaVuSans-74" transform="translate(281.787109 0)"/>
      <use xlink:href="#DejaVuSans-79" transform="translate(320.996094 0)"/>
     </g>
    </g>
    <g id="text_17">
     <!-- 1e−6 -->
     <g style="fill: #555555" transform="translate(44.086875 20.84) scale(0.088 -0.088)">
      <use xlink:href="#DejaVuSans-31"/>
      <use xlink:href="#DejaVuSans-65" transform="translate(63.623047 0)"/>
      <use xlink:href="#DejaVuSans-2212" transform="translate(125.146484 0)"/>
      <use xlink:href="#DejaVuSans-36" transform="translate(208.935547 0)"/>
     </g>
    </g>
   </g>
   <g id="FillBetweenPolyCollection_1">
    <defs>
     <path id="me4b5fa688e" d="M 61.281687 -239.946989 
L 61.281687 -220.175091 
L 68.299977 -226.049923 
L 75.318268 -185.977973 
L 82.336558 -132.536457 
L 89.354849 -82.096888 
L 96.373139 -52.511409 
L 103.39143 -73.888794 
L 110.40972 -80.58817 
L 117.428011 -60.301263 
L 124.446301 -69.248126 
L 131.464592 -76.761525 
L 138.482883 -62.757261 
L 145.501173 -55.895249 
L 152.519464 -63.701981 
L 159.537754 -112.28379 
L 166.556045 -178.977336 
L 173.574335 -221.084317 
L 180.592626 -220.529836 
L 187.610916 -209.829555 
L 194.629207 -206.154816 
L 201.647497 -191.89606 
L 208.665788 -177.983669 
L 215.684078 -178.29215 
L 222.702369 -176.420932 
L 229.720659 -176.866297 
L 236.73895 -177.509568 
L 243.75724 -177.031791 
L 250.775531 -169.789022 
L 257.793821 -165.66169 
L 264.812112 -170.009428 
L 271.830402 -178.710029 
L 278.848693 -183.065242 
L 285.866983 -187.383074 
L 292.885274 -187.076103 
L 299.903565 -181.545185 
L 306.921855 -174.956479 
L 313.940146 -169.831627 
L 320.958436 -168.025749 
L 327.976727 -167.294269 
L 334.995017 -169.094776 
L 342.013308 -172.663719 
L 349.031598 -176.858311 
L 356.049889 -180.18154 
L 363.068179 -182.645859 
L 370.08647 -184.587441 
L 377.10476 -186.006222 
L 384.123051 -187.549153 
L 391.141341 -188.815542 
L 398.159632 -189.6613 
L 405.177922 -190.395858 
L 405.177922 -193.549125 
L 405.177922 -193.549125 
L 398.159632 -193.450669 
L 391.141341 -193.318125 
L 384.123051 -193.055214 
L 377.10476 -192.537552 
L 370.08647 -192.082642 
L 363.068179 -191.417252 
L 356.049889 -190.348919 
L 349.031598 -189.088576 
L 342.013308 -187.841168 
L 334.995017 -186.239613 
L 327.976727 -186.071277 
L 320.958436 -189.984826 
L 313.940146 -197.010378 
L 306.921855 -209.671566 
L 299.903565 -224.103851 
L 292.885274 -232.951063 
L 285.866983 -237.434191 
L 278.848693 -239.445746 
L 271.830402 -239.400036 
L 264.812112 -235.19205 
L 257.793821 -231.936559 
L 250.775531 -240.045183 
L 243.75724 -253.746229 
L 236.73895 -259.270462 
L 229.720659 -263.95135 
L 222.702369 -267.417219 
L 215.684078 -269.140694 
L 208.665788 -269.280646 
L 201.647497 -286.093761 
L 194.629207 -302.937569 
L 187.610916 -302.722049 
L 180.592626 -303.23951 
L 173.574335 -301.824035 
L 166.556045 -257.298953 
L 159.537754 -189.306077 
L 152.519464 -150.56696 
L 145.501173 -153.809188 
L 138.482883 -174.140581 
L 131.464592 -197.841922 
L 124.446301 -204.391212 
L 117.428011 -213.406444 
L 110.40972 -247.694474 
L 103.39143 -240.58048 
L 96.373139 -215.520048 
L 89.354849 -232.73988 
L 82.336558 -258.943064 
L 75.318268 -276.94814 
L 68.299977 -280.152841 
L 61.281687 -239.946989 
z
" style="stroke: #0000ff; stroke-opacity: 0.2; stroke-width: 0.8"/>
    </defs>
    <g clip-path="url(#p621db8a46d)">
     <use xlink:href="#me4b5fa688e" x="0" y="346.8505" style="fill: #0000ff; fill-opacity: 0.2; stroke: #0000ff; stroke-opacity: 0.2; stroke-width: 0.8"/>
    </g>
   </g>
   <g id="line2d_29">
    <path d="M 61.281687 117.795535 
L 68.299977 94.322318 
L 75.318268 116.075142 
L 82.336558 148.699787 
L 89.354849 183.715985 
L 96.373139 209.186244 
L 103.39143 192.519136 
L 110.40972 185.830073 
L 117.428011 208.450198 
L 124.446301 210.657796 
L 131.464592 214.770465 
L 138.482883 231.671135 
L 145.501173 245.494658 
L 152.519464 238.213855 
L 159.537754 194.732185 
L 166.556045 128.261969 
L 173.574335 87.87481 
L 180.592626 89.883056 
L 187.610916 94.524677 
L 194.629207 96.865643 
L 201.647497 109.887337 
L 208.665788 123.468891 
L 215.684078 122.35747 
L 222.702369 122.632186 
L 229.720659 124.32021 
L 236.73895 125.219807 
L 243.75724 129.36923 
L 250.775531 139.523102 
L 257.793821 145.901013 
L 264.812112 142.472399 
L 271.830402 136.639231 
L 278.848693 133.971836 
L 285.866983 133.181012 
L 292.885274 135.1281 
L 299.903565 143.155866 
L 306.921855 153.51888 
L 313.940146 162.382289 
L 320.958436 167.087482 
L 327.976727 168.712954 
L 334.995017 167.722902 
L 342.013308 165.20559 
L 349.031598 162.727381 
L 356.049889 160.678299 
L 363.068179 159.069512 
L 370.08647 157.784605 
L 377.10476 156.73266 
L 384.123051 155.901543 
L 391.141341 155.277542 
L 398.159632 154.786194 
L 405.177922 154.386037 
" clip-path="url(#p621db8a46d)" style="fill: none; stroke: #0000ff; stroke-width: 1.2; stroke-linecap: square"/>
   </g>
   <g id="line2d_30">
    <path d="M 44.086875 153.144212 
L 422.372734 153.144212 
" clip-path="url(#p621db8a46d)" style="fill: none; stroke-dasharray: 5.55,2.4; stroke-dashoffset: 0; stroke: #ff0000; stroke-width: 1.5"/>
   </g>
   <g id="patch_3">
    <path d="M 44.086875 307.22 
L 44.086875 23.84 
" style="fill: none; stroke: #ffffff; stroke-linejoin: miter; stroke-linecap: square"/>
   </g>
   <g id="patch_4">
    <path d="M 422.372734 307.22 
L 422.372734 23.84 
" style="fill: none; stroke: #ffffff; stroke-linejoin: miter; stroke-linecap: square"/>
   </g>
   <g id="patch_5">
    <path d="M 44.086875 307.22 
L 422.372734 307.22 
" style="fill: none; stroke: #ffffff; stroke-linejoin: miter; stroke-linecap: square"/>
   </g>
   <g id="patch_6">
    <path d="M 44.086875 23.84 
L 422.372734 23.84 
" style="fill: none; stroke: #ffffff; stroke-linejoin: miter; stroke-linecap: square"/>
   </g>
   <g id="text_18">
    <!-- $\Delta$PDD Angkor -->
    <g transform="translate(186.329805 17.84) scale(0.14 -0.14)">
     <defs>
      <path id="DejaVuSans-394" d="M 2188 4044 
L 906 525 
L 3472 525 
L 2188 4044 
z
M 50 0 
L 1831 4666 
L 2547 4666 
L 4325 0 
L 50 0 
z
" transform="scale(0.015625)"/>
      <path id="DejaVuSans-50" d="M 1259 4147 
L 1259 2394 
L 2053 2394 
Q 2494 2394 2734 2622 
Q 2975 2850 2975 3272 
Q 2975 3691 2734 3919 
Q 2494 4147 2053 4147 
L 1259 4147 
z
M 628 4666 
L 2053 4666 
Q 2838 4666 3239 4311 
Q 3641 3956 3641 3272 
Q 3641 2581 3239 2228 
Q 2838 1875 2053 1875 
L 1259 1875 
L 1259 0 
L 628 0 
L 628 4666 
z
" transform="scale(0.015625)"/>
      <path id="DejaVuSans-41" d="M 2188 4044 
L 1331 1722 
L 3047 1722 
L 2188 4044 
z
M 1831 4666 
L 2547 4666 
L 4325 0 
L 3669 0 
L 3244 1197 
L 1141 1197 
L 716 0 
L 50 0 
L 1831 4666 
z
" transform="scale(0.015625)"/>
      <path id="DejaVuSans-67" d="M 2906 1791 
Q 2906 2416 2648 2759 
Q 2391 3103 1925 3103 
Q 1463 3103 1205 2759 
Q 947 2416 947 1791 
Q 947 1169 1205 825 
Q 1463 481 1925 481 
Q 2391 481 2648 825 
Q 2906 1169 2906 1791 
z
M 3481 434 
Q 3481 -459 3084 -895 
Q 2688 -1331 1869 -1331 
Q 1566 -1331 1297 -1286 
Q 1028 -1241 775 -1147 
L 775 -588 
Q 1028 -725 1275 -790 
Q 1522 -856 1778 -856 
Q 2344 -856 2625 -561 
Q 2906 -266 2906 331 
L 2906 616 
Q 2728 306 2450 153 
Q 2172 0 1784 0 
Q 1141 0 747 490 
Q 353 981 353 1791 
Q 353 2603 747 3093 
Q 1141 3584 1784 3584 
Q 2172 3584 2450 3431 
Q 2728 3278 2906 2969 
L 2906 3500 
L 3481 3500 
L 3481 434 
z
" transform="scale(0.015625)"/>
      <path id="DejaVuSans-6f" d="M 1959 3097 
Q 1497 3097 1228 2736 
Q 959 2375 959 1747 
Q 959 1119 1226 758 
Q 1494 397 1959 397 
Q 2419 397 2687 759 
Q 2956 1122 2956 1747 
Q 2956 2369 2687 2733 
Q 2419 3097 1959 3097 
z
M 1959 3584 
Q 2709 3584 3137 3096 
Q 3566 2609 3566 1747 
Q 3566 888 3137 398 
Q 2709 -91 1959 -91 
Q 1206 -91 779 398 
Q 353 888 353 1747 
Q 353 2609 779 3096 
Q 1206 3584 1959 3584 
z
" transform="scale(0.015625)"/>
      <path id="DejaVuSans-72" d="M 2631 2963 
Q 2534 3019 2420 3045 
Q 2306 3072 2169 3072 
Q 1681 3072 1420 2755 
Q 1159 2438 1159 1844 
L 1159 0 
L 581 0 
L 581 3500 
L 1159 3500 
L 1159 2956 
Q 1341 3275 1631 3429 
Q 1922 3584 2338 3584 
Q 2397 3584 2469 3576 
Q 2541 3569 2628 3553 
L 2631 2963 
z
" transform="scale(0.015625)"/>
     </defs>
     <use xlink:href="#DejaVuSans-394" transform="translate(0 0.015625)"/>
     <use xlink:href="#DejaVuSans-50" transform="translate(68.408203 0.015625)"/>
     <use xlink:href="#DejaVuSans-44" transform="translate(128.710938 0.015625)"/>
     <use xlink:href="#DejaVuSans-44" transform="translate(205.712891 0.015625)"/>
     <use xlink:href="#DejaVuSans-20" transform="translate(282.714844 0.015625)"/>
     <use xlink:href="#DejaVuSans-41" transform="translate(314.501953 0.015625)"/>
     <use xlink:href="#DejaVuSans-6e" transform="translate(382.910156 0.015625)"/>
     <use xlink:href="#DejaVuSans-67" transform="translate(446.289062 0.015625)"/>
     <use xlink:href="#DejaVuSans-6b" transform="translate(509.765625 0.015625)"/>
     <use xlink:href="#DejaVuSans-6f" transform="translate(567.675781 0.015625)"/>
     <use xlink:href="#DejaVuSans-72" transform="translate(628.857422 0.015625)"/>
    </g>
   </g>
   <g id="legend_1">
    <g id="line2d_31">
     <path d="M 318.372734 36.94 
L 328.372734 36.94 
L 338.372734 36.94 
" style="fill: none; stroke: #0000ff; stroke-width: 1.2; stroke-linecap: square"/>
    </g>
    <g id="text_19">
     <!-- $\Delta$PDD Angkor -->
     <g transform="translate(346.372734 40.44) scale(0.1 -0.1)">
      <use xlink:href="#DejaVuSans-394" transform="translate(0 0.015625)"/>
      <use xlink:href="#DejaVuSans-50" transform="translate(68.408203 0.015625)"/>
      <use xlink:href="#DejaVuSans-44" transform="translate(128.710938 0.015625)"/>
      <use xlink:href="#DejaVuSans-44" transform="translate(205.712891 0.015625)"/>
      <use xlink:href="#DejaVuSans-20" transform="translate(282.714844 0.015625)"/>
      <use xlink:href="#DejaVuSans-41" transform="translate(314.501953 0.015625)"/>
      <use xlink:href="#DejaVuSans-6e" transform="translate(382.910156 0.015625)"/>
      <use xlink:href="#DejaVuSans-67" transform="translate(446.289062 0.015625)"/>
      <use xlink:href="#DejaVuSans-6b" transform="translate(509.765625 0.015625)"/>
      <use xlink:href="#DejaVuSans-6f" transform="translate(567.675781 0.015625)"/>
      <use xlink:href="#DejaVuSans-72" transform="translate(628.857422 0.015625)"/>
     </g>
    </g>
   </g>
  </g>
  <g id="axes_2">
   <g id="patch_7">
    <path d="M 460.238973 307.22 
L 838.524832 307.22 
L 838.524832 23.84 
L 460.238973 23.84 
z
" style="fill: #e5e5e5"/>
   </g>
   <g id="matplotlib.axis_3">
    <g id="xtick_10">
     <g id="line2d_32">
      <path d="M 477.433785 307.22 
L 477.433785 23.84 
" clip-path="url(#p2b7b4b2310)" style="fill: none; stroke: #ffffff; stroke-width: 0.8; stroke-linecap: square"/>
     </g>
     <g id="line2d_33">
      <g>
       <use xlink:href="#ma40ff1aeb1" x="477.433785" y="307.22" style="fill: #555555; stroke: #555555"/>
      </g>
     </g>
     <g id="text_20">
      <!-- 0.0 -->
      <g style="fill: #555555" transform="translate(470.43641 322.206625) scale(0.088 -0.088)">
       <use xlink:href="#DejaVuSans-30"/>
       <use xlink:href="#DejaVuSans-2e" transform="translate(63.623047 0)"/>
       <use xlink:href="#DejaVuSans-30" transform="translate(95.410156 0)"/>
      </g>
     </g>
    </g>
    <g id="xtick_11">
     <g id="line2d_34">
      <path d="M 536.585499 307.22 
L 536.585499 23.84 
" clip-path="url(#p2b7b4b2310)" style="fill: none; stroke: #ffffff; stroke-width: 0.8; stroke-linecap: square"/>
     </g>
     <g id="line2d_35">
      <g>
       <use xlink:href="#ma40ff1aeb1" x="536.585499" y="307.22" style="fill: #555555; stroke: #555555"/>
      </g>
     </g>
     <g id="text_21">
      <!-- 20.0 -->
      <g style="fill: #555555" transform="translate(526.788624 322.206625) scale(0.088 -0.088)">
       <use xlink:href="#DejaVuSans-32"/>
       <use xlink:href="#DejaVuSans-30" transform="translate(63.623047 0)"/>
       <use xlink:href="#DejaVuSans-2e" transform="translate(127.246094 0)"/>
       <use xlink:href="#DejaVuSans-30" transform="translate(159.033203 0)"/>
      </g>
     </g>
    </g>
    <g id="xtick_12">
     <g id="line2d_36">
      <path d="M 595.737213 307.22 
L 595.737213 23.84 
" clip-path="url(#p2b7b4b2310)" style="fill: none; stroke: #ffffff; stroke-width: 0.8; stroke-linecap: square"/>
     </g>
     <g id="line2d_37">
      <g>
       <use xlink:href="#ma40ff1aeb1" x="595.737213" y="307.22" style="fill: #555555; stroke: #555555"/>
      </g>
     </g>
     <g id="text_22">
      <!-- 40.0 -->
      <g style="fill: #555555" transform="translate(585.940338 322.206625) scale(0.088 -0.088)">
       <use xlink:href="#DejaVuSans-34"/>
       <use xlink:href="#DejaVuSans-30" transform="translate(63.623047 0)"/>
       <use xlink:href="#DejaVuSans-2e" transform="translate(127.246094 0)"/>
       <use xlink:href="#DejaVuSans-30" transform="translate(159.033203 0)"/>
      </g>
     </g>
    </g>
    <g id="xtick_13">
     <g id="line2d_38">
      <path d="M 654.888927 307.22 
L 654.888927 23.84 
" clip-path="url(#p2b7b4b2310)" style="fill: none; stroke: #ffffff; stroke-width: 0.8; stroke-linecap: square"/>
     </g>
     <g id="line2d_39">
      <g>
       <use xlink:href="#ma40ff1aeb1" x="654.888927" y="307.22" style="fill: #555555; stroke: #555555"/>
      </g>
     </g>
     <g id="text_23">
      <!-- 60.0 -->
      <g style="fill: #555555" transform="translate(645.092052 322.206625) scale(0.088 -0.088)">
       <use xlink:href="#DejaVuSans-36"/>
       <use xlink:href="#DejaVuSans-30" transform="translate(63.623047 0)"/>
       <use xlink:href="#DejaVuSans-2e" transform="translate(127.246094 0)"/>
       <use xlink:href="#DejaVuSans-30" transform="translate(159.033203 0)"/>
      </g>
     </g>
    </g>
    <g id="xtick_14">
     <g id="line2d_40">
      <path d="M 714.040641 307.22 
L 714.040641 23.84 
" clip-path="url(#p2b7b4b2310)" style="fill: none; stroke: #ffffff; stroke-width: 0.8; stroke-linecap: square"/>
     </g>
     <g id="line2d_41">
      <g>
       <use xlink:href="#ma40ff1aeb1" x="714.040641" y="307.22" style="fill: #555555; stroke: #555555"/>
      </g>
     </g>
     <g id="text_24">
      <!-- 80.0 -->
      <g style="fill: #555555" transform="translate(704.243766 322.206625) scale(0.088 -0.088)">
       <use xlink:href="#DejaVuSans-38"/>
       <use xlink:href="#DejaVuSans-30" transform="translate(63.623047 0)"/>
       <use xlink:href="#DejaVuSans-2e" transform="translate(127.246094 0)"/>
       <use xlink:href="#DejaVuSans-30" transform="translate(159.033203 0)"/>
      </g>
     </g>
    </g>
    <g id="xtick_15">
     <g id="line2d_42">
      <path d="M 773.192355 307.22 
L 773.192355 23.84 
" clip-path="url(#p2b7b4b2310)" style="fill: none; stroke: #ffffff; stroke-width: 0.8; stroke-linecap: square"/>
     </g>
     <g id="line2d_43">
      <g>
       <use xlink:href="#ma40ff1aeb1" x="773.192355" y="307.22" style="fill: #555555; stroke: #555555"/>
      </g>
     </g>
     <g id="text_25">
      <!-- 100.0 -->
      <g style="fill: #555555" transform="translate(760.59598 322.206625) scale(0.088 -0.088)">
       <use xlink:href="#DejaVuSans-31"/>
       <use xlink:href="#DejaVuSans-30" transform="translate(63.623047 0)"/>
       <use xlink:href="#DejaVuSans-30" transform="translate(127.246094 0)"/>
       <use xlink:href="#DejaVuSans-2e" transform="translate(190.869141 0)"/>
       <use xlink:href="#DejaVuSans-30" transform="translate(222.65625 0)"/>
      </g>
     </g>
    </g>
    <g id="xtick_16">
     <g id="line2d_44">
      <path d="M 832.34407 307.22 
L 832.34407 23.84 
" clip-path="url(#p2b7b4b2310)" style="fill: none; stroke: #ffffff; stroke-width: 0.8; stroke-linecap: square"/>
     </g>
     <g id="line2d_45">
      <g>
       <use xlink:href="#ma40ff1aeb1" x="832.34407" y="307.22" style="fill: #555555; stroke: #555555"/>
      </g>
     </g>
     <g id="text_26">
      <!-- 120.0 -->
      <g style="fill: #555555" transform="translate(819.747695 322.206625) scale(0.088 -0.088)">
       <use xlink:href="#DejaVuSans-31"/>
       <use xlink:href="#DejaVuSans-32" transform="translate(63.623047 0)"/>
       <use xlink:href="#DejaVuSans-30" transform="translate(127.246094 0)"/>
       <use xlink:href="#DejaVuSans-2e" transform="translate(190.869141 0)"/>
       <use xlink:href="#DejaVuSans-30" transform="translate(222.65625 0)"/>
      </g>
     </g>
    </g>
    <g id="text_27">
     <!-- Distance (km) -->
     <g style="fill: #555555" transform="translate(607.239403 337.154875) scale(0.12 -0.12)">
      <use xlink:href="#DejaVuSans-44"/>
      <use xlink:href="#DejaVuSans-69" transform="translate(77.001953 0)"/>
      <use xlink:href="#DejaVuSans-73" transform="translate(104.785156 0)"/>
      <use xlink:href="#DejaVuSans-74" transform="translate(156.884766 0)"/>
      <use xlink:href="#DejaVuSans-61" transform="translate(196.09375 0)"/>
      <use xlink:href="#DejaVuSans-6e" transform="translate(257.373047 0)"/>
      <use xlink:href="#DejaVuSans-63" transform="translate(320.751953 0)"/>
      <use xlink:href="#DejaVuSans-65" transform="translate(375.732422 0)"/>
      <use xlink:href="#DejaVuSans-20" transform="translate(437.255859 0)"/>
      <use xlink:href="#DejaVuSans-28" transform="translate(469.042969 0)"/>
      <use xlink:href="#DejaVuSans-6b" transform="translate(508.056641 0)"/>
      <use xlink:href="#DejaVuSans-6d" transform="translate(565.966797 0)"/>
      <use xlink:href="#DejaVuSans-29" transform="translate(663.378906 0)"/>
     </g>
    </g>
   </g>
   <g id="matplotlib.axis_4">
    <g id="ytick_6">
     <g id="line2d_46">
      <path d="M 460.238973 258.573196 
L 838.524832 258.573196 
" clip-path="url(#p2b7b4b2310)" style="fill: none; stroke: #ffffff; stroke-width: 0.8; stroke-linecap: square"/>
     </g>
     <g id="line2d_47">
      <g>
       <use xlink:href="#m4156fae732" x="460.238973" y="258.573196" style="fill: #555555; stroke: #555555"/>
      </g>
     </g>
    </g>
    <g id="ytick_7">
     <g id="line2d_48">
      <path d="M 460.238973 205.858704 
L 838.524832 205.858704 
" clip-path="url(#p2b7b4b2310)" style="fill: none; stroke: #ffffff; stroke-width: 0.8; stroke-linecap: square"/>
     </g>
     <g id="line2d_49">
      <g>
       <use xlink:href="#m4156fae732" x="460.238973" y="205.858704" style="fill: #555555; stroke: #555555"/>
      </g>
     </g>
    </g>
    <g id="ytick_8">
     <g id="line2d_50">
      <path d="M 460.238973 153.144212 
L 838.524832 153.144212 
" clip-path="url(#p2b7b4b2310)" style="fill: none; stroke: #ffffff; stroke-width: 0.8; stroke-linecap: square"/>
     </g>
     <g id="line2d_51">
      <g>
       <use xlink:href="#m4156fae732" x="460.238973" y="153.144212" style="fill: #555555; stroke: #555555"/>
      </g>
     </g>
    </g>
    <g id="ytick_9">
     <g id="line2d_52">
      <path d="M 460.238973 100.42972 
L 838.524832 100.42972 
" clip-path="url(#p2b7b4b2310)" style="fill: none; stroke: #ffffff; stroke-width: 0.8; stroke-linecap: square"/>
     </g>
     <g id="line2d_53">
      <g>
       <use xlink:href="#m4156fae732" x="460.238973" y="100.42972" style="fill: #555555; stroke: #555555"/>
      </g>
     </g>
    </g>
    <g id="ytick_10">
     <g id="line2d_54">
      <path d="M 460.238973 47.715228 
L 838.524832 47.715228 
" clip-path="url(#p2b7b4b2310)" style="fill: none; stroke: #ffffff; stroke-width: 0.8; stroke-linecap: square"/>
     </g>
     <g id="line2d_55">
      <g>
       <use xlink:href="#m4156fae732" x="460.238973" y="47.715228" style="fill: #555555; stroke: #555555"/>
      </g>
     </g>
    </g>
    <g id="text_28">
     <!-- Density -->
     <g style="fill: #555555" transform="translate(448.943348 188.340312) rotate(-90) scale(0.12 -0.12)">
      <use xlink:href="#DejaVuSans-44"/>
      <use xlink:href="#DejaVuSans-65" transform="translate(77.001953 0)"/>
      <use xlink:href="#DejaVuSans-6e" transform="translate(138.525391 0)"/>
      <use xlink:href="#DejaVuSans-73" transform="translate(201.904297 0)"/>
      <use xlink:href="#DejaVuSans-69" transform="translate(254.003906 0)"/>
      <use xlink:href="#DejaVuSans-74" transform="translate(281.787109 0)"/>
      <use xlink:href="#DejaVuSans-79" transform="translate(320.996094 0)"/>
     </g>
    </g>
   </g>
   <g id="FillBetweenPolyCollection_2">
    <defs>
     <path id="mb913170081" d="M 477.433785 -204.748099 
L 477.433785 -198.988477 
L 484.452075 -210.136683 
L 491.470366 -204.531228 
L 498.488656 -181.796219 
L 505.506947 -151.141372 
L 512.525237 -125.82214 
L 519.543528 -113.225451 
L 526.561818 -113.901189 
L 533.580109 -105.38775 
L 540.5984 -91.737199 
L 547.61669 -89.457395 
L 554.634981 -93.327528 
L 561.653271 -104.060329 
L 568.671562 -118.499989 
L 575.689852 -130.657646 
L 582.708143 -137.191294 
L 589.726433 -140.397161 
L 596.744724 -153.370112 
L 603.763014 -177.011106 
L 610.781305 -208.022867 
L 617.799595 -232.001226 
L 624.817886 -235.306833 
L 631.836176 -231.126405 
L 638.854467 -228.956739 
L 645.872757 -230.711745 
L 652.891048 -235.519051 
L 659.909338 -250.966565 
L 666.927629 -266.153918 
L 673.945919 -267.304741 
L 680.96421 -254.4228 
L 687.9825 -239.232626 
L 695.000791 -220.221833 
L 702.019082 -198.050288 
L 709.037372 -176.843263 
L 716.055663 -162.176446 
L 723.073953 -155.351354 
L 730.092244 -152.358452 
L 737.110534 -148.982903 
L 744.128825 -149.325046 
L 751.147115 -153.653189 
L 758.165406 -158.314833 
L 765.183696 -162.602104 
L 772.201987 -166.828607 
L 779.220277 -170.769025 
L 786.238568 -174.165882 
L 793.256858 -177.333345 
L 800.275149 -179.78369 
L 807.293439 -181.966116 
L 814.31173 -183.647307 
L 821.33002 -185.169455 
L 821.33002 -191.978626 
L 821.33002 -191.978626 
L 814.31173 -191.24059 
L 807.293439 -190.515389 
L 800.275149 -189.453137 
L 793.256858 -188.225656 
L 786.238568 -186.658832 
L 779.220277 -184.57449 
L 772.201987 -182.496412 
L 765.183696 -179.840588 
L 758.165406 -177.185282 
L 751.147115 -174.284865 
L 744.128825 -172.652166 
L 737.110534 -174.604434 
L 730.092244 -179.845199 
L 723.073953 -185.790341 
L 716.055663 -194.701194 
L 709.037372 -211.402874 
L 702.019082 -234.425231 
L 695.000791 -257.704654 
L 687.9825 -279.896789 
L 680.96421 -296.754349 
L 673.945919 -310.129591 
L 666.927629 -309.780605 
L 659.909338 -295.748324 
L 652.891048 -281.004533 
L 645.872757 -276.117621 
L 638.854467 -273.401645 
L 631.836176 -274.888005 
L 624.817886 -276.453071 
L 617.799595 -271.041561 
L 610.781305 -244.827403 
L 603.763014 -213.298762 
L 596.744724 -191.284175 
L 589.726433 -175.635584 
L 582.708143 -173.812915 
L 575.689852 -172.088641 
L 568.671562 -168.01981 
L 561.653271 -160.292627 
L 554.634981 -154.465601 
L 547.61669 -155.755381 
L 540.5984 -161.618547 
L 533.580109 -177.249634 
L 526.561818 -186.413833 
L 519.543528 -184.309962 
L 512.525237 -189.635306 
L 505.506947 -207.243313 
L 498.488656 -226.124887 
L 491.470366 -235.402232 
L 484.452075 -226.689298 
L 477.433785 -204.748099 
z
" style="stroke: #008000; stroke-opacity: 0.2; stroke-width: 0.8"/>
    </defs>
    <g clip-path="url(#p2b7b4b2310)">
     <use xlink:href="#mb913170081" x="0" y="346.8505" style="fill: #008000; fill-opacity: 0.2; stroke: #008000; stroke-opacity: 0.2; stroke-width: 0.8"/>
    </g>
   </g>
   <g id="line2d_56">
    <path d="M 477.433785 144.931921 
L 484.452075 128.194738 
L 491.470366 125.698235 
L 498.488656 141.635605 
L 505.506947 165.240866 
L 512.525237 187.483863 
L 519.543528 195.634354 
L 526.561818 195.202145 
L 533.580109 204.991458 
L 540.5984 219.012069 
L 547.61669 223.703374 
L 554.634981 221.936248 
L 561.653271 214.879567 
L 568.671562 204.063104 
L 575.689852 195.250793 
L 582.708143 191.543915 
L 589.726433 188.66728 
L 596.744724 175.60404 
L 603.763014 152.230157 
L 610.781305 120.821486 
L 617.799595 96.527844 
L 624.817886 91.400546 
L 631.836176 94.955677 
L 638.854467 96.588488 
L 645.872757 93.974552 
L 652.891048 88.77281 
L 659.909338 73.712206 
L 666.927629 58.962788 
L 673.945919 58.300325 
L 680.96421 71.095404 
L 687.9825 87.732579 
L 695.000791 108.346621 
L 702.019082 130.595568 
L 709.037372 152.380541 
L 716.055663 168.049721 
L 723.073953 175.493358 
L 730.092244 180.190647 
L 737.110534 184.569661 
L 744.128825 185.406285 
L 751.147115 182.348178 
L 758.165406 178.56544 
L 765.183696 175.153979 
L 772.201987 171.804212 
L 779.220277 168.685384 
L 786.238568 166.02145 
L 793.256858 163.769829 
L 800.275149 161.860895 
L 807.293439 160.27094 
L 814.31173 158.955842 
L 821.33002 157.840614 
" clip-path="url(#p2b7b4b2310)" style="fill: none; stroke: #008000; stroke-width: 1.2; stroke-linecap: square"/>
   </g>
   <g id="line2d_57">
    <path d="M 460.238973 153.144212 
L 838.524832 153.144212 
" clip-path="url(#p2b7b4b2310)" style="fill: none; stroke-dasharray: 5.55,2.4; stroke-dashoffset: 0; stroke: #ff0000; stroke-width: 1.5"/>
   </g>
   <g id="patch_8">
    <path d="M 460.238973 307.22 
L 460.238973 23.84 
" style="fill: none; stroke: #ffffff; stroke-linejoin: miter; stroke-linecap: square"/>
   </g>
   <g id="patch_9">
    <path d="M 838.524832 307.22 
L 838.524832 23.84 
" style="fill: none; stroke: #ffffff; stroke-linejoin: miter; stroke-linecap: square"/>
   </g>
   <g id="patch_10">
    <path d="M 460.238973 307.22 
L 838.524832 307.22 
" style="fill: none; stroke: #ffffff; stroke-linejoin: miter; stroke-linecap: square"/>
   </g>
   <g id="patch_11">
    <path d="M 460.238973 23.84 
L 838.524832 23.84 
" style="fill: none; stroke: #ffffff; stroke-linejoin: miter; stroke-linecap: square"/>
   </g>
   <g id="text_29">
    <!-- $\Delta$PDD Hampshire -->
    <g transform="translate(589.321903 17.84) scale(0.14 -0.14)">
     <defs>
      <path id="DejaVuSans-48" d="M 628 4666 
L 1259 4666 
L 1259 2753 
L 3553 2753 
L 3553 4666 
L 4184 4666 
L 4184 0 
L 3553 0 
L 3553 2222 
L 1259 2222 
L 1259 0 
L 628 0 
L 628 4666 
z
" transform="scale(0.015625)"/>
      <path id="DejaVuSans-70" d="M 1159 525 
L 1159 -1331 
L 581 -1331 
L 581 3500 
L 1159 3500 
L 1159 2969 
Q 1341 3281 1617 3432 
Q 1894 3584 2278 3584 
Q 2916 3584 3314 3078 
Q 3713 2572 3713 1747 
Q 3713 922 3314 415 
Q 2916 -91 2278 -91 
Q 1894 -91 1617 61 
Q 1341 213 1159 525 
z
M 3116 1747 
Q 3116 2381 2855 2742 
Q 2594 3103 2138 3103 
Q 1681 3103 1420 2742 
Q 1159 2381 1159 1747 
Q 1159 1113 1420 752 
Q 1681 391 2138 391 
Q 2594 391 2855 752 
Q 3116 1113 3116 1747 
z
" transform="scale(0.015625)"/>
      <path id="DejaVuSans-68" d="M 3513 2113 
L 3513 0 
L 2938 0 
L 2938 2094 
Q 2938 2591 2744 2837 
Q 2550 3084 2163 3084 
Q 1697 3084 1428 2787 
Q 1159 2491 1159 1978 
L 1159 0 
L 581 0 
L 581 4863 
L 1159 4863 
L 1159 2956 
Q 1366 3272 1645 3428 
Q 1925 3584 2291 3584 
Q 2894 3584 3203 3211 
Q 3513 2838 3513 2113 
z
" transform="scale(0.015625)"/>
     </defs>
     <use xlink:href="#DejaVuSans-394" transform="translate(0 0.015625)"/>
     <use xlink:href="#DejaVuSans-50" transform="translate(68.408203 0.015625)"/>
     <use xlink:href="#DejaVuSans-44" transform="translate(128.710938 0.015625)"/>
     <use xlink:href="#DejaVuSans-44" transform="translate(205.712891 0.015625)"/>
     <use xlink:href="#DejaVuSans-20" transform="translate(282.714844 0.015625)"/>
     <use xlink:href="#DejaVuSans-48" transform="translate(314.501953 0.015625)"/>
     <use xlink:href="#DejaVuSans-61" transform="translate(389.697266 0.015625)"/>
     <use xlink:href="#DejaVuSans-6d" transform="translate(450.976562 0.015625)"/>
     <use xlink:href="#DejaVuSans-70" transform="translate(548.388672 0.015625)"/>
     <use xlink:href="#DejaVuSans-73" transform="translate(611.865234 0.015625)"/>
     <use xlink:href="#DejaVuSans-68" transform="translate(663.964844 0.015625)"/>
     <use xlink:href="#DejaVuSans-69" transform="translate(727.34375 0.015625)"/>
     <use xlink:href="#DejaVuSans-72" transform="translate(755.126953 0.015625)"/>
     <use xlink:href="#DejaVuSans-65" transform="translate(796.240234 0.015625)"/>
    </g>
   </g>
   <g id="legend_2">
    <g id="line2d_58">
     <path d="M 715.724832 36.94 
L 725.724832 36.94 
L 735.724832 36.94 
" style="fill: none; stroke: #008000; stroke-width: 1.2; stroke-linecap: square"/>
    </g>
    <g id="text_30">
     <!-- $\Delta$PDD Hampshire -->
     <g transform="translate(743.724832 40.44) scale(0.1 -0.1)">
      <use xlink:href="#DejaVuSans-394" transform="translate(0 0.015625)"/>
      <use xlink:href="#DejaVuSans-50" transform="translate(68.408203 0.015625)"/>
      <use xlink:href="#DejaVuSans-44" transform="translate(128.710938 0.015625)"/>
      <use xlink:href="#DejaVuSans-44" transform="translate(205.712891 0.015625)"/>
      <use xlink:href="#DejaVuSans-20" transform="translate(282.714844 0.015625)"/>
      <use xlink:href="#DejaVuSans-48" transform="translate(314.501953 0.015625)"/>
      <use xlink:href="#DejaVuSans-61" transform="translate(389.697266 0.015625)"/>
      <use xlink:href="#DejaVuSans-6d" transform="translate(450.976562 0.015625)"/>
      <use xlink:href="#DejaVuSans-70" transform="translate(548.388672 0.015625)"/>
      <use xlink:href="#DejaVuSans-73" transform="translate(611.865234 0.015625)"/>
      <use xlink:href="#DejaVuSans-68" transform="translate(663.964844 0.015625)"/>
      <use xlink:href="#DejaVuSans-69" transform="translate(727.34375 0.015625)"/>
      <use xlink:href="#DejaVuSans-72" transform="translate(755.126953 0.015625)"/>
      <use xlink:href="#DejaVuSans-65" transform="translate(796.240234 0.015625)"/>
     </g>
    </g>
   </g>
  </g>
 </g>
 <defs>
  <clipPath id="p621db8a46d">
   <rect x="44.086875" y="23.84" width="378.285859" height="283.38"/>
  </clipPath>
  <clipPath id="p2b7b4b2310">
   <rect x="460.238973" y="23.84" width="378.285859" height="283.38"/>
  </clipPath>
 </defs>
</svg>
