<?xml version="1.0" encoding="utf-8" standalone="no"?>
<!DOCTYPE svg PUBLIC "-//W3C//DTD SVG 1.1//EN"
  "http://www.w3.org/Graphics/SVG/1.1/DTD/svg11.dtd">
<svg xmlns:xlink="http://www.w3.org/1999/xlink" width="617.988412pt" height="340.668313pt" viewBox="0 0 617.988412 340.668313" xmlns="http://www.w3.org/2000/svg" version="1.1">
 <metadata>
  <rdf:RDF xmlns:dc="http://purl.org/dc/elements/1.1/" xmlns:cc="http://creativecommons.org/ns#" xmlns:rdf="http://www.w3.org/1999/02/22-rdf-syntax-ns#">
   <cc:Work>
    <dc:type rdf:resource="http://purl.org/dc/dcmitype/StillImage"/>
    <dc:date>2025-04-02T17:58:21.426327</dc:date>
    <dc:format>image/svg+xml</dc:format>
    <dc:creator>
     <cc:Agent>
      <dc:title>Matplotlib v3.10.1, https://matplotlib.org/</dc:title>
     </cc:Agent>
    </dc:creator>
   </cc:Work>
  </rdf:RDF>
 </metadata>
 <defs>
  <style type="text/css">*{stroke-linejoin: round; stroke-linecap: butt}</style>
 </defs>
 <g id="figure_1">
  <g id="patch_1">
   <path d="M 0 340.668313 
L 617.988412 340.668313 
L 617.988412 0 
L 0 0 
z
" style="fill: #ffffff"/>
  </g>
  <g id="axes_1">
   <g id="patch_2">
    <path d="M 45.1085 301.037813 
L 603.1085 301.037813 
L 603.1085 23.837813 
L 45.1085 23.837813 
z
" style="fill: #e5e5e5"/>
   </g>
   <g id="matplotlib.axis_1">
    <g id="xtick_1">
     <g id="line2d_1">
      <path d="M 70.472136 301.037813 
L 70.472136 23.837813 
" clip-path="url(#pcc0ed38715)" style="fill: none; stroke: #ffffff; stroke-width: 0.8; stroke-linecap: square"/>
     </g>
     <g id="line2d_2">
      <defs>
       <path id="m2e7e1ffecf" d="M 0 0 
L 0 4.8 
" style="stroke: #555555"/>
      </defs>
      <g>
       <use xlink:href="#m2e7e1ffecf" x="70.472136" y="301.037813" style="fill: #555555; stroke: #555555"/>
      </g>
     </g>
     <g id="text_1">
      <!-- 0 -->
      <g style="fill: #555555" transform="translate(67.672636 316.024438) scale(0.088 -0.088)">
       <defs>
        <path id="DejaVuSans-30" d="M 2034 4250 
Q 1547 4250 1301 3770 
Q 1056 3291 1056 2328 
Q 1056 1369 1301 889 
Q 1547 409 2034 409 
Q 2525 409 2770 889 
Q 3016 1369 3016 2328 
Q 3016 3291 2770 3770 
Q 2525 4250 2034 4250 
z
M 2034 4750 
Q 2819 4750 3233 4129 
Q 3647 3509 3647 2328 
Q 3647 1150 3233 529 
Q 2819 -91 2034 -91 
Q 1250 -91 836 529 
Q 422 1150 422 2328 
Q 422 3509 836 4129 
Q 1250 4750 2034 4750 
z
" transform="scale(0.015625)"/>
       </defs>
       <use xlink:href="#DejaVuSans-30"/>
      </g>
     </g>
    </g>
    <g id="xtick_2">
     <g id="line2d_3">
      <path d="M 157.725349 301.037813 
L 157.725349 23.837813 
" clip-path="url(#pcc0ed38715)" style="fill: none; stroke: #ffffff; stroke-width: 0.8; stroke-linecap: square"/>
     </g>
     <g id="line2d_4">
      <g>
       <use xlink:href="#m2e7e1ffecf" x="157.725349" y="301.037813" style="fill: #555555; stroke: #555555"/>
      </g>
     </g>
     <g id="text_2">
      <!-- 20000 -->
      <g style="fill: #555555" transform="translate(143.727849 316.024438) scale(0.088 -0.088)">
       <defs>
        <path id="DejaVuSans-32" d="M 1228 531 
L 3431 531 
L 3431 0 
L 469 0 
L 469 531 
Q 828 903 1448 1529 
Q 2069 2156 2228 2338 
Q 2531 2678 2651 2914 
Q 2772 3150 2772 3378 
Q 2772 3750 2511 3984 
Q 2250 4219 1831 4219 
Q 1534 4219 1204 4116 
Q 875 4013 500 3803 
L 500 4441 
Q 881 4594 1212 4672 
Q 1544 4750 1819 4750 
Q 2544 4750 2975 4387 
Q 3406 4025 3406 3419 
Q 3406 3131 3298 2873 
Q 3191 2616 2906 2266 
Q 2828 2175 2409 1742 
Q 1991 1309 1228 531 
z
" transform="scale(0.015625)"/>
       </defs>
       <use xlink:href="#DejaVuSans-32"/>
       <use xlink:href="#DejaVuSans-30" transform="translate(63.623047 0)"/>
       <use xlink:href="#DejaVuSans-30" transform="translate(127.246094 0)"/>
       <use xlink:href="#DejaVuSans-30" transform="translate(190.869141 0)"/>
       <use xlink:href="#DejaVuSans-30" transform="translate(254.492188 0)"/>
      </g>
     </g>
    </g>
    <g id="xtick_3">
     <g id="line2d_5">
      <path d="M 244.978562 301.037813 
L 244.978562 23.837813 
" clip-path="url(#pcc0ed38715)" style="fill: none; stroke: #ffffff; stroke-width: 0.8; stroke-linecap: square"/>
     </g>
     <g id="line2d_6">
      <g>
       <use xlink:href="#m2e7e1ffecf" x="244.978562" y="301.037813" style="fill: #555555; stroke: #555555"/>
      </g>
     </g>
     <g id="text_3">
      <!-- 40000 -->
      <g style="fill: #555555" transform="translate(230.981062 316.024438) scale(0.088 -0.088)">
       <defs>
        <path id="DejaVuSans-34" d="M 2419 4116 
L 825 1625 
L 2419 1625 
L 2419 4116 
z
M 2253 4666 
L 3047 4666 
L 3047 1625 
L 3713 1625 
L 3713 1100 
L 3047 1100 
L 3047 0 
L 2419 0 
L 2419 1100 
L 313 1100 
L 313 1709 
L 2253 4666 
z
" transform="scale(0.015625)"/>
       </defs>
       <use xlink:href="#DejaVuSans-34"/>
       <use xlink:href="#DejaVuSans-30" transform="translate(63.623047 0)"/>
       <use xlink:href="#DejaVuSans-30" transform="translate(127.246094 0)"/>
       <use xlink:href="#DejaVuSans-30" transform="translate(190.869141 0)"/>
       <use xlink:href="#DejaVuSans-30" transform="translate(254.492188 0)"/>
      </g>
     </g>
    </g>
    <g id="xtick_4">
     <g id="line2d_7">
      <path d="M 332.231774 301.037813 
L 332.231774 23.837813 
" clip-path="url(#pcc0ed38715)" style="fill: none; stroke: #ffffff; stroke-width: 0.8; stroke-linecap: square"/>
     </g>
     <g id="line2d_8">
      <g>
       <use xlink:href="#m2e7e1ffecf" x="332.231774" y="301.037813" style="fill: #555555; stroke: #555555"/>
      </g>
     </g>
     <g id="text_4">
      <!-- 60000 -->
      <g style="fill: #555555" transform="translate(318.234274 316.024438) scale(0.088 -0.088)">
       <defs>
        <path id="DejaVuSans-36" d="M 2113 2584 
Q 1688 2584 1439 2293 
Q 1191 2003 1191 1497 
Q 1191 994 1439 701 
Q 1688 409 2113 409 
Q 2538 409 2786 701 
Q 3034 994 3034 1497 
Q 3034 2003 2786 2293 
Q 2538 2584 2113 2584 
z
M 3366 4563 
L 3366 3988 
Q 3128 4100 2886 4159 
Q 2644 4219 2406 4219 
Q 1781 4219 1451 3797 
Q 1122 3375 1075 2522 
Q 1259 2794 1537 2939 
Q 1816 3084 2150 3084 
Q 2853 3084 3261 2657 
Q 3669 2231 3669 1497 
Q 3669 778 3244 343 
Q 2819 -91 2113 -91 
Q 1303 -91 875 529 
Q 447 1150 447 2328 
Q 447 3434 972 4092 
Q 1497 4750 2381 4750 
Q 2619 4750 2861 4703 
Q 3103 4656 3366 4563 
z
" transform="scale(0.015625)"/>
       </defs>
       <use xlink:href="#DejaVuSans-36"/>
       <use xlink:href="#DejaVuSans-30" transform="translate(63.623047 0)"/>
       <use xlink:href="#DejaVuSans-30" transform="translate(127.246094 0)"/>
       <use xlink:href="#DejaVuSans-30" transform="translate(190.869141 0)"/>
       <use xlink:href="#DejaVuSans-30" transform="translate(254.492188 0)"/>
      </g>
     </g>
    </g>
    <g id="xtick_5">
     <g id="line2d_9">
      <path d="M 419.484987 301.037813 
L 419.484987 23.837813 
" clip-path="url(#pcc0ed38715)" style="fill: none; stroke: #ffffff; stroke-width: 0.8; stroke-linecap: square"/>
     </g>
     <g id="line2d_10">
      <g>
       <use xlink:href="#m2e7e1ffecf" x="419.484987" y="301.037813" style="fill: #555555; stroke: #555555"/>
      </g>
     </g>
     <g id="text_5">
      <!-- 80000 -->
      <g style="fill: #555555" transform="translate(405.487487 316.024438) scale(0.088 -0.088)">
       <defs>
        <path id="DejaVuSans-38" d="M 2034 2216 
Q 1584 2216 1326 1975 
Q 1069 1734 1069 1313 
Q 1069 891 1326 650 
Q 1584 409 2034 409 
Q 2484 409 2743 651 
Q 3003 894 3003 1313 
Q 3003 1734 2745 1975 
Q 2488 2216 2034 2216 
z
M 1403 2484 
Q 997 2584 770 2862 
Q 544 3141 544 3541 
Q 544 4100 942 4425 
Q 1341 4750 2034 4750 
Q 2731 4750 3128 4425 
Q 3525 4100 3525 3541 
Q 3525 3141 3298 2862 
Q 3072 2584 2669 2484 
Q 3125 2378 3379 2068 
Q 3634 1759 3634 1313 
Q 3634 634 3220 271 
Q 2806 -91 2034 -91 
Q 1263 -91 848 271 
Q 434 634 434 1313 
Q 434 1759 690 2068 
Q 947 2378 1403 2484 
z
M 1172 3481 
Q 1172 3119 1398 2916 
Q 1625 2713 2034 2713 
Q 2441 2713 2670 2916 
Q 2900 3119 2900 3481 
Q 2900 3844 2670 4047 
Q 2441 4250 2034 4250 
Q 1625 4250 1398 4047 
Q 1172 3844 1172 3481 
z
" transform="scale(0.015625)"/>
       </defs>
       <use xlink:href="#DejaVuSans-38"/>
       <use xlink:href="#DejaVuSans-30" transform="translate(63.623047 0)"/>
       <use xlink:href="#DejaVuSans-30" transform="translate(127.246094 0)"/>
       <use xlink:href="#DejaVuSans-30" transform="translate(190.869141 0)"/>
       <use xlink:href="#DejaVuSans-30" transform="translate(254.492188 0)"/>
      </g>
     </g>
    </g>
    <g id="xtick_6">
     <g id="line2d_11">
      <path d="M 506.738199 301.037813 
L 506.738199 23.837813 
" clip-path="url(#pcc0ed38715)" style="fill: none; stroke: #ffffff; stroke-width: 0.8; stroke-linecap: square"/>
     </g>
     <g id="line2d_12">
      <g>
       <use xlink:href="#m2e7e1ffecf" x="506.738199" y="301.037813" style="fill: #555555; stroke: #555555"/>
      </g>
     </g>
     <g id="text_6">
      <!-- 100000 -->
      <g style="fill: #555555" transform="translate(489.941199 316.024438) scale(0.088 -0.088)">
       <defs>
        <path id="DejaVuSans-31" d="M 794 531 
L 1825 531 
L 1825 4091 
L 703 3866 
L 703 4441 
L 1819 4666 
L 2450 4666 
L 2450 531 
L 3481 531 
L 3481 0 
L 794 0 
L 794 531 
z
" transform="scale(0.015625)"/>
       </defs>
       <use xlink:href="#DejaVuSans-31"/>
       <use xlink:href="#DejaVuSans-30" transform="translate(63.623047 0)"/>
       <use xlink:href="#DejaVuSans-30" transform="translate(127.246094 0)"/>
       <use xlink:href="#DejaVuSans-30" transform="translate(190.869141 0)"/>
       <use xlink:href="#DejaVuSans-30" transform="translate(254.492188 0)"/>
       <use xlink:href="#DejaVuSans-30" transform="translate(318.115234 0)"/>
      </g>
     </g>
    </g>
    <g id="xtick_7">
     <g id="line2d_13">
      <path d="M 593.991412 301.037813 
L 593.991412 23.837813 
" clip-path="url(#pcc0ed38715)" style="fill: none; stroke: #ffffff; stroke-width: 0.8; stroke-linecap: square"/>
     </g>
     <g id="line2d_14">
      <g>
       <use xlink:href="#m2e7e1ffecf" x="593.991412" y="301.037813" style="fill: #555555; stroke: #555555"/>
      </g>
     </g>
     <g id="text_7">
      <!-- 120000 -->
      <g style="fill: #555555" transform="translate(577.194412 316.024438) scale(0.088 -0.088)">
       <use xlink:href="#DejaVuSans-31"/>
       <use xlink:href="#DejaVuSans-32" transform="translate(63.623047 0)"/>
       <use xlink:href="#DejaVuSans-30" transform="translate(127.246094 0)"/>
       <use xlink:href="#DejaVuSans-30" transform="translate(190.869141 0)"/>
       <use xlink:href="#DejaVuSans-30" transform="translate(254.492188 0)"/>
       <use xlink:href="#DejaVuSans-30" transform="translate(318.115234 0)"/>
      </g>
     </g>
    </g>
    <g id="text_8">
     <!-- Distance -->
     <g style="fill: #555555" transform="translate(297.8735 330.972688) scale(0.12 -0.12)">
      <defs>
       <path id="DejaVuSans-44" d="M 1259 4147 
L 1259 519 
L 2022 519 
Q 2988 519 3436 956 
Q 3884 1394 3884 2338 
Q 3884 3275 3436 3711 
Q 2988 4147 2022 4147 
L 1259 4147 
z
M 628 4666 
L 1925 4666 
Q 3281 4666 3915 4102 
Q 4550 3538 4550 2338 
Q 4550 1131 3912 565 
Q 3275 0 1925 0 
L 628 0 
L 628 4666 
z
" transform="scale(0.015625)"/>
       <path id="DejaVuSans-69" d="M 603 3500 
L 1178 3500 
L 1178 0 
L 603 0 
L 603 3500 
z
M 603 4863 
L 1178 4863 
L 1178 4134 
L 603 4134 
L 603 4863 
z
" transform="scale(0.015625)"/>
       <path id="DejaVuSans-73" d="M 2834 3397 
L 2834 2853 
Q 2591 2978 2328 3040 
Q 2066 3103 1784 3103 
Q 1356 3103 1142 2972 
Q 928 2841 928 2578 
Q 928 2378 1081 2264 
Q 1234 2150 1697 2047 
L 1894 2003 
Q 2506 1872 2764 1633 
Q 3022 1394 3022 966 
Q 3022 478 2636 193 
Q 2250 -91 1575 -91 
Q 1294 -91 989 -36 
Q 684 19 347 128 
L 347 722 
Q 666 556 975 473 
Q 1284 391 1588 391 
Q 1994 391 2212 530 
Q 2431 669 2431 922 
Q 2431 1156 2273 1281 
Q 2116 1406 1581 1522 
L 1381 1569 
Q 847 1681 609 1914 
Q 372 2147 372 2553 
Q 372 3047 722 3315 
Q 1072 3584 1716 3584 
Q 2034 3584 2315 3537 
Q 2597 3491 2834 3397 
z
" transform="scale(0.015625)"/>
       <path id="DejaVuSans-74" d="M 1172 4494 
L 1172 3500 
L 2356 3500 
L 2356 3053 
L 1172 3053 
L 1172 1153 
Q 1172 725 1289 603 
Q 1406 481 1766 481 
L 2356 481 
L 2356 0 
L 1766 0 
Q 1100 0 847 248 
Q 594 497 594 1153 
L 594 3053 
L 172 3053 
L 172 3500 
L 594 3500 
L 594 4494 
L 1172 4494 
z
" transform="scale(0.015625)"/>
       <path id="DejaVuSans-61" d="M 2194 1759 
Q 1497 1759 1228 1600 
Q 959 1441 959 1056 
Q 959 750 1161 570 
Q 1363 391 1709 391 
Q 2188 391 2477 730 
Q 2766 1069 2766 1631 
L 2766 1759 
L 2194 1759 
z
M 3341 1997 
L 3341 0 
L 2766 0 
L 2766 531 
Q 2569 213 2275 61 
Q 1981 -91 1556 -91 
Q 1019 -91 701 211 
Q 384 513 384 1019 
Q 384 1609 779 1909 
Q 1175 2209 1959 2209 
L 2766 2209 
L 2766 2266 
Q 2766 2663 2505 2880 
Q 2244 3097 1772 3097 
Q 1472 3097 1187 3025 
Q 903 2953 641 2809 
L 641 3341 
Q 956 3463 1253 3523 
Q 1550 3584 1831 3584 
Q 2591 3584 2966 3190 
Q 3341 2797 3341 1997 
z
" transform="scale(0.015625)"/>
       <path id="DejaVuSans-6e" d="M 3513 2113 
L 3513 0 
L 2938 0 
L 2938 2094 
Q 2938 2591 2744 2837 
Q 2550 3084 2163 3084 
Q 1697 3084 1428 2787 
Q 1159 2491 1159 1978 
L 1159 0 
L 581 0 
L 581 3500 
L 1159 3500 
L 1159 2956 
Q 1366 3272 1645 3428 
Q 1925 3584 2291 3584 
Q 2894 3584 3203 3211 
Q 3513 2838 3513 2113 
z
" transform="scale(0.015625)"/>
       <path id="DejaVuSans-63" d="M 3122 3366 
L 3122 2828 
Q 2878 2963 2633 3030 
Q 2388 3097 2138 3097 
Q 1578 3097 1268 2742 
Q 959 2388 959 1747 
Q 959 1106 1268 751 
Q 1578 397 2138 397 
Q 2388 397 2633 464 
Q 2878 531 3122 666 
L 3122 134 
Q 2881 22 2623 -34 
Q 2366 -91 2075 -91 
Q 1284 -91 818 406 
Q 353 903 353 1747 
Q 353 2603 823 3093 
Q 1294 3584 2113 3584 
Q 2378 3584 2631 3529 
Q 2884 3475 3122 3366 
z
" transform="scale(0.015625)"/>
       <path id="DejaVuSans-65" d="M 3597 1894 
L 3597 1613 
L 953 1613 
Q 991 1019 1311 708 
Q 1631 397 2203 397 
Q 2534 397 2845 478 
Q 3156 559 3463 722 
L 3463 178 
Q 3153 47 2828 -22 
Q 2503 -91 2169 -91 
Q 1331 -91 842 396 
Q 353 884 353 1716 
Q 353 2575 817 3079 
Q 1281 3584 2069 3584 
Q 2775 3584 3186 3129 
Q 3597 2675 3597 1894 
z
M 3022 2063 
Q 3016 2534 2758 2815 
Q 2500 3097 2075 3097 
Q 1594 3097 1305 2825 
Q 1016 2553 972 2059 
L 3022 2063 
z
" transform="scale(0.015625)"/>
      </defs>
      <use xlink:href="#DejaVuSans-44"/>
      <use xlink:href="#DejaVuSans-69" transform="translate(77.001953 0)"/>
      <use xlink:href="#DejaVuSans-73" transform="translate(104.785156 0)"/>
      <use xlink:href="#DejaVuSans-74" transform="translate(156.884766 0)"/>
      <use xlink:href="#DejaVuSans-61" transform="translate(196.09375 0)"/>
      <use xlink:href="#DejaVuSans-6e" transform="translate(257.373047 0)"/>
      <use xlink:href="#DejaVuSans-63" transform="translate(320.751953 0)"/>
      <use xlink:href="#DejaVuSans-65" transform="translate(375.732422 0)"/>
     </g>
    </g>
   </g>
   <g id="matplotlib.axis_2">
    <g id="ytick_1">
     <g id="line2d_15">
      <path d="M 45.1085 288.437813 
L 603.1085 288.437813 
" clip-path="url(#pcc0ed38715)" style="fill: none; stroke: #ffffff; stroke-width: 0.8; stroke-linecap: square"/>
     </g>
     <g id="line2d_16">
      <defs>
       <path id="me5b6ddfa0b" d="M 0 0 
L -4.8 0 
" style="stroke: #555555"/>
      </defs>
      <g>
       <use xlink:href="#me5b6ddfa0b" x="45.1085" y="288.437813" style="fill: #555555; stroke: #555555"/>
      </g>
     </g>
     <g id="text_9">
      <!-- 0.0 -->
      <g style="fill: #555555" transform="translate(22.81375 291.781125) scale(0.088 -0.088)">
       <defs>
        <path id="DejaVuSans-2e" d="M 684 794 
L 1344 794 
L 1344 0 
L 684 0 
L 684 794 
z
" transform="scale(0.015625)"/>
       </defs>
       <use xlink:href="#DejaVuSans-30"/>
       <use xlink:href="#DejaVuSans-2e" transform="translate(63.623047 0)"/>
       <use xlink:href="#DejaVuSans-30" transform="translate(95.410156 0)"/>
      </g>
     </g>
    </g>
    <g id="ytick_2">
     <g id="line2d_17">
      <path d="M 45.1085 228.51324 
L 603.1085 228.51324 
" clip-path="url(#pcc0ed38715)" style="fill: none; stroke: #ffffff; stroke-width: 0.8; stroke-linecap: square"/>
     </g>
     <g id="line2d_18">
      <g>
       <use xlink:href="#me5b6ddfa0b" x="45.1085" y="228.51324" style="fill: #555555; stroke: #555555"/>
      </g>
     </g>
     <g id="text_10">
      <!-- 0.5 -->
      <g style="fill: #555555" transform="translate(22.81375 231.856552) scale(0.088 -0.088)">
       <defs>
        <path id="DejaVuSans-35" d="M 691 4666 
L 3169 4666 
L 3169 4134 
L 1269 4134 
L 1269 2991 
Q 1406 3038 1543 3061 
Q 1681 3084 1819 3084 
Q 2600 3084 3056 2656 
Q 3513 2228 3513 1497 
Q 3513 744 3044 326 
Q 2575 -91 1722 -91 
Q 1428 -91 1123 -41 
Q 819 9 494 109 
L 494 744 
Q 775 591 1075 516 
Q 1375 441 1709 441 
Q 2250 441 2565 725 
Q 2881 1009 2881 1497 
Q 2881 1984 2565 2268 
Q 2250 2553 1709 2553 
Q 1456 2553 1204 2497 
Q 953 2441 691 2322 
L 691 4666 
z
" transform="scale(0.015625)"/>
       </defs>
       <use xlink:href="#DejaVuSans-30"/>
       <use xlink:href="#DejaVuSans-2e" transform="translate(63.623047 0)"/>
       <use xlink:href="#DejaVuSans-35" transform="translate(95.410156 0)"/>
      </g>
     </g>
    </g>
    <g id="ytick_3">
     <g id="line2d_19">
      <path d="M 45.1085 168.588667 
L 603.1085 168.588667 
" clip-path="url(#pcc0ed38715)" style="fill: none; stroke: #ffffff; stroke-width: 0.8; stroke-linecap: square"/>
     </g>
     <g id="line2d_20">
      <g>
       <use xlink:href="#me5b6ddfa0b" x="45.1085" y="168.588667" style="fill: #555555; stroke: #555555"/>
      </g>
     </g>
     <g id="text_11">
      <!-- 1.0 -->
      <g style="fill: #555555" transform="translate(22.81375 171.931979) scale(0.088 -0.088)">
       <use xlink:href="#DejaVuSans-31"/>
       <use xlink:href="#DejaVuSans-2e" transform="translate(63.623047 0)"/>
       <use xlink:href="#DejaVuSans-30" transform="translate(95.410156 0)"/>
      </g>
     </g>
    </g>
    <g id="ytick_4">
     <g id="line2d_21">
      <path d="M 45.1085 108.664094 
L 603.1085 108.664094 
" clip-path="url(#pcc0ed38715)" style="fill: none; stroke: #ffffff; stroke-width: 0.8; stroke-linecap: square"/>
     </g>
     <g id="line2d_22">
      <g>
       <use xlink:href="#me5b6ddfa0b" x="45.1085" y="108.664094" style="fill: #555555; stroke: #555555"/>
      </g>
     </g>
     <g id="text_12">
      <!-- 1.5 -->
      <g style="fill: #555555" transform="translate(22.81375 112.007407) scale(0.088 -0.088)">
       <use xlink:href="#DejaVuSans-31"/>
       <use xlink:href="#DejaVuSans-2e" transform="translate(63.623047 0)"/>
       <use xlink:href="#DejaVuSans-35" transform="translate(95.410156 0)"/>
      </g>
     </g>
    </g>
    <g id="ytick_5">
     <g id="line2d_23">
      <path d="M 45.1085 48.739521 
L 603.1085 48.739521 
" clip-path="url(#pcc0ed38715)" style="fill: none; stroke: #ffffff; stroke-width: 0.8; stroke-linecap: square"/>
     </g>
     <g id="line2d_24">
      <g>
       <use xlink:href="#me5b6ddfa0b" x="45.1085" y="48.739521" style="fill: #555555; stroke: #555555"/>
      </g>
     </g>
     <g id="text_13">
      <!-- 2.0 -->
      <g style="fill: #555555" transform="translate(22.81375 52.082834) scale(0.088 -0.088)">
       <use xlink:href="#DejaVuSans-32"/>
       <use xlink:href="#DejaVuSans-2e" transform="translate(63.623047 0)"/>
       <use xlink:href="#DejaVuSans-30" transform="translate(95.410156 0)"/>
      </g>
     </g>
    </g>
    <g id="text_14">
     <!-- Density -->
     <g style="fill: #555555" transform="translate(16.318125 185.248125) rotate(-90) scale(0.12 -0.12)">
      <defs>
       <path id="DejaVuSans-79" d="M 2059 -325 
Q 1816 -950 1584 -1140 
Q 1353 -1331 966 -1331 
L 506 -1331 
L 506 -850 
L 844 -850 
Q 1081 -850 1212 -737 
Q 1344 -625 1503 -206 
L 1606 56 
L 191 3500 
L 800 3500 
L 1894 763 
L 2988 3500 
L 3597 3500 
L 2059 -325 
z
" transform="scale(0.015625)"/>
      </defs>
      <use xlink:href="#DejaVuSans-44"/>
      <use xlink:href="#DejaVuSans-65" transform="translate(77.001953 0)"/>
      <use xlink:href="#DejaVuSans-6e" transform="translate(138.525391 0)"/>
      <use xlink:href="#DejaVuSans-73" transform="translate(201.904297 0)"/>
      <use xlink:href="#DejaVuSans-69" transform="translate(254.003906 0)"/>
      <use xlink:href="#DejaVuSans-74" transform="translate(281.787109 0)"/>
      <use xlink:href="#DejaVuSans-79" transform="translate(320.996094 0)"/>
     </g>
    </g>
    <g id="text_15">
     <!-- 1e−5 -->
     <g style="fill: #555555" transform="translate(45.1085 20.837813) scale(0.088 -0.088)">
      <defs>
       <path id="DejaVuSans-2212" d="M 678 2272 
L 4684 2272 
L 4684 1741 
L 678 1741 
L 678 2272 
z
" transform="scale(0.015625)"/>
      </defs>
      <use xlink:href="#DejaVuSans-31"/>
      <use xlink:href="#DejaVuSans-65" transform="translate(63.623047 0)"/>
      <use xlink:href="#DejaVuSans-2212" transform="translate(125.146484 0)"/>
      <use xlink:href="#DejaVuSans-35" transform="translate(208.935547 0)"/>
     </g>
    </g>
   </g>
   <g id="FillBetweenPolyCollection_1">
    <defs>
     <path id="m8f952f138d" d="M 70.472136 -67.786412 
L 70.472136 -67.786412 
L 80.824641 -98.818415 
L 91.177146 -130.735088 
L 101.52965 -154.455331 
L 111.882155 -172.773099 
L 122.23466 -189.164433 
L 132.587164 -208.839167 
L 142.939669 -228.927955 
L 153.292173 -240.74242 
L 163.644678 -246.866317 
L 173.997183 -253.471026 
L 184.349687 -259.351303 
L 194.702192 -264.241908 
L 205.054697 -267.58389 
L 215.407201 -267.183933 
L 225.759706 -262.04988 
L 236.112211 -254.468094 
L 246.464715 -249.831449 
L 256.81722 -248.562765 
L 267.169724 -250.171979 
L 277.522229 -248.094783 
L 287.874734 -237.000381 
L 298.227238 -222.043713 
L 308.579743 -208.299971 
L 318.932248 -196.897227 
L 329.284752 -187.240156 
L 339.637257 -182.808167 
L 349.989762 -179.043718 
L 360.342266 -169.60228 
L 370.694771 -154.882239 
L 381.047276 -139.237038 
L 391.39978 -122.539895 
L 401.752285 -105.847708 
L 412.104789 -90.078422 
L 422.457294 -77.718691 
L 432.809799 -69.727198 
L 443.162303 -63.563059 
L 453.514808 -58.055286 
L 463.867313 -54.643677 
L 474.219817 -53.411904 
L 484.572322 -52.835461 
L 494.924827 -52.405609 
L 505.277331 -52.249451 
L 515.629836 -52.231125 
L 525.98234 -52.230506 
L 536.334845 -52.2305 
L 546.68735 -52.2305 
L 557.039854 -52.2305 
L 567.392359 -52.2305 
L 577.744864 -52.2305 
L 577.744864 -52.2305 
L 577.744864 -52.2305 
L 567.392359 -52.2305 
L 557.039854 -52.2305 
L 546.68735 -52.2305 
L 536.334845 -52.2305 
L 525.98234 -52.230506 
L 515.629836 -52.231125 
L 505.277331 -52.249451 
L 494.924827 -52.405609 
L 484.572322 -52.835461 
L 474.219817 -53.411904 
L 463.867313 -54.643677 
L 453.514808 -58.055286 
L 443.162303 -63.563059 
L 432.809799 -69.727198 
L 422.457294 -77.718691 
L 412.104789 -90.078422 
L 401.752285 -105.847708 
L 391.39978 -122.539895 
L 381.047276 -139.237038 
L 370.694771 -154.882239 
L 360.342266 -169.60228 
L 349.989762 -179.043718 
L 339.637257 -182.808167 
L 329.284752 -187.240156 
L 318.932248 -196.897227 
L 308.579743 -208.299971 
L 298.227238 -222.043713 
L 287.874734 -237.000381 
L 277.522229 -248.094783 
L 267.169724 -250.171979 
L 256.81722 -248.562765 
L 246.464715 -249.831449 
L 236.112211 -254.468094 
L 225.759706 -262.04988 
L 215.407201 -267.183933 
L 205.054697 -267.58389 
L 194.702192 -264.241908 
L 184.349687 -259.351303 
L 173.997183 -253.471026 
L 163.644678 -246.866317 
L 153.292173 -240.74242 
L 142.939669 -228.927955 
L 132.587164 -208.839167 
L 122.23466 -189.164433 
L 111.882155 -172.773099 
L 101.52965 -154.455331 
L 91.177146 -130.735088 
L 80.824641 -98.818415 
L 70.472136 -67.786412 
z
" style="stroke: #0000ff; stroke-opacity: 0.2; stroke-width: 0.8"/>
    </defs>
    <g clip-path="url(#pcc0ed38715)">
     <use xlink:href="#m8f952f138d" x="0" y="340.668313" style="fill: #0000ff; fill-opacity: 0.2; stroke: #0000ff; stroke-opacity: 0.2; stroke-width: 0.8"/>
    </g>
   </g>
   <g id="FillBetweenPolyCollection_2">
    <defs>
     <path id="mf78e8e7867" d="M 70.472136 -61.84329 
L 70.472136 -60.482983 
L 80.824641 -77.361026 
L 91.177146 -98.885798 
L 101.52965 -119.764915 
L 111.882155 -138.51464 
L 122.23466 -156.322523 
L 132.587164 -171.348352 
L 142.939669 -184.723151 
L 153.292173 -196.557687 
L 163.644678 -205.950876 
L 173.997183 -215.457222 
L 184.349687 -222.508513 
L 194.702192 -228.759218 
L 205.054697 -232.737411 
L 215.407201 -236.703329 
L 225.759706 -240.628125 
L 236.112211 -243.237278 
L 246.464715 -244.232811 
L 256.81722 -243.639105 
L 267.169724 -243.193744 
L 277.522229 -241.262392 
L 287.874734 -237.033097 
L 298.227238 -231.063277 
L 308.579743 -222.897754 
L 318.932248 -213.83318 
L 329.284752 -203.559524 
L 339.637257 -193.636021 
L 349.989762 -182.117769 
L 360.342266 -170.15147 
L 370.694771 -157.484895 
L 381.047276 -143.873232 
L 391.39978 -131.201809 
L 401.752285 -118.076563 
L 412.104789 -106.030838 
L 422.457294 -94.797949 
L 432.809799 -85.790261 
L 443.162303 -77.894738 
L 453.514808 -70.718556 
L 463.867313 -65.024415 
L 474.219817 -60.747292 
L 484.572322 -57.775571 
L 494.924827 -55.633187 
L 505.277331 -54.21848 
L 515.629836 -53.396735 
L 525.98234 -52.770588 
L 536.334845 -52.406522 
L 546.68735 -52.26299 
L 557.039854 -52.232863 
L 567.392359 -52.230552 
L 577.744864 -52.2305 
L 577.744864 -52.254523 
L 577.744864 -52.254523 
L 567.392359 -52.350756 
L 557.039854 -52.603046 
L 546.68735 -53.053381 
L 536.334845 -53.797695 
L 525.98234 -54.856095 
L 515.629836 -56.355709 
L 505.277331 -58.418566 
L 494.924827 -61.035739 
L 484.572322 -64.610528 
L 474.219817 -69.138952 
L 463.867313 -75.744565 
L 453.514808 -84.156562 
L 443.162303 -94.01448 
L 432.809799 -105.606993 
L 422.457294 -116.941797 
L 412.104789 -128.50052 
L 401.752285 -141.671138 
L 391.39978 -155.932686 
L 381.047276 -169.849096 
L 370.694771 -182.665099 
L 360.342266 -194.250529 
L 349.989762 -205.050607 
L 339.637257 -214.71054 
L 329.284752 -224.172311 
L 318.932248 -232.057328 
L 308.579743 -238.210002 
L 298.227238 -243.655582 
L 287.874734 -248.955906 
L 277.522229 -253.805028 
L 267.169724 -258.509399 
L 256.81722 -262.306776 
L 246.464715 -264.159195 
L 236.112211 -266.115127 
L 225.759706 -265.436369 
L 215.407201 -264.01798 
L 205.054697 -259.510175 
L 194.702192 -254.352381 
L 184.349687 -246.625756 
L 173.997183 -237.643209 
L 163.644678 -226.572997 
L 153.292173 -215.222258 
L 142.939669 -201.562506 
L 132.587164 -185.214021 
L 122.23466 -167.166306 
L 111.882155 -147.608112 
L 101.52965 -126.557704 
L 91.177146 -103.589986 
L 80.824641 -80.276075 
L 70.472136 -61.84329 
z
" style="stroke: #ffa500; stroke-opacity: 0.2; stroke-width: 0.8"/>
    </defs>
    <g clip-path="url(#pcc0ed38715)">
     <use xlink:href="#mf78e8e7867" x="0" y="340.668313" style="fill: #ffa500; fill-opacity: 0.2; stroke: #ffa500; stroke-opacity: 0.2; stroke-width: 0.8"/>
    </g>
   </g>
   <g id="FillBetweenPolyCollection_3">
    <defs>
     <path id="mefbd2c2649" d="M 70.472136 -65.553664 
L 70.472136 -62.824702 
L 80.824641 -83.876756 
L 91.177146 -111.365846 
L 101.52965 -139.936129 
L 111.882155 -166.19093 
L 122.23466 -190.215365 
L 132.587164 -211.938629 
L 142.939669 -231.648057 
L 153.292173 -247.844006 
L 163.644678 -260.002539 
L 173.997183 -269.378727 
L 184.349687 -275.731668 
L 194.702192 -279.011482 
L 205.054697 -279.925022 
L 215.407201 -276.140965 
L 225.759706 -269.896015 
L 236.112211 -261.902117 
L 246.464715 -251.084668 
L 256.81722 -238.768002 
L 267.169724 -226.254494 
L 277.522229 -212.980623 
L 287.874734 -199.302599 
L 298.227238 -185.209057 
L 308.579743 -172.361767 
L 318.932248 -160.065435 
L 329.284752 -148.221204 
L 339.637257 -136.963306 
L 349.989762 -127.0277 
L 360.342266 -117.01468 
L 370.694771 -108.437031 
L 381.047276 -101.218978 
L 391.39978 -94.4838 
L 401.752285 -88.09977 
L 412.104789 -82.787696 
L 422.457294 -78.10975 
L 432.809799 -73.723219 
L 443.162303 -70.142077 
L 453.514808 -67.107373 
L 463.867313 -64.659065 
L 474.219817 -62.382802 
L 484.572322 -60.460483 
L 494.924827 -58.950614 
L 505.277331 -57.557291 
L 515.629836 -56.496725 
L 525.98234 -55.672573 
L 536.334845 -54.978366 
L 546.68735 -54.36992 
L 557.039854 -53.805956 
L 567.392359 -53.431109 
L 577.744864 -53.134791 
L 577.744864 -56.104025 
L 577.744864 -56.104025 
L 567.392359 -56.872289 
L 557.039854 -57.741857 
L 546.68735 -58.651834 
L 536.334845 -59.854486 
L 525.98234 -61.276052 
L 515.629836 -62.785008 
L 505.277331 -64.654507 
L 494.924827 -66.583178 
L 484.572322 -69.143549 
L 474.219817 -71.555463 
L 463.867313 -74.59091 
L 453.514808 -78.284497 
L 443.162303 -82.60373 
L 432.809799 -87.012046 
L 422.457294 -92.173772 
L 412.104789 -97.770962 
L 401.752285 -104.192783 
L 391.39978 -111.188757 
L 381.047276 -118.92822 
L 370.694771 -127.805034 
L 360.342266 -136.918849 
L 349.989762 -146.895482 
L 339.637257 -156.56836 
L 329.284752 -167.932906 
L 318.932248 -179.489419 
L 308.579743 -191.967817 
L 298.227238 -204.902134 
L 287.874734 -217.619194 
L 277.522229 -230.38786 
L 267.169724 -243.05913 
L 256.81722 -255.693134 
L 246.464715 -267.182303 
L 236.112211 -277.749098 
L 225.759706 -287.609397 
L 215.407201 -295.048948 
L 205.054697 -300.239587 
L 194.702192 -303.992734 
L 184.349687 -304.2305 
L 173.997183 -301.074423 
L 163.644678 -293.309076 
L 153.292173 -281.739911 
L 142.939669 -265.180757 
L 132.587164 -244.111141 
L 122.23466 -219.336346 
L 111.882155 -190.809393 
L 101.52965 -159.134092 
L 91.177146 -125.066419 
L 80.824641 -91.319123 
L 70.472136 -65.553664 
z
" style="stroke: #008000; stroke-opacity: 0.2; stroke-width: 0.8"/>
    </defs>
    <g clip-path="url(#pcc0ed38715)">
     <use xlink:href="#mefbd2c2649" x="0" y="340.668313" style="fill: #008000; fill-opacity: 0.2; stroke: #008000; stroke-opacity: 0.2; stroke-width: 0.8"/>
    </g>
   </g>
   <g id="line2d_25">
    <path d="M 70.472136 272.881901 
L 80.824641 241.849898 
L 91.177146 209.933224 
L 101.52965 186.212982 
L 111.882155 167.895213 
L 122.23466 151.503879 
L 132.587164 131.829146 
L 142.939669 111.740357 
L 153.292173 99.925892 
L 163.644678 93.801996 
L 173.997183 87.197286 
L 184.349687 81.317009 
L 194.702192 76.426405 
L 205.054697 73.084422 
L 215.407201 73.484379 
L 225.759706 78.618433 
L 236.112211 86.200219 
L 246.464715 90.836864 
L 256.81722 92.105547 
L 267.169724 90.496333 
L 277.522229 92.573529 
L 287.874734 103.667932 
L 298.227238 118.624599 
L 308.579743 132.368342 
L 318.932248 143.771086 
L 329.284752 153.428157 
L 339.637257 157.860146 
L 349.989762 161.624594 
L 360.342266 171.066033 
L 370.694771 185.786073 
L 381.047276 201.431275 
L 391.39978 218.128418 
L 401.752285 234.820605 
L 412.104789 250.58989 
L 422.457294 262.949621 
L 432.809799 270.941115 
L 443.162303 277.105253 
L 453.514808 282.613027 
L 463.867313 286.024636 
L 474.219817 287.256408 
L 484.572322 287.832851 
L 494.924827 288.262703 
L 505.277331 288.418861 
L 515.629836 288.437188 
L 525.98234 288.437807 
L 536.334845 288.437812 
L 546.68735 288.437812 
L 557.039854 288.437813 
L 567.392359 288.437813 
L 577.744864 288.437813 
" clip-path="url(#pcc0ed38715)" style="fill: none; stroke: #0000ff; stroke-width: 1.2; stroke-linecap: square"/>
   </g>
   <g id="line2d_26">
    <path d="M 70.472136 279.51379 
L 80.824641 261.996472 
L 91.177146 239.604192 
L 101.52965 217.751197 
L 111.882155 197.723282 
L 122.23466 179.479576 
L 132.587164 162.974304 
L 142.939669 148.234122 
L 153.292173 135.215342 
L 163.644678 123.793556 
L 173.997183 113.996577 
L 184.349687 105.748682 
L 194.702192 98.957055 
L 205.054697 93.644286 
L 215.407201 89.68229 
L 225.759706 87.102899 
L 236.112211 85.911608 
L 246.464715 86.04602 
L 256.81722 87.423372 
L 267.169724 89.787566 
L 277.522229 93.164557 
L 287.874734 97.778241 
L 298.227238 103.601401 
L 308.579743 110.558372 
L 318.932248 118.482451 
L 329.284752 127.212891 
L 339.637257 136.9601 
L 349.989762 147.650992 
L 360.342266 159.027744 
L 370.694771 171.172625 
L 381.047276 184.154201 
L 391.39978 197.742502 
L 401.752285 211.331418 
L 412.104789 223.815029 
L 422.457294 234.975719 
L 432.809799 245.280681 
L 443.162303 254.928962 
L 453.514808 263.657986 
L 463.867313 270.690836 
L 474.219817 275.830215 
L 484.572322 279.594396 
L 494.924827 282.382142 
L 505.277331 284.434455 
L 515.629836 285.931071 
L 525.98234 286.976856 
L 536.334845 287.667661 
L 546.68735 288.089601 
L 557.039854 288.312311 
L 567.392359 288.405679 
L 577.744864 288.43282 
" clip-path="url(#pcc0ed38715)" style="fill: none; stroke: #ffa500; stroke-width: 1.2; stroke-linecap: square"/>
   </g>
   <g id="line2d_27">
    <path d="M 70.472136 276.553714 
L 80.824641 253.117712 
L 91.177146 222.336661 
L 101.52965 191.246477 
L 111.882155 162.062086 
L 122.23466 135.62616 
L 132.587164 112.366652 
L 142.939669 92.42147 
L 153.292173 76.107878 
L 163.644678 63.683447 
L 173.997183 55.028757 
L 184.349687 49.968333 
L 194.702192 48.393501 
L 205.054697 50.05182 
L 215.407201 54.483882 
L 225.759706 61.421799 
L 236.112211 70.458861 
L 246.464715 81.109451 
L 256.81722 92.924219 
L 267.169724 105.537279 
L 277.522229 118.726927 
L 287.874734 132.11886 
L 298.227238 145.366104 
L 308.579743 158.271532 
L 318.932248 170.733827 
L 329.284752 182.656236 
L 339.637257 193.922847 
L 349.989762 204.455577 
L 360.342266 214.189439 
L 370.694771 223.087912 
L 381.047276 231.11703 
L 391.39978 238.392327 
L 401.752285 244.979746 
L 412.104789 250.839592 
L 422.457294 256.024832 
L 432.809799 260.624028 
L 443.162303 264.66672 
L 453.514808 268.186604 
L 463.867313 271.237227 
L 474.219817 273.907762 
L 484.572322 276.228561 
L 494.924827 278.202201 
L 505.277331 279.882532 
L 515.629836 281.335817 
L 525.98234 282.562646 
L 536.334845 283.576943 
L 546.68735 284.42224 
L 557.039854 285.141748 
L 567.392359 285.757736 
L 577.744864 286.271813 
" clip-path="url(#pcc0ed38715)" style="fill: none; stroke: #008000; stroke-width: 1.2; stroke-linecap: square"/>
   </g>
   <g id="patch_3">
    <path d="M 45.1085 301.037813 
L 45.1085 23.837813 
" style="fill: none; stroke: #ffffff; stroke-linejoin: miter; stroke-linecap: square"/>
   </g>
   <g id="patch_4">
    <path d="M 603.1085 301.037813 
L 603.1085 23.837813 
" style="fill: none; stroke: #ffffff; stroke-linejoin: miter; stroke-linecap: square"/>
   </g>
   <g id="patch_5">
    <path d="M 45.1085 301.037813 
L 603.1085 301.037813 
" style="fill: none; stroke: #ffffff; stroke-linejoin: miter; stroke-linecap: square"/>
   </g>
   <g id="patch_6">
    <path d="M 45.1085 23.837813 
L 603.1085 23.837813 
" style="fill: none; stroke: #ffffff; stroke-linejoin: miter; stroke-linecap: square"/>
   </g>
   <g id="text_16">
    <!-- Pairwise Distance Density for Time Slice 1066 -->
    <g transform="translate(163.8435 17.837813) scale(0.14 -0.14)">
     <defs>
      <path id="DejaVuSans-50" d="M 1259 4147 
L 1259 2394 
L 2053 2394 
Q 2494 2394 2734 2622 
Q 2975 2850 2975 3272 
Q 2975 3691 2734 3919 
Q 2494 4147 2053 4147 
L 1259 4147 
z
M 628 4666 
L 2053 4666 
Q 2838 4666 3239 4311 
Q 3641 3956 3641 3272 
Q 3641 2581 3239 2228 
Q 2838 1875 2053 1875 
L 1259 1875 
L 1259 0 
L 628 0 
L 628 4666 
z
" transform="scale(0.015625)"/>
      <path id="DejaVuSans-72" d="M 2631 2963 
Q 2534 3019 2420 3045 
Q 2306 3072 2169 3072 
Q 1681 3072 1420 2755 
Q 1159 2438 1159 1844 
L 1159 0 
L 581 0 
L 581 3500 
L 1159 3500 
L 1159 2956 
Q 1341 3275 1631 3429 
Q 1922 3584 2338 3584 
Q 2397 3584 2469 3576 
Q 2541 3569 2628 3553 
L 2631 2963 
z
" transform="scale(0.015625)"/>
      <path id="DejaVuSans-77" d="M 269 3500 
L 844 3500 
L 1563 769 
L 2278 3500 
L 2956 3500 
L 3675 769 
L 4391 3500 
L 4966 3500 
L 4050 0 
L 3372 0 
L 2619 2869 
L 1863 0 
L 1184 0 
L 269 3500 
z
" transform="scale(0.015625)"/>
      <path id="DejaVuSans-20" transform="scale(0.015625)"/>
      <path id="DejaVuSans-66" d="M 2375 4863 
L 2375 4384 
L 1825 4384 
Q 1516 4384 1395 4259 
Q 1275 4134 1275 3809 
L 1275 3500 
L 2222 3500 
L 2222 3053 
L 1275 3053 
L 1275 0 
L 697 0 
L 697 3053 
L 147 3053 
L 147 3500 
L 697 3500 
L 697 3744 
Q 697 4328 969 4595 
Q 1241 4863 1831 4863 
L 2375 4863 
z
" transform="scale(0.015625)"/>
      <path id="DejaVuSans-6f" d="M 1959 3097 
Q 1497 3097 1228 2736 
Q 959 2375 959 1747 
Q 959 1119 1226 758 
Q 1494 397 1959 397 
Q 2419 397 2687 759 
Q 2956 1122 2956 1747 
Q 2956 2369 2687 2733 
Q 2419 3097 1959 3097 
z
M 1959 3584 
Q 2709 3584 3137 3096 
Q 3566 2609 3566 1747 
Q 3566 888 3137 398 
Q 2709 -91 1959 -91 
Q 1206 -91 779 398 
Q 353 888 353 1747 
Q 353 2609 779 3096 
Q 1206 3584 1959 3584 
z
" transform="scale(0.015625)"/>
      <path id="DejaVuSans-54" d="M -19 4666 
L 3928 4666 
L 3928 4134 
L 2272 4134 
L 2272 0 
L 1638 0 
L 1638 4134 
L -19 4134 
L -19 4666 
z
" transform="scale(0.015625)"/>
      <path id="DejaVuSans-6d" d="M 3328 2828 
Q 3544 3216 3844 3400 
Q 4144 3584 4550 3584 
Q 5097 3584 5394 3201 
Q 5691 2819 5691 2113 
L 5691 0 
L 5113 0 
L 5113 2094 
Q 5113 2597 4934 2840 
Q 4756 3084 4391 3084 
Q 3944 3084 3684 2787 
Q 3425 2491 3425 1978 
L 3425 0 
L 2847 0 
L 2847 2094 
Q 2847 2600 2669 2842 
Q 2491 3084 2119 3084 
Q 1678 3084 1418 2786 
Q 1159 2488 1159 1978 
L 1159 0 
L 581 0 
L 581 3500 
L 1159 3500 
L 1159 2956 
Q 1356 3278 1631 3431 
Q 1906 3584 2284 3584 
Q 2666 3584 2933 3390 
Q 3200 3197 3328 2828 
z
" transform="scale(0.015625)"/>
      <path id="DejaVuSans-53" d="M 3425 4513 
L 3425 3897 
Q 3066 4069 2747 4153 
Q 2428 4238 2131 4238 
Q 1616 4238 1336 4038 
Q 1056 3838 1056 3469 
Q 1056 3159 1242 3001 
Q 1428 2844 1947 2747 
L 2328 2669 
Q 3034 2534 3370 2195 
Q 3706 1856 3706 1288 
Q 3706 609 3251 259 
Q 2797 -91 1919 -91 
Q 1588 -91 1214 -16 
Q 841 59 441 206 
L 441 856 
Q 825 641 1194 531 
Q 1563 422 1919 422 
Q 2459 422 2753 634 
Q 3047 847 3047 1241 
Q 3047 1584 2836 1778 
Q 2625 1972 2144 2069 
L 1759 2144 
Q 1053 2284 737 2584 
Q 422 2884 422 3419 
Q 422 4038 858 4394 
Q 1294 4750 2059 4750 
Q 2388 4750 2728 4690 
Q 3069 4631 3425 4513 
z
" transform="scale(0.015625)"/>
      <path id="DejaVuSans-6c" d="M 603 4863 
L 1178 4863 
L 1178 0 
L 603 0 
L 603 4863 
z
" transform="scale(0.015625)"/>
     </defs>
     <use xlink:href="#DejaVuSans-50"/>
     <use xlink:href="#DejaVuSans-61" transform="translate(55.802734 0)"/>
     <use xlink:href="#DejaVuSans-69" transform="translate(117.082031 0)"/>
     <use xlink:href="#DejaVuSans-72" transform="translate(144.865234 0)"/>
     <use xlink:href="#DejaVuSans-77" transform="translate(185.978516 0)"/>
     <use xlink:href="#DejaVuSans-69" transform="translate(267.765625 0)"/>
     <use xlink:href="#DejaVuSans-73" transform="translate(295.548828 0)"/>
     <use xlink:href="#DejaVuSans-65" transform="translate(347.648438 0)"/>
     <use xlink:href="#DejaVuSans-20" transform="translate(409.171875 0)"/>
     <use xlink:href="#DejaVuSans-44" transform="translate(440.958984 0)"/>
     <use xlink:href="#DejaVuSans-69" transform="translate(517.960938 0)"/>
     <use xlink:href="#DejaVuSans-73" transform="translate(545.744141 0)"/>
     <use xlink:href="#DejaVuSans-74" transform="translate(597.84375 0)"/>
     <use xlink:href="#DejaVuSans-61" transform="translate(637.052734 0)"/>
     <use xlink:href="#DejaVuSans-6e" transform="translate(698.332031 0)"/>
     <use xlink:href="#DejaVuSans-63" transform="translate(761.710938 0)"/>
     <use xlink:href="#DejaVuSans-65" transform="translate(816.691406 0)"/>
     <use xlink:href="#DejaVuSans-20" transform="translate(878.214844 0)"/>
     <use xlink:href="#DejaVuSans-44" transform="translate(910.001953 0)"/>
     <use xlink:href="#DejaVuSans-65" transform="translate(987.003906 0)"/>
     <use xlink:href="#DejaVuSans-6e" transform="translate(1048.527344 0)"/>
     <use xlink:href="#DejaVuSans-73" transform="translate(1111.90625 0)"/>
     <use xlink:href="#DejaVuSans-69" transform="translate(1164.005859 0)"/>
     <use xlink:href="#DejaVuSans-74" transform="translate(1191.789062 0)"/>
     <use xlink:href="#DejaVuSans-79" transform="translate(1230.998047 0)"/>
     <use xlink:href="#DejaVuSans-20" transform="translate(1290.177734 0)"/>
     <use xlink:href="#DejaVuSans-66" transform="translate(1321.964844 0)"/>
     <use xlink:href="#DejaVuSans-6f" transform="translate(1357.169922 0)"/>
     <use xlink:href="#DejaVuSans-72" transform="translate(1418.351562 0)"/>
     <use xlink:href="#DejaVuSans-20" transform="translate(1459.464844 0)"/>
     <use xlink:href="#DejaVuSans-54" transform="translate(1491.251953 0)"/>
     <use xlink:href="#DejaVuSans-69" transform="translate(1549.210938 0)"/>
     <use xlink:href="#DejaVuSans-6d" transform="translate(1576.994141 0)"/>
     <use xlink:href="#DejaVuSans-65" transform="translate(1674.40625 0)"/>
     <use xlink:href="#DejaVuSans-20" transform="translate(1735.929688 0)"/>
     <use xlink:href="#DejaVuSans-53" transform="translate(1767.716797 0)"/>
     <use xlink:href="#DejaVuSans-6c" transform="translate(1831.193359 0)"/>
     <use xlink:href="#DejaVuSans-69" transform="translate(1858.976562 0)"/>
     <use xlink:href="#DejaVuSans-63" transform="translate(1886.759766 0)"/>
     <use xlink:href="#DejaVuSans-65" transform="translate(1941.740234 0)"/>
     <use xlink:href="#DejaVuSans-20" transform="translate(2003.263672 0)"/>
     <use xlink:href="#DejaVuSans-31" transform="translate(2035.050781 0)"/>
     <use xlink:href="#DejaVuSans-30" transform="translate(2098.673828 0)"/>
     <use xlink:href="#DejaVuSans-36" transform="translate(2162.296875 0)"/>
     <use xlink:href="#DejaVuSans-36" transform="translate(2225.919922 0)"/>
    </g>
   </g>
   <g id="legend_1">
    <g id="line2d_28">
     <path d="M 519.628812 36.93625 
L 529.628812 36.93625 
L 539.628812 36.93625 
" style="fill: none; stroke: #0000ff; stroke-width: 1.2; stroke-linecap: square"/>
    </g>
    <g id="text_17">
     <!-- Empirical -->
     <g transform="translate(547.628812 40.43625) scale(0.1 -0.1)">
      <defs>
       <path id="DejaVuSans-45" d="M 628 4666 
L 3578 4666 
L 3578 4134 
L 1259 4134 
L 1259 2753 
L 3481 2753 
L 3481 2222 
L 1259 2222 
L 1259 531 
L 3634 531 
L 3634 0 
L 628 0 
L 628 4666 
z
" transform="scale(0.015625)"/>
       <path id="DejaVuSans-70" d="M 1159 525 
L 1159 -1331 
L 581 -1331 
L 581 3500 
L 1159 3500 
L 1159 2969 
Q 1341 3281 1617 3432 
Q 1894 3584 2278 3584 
Q 2916 3584 3314 3078 
Q 3713 2572 3713 1747 
Q 3713 922 3314 415 
Q 2916 -91 2278 -91 
Q 1894 -91 1617 61 
Q 1341 213 1159 525 
z
M 3116 1747 
Q 3116 2381 2855 2742 
Q 2594 3103 2138 3103 
Q 1681 3103 1420 2742 
Q 1159 2381 1159 1747 
Q 1159 1113 1420 752 
Q 1681 391 2138 391 
Q 2594 391 2855 752 
Q 3116 1113 3116 1747 
z
" transform="scale(0.015625)"/>
      </defs>
      <use xlink:href="#DejaVuSans-45"/>
      <use xlink:href="#DejaVuSans-6d" transform="translate(63.183594 0)"/>
      <use xlink:href="#DejaVuSans-70" transform="translate(160.595703 0)"/>
      <use xlink:href="#DejaVuSans-69" transform="translate(224.072266 0)"/>
      <use xlink:href="#DejaVuSans-72" transform="translate(251.855469 0)"/>
      <use xlink:href="#DejaVuSans-69" transform="translate(292.96875 0)"/>
      <use xlink:href="#DejaVuSans-63" transform="translate(320.751953 0)"/>
      <use xlink:href="#DejaVuSans-61" transform="translate(375.732422 0)"/>
      <use xlink:href="#DejaVuSans-6c" transform="translate(437.011719 0)"/>
     </g>
    </g>
    <g id="line2d_29">
     <path d="M 519.628812 51.614375 
L 529.628812 51.614375 
L 539.628812 51.614375 
" style="fill: none; stroke: #ffa500; stroke-width: 1.2; stroke-linecap: square"/>
    </g>
    <g id="text_18">
     <!-- CSR -->
     <g transform="translate(547.628812 55.114375) scale(0.1 -0.1)">
      <defs>
       <path id="DejaVuSans-43" d="M 4122 4306 
L 4122 3641 
Q 3803 3938 3442 4084 
Q 3081 4231 2675 4231 
Q 1875 4231 1450 3742 
Q 1025 3253 1025 2328 
Q 1025 1406 1450 917 
Q 1875 428 2675 428 
Q 3081 428 3442 575 
Q 3803 722 4122 1019 
L 4122 359 
Q 3791 134 3420 21 
Q 3050 -91 2638 -91 
Q 1578 -91 968 557 
Q 359 1206 359 2328 
Q 359 3453 968 4101 
Q 1578 4750 2638 4750 
Q 3056 4750 3426 4639 
Q 3797 4528 4122 4306 
z
" transform="scale(0.015625)"/>
       <path id="DejaVuSans-52" d="M 2841 2188 
Q 3044 2119 3236 1894 
Q 3428 1669 3622 1275 
L 4263 0 
L 3584 0 
L 2988 1197 
Q 2756 1666 2539 1819 
Q 2322 1972 1947 1972 
L 1259 1972 
L 1259 0 
L 628 0 
L 628 4666 
L 2053 4666 
Q 2853 4666 3247 4331 
Q 3641 3997 3641 3322 
Q 3641 2881 3436 2590 
Q 3231 2300 2841 2188 
z
M 1259 4147 
L 1259 2491 
L 2053 2491 
Q 2509 2491 2742 2702 
Q 2975 2913 2975 3322 
Q 2975 3731 2742 3939 
Q 2509 4147 2053 4147 
L 1259 4147 
z
" transform="scale(0.015625)"/>
      </defs>
      <use xlink:href="#DejaVuSans-43"/>
      <use xlink:href="#DejaVuSans-53" transform="translate(69.824219 0)"/>
      <use xlink:href="#DejaVuSans-52" transform="translate(133.300781 0)"/>
     </g>
    </g>
    <g id="line2d_30">
     <path d="M 519.628812 66.2925 
L 529.628812 66.2925 
L 539.628812 66.2925 
" style="fill: none; stroke: #008000; stroke-width: 1.2; stroke-linecap: square"/>
    </g>
    <g id="text_19">
     <!-- BISE -->
     <g transform="translate(547.628812 69.7925) scale(0.1 -0.1)">
      <defs>
       <path id="DejaVuSans-42" d="M 1259 2228 
L 1259 519 
L 2272 519 
Q 2781 519 3026 730 
Q 3272 941 3272 1375 
Q 3272 1813 3026 2020 
Q 2781 2228 2272 2228 
L 1259 2228 
z
M 1259 4147 
L 1259 2741 
L 2194 2741 
Q 2656 2741 2882 2914 
Q 3109 3088 3109 3444 
Q 3109 3797 2882 3972 
Q 2656 4147 2194 4147 
L 1259 4147 
z
M 628 4666 
L 2241 4666 
Q 2963 4666 3353 4366 
Q 3744 4066 3744 3513 
Q 3744 3084 3544 2831 
Q 3344 2578 2956 2516 
Q 3422 2416 3680 2098 
Q 3938 1781 3938 1306 
Q 3938 681 3513 340 
Q 3088 0 2303 0 
L 628 0 
L 628 4666 
z
" transform="scale(0.015625)"/>
       <path id="DejaVuSans-49" d="M 628 4666 
L 1259 4666 
L 1259 0 
L 628 0 
L 628 4666 
z
" transform="scale(0.015625)"/>
      </defs>
      <use xlink:href="#DejaVuSans-42"/>
      <use xlink:href="#DejaVuSans-49" transform="translate(68.603516 0)"/>
      <use xlink:href="#DejaVuSans-53" transform="translate(98.095703 0)"/>
      <use xlink:href="#DejaVuSans-45" transform="translate(161.572266 0)"/>
     </g>
    </g>
   </g>
  </g>
 </g>
 <defs>
  <clipPath id="pcc0ed38715">
   <rect x="45.1085" y="23.837813" width="558" height="277.2"/>
  </clipPath>
 </defs>
</svg>
