<?xml version="1.0" encoding="utf-8" standalone="no"?>
<!DOCTYPE svg PUBLIC "-//W3C//DTD SVG 1.1//EN"
  "http://www.w3.org/Graphics/SVG/1.1/DTD/svg11.dtd">
<svg xmlns:xlink="http://www.w3.org/1999/xlink" width="617.988412pt" height="340.668313pt" viewBox="0 0 617.988412 340.668313" xmlns="http://www.w3.org/2000/svg" version="1.1">
 <metadata>
  <rdf:RDF xmlns:dc="http://purl.org/dc/elements/1.1/" xmlns:cc="http://creativecommons.org/ns#" xmlns:rdf="http://www.w3.org/1999/02/22-rdf-syntax-ns#">
   <cc:Work>
    <dc:type rdf:resource="http://purl.org/dc/dcmitype/StillImage"/>
    <dc:date>2025-04-02T15:36:21.734652</dc:date>
    <dc:format>image/svg+xml</dc:format>
    <dc:creator>
     <cc:Agent>
      <dc:title>Matplotlib v3.10.1, https://matplotlib.org/</dc:title>
     </cc:Agent>
    </dc:creator>
   </cc:Work>
  </rdf:RDF>
 </metadata>
 <defs>
  <style type="text/css">*{stroke-linejoin: round; stroke-linecap: butt}</style>
 </defs>
 <g id="figure_1">
  <g id="patch_1">
   <path d="M 0 340.668313 
L 617.988412 340.668313 
L 617.988412 0 
L 0 0 
z
" style="fill: #ffffff"/>
  </g>
  <g id="axes_1">
   <g id="patch_2">
    <path d="M 45.1085 301.037813 
L 603.1085 301.037813 
L 603.1085 23.837813 
L 45.1085 23.837813 
z
" style="fill: #e5e5e5"/>
   </g>
   <g id="matplotlib.axis_1">
    <g id="xtick_1">
     <g id="line2d_1">
      <path d="M 70.472136 301.037813 
L 70.472136 23.837813 
" clip-path="url(#p92d989815c)" style="fill: none; stroke: #ffffff; stroke-width: 0.8; stroke-linecap: square"/>
     </g>
     <g id="line2d_2">
      <defs>
       <path id="mda4193f1a7" d="M 0 0 
L 0 4.8 
" style="stroke: #555555"/>
      </defs>
      <g>
       <use xlink:href="#mda4193f1a7" x="70.472136" y="301.037813" style="fill: #555555; stroke: #555555"/>
      </g>
     </g>
     <g id="text_1">
      <!-- 0 -->
      <g style="fill: #555555" transform="translate(67.672636 316.024438) scale(0.088 -0.088)">
       <defs>
        <path id="DejaVuSans-30" d="M 2034 4250 
Q 1547 4250 1301 3770 
Q 1056 3291 1056 2328 
Q 1056 1369 1301 889 
Q 1547 409 2034 409 
Q 2525 409 2770 889 
Q 3016 1369 3016 2328 
Q 3016 3291 2770 3770 
Q 2525 4250 2034 4250 
z
M 2034 4750 
Q 2819 4750 3233 4129 
Q 3647 3509 3647 2328 
Q 3647 1150 3233 529 
Q 2819 -91 2034 -91 
Q 1250 -91 836 529 
Q 422 1150 422 2328 
Q 422 3509 836 4129 
Q 1250 4750 2034 4750 
z
" transform="scale(0.015625)"/>
       </defs>
       <use xlink:href="#DejaVuSans-30"/>
      </g>
     </g>
    </g>
    <g id="xtick_2">
     <g id="line2d_3">
      <path d="M 157.725349 301.037813 
L 157.725349 23.837813 
" clip-path="url(#p92d989815c)" style="fill: none; stroke: #ffffff; stroke-width: 0.8; stroke-linecap: square"/>
     </g>
     <g id="line2d_4">
      <g>
       <use xlink:href="#mda4193f1a7" x="157.725349" y="301.037813" style="fill: #555555; stroke: #555555"/>
      </g>
     </g>
     <g id="text_2">
      <!-- 20000 -->
      <g style="fill: #555555" transform="translate(143.727849 316.024438) scale(0.088 -0.088)">
       <defs>
        <path id="DejaVuSans-32" d="M 1228 531 
L 3431 531 
L 3431 0 
L 469 0 
L 469 531 
Q 828 903 1448 1529 
Q 2069 2156 2228 2338 
Q 2531 2678 2651 2914 
Q 2772 3150 2772 3378 
Q 2772 3750 2511 3984 
Q 2250 4219 1831 4219 
Q 1534 4219 1204 4116 
Q 875 4013 500 3803 
L 500 4441 
Q 881 4594 1212 4672 
Q 1544 4750 1819 4750 
Q 2544 4750 2975 4387 
Q 3406 4025 3406 3419 
Q 3406 3131 3298 2873 
Q 3191 2616 2906 2266 
Q 2828 2175 2409 1742 
Q 1991 1309 1228 531 
z
" transform="scale(0.015625)"/>
       </defs>
       <use xlink:href="#DejaVuSans-32"/>
       <use xlink:href="#DejaVuSans-30" transform="translate(63.623047 0)"/>
       <use xlink:href="#DejaVuSans-30" transform="translate(127.246094 0)"/>
       <use xlink:href="#DejaVuSans-30" transform="translate(190.869141 0)"/>
       <use xlink:href="#DejaVuSans-30" transform="translate(254.492188 0)"/>
      </g>
     </g>
    </g>
    <g id="xtick_3">
     <g id="line2d_5">
      <path d="M 244.978562 301.037813 
L 244.978562 23.837813 
" clip-path="url(#p92d989815c)" style="fill: none; stroke: #ffffff; stroke-width: 0.8; stroke-linecap: square"/>
     </g>
     <g id="line2d_6">
      <g>
       <use xlink:href="#mda4193f1a7" x="244.978562" y="301.037813" style="fill: #555555; stroke: #555555"/>
      </g>
     </g>
     <g id="text_3">
      <!-- 40000 -->
      <g style="fill: #555555" transform="translate(230.981062 316.024438) scale(0.088 -0.088)">
       <defs>
        <path id="DejaVuSans-34" d="M 2419 4116 
L 825 1625 
L 2419 1625 
L 2419 4116 
z
M 2253 4666 
L 3047 4666 
L 3047 1625 
L 3713 1625 
L 3713 1100 
L 3047 1100 
L 3047 0 
L 2419 0 
L 2419 1100 
L 313 1100 
L 313 1709 
L 2253 4666 
z
" transform="scale(0.015625)"/>
       </defs>
       <use xlink:href="#DejaVuSans-34"/>
       <use xlink:href="#DejaVuSans-30" transform="translate(63.623047 0)"/>
       <use xlink:href="#DejaVuSans-30" transform="translate(127.246094 0)"/>
       <use xlink:href="#DejaVuSans-30" transform="translate(190.869141 0)"/>
       <use xlink:href="#DejaVuSans-30" transform="translate(254.492188 0)"/>
      </g>
     </g>
    </g>
    <g id="xtick_4">
     <g id="line2d_7">
      <path d="M 332.231774 301.037813 
L 332.231774 23.837813 
" clip-path="url(#p92d989815c)" style="fill: none; stroke: #ffffff; stroke-width: 0.8; stroke-linecap: square"/>
     </g>
     <g id="line2d_8">
      <g>
       <use xlink:href="#mda4193f1a7" x="332.231774" y="301.037813" style="fill: #555555; stroke: #555555"/>
      </g>
     </g>
     <g id="text_4">
      <!-- 60000 -->
      <g style="fill: #555555" transform="translate(318.234274 316.024438) scale(0.088 -0.088)">
       <defs>
        <path id="DejaVuSans-36" d="M 2113 2584 
Q 1688 2584 1439 2293 
Q 1191 2003 1191 1497 
Q 1191 994 1439 701 
Q 1688 409 2113 409 
Q 2538 409 2786 701 
Q 3034 994 3034 1497 
Q 3034 2003 2786 2293 
Q 2538 2584 2113 2584 
z
M 3366 4563 
L 3366 3988 
Q 3128 4100 2886 4159 
Q 2644 4219 2406 4219 
Q 1781 4219 1451 3797 
Q 1122 3375 1075 2522 
Q 1259 2794 1537 2939 
Q 1816 3084 2150 3084 
Q 2853 3084 3261 2657 
Q 3669 2231 3669 1497 
Q 3669 778 3244 343 
Q 2819 -91 2113 -91 
Q 1303 -91 875 529 
Q 447 1150 447 2328 
Q 447 3434 972 4092 
Q 1497 4750 2381 4750 
Q 2619 4750 2861 4703 
Q 3103 4656 3366 4563 
z
" transform="scale(0.015625)"/>
       </defs>
       <use xlink:href="#DejaVuSans-36"/>
       <use xlink:href="#DejaVuSans-30" transform="translate(63.623047 0)"/>
       <use xlink:href="#DejaVuSans-30" transform="translate(127.246094 0)"/>
       <use xlink:href="#DejaVuSans-30" transform="translate(190.869141 0)"/>
       <use xlink:href="#DejaVuSans-30" transform="translate(254.492188 0)"/>
      </g>
     </g>
    </g>
    <g id="xtick_5">
     <g id="line2d_9">
      <path d="M 419.484987 301.037813 
L 419.484987 23.837813 
" clip-path="url(#p92d989815c)" style="fill: none; stroke: #ffffff; stroke-width: 0.8; stroke-linecap: square"/>
     </g>
     <g id="line2d_10">
      <g>
       <use xlink:href="#mda4193f1a7" x="419.484987" y="301.037813" style="fill: #555555; stroke: #555555"/>
      </g>
     </g>
     <g id="text_5">
      <!-- 80000 -->
      <g style="fill: #555555" transform="translate(405.487487 316.024438) scale(0.088 -0.088)">
       <defs>
        <path id="DejaVuSans-38" d="M 2034 2216 
Q 1584 2216 1326 1975 
Q 1069 1734 1069 1313 
Q 1069 891 1326 650 
Q 1584 409 2034 409 
Q 2484 409 2743 651 
Q 3003 894 3003 1313 
Q 3003 1734 2745 1975 
Q 2488 2216 2034 2216 
z
M 1403 2484 
Q 997 2584 770 2862 
Q 544 3141 544 3541 
Q 544 4100 942 4425 
Q 1341 4750 2034 4750 
Q 2731 4750 3128 4425 
Q 3525 4100 3525 3541 
Q 3525 3141 3298 2862 
Q 3072 2584 2669 2484 
Q 3125 2378 3379 2068 
Q 3634 1759 3634 1313 
Q 3634 634 3220 271 
Q 2806 -91 2034 -91 
Q 1263 -91 848 271 
Q 434 634 434 1313 
Q 434 1759 690 2068 
Q 947 2378 1403 2484 
z
M 1172 3481 
Q 1172 3119 1398 2916 
Q 1625 2713 2034 2713 
Q 2441 2713 2670 2916 
Q 2900 3119 2900 3481 
Q 2900 3844 2670 4047 
Q 2441 4250 2034 4250 
Q 1625 4250 1398 4047 
Q 1172 3844 1172 3481 
z
" transform="scale(0.015625)"/>
       </defs>
       <use xlink:href="#DejaVuSans-38"/>
       <use xlink:href="#DejaVuSans-30" transform="translate(63.623047 0)"/>
       <use xlink:href="#DejaVuSans-30" transform="translate(127.246094 0)"/>
       <use xlink:href="#DejaVuSans-30" transform="translate(190.869141 0)"/>
       <use xlink:href="#DejaVuSans-30" transform="translate(254.492188 0)"/>
      </g>
     </g>
    </g>
    <g id="xtick_6">
     <g id="line2d_11">
      <path d="M 506.738199 301.037813 
L 506.738199 23.837813 
" clip-path="url(#p92d989815c)" style="fill: none; stroke: #ffffff; stroke-width: 0.8; stroke-linecap: square"/>
     </g>
     <g id="line2d_12">
      <g>
       <use xlink:href="#mda4193f1a7" x="506.738199" y="301.037813" style="fill: #555555; stroke: #555555"/>
      </g>
     </g>
     <g id="text_6">
      <!-- 100000 -->
      <g style="fill: #555555" transform="translate(489.941199 316.024438) scale(0.088 -0.088)">
       <defs>
        <path id="DejaVuSans-31" d="M 794 531 
L 1825 531 
L 1825 4091 
L 703 3866 
L 703 4441 
L 1819 4666 
L 2450 4666 
L 2450 531 
L 3481 531 
L 3481 0 
L 794 0 
L 794 531 
z
" transform="scale(0.015625)"/>
       </defs>
       <use xlink:href="#DejaVuSans-31"/>
       <use xlink:href="#DejaVuSans-30" transform="translate(63.623047 0)"/>
       <use xlink:href="#DejaVuSans-30" transform="translate(127.246094 0)"/>
       <use xlink:href="#DejaVuSans-30" transform="translate(190.869141 0)"/>
       <use xlink:href="#DejaVuSans-30" transform="translate(254.492188 0)"/>
       <use xlink:href="#DejaVuSans-30" transform="translate(318.115234 0)"/>
      </g>
     </g>
    </g>
    <g id="xtick_7">
     <g id="line2d_13">
      <path d="M 593.991412 301.037813 
L 593.991412 23.837813 
" clip-path="url(#p92d989815c)" style="fill: none; stroke: #ffffff; stroke-width: 0.8; stroke-linecap: square"/>
     </g>
     <g id="line2d_14">
      <g>
       <use xlink:href="#mda4193f1a7" x="593.991412" y="301.037813" style="fill: #555555; stroke: #555555"/>
      </g>
     </g>
     <g id="text_7">
      <!-- 120000 -->
      <g style="fill: #555555" transform="translate(577.194412 316.024438) scale(0.088 -0.088)">
       <use xlink:href="#DejaVuSans-31"/>
       <use xlink:href="#DejaVuSans-32" transform="translate(63.623047 0)"/>
       <use xlink:href="#DejaVuSans-30" transform="translate(127.246094 0)"/>
       <use xlink:href="#DejaVuSans-30" transform="translate(190.869141 0)"/>
       <use xlink:href="#DejaVuSans-30" transform="translate(254.492188 0)"/>
       <use xlink:href="#DejaVuSans-30" transform="translate(318.115234 0)"/>
      </g>
     </g>
    </g>
    <g id="text_8">
     <!-- Distance -->
     <g style="fill: #555555" transform="translate(297.8735 330.972688) scale(0.12 -0.12)">
      <defs>
       <path id="DejaVuSans-44" d="M 1259 4147 
L 1259 519 
L 2022 519 
Q 2988 519 3436 956 
Q 3884 1394 3884 2338 
Q 3884 3275 3436 3711 
Q 2988 4147 2022 4147 
L 1259 4147 
z
M 628 4666 
L 1925 4666 
Q 3281 4666 3915 4102 
Q 4550 3538 4550 2338 
Q 4550 1131 3912 565 
Q 3275 0 1925 0 
L 628 0 
L 628 4666 
z
" transform="scale(0.015625)"/>
       <path id="DejaVuSans-69" d="M 603 3500 
L 1178 3500 
L 1178 0 
L 603 0 
L 603 3500 
z
M 603 4863 
L 1178 4863 
L 1178 4134 
L 603 4134 
L 603 4863 
z
" transform="scale(0.015625)"/>
       <path id="DejaVuSans-73" d="M 2834 3397 
L 2834 2853 
Q 2591 2978 2328 3040 
Q 2066 3103 1784 3103 
Q 1356 3103 1142 2972 
Q 928 2841 928 2578 
Q 928 2378 1081 2264 
Q 1234 2150 1697 2047 
L 1894 2003 
Q 2506 1872 2764 1633 
Q 3022 1394 3022 966 
Q 3022 478 2636 193 
Q 2250 -91 1575 -91 
Q 1294 -91 989 -36 
Q 684 19 347 128 
L 347 722 
Q 666 556 975 473 
Q 1284 391 1588 391 
Q 1994 391 2212 530 
Q 2431 669 2431 922 
Q 2431 1156 2273 1281 
Q 2116 1406 1581 1522 
L 1381 1569 
Q 847 1681 609 1914 
Q 372 2147 372 2553 
Q 372 3047 722 3315 
Q 1072 3584 1716 3584 
Q 2034 3584 2315 3537 
Q 2597 3491 2834 3397 
z
" transform="scale(0.015625)"/>
       <path id="DejaVuSans-74" d="M 1172 4494 
L 1172 3500 
L 2356 3500 
L 2356 3053 
L 1172 3053 
L 1172 1153 
Q 1172 725 1289 603 
Q 1406 481 1766 481 
L 2356 481 
L 2356 0 
L 1766 0 
Q 1100 0 847 248 
Q 594 497 594 1153 
L 594 3053 
L 172 3053 
L 172 3500 
L 594 3500 
L 594 4494 
L 1172 4494 
z
" transform="scale(0.015625)"/>
       <path id="DejaVuSans-61" d="M 2194 1759 
Q 1497 1759 1228 1600 
Q 959 1441 959 1056 
Q 959 750 1161 570 
Q 1363 391 1709 391 
Q 2188 391 2477 730 
Q 2766 1069 2766 1631 
L 2766 1759 
L 2194 1759 
z
M 3341 1997 
L 3341 0 
L 2766 0 
L 2766 531 
Q 2569 213 2275 61 
Q 1981 -91 1556 -91 
Q 1019 -91 701 211 
Q 384 513 384 1019 
Q 384 1609 779 1909 
Q 1175 2209 1959 2209 
L 2766 2209 
L 2766 2266 
Q 2766 2663 2505 2880 
Q 2244 3097 1772 3097 
Q 1472 3097 1187 3025 
Q 903 2953 641 2809 
L 641 3341 
Q 956 3463 1253 3523 
Q 1550 3584 1831 3584 
Q 2591 3584 2966 3190 
Q 3341 2797 3341 1997 
z
" transform="scale(0.015625)"/>
       <path id="DejaVuSans-6e" d="M 3513 2113 
L 3513 0 
L 2938 0 
L 2938 2094 
Q 2938 2591 2744 2837 
Q 2550 3084 2163 3084 
Q 1697 3084 1428 2787 
Q 1159 2491 1159 1978 
L 1159 0 
L 581 0 
L 581 3500 
L 1159 3500 
L 1159 2956 
Q 1366 3272 1645 3428 
Q 1925 3584 2291 3584 
Q 2894 3584 3203 3211 
Q 3513 2838 3513 2113 
z
" transform="scale(0.015625)"/>
       <path id="DejaVuSans-63" d="M 3122 3366 
L 3122 2828 
Q 2878 2963 2633 3030 
Q 2388 3097 2138 3097 
Q 1578 3097 1268 2742 
Q 959 2388 959 1747 
Q 959 1106 1268 751 
Q 1578 397 2138 397 
Q 2388 397 2633 464 
Q 2878 531 3122 666 
L 3122 134 
Q 2881 22 2623 -34 
Q 2366 -91 2075 -91 
Q 1284 -91 818 406 
Q 353 903 353 1747 
Q 353 2603 823 3093 
Q 1294 3584 2113 3584 
Q 2378 3584 2631 3529 
Q 2884 3475 3122 3366 
z
" transform="scale(0.015625)"/>
       <path id="DejaVuSans-65" d="M 3597 1894 
L 3597 1613 
L 953 1613 
Q 991 1019 1311 708 
Q 1631 397 2203 397 
Q 2534 397 2845 478 
Q 3156 559 3463 722 
L 3463 178 
Q 3153 47 2828 -22 
Q 2503 -91 2169 -91 
Q 1331 -91 842 396 
Q 353 884 353 1716 
Q 353 2575 817 3079 
Q 1281 3584 2069 3584 
Q 2775 3584 3186 3129 
Q 3597 2675 3597 1894 
z
M 3022 2063 
Q 3016 2534 2758 2815 
Q 2500 3097 2075 3097 
Q 1594 3097 1305 2825 
Q 1016 2553 972 2059 
L 3022 2063 
z
" transform="scale(0.015625)"/>
      </defs>
      <use xlink:href="#DejaVuSans-44"/>
      <use xlink:href="#DejaVuSans-69" transform="translate(77.001953 0)"/>
      <use xlink:href="#DejaVuSans-73" transform="translate(104.785156 0)"/>
      <use xlink:href="#DejaVuSans-74" transform="translate(156.884766 0)"/>
      <use xlink:href="#DejaVuSans-61" transform="translate(196.09375 0)"/>
      <use xlink:href="#DejaVuSans-6e" transform="translate(257.373047 0)"/>
      <use xlink:href="#DejaVuSans-63" transform="translate(320.751953 0)"/>
      <use xlink:href="#DejaVuSans-65" transform="translate(375.732422 0)"/>
     </g>
    </g>
   </g>
   <g id="matplotlib.axis_2">
    <g id="ytick_1">
     <g id="line2d_15">
      <path d="M 45.1085 288.437813 
L 603.1085 288.437813 
" clip-path="url(#p92d989815c)" style="fill: none; stroke: #ffffff; stroke-width: 0.8; stroke-linecap: square"/>
     </g>
     <g id="line2d_16">
      <defs>
       <path id="mf2459cc455" d="M 0 0 
L -4.8 0 
" style="stroke: #555555"/>
      </defs>
      <g>
       <use xlink:href="#mf2459cc455" x="45.1085" y="288.437813" style="fill: #555555; stroke: #555555"/>
      </g>
     </g>
     <g id="text_9">
      <!-- 0.0 -->
      <g style="fill: #555555" transform="translate(22.81375 291.781125) scale(0.088 -0.088)">
       <defs>
        <path id="DejaVuSans-2e" d="M 684 794 
L 1344 794 
L 1344 0 
L 684 0 
L 684 794 
z
" transform="scale(0.015625)"/>
       </defs>
       <use xlink:href="#DejaVuSans-30"/>
       <use xlink:href="#DejaVuSans-2e" transform="translate(63.623047 0)"/>
       <use xlink:href="#DejaVuSans-30" transform="translate(95.410156 0)"/>
      </g>
     </g>
    </g>
    <g id="ytick_2">
     <g id="line2d_17">
      <path d="M 45.1085 229.016726 
L 603.1085 229.016726 
" clip-path="url(#p92d989815c)" style="fill: none; stroke: #ffffff; stroke-width: 0.8; stroke-linecap: square"/>
     </g>
     <g id="line2d_18">
      <g>
       <use xlink:href="#mf2459cc455" x="45.1085" y="229.016726" style="fill: #555555; stroke: #555555"/>
      </g>
     </g>
     <g id="text_10">
      <!-- 0.5 -->
      <g style="fill: #555555" transform="translate(22.81375 232.360038) scale(0.088 -0.088)">
       <defs>
        <path id="DejaVuSans-35" d="M 691 4666 
L 3169 4666 
L 3169 4134 
L 1269 4134 
L 1269 2991 
Q 1406 3038 1543 3061 
Q 1681 3084 1819 3084 
Q 2600 3084 3056 2656 
Q 3513 2228 3513 1497 
Q 3513 744 3044 326 
Q 2575 -91 1722 -91 
Q 1428 -91 1123 -41 
Q 819 9 494 109 
L 494 744 
Q 775 591 1075 516 
Q 1375 441 1709 441 
Q 2250 441 2565 725 
Q 2881 1009 2881 1497 
Q 2881 1984 2565 2268 
Q 2250 2553 1709 2553 
Q 1456 2553 1204 2497 
Q 953 2441 691 2322 
L 691 4666 
z
" transform="scale(0.015625)"/>
       </defs>
       <use xlink:href="#DejaVuSans-30"/>
       <use xlink:href="#DejaVuSans-2e" transform="translate(63.623047 0)"/>
       <use xlink:href="#DejaVuSans-35" transform="translate(95.410156 0)"/>
      </g>
     </g>
    </g>
    <g id="ytick_3">
     <g id="line2d_19">
      <path d="M 45.1085 169.595639 
L 603.1085 169.595639 
" clip-path="url(#p92d989815c)" style="fill: none; stroke: #ffffff; stroke-width: 0.8; stroke-linecap: square"/>
     </g>
     <g id="line2d_20">
      <g>
       <use xlink:href="#mf2459cc455" x="45.1085" y="169.595639" style="fill: #555555; stroke: #555555"/>
      </g>
     </g>
     <g id="text_11">
      <!-- 1.0 -->
      <g style="fill: #555555" transform="translate(22.81375 172.938952) scale(0.088 -0.088)">
       <use xlink:href="#DejaVuSans-31"/>
       <use xlink:href="#DejaVuSans-2e" transform="translate(63.623047 0)"/>
       <use xlink:href="#DejaVuSans-30" transform="translate(95.410156 0)"/>
      </g>
     </g>
    </g>
    <g id="ytick_4">
     <g id="line2d_21">
      <path d="M 45.1085 110.174553 
L 603.1085 110.174553 
" clip-path="url(#p92d989815c)" style="fill: none; stroke: #ffffff; stroke-width: 0.8; stroke-linecap: square"/>
     </g>
     <g id="line2d_22">
      <g>
       <use xlink:href="#mf2459cc455" x="45.1085" y="110.174553" style="fill: #555555; stroke: #555555"/>
      </g>
     </g>
     <g id="text_12">
      <!-- 1.5 -->
      <g style="fill: #555555" transform="translate(22.81375 113.517865) scale(0.088 -0.088)">
       <use xlink:href="#DejaVuSans-31"/>
       <use xlink:href="#DejaVuSans-2e" transform="translate(63.623047 0)"/>
       <use xlink:href="#DejaVuSans-35" transform="translate(95.410156 0)"/>
      </g>
     </g>
    </g>
    <g id="ytick_5">
     <g id="line2d_23">
      <path d="M 45.1085 50.753466 
L 603.1085 50.753466 
" clip-path="url(#p92d989815c)" style="fill: none; stroke: #ffffff; stroke-width: 0.8; stroke-linecap: square"/>
     </g>
     <g id="line2d_24">
      <g>
       <use xlink:href="#mf2459cc455" x="45.1085" y="50.753466" style="fill: #555555; stroke: #555555"/>
      </g>
     </g>
     <g id="text_13">
      <!-- 2.0 -->
      <g style="fill: #555555" transform="translate(22.81375 54.096778) scale(0.088 -0.088)">
       <use xlink:href="#DejaVuSans-32"/>
       <use xlink:href="#DejaVuSans-2e" transform="translate(63.623047 0)"/>
       <use xlink:href="#DejaVuSans-30" transform="translate(95.410156 0)"/>
      </g>
     </g>
    </g>
    <g id="text_14">
     <!-- Density -->
     <g style="fill: #555555" transform="translate(16.318125 185.248125) rotate(-90) scale(0.12 -0.12)">
      <defs>
       <path id="DejaVuSans-79" d="M 2059 -325 
Q 1816 -950 1584 -1140 
Q 1353 -1331 966 -1331 
L 506 -1331 
L 506 -850 
L 844 -850 
Q 1081 -850 1212 -737 
Q 1344 -625 1503 -206 
L 1606 56 
L 191 3500 
L 800 3500 
L 1894 763 
L 2988 3500 
L 3597 3500 
L 2059 -325 
z
" transform="scale(0.015625)"/>
      </defs>
      <use xlink:href="#DejaVuSans-44"/>
      <use xlink:href="#DejaVuSans-65" transform="translate(77.001953 0)"/>
      <use xlink:href="#DejaVuSans-6e" transform="translate(138.525391 0)"/>
      <use xlink:href="#DejaVuSans-73" transform="translate(201.904297 0)"/>
      <use xlink:href="#DejaVuSans-69" transform="translate(254.003906 0)"/>
      <use xlink:href="#DejaVuSans-74" transform="translate(281.787109 0)"/>
      <use xlink:href="#DejaVuSans-79" transform="translate(320.996094 0)"/>
     </g>
    </g>
    <g id="text_15">
     <!-- 1e−5 -->
     <g style="fill: #555555" transform="translate(45.1085 20.837813) scale(0.088 -0.088)">
      <defs>
       <path id="DejaVuSans-2212" d="M 678 2272 
L 4684 2272 
L 4684 1741 
L 678 1741 
L 678 2272 
z
" transform="scale(0.015625)"/>
      </defs>
      <use xlink:href="#DejaVuSans-31"/>
      <use xlink:href="#DejaVuSans-65" transform="translate(63.623047 0)"/>
      <use xlink:href="#DejaVuSans-2212" transform="translate(125.146484 0)"/>
      <use xlink:href="#DejaVuSans-35" transform="translate(208.935547 0)"/>
     </g>
    </g>
   </g>
   <g id="FillBetweenPolyCollection_1">
    <defs>
     <path id="m03e746d2b3" d="M 70.472136 -67.655711 
L 70.472136 -67.655711 
L 80.824641 -98.426983 
L 91.177146 -130.075493 
L 101.52965 -153.596438 
L 111.882155 -171.7603 
L 122.23466 -188.013915 
L 132.587164 -207.523341 
L 142.939669 -227.443344 
L 153.292173 -239.158543 
L 163.644678 -245.230987 
L 173.997183 -251.780204 
L 184.349687 -257.611075 
L 194.702192 -262.460588 
L 205.054697 -265.774492 
L 215.407201 -265.377895 
L 225.759706 -260.286977 
L 236.112211 -252.768894 
L 246.464715 -248.171206 
L 256.81722 -246.913182 
L 267.169724 -248.508875 
L 277.522229 -246.449132 
L 287.874734 -235.447945 
L 298.227238 -220.616943 
L 308.579743 -206.988675 
L 318.932248 -195.681737 
L 329.284752 -186.105805 
L 339.637257 -181.711054 
L 349.989762 -177.978234 
L 360.342266 -168.616122 
L 370.694771 -154.01976 
L 381.047276 -138.506009 
L 391.39978 -121.949155 
L 401.752285 -105.397216 
L 412.104789 -89.760424 
L 422.457294 -77.50454 
L 432.809799 -69.58019 
L 443.162303 -63.467843 
L 453.514808 -58.006346 
L 463.867313 -54.623401 
L 474.219817 -53.401978 
L 484.572322 -52.830379 
L 494.924827 -52.404138 
L 505.277331 -52.249292 
L 515.629836 -52.23112 
L 525.98234 -52.230506 
L 536.334845 -52.2305 
L 546.68735 -52.2305 
L 557.039854 -52.2305 
L 567.392359 -52.2305 
L 577.744864 -52.2305 
L 577.744864 -52.2305 
L 577.744864 -52.2305 
L 567.392359 -52.2305 
L 557.039854 -52.2305 
L 546.68735 -52.2305 
L 536.334845 -52.2305 
L 525.98234 -52.230506 
L 515.629836 -52.23112 
L 505.277331 -52.249292 
L 494.924827 -52.404138 
L 484.572322 -52.830379 
L 474.219817 -53.401978 
L 463.867313 -54.623401 
L 453.514808 -58.006346 
L 443.162303 -63.467843 
L 432.809799 -69.58019 
L 422.457294 -77.50454 
L 412.104789 -89.760424 
L 401.752285 -105.397216 
L 391.39978 -121.949155 
L 381.047276 -138.506009 
L 370.694771 -154.01976 
L 360.342266 -168.616122 
L 349.989762 -177.978234 
L 339.637257 -181.711054 
L 329.284752 -186.105805 
L 318.932248 -195.681737 
L 308.579743 -206.988675 
L 298.227238 -220.616943 
L 287.874734 -235.447945 
L 277.522229 -246.449132 
L 267.169724 -248.508875 
L 256.81722 -246.913182 
L 246.464715 -248.171206 
L 236.112211 -252.768894 
L 225.759706 -260.286977 
L 215.407201 -265.377895 
L 205.054697 -265.774492 
L 194.702192 -262.460588 
L 184.349687 -257.611075 
L 173.997183 -251.780204 
L 163.644678 -245.230987 
L 153.292173 -239.158543 
L 142.939669 -227.443344 
L 132.587164 -207.523341 
L 122.23466 -188.013915 
L 111.882155 -171.7603 
L 101.52965 -153.596438 
L 91.177146 -130.075493 
L 80.824641 -98.426983 
L 70.472136 -67.655711 
z
" style="stroke: #0000ff; stroke-opacity: 0.2; stroke-width: 0.8"/>
    </defs>
    <g clip-path="url(#p92d989815c)">
     <use xlink:href="#m03e746d2b3" x="0" y="340.668313" style="fill: #0000ff; fill-opacity: 0.2; stroke: #0000ff; stroke-opacity: 0.2; stroke-width: 0.8"/>
    </g>
   </g>
   <g id="FillBetweenPolyCollection_2">
    <defs>
     <path id="m0d8edfcfd8" d="M 70.472136 -61.821182 
L 70.472136 -60.423939 
L 80.824641 -77.253222 
L 91.177146 -98.544204 
L 101.52965 -118.812469 
L 111.882155 -137.944859 
L 122.23466 -154.841576 
L 132.587164 -169.621115 
L 142.939669 -183.071612 
L 153.292173 -195.212545 
L 163.644678 -206.022649 
L 173.997183 -214.70724 
L 184.349687 -222.530826 
L 194.702192 -228.919649 
L 205.054697 -233.940264 
L 215.407201 -237.282482 
L 225.759706 -240.383206 
L 236.112211 -241.946119 
L 246.464715 -242.588235 
L 256.81722 -242.963803 
L 267.169724 -241.919954 
L 277.522229 -239.425057 
L 287.874734 -235.139501 
L 298.227238 -228.98967 
L 308.579743 -221.088114 
L 318.932248 -212.722385 
L 329.284752 -202.950458 
L 339.637257 -192.101967 
L 349.989762 -180.533487 
L 360.342266 -167.685188 
L 370.694771 -156.637859 
L 381.047276 -143.499651 
L 391.39978 -130.924168 
L 401.752285 -117.760682 
L 412.104789 -106.08552 
L 422.457294 -95.288028 
L 432.809799 -85.824253 
L 443.162303 -77.605054 
L 453.514808 -70.425162 
L 463.867313 -64.841615 
L 474.219817 -60.925795 
L 484.572322 -58.054163 
L 494.924827 -55.967322 
L 505.277331 -54.529063 
L 515.629836 -53.496461 
L 525.98234 -52.847271 
L 536.334845 -52.47307 
L 546.68735 -52.296423 
L 557.039854 -52.238802 
L 567.392359 -52.230799 
L 577.744864 -52.230503 
L 577.744864 -52.258084 
L 577.744864 -52.258084 
L 567.392359 -52.358486 
L 557.039854 -52.606907 
L 546.68735 -53.043069 
L 536.334845 -53.701661 
L 525.98234 -54.741851 
L 515.629836 -56.228902 
L 505.277331 -58.454299 
L 494.924827 -61.044842 
L 484.572322 -64.539531 
L 474.219817 -69.150457 
L 463.867313 -75.073073 
L 453.514808 -83.807544 
L 443.162303 -94.115674 
L 432.809799 -105.031596 
L 422.457294 -116.82691 
L 412.104789 -127.329598 
L 401.752285 -140.264744 
L 391.39978 -153.796121 
L 381.047276 -167.395658 
L 370.694771 -180.190292 
L 360.342266 -191.947657 
L 349.989762 -203.172736 
L 339.637257 -212.613258 
L 329.284752 -221.738145 
L 318.932248 -229.80954 
L 308.579743 -236.120279 
L 298.227238 -241.153216 
L 287.874734 -246.725796 
L 277.522229 -251.431222 
L 267.169724 -255.973653 
L 256.81722 -259.846304 
L 246.464715 -262.704042 
L 236.112211 -264.170304 
L 225.759706 -263.76583 
L 215.407201 -262.091821 
L 205.054697 -259.243257 
L 194.702192 -253.671583 
L 184.349687 -246.582072 
L 173.997183 -237.006048 
L 163.644678 -225.648848 
L 153.292173 -213.276903 
L 142.939669 -198.978635 
L 132.587164 -183.119372 
L 122.23466 -165.931139 
L 111.882155 -146.833254 
L 101.52965 -125.734341 
L 91.177146 -102.910046 
L 80.824641 -80.000378 
L 70.472136 -61.821182 
z
" style="stroke: #ffa500; stroke-opacity: 0.2; stroke-width: 0.8"/>
    </defs>
    <g clip-path="url(#p92d989815c)">
     <use xlink:href="#m0d8edfcfd8" x="0" y="340.668313" style="fill: #ffa500; fill-opacity: 0.2; stroke: #ffa500; stroke-opacity: 0.2; stroke-width: 0.8"/>
    </g>
   </g>
   <g id="FillBetweenPolyCollection_3">
    <defs>
     <path id="m066276fab3" d="M 70.472136 -65.291701 
L 70.472136 -62.59833 
L 80.824641 -83.104925 
L 91.177146 -110.330051 
L 101.52965 -138.184939 
L 111.882155 -164.70476 
L 122.23466 -188.858027 
L 132.587164 -211.419463 
L 142.939669 -230.927035 
L 153.292173 -246.572759 
L 163.644678 -259.545943 
L 173.997183 -268.64692 
L 184.349687 -274.688021 
L 194.702192 -278.252522 
L 205.054697 -277.798439 
L 215.407201 -274.544245 
L 225.759706 -268.932147 
L 236.112211 -260.924319 
L 246.464715 -250.140038 
L 256.81722 -238.497184 
L 267.169724 -225.79898 
L 277.522229 -212.158479 
L 287.874734 -198.308323 
L 298.227238 -184.623924 
L 308.579743 -170.759504 
L 318.932248 -158.090987 
L 329.284752 -146.215106 
L 339.637257 -135.138418 
L 349.989762 -125.005018 
L 360.342266 -115.682171 
L 370.694771 -107.417392 
L 381.047276 -100.098442 
L 391.39978 -93.169961 
L 401.752285 -87.079496 
L 412.104789 -81.750611 
L 422.457294 -76.958601 
L 432.809799 -73.045309 
L 443.162303 -69.522979 
L 453.514808 -66.486308 
L 463.867313 -63.964985 
L 474.219817 -61.770555 
L 484.572322 -60.202066 
L 494.924827 -58.629168 
L 505.277331 -57.436972 
L 515.629836 -56.4484 
L 525.98234 -55.582461 
L 536.334845 -54.837806 
L 546.68735 -54.209885 
L 557.039854 -53.734806 
L 567.392359 -53.355499 
L 577.744864 -53.119512 
L 577.744864 -55.876766 
L 577.744864 -55.876766 
L 567.392359 -56.637135 
L 557.039854 -57.511757 
L 546.68735 -58.474441 
L 536.334845 -59.456247 
L 525.98234 -60.945789 
L 515.629836 -62.609555 
L 505.277331 -64.447508 
L 494.924827 -66.330228 
L 484.572322 -68.393767 
L 474.219817 -71.315797 
L 463.867313 -74.605026 
L 453.514808 -78.273428 
L 443.162303 -82.420322 
L 432.809799 -86.710854 
L 422.457294 -91.924413 
L 412.104789 -97.567074 
L 401.752285 -103.745312 
L 391.39978 -110.203058 
L 381.047276 -118.120985 
L 370.694771 -126.919135 
L 360.342266 -135.287284 
L 349.989762 -145.191836 
L 339.637257 -155.640764 
L 329.284752 -167.145384 
L 318.932248 -179.172629 
L 308.579743 -190.836583 
L 298.227238 -203.259469 
L 287.874734 -216.695297 
L 277.522229 -229.31334 
L 267.169724 -241.301696 
L 256.81722 -253.744282 
L 246.464715 -265.737374 
L 236.112211 -275.791678 
L 225.759706 -285.586614 
L 215.407201 -293.939455 
L 205.054697 -299.83487 
L 194.702192 -304.2305 
L 184.349687 -303.512289 
L 173.997183 -300.371067 
L 163.644678 -291.521494 
L 153.292173 -280.287837 
L 142.939669 -264.109691 
L 132.587164 -243.793437 
L 122.23466 -218.72852 
L 111.882155 -190.136869 
L 101.52965 -158.727295 
L 91.177146 -124.757806 
L 80.824641 -90.907123 
L 70.472136 -65.291701 
z
" style="stroke: #008000; stroke-opacity: 0.2; stroke-width: 0.8"/>
    </defs>
    <g clip-path="url(#p92d989815c)">
     <use xlink:href="#m066276fab3" x="0" y="340.668313" style="fill: #008000; fill-opacity: 0.2; stroke: #008000; stroke-opacity: 0.2; stroke-width: 0.8"/>
    </g>
   </g>
   <g id="line2d_25">
    <path d="M 70.472136 273.012601 
L 80.824641 242.241329 
L 91.177146 210.59282 
L 101.52965 187.071874 
L 111.882155 168.908012 
L 122.23466 152.654398 
L 132.587164 133.144971 
L 142.939669 113.224969 
L 153.292173 101.509769 
L 163.644678 95.437325 
L 173.997183 88.888109 
L 184.349687 83.057238 
L 194.702192 78.207724 
L 205.054697 74.893821 
L 215.407201 75.290417 
L 225.759706 80.381335 
L 236.112211 87.899419 
L 246.464715 92.497106 
L 256.81722 93.75513 
L 267.169724 92.159437 
L 277.522229 94.219181 
L 287.874734 105.220368 
L 298.227238 120.051369 
L 308.579743 133.679637 
L 318.932248 144.986575 
L 329.284752 154.562508 
L 339.637257 158.957259 
L 349.989762 162.690079 
L 360.342266 172.05219 
L 370.694771 186.648553 
L 381.047276 202.162304 
L 391.39978 218.719157 
L 401.752285 235.271096 
L 412.104789 250.907888 
L 422.457294 263.163773 
L 432.809799 271.088122 
L 443.162303 277.200469 
L 453.514808 282.661967 
L 463.867313 286.044911 
L 474.219817 287.266334 
L 484.572322 287.837934 
L 494.924827 288.264174 
L 505.277331 288.419021 
L 515.629836 288.437193 
L 525.98234 288.437807 
L 536.334845 288.437812 
L 546.68735 288.437812 
L 557.039854 288.437813 
L 567.392359 288.437813 
L 577.744864 288.437813 
" clip-path="url(#p92d989815c)" style="fill: none; stroke: #0000ff; stroke-width: 1.2; stroke-linecap: square"/>
   </g>
   <g id="line2d_26">
    <path d="M 70.472136 279.586139 
L 80.824641 262.1833 
L 91.177146 240.005185 
L 101.52965 218.368491 
L 111.882155 198.475039 
L 122.23466 180.460893 
L 132.587164 164.224445 
L 142.939669 149.606914 
L 153.292173 136.591916 
L 163.644678 125.24472 
L 173.997183 115.462132 
L 184.349687 107.163706 
L 194.702192 100.389971 
L 205.054697 95.122873 
L 215.407201 91.256186 
L 225.759706 88.688884 
L 236.112211 87.441991 
L 246.464715 87.547994 
L 256.81722 88.925145 
L 267.169724 91.434329 
L 277.522229 94.991308 
L 287.874734 99.592209 
L 298.227238 105.269969 
L 308.579743 111.983587 
L 318.932248 119.698257 
L 329.284752 128.449887 
L 339.637257 138.140785 
L 349.989762 148.687551 
L 360.342266 160.122977 
L 370.694771 172.310057 
L 381.047276 185.192267 
L 391.39978 198.628908 
L 401.752285 212.095158 
L 412.104789 224.519916 
L 422.457294 235.552858 
L 432.809799 245.691019 
L 443.162303 255.236603 
L 453.514808 263.870942 
L 463.867313 270.808997 
L 474.219817 275.897159 
L 484.572322 279.627093 
L 494.924827 282.388771 
L 505.277331 284.451536 
L 515.629836 285.951329 
L 525.98234 286.99083 
L 536.334845 287.676776 
L 546.68735 288.091595 
L 557.039854 288.31137 
L 567.392359 288.405282 
L 577.744864 288.432826 
" clip-path="url(#p92d989815c)" style="fill: none; stroke: #ffa500; stroke-width: 1.2; stroke-linecap: square"/>
   </g>
   <g id="line2d_27">
    <path d="M 70.472136 276.780259 
L 80.824641 253.620944 
L 91.177146 223.121627 
L 101.52965 192.365933 
L 111.882155 163.579517 
L 122.23466 137.318443 
L 132.587164 114.053722 
L 142.939669 94.27315 
L 153.292173 78.114345 
L 163.644678 65.620359 
L 173.997183 56.864419 
L 184.349687 51.796815 
L 194.702192 50.23079 
L 205.054697 51.764811 
L 215.407201 56.173542 
L 225.759706 63.031096 
L 236.112211 71.880218 
L 246.464715 82.359549 
L 256.81722 94.097208 
L 267.169724 106.682311 
L 277.522229 119.715014 
L 287.874734 132.85338 
L 298.227238 146.084231 
L 308.579743 159.080533 
L 318.932248 171.521245 
L 329.284752 183.408883 
L 339.637257 194.637401 
L 349.989762 205.157001 
L 360.342266 214.797313 
L 370.694771 223.567383 
L 381.047276 231.60284 
L 391.39978 238.918366 
L 401.752285 245.46687 
L 412.104789 251.309895 
L 422.457294 256.4895 
L 432.809799 261.03553 
L 443.162303 265.032408 
L 453.514808 268.552952 
L 463.867313 271.621709 
L 474.219817 274.244429 
L 484.572322 276.490944 
L 494.924827 278.439522 
L 505.277331 280.103365 
L 515.629836 281.517082 
L 525.98234 282.721362 
L 536.334845 283.728265 
L 546.68735 284.575504 
L 557.039854 285.27533 
L 567.392359 285.849634 
L 577.744864 286.340097 
" clip-path="url(#p92d989815c)" style="fill: none; stroke: #008000; stroke-width: 1.2; stroke-linecap: square"/>
   </g>
   <g id="patch_3">
    <path d="M 45.1085 301.037813 
L 45.1085 23.837812 
" style="fill: none; stroke: #ffffff; stroke-linejoin: miter; stroke-linecap: square"/>
   </g>
   <g id="patch_4">
    <path d="M 603.1085 301.037813 
L 603.1085 23.837812 
" style="fill: none; stroke: #ffffff; stroke-linejoin: miter; stroke-linecap: square"/>
   </g>
   <g id="patch_5">
    <path d="M 45.1085 301.037813 
L 603.1085 301.037813 
" style="fill: none; stroke: #ffffff; stroke-linejoin: miter; stroke-linecap: square"/>
   </g>
   <g id="patch_6">
    <path d="M 45.1085 23.837813 
L 603.1085 23.837813 
" style="fill: none; stroke: #ffffff; stroke-linejoin: miter; stroke-linecap: square"/>
   </g>
   <g id="text_16">
    <!-- Pairwise Distance Density for Time Slice 1066 -->
    <g transform="translate(163.8435 17.837813) scale(0.14 -0.14)">
     <defs>
      <path id="DejaVuSans-50" d="M 1259 4147 
L 1259 2394 
L 2053 2394 
Q 2494 2394 2734 2622 
Q 2975 2850 2975 3272 
Q 2975 3691 2734 3919 
Q 2494 4147 2053 4147 
L 1259 4147 
z
M 628 4666 
L 2053 4666 
Q 2838 4666 3239 4311 
Q 3641 3956 3641 3272 
Q 3641 2581 3239 2228 
Q 2838 1875 2053 1875 
L 1259 1875 
L 1259 0 
L 628 0 
L 628 4666 
z
" transform="scale(0.015625)"/>
      <path id="DejaVuSans-72" d="M 2631 2963 
Q 2534 3019 2420 3045 
Q 2306 3072 2169 3072 
Q 1681 3072 1420 2755 
Q 1159 2438 1159 1844 
L 1159 0 
L 581 0 
L 581 3500 
L 1159 3500 
L 1159 2956 
Q 1341 3275 1631 3429 
Q 1922 3584 2338 3584 
Q 2397 3584 2469 3576 
Q 2541 3569 2628 3553 
L 2631 2963 
z
" transform="scale(0.015625)"/>
      <path id="DejaVuSans-77" d="M 269 3500 
L 844 3500 
L 1563 769 
L 2278 3500 
L 2956 3500 
L 3675 769 
L 4391 3500 
L 4966 3500 
L 4050 0 
L 3372 0 
L 2619 2869 
L 1863 0 
L 1184 0 
L 269 3500 
z
" transform="scale(0.015625)"/>
      <path id="DejaVuSans-20" transform="scale(0.015625)"/>
      <path id="DejaVuSans-66" d="M 2375 4863 
L 2375 4384 
L 1825 4384 
Q 1516 4384 1395 4259 
Q 1275 4134 1275 3809 
L 1275 3500 
L 2222 3500 
L 2222 3053 
L 1275 3053 
L 1275 0 
L 697 0 
L 697 3053 
L 147 3053 
L 147 3500 
L 697 3500 
L 697 3744 
Q 697 4328 969 4595 
Q 1241 4863 1831 4863 
L 2375 4863 
z
" transform="scale(0.015625)"/>
      <path id="DejaVuSans-6f" d="M 1959 3097 
Q 1497 3097 1228 2736 
Q 959 2375 959 1747 
Q 959 1119 1226 758 
Q 1494 397 1959 397 
Q 2419 397 2687 759 
Q 2956 1122 2956 1747 
Q 2956 2369 2687 2733 
Q 2419 3097 1959 3097 
z
M 1959 3584 
Q 2709 3584 3137 3096 
Q 3566 2609 3566 1747 
Q 3566 888 3137 398 
Q 2709 -91 1959 -91 
Q 1206 -91 779 398 
Q 353 888 353 1747 
Q 353 2609 779 3096 
Q 1206 3584 1959 3584 
z
" transform="scale(0.015625)"/>
      <path id="DejaVuSans-54" d="M -19 4666 
L 3928 4666 
L 3928 4134 
L 2272 4134 
L 2272 0 
L 1638 0 
L 1638 4134 
L -19 4134 
L -19 4666 
z
" transform="scale(0.015625)"/>
      <path id="DejaVuSans-6d" d="M 3328 2828 
Q 3544 3216 3844 3400 
Q 4144 3584 4550 3584 
Q 5097 3584 5394 3201 
Q 5691 2819 5691 2113 
L 5691 0 
L 5113 0 
L 5113 2094 
Q 5113 2597 4934 2840 
Q 4756 3084 4391 3084 
Q 3944 3084 3684 2787 
Q 3425 2491 3425 1978 
L 3425 0 
L 2847 0 
L 2847 2094 
Q 2847 2600 2669 2842 
Q 2491 3084 2119 3084 
Q 1678 3084 1418 2786 
Q 1159 2488 1159 1978 
L 1159 0 
L 581 0 
L 581 3500 
L 1159 3500 
L 1159 2956 
Q 1356 3278 1631 3431 
Q 1906 3584 2284 3584 
Q 2666 3584 2933 3390 
Q 3200 3197 3328 2828 
z
" transform="scale(0.015625)"/>
      <path id="DejaVuSans-53" d="M 3425 4513 
L 3425 3897 
Q 3066 4069 2747 4153 
Q 2428 4238 2131 4238 
Q 1616 4238 1336 4038 
Q 1056 3838 1056 3469 
Q 1056 3159 1242 3001 
Q 1428 2844 1947 2747 
L 2328 2669 
Q 3034 2534 3370 2195 
Q 3706 1856 3706 1288 
Q 3706 609 3251 259 
Q 2797 -91 1919 -91 
Q 1588 -91 1214 -16 
Q 841 59 441 206 
L 441 856 
Q 825 641 1194 531 
Q 1563 422 1919 422 
Q 2459 422 2753 634 
Q 3047 847 3047 1241 
Q 3047 1584 2836 1778 
Q 2625 1972 2144 2069 
L 1759 2144 
Q 1053 2284 737 2584 
Q 422 2884 422 3419 
Q 422 4038 858 4394 
Q 1294 4750 2059 4750 
Q 2388 4750 2728 4690 
Q 3069 4631 3425 4513 
z
" transform="scale(0.015625)"/>
      <path id="DejaVuSans-6c" d="M 603 4863 
L 1178 4863 
L 1178 0 
L 603 0 
L 603 4863 
z
" transform="scale(0.015625)"/>
     </defs>
     <use xlink:href="#DejaVuSans-50"/>
     <use xlink:href="#DejaVuSans-61" transform="translate(55.802734 0)"/>
     <use xlink:href="#DejaVuSans-69" transform="translate(117.082031 0)"/>
     <use xlink:href="#DejaVuSans-72" transform="translate(144.865234 0)"/>
     <use xlink:href="#DejaVuSans-77" transform="translate(185.978516 0)"/>
     <use xlink:href="#DejaVuSans-69" transform="translate(267.765625 0)"/>
     <use xlink:href="#DejaVuSans-73" transform="translate(295.548828 0)"/>
     <use xlink:href="#DejaVuSans-65" transform="translate(347.648438 0)"/>
     <use xlink:href="#DejaVuSans-20" transform="translate(409.171875 0)"/>
     <use xlink:href="#DejaVuSans-44" transform="translate(440.958984 0)"/>
     <use xlink:href="#DejaVuSans-69" transform="translate(517.960938 0)"/>
     <use xlink:href="#DejaVuSans-73" transform="translate(545.744141 0)"/>
     <use xlink:href="#DejaVuSans-74" transform="translate(597.84375 0)"/>
     <use xlink:href="#DejaVuSans-61" transform="translate(637.052734 0)"/>
     <use xlink:href="#DejaVuSans-6e" transform="translate(698.332031 0)"/>
     <use xlink:href="#DejaVuSans-63" transform="translate(761.710938 0)"/>
     <use xlink:href="#DejaVuSans-65" transform="translate(816.691406 0)"/>
     <use xlink:href="#DejaVuSans-20" transform="translate(878.214844 0)"/>
     <use xlink:href="#DejaVuSans-44" transform="translate(910.001953 0)"/>
     <use xlink:href="#DejaVuSans-65" transform="translate(987.003906 0)"/>
     <use xlink:href="#DejaVuSans-6e" transform="translate(1048.527344 0)"/>
     <use xlink:href="#DejaVuSans-73" transform="translate(1111.90625 0)"/>
     <use xlink:href="#DejaVuSans-69" transform="translate(1164.005859 0)"/>
     <use xlink:href="#DejaVuSans-74" transform="translate(1191.789062 0)"/>
     <use xlink:href="#DejaVuSans-79" transform="translate(1230.998047 0)"/>
     <use xlink:href="#DejaVuSans-20" transform="translate(1290.177734 0)"/>
     <use xlink:href="#DejaVuSans-66" transform="translate(1321.964844 0)"/>
     <use xlink:href="#DejaVuSans-6f" transform="translate(1357.169922 0)"/>
     <use xlink:href="#DejaVuSans-72" transform="translate(1418.351562 0)"/>
     <use xlink:href="#DejaVuSans-20" transform="translate(1459.464844 0)"/>
     <use xlink:href="#DejaVuSans-54" transform="translate(1491.251953 0)"/>
     <use xlink:href="#DejaVuSans-69" transform="translate(1549.210938 0)"/>
     <use xlink:href="#DejaVuSans-6d" transform="translate(1576.994141 0)"/>
     <use xlink:href="#DejaVuSans-65" transform="translate(1674.40625 0)"/>
     <use xlink:href="#DejaVuSans-20" transform="translate(1735.929688 0)"/>
     <use xlink:href="#DejaVuSans-53" transform="translate(1767.716797 0)"/>
     <use xlink:href="#DejaVuSans-6c" transform="translate(1831.193359 0)"/>
     <use xlink:href="#DejaVuSans-69" transform="translate(1858.976562 0)"/>
     <use xlink:href="#DejaVuSans-63" transform="translate(1886.759766 0)"/>
     <use xlink:href="#DejaVuSans-65" transform="translate(1941.740234 0)"/>
     <use xlink:href="#DejaVuSans-20" transform="translate(2003.263672 0)"/>
     <use xlink:href="#DejaVuSans-31" transform="translate(2035.050781 0)"/>
     <use xlink:href="#DejaVuSans-30" transform="translate(2098.673828 0)"/>
     <use xlink:href="#DejaVuSans-36" transform="translate(2162.296875 0)"/>
     <use xlink:href="#DejaVuSans-36" transform="translate(2225.919922 0)"/>
    </g>
   </g>
   <g id="legend_1">
    <g id="line2d_28">
     <path d="M 519.628812 36.93625 
L 529.628812 36.93625 
L 539.628812 36.93625 
" style="fill: none; stroke: #0000ff; stroke-width: 1.2; stroke-linecap: square"/>
    </g>
    <g id="text_17">
     <!-- Empirical -->
     <g transform="translate(547.628812 40.43625) scale(0.1 -0.1)">
      <defs>
       <path id="DejaVuSans-45" d="M 628 4666 
L 3578 4666 
L 3578 4134 
L 1259 4134 
L 1259 2753 
L 3481 2753 
L 3481 2222 
L 1259 2222 
L 1259 531 
L 3634 531 
L 3634 0 
L 628 0 
L 628 4666 
z
" transform="scale(0.015625)"/>
       <path id="DejaVuSans-70" d="M 1159 525 
L 1159 -1331 
L 581 -1331 
L 581 3500 
L 1159 3500 
L 1159 2969 
Q 1341 3281 1617 3432 
Q 1894 3584 2278 3584 
Q 2916 3584 3314 3078 
Q 3713 2572 3713 1747 
Q 3713 922 3314 415 
Q 2916 -91 2278 -91 
Q 1894 -91 1617 61 
Q 1341 213 1159 525 
z
M 3116 1747 
Q 3116 2381 2855 2742 
Q 2594 3103 2138 3103 
Q 1681 3103 1420 2742 
Q 1159 2381 1159 1747 
Q 1159 1113 1420 752 
Q 1681 391 2138 391 
Q 2594 391 2855 752 
Q 3116 1113 3116 1747 
z
" transform="scale(0.015625)"/>
      </defs>
      <use xlink:href="#DejaVuSans-45"/>
      <use xlink:href="#DejaVuSans-6d" transform="translate(63.183594 0)"/>
      <use xlink:href="#DejaVuSans-70" transform="translate(160.595703 0)"/>
      <use xlink:href="#DejaVuSans-69" transform="translate(224.072266 0)"/>
      <use xlink:href="#DejaVuSans-72" transform="translate(251.855469 0)"/>
      <use xlink:href="#DejaVuSans-69" transform="translate(292.96875 0)"/>
      <use xlink:href="#DejaVuSans-63" transform="translate(320.751953 0)"/>
      <use xlink:href="#DejaVuSans-61" transform="translate(375.732422 0)"/>
      <use xlink:href="#DejaVuSans-6c" transform="translate(437.011719 0)"/>
     </g>
    </g>
    <g id="line2d_29">
     <path d="M 519.628812 51.614375 
L 529.628812 51.614375 
L 539.628812 51.614375 
" style="fill: none; stroke: #ffa500; stroke-width: 1.2; stroke-linecap: square"/>
    </g>
    <g id="text_18">
     <!-- CSR -->
     <g transform="translate(547.628812 55.114375) scale(0.1 -0.1)">
      <defs>
       <path id="DejaVuSans-43" d="M 4122 4306 
L 4122 3641 
Q 3803 3938 3442 4084 
Q 3081 4231 2675 4231 
Q 1875 4231 1450 3742 
Q 1025 3253 1025 2328 
Q 1025 1406 1450 917 
Q 1875 428 2675 428 
Q 3081 428 3442 575 
Q 3803 722 4122 1019 
L 4122 359 
Q 3791 134 3420 21 
Q 3050 -91 2638 -91 
Q 1578 -91 968 557 
Q 359 1206 359 2328 
Q 359 3453 968 4101 
Q 1578 4750 2638 4750 
Q 3056 4750 3426 4639 
Q 3797 4528 4122 4306 
z
" transform="scale(0.015625)"/>
       <path id="DejaVuSans-52" d="M 2841 2188 
Q 3044 2119 3236 1894 
Q 3428 1669 3622 1275 
L 4263 0 
L 3584 0 
L 2988 1197 
Q 2756 1666 2539 1819 
Q 2322 1972 1947 1972 
L 1259 1972 
L 1259 0 
L 628 0 
L 628 4666 
L 2053 4666 
Q 2853 4666 3247 4331 
Q 3641 3997 3641 3322 
Q 3641 2881 3436 2590 
Q 3231 2300 2841 2188 
z
M 1259 4147 
L 1259 2491 
L 2053 2491 
Q 2509 2491 2742 2702 
Q 2975 2913 2975 3322 
Q 2975 3731 2742 3939 
Q 2509 4147 2053 4147 
L 1259 4147 
z
" transform="scale(0.015625)"/>
      </defs>
      <use xlink:href="#DejaVuSans-43"/>
      <use xlink:href="#DejaVuSans-53" transform="translate(69.824219 0)"/>
      <use xlink:href="#DejaVuSans-52" transform="translate(133.300781 0)"/>
     </g>
    </g>
    <g id="line2d_30">
     <path d="M 519.628812 66.2925 
L 529.628812 66.2925 
L 539.628812 66.2925 
" style="fill: none; stroke: #008000; stroke-width: 1.2; stroke-linecap: square"/>
    </g>
    <g id="text_19">
     <!-- BISE -->
     <g transform="translate(547.628812 69.7925) scale(0.1 -0.1)">
      <defs>
       <path id="DejaVuSans-42" d="M 1259 2228 
L 1259 519 
L 2272 519 
Q 2781 519 3026 730 
Q 3272 941 3272 1375 
Q 3272 1813 3026 2020 
Q 2781 2228 2272 2228 
L 1259 2228 
z
M 1259 4147 
L 1259 2741 
L 2194 2741 
Q 2656 2741 2882 2914 
Q 3109 3088 3109 3444 
Q 3109 3797 2882 3972 
Q 2656 4147 2194 4147 
L 1259 4147 
z
M 628 4666 
L 2241 4666 
Q 2963 4666 3353 4366 
Q 3744 4066 3744 3513 
Q 3744 3084 3544 2831 
Q 3344 2578 2956 2516 
Q 3422 2416 3680 2098 
Q 3938 1781 3938 1306 
Q 3938 681 3513 340 
Q 3088 0 2303 0 
L 628 0 
L 628 4666 
z
" transform="scale(0.015625)"/>
       <path id="DejaVuSans-49" d="M 628 4666 
L 1259 4666 
L 1259 0 
L 628 0 
L 628 4666 
z
" transform="scale(0.015625)"/>
      </defs>
      <use xlink:href="#DejaVuSans-42"/>
      <use xlink:href="#DejaVuSans-49" transform="translate(68.603516 0)"/>
      <use xlink:href="#DejaVuSans-53" transform="translate(98.095703 0)"/>
      <use xlink:href="#DejaVuSans-45" transform="translate(161.572266 0)"/>
     </g>
    </g>
   </g>
  </g>
 </g>
 <defs>
  <clipPath id="p92d989815c">
   <rect x="45.1085" y="23.837813" width="558" height="277.2"/>
  </clipPath>
 </defs>
</svg>
