<?xml version="1.0" encoding="utf-8" standalone="no"?>
<!DOCTYPE svg PUBLIC "-//W3C//DTD SVG 1.1//EN"
  "http://www.w3.org/Graphics/SVG/1.1/DTD/svg11.dtd">
<svg xmlns:xlink="http://www.w3.org/1999/xlink" width="613.787787pt" height="340.668313pt" viewBox="0 0 613.787787 340.668313" xmlns="http://www.w3.org/2000/svg" version="1.1">
 <metadata>
  <rdf:RDF xmlns:dc="http://purl.org/dc/elements/1.1/" xmlns:cc="http://creativecommons.org/ns#" xmlns:rdf="http://www.w3.org/1999/02/22-rdf-syntax-ns#">
   <cc:Work>
    <dc:type rdf:resource="http://purl.org/dc/dcmitype/StillImage"/>
    <dc:date>2025-04-28T18:24:06.078018</dc:date>
    <dc:format>image/svg+xml</dc:format>
    <dc:creator>
     <cc:Agent>
      <dc:title>Matplotlib v3.10.1, https://matplotlib.org/</dc:title>
     </cc:Agent>
    </dc:creator>
   </cc:Work>
  </rdf:RDF>
 </metadata>
 <defs>
  <style type="text/css">*{stroke-linejoin: round; stroke-linecap: butt}</style>
 </defs>
 <g id="figure_1">
  <g id="patch_1">
   <path d="M 0 340.668313 
L 613.787787 340.668313 
L 613.787787 0 
L 0 0 
z
" style="fill: #ffffff"/>
  </g>
  <g id="axes_1">
   <g id="patch_2">
    <path d="M 45.1085 301.037813 
L 603.1085 301.037813 
L 603.1085 23.837813 
L 45.1085 23.837813 
z
" style="fill: #e5e5e5"/>
   </g>
   <g id="matplotlib.axis_1">
    <g id="xtick_1">
     <g id="line2d_1">
      <path d="M 70.472136 301.037813 
L 70.472136 23.837813 
" clip-path="url(#pf7b14c1306)" style="fill: none; stroke: #ffffff; stroke-width: 0.8; stroke-linecap: square"/>
     </g>
     <g id="line2d_2">
      <defs>
       <path id="m29d36743ce" d="M 0 0 
L 0 4.8 
" style="stroke: #555555"/>
      </defs>
      <g>
       <use xlink:href="#m29d36743ce" x="70.472136" y="301.037813" style="fill: #555555; stroke: #555555"/>
      </g>
     </g>
     <g id="text_1">
      <!-- 0.0 -->
      <g style="fill: #555555" transform="translate(63.474761 316.024438) scale(0.088 -0.088)">
       <defs>
        <path id="DejaVuSans-30" d="M 2034 4250 
Q 1547 4250 1301 3770 
Q 1056 3291 1056 2328 
Q 1056 1369 1301 889 
Q 1547 409 2034 409 
Q 2525 409 2770 889 
Q 3016 1369 3016 2328 
Q 3016 3291 2770 3770 
Q 2525 4250 2034 4250 
z
M 2034 4750 
Q 2819 4750 3233 4129 
Q 3647 3509 3647 2328 
Q 3647 1150 3233 529 
Q 2819 -91 2034 -91 
Q 1250 -91 836 529 
Q 422 1150 422 2328 
Q 422 3509 836 4129 
Q 1250 4750 2034 4750 
z
" transform="scale(0.015625)"/>
        <path id="DejaVuSans-2e" d="M 684 794 
L 1344 794 
L 1344 0 
L 684 0 
L 684 794 
z
" transform="scale(0.015625)"/>
       </defs>
       <use xlink:href="#DejaVuSans-30"/>
       <use xlink:href="#DejaVuSans-2e" transform="translate(63.623047 0)"/>
       <use xlink:href="#DejaVuSans-30" transform="translate(95.410156 0)"/>
      </g>
     </g>
    </g>
    <g id="xtick_2">
     <g id="line2d_3">
      <path d="M 157.725349 301.037813 
L 157.725349 23.837813 
" clip-path="url(#pf7b14c1306)" style="fill: none; stroke: #ffffff; stroke-width: 0.8; stroke-linecap: square"/>
     </g>
     <g id="line2d_4">
      <g>
       <use xlink:href="#m29d36743ce" x="157.725349" y="301.037813" style="fill: #555555; stroke: #555555"/>
      </g>
     </g>
     <g id="text_2">
      <!-- 20.0 -->
      <g style="fill: #555555" transform="translate(147.928474 316.024438) scale(0.088 -0.088)">
       <defs>
        <path id="DejaVuSans-32" d="M 1228 531 
L 3431 531 
L 3431 0 
L 469 0 
L 469 531 
Q 828 903 1448 1529 
Q 2069 2156 2228 2338 
Q 2531 2678 2651 2914 
Q 2772 3150 2772 3378 
Q 2772 3750 2511 3984 
Q 2250 4219 1831 4219 
Q 1534 4219 1204 4116 
Q 875 4013 500 3803 
L 500 4441 
Q 881 4594 1212 4672 
Q 1544 4750 1819 4750 
Q 2544 4750 2975 4387 
Q 3406 4025 3406 3419 
Q 3406 3131 3298 2873 
Q 3191 2616 2906 2266 
Q 2828 2175 2409 1742 
Q 1991 1309 1228 531 
z
" transform="scale(0.015625)"/>
       </defs>
       <use xlink:href="#DejaVuSans-32"/>
       <use xlink:href="#DejaVuSans-30" transform="translate(63.623047 0)"/>
       <use xlink:href="#DejaVuSans-2e" transform="translate(127.246094 0)"/>
       <use xlink:href="#DejaVuSans-30" transform="translate(159.033203 0)"/>
      </g>
     </g>
    </g>
    <g id="xtick_3">
     <g id="line2d_5">
      <path d="M 244.978562 301.037813 
L 244.978562 23.837813 
" clip-path="url(#pf7b14c1306)" style="fill: none; stroke: #ffffff; stroke-width: 0.8; stroke-linecap: square"/>
     </g>
     <g id="line2d_6">
      <g>
       <use xlink:href="#m29d36743ce" x="244.978562" y="301.037813" style="fill: #555555; stroke: #555555"/>
      </g>
     </g>
     <g id="text_3">
      <!-- 40.0 -->
      <g style="fill: #555555" transform="translate(235.181687 316.024438) scale(0.088 -0.088)">
       <defs>
        <path id="DejaVuSans-34" d="M 2419 4116 
L 825 1625 
L 2419 1625 
L 2419 4116 
z
M 2253 4666 
L 3047 4666 
L 3047 1625 
L 3713 1625 
L 3713 1100 
L 3047 1100 
L 3047 0 
L 2419 0 
L 2419 1100 
L 313 1100 
L 313 1709 
L 2253 4666 
z
" transform="scale(0.015625)"/>
       </defs>
       <use xlink:href="#DejaVuSans-34"/>
       <use xlink:href="#DejaVuSans-30" transform="translate(63.623047 0)"/>
       <use xlink:href="#DejaVuSans-2e" transform="translate(127.246094 0)"/>
       <use xlink:href="#DejaVuSans-30" transform="translate(159.033203 0)"/>
      </g>
     </g>
    </g>
    <g id="xtick_4">
     <g id="line2d_7">
      <path d="M 332.231774 301.037813 
L 332.231774 23.837813 
" clip-path="url(#pf7b14c1306)" style="fill: none; stroke: #ffffff; stroke-width: 0.8; stroke-linecap: square"/>
     </g>
     <g id="line2d_8">
      <g>
       <use xlink:href="#m29d36743ce" x="332.231774" y="301.037813" style="fill: #555555; stroke: #555555"/>
      </g>
     </g>
     <g id="text_4">
      <!-- 60.0 -->
      <g style="fill: #555555" transform="translate(322.434899 316.024438) scale(0.088 -0.088)">
       <defs>
        <path id="DejaVuSans-36" d="M 2113 2584 
Q 1688 2584 1439 2293 
Q 1191 2003 1191 1497 
Q 1191 994 1439 701 
Q 1688 409 2113 409 
Q 2538 409 2786 701 
Q 3034 994 3034 1497 
Q 3034 2003 2786 2293 
Q 2538 2584 2113 2584 
z
M 3366 4563 
L 3366 3988 
Q 3128 4100 2886 4159 
Q 2644 4219 2406 4219 
Q 1781 4219 1451 3797 
Q 1122 3375 1075 2522 
Q 1259 2794 1537 2939 
Q 1816 3084 2150 3084 
Q 2853 3084 3261 2657 
Q 3669 2231 3669 1497 
Q 3669 778 3244 343 
Q 2819 -91 2113 -91 
Q 1303 -91 875 529 
Q 447 1150 447 2328 
Q 447 3434 972 4092 
Q 1497 4750 2381 4750 
Q 2619 4750 2861 4703 
Q 3103 4656 3366 4563 
z
" transform="scale(0.015625)"/>
       </defs>
       <use xlink:href="#DejaVuSans-36"/>
       <use xlink:href="#DejaVuSans-30" transform="translate(63.623047 0)"/>
       <use xlink:href="#DejaVuSans-2e" transform="translate(127.246094 0)"/>
       <use xlink:href="#DejaVuSans-30" transform="translate(159.033203 0)"/>
      </g>
     </g>
    </g>
    <g id="xtick_5">
     <g id="line2d_9">
      <path d="M 419.484987 301.037813 
L 419.484987 23.837813 
" clip-path="url(#pf7b14c1306)" style="fill: none; stroke: #ffffff; stroke-width: 0.8; stroke-linecap: square"/>
     </g>
     <g id="line2d_10">
      <g>
       <use xlink:href="#m29d36743ce" x="419.484987" y="301.037813" style="fill: #555555; stroke: #555555"/>
      </g>
     </g>
     <g id="text_5">
      <!-- 80.0 -->
      <g style="fill: #555555" transform="translate(409.688112 316.024438) scale(0.088 -0.088)">
       <defs>
        <path id="DejaVuSans-38" d="M 2034 2216 
Q 1584 2216 1326 1975 
Q 1069 1734 1069 1313 
Q 1069 891 1326 650 
Q 1584 409 2034 409 
Q 2484 409 2743 651 
Q 3003 894 3003 1313 
Q 3003 1734 2745 1975 
Q 2488 2216 2034 2216 
z
M 1403 2484 
Q 997 2584 770 2862 
Q 544 3141 544 3541 
Q 544 4100 942 4425 
Q 1341 4750 2034 4750 
Q 2731 4750 3128 4425 
Q 3525 4100 3525 3541 
Q 3525 3141 3298 2862 
Q 3072 2584 2669 2484 
Q 3125 2378 3379 2068 
Q 3634 1759 3634 1313 
Q 3634 634 3220 271 
Q 2806 -91 2034 -91 
Q 1263 -91 848 271 
Q 434 634 434 1313 
Q 434 1759 690 2068 
Q 947 2378 1403 2484 
z
M 1172 3481 
Q 1172 3119 1398 2916 
Q 1625 2713 2034 2713 
Q 2441 2713 2670 2916 
Q 2900 3119 2900 3481 
Q 2900 3844 2670 4047 
Q 2441 4250 2034 4250 
Q 1625 4250 1398 4047 
Q 1172 3844 1172 3481 
z
" transform="scale(0.015625)"/>
       </defs>
       <use xlink:href="#DejaVuSans-38"/>
       <use xlink:href="#DejaVuSans-30" transform="translate(63.623047 0)"/>
       <use xlink:href="#DejaVuSans-2e" transform="translate(127.246094 0)"/>
       <use xlink:href="#DejaVuSans-30" transform="translate(159.033203 0)"/>
      </g>
     </g>
    </g>
    <g id="xtick_6">
     <g id="line2d_11">
      <path d="M 506.738199 301.037813 
L 506.738199 23.837813 
" clip-path="url(#pf7b14c1306)" style="fill: none; stroke: #ffffff; stroke-width: 0.8; stroke-linecap: square"/>
     </g>
     <g id="line2d_12">
      <g>
       <use xlink:href="#m29d36743ce" x="506.738199" y="301.037813" style="fill: #555555; stroke: #555555"/>
      </g>
     </g>
     <g id="text_6">
      <!-- 100.0 -->
      <g style="fill: #555555" transform="translate(494.141824 316.024438) scale(0.088 -0.088)">
       <defs>
        <path id="DejaVuSans-31" d="M 794 531 
L 1825 531 
L 1825 4091 
L 703 3866 
L 703 4441 
L 1819 4666 
L 2450 4666 
L 2450 531 
L 3481 531 
L 3481 0 
L 794 0 
L 794 531 
z
" transform="scale(0.015625)"/>
       </defs>
       <use xlink:href="#DejaVuSans-31"/>
       <use xlink:href="#DejaVuSans-30" transform="translate(63.623047 0)"/>
       <use xlink:href="#DejaVuSans-30" transform="translate(127.246094 0)"/>
       <use xlink:href="#DejaVuSans-2e" transform="translate(190.869141 0)"/>
       <use xlink:href="#DejaVuSans-30" transform="translate(222.65625 0)"/>
      </g>
     </g>
    </g>
    <g id="xtick_7">
     <g id="line2d_13">
      <path d="M 593.991412 301.037813 
L 593.991412 23.837813 
" clip-path="url(#pf7b14c1306)" style="fill: none; stroke: #ffffff; stroke-width: 0.8; stroke-linecap: square"/>
     </g>
     <g id="line2d_14">
      <g>
       <use xlink:href="#m29d36743ce" x="593.991412" y="301.037813" style="fill: #555555; stroke: #555555"/>
      </g>
     </g>
     <g id="text_7">
      <!-- 120.0 -->
      <g style="fill: #555555" transform="translate(581.395037 316.024438) scale(0.088 -0.088)">
       <use xlink:href="#DejaVuSans-31"/>
       <use xlink:href="#DejaVuSans-32" transform="translate(63.623047 0)"/>
       <use xlink:href="#DejaVuSans-30" transform="translate(127.246094 0)"/>
       <use xlink:href="#DejaVuSans-2e" transform="translate(190.869141 0)"/>
       <use xlink:href="#DejaVuSans-30" transform="translate(222.65625 0)"/>
      </g>
     </g>
    </g>
    <g id="text_8">
     <!-- Distance (km) -->
     <g style="fill: #555555" transform="translate(281.966 330.972688) scale(0.12 -0.12)">
      <defs>
       <path id="DejaVuSans-44" d="M 1259 4147 
L 1259 519 
L 2022 519 
Q 2988 519 3436 956 
Q 3884 1394 3884 2338 
Q 3884 3275 3436 3711 
Q 2988 4147 2022 4147 
L 1259 4147 
z
M 628 4666 
L 1925 4666 
Q 3281 4666 3915 4102 
Q 4550 3538 4550 2338 
Q 4550 1131 3912 565 
Q 3275 0 1925 0 
L 628 0 
L 628 4666 
z
" transform="scale(0.015625)"/>
       <path id="DejaVuSans-69" d="M 603 3500 
L 1178 3500 
L 1178 0 
L 603 0 
L 603 3500 
z
M 603 4863 
L 1178 4863 
L 1178 4134 
L 603 4134 
L 603 4863 
z
" transform="scale(0.015625)"/>
       <path id="DejaVuSans-73" d="M 2834 3397 
L 2834 2853 
Q 2591 2978 2328 3040 
Q 2066 3103 1784 3103 
Q 1356 3103 1142 2972 
Q 928 2841 928 2578 
Q 928 2378 1081 2264 
Q 1234 2150 1697 2047 
L 1894 2003 
Q 2506 1872 2764 1633 
Q 3022 1394 3022 966 
Q 3022 478 2636 193 
Q 2250 -91 1575 -91 
Q 1294 -91 989 -36 
Q 684 19 347 128 
L 347 722 
Q 666 556 975 473 
Q 1284 391 1588 391 
Q 1994 391 2212 530 
Q 2431 669 2431 922 
Q 2431 1156 2273 1281 
Q 2116 1406 1581 1522 
L 1381 1569 
Q 847 1681 609 1914 
Q 372 2147 372 2553 
Q 372 3047 722 3315 
Q 1072 3584 1716 3584 
Q 2034 3584 2315 3537 
Q 2597 3491 2834 3397 
z
" transform="scale(0.015625)"/>
       <path id="DejaVuSans-74" d="M 1172 4494 
L 1172 3500 
L 2356 3500 
L 2356 3053 
L 1172 3053 
L 1172 1153 
Q 1172 725 1289 603 
Q 1406 481 1766 481 
L 2356 481 
L 2356 0 
L 1766 0 
Q 1100 0 847 248 
Q 594 497 594 1153 
L 594 3053 
L 172 3053 
L 172 3500 
L 594 3500 
L 594 4494 
L 1172 4494 
z
" transform="scale(0.015625)"/>
       <path id="DejaVuSans-61" d="M 2194 1759 
Q 1497 1759 1228 1600 
Q 959 1441 959 1056 
Q 959 750 1161 570 
Q 1363 391 1709 391 
Q 2188 391 2477 730 
Q 2766 1069 2766 1631 
L 2766 1759 
L 2194 1759 
z
M 3341 1997 
L 3341 0 
L 2766 0 
L 2766 531 
Q 2569 213 2275 61 
Q 1981 -91 1556 -91 
Q 1019 -91 701 211 
Q 384 513 384 1019 
Q 384 1609 779 1909 
Q 1175 2209 1959 2209 
L 2766 2209 
L 2766 2266 
Q 2766 2663 2505 2880 
Q 2244 3097 1772 3097 
Q 1472 3097 1187 3025 
Q 903 2953 641 2809 
L 641 3341 
Q 956 3463 1253 3523 
Q 1550 3584 1831 3584 
Q 2591 3584 2966 3190 
Q 3341 2797 3341 1997 
z
" transform="scale(0.015625)"/>
       <path id="DejaVuSans-6e" d="M 3513 2113 
L 3513 0 
L 2938 0 
L 2938 2094 
Q 2938 2591 2744 2837 
Q 2550 3084 2163 3084 
Q 1697 3084 1428 2787 
Q 1159 2491 1159 1978 
L 1159 0 
L 581 0 
L 581 3500 
L 1159 3500 
L 1159 2956 
Q 1366 3272 1645 3428 
Q 1925 3584 2291 3584 
Q 2894 3584 3203 3211 
Q 3513 2838 3513 2113 
z
" transform="scale(0.015625)"/>
       <path id="DejaVuSans-63" d="M 3122 3366 
L 3122 2828 
Q 2878 2963 2633 3030 
Q 2388 3097 2138 3097 
Q 1578 3097 1268 2742 
Q 959 2388 959 1747 
Q 959 1106 1268 751 
Q 1578 397 2138 397 
Q 2388 397 2633 464 
Q 2878 531 3122 666 
L 3122 134 
Q 2881 22 2623 -34 
Q 2366 -91 2075 -91 
Q 1284 -91 818 406 
Q 353 903 353 1747 
Q 353 2603 823 3093 
Q 1294 3584 2113 3584 
Q 2378 3584 2631 3529 
Q 2884 3475 3122 3366 
z
" transform="scale(0.015625)"/>
       <path id="DejaVuSans-65" d="M 3597 1894 
L 3597 1613 
L 953 1613 
Q 991 1019 1311 708 
Q 1631 397 2203 397 
Q 2534 397 2845 478 
Q 3156 559 3463 722 
L 3463 178 
Q 3153 47 2828 -22 
Q 2503 -91 2169 -91 
Q 1331 -91 842 396 
Q 353 884 353 1716 
Q 353 2575 817 3079 
Q 1281 3584 2069 3584 
Q 2775 3584 3186 3129 
Q 3597 2675 3597 1894 
z
M 3022 2063 
Q 3016 2534 2758 2815 
Q 2500 3097 2075 3097 
Q 1594 3097 1305 2825 
Q 1016 2553 972 2059 
L 3022 2063 
z
" transform="scale(0.015625)"/>
       <path id="DejaVuSans-20" transform="scale(0.015625)"/>
       <path id="DejaVuSans-28" d="M 1984 4856 
Q 1566 4138 1362 3434 
Q 1159 2731 1159 2009 
Q 1159 1288 1364 580 
Q 1569 -128 1984 -844 
L 1484 -844 
Q 1016 -109 783 600 
Q 550 1309 550 2009 
Q 550 2706 781 3412 
Q 1013 4119 1484 4856 
L 1984 4856 
z
" transform="scale(0.015625)"/>
       <path id="DejaVuSans-6b" d="M 581 4863 
L 1159 4863 
L 1159 1991 
L 2875 3500 
L 3609 3500 
L 1753 1863 
L 3688 0 
L 2938 0 
L 1159 1709 
L 1159 0 
L 581 0 
L 581 4863 
z
" transform="scale(0.015625)"/>
       <path id="DejaVuSans-6d" d="M 3328 2828 
Q 3544 3216 3844 3400 
Q 4144 3584 4550 3584 
Q 5097 3584 5394 3201 
Q 5691 2819 5691 2113 
L 5691 0 
L 5113 0 
L 5113 2094 
Q 5113 2597 4934 2840 
Q 4756 3084 4391 3084 
Q 3944 3084 3684 2787 
Q 3425 2491 3425 1978 
L 3425 0 
L 2847 0 
L 2847 2094 
Q 2847 2600 2669 2842 
Q 2491 3084 2119 3084 
Q 1678 3084 1418 2786 
Q 1159 2488 1159 1978 
L 1159 0 
L 581 0 
L 581 3500 
L 1159 3500 
L 1159 2956 
Q 1356 3278 1631 3431 
Q 1906 3584 2284 3584 
Q 2666 3584 2933 3390 
Q 3200 3197 3328 2828 
z
" transform="scale(0.015625)"/>
       <path id="DejaVuSans-29" d="M 513 4856 
L 1013 4856 
Q 1481 4119 1714 3412 
Q 1947 2706 1947 2009 
Q 1947 1309 1714 600 
Q 1481 -109 1013 -844 
L 513 -844 
Q 928 -128 1133 580 
Q 1338 1288 1338 2009 
Q 1338 2731 1133 3434 
Q 928 4138 513 4856 
z
" transform="scale(0.015625)"/>
      </defs>
      <use xlink:href="#DejaVuSans-44"/>
      <use xlink:href="#DejaVuSans-69" transform="translate(77.001953 0)"/>
      <use xlink:href="#DejaVuSans-73" transform="translate(104.785156 0)"/>
      <use xlink:href="#DejaVuSans-74" transform="translate(156.884766 0)"/>
      <use xlink:href="#DejaVuSans-61" transform="translate(196.09375 0)"/>
      <use xlink:href="#DejaVuSans-6e" transform="translate(257.373047 0)"/>
      <use xlink:href="#DejaVuSans-63" transform="translate(320.751953 0)"/>
      <use xlink:href="#DejaVuSans-65" transform="translate(375.732422 0)"/>
      <use xlink:href="#DejaVuSans-20" transform="translate(437.255859 0)"/>
      <use xlink:href="#DejaVuSans-28" transform="translate(469.042969 0)"/>
      <use xlink:href="#DejaVuSans-6b" transform="translate(508.056641 0)"/>
      <use xlink:href="#DejaVuSans-6d" transform="translate(565.966797 0)"/>
      <use xlink:href="#DejaVuSans-29" transform="translate(663.378906 0)"/>
     </g>
    </g>
   </g>
   <g id="matplotlib.axis_2">
    <g id="ytick_1">
     <g id="line2d_15">
      <path d="M 45.1085 288.437813 
L 603.1085 288.437813 
" clip-path="url(#pf7b14c1306)" style="fill: none; stroke: #ffffff; stroke-width: 0.8; stroke-linecap: square"/>
     </g>
     <g id="line2d_16">
      <defs>
       <path id="mf7691da880" d="M 0 0 
L -4.8 0 
" style="stroke: #555555"/>
      </defs>
      <g>
       <use xlink:href="#mf7691da880" x="45.1085" y="288.437813" style="fill: #555555; stroke: #555555"/>
      </g>
     </g>
     <g id="text_9">
      <!-- 0.0 -->
      <g style="fill: #555555" transform="translate(22.81375 291.781125) scale(0.088 -0.088)">
       <use xlink:href="#DejaVuSans-30"/>
       <use xlink:href="#DejaVuSans-2e" transform="translate(63.623047 0)"/>
       <use xlink:href="#DejaVuSans-30" transform="translate(95.410156 0)"/>
      </g>
     </g>
    </g>
    <g id="ytick_2">
     <g id="line2d_17">
      <path d="M 45.1085 228.696815 
L 603.1085 228.696815 
" clip-path="url(#pf7b14c1306)" style="fill: none; stroke: #ffffff; stroke-width: 0.8; stroke-linecap: square"/>
     </g>
     <g id="line2d_18">
      <g>
       <use xlink:href="#mf7691da880" x="45.1085" y="228.696815" style="fill: #555555; stroke: #555555"/>
      </g>
     </g>
     <g id="text_10">
      <!-- 0.5 -->
      <g style="fill: #555555" transform="translate(22.81375 232.040128) scale(0.088 -0.088)">
       <defs>
        <path id="DejaVuSans-35" d="M 691 4666 
L 3169 4666 
L 3169 4134 
L 1269 4134 
L 1269 2991 
Q 1406 3038 1543 3061 
Q 1681 3084 1819 3084 
Q 2600 3084 3056 2656 
Q 3513 2228 3513 1497 
Q 3513 744 3044 326 
Q 2575 -91 1722 -91 
Q 1428 -91 1123 -41 
Q 819 9 494 109 
L 494 744 
Q 775 591 1075 516 
Q 1375 441 1709 441 
Q 2250 441 2565 725 
Q 2881 1009 2881 1497 
Q 2881 1984 2565 2268 
Q 2250 2553 1709 2553 
Q 1456 2553 1204 2497 
Q 953 2441 691 2322 
L 691 4666 
z
" transform="scale(0.015625)"/>
       </defs>
       <use xlink:href="#DejaVuSans-30"/>
       <use xlink:href="#DejaVuSans-2e" transform="translate(63.623047 0)"/>
       <use xlink:href="#DejaVuSans-35" transform="translate(95.410156 0)"/>
      </g>
     </g>
    </g>
    <g id="ytick_3">
     <g id="line2d_19">
      <path d="M 45.1085 168.955818 
L 603.1085 168.955818 
" clip-path="url(#pf7b14c1306)" style="fill: none; stroke: #ffffff; stroke-width: 0.8; stroke-linecap: square"/>
     </g>
     <g id="line2d_20">
      <g>
       <use xlink:href="#mf7691da880" x="45.1085" y="168.955818" style="fill: #555555; stroke: #555555"/>
      </g>
     </g>
     <g id="text_11">
      <!-- 1.0 -->
      <g style="fill: #555555" transform="translate(22.81375 172.299131) scale(0.088 -0.088)">
       <use xlink:href="#DejaVuSans-31"/>
       <use xlink:href="#DejaVuSans-2e" transform="translate(63.623047 0)"/>
       <use xlink:href="#DejaVuSans-30" transform="translate(95.410156 0)"/>
      </g>
     </g>
    </g>
    <g id="ytick_4">
     <g id="line2d_21">
      <path d="M 45.1085 109.214821 
L 603.1085 109.214821 
" clip-path="url(#pf7b14c1306)" style="fill: none; stroke: #ffffff; stroke-width: 0.8; stroke-linecap: square"/>
     </g>
     <g id="line2d_22">
      <g>
       <use xlink:href="#mf7691da880" x="45.1085" y="109.214821" style="fill: #555555; stroke: #555555"/>
      </g>
     </g>
     <g id="text_12">
      <!-- 1.5 -->
      <g style="fill: #555555" transform="translate(22.81375 112.558134) scale(0.088 -0.088)">
       <use xlink:href="#DejaVuSans-31"/>
       <use xlink:href="#DejaVuSans-2e" transform="translate(63.623047 0)"/>
       <use xlink:href="#DejaVuSans-35" transform="translate(95.410156 0)"/>
      </g>
     </g>
    </g>
    <g id="ytick_5">
     <g id="line2d_23">
      <path d="M 45.1085 49.473824 
L 603.1085 49.473824 
" clip-path="url(#pf7b14c1306)" style="fill: none; stroke: #ffffff; stroke-width: 0.8; stroke-linecap: square"/>
     </g>
     <g id="line2d_24">
      <g>
       <use xlink:href="#mf7691da880" x="45.1085" y="49.473824" style="fill: #555555; stroke: #555555"/>
      </g>
     </g>
     <g id="text_13">
      <!-- 2.0 -->
      <g style="fill: #555555" transform="translate(22.81375 52.817136) scale(0.088 -0.088)">
       <use xlink:href="#DejaVuSans-32"/>
       <use xlink:href="#DejaVuSans-2e" transform="translate(63.623047 0)"/>
       <use xlink:href="#DejaVuSans-30" transform="translate(95.410156 0)"/>
      </g>
     </g>
    </g>
    <g id="text_14">
     <!-- Density -->
     <g style="fill: #555555" transform="translate(16.318125 185.248125) rotate(-90) scale(0.12 -0.12)">
      <defs>
       <path id="DejaVuSans-79" d="M 2059 -325 
Q 1816 -950 1584 -1140 
Q 1353 -1331 966 -1331 
L 506 -1331 
L 506 -850 
L 844 -850 
Q 1081 -850 1212 -737 
Q 1344 -625 1503 -206 
L 1606 56 
L 191 3500 
L 800 3500 
L 1894 763 
L 2988 3500 
L 3597 3500 
L 2059 -325 
z
" transform="scale(0.015625)"/>
      </defs>
      <use xlink:href="#DejaVuSans-44"/>
      <use xlink:href="#DejaVuSans-65" transform="translate(77.001953 0)"/>
      <use xlink:href="#DejaVuSans-6e" transform="translate(138.525391 0)"/>
      <use xlink:href="#DejaVuSans-73" transform="translate(201.904297 0)"/>
      <use xlink:href="#DejaVuSans-69" transform="translate(254.003906 0)"/>
      <use xlink:href="#DejaVuSans-74" transform="translate(281.787109 0)"/>
      <use xlink:href="#DejaVuSans-79" transform="translate(320.996094 0)"/>
     </g>
    </g>
    <g id="text_15">
     <!-- 1e−5 -->
     <g style="fill: #555555" transform="translate(45.1085 20.837813) scale(0.088 -0.088)">
      <defs>
       <path id="DejaVuSans-2212" d="M 678 2272 
L 4684 2272 
L 4684 1741 
L 678 1741 
L 678 2272 
z
" transform="scale(0.015625)"/>
      </defs>
      <use xlink:href="#DejaVuSans-31"/>
      <use xlink:href="#DejaVuSans-65" transform="translate(63.623047 0)"/>
      <use xlink:href="#DejaVuSans-2212" transform="translate(125.146484 0)"/>
      <use xlink:href="#DejaVuSans-35" transform="translate(208.935547 0)"/>
     </g>
    </g>
   </g>
   <g id="FillBetweenPolyCollection_1">
    <defs>
     <path id="mfd74feed99" d="M 70.472136 -67.738757 
L 70.472136 -67.738757 
L 80.824641 -98.675695 
L 91.177146 -130.494594 
L 101.52965 -154.142171 
L 111.882155 -172.403823 
L 122.23466 -188.744944 
L 132.587164 -208.359405 
L 142.939669 -228.386652 
L 153.292173 -240.164924 
L 163.644678 -246.270061 
L 173.997183 -252.854537 
L 184.349687 -258.7168 
L 194.702192 -263.592423 
L 205.054697 -266.924167 
L 215.407201 -266.525435 
L 225.759706 -261.407109 
L 236.112211 -253.84855 
L 246.464715 -249.226109 
L 256.81722 -247.961312 
L 267.169724 -249.565596 
L 277.522229 -247.494763 
L 287.874734 -236.434348 
L 298.227238 -221.5235 
L 308.579743 -207.82186 
L 318.932248 -196.454048 
L 329.284752 -186.826561 
L 339.637257 -182.408149 
L 349.989762 -178.655233 
L 360.342266 -169.242718 
L 370.694771 -154.567771 
L 381.047276 -138.970498 
L 391.39978 -122.324506 
L 401.752285 -105.683455 
L 412.104789 -89.962477 
L 422.457294 -77.64061 
L 432.809799 -69.673598 
L 443.162303 -63.528343 
L 453.514808 -58.037442 
L 463.867313 -54.636284 
L 474.219817 -53.408285 
L 484.572322 -52.833608 
L 494.924827 -52.405073 
L 505.277331 -52.249393 
L 515.629836 -52.231123 
L 525.98234 -52.230506 
L 536.334845 -52.2305 
L 546.68735 -52.2305 
L 557.039854 -52.2305 
L 567.392359 -52.2305 
L 577.744864 -52.2305 
L 577.744864 -52.2305 
L 577.744864 -52.2305 
L 567.392359 -52.2305 
L 557.039854 -52.2305 
L 546.68735 -52.2305 
L 536.334845 -52.2305 
L 525.98234 -52.230506 
L 515.629836 -52.231123 
L 505.277331 -52.249393 
L 494.924827 -52.405073 
L 484.572322 -52.833608 
L 474.219817 -53.408285 
L 463.867313 -54.636284 
L 453.514808 -58.037442 
L 443.162303 -63.528343 
L 432.809799 -69.673598 
L 422.457294 -77.64061 
L 412.104789 -89.962477 
L 401.752285 -105.683455 
L 391.39978 -122.324506 
L 381.047276 -138.970498 
L 370.694771 -154.567771 
L 360.342266 -169.242718 
L 349.989762 -178.655233 
L 339.637257 -182.408149 
L 329.284752 -186.826561 
L 318.932248 -196.454048 
L 308.579743 -207.82186 
L 298.227238 -221.5235 
L 287.874734 -236.434348 
L 277.522229 -247.494763 
L 267.169724 -249.565596 
L 256.81722 -247.961312 
L 246.464715 -249.226109 
L 236.112211 -253.84855 
L 225.759706 -261.407109 
L 215.407201 -266.525435 
L 205.054697 -266.924167 
L 194.702192 -263.592423 
L 184.349687 -258.7168 
L 173.997183 -252.854537 
L 163.644678 -246.270061 
L 153.292173 -240.164924 
L 142.939669 -228.386652 
L 132.587164 -208.359405 
L 122.23466 -188.744944 
L 111.882155 -172.403823 
L 101.52965 -154.142171 
L 91.177146 -130.494594 
L 80.824641 -98.675695 
L 70.472136 -67.738757 
z
" style="stroke: #0000ff; stroke-opacity: 0.2; stroke-width: 0.8"/>
    </defs>
    <g clip-path="url(#pf7b14c1306)">
     <use xlink:href="#mfd74feed99" x="0" y="340.668313" style="fill: #0000ff; fill-opacity: 0.2; stroke: #0000ff; stroke-opacity: 0.2; stroke-width: 0.8"/>
    </g>
   </g>
   <g id="FillBetweenPolyCollection_2">
    <defs>
     <path id="m5a41032ebf" d="M 70.472136 -61.825164 
L 70.472136 -60.48392 
L 80.824641 -77.246929 
L 91.177146 -98.810303 
L 101.52965 -119.346184 
L 111.882155 -138.234958 
L 122.23466 -155.838172 
L 132.587164 -170.973148 
L 142.939669 -184.254132 
L 153.292173 -196.012601 
L 163.644678 -206.498634 
L 173.997183 -215.549176 
L 184.349687 -222.323176 
L 194.702192 -228.025224 
L 205.054697 -233.119401 
L 215.407201 -236.851731 
L 225.759706 -240.217548 
L 236.112211 -242.641137 
L 246.464715 -244.380433 
L 256.81722 -243.77833 
L 267.169724 -242.765152 
L 277.522229 -240.992778 
L 287.874734 -236.283755 
L 298.227238 -229.546144 
L 308.579743 -221.827299 
L 318.932248 -212.853245 
L 329.284752 -202.170558 
L 339.637257 -191.676119 
L 349.989762 -180.286173 
L 360.342266 -167.658119 
L 370.694771 -155.216017 
L 381.047276 -142.52977 
L 391.39978 -129.160987 
L 401.752285 -116.088739 
L 412.104789 -105.332128 
L 422.457294 -95.635848 
L 432.809799 -86.028131 
L 443.162303 -77.503124 
L 453.514808 -70.778868 
L 463.867313 -65.20338 
L 474.219817 -60.990693 
L 484.572322 -58.074144 
L 494.924827 -55.857969 
L 505.277331 -54.36809 
L 515.629836 -53.359975 
L 525.98234 -52.751522 
L 536.334845 -52.436484 
L 546.68735 -52.271348 
L 557.039854 -52.233595 
L 567.392359 -52.230583 
L 577.744864 -52.230501 
L 577.744864 -52.259151 
L 577.744864 -52.259151 
L 567.392359 -52.367371 
L 557.039854 -52.597353 
L 546.68735 -53.030878 
L 536.334845 -53.767227 
L 525.98234 -54.821153 
L 515.629836 -56.222481 
L 505.277331 -58.270459 
L 494.924827 -61.011118 
L 484.572322 -64.52827 
L 474.219817 -69.148867 
L 463.867313 -75.252075 
L 453.514808 -84.032839 
L 443.162303 -94.473475 
L 432.809799 -105.893809 
L 422.457294 -116.476583 
L 412.104789 -128.212352 
L 401.752285 -141.131851 
L 391.39978 -154.587875 
L 381.047276 -167.943781 
L 370.694771 -180.474021 
L 360.342266 -193.557801 
L 349.989762 -204.183452 
L 339.637257 -214.511608 
L 329.284752 -223.426773 
L 318.932248 -231.109485 
L 308.579743 -237.545371 
L 298.227238 -243.063928 
L 287.874734 -248.417049 
L 277.522229 -253.193716 
L 267.169724 -257.442705 
L 256.81722 -261.219128 
L 246.464715 -263.674463 
L 236.112211 -265.011594 
L 225.759706 -265.456675 
L 215.407201 -263.955625 
L 205.054697 -259.70901 
L 194.702192 -254.504024 
L 184.349687 -247.170778 
L 173.997183 -238.42293 
L 163.644678 -228.251684 
L 153.292173 -215.10739 
L 142.939669 -200.987135 
L 132.587164 -184.633269 
L 122.23466 -166.764538 
L 111.882155 -147.310903 
L 101.52965 -126.252859 
L 91.177146 -103.481037 
L 80.824641 -80.06199 
L 70.472136 -61.825164 
z
" style="stroke: #ffa500; stroke-opacity: 0.2; stroke-width: 0.8"/>
    </defs>
    <g clip-path="url(#pf7b14c1306)">
     <use xlink:href="#m5a41032ebf" x="0" y="340.668313" style="fill: #ffa500; fill-opacity: 0.2; stroke: #ffa500; stroke-opacity: 0.2; stroke-width: 0.8"/>
    </g>
   </g>
   <g id="FillBetweenPolyCollection_3">
    <defs>
     <path id="m9cd2ee8bc2" d="M 70.472136 -65.344249 
L 70.472136 -62.733312 
L 80.824641 -83.723921 
L 91.177146 -111.593095 
L 101.52965 -139.446254 
L 111.882155 -166.267254 
L 122.23466 -190.590391 
L 132.587164 -212.618923 
L 142.939669 -231.69245 
L 153.292173 -247.625013 
L 163.644678 -260.815993 
L 173.997183 -270.058345 
L 184.349687 -276.505288 
L 194.702192 -278.739418 
L 205.054697 -278.568296 
L 215.407201 -276.325092 
L 225.759706 -270.425122 
L 236.112211 -262.040315 
L 246.464715 -250.324095 
L 256.81722 -239.079702 
L 267.169724 -226.391503 
L 277.522229 -212.437335 
L 287.874734 -198.923788 
L 298.227238 -184.722412 
L 308.579743 -171.694565 
L 318.932248 -159.095553 
L 329.284752 -147.252743 
L 339.637257 -136.150714 
L 349.989762 -126.03672 
L 360.342266 -116.466003 
L 370.694771 -107.854287 
L 381.047276 -99.89884 
L 391.39978 -93.31293 
L 401.752285 -87.224847 
L 412.104789 -81.940306 
L 422.457294 -77.189602 
L 432.809799 -73.262034 
L 443.162303 -69.811816 
L 453.514808 -66.696645 
L 463.867313 -64.180485 
L 474.219817 -62.212355 
L 484.572322 -60.322868 
L 494.924827 -58.690637 
L 505.277331 -57.331026 
L 515.629836 -56.370726 
L 525.98234 -55.42524 
L 536.334845 -54.714966 
L 546.68735 -54.158528 
L 557.039854 -53.67699 
L 567.392359 -53.348244 
L 577.744864 -53.013679 
L 577.744864 -56.100395 
L 577.744864 -56.100395 
L 567.392359 -56.790412 
L 557.039854 -57.552525 
L 546.68735 -58.541857 
L 536.334845 -59.652641 
L 525.98234 -61.088513 
L 515.629836 -62.628985 
L 505.277331 -64.433515 
L 494.924827 -66.505142 
L 484.572322 -68.877172 
L 474.219817 -71.565054 
L 463.867313 -74.755075 
L 453.514808 -78.311332 
L 443.162303 -82.272038 
L 432.809799 -87.060558 
L 422.457294 -91.933638 
L 412.104789 -97.606781 
L 401.752285 -103.714244 
L 391.39978 -110.304547 
L 381.047276 -118.332615 
L 370.694771 -127.043917 
L 360.342266 -135.879255 
L 349.989762 -145.813458 
L 339.637257 -156.451067 
L 329.284752 -167.872106 
L 318.932248 -179.678829 
L 308.579743 -191.842216 
L 298.227238 -204.560308 
L 287.874734 -217.576096 
L 277.522229 -230.135 
L 267.169724 -243.075641 
L 256.81722 -255.52953 
L 246.464715 -267.511202 
L 236.112211 -278.014507 
L 225.759706 -287.026342 
L 215.407201 -295.106485 
L 205.054697 -301.016495 
L 194.702192 -304.2305 
L 184.349687 -304.220243 
L 173.997183 -300.112379 
L 163.644678 -292.494428 
L 153.292173 -280.201259 
L 142.939669 -264.563696 
L 132.587164 -244.842772 
L 122.23466 -219.518013 
L 111.882155 -191.699243 
L 101.52965 -159.541213 
L 91.177146 -125.58746 
L 80.824641 -91.227511 
L 70.472136 -65.344249 
z
" style="stroke: #008000; stroke-opacity: 0.2; stroke-width: 0.8"/>
    </defs>
    <g clip-path="url(#pf7b14c1306)">
     <use xlink:href="#m9cd2ee8bc2" x="0" y="340.668313" style="fill: #008000; fill-opacity: 0.2; stroke: #008000; stroke-opacity: 0.2; stroke-width: 0.8"/>
    </g>
   </g>
   <g id="line2d_25">
    <path d="M 70.472136 272.929555 
L 80.824641 241.992617 
L 91.177146 210.173719 
L 101.52965 186.526142 
L 111.882155 168.264489 
L 122.23466 151.923369 
L 132.587164 132.308908 
L 142.939669 112.28166 
L 153.292173 100.503388 
L 163.644678 94.398252 
L 173.997183 87.813776 
L 184.349687 81.951512 
L 194.702192 77.07589 
L 205.054697 73.744146 
L 215.407201 74.142877 
L 225.759706 79.261203 
L 236.112211 86.819763 
L 246.464715 91.442203 
L 256.81722 92.707 
L 267.169724 91.102716 
L 277.522229 93.173549 
L 287.874734 104.233964 
L 298.227238 119.144813 
L 308.579743 132.846452 
L 318.932248 144.214264 
L 329.284752 153.841751 
L 339.637257 158.260163 
L 349.989762 162.01308 
L 360.342266 171.425595 
L 370.694771 186.100541 
L 381.047276 201.697815 
L 391.39978 218.343807 
L 401.752285 234.984858 
L 412.104789 250.705835 
L 422.457294 263.027703 
L 432.809799 270.994715 
L 443.162303 277.13997 
L 453.514808 282.630871 
L 463.867313 286.032029 
L 474.219817 287.260027 
L 484.572322 287.834704 
L 494.924827 288.26324 
L 505.277331 288.418919 
L 515.629836 288.43719 
L 525.98234 288.437807 
L 536.334845 288.437812 
L 546.68735 288.437812 
L 557.039854 288.437813 
L 567.392359 288.437813 
L 577.744864 288.437813 
" clip-path="url(#pf7b14c1306)" style="fill: none; stroke: #0000ff; stroke-width: 1.2; stroke-linecap: square"/>
   </g>
   <g id="line2d_26">
    <path d="M 70.472136 279.526307 
L 80.824641 261.986466 
L 91.177146 239.594858 
L 101.52965 217.789588 
L 111.882155 197.853628 
L 122.23466 179.762793 
L 132.587164 163.309123 
L 142.939669 148.463544 
L 153.292173 135.314579 
L 163.644678 123.868456 
L 173.997183 114.106247 
L 184.349687 105.855599 
L 194.702192 99.085563 
L 205.054697 93.836164 
L 215.407201 89.951587 
L 225.759706 87.314637 
L 236.112211 86.020535 
L 246.464715 86.153181 
L 256.81722 87.531621 
L 267.169724 90.003547 
L 277.522229 93.625311 
L 287.874734 98.506915 
L 298.227238 104.432554 
L 308.579743 111.341106 
L 318.932248 119.19029 
L 329.284752 127.957031 
L 339.637257 137.65737 
L 349.989762 148.294616 
L 360.342266 159.772975 
L 370.694771 172.006656 
L 381.047276 184.916654 
L 391.39978 198.430237 
L 401.752285 211.964425 
L 412.104789 224.438044 
L 422.457294 235.554865 
L 432.809799 245.745716 
L 443.162303 255.306705 
L 453.514808 263.982507 
L 463.867313 270.973143 
L 474.219817 276.032306 
L 484.572322 279.739543 
L 494.924827 282.513289 
L 505.277331 284.555057 
L 515.629836 286.021696 
L 525.98234 287.034374 
L 536.334845 287.705644 
L 546.68735 288.108993 
L 557.039854 288.317664 
L 567.392359 288.4061 
L 577.744864 288.432747 
" clip-path="url(#pf7b14c1306)" style="fill: none; stroke: #ffa500; stroke-width: 1.2; stroke-linecap: square"/>
   </g>
   <g id="line2d_27">
    <path d="M 70.472136 276.65233 
L 80.824641 253.302649 
L 91.177146 222.615459 
L 101.52965 191.743194 
L 111.882155 162.780865 
L 122.23466 136.356606 
L 132.587164 113.047385 
L 142.939669 93.216065 
L 153.292173 77.000127 
L 163.644678 64.539203 
L 173.997183 55.828077 
L 184.349687 50.766882 
L 194.702192 49.090176 
L 205.054697 50.661723 
L 215.407201 55.055229 
L 225.759706 61.853948 
L 236.112211 70.716536 
L 246.464715 81.260771 
L 256.81722 93.121357 
L 267.169724 105.755172 
L 277.522229 118.838736 
L 287.874734 132.223445 
L 298.227238 145.52269 
L 308.579743 158.484149 
L 318.932248 171.036903 
L 329.284752 183.022431 
L 339.637257 194.268077 
L 349.989762 204.707162 
L 360.342266 214.419983 
L 370.694771 223.294697 
L 381.047276 231.350049 
L 391.39978 238.651336 
L 401.752285 245.206551 
L 412.104789 251.05202 
L 422.457294 256.270775 
L 432.809799 260.863457 
L 443.162303 264.879349 
L 453.514808 268.385166 
L 463.867313 271.407068 
L 474.219817 274.02136 
L 484.572322 276.310818 
L 494.924827 278.285828 
L 505.277331 279.960016 
L 515.629836 281.392105 
L 525.98234 282.60033 
L 536.334845 283.621035 
L 546.68735 284.486388 
L 557.039854 285.207142 
L 567.392359 285.803299 
L 577.744864 286.308851 
" clip-path="url(#pf7b14c1306)" style="fill: none; stroke: #008000; stroke-width: 1.2; stroke-linecap: square"/>
   </g>
   <g id="patch_3">
    <path d="M 45.1085 301.037813 
L 45.1085 23.837813 
" style="fill: none; stroke: #ffffff; stroke-linejoin: miter; stroke-linecap: square"/>
   </g>
   <g id="patch_4">
    <path d="M 603.1085 301.037813 
L 603.1085 23.837813 
" style="fill: none; stroke: #ffffff; stroke-linejoin: miter; stroke-linecap: square"/>
   </g>
   <g id="patch_5">
    <path d="M 45.1085 301.037813 
L 603.1085 301.037813 
" style="fill: none; stroke: #ffffff; stroke-linejoin: miter; stroke-linecap: square"/>
   </g>
   <g id="patch_6">
    <path d="M 45.1085 23.837813 
L 603.1085 23.837813 
" style="fill: none; stroke: #ffffff; stroke-linejoin: miter; stroke-linecap: square"/>
   </g>
   <g id="text_16">
    <!-- PDD Hampshire 1066 CE -->
    <g transform="translate(237.436469 17.837813) scale(0.14 -0.14)">
     <defs>
      <path id="DejaVuSans-50" d="M 1259 4147 
L 1259 2394 
L 2053 2394 
Q 2494 2394 2734 2622 
Q 2975 2850 2975 3272 
Q 2975 3691 2734 3919 
Q 2494 4147 2053 4147 
L 1259 4147 
z
M 628 4666 
L 2053 4666 
Q 2838 4666 3239 4311 
Q 3641 3956 3641 3272 
Q 3641 2581 3239 2228 
Q 2838 1875 2053 1875 
L 1259 1875 
L 1259 0 
L 628 0 
L 628 4666 
z
" transform="scale(0.015625)"/>
      <path id="DejaVuSans-48" d="M 628 4666 
L 1259 4666 
L 1259 2753 
L 3553 2753 
L 3553 4666 
L 4184 4666 
L 4184 0 
L 3553 0 
L 3553 2222 
L 1259 2222 
L 1259 0 
L 628 0 
L 628 4666 
z
" transform="scale(0.015625)"/>
      <path id="DejaVuSans-70" d="M 1159 525 
L 1159 -1331 
L 581 -1331 
L 581 3500 
L 1159 3500 
L 1159 2969 
Q 1341 3281 1617 3432 
Q 1894 3584 2278 3584 
Q 2916 3584 3314 3078 
Q 3713 2572 3713 1747 
Q 3713 922 3314 415 
Q 2916 -91 2278 -91 
Q 1894 -91 1617 61 
Q 1341 213 1159 525 
z
M 3116 1747 
Q 3116 2381 2855 2742 
Q 2594 3103 2138 3103 
Q 1681 3103 1420 2742 
Q 1159 2381 1159 1747 
Q 1159 1113 1420 752 
Q 1681 391 2138 391 
Q 2594 391 2855 752 
Q 3116 1113 3116 1747 
z
" transform="scale(0.015625)"/>
      <path id="DejaVuSans-68" d="M 3513 2113 
L 3513 0 
L 2938 0 
L 2938 2094 
Q 2938 2591 2744 2837 
Q 2550 3084 2163 3084 
Q 1697 3084 1428 2787 
Q 1159 2491 1159 1978 
L 1159 0 
L 581 0 
L 581 4863 
L 1159 4863 
L 1159 2956 
Q 1366 3272 1645 3428 
Q 1925 3584 2291 3584 
Q 2894 3584 3203 3211 
Q 3513 2838 3513 2113 
z
" transform="scale(0.015625)"/>
      <path id="DejaVuSans-72" d="M 2631 2963 
Q 2534 3019 2420 3045 
Q 2306 3072 2169 3072 
Q 1681 3072 1420 2755 
Q 1159 2438 1159 1844 
L 1159 0 
L 581 0 
L 581 3500 
L 1159 3500 
L 1159 2956 
Q 1341 3275 1631 3429 
Q 1922 3584 2338 3584 
Q 2397 3584 2469 3576 
Q 2541 3569 2628 3553 
L 2631 2963 
z
" transform="scale(0.015625)"/>
      <path id="DejaVuSans-43" d="M 4122 4306 
L 4122 3641 
Q 3803 3938 3442 4084 
Q 3081 4231 2675 4231 
Q 1875 4231 1450 3742 
Q 1025 3253 1025 2328 
Q 1025 1406 1450 917 
Q 1875 428 2675 428 
Q 3081 428 3442 575 
Q 3803 722 4122 1019 
L 4122 359 
Q 3791 134 3420 21 
Q 3050 -91 2638 -91 
Q 1578 -91 968 557 
Q 359 1206 359 2328 
Q 359 3453 968 4101 
Q 1578 4750 2638 4750 
Q 3056 4750 3426 4639 
Q 3797 4528 4122 4306 
z
" transform="scale(0.015625)"/>
      <path id="DejaVuSans-45" d="M 628 4666 
L 3578 4666 
L 3578 4134 
L 1259 4134 
L 1259 2753 
L 3481 2753 
L 3481 2222 
L 1259 2222 
L 1259 531 
L 3634 531 
L 3634 0 
L 628 0 
L 628 4666 
z
" transform="scale(0.015625)"/>
     </defs>
     <use xlink:href="#DejaVuSans-50"/>
     <use xlink:href="#DejaVuSans-44" transform="translate(60.302734 0)"/>
     <use xlink:href="#DejaVuSans-44" transform="translate(137.304688 0)"/>
     <use xlink:href="#DejaVuSans-20" transform="translate(214.306641 0)"/>
     <use xlink:href="#DejaVuSans-48" transform="translate(246.09375 0)"/>
     <use xlink:href="#DejaVuSans-61" transform="translate(321.289062 0)"/>
     <use xlink:href="#DejaVuSans-6d" transform="translate(382.568359 0)"/>
     <use xlink:href="#DejaVuSans-70" transform="translate(479.980469 0)"/>
     <use xlink:href="#DejaVuSans-73" transform="translate(543.457031 0)"/>
     <use xlink:href="#DejaVuSans-68" transform="translate(595.556641 0)"/>
     <use xlink:href="#DejaVuSans-69" transform="translate(658.935547 0)"/>
     <use xlink:href="#DejaVuSans-72" transform="translate(686.71875 0)"/>
     <use xlink:href="#DejaVuSans-65" transform="translate(725.582031 0)"/>
     <use xlink:href="#DejaVuSans-20" transform="translate(787.105469 0)"/>
     <use xlink:href="#DejaVuSans-31" transform="translate(818.892578 0)"/>
     <use xlink:href="#DejaVuSans-30" transform="translate(882.515625 0)"/>
     <use xlink:href="#DejaVuSans-36" transform="translate(946.138672 0)"/>
     <use xlink:href="#DejaVuSans-36" transform="translate(1009.761719 0)"/>
     <use xlink:href="#DejaVuSans-20" transform="translate(1073.384766 0)"/>
     <use xlink:href="#DejaVuSans-43" transform="translate(1105.171875 0)"/>
     <use xlink:href="#DejaVuSans-45" transform="translate(1174.996094 0)"/>
    </g>
   </g>
   <g id="legend_1">
    <g id="line2d_28">
     <path d="M 519.628812 36.93625 
L 529.628812 36.93625 
L 539.628812 36.93625 
" style="fill: none; stroke: #0000ff; stroke-width: 1.2; stroke-linecap: square"/>
    </g>
    <g id="text_17">
     <!-- Empirical -->
     <g transform="translate(547.628812 40.43625) scale(0.1 -0.1)">
      <defs>
       <path id="DejaVuSans-6c" d="M 603 4863 
L 1178 4863 
L 1178 0 
L 603 0 
L 603 4863 
z
" transform="scale(0.015625)"/>
      </defs>
      <use xlink:href="#DejaVuSans-45"/>
      <use xlink:href="#DejaVuSans-6d" transform="translate(63.183594 0)"/>
      <use xlink:href="#DejaVuSans-70" transform="translate(160.595703 0)"/>
      <use xlink:href="#DejaVuSans-69" transform="translate(224.072266 0)"/>
      <use xlink:href="#DejaVuSans-72" transform="translate(251.855469 0)"/>
      <use xlink:href="#DejaVuSans-69" transform="translate(292.96875 0)"/>
      <use xlink:href="#DejaVuSans-63" transform="translate(320.751953 0)"/>
      <use xlink:href="#DejaVuSans-61" transform="translate(375.732422 0)"/>
      <use xlink:href="#DejaVuSans-6c" transform="translate(437.011719 0)"/>
     </g>
    </g>
    <g id="line2d_29">
     <path d="M 519.628812 51.614375 
L 529.628812 51.614375 
L 539.628812 51.614375 
" style="fill: none; stroke: #ffa500; stroke-width: 1.2; stroke-linecap: square"/>
    </g>
    <g id="text_18">
     <!-- CSR -->
     <g transform="translate(547.628812 55.114375) scale(0.1 -0.1)">
      <defs>
       <path id="DejaVuSans-53" d="M 3425 4513 
L 3425 3897 
Q 3066 4069 2747 4153 
Q 2428 4238 2131 4238 
Q 1616 4238 1336 4038 
Q 1056 3838 1056 3469 
Q 1056 3159 1242 3001 
Q 1428 2844 1947 2747 
L 2328 2669 
Q 3034 2534 3370 2195 
Q 3706 1856 3706 1288 
Q 3706 609 3251 259 
Q 2797 -91 1919 -91 
Q 1588 -91 1214 -16 
Q 841 59 441 206 
L 441 856 
Q 825 641 1194 531 
Q 1563 422 1919 422 
Q 2459 422 2753 634 
Q 3047 847 3047 1241 
Q 3047 1584 2836 1778 
Q 2625 1972 2144 2069 
L 1759 2144 
Q 1053 2284 737 2584 
Q 422 2884 422 3419 
Q 422 4038 858 4394 
Q 1294 4750 2059 4750 
Q 2388 4750 2728 4690 
Q 3069 4631 3425 4513 
z
" transform="scale(0.015625)"/>
       <path id="DejaVuSans-52" d="M 2841 2188 
Q 3044 2119 3236 1894 
Q 3428 1669 3622 1275 
L 4263 0 
L 3584 0 
L 2988 1197 
Q 2756 1666 2539 1819 
Q 2322 1972 1947 1972 
L 1259 1972 
L 1259 0 
L 628 0 
L 628 4666 
L 2053 4666 
Q 2853 4666 3247 4331 
Q 3641 3997 3641 3322 
Q 3641 2881 3436 2590 
Q 3231 2300 2841 2188 
z
M 1259 4147 
L 1259 2491 
L 2053 2491 
Q 2509 2491 2742 2702 
Q 2975 2913 2975 3322 
Q 2975 3731 2742 3939 
Q 2509 4147 2053 4147 
L 1259 4147 
z
" transform="scale(0.015625)"/>
      </defs>
      <use xlink:href="#DejaVuSans-43"/>
      <use xlink:href="#DejaVuSans-53" transform="translate(69.824219 0)"/>
      <use xlink:href="#DejaVuSans-52" transform="translate(133.300781 0)"/>
     </g>
    </g>
    <g id="line2d_30">
     <path d="M 519.628812 66.2925 
L 529.628812 66.2925 
L 539.628812 66.2925 
" style="fill: none; stroke: #008000; stroke-width: 1.2; stroke-linecap: square"/>
    </g>
    <g id="text_19">
     <!-- BISE -->
     <g transform="translate(547.628812 69.7925) scale(0.1 -0.1)">
      <defs>
       <path id="DejaVuSans-42" d="M 1259 2228 
L 1259 519 
L 2272 519 
Q 2781 519 3026 730 
Q 3272 941 3272 1375 
Q 3272 1813 3026 2020 
Q 2781 2228 2272 2228 
L 1259 2228 
z
M 1259 4147 
L 1259 2741 
L 2194 2741 
Q 2656 2741 2882 2914 
Q 3109 3088 3109 3444 
Q 3109 3797 2882 3972 
Q 2656 4147 2194 4147 
L 1259 4147 
z
M 628 4666 
L 2241 4666 
Q 2963 4666 3353 4366 
Q 3744 4066 3744 3513 
Q 3744 3084 3544 2831 
Q 3344 2578 2956 2516 
Q 3422 2416 3680 2098 
Q 3938 1781 3938 1306 
Q 3938 681 3513 340 
Q 3088 0 2303 0 
L 628 0 
L 628 4666 
z
" transform="scale(0.015625)"/>
       <path id="DejaVuSans-49" d="M 628 4666 
L 1259 4666 
L 1259 0 
L 628 0 
L 628 4666 
z
" transform="scale(0.015625)"/>
      </defs>
      <use xlink:href="#DejaVuSans-42"/>
      <use xlink:href="#DejaVuSans-49" transform="translate(68.603516 0)"/>
      <use xlink:href="#DejaVuSans-53" transform="translate(98.095703 0)"/>
      <use xlink:href="#DejaVuSans-45" transform="translate(161.572266 0)"/>
     </g>
    </g>
   </g>
  </g>
 </g>
 <defs>
  <clipPath id="pf7b14c1306">
   <rect x="45.1085" y="23.837813" width="558" height="277.2"/>
  </clipPath>
 </defs>
</svg>
