<?xml version="1.0" encoding="utf-8" standalone="no"?>
<!DOCTYPE svg PUBLIC "-//W3C//DTD SVG 1.1//EN"
  "http://www.w3.org/Graphics/SVG/1.1/DTD/svg11.dtd">
<svg xmlns:xlink="http://www.w3.org/1999/xlink" width="616.131605pt" height="340.668313pt" viewBox="0 0 616.131605 340.668313" xmlns="http://www.w3.org/2000/svg" version="1.1">
 <metadata>
  <rdf:RDF xmlns:dc="http://purl.org/dc/elements/1.1/" xmlns:cc="http://creativecommons.org/ns#" xmlns:rdf="http://www.w3.org/1999/02/22-rdf-syntax-ns#">
   <cc:Work>
    <dc:type rdf:resource="http://purl.org/dc/dcmitype/StillImage"/>
    <dc:date>2025-04-02T16:06:40.532917</dc:date>
    <dc:format>image/svg+xml</dc:format>
    <dc:creator>
     <cc:Agent>
      <dc:title>Matplotlib v3.10.1, https://matplotlib.org/</dc:title>
     </cc:Agent>
    </dc:creator>
   </cc:Work>
  </rdf:RDF>
 </metadata>
 <defs>
  <style type="text/css">*{stroke-linejoin: round; stroke-linecap: butt}</style>
 </defs>
 <g id="figure_1">
  <g id="patch_1">
   <path d="M 0 340.668313 
L 616.131605 340.668313 
L 616.131605 0 
L 0 0 
z
" style="fill: #ffffff"/>
  </g>
  <g id="axes_1">
   <g id="patch_2">
    <path d="M 45.1085 301.037813 
L 603.1085 301.037813 
L 603.1085 23.837813 
L 45.1085 23.837813 
z
" style="fill: #e5e5e5"/>
   </g>
   <g id="matplotlib.axis_1">
    <g id="xtick_1">
     <g id="line2d_1">
      <path d="M 70.472136 301.037813 
L 70.472136 23.837813 
" clip-path="url(#p5992e5f570)" style="fill: none; stroke: #ffffff; stroke-width: 0.8; stroke-linecap: square"/>
     </g>
     <g id="line2d_2">
      <defs>
       <path id="m47cfc473c5" d="M 0 0 
L 0 4.8 
" style="stroke: #555555"/>
      </defs>
      <g>
       <use xlink:href="#m47cfc473c5" x="70.472136" y="301.037813" style="fill: #555555; stroke: #555555"/>
      </g>
     </g>
     <g id="text_1">
      <!-- 0 -->
      <g style="fill: #555555" transform="translate(67.672636 316.024438) scale(0.088 -0.088)">
       <defs>
        <path id="DejaVuSans-30" d="M 2034 4250 
Q 1547 4250 1301 3770 
Q 1056 3291 1056 2328 
Q 1056 1369 1301 889 
Q 1547 409 2034 409 
Q 2525 409 2770 889 
Q 3016 1369 3016 2328 
Q 3016 3291 2770 3770 
Q 2525 4250 2034 4250 
z
M 2034 4750 
Q 2819 4750 3233 4129 
Q 3647 3509 3647 2328 
Q 3647 1150 3233 529 
Q 2819 -91 2034 -91 
Q 1250 -91 836 529 
Q 422 1150 422 2328 
Q 422 3509 836 4129 
Q 1250 4750 2034 4750 
z
" transform="scale(0.015625)"/>
       </defs>
       <use xlink:href="#DejaVuSans-30"/>
      </g>
     </g>
    </g>
    <g id="xtick_2">
     <g id="line2d_3">
      <path d="M 136.029882 301.037813 
L 136.029882 23.837813 
" clip-path="url(#p5992e5f570)" style="fill: none; stroke: #ffffff; stroke-width: 0.8; stroke-linecap: square"/>
     </g>
     <g id="line2d_4">
      <g>
       <use xlink:href="#m47cfc473c5" x="136.029882" y="301.037813" style="fill: #555555; stroke: #555555"/>
      </g>
     </g>
     <g id="text_2">
      <!-- 10000 -->
      <g style="fill: #555555" transform="translate(122.032382 316.024438) scale(0.088 -0.088)">
       <defs>
        <path id="DejaVuSans-31" d="M 794 531 
L 1825 531 
L 1825 4091 
L 703 3866 
L 703 4441 
L 1819 4666 
L 2450 4666 
L 2450 531 
L 3481 531 
L 3481 0 
L 794 0 
L 794 531 
z
" transform="scale(0.015625)"/>
       </defs>
       <use xlink:href="#DejaVuSans-31"/>
       <use xlink:href="#DejaVuSans-30" transform="translate(63.623047 0)"/>
       <use xlink:href="#DejaVuSans-30" transform="translate(127.246094 0)"/>
       <use xlink:href="#DejaVuSans-30" transform="translate(190.869141 0)"/>
       <use xlink:href="#DejaVuSans-30" transform="translate(254.492188 0)"/>
      </g>
     </g>
    </g>
    <g id="xtick_3">
     <g id="line2d_5">
      <path d="M 201.587628 301.037813 
L 201.587628 23.837813 
" clip-path="url(#p5992e5f570)" style="fill: none; stroke: #ffffff; stroke-width: 0.8; stroke-linecap: square"/>
     </g>
     <g id="line2d_6">
      <g>
       <use xlink:href="#m47cfc473c5" x="201.587628" y="301.037813" style="fill: #555555; stroke: #555555"/>
      </g>
     </g>
     <g id="text_3">
      <!-- 20000 -->
      <g style="fill: #555555" transform="translate(187.590128 316.024438) scale(0.088 -0.088)">
       <defs>
        <path id="DejaVuSans-32" d="M 1228 531 
L 3431 531 
L 3431 0 
L 469 0 
L 469 531 
Q 828 903 1448 1529 
Q 2069 2156 2228 2338 
Q 2531 2678 2651 2914 
Q 2772 3150 2772 3378 
Q 2772 3750 2511 3984 
Q 2250 4219 1831 4219 
Q 1534 4219 1204 4116 
Q 875 4013 500 3803 
L 500 4441 
Q 881 4594 1212 4672 
Q 1544 4750 1819 4750 
Q 2544 4750 2975 4387 
Q 3406 4025 3406 3419 
Q 3406 3131 3298 2873 
Q 3191 2616 2906 2266 
Q 2828 2175 2409 1742 
Q 1991 1309 1228 531 
z
" transform="scale(0.015625)"/>
       </defs>
       <use xlink:href="#DejaVuSans-32"/>
       <use xlink:href="#DejaVuSans-30" transform="translate(63.623047 0)"/>
       <use xlink:href="#DejaVuSans-30" transform="translate(127.246094 0)"/>
       <use xlink:href="#DejaVuSans-30" transform="translate(190.869141 0)"/>
       <use xlink:href="#DejaVuSans-30" transform="translate(254.492188 0)"/>
      </g>
     </g>
    </g>
    <g id="xtick_4">
     <g id="line2d_7">
      <path d="M 267.145374 301.037813 
L 267.145374 23.837813 
" clip-path="url(#p5992e5f570)" style="fill: none; stroke: #ffffff; stroke-width: 0.8; stroke-linecap: square"/>
     </g>
     <g id="line2d_8">
      <g>
       <use xlink:href="#m47cfc473c5" x="267.145374" y="301.037813" style="fill: #555555; stroke: #555555"/>
      </g>
     </g>
     <g id="text_4">
      <!-- 30000 -->
      <g style="fill: #555555" transform="translate(253.147874 316.024438) scale(0.088 -0.088)">
       <defs>
        <path id="DejaVuSans-33" d="M 2597 2516 
Q 3050 2419 3304 2112 
Q 3559 1806 3559 1356 
Q 3559 666 3084 287 
Q 2609 -91 1734 -91 
Q 1441 -91 1130 -33 
Q 819 25 488 141 
L 488 750 
Q 750 597 1062 519 
Q 1375 441 1716 441 
Q 2309 441 2620 675 
Q 2931 909 2931 1356 
Q 2931 1769 2642 2001 
Q 2353 2234 1838 2234 
L 1294 2234 
L 1294 2753 
L 1863 2753 
Q 2328 2753 2575 2939 
Q 2822 3125 2822 3475 
Q 2822 3834 2567 4026 
Q 2313 4219 1838 4219 
Q 1578 4219 1281 4162 
Q 984 4106 628 3988 
L 628 4550 
Q 988 4650 1302 4700 
Q 1616 4750 1894 4750 
Q 2613 4750 3031 4423 
Q 3450 4097 3450 3541 
Q 3450 3153 3228 2886 
Q 3006 2619 2597 2516 
z
" transform="scale(0.015625)"/>
       </defs>
       <use xlink:href="#DejaVuSans-33"/>
       <use xlink:href="#DejaVuSans-30" transform="translate(63.623047 0)"/>
       <use xlink:href="#DejaVuSans-30" transform="translate(127.246094 0)"/>
       <use xlink:href="#DejaVuSans-30" transform="translate(190.869141 0)"/>
       <use xlink:href="#DejaVuSans-30" transform="translate(254.492188 0)"/>
      </g>
     </g>
    </g>
    <g id="xtick_5">
     <g id="line2d_9">
      <path d="M 332.703121 301.037813 
L 332.703121 23.837813 
" clip-path="url(#p5992e5f570)" style="fill: none; stroke: #ffffff; stroke-width: 0.8; stroke-linecap: square"/>
     </g>
     <g id="line2d_10">
      <g>
       <use xlink:href="#m47cfc473c5" x="332.703121" y="301.037813" style="fill: #555555; stroke: #555555"/>
      </g>
     </g>
     <g id="text_5">
      <!-- 40000 -->
      <g style="fill: #555555" transform="translate(318.705621 316.024438) scale(0.088 -0.088)">
       <defs>
        <path id="DejaVuSans-34" d="M 2419 4116 
L 825 1625 
L 2419 1625 
L 2419 4116 
z
M 2253 4666 
L 3047 4666 
L 3047 1625 
L 3713 1625 
L 3713 1100 
L 3047 1100 
L 3047 0 
L 2419 0 
L 2419 1100 
L 313 1100 
L 313 1709 
L 2253 4666 
z
" transform="scale(0.015625)"/>
       </defs>
       <use xlink:href="#DejaVuSans-34"/>
       <use xlink:href="#DejaVuSans-30" transform="translate(63.623047 0)"/>
       <use xlink:href="#DejaVuSans-30" transform="translate(127.246094 0)"/>
       <use xlink:href="#DejaVuSans-30" transform="translate(190.869141 0)"/>
       <use xlink:href="#DejaVuSans-30" transform="translate(254.492188 0)"/>
      </g>
     </g>
    </g>
    <g id="xtick_6">
     <g id="line2d_11">
      <path d="M 398.260867 301.037813 
L 398.260867 23.837813 
" clip-path="url(#p5992e5f570)" style="fill: none; stroke: #ffffff; stroke-width: 0.8; stroke-linecap: square"/>
     </g>
     <g id="line2d_12">
      <g>
       <use xlink:href="#m47cfc473c5" x="398.260867" y="301.037813" style="fill: #555555; stroke: #555555"/>
      </g>
     </g>
     <g id="text_6">
      <!-- 50000 -->
      <g style="fill: #555555" transform="translate(384.263367 316.024438) scale(0.088 -0.088)">
       <defs>
        <path id="DejaVuSans-35" d="M 691 4666 
L 3169 4666 
L 3169 4134 
L 1269 4134 
L 1269 2991 
Q 1406 3038 1543 3061 
Q 1681 3084 1819 3084 
Q 2600 3084 3056 2656 
Q 3513 2228 3513 1497 
Q 3513 744 3044 326 
Q 2575 -91 1722 -91 
Q 1428 -91 1123 -41 
Q 819 9 494 109 
L 494 744 
Q 775 591 1075 516 
Q 1375 441 1709 441 
Q 2250 441 2565 725 
Q 2881 1009 2881 1497 
Q 2881 1984 2565 2268 
Q 2250 2553 1709 2553 
Q 1456 2553 1204 2497 
Q 953 2441 691 2322 
L 691 4666 
z
" transform="scale(0.015625)"/>
       </defs>
       <use xlink:href="#DejaVuSans-35"/>
       <use xlink:href="#DejaVuSans-30" transform="translate(63.623047 0)"/>
       <use xlink:href="#DejaVuSans-30" transform="translate(127.246094 0)"/>
       <use xlink:href="#DejaVuSans-30" transform="translate(190.869141 0)"/>
       <use xlink:href="#DejaVuSans-30" transform="translate(254.492188 0)"/>
      </g>
     </g>
    </g>
    <g id="xtick_7">
     <g id="line2d_13">
      <path d="M 463.818613 301.037813 
L 463.818613 23.837813 
" clip-path="url(#p5992e5f570)" style="fill: none; stroke: #ffffff; stroke-width: 0.8; stroke-linecap: square"/>
     </g>
     <g id="line2d_14">
      <g>
       <use xlink:href="#m47cfc473c5" x="463.818613" y="301.037813" style="fill: #555555; stroke: #555555"/>
      </g>
     </g>
     <g id="text_7">
      <!-- 60000 -->
      <g style="fill: #555555" transform="translate(449.821113 316.024438) scale(0.088 -0.088)">
       <defs>
        <path id="DejaVuSans-36" d="M 2113 2584 
Q 1688 2584 1439 2293 
Q 1191 2003 1191 1497 
Q 1191 994 1439 701 
Q 1688 409 2113 409 
Q 2538 409 2786 701 
Q 3034 994 3034 1497 
Q 3034 2003 2786 2293 
Q 2538 2584 2113 2584 
z
M 3366 4563 
L 3366 3988 
Q 3128 4100 2886 4159 
Q 2644 4219 2406 4219 
Q 1781 4219 1451 3797 
Q 1122 3375 1075 2522 
Q 1259 2794 1537 2939 
Q 1816 3084 2150 3084 
Q 2853 3084 3261 2657 
Q 3669 2231 3669 1497 
Q 3669 778 3244 343 
Q 2819 -91 2113 -91 
Q 1303 -91 875 529 
Q 447 1150 447 2328 
Q 447 3434 972 4092 
Q 1497 4750 2381 4750 
Q 2619 4750 2861 4703 
Q 3103 4656 3366 4563 
z
" transform="scale(0.015625)"/>
       </defs>
       <use xlink:href="#DejaVuSans-36"/>
       <use xlink:href="#DejaVuSans-30" transform="translate(63.623047 0)"/>
       <use xlink:href="#DejaVuSans-30" transform="translate(127.246094 0)"/>
       <use xlink:href="#DejaVuSans-30" transform="translate(190.869141 0)"/>
       <use xlink:href="#DejaVuSans-30" transform="translate(254.492188 0)"/>
      </g>
     </g>
    </g>
    <g id="xtick_8">
     <g id="line2d_15">
      <path d="M 529.376359 301.037813 
L 529.376359 23.837813 
" clip-path="url(#p5992e5f570)" style="fill: none; stroke: #ffffff; stroke-width: 0.8; stroke-linecap: square"/>
     </g>
     <g id="line2d_16">
      <g>
       <use xlink:href="#m47cfc473c5" x="529.376359" y="301.037813" style="fill: #555555; stroke: #555555"/>
      </g>
     </g>
     <g id="text_8">
      <!-- 70000 -->
      <g style="fill: #555555" transform="translate(515.378859 316.024438) scale(0.088 -0.088)">
       <defs>
        <path id="DejaVuSans-37" d="M 525 4666 
L 3525 4666 
L 3525 4397 
L 1831 0 
L 1172 0 
L 2766 4134 
L 525 4134 
L 525 4666 
z
" transform="scale(0.015625)"/>
       </defs>
       <use xlink:href="#DejaVuSans-37"/>
       <use xlink:href="#DejaVuSans-30" transform="translate(63.623047 0)"/>
       <use xlink:href="#DejaVuSans-30" transform="translate(127.246094 0)"/>
       <use xlink:href="#DejaVuSans-30" transform="translate(190.869141 0)"/>
       <use xlink:href="#DejaVuSans-30" transform="translate(254.492188 0)"/>
      </g>
     </g>
    </g>
    <g id="xtick_9">
     <g id="line2d_17">
      <path d="M 594.934105 301.037813 
L 594.934105 23.837813 
" clip-path="url(#p5992e5f570)" style="fill: none; stroke: #ffffff; stroke-width: 0.8; stroke-linecap: square"/>
     </g>
     <g id="line2d_18">
      <g>
       <use xlink:href="#m47cfc473c5" x="594.934105" y="301.037813" style="fill: #555555; stroke: #555555"/>
      </g>
     </g>
     <g id="text_9">
      <!-- 80000 -->
      <g style="fill: #555555" transform="translate(580.936605 316.024438) scale(0.088 -0.088)">
       <defs>
        <path id="DejaVuSans-38" d="M 2034 2216 
Q 1584 2216 1326 1975 
Q 1069 1734 1069 1313 
Q 1069 891 1326 650 
Q 1584 409 2034 409 
Q 2484 409 2743 651 
Q 3003 894 3003 1313 
Q 3003 1734 2745 1975 
Q 2488 2216 2034 2216 
z
M 1403 2484 
Q 997 2584 770 2862 
Q 544 3141 544 3541 
Q 544 4100 942 4425 
Q 1341 4750 2034 4750 
Q 2731 4750 3128 4425 
Q 3525 4100 3525 3541 
Q 3525 3141 3298 2862 
Q 3072 2584 2669 2484 
Q 3125 2378 3379 2068 
Q 3634 1759 3634 1313 
Q 3634 634 3220 271 
Q 2806 -91 2034 -91 
Q 1263 -91 848 271 
Q 434 634 434 1313 
Q 434 1759 690 2068 
Q 947 2378 1403 2484 
z
M 1172 3481 
Q 1172 3119 1398 2916 
Q 1625 2713 2034 2713 
Q 2441 2713 2670 2916 
Q 2900 3119 2900 3481 
Q 2900 3844 2670 4047 
Q 2441 4250 2034 4250 
Q 1625 4250 1398 4047 
Q 1172 3844 1172 3481 
z
" transform="scale(0.015625)"/>
       </defs>
       <use xlink:href="#DejaVuSans-38"/>
       <use xlink:href="#DejaVuSans-30" transform="translate(63.623047 0)"/>
       <use xlink:href="#DejaVuSans-30" transform="translate(127.246094 0)"/>
       <use xlink:href="#DejaVuSans-30" transform="translate(190.869141 0)"/>
       <use xlink:href="#DejaVuSans-30" transform="translate(254.492188 0)"/>
      </g>
     </g>
    </g>
    <g id="text_10">
     <!-- Distance -->
     <g style="fill: #555555" transform="translate(297.8735 330.972688) scale(0.12 -0.12)">
      <defs>
       <path id="DejaVuSans-44" d="M 1259 4147 
L 1259 519 
L 2022 519 
Q 2988 519 3436 956 
Q 3884 1394 3884 2338 
Q 3884 3275 3436 3711 
Q 2988 4147 2022 4147 
L 1259 4147 
z
M 628 4666 
L 1925 4666 
Q 3281 4666 3915 4102 
Q 4550 3538 4550 2338 
Q 4550 1131 3912 565 
Q 3275 0 1925 0 
L 628 0 
L 628 4666 
z
" transform="scale(0.015625)"/>
       <path id="DejaVuSans-69" d="M 603 3500 
L 1178 3500 
L 1178 0 
L 603 0 
L 603 3500 
z
M 603 4863 
L 1178 4863 
L 1178 4134 
L 603 4134 
L 603 4863 
z
" transform="scale(0.015625)"/>
       <path id="DejaVuSans-73" d="M 2834 3397 
L 2834 2853 
Q 2591 2978 2328 3040 
Q 2066 3103 1784 3103 
Q 1356 3103 1142 2972 
Q 928 2841 928 2578 
Q 928 2378 1081 2264 
Q 1234 2150 1697 2047 
L 1894 2003 
Q 2506 1872 2764 1633 
Q 3022 1394 3022 966 
Q 3022 478 2636 193 
Q 2250 -91 1575 -91 
Q 1294 -91 989 -36 
Q 684 19 347 128 
L 347 722 
Q 666 556 975 473 
Q 1284 391 1588 391 
Q 1994 391 2212 530 
Q 2431 669 2431 922 
Q 2431 1156 2273 1281 
Q 2116 1406 1581 1522 
L 1381 1569 
Q 847 1681 609 1914 
Q 372 2147 372 2553 
Q 372 3047 722 3315 
Q 1072 3584 1716 3584 
Q 2034 3584 2315 3537 
Q 2597 3491 2834 3397 
z
" transform="scale(0.015625)"/>
       <path id="DejaVuSans-74" d="M 1172 4494 
L 1172 3500 
L 2356 3500 
L 2356 3053 
L 1172 3053 
L 1172 1153 
Q 1172 725 1289 603 
Q 1406 481 1766 481 
L 2356 481 
L 2356 0 
L 1766 0 
Q 1100 0 847 248 
Q 594 497 594 1153 
L 594 3053 
L 172 3053 
L 172 3500 
L 594 3500 
L 594 4494 
L 1172 4494 
z
" transform="scale(0.015625)"/>
       <path id="DejaVuSans-61" d="M 2194 1759 
Q 1497 1759 1228 1600 
Q 959 1441 959 1056 
Q 959 750 1161 570 
Q 1363 391 1709 391 
Q 2188 391 2477 730 
Q 2766 1069 2766 1631 
L 2766 1759 
L 2194 1759 
z
M 3341 1997 
L 3341 0 
L 2766 0 
L 2766 531 
Q 2569 213 2275 61 
Q 1981 -91 1556 -91 
Q 1019 -91 701 211 
Q 384 513 384 1019 
Q 384 1609 779 1909 
Q 1175 2209 1959 2209 
L 2766 2209 
L 2766 2266 
Q 2766 2663 2505 2880 
Q 2244 3097 1772 3097 
Q 1472 3097 1187 3025 
Q 903 2953 641 2809 
L 641 3341 
Q 956 3463 1253 3523 
Q 1550 3584 1831 3584 
Q 2591 3584 2966 3190 
Q 3341 2797 3341 1997 
z
" transform="scale(0.015625)"/>
       <path id="DejaVuSans-6e" d="M 3513 2113 
L 3513 0 
L 2938 0 
L 2938 2094 
Q 2938 2591 2744 2837 
Q 2550 3084 2163 3084 
Q 1697 3084 1428 2787 
Q 1159 2491 1159 1978 
L 1159 0 
L 581 0 
L 581 3500 
L 1159 3500 
L 1159 2956 
Q 1366 3272 1645 3428 
Q 1925 3584 2291 3584 
Q 2894 3584 3203 3211 
Q 3513 2838 3513 2113 
z
" transform="scale(0.015625)"/>
       <path id="DejaVuSans-63" d="M 3122 3366 
L 3122 2828 
Q 2878 2963 2633 3030 
Q 2388 3097 2138 3097 
Q 1578 3097 1268 2742 
Q 959 2388 959 1747 
Q 959 1106 1268 751 
Q 1578 397 2138 397 
Q 2388 397 2633 464 
Q 2878 531 3122 666 
L 3122 134 
Q 2881 22 2623 -34 
Q 2366 -91 2075 -91 
Q 1284 -91 818 406 
Q 353 903 353 1747 
Q 353 2603 823 3093 
Q 1294 3584 2113 3584 
Q 2378 3584 2631 3529 
Q 2884 3475 3122 3366 
z
" transform="scale(0.015625)"/>
       <path id="DejaVuSans-65" d="M 3597 1894 
L 3597 1613 
L 953 1613 
Q 991 1019 1311 708 
Q 1631 397 2203 397 
Q 2534 397 2845 478 
Q 3156 559 3463 722 
L 3463 178 
Q 3153 47 2828 -22 
Q 2503 -91 2169 -91 
Q 1331 -91 842 396 
Q 353 884 353 1716 
Q 353 2575 817 3079 
Q 1281 3584 2069 3584 
Q 2775 3584 3186 3129 
Q 3597 2675 3597 1894 
z
M 3022 2063 
Q 3016 2534 2758 2815 
Q 2500 3097 2075 3097 
Q 1594 3097 1305 2825 
Q 1016 2553 972 2059 
L 3022 2063 
z
" transform="scale(0.015625)"/>
      </defs>
      <use xlink:href="#DejaVuSans-44"/>
      <use xlink:href="#DejaVuSans-69" transform="translate(77.001953 0)"/>
      <use xlink:href="#DejaVuSans-73" transform="translate(104.785156 0)"/>
      <use xlink:href="#DejaVuSans-74" transform="translate(156.884766 0)"/>
      <use xlink:href="#DejaVuSans-61" transform="translate(196.09375 0)"/>
      <use xlink:href="#DejaVuSans-6e" transform="translate(257.373047 0)"/>
      <use xlink:href="#DejaVuSans-63" transform="translate(320.751953 0)"/>
      <use xlink:href="#DejaVuSans-65" transform="translate(375.732422 0)"/>
     </g>
    </g>
   </g>
   <g id="matplotlib.axis_2">
    <g id="ytick_1">
     <g id="line2d_19">
      <path d="M 45.1085 288.437813 
L 603.1085 288.437813 
" clip-path="url(#p5992e5f570)" style="fill: none; stroke: #ffffff; stroke-width: 0.8; stroke-linecap: square"/>
     </g>
     <g id="line2d_20">
      <defs>
       <path id="mf249b188db" d="M 0 0 
L -4.8 0 
" style="stroke: #555555"/>
      </defs>
      <g>
       <use xlink:href="#mf249b188db" x="45.1085" y="288.437813" style="fill: #555555; stroke: #555555"/>
      </g>
     </g>
     <g id="text_11">
      <!-- 0.0 -->
      <g style="fill: #555555" transform="translate(22.81375 291.781125) scale(0.088 -0.088)">
       <defs>
        <path id="DejaVuSans-2e" d="M 684 794 
L 1344 794 
L 1344 0 
L 684 0 
L 684 794 
z
" transform="scale(0.015625)"/>
       </defs>
       <use xlink:href="#DejaVuSans-30"/>
       <use xlink:href="#DejaVuSans-2e" transform="translate(63.623047 0)"/>
       <use xlink:href="#DejaVuSans-30" transform="translate(95.410156 0)"/>
      </g>
     </g>
    </g>
    <g id="ytick_2">
     <g id="line2d_21">
      <path d="M 45.1085 256.452205 
L 603.1085 256.452205 
" clip-path="url(#p5992e5f570)" style="fill: none; stroke: #ffffff; stroke-width: 0.8; stroke-linecap: square"/>
     </g>
     <g id="line2d_22">
      <g>
       <use xlink:href="#mf249b188db" x="45.1085" y="256.452205" style="fill: #555555; stroke: #555555"/>
      </g>
     </g>
     <g id="text_12">
      <!-- 0.5 -->
      <g style="fill: #555555" transform="translate(22.81375 259.795517) scale(0.088 -0.088)">
       <use xlink:href="#DejaVuSans-30"/>
       <use xlink:href="#DejaVuSans-2e" transform="translate(63.623047 0)"/>
       <use xlink:href="#DejaVuSans-35" transform="translate(95.410156 0)"/>
      </g>
     </g>
    </g>
    <g id="ytick_3">
     <g id="line2d_23">
      <path d="M 45.1085 224.466597 
L 603.1085 224.466597 
" clip-path="url(#p5992e5f570)" style="fill: none; stroke: #ffffff; stroke-width: 0.8; stroke-linecap: square"/>
     </g>
     <g id="line2d_24">
      <g>
       <use xlink:href="#mf249b188db" x="45.1085" y="224.466597" style="fill: #555555; stroke: #555555"/>
      </g>
     </g>
     <g id="text_13">
      <!-- 1.0 -->
      <g style="fill: #555555" transform="translate(22.81375 227.809909) scale(0.088 -0.088)">
       <use xlink:href="#DejaVuSans-31"/>
       <use xlink:href="#DejaVuSans-2e" transform="translate(63.623047 0)"/>
       <use xlink:href="#DejaVuSans-30" transform="translate(95.410156 0)"/>
      </g>
     </g>
    </g>
    <g id="ytick_4">
     <g id="line2d_25">
      <path d="M 45.1085 192.480989 
L 603.1085 192.480989 
" clip-path="url(#p5992e5f570)" style="fill: none; stroke: #ffffff; stroke-width: 0.8; stroke-linecap: square"/>
     </g>
     <g id="line2d_26">
      <g>
       <use xlink:href="#mf249b188db" x="45.1085" y="192.480989" style="fill: #555555; stroke: #555555"/>
      </g>
     </g>
     <g id="text_14">
      <!-- 1.5 -->
      <g style="fill: #555555" transform="translate(22.81375 195.824301) scale(0.088 -0.088)">
       <use xlink:href="#DejaVuSans-31"/>
       <use xlink:href="#DejaVuSans-2e" transform="translate(63.623047 0)"/>
       <use xlink:href="#DejaVuSans-35" transform="translate(95.410156 0)"/>
      </g>
     </g>
    </g>
    <g id="ytick_5">
     <g id="line2d_27">
      <path d="M 45.1085 160.495381 
L 603.1085 160.495381 
" clip-path="url(#p5992e5f570)" style="fill: none; stroke: #ffffff; stroke-width: 0.8; stroke-linecap: square"/>
     </g>
     <g id="line2d_28">
      <g>
       <use xlink:href="#mf249b188db" x="45.1085" y="160.495381" style="fill: #555555; stroke: #555555"/>
      </g>
     </g>
     <g id="text_15">
      <!-- 2.0 -->
      <g style="fill: #555555" transform="translate(22.81375 163.838694) scale(0.088 -0.088)">
       <use xlink:href="#DejaVuSans-32"/>
       <use xlink:href="#DejaVuSans-2e" transform="translate(63.623047 0)"/>
       <use xlink:href="#DejaVuSans-30" transform="translate(95.410156 0)"/>
      </g>
     </g>
    </g>
    <g id="ytick_6">
     <g id="line2d_29">
      <path d="M 45.1085 128.509773 
L 603.1085 128.509773 
" clip-path="url(#p5992e5f570)" style="fill: none; stroke: #ffffff; stroke-width: 0.8; stroke-linecap: square"/>
     </g>
     <g id="line2d_30">
      <g>
       <use xlink:href="#mf249b188db" x="45.1085" y="128.509773" style="fill: #555555; stroke: #555555"/>
      </g>
     </g>
     <g id="text_16">
      <!-- 2.5 -->
      <g style="fill: #555555" transform="translate(22.81375 131.853086) scale(0.088 -0.088)">
       <use xlink:href="#DejaVuSans-32"/>
       <use xlink:href="#DejaVuSans-2e" transform="translate(63.623047 0)"/>
       <use xlink:href="#DejaVuSans-35" transform="translate(95.410156 0)"/>
      </g>
     </g>
    </g>
    <g id="ytick_7">
     <g id="line2d_31">
      <path d="M 45.1085 96.524165 
L 603.1085 96.524165 
" clip-path="url(#p5992e5f570)" style="fill: none; stroke: #ffffff; stroke-width: 0.8; stroke-linecap: square"/>
     </g>
     <g id="line2d_32">
      <g>
       <use xlink:href="#mf249b188db" x="45.1085" y="96.524165" style="fill: #555555; stroke: #555555"/>
      </g>
     </g>
     <g id="text_17">
      <!-- 3.0 -->
      <g style="fill: #555555" transform="translate(22.81375 99.867478) scale(0.088 -0.088)">
       <use xlink:href="#DejaVuSans-33"/>
       <use xlink:href="#DejaVuSans-2e" transform="translate(63.623047 0)"/>
       <use xlink:href="#DejaVuSans-30" transform="translate(95.410156 0)"/>
      </g>
     </g>
    </g>
    <g id="ytick_8">
     <g id="line2d_33">
      <path d="M 45.1085 64.538557 
L 603.1085 64.538557 
" clip-path="url(#p5992e5f570)" style="fill: none; stroke: #ffffff; stroke-width: 0.8; stroke-linecap: square"/>
     </g>
     <g id="line2d_34">
      <g>
       <use xlink:href="#mf249b188db" x="45.1085" y="64.538557" style="fill: #555555; stroke: #555555"/>
      </g>
     </g>
     <g id="text_18">
      <!-- 3.5 -->
      <g style="fill: #555555" transform="translate(22.81375 67.88187) scale(0.088 -0.088)">
       <use xlink:href="#DejaVuSans-33"/>
       <use xlink:href="#DejaVuSans-2e" transform="translate(63.623047 0)"/>
       <use xlink:href="#DejaVuSans-35" transform="translate(95.410156 0)"/>
      </g>
     </g>
    </g>
    <g id="ytick_9">
     <g id="line2d_35">
      <path d="M 45.1085 32.55295 
L 603.1085 32.55295 
" clip-path="url(#p5992e5f570)" style="fill: none; stroke: #ffffff; stroke-width: 0.8; stroke-linecap: square"/>
     </g>
     <g id="line2d_36">
      <g>
       <use xlink:href="#mf249b188db" x="45.1085" y="32.55295" style="fill: #555555; stroke: #555555"/>
      </g>
     </g>
     <g id="text_19">
      <!-- 4.0 -->
      <g style="fill: #555555" transform="translate(22.81375 35.896262) scale(0.088 -0.088)">
       <use xlink:href="#DejaVuSans-34"/>
       <use xlink:href="#DejaVuSans-2e" transform="translate(63.623047 0)"/>
       <use xlink:href="#DejaVuSans-30" transform="translate(95.410156 0)"/>
      </g>
     </g>
    </g>
    <g id="text_20">
     <!-- Density -->
     <g style="fill: #555555" transform="translate(16.318125 185.248125) rotate(-90) scale(0.12 -0.12)">
      <defs>
       <path id="DejaVuSans-79" d="M 2059 -325 
Q 1816 -950 1584 -1140 
Q 1353 -1331 966 -1331 
L 506 -1331 
L 506 -850 
L 844 -850 
Q 1081 -850 1212 -737 
Q 1344 -625 1503 -206 
L 1606 56 
L 191 3500 
L 800 3500 
L 1894 763 
L 2988 3500 
L 3597 3500 
L 2059 -325 
z
" transform="scale(0.015625)"/>
      </defs>
      <use xlink:href="#DejaVuSans-44"/>
      <use xlink:href="#DejaVuSans-65" transform="translate(77.001953 0)"/>
      <use xlink:href="#DejaVuSans-6e" transform="translate(138.525391 0)"/>
      <use xlink:href="#DejaVuSans-73" transform="translate(201.904297 0)"/>
      <use xlink:href="#DejaVuSans-69" transform="translate(254.003906 0)"/>
      <use xlink:href="#DejaVuSans-74" transform="translate(281.787109 0)"/>
      <use xlink:href="#DejaVuSans-79" transform="translate(320.996094 0)"/>
     </g>
    </g>
    <g id="text_21">
     <!-- 1e−5 -->
     <g style="fill: #555555" transform="translate(45.1085 20.837813) scale(0.088 -0.088)">
      <defs>
       <path id="DejaVuSans-2212" d="M 678 2272 
L 4684 2272 
L 4684 1741 
L 678 1741 
L 678 2272 
z
" transform="scale(0.015625)"/>
      </defs>
      <use xlink:href="#DejaVuSans-31"/>
      <use xlink:href="#DejaVuSans-65" transform="translate(63.623047 0)"/>
      <use xlink:href="#DejaVuSans-2212" transform="translate(125.146484 0)"/>
      <use xlink:href="#DejaVuSans-35" transform="translate(208.935547 0)"/>
     </g>
    </g>
   </g>
   <g id="FillBetweenPolyCollection_1">
    <defs>
     <path id="m6bf0a19b5f" d="M 70.472136 -75.980642 
L 70.472136 -71.334398 
L 80.824641 -107.447388 
L 91.177146 -142.327219 
L 101.52965 -172.400455 
L 111.882155 -196.374902 
L 122.23466 -217.720699 
L 132.587164 -243.201983 
L 142.939669 -259.102299 
L 153.292173 -263.089129 
L 163.644678 -266.73591 
L 173.997183 -264.439383 
L 184.349687 -254.203045 
L 194.702192 -241.396173 
L 205.054697 -231.262284 
L 215.407201 -228.021252 
L 225.759706 -228.638718 
L 236.112211 -222.250148 
L 246.464715 -205.416144 
L 256.81722 -189.900331 
L 267.169724 -175.300476 
L 277.522229 -158.732929 
L 287.874734 -143.299384 
L 298.227238 -131.920394 
L 308.579743 -121.378465 
L 318.932248 -112.53872 
L 329.284752 -104.510713 
L 339.637257 -96.71118 
L 349.989762 -88.141323 
L 360.342266 -81.161837 
L 370.694771 -77.253258 
L 381.047276 -74.5958 
L 391.39978 -71.800408 
L 401.752285 -68.948898 
L 412.104789 -66.021129 
L 422.457294 -62.169367 
L 432.809799 -58.544408 
L 443.162303 -55.474163 
L 453.514808 -53.642715 
L 463.867313 -52.666743 
L 474.219817 -52.29449 
L 484.572322 -52.232802 
L 494.924827 -52.230515 
L 505.277331 -52.2305 
L 515.629836 -52.2305 
L 525.98234 -52.2305 
L 536.334845 -52.2305 
L 546.68735 -52.2305 
L 557.039854 -52.2305 
L 567.392359 -52.2305 
L 577.744864 -52.2305 
L 577.744864 -52.2305 
L 577.744864 -52.2305 
L 567.392359 -52.2305 
L 557.039854 -52.2305 
L 546.68735 -52.2305 
L 536.334845 -52.2305 
L 525.98234 -52.2305 
L 515.629836 -52.2305 
L 505.277331 -52.230513 
L 494.924827 -52.231604 
L 484.572322 -52.256452 
L 474.219817 -52.497605 
L 463.867313 -53.513435 
L 453.514808 -55.535405 
L 443.162303 -58.736176 
L 432.809799 -63.509486 
L 422.457294 -68.469148 
L 412.104789 -73.402849 
L 401.752285 -77.038392 
L 391.39978 -80.508434 
L 381.047276 -83.529857 
L 370.694771 -86.276908 
L 360.342266 -90.230785 
L 349.989762 -97.669826 
L 339.637257 -106.831351 
L 329.284752 -115.532683 
L 318.932248 -124.2117 
L 308.579743 -133.910428 
L 298.227238 -143.81003 
L 287.874734 -155.561057 
L 277.522229 -170.881024 
L 267.169724 -187.142354 
L 256.81722 -201.617476 
L 246.464715 -217.674499 
L 236.112211 -235.053875 
L 225.759706 -240.776725 
L 215.407201 -239.543306 
L 205.054697 -243.870155 
L 194.702192 -255.549825 
L 184.349687 -269.910095 
L 173.997183 -281.963323 
L 163.644678 -286.327048 
L 153.292173 -284.050688 
L 142.939669 -281.670804 
L 132.587164 -264.672562 
L 122.23466 -237.406393 
L 111.882155 -214.352354 
L 101.52965 -186.769203 
L 91.177146 -153.951729 
L 80.824641 -116.66871 
L 70.472136 -75.980642 
z
" style="stroke: #0000ff; stroke-opacity: 0.2; stroke-width: 0.8"/>
    </defs>
    <g clip-path="url(#p5992e5f570)">
     <use xlink:href="#m6bf0a19b5f" x="0" y="340.668313" style="fill: #0000ff; fill-opacity: 0.2; stroke: #0000ff; stroke-opacity: 0.2; stroke-width: 0.8"/>
    </g>
   </g>
   <g id="FillBetweenPolyCollection_2">
    <defs>
     <path id="mf9a4fe0f39" d="M 70.472136 -59.679865 
L 70.472136 -58.67745 
L 80.824641 -72.57595 
L 91.177146 -90.051748 
L 101.52965 -106.848074 
L 111.882155 -122.483932 
L 122.23466 -136.119167 
L 132.587164 -148.661231 
L 142.939669 -159.515036 
L 153.292173 -169.497575 
L 163.644678 -177.720806 
L 173.997183 -184.561815 
L 184.349687 -190.988471 
L 194.702192 -195.92541 
L 205.054697 -200.383233 
L 215.407201 -203.842395 
L 225.759706 -206.286788 
L 236.112211 -207.404653 
L 246.464715 -207.595853 
L 256.81722 -207.232458 
L 267.169724 -206.595612 
L 277.522229 -204.411518 
L 287.874734 -200.45751 
L 298.227238 -194.695753 
L 308.579743 -188.452165 
L 318.932248 -180.763142 
L 329.284752 -172.585648 
L 339.637257 -163.119919 
L 349.989762 -153.467061 
L 360.342266 -143.691995 
L 370.694771 -134.068225 
L 381.047276 -123.710332 
L 391.39978 -112.954111 
L 401.752285 -103.683492 
L 412.104789 -95.768041 
L 422.457294 -88.136998 
L 432.809799 -80.740073 
L 443.162303 -74.073303 
L 453.514808 -68.430609 
L 463.867313 -63.639719 
L 474.219817 -59.829949 
L 484.572322 -57.260623 
L 494.924827 -55.309144 
L 505.277331 -54.096605 
L 515.629836 -53.276839 
L 525.98234 -52.734895 
L 536.334845 -52.432716 
L 546.68735 -52.285768 
L 557.039854 -52.236992 
L 567.392359 -52.230715 
L 577.744864 -52.230502 
L 577.744864 -52.250268 
L 577.744864 -52.250268 
L 567.392359 -52.320976 
L 557.039854 -52.52105 
L 546.68735 -52.903896 
L 536.334845 -53.423309 
L 525.98234 -54.367715 
L 515.629836 -55.703732 
L 505.277331 -57.360045 
L 494.924827 -59.442028 
L 484.572322 -62.221249 
L 474.219817 -66.278696 
L 463.867313 -72.02163 
L 453.514808 -78.833703 
L 443.162303 -86.887998 
L 432.809799 -94.893549 
L 422.457294 -103.227603 
L 412.104789 -111.214135 
L 401.752285 -120.598522 
L 391.39978 -130.756548 
L 381.047276 -141.519225 
L 370.694771 -152.466163 
L 360.342266 -162.866335 
L 349.989762 -171.559775 
L 339.637257 -179.610652 
L 329.284752 -186.886703 
L 318.932248 -193.255985 
L 308.579743 -199.781055 
L 298.227238 -205.012932 
L 287.874734 -209.798852 
L 277.522229 -213.681362 
L 267.169724 -216.970212 
L 256.81722 -219.94112 
L 246.464715 -222.498124 
L 236.112211 -224.482012 
L 225.759706 -224.411618 
L 215.407201 -222.042988 
L 205.054697 -219.152314 
L 194.702192 -214.611889 
L 184.349687 -208.879992 
L 173.997183 -201.741201 
L 163.644678 -193.39705 
L 153.292173 -184.153484 
L 142.939669 -172.976633 
L 132.587164 -159.077527 
L 122.23466 -144.810889 
L 111.882155 -129.065603 
L 101.52965 -112.061925 
L 91.177146 -93.637294 
L 80.824641 -74.628625 
L 70.472136 -59.679865 
z
" style="stroke: #ffa500; stroke-opacity: 0.2; stroke-width: 0.8"/>
    </defs>
    <g clip-path="url(#p5992e5f570)">
     <use xlink:href="#mf9a4fe0f39" x="0" y="340.668313" style="fill: #ffa500; fill-opacity: 0.2; stroke: #ffa500; stroke-opacity: 0.2; stroke-width: 0.8"/>
    </g>
   </g>
   <g id="FillBetweenPolyCollection_3">
    <defs>
     <path id="mffd373f5df" d="M 70.472136 -66.458405 
L 70.472136 -63.710411 
L 80.824641 -93.356752 
L 91.177146 -130.941702 
L 101.52965 -166.138714 
L 111.882155 -198.111849 
L 122.23466 -225.494184 
L 132.587164 -246.935425 
L 142.939669 -262.098911 
L 153.292173 -272.67453 
L 163.644678 -276.962474 
L 173.997183 -276.317446 
L 184.349687 -271.599087 
L 194.702192 -262.939356 
L 205.054697 -250.8103 
L 215.407201 -236.600472 
L 225.759706 -220.28397 
L 236.112211 -204.239776 
L 246.464715 -188.163669 
L 256.81722 -172.212426 
L 267.169724 -157.294722 
L 277.522229 -144.432098 
L 287.874734 -131.951146 
L 298.227238 -120.794512 
L 308.579743 -111.312438 
L 318.932248 -102.636137 
L 329.284752 -95.040254 
L 339.637257 -88.207732 
L 349.989762 -82.302403 
L 360.342266 -77.382787 
L 370.694771 -73.173444 
L 381.047276 -68.927866 
L 391.39978 -66.161257 
L 401.752285 -63.573952 
L 412.104789 -61.341914 
L 422.457294 -59.465898 
L 432.809799 -57.882152 
L 443.162303 -56.852396 
L 453.514808 -55.707272 
L 463.867313 -54.92275 
L 474.219817 -54.283604 
L 484.572322 -53.722743 
L 494.924827 -53.330937 
L 505.277331 -53.009999 
L 515.629836 -52.782617 
L 525.98234 -52.626034 
L 536.334845 -52.505309 
L 546.68735 -52.410025 
L 557.039854 -52.331225 
L 567.392359 -52.29268 
L 577.744864 -52.263174 
L 577.744864 -53.079685 
L 577.744864 -53.079685 
L 567.392359 -53.249992 
L 557.039854 -53.458863 
L 546.68735 -53.702461 
L 536.334845 -54.035016 
L 525.98234 -54.4559 
L 515.629836 -55.066391 
L 505.277331 -55.519553 
L 494.924827 -56.209391 
L 484.572322 -57.051989 
L 474.219817 -58.060253 
L 463.867313 -59.312136 
L 453.514808 -60.706056 
L 443.162303 -62.523188 
L 432.809799 -64.577781 
L 422.457294 -66.890642 
L 412.104789 -69.674651 
L 401.752285 -72.691334 
L 391.39978 -76.174787 
L 381.047276 -80.624722 
L 370.694771 -85.224899 
L 360.342266 -90.822224 
L 349.989762 -96.992231 
L 339.637257 -103.96522 
L 329.284752 -111.257841 
L 318.932248 -119.211855 
L 308.579743 -128.707536 
L 298.227238 -139.770019 
L 287.874734 -151.039335 
L 277.522229 -162.609733 
L 267.169724 -175.595633 
L 256.81722 -189.511395 
L 246.464715 -204.307984 
L 236.112211 -219.0272 
L 225.759706 -235.077281 
L 215.407201 -250.345388 
L 205.054697 -266.011767 
L 194.702192 -280.290699 
L 184.349687 -291.207261 
L 173.997183 -299.73581 
L 163.644678 -304.2305 
L 153.292173 -303.427105 
L 142.939669 -296.384349 
L 132.587164 -281.312131 
L 122.23466 -258.395592 
L 111.882155 -229.429909 
L 101.52965 -192.071853 
L 91.177146 -149.16705 
L 80.824641 -102.798407 
L 70.472136 -66.458405 
z
" style="stroke: #008000; stroke-opacity: 0.2; stroke-width: 0.8"/>
    </defs>
    <g clip-path="url(#p5992e5f570)">
     <use xlink:href="#mffd373f5df" x="0" y="340.668313" style="fill: #008000; fill-opacity: 0.2; stroke: #008000; stroke-opacity: 0.2; stroke-width: 0.8"/>
    </g>
   </g>
   <g id="line2d_37">
    <path d="M 70.472136 267.064205 
L 80.824641 228.71314 
L 91.177146 192.551635 
L 101.52965 161.205711 
L 111.882155 135.300316 
L 122.23466 113.029191 
L 132.587164 86.949272 
L 142.939669 70.018632 
L 153.292173 66.58959 
L 163.644678 63.942022 
L 173.997183 67.378566 
L 184.349687 78.534142 
L 194.702192 92.248543 
L 205.054697 103.239234 
L 215.407201 106.904524 
L 225.759706 106.070354 
L 236.112211 112.147521 
L 246.464715 128.444046 
L 256.81722 144.752338 
L 267.169724 159.536367 
L 277.522229 176.039561 
L 287.874734 191.613283 
L 298.227238 202.578961 
L 308.579743 212.733422 
L 318.932248 222.309549 
L 329.284752 230.815007 
L 339.637257 239.15473 
L 349.989762 248.011516 
L 360.342266 255.127267 
L 370.694771 259.152175 
L 381.047276 261.913849 
L 391.39978 264.907632 
L 401.752285 267.924891 
L 412.104789 271.157165 
L 422.457294 275.430434 
L 432.809799 279.853917 
L 443.162303 283.628233 
L 453.514808 286.11335 
L 463.867313 287.599858 
L 474.219817 288.282501 
L 484.572322 288.425819 
L 494.924827 288.437427 
L 505.277331 288.437809 
L 515.629836 288.437812 
L 525.98234 288.437812 
L 536.334845 288.437813 
L 546.68735 288.437813 
L 557.039854 288.437813 
L 567.392359 288.437813 
L 577.744864 288.437813 
" clip-path="url(#p5992e5f570)" style="fill: none; stroke: #0000ff; stroke-width: 1.2; stroke-linecap: square"/>
   </g>
   <g id="line2d_38">
    <path d="M 70.472136 281.500116 
L 80.824641 267.137121 
L 91.177146 248.899143 
L 101.52965 231.230965 
L 111.882155 215.030311 
L 122.23466 200.285506 
L 132.587164 186.959374 
L 142.939669 175.067948 
L 153.292173 164.541948 
L 163.644678 155.358569 
L 173.997183 147.407345 
L 184.349687 140.681193 
L 194.702192 135.218236 
L 205.054697 130.922206 
L 215.407201 127.761 
L 225.759706 125.765972 
L 236.112211 124.939393 
L 246.464715 125.273071 
L 256.81722 126.555228 
L 267.169724 128.725751 
L 277.522229 131.871758 
L 287.874734 135.994633 
L 298.227238 140.991851 
L 308.579743 146.749529 
L 318.932248 153.353334 
L 329.284752 160.783165 
L 339.637257 168.934633 
L 349.989762 177.707586 
L 360.342266 187.116524 
L 370.694771 197.226992 
L 381.047276 207.864437 
L 391.39978 218.514269 
L 401.752285 228.403719 
L 412.104789 237.167586 
L 422.457294 245.17051 
L 432.809799 252.742896 
L 443.162303 260.016902 
L 453.514808 266.942926 
L 463.867313 273.038358 
L 474.219817 277.713306 
L 484.572322 281.035236 
L 494.924827 283.411019 
L 505.277331 285.139359 
L 515.629836 286.382264 
L 525.98234 287.252338 
L 536.334845 287.815564 
L 546.68735 288.152771 
L 557.039854 288.335351 
L 567.392359 288.412127 
L 577.744864 288.433999 
" clip-path="url(#p5992e5f570)" style="fill: none; stroke: #ffa500; stroke-width: 1.2; stroke-linecap: square"/>
   </g>
   <g id="line2d_39">
    <path d="M 70.472136 275.666678 
L 80.824641 242.979671 
L 91.177146 201.5993 
L 101.52965 162.496231 
L 111.882155 128.154904 
L 122.23466 99.623988 
L 132.587164 77.541786 
L 142.939669 61.994533 
L 153.292173 53.028001 
L 163.644678 50.161142 
L 173.997183 52.589186 
L 184.349687 59.367462 
L 194.702192 69.597134 
L 205.054697 82.543285 
L 215.407201 97.071527 
L 225.759706 112.59409 
L 236.112211 128.409367 
L 246.464715 143.973944 
L 256.81722 159.044047 
L 267.169724 173.26458 
L 277.522229 186.58493 
L 287.874734 198.903968 
L 298.227238 210.078089 
L 308.579743 220.273687 
L 318.932248 229.375466 
L 329.284752 237.491602 
L 339.637257 244.663731 
L 349.989762 251.015748 
L 360.342266 256.639544 
L 370.694771 261.580871 
L 381.047276 265.862937 
L 391.39978 269.514276 
L 401.752285 272.662985 
L 412.104789 275.39475 
L 422.457294 277.722998 
L 432.809799 279.650071 
L 443.162303 281.253091 
L 453.514808 282.602371 
L 463.867313 283.730711 
L 474.219817 284.67423 
L 484.572322 285.444459 
L 494.924827 286.04974 
L 505.277331 286.546698 
L 515.629836 286.948417 
L 525.98234 287.279344 
L 536.334845 287.546156 
L 546.68735 287.751813 
L 557.039854 287.907464 
L 567.392359 288.032488 
L 577.744864 288.128924 
" clip-path="url(#p5992e5f570)" style="fill: none; stroke: #008000; stroke-width: 1.2; stroke-linecap: square"/>
   </g>
   <g id="patch_3">
    <path d="M 45.1085 301.037813 
L 45.1085 23.837813 
" style="fill: none; stroke: #ffffff; stroke-linejoin: miter; stroke-linecap: square"/>
   </g>
   <g id="patch_4">
    <path d="M 603.1085 301.037813 
L 603.1085 23.837813 
" style="fill: none; stroke: #ffffff; stroke-linejoin: miter; stroke-linecap: square"/>
   </g>
   <g id="patch_5">
    <path d="M 45.1085 301.037813 
L 603.1085 301.037813 
" style="fill: none; stroke: #ffffff; stroke-linejoin: miter; stroke-linecap: square"/>
   </g>
   <g id="patch_6">
    <path d="M 45.1085 23.837813 
L 603.1085 23.837813 
" style="fill: none; stroke: #ffffff; stroke-linejoin: miter; stroke-linecap: square"/>
   </g>
   <g id="text_22">
    <!-- Pairwise Distance Density for Time Slice 1000 -->
    <g transform="translate(163.8435 17.837813) scale(0.14 -0.14)">
     <defs>
      <path id="DejaVuSans-50" d="M 1259 4147 
L 1259 2394 
L 2053 2394 
Q 2494 2394 2734 2622 
Q 2975 2850 2975 3272 
Q 2975 3691 2734 3919 
Q 2494 4147 2053 4147 
L 1259 4147 
z
M 628 4666 
L 2053 4666 
Q 2838 4666 3239 4311 
Q 3641 3956 3641 3272 
Q 3641 2581 3239 2228 
Q 2838 1875 2053 1875 
L 1259 1875 
L 1259 0 
L 628 0 
L 628 4666 
z
" transform="scale(0.015625)"/>
      <path id="DejaVuSans-72" d="M 2631 2963 
Q 2534 3019 2420 3045 
Q 2306 3072 2169 3072 
Q 1681 3072 1420 2755 
Q 1159 2438 1159 1844 
L 1159 0 
L 581 0 
L 581 3500 
L 1159 3500 
L 1159 2956 
Q 1341 3275 1631 3429 
Q 1922 3584 2338 3584 
Q 2397 3584 2469 3576 
Q 2541 3569 2628 3553 
L 2631 2963 
z
" transform="scale(0.015625)"/>
      <path id="DejaVuSans-77" d="M 269 3500 
L 844 3500 
L 1563 769 
L 2278 3500 
L 2956 3500 
L 3675 769 
L 4391 3500 
L 4966 3500 
L 4050 0 
L 3372 0 
L 2619 2869 
L 1863 0 
L 1184 0 
L 269 3500 
z
" transform="scale(0.015625)"/>
      <path id="DejaVuSans-20" transform="scale(0.015625)"/>
      <path id="DejaVuSans-66" d="M 2375 4863 
L 2375 4384 
L 1825 4384 
Q 1516 4384 1395 4259 
Q 1275 4134 1275 3809 
L 1275 3500 
L 2222 3500 
L 2222 3053 
L 1275 3053 
L 1275 0 
L 697 0 
L 697 3053 
L 147 3053 
L 147 3500 
L 697 3500 
L 697 3744 
Q 697 4328 969 4595 
Q 1241 4863 1831 4863 
L 2375 4863 
z
" transform="scale(0.015625)"/>
      <path id="DejaVuSans-6f" d="M 1959 3097 
Q 1497 3097 1228 2736 
Q 959 2375 959 1747 
Q 959 1119 1226 758 
Q 1494 397 1959 397 
Q 2419 397 2687 759 
Q 2956 1122 2956 1747 
Q 2956 2369 2687 2733 
Q 2419 3097 1959 3097 
z
M 1959 3584 
Q 2709 3584 3137 3096 
Q 3566 2609 3566 1747 
Q 3566 888 3137 398 
Q 2709 -91 1959 -91 
Q 1206 -91 779 398 
Q 353 888 353 1747 
Q 353 2609 779 3096 
Q 1206 3584 1959 3584 
z
" transform="scale(0.015625)"/>
      <path id="DejaVuSans-54" d="M -19 4666 
L 3928 4666 
L 3928 4134 
L 2272 4134 
L 2272 0 
L 1638 0 
L 1638 4134 
L -19 4134 
L -19 4666 
z
" transform="scale(0.015625)"/>
      <path id="DejaVuSans-6d" d="M 3328 2828 
Q 3544 3216 3844 3400 
Q 4144 3584 4550 3584 
Q 5097 3584 5394 3201 
Q 5691 2819 5691 2113 
L 5691 0 
L 5113 0 
L 5113 2094 
Q 5113 2597 4934 2840 
Q 4756 3084 4391 3084 
Q 3944 3084 3684 2787 
Q 3425 2491 3425 1978 
L 3425 0 
L 2847 0 
L 2847 2094 
Q 2847 2600 2669 2842 
Q 2491 3084 2119 3084 
Q 1678 3084 1418 2786 
Q 1159 2488 1159 1978 
L 1159 0 
L 581 0 
L 581 3500 
L 1159 3500 
L 1159 2956 
Q 1356 3278 1631 3431 
Q 1906 3584 2284 3584 
Q 2666 3584 2933 3390 
Q 3200 3197 3328 2828 
z
" transform="scale(0.015625)"/>
      <path id="DejaVuSans-53" d="M 3425 4513 
L 3425 3897 
Q 3066 4069 2747 4153 
Q 2428 4238 2131 4238 
Q 1616 4238 1336 4038 
Q 1056 3838 1056 3469 
Q 1056 3159 1242 3001 
Q 1428 2844 1947 2747 
L 2328 2669 
Q 3034 2534 3370 2195 
Q 3706 1856 3706 1288 
Q 3706 609 3251 259 
Q 2797 -91 1919 -91 
Q 1588 -91 1214 -16 
Q 841 59 441 206 
L 441 856 
Q 825 641 1194 531 
Q 1563 422 1919 422 
Q 2459 422 2753 634 
Q 3047 847 3047 1241 
Q 3047 1584 2836 1778 
Q 2625 1972 2144 2069 
L 1759 2144 
Q 1053 2284 737 2584 
Q 422 2884 422 3419 
Q 422 4038 858 4394 
Q 1294 4750 2059 4750 
Q 2388 4750 2728 4690 
Q 3069 4631 3425 4513 
z
" transform="scale(0.015625)"/>
      <path id="DejaVuSans-6c" d="M 603 4863 
L 1178 4863 
L 1178 0 
L 603 0 
L 603 4863 
z
" transform="scale(0.015625)"/>
     </defs>
     <use xlink:href="#DejaVuSans-50"/>
     <use xlink:href="#DejaVuSans-61" transform="translate(55.802734 0)"/>
     <use xlink:href="#DejaVuSans-69" transform="translate(117.082031 0)"/>
     <use xlink:href="#DejaVuSans-72" transform="translate(144.865234 0)"/>
     <use xlink:href="#DejaVuSans-77" transform="translate(185.978516 0)"/>
     <use xlink:href="#DejaVuSans-69" transform="translate(267.765625 0)"/>
     <use xlink:href="#DejaVuSans-73" transform="translate(295.548828 0)"/>
     <use xlink:href="#DejaVuSans-65" transform="translate(347.648438 0)"/>
     <use xlink:href="#DejaVuSans-20" transform="translate(409.171875 0)"/>
     <use xlink:href="#DejaVuSans-44" transform="translate(440.958984 0)"/>
     <use xlink:href="#DejaVuSans-69" transform="translate(517.960938 0)"/>
     <use xlink:href="#DejaVuSans-73" transform="translate(545.744141 0)"/>
     <use xlink:href="#DejaVuSans-74" transform="translate(597.84375 0)"/>
     <use xlink:href="#DejaVuSans-61" transform="translate(637.052734 0)"/>
     <use xlink:href="#DejaVuSans-6e" transform="translate(698.332031 0)"/>
     <use xlink:href="#DejaVuSans-63" transform="translate(761.710938 0)"/>
     <use xlink:href="#DejaVuSans-65" transform="translate(816.691406 0)"/>
     <use xlink:href="#DejaVuSans-20" transform="translate(878.214844 0)"/>
     <use xlink:href="#DejaVuSans-44" transform="translate(910.001953 0)"/>
     <use xlink:href="#DejaVuSans-65" transform="translate(987.003906 0)"/>
     <use xlink:href="#DejaVuSans-6e" transform="translate(1048.527344 0)"/>
     <use xlink:href="#DejaVuSans-73" transform="translate(1111.90625 0)"/>
     <use xlink:href="#DejaVuSans-69" transform="translate(1164.005859 0)"/>
     <use xlink:href="#DejaVuSans-74" transform="translate(1191.789062 0)"/>
     <use xlink:href="#DejaVuSans-79" transform="translate(1230.998047 0)"/>
     <use xlink:href="#DejaVuSans-20" transform="translate(1290.177734 0)"/>
     <use xlink:href="#DejaVuSans-66" transform="translate(1321.964844 0)"/>
     <use xlink:href="#DejaVuSans-6f" transform="translate(1357.169922 0)"/>
     <use xlink:href="#DejaVuSans-72" transform="translate(1418.351562 0)"/>
     <use xlink:href="#DejaVuSans-20" transform="translate(1459.464844 0)"/>
     <use xlink:href="#DejaVuSans-54" transform="translate(1491.251953 0)"/>
     <use xlink:href="#DejaVuSans-69" transform="translate(1549.210938 0)"/>
     <use xlink:href="#DejaVuSans-6d" transform="translate(1576.994141 0)"/>
     <use xlink:href="#DejaVuSans-65" transform="translate(1674.40625 0)"/>
     <use xlink:href="#DejaVuSans-20" transform="translate(1735.929688 0)"/>
     <use xlink:href="#DejaVuSans-53" transform="translate(1767.716797 0)"/>
     <use xlink:href="#DejaVuSans-6c" transform="translate(1831.193359 0)"/>
     <use xlink:href="#DejaVuSans-69" transform="translate(1858.976562 0)"/>
     <use xlink:href="#DejaVuSans-63" transform="translate(1886.759766 0)"/>
     <use xlink:href="#DejaVuSans-65" transform="translate(1941.740234 0)"/>
     <use xlink:href="#DejaVuSans-20" transform="translate(2003.263672 0)"/>
     <use xlink:href="#DejaVuSans-31" transform="translate(2035.050781 0)"/>
     <use xlink:href="#DejaVuSans-30" transform="translate(2098.673828 0)"/>
     <use xlink:href="#DejaVuSans-30" transform="translate(2162.296875 0)"/>
     <use xlink:href="#DejaVuSans-30" transform="translate(2225.919922 0)"/>
    </g>
   </g>
   <g id="legend_1">
    <g id="line2d_40">
     <path d="M 519.628812 36.93625 
L 529.628812 36.93625 
L 539.628812 36.93625 
" style="fill: none; stroke: #0000ff; stroke-width: 1.2; stroke-linecap: square"/>
    </g>
    <g id="text_23">
     <!-- Empirical -->
     <g transform="translate(547.628812 40.43625) scale(0.1 -0.1)">
      <defs>
       <path id="DejaVuSans-45" d="M 628 4666 
L 3578 4666 
L 3578 4134 
L 1259 4134 
L 1259 2753 
L 3481 2753 
L 3481 2222 
L 1259 2222 
L 1259 531 
L 3634 531 
L 3634 0 
L 628 0 
L 628 4666 
z
" transform="scale(0.015625)"/>
       <path id="DejaVuSans-70" d="M 1159 525 
L 1159 -1331 
L 581 -1331 
L 581 3500 
L 1159 3500 
L 1159 2969 
Q 1341 3281 1617 3432 
Q 1894 3584 2278 3584 
Q 2916 3584 3314 3078 
Q 3713 2572 3713 1747 
Q 3713 922 3314 415 
Q 2916 -91 2278 -91 
Q 1894 -91 1617 61 
Q 1341 213 1159 525 
z
M 3116 1747 
Q 3116 2381 2855 2742 
Q 2594 3103 2138 3103 
Q 1681 3103 1420 2742 
Q 1159 2381 1159 1747 
Q 1159 1113 1420 752 
Q 1681 391 2138 391 
Q 2594 391 2855 752 
Q 3116 1113 3116 1747 
z
" transform="scale(0.015625)"/>
      </defs>
      <use xlink:href="#DejaVuSans-45"/>
      <use xlink:href="#DejaVuSans-6d" transform="translate(63.183594 0)"/>
      <use xlink:href="#DejaVuSans-70" transform="translate(160.595703 0)"/>
      <use xlink:href="#DejaVuSans-69" transform="translate(224.072266 0)"/>
      <use xlink:href="#DejaVuSans-72" transform="translate(251.855469 0)"/>
      <use xlink:href="#DejaVuSans-69" transform="translate(292.96875 0)"/>
      <use xlink:href="#DejaVuSans-63" transform="translate(320.751953 0)"/>
      <use xlink:href="#DejaVuSans-61" transform="translate(375.732422 0)"/>
      <use xlink:href="#DejaVuSans-6c" transform="translate(437.011719 0)"/>
     </g>
    </g>
    <g id="line2d_41">
     <path d="M 519.628812 51.614375 
L 529.628812 51.614375 
L 539.628812 51.614375 
" style="fill: none; stroke: #ffa500; stroke-width: 1.2; stroke-linecap: square"/>
    </g>
    <g id="text_24">
     <!-- CSR -->
     <g transform="translate(547.628812 55.114375) scale(0.1 -0.1)">
      <defs>
       <path id="DejaVuSans-43" d="M 4122 4306 
L 4122 3641 
Q 3803 3938 3442 4084 
Q 3081 4231 2675 4231 
Q 1875 4231 1450 3742 
Q 1025 3253 1025 2328 
Q 1025 1406 1450 917 
Q 1875 428 2675 428 
Q 3081 428 3442 575 
Q 3803 722 4122 1019 
L 4122 359 
Q 3791 134 3420 21 
Q 3050 -91 2638 -91 
Q 1578 -91 968 557 
Q 359 1206 359 2328 
Q 359 3453 968 4101 
Q 1578 4750 2638 4750 
Q 3056 4750 3426 4639 
Q 3797 4528 4122 4306 
z
" transform="scale(0.015625)"/>
       <path id="DejaVuSans-52" d="M 2841 2188 
Q 3044 2119 3236 1894 
Q 3428 1669 3622 1275 
L 4263 0 
L 3584 0 
L 2988 1197 
Q 2756 1666 2539 1819 
Q 2322 1972 1947 1972 
L 1259 1972 
L 1259 0 
L 628 0 
L 628 4666 
L 2053 4666 
Q 2853 4666 3247 4331 
Q 3641 3997 3641 3322 
Q 3641 2881 3436 2590 
Q 3231 2300 2841 2188 
z
M 1259 4147 
L 1259 2491 
L 2053 2491 
Q 2509 2491 2742 2702 
Q 2975 2913 2975 3322 
Q 2975 3731 2742 3939 
Q 2509 4147 2053 4147 
L 1259 4147 
z
" transform="scale(0.015625)"/>
      </defs>
      <use xlink:href="#DejaVuSans-43"/>
      <use xlink:href="#DejaVuSans-53" transform="translate(69.824219 0)"/>
      <use xlink:href="#DejaVuSans-52" transform="translate(133.300781 0)"/>
     </g>
    </g>
    <g id="line2d_42">
     <path d="M 519.628812 66.2925 
L 529.628812 66.2925 
L 539.628812 66.2925 
" style="fill: none; stroke: #008000; stroke-width: 1.2; stroke-linecap: square"/>
    </g>
    <g id="text_25">
     <!-- BISE -->
     <g transform="translate(547.628812 69.7925) scale(0.1 -0.1)">
      <defs>
       <path id="DejaVuSans-42" d="M 1259 2228 
L 1259 519 
L 2272 519 
Q 2781 519 3026 730 
Q 3272 941 3272 1375 
Q 3272 1813 3026 2020 
Q 2781 2228 2272 2228 
L 1259 2228 
z
M 1259 4147 
L 1259 2741 
L 2194 2741 
Q 2656 2741 2882 2914 
Q 3109 3088 3109 3444 
Q 3109 3797 2882 3972 
Q 2656 4147 2194 4147 
L 1259 4147 
z
M 628 4666 
L 2241 4666 
Q 2963 4666 3353 4366 
Q 3744 4066 3744 3513 
Q 3744 3084 3544 2831 
Q 3344 2578 2956 2516 
Q 3422 2416 3680 2098 
Q 3938 1781 3938 1306 
Q 3938 681 3513 340 
Q 3088 0 2303 0 
L 628 0 
L 628 4666 
z
" transform="scale(0.015625)"/>
       <path id="DejaVuSans-49" d="M 628 4666 
L 1259 4666 
L 1259 0 
L 628 0 
L 628 4666 
z
" transform="scale(0.015625)"/>
      </defs>
      <use xlink:href="#DejaVuSans-42"/>
      <use xlink:href="#DejaVuSans-49" transform="translate(68.603516 0)"/>
      <use xlink:href="#DejaVuSans-53" transform="translate(98.095703 0)"/>
      <use xlink:href="#DejaVuSans-45" transform="translate(161.572266 0)"/>
     </g>
    </g>
   </g>
  </g>
 </g>
 <defs>
  <clipPath id="p5992e5f570">
   <rect x="45.1085" y="23.837813" width="558" height="277.2"/>
  </clipPath>
 </defs>
</svg>
